<svg id="Слой_1" data-name="Слой 1" xmlns="http://www.w3.org/2000/svg" viewBox="0 0 512 512"><defs><style>.cls-1{fill:#00c5c5;}</style></defs><title>иконки для подкатегорий</title><path class="cls-1" d="M217.9,292.49a8.88,8.88,0,0,0-12.55,0,23.78,23.78,0,0,1-33.6,0A8.88,8.88,0,1,0,159.19,305a41.56,41.56,0,0,0,58.71,0A8.88,8.88,0,0,0,217.9,292.49Z"/><path class="cls-1" d="M353.42,292.49a8.88,8.88,0,0,0-12.55,0,23.78,23.78,0,0,1-33.6,0A8.88,8.88,0,1,0,294.72,305a41.56,41.56,0,0,0,58.71,0A8.88,8.88,0,0,0,353.42,292.49Z"/><path class="cls-1" d="M445.39,284.57a38.48,38.48,0,0,0-34.51-38.14V232.5a154.37,154.37,0,0,0-65-125.84,90.55,90.55,0,0,0-178.91,0A154.37,154.37,0,0,0,102,232.5v13.92a38.47,38.47,0,0,0-34.74,38.16l0,22.48a38.41,38.41,0,0,0,38.41,38.48h4.3a200.45,200.45,0,0,0,144.28,138.8,8.88,8.88,0,0,0,4.29,0l.15,0a201.07,201.07,0,0,0,46.59-18,8.88,8.88,0,0,0-8.41-15.64,183.29,183.29,0,0,1-40.47,15.88,182.75,182.75,0,0,1-136.6-177V278.18l3.83-.87a442.4,442.4,0,0,0,142.74-60.37A158.52,158.52,0,0,0,392.1,279h1v10.49A183.49,183.49,0,0,1,371.4,376a8.88,8.88,0,1,0,15.64,8.4,200.16,200.16,0,0,0,15.82-38.83H407a38.41,38.41,0,0,0,38.41-38.48ZM105.6,327.78h0a20.65,20.65,0,0,1-20.65-20.69l0-22.48a20.69,20.69,0,0,1,17-20.28v25.19a202,202,0,0,0,3.65,38.27h0ZM256.42,47.86a72.67,72.67,0,0,1,67.63,45.8,154.25,154.25,0,0,0-135.26,0A72.67,72.67,0,0,1,256.42,47.86Zm136.7,209.49v3.87h-1A140.78,140.78,0,0,1,281,207q9.22-6.54,18.08-13.53a8.88,8.88,0,1,0-11-13.93A424.22,424.22,0,0,1,119.72,260V232.5c0-75.38,61.32-136.7,136.7-136.7s136.7,61.32,136.7,136.7v24.85Zm28.52,64.37a20.51,20.51,0,0,1-14.49,6.06,200.7,200.7,0,0,0,3.72-38.32v-25.1a20.7,20.7,0,0,1,16.76,20.24l0,22.48A20.51,20.51,0,0,1,421.64,321.72Z"/><path class="cls-1" d="M324.14,160.21a8.88,8.88,0,0,0-12.53-.7l-.12.11a8.88,8.88,0,0,0,11.83,13.24l.12-.11A8.88,8.88,0,0,0,324.14,160.21Z"/><path class="cls-1" d="M415.62,446.6l-49-49-18.86-49.3a16.94,16.94,0,0,0-18.86-10.61,82.69,82.69,0,0,0-66.16,66.14l0,.21a17,17,0,0,0,10.18,18.69l48.39,20L360.48,482A8.88,8.88,0,1,0,373,469.44l-34.23-34.23L359,415.05l44.1,44.1a8.88,8.88,0,0,0,12.55-12.55Zm-91.45-21.86-43.93-18.2a64.87,64.87,0,0,1,51.14-51.3l17.23,45.06Z"/><path class="cls-1" d="M438.46,469.44a8.87,8.87,0,1,0,2.6,6.28A8.94,8.94,0,0,0,438.46,469.44Z"/></svg>