<svg id="Слой_1" data-name="Слой 1" xmlns="http://www.w3.org/2000/svg" viewBox="0 0 512 512"><defs><style>.cls-1{fill:#00c5c5;}</style></defs><title>иконки для подкатегорий</title><path class="cls-1" d="M178.21,286.56a14.53,14.53,0,0,1,10.34,4.28,8,8,0,0,0,11.31-11.31,30.62,30.62,0,0,0-43.31,0,8,8,0,0,0,11.31,11.31A14.52,14.52,0,0,1,178.21,286.56Z"/><path class="cls-1" d="M322.22,279.53a8,8,0,1,0,11.31,11.31,14.64,14.64,0,0,1,20.68,0,8,8,0,0,0,11.31-11.31A30.66,30.66,0,0,0,322.22,279.53Z"/><path class="cls-1" d="M343.83,358.45a117.21,117.21,0,0,1-165.58,0,8,8,0,0,0-11.31,11.31,133.23,133.23,0,0,0,188.21,0,8,8,0,0,0-11.31-11.31Z"/><path class="cls-1" d="M449.8,295.18a44.43,44.43,0,0,0-36.37-43.63V117.71A51.67,51.67,0,0,0,344.62,69l-50.23-17C255.8,38.82,215.18,37.48,176.91,48c-50.09,13.82-78.81,43-83.24,84.59a60.73,60.73,0,0,0-9.16,17.25l-3.9,11.53a13.89,13.89,0,0,0,22.82,14.43,27.92,27.92,0,0,1,5.2-4v79.66a44.36,44.36,0,0,0,2.5,87.64,153.62,153.62,0,0,0,42,80.71A150.5,150.5,0,0,0,261,465.24h0A152.49,152.49,0,0,0,411.19,339.16,44.43,44.43,0,0,0,449.8,295.18ZM381.49,88a35.13,35.13,0,0,1,16,29.72V222.4a52,52,0,0,1-43.9-51.28l-.66-88A35,35,0,0,1,381.49,88ZM98.12,159.6l1.56-4.6A44.81,44.81,0,0,1,161,128.73a61.17,61.17,0,0,0,71.22-14.83l2-2.24a8,8,0,0,0-12-10.6l-2,2.24a45.08,45.08,0,0,1-52.48,10.93,60.88,60.88,0,0,0-49.61-.78c-1.44.62-2.85,1.31-4.23,2,9.3-24.79,31.81-42.25,67.21-52,35.16-9.7,72.54-8.45,108.08,3.61l47.62,16.17.62,41.34a141.3,141.3,0,0,1-191,34.59A43.35,43.35,0,0,0,98.12,159.6ZM88.28,295.18A28.41,28.41,0,0,1,108.65,268v43.36q0,5.62.4,11.17A28.41,28.41,0,0,1,88.28,295.18ZM357.49,409.29a135.51,135.51,0,0,1-96.43,39.95h0a134.63,134.63,0,0,1-96.49-40.57,137.84,137.84,0,0,1-39.9-97.34V168.12a27.65,27.65,0,0,1,13.07,4.45,157.37,157.37,0,0,0,199.82-23.15v21.71a68,68,0,0,0,59.9,67.41v74.31A135.5,135.5,0,0,1,357.49,409.29Zm55.64-86.81c.2-3.19.31-6.4.31-9.63V268a28.36,28.36,0,0,1-.31,54.51Z"/></svg>