<svg id="Слой_1" data-name="Слой 1" xmlns="http://www.w3.org/2000/svg" viewBox="0 0 512 512"><defs><style>.cls-1{fill:#00c5c5;}</style></defs><title>иконки для подкатегорий</title><path class="cls-1" d="M72.75,165.37c-3.31,2.12-7.69,4.69-11.81,7.62s-8.38,4.35-12.46.36-3-8.11,0-12.42c12.83-18.39,12.86-28.44.1-46.49-3-4.27-4.17-8.42-.16-12.42s8.21-2.73,12.44.25c18.19,12.82,27.11,11.33,46.79.48,9.32-5.14,19.67-9,28.7-15,2.19-1.48,4.69-3.1,5.94-5.29C154.67,60.73,175.06,53,198.16,49.25c35.59-5.74,64.78,7.73,91.4,29.48,2,1.64,4,3.31,6,5L298.12,82c-3-5.76-5.49-11.79-9-17.19-3-4.61-6.14-8.93-1.54-13.77,4.92-5.18,9.63-2.39,14.32,1.21,14.36,11,29,11.05,43.21,0,4.67-3.62,9.35-6.49,14.27-1.25,4.57,4.86,1.68,9.34-1.7,13.72q-16.7,21.69.41,43.88c3.53,4.56,5.58,9.14.82,13.67-4.38,4.17-8.86,2.41-13-1.11-5.9-5-12.31-8.79-22.17-7.81,4.35,5.67,7.32,11.37,11.86,15.18,21.35,17.9,27.53,41.35,26.2,67.84-.08,1.61,0,3.22,0,6.83,4.15-2.7,7.45-4.53,10.4-6.82,4.12-3.2,8.28-4.45,12.43-.58,4.5,4.2,3.22,8.49-.12,13-12.84,17.25-12.77,28.4.24,46.28,3.11,4.27,4.24,8.39.09,12.33s-8.1,2.67-12.48-.23c-5.66-3.74-11.79-6.74-16.18-9.2-8.54,16-14.74,31.23-24.17,44.09-7.53,10.26-12.54,20-14.87,32.73-4.62,25.4-18.36,46.78-36.2,65.24-4.91,5.08-7.25,10.19-7.14,17.18.24,15.75-.33,31.44,9.41,45.39,1.49,2.13.14,8.24-2,10.46-3.76,3.88-8.63,2.17-12-1.82-8.33-9.78-10.43-21.81-11.71-34-.5-4.78-.61-9.61-1-16.11-26.56,14.63-52.44,15.17-79.2,0-.42,4.85-.39,8.57-1.11,12.14-2,9.78-3.87,19.6-6.53,29.2-1,3.47-3.29,7.51-6.21,9.23-3.12,1.83-8.84,2.89-11.24,1.2-2.18-1.53-3.27-8.49-1.65-10.9,10.89-16.17,9.08-34.19,8.66-52-.05-2.27-2.2-4.86-4-6.67-17.84-17.8-30.19-38.82-38-62.74-1.25-3.85-4.31-7.39-7.26-10.36-23-23.1-38.67-49.63-34.32-83.35,1.78-13.81-.15-26.32-2.33-39.63S72.75,180,72.75,165.37Zm229.5,149c-1.32-4.06-2.73-12.21-6.43-19.13-13.58-25.4-34.12-44.66-57.08-61.41-26.17-19.09-34.39-18.35-58.36,3.88-25.64,23.77-38.61,54.48-47.7,87.26a17.92,17.92,0,0,0,.55,9.56c9.09,29.14,25.53,53.15,51,70.3,12.5,8.4,26.32,12.67,41.66,9.6,19.66-3.94,34.27-15.86,46.7-30.57C288.59,365,301.15,344.32,302.25,314.39Zm-10.4-210.12c-25-24.08-51.75-43.31-89-38.3-15.22,2-30,5.72-40.67,18-2.15,2.49-4.33,7.36-3.31,9.8,8.13,19.39,20.5,34.73,41.51,41.74,14.88,5,29.88,10,44,16.73,27.49,13.17,50.26,31.93,64.15,60,2.72,5.48,3.77,10.77-2.47,14s-10-.34-12.87-5.94C273,180.55,236,164.94,196.81,152c-8.13,18.68-.11,38,19.2,48.55,7.85,4.27,15.9,8.26,23.36,13.13,31.75,20.72,58.41,46.39,77.1,82.61l17.67-31.76-1.94-1.45a26.31,26.31,0,0,0-3.9,2.21c-4.44,3.59-9.2,6.91-14.39,2-5.67-5.4-1.73-10.15,1.85-14.9,10.26-13.61,9.89-28.52-1.11-42.54-3.51-4.48-5.82-9-1.25-13.71s9-2.42,13.67.94,9.82,5.74,16.31,9.42c2.47-22.35,2.07-41.43-11.9-57.67-7.58-8.82-15.27-17.54-23-26.26a47.23,47.23,0,0,0-4.24-3.77c-5.24,4-10.44,9.39-16.53,3.08C281.21,115.13,288.41,110.24,291.86,104.27Zm-97,102.36c-17.13-16.42-22.55-35.38-16-57.57.41-1.41-.31-4.09-1.42-4.88a98.91,98.91,0,0,1-33.58-40.48c-12.81,6.62-22.29,15.73-30,26.58-2.13,3-3.85,7.84-3,11.09a77.33,77.33,0,0,0,8.48,18.87c2.76,4.67,4.73,8.84.26,13.07s-8.87,2.79-13.05-.83c-1.63-1.41-3.43-2.65-5.19-3.91-4.61-3.29-7.67-2.62-9.6,3.15-4.84,14.45-3.81,28.61,1.16,43.82,18.36-9.27,33.59-20.87,44.45-37.68,6.11-9.46,10.26-11.95,15.44-8.73s5,8.89-.88,17.92c-12.45,19.15-29.79,32.7-49.71,43.36-3.14,1.68-6.89,4.16-8.1,7.17-8.55,21.27,4.31,61.1,24,74.21C132.18,268.57,152.53,229.81,194.86,206.63ZM332.17,78H315.06V94.6h17.11ZM92.63,129.35h-17v17h17Zm247.9,111.18h17.16V223.26H340.53Z"/><path class="cls-1" d="M351.73,389.27c.49-2.31,1-4.38,1.36-6.48,3-16.47,14.86-26.67,31.56-27.18,18.1-.55,21.28-4.36,20.84-22.64-.09-3.57,2.25-8.74,5.08-10.35,2.15-1.22,8,1,10.22,3.47,14.68,16.47,24.4,35.1,22.42,58.11a20.71,20.71,0,0,0,0,3.24,3.73,3.73,0,0,0,.51,1.24c5.06,1.33,10.24,2,14.8,4,9.18,4.14,14,11.76,14.28,21.86.28,10.83.3,21.68.19,32.52-.18,18.45-10.06,28.2-29,28.31-28.72.17-57.47-.64-86.17.22-28.52.85-40.74-7.9-38.59-39.52.4-5.94.06-11.92.12-17.88.2-17.42,9.44-27.23,26.67-28.38C347.78,389.7,349.63,389.47,351.73,389.27Zm44.52,18v.06c-16.27,0-32.54.1-48.8,0-6.9-.06-11,2.73-11.07,9.87-.16,10.3-.2,20.61-.07,30.91.09,7,4,10.23,10.91,10.23q48.81,0,97.61,0c7.36,0,11.12-3.47,11.14-10.84,0-9.76.18-19.53,0-29.28-.19-8.3-3-10.84-11.68-10.88C428.24,407.19,412.25,407.25,396.25,407.25Zm25.36-50.54c-6.6,5-11.58,10.37-17.72,13-5.94,2.58-13.06,2.66-19.7,3.37-10.29,1.09-15.35,7.29-12.7,16.71h37.93c17.21,0,19.64-3,16.06-20.36C424.58,365.07,422.89,360.86,421.61,356.71Z"/><path class="cls-1" d="M396.61,441.23H365c-6,0-11.33-1.58-11.25-8.66s5.53-8.5,11.45-8.51q30.83,0,61.66,0c5.86,0,11.45,1.29,11.62,8.36.18,7.64-5.61,8.89-11.82,8.88C416.63,441.22,406.62,441.24,396.61,441.23Z"/></svg>