<svg id="Слой_1" data-name="Слой 1" xmlns="http://www.w3.org/2000/svg" viewBox="0 0 512 512"><defs><style>.cls-1{fill:#00c5c5;}</style></defs><title>иконки для подкатегорий</title><path class="cls-1" d="M341.12,290.19l8.88-3.74a35.12,35.12,0,0,0,21.2-28.16l3.39-28.48a20.25,20.25,0,0,0-12.07-21,122.08,122.08,0,0,0,10.38-49.4,90.77,90.77,0,0,0-16.74-53.49,5.49,5.49,0,0,0-9,6.34,80,80,0,0,1,14.73,47.15,110.89,110.89,0,0,1-10.76,47.72H338.44c-2.77-3.34-8.72-8.91-20.5-14.28q-4.29-2-9.1-3.67c4.8-4,9.48-10.15,11.47-19.79a5.49,5.49,0,1,0-10.75-2.22c-2.7,13.08-12.39,16.81-15.4,17.66a225.44,225.44,0,0,0-25.26-4.56,30.41,30.41,0,0,0,7.92-20.86,5.49,5.49,0,0,0-11,0c0,13.3-11.63,18.77-12.8,19.29q-12.5-.93-26.48-1.09V153.52a5.49,5.49,0,0,0-11,0v24.11q-14,.15-26.48,1.09c-1.19-.53-12.8-6-12.8-19.29a5.49,5.49,0,0,0-11,0,30.41,30.41,0,0,0,7.92,20.86A225.44,225.44,0,0,0,148,184.85c-3-.85-12.7-4.58-15.4-17.66a5.49,5.49,0,1,0-10.75,2.22c2,9.65,6.68,15.84,11.47,19.79q-4.81,1.71-9.1,3.67c-11.78,5.37-17.73,10.95-20.5,14.28H91a110.21,110.21,0,0,1-10.75-47.72A80,80,0,0,1,95,112.28a5.49,5.49,0,0,0-9-6.34,90.8,90.8,0,0,0-16.74,53.49,122.09,122.09,0,0,0,10.38,49.4,20.25,20.25,0,0,0-12.07,21L71,258.29a35.12,35.12,0,0,0,21.2,28.16l8.88,3.74v3.68A109.56,109.56,0,0,0,134,371.93l35.75,34.81a64.28,64.28,0,0,0,45.07,18.32h12.54a64.27,64.27,0,0,0,45.07-18.32l13.27-12.92A5.49,5.49,0,0,0,278,386l-13.27,12.92a54.23,54.23,0,0,1-6.29,5.26,5.48,5.48,0,0,0-9,5.2,53.51,53.51,0,0,1-22.11,4.75H214.81a53.51,53.51,0,0,1-22.11-4.75,5.48,5.48,0,0,0-9-5.2,54.47,54.47,0,0,1-6.29-5.26l-35.75-34.81A98.53,98.53,0,0,1,112,293.87V214.35c3.79-4.65,25.64-25.79,109.06-25.79s105.27,21.14,109.07,25.79v79.52a98.53,98.53,0,0,1-29.63,70.2l-3.85,3.75a5.49,5.49,0,0,0,7.66,7.86l3.85-3.75a109.56,109.56,0,0,0,32.94-78.06ZM96.43,276.34A24.12,24.12,0,0,1,81.86,257l-3.39-28.48a9.29,9.29,0,0,1,9.23-10.39H101v60.15Zm258-58.21a9.3,9.3,0,0,1,9.23,10.39L360.3,257a24.12,24.12,0,0,1-14.56,19.34l-4.62,1.94V218.13Z"/><path class="cls-1" d="M111.63,94.49c25.77-21.3,64.64-33,109.45-33s83.68,11.73,109.45,33a5.49,5.49,0,1,0,7-8.46C309.79,63.1,268.43,50.48,221.08,50.48S132.37,63.1,104.64,86a5.49,5.49,0,1,0,7,8.46Z"/><path class="cls-1" d="M240.93,391.36a51.32,51.32,0,0,0-9-2.3,5.49,5.49,0,1,0-1.78,10.83,40.47,40.47,0,0,1,7.09,1.8,5.49,5.49,0,0,0,3.7-10.33Z"/><path class="cls-1" d="M203.11,402a5.5,5.5,0,0,0,1.85-.32,40.79,40.79,0,0,1,7.09-1.8,5.49,5.49,0,0,0-1.77-10.83,51.61,51.61,0,0,0-9,2.29A5.49,5.49,0,0,0,203.11,402Z"/><path class="cls-1" d="M312.38,285.55a35,35,0,0,0,3.39-4,5.49,5.49,0,0,0-9-6.24,25.54,25.54,0,0,1-2.29,2.69,5.49,5.49,0,1,0,7.93,7.58Z"/><path class="cls-1" d="M297.27,290.68a5.49,5.49,0,0,0-7.14-3A40.9,40.9,0,0,1,283,289.8a5.49,5.49,0,1,0,2.2,10.75,52,52,0,0,0,9-2.72,5.49,5.49,0,0,0,3-7.14Z"/><path class="cls-1" d="M258.47,287.66a5.49,5.49,0,1,0-4.11,10.18,52.16,52.16,0,0,0,9,2.72,5.62,5.62,0,0,0,1.1.11,5.49,5.49,0,0,0,1.09-10.87A41,41,0,0,1,258.47,287.66Z"/><path class="cls-1" d="M244.14,278a26.38,26.38,0,0,1-2.28-2.67,5.49,5.49,0,1,0-9,6.22,35.54,35.54,0,0,0,3.39,4,5.49,5.49,0,0,0,7.93-7.58Z"/><path class="cls-1" d="M131.8,274a5.24,5.24,0,0,0-1.35,7.29,34.07,34.07,0,0,0,3.23,3.85,5.24,5.24,0,0,0,7.58-7.24,25,25,0,0,1-2.19-2.56A5.24,5.24,0,0,0,131.8,274Z"/><path class="cls-1" d="M183.69,287.66a40.92,40.92,0,0,1-7.13,2.14,5.49,5.49,0,0,0,2.19,10.75,52.08,52.08,0,0,0,9-2.72,5.49,5.49,0,0,0-4.11-10.18Z"/><path class="cls-1" d="M152.93,287.43a5.24,5.24,0,0,0-3.93,9.71,49.37,49.37,0,0,0,8.64,2.6,5.24,5.24,0,1,0,2.1-10.27,39.2,39.2,0,0,1-6.81-2Z"/><path class="cls-1" d="M206,285.55a35,35,0,0,0,3.39-4,5.49,5.49,0,0,0-9-6.24A26.12,26.12,0,0,1,198,278a5.49,5.49,0,0,0,7.93,7.58Z"/><path class="cls-1" d="M375.68,326.73c-7.76-8.16-9.57-23.15-.47-33,8.22-8.89,20.59-11.13,31.42-4.15C416.29,295.82,421,308,415.15,320s-15.69,16.83-31.27,13c-2.24,4.24-4.56,8.55-6.8,12.9-2.53,4.92-5,9.85-7.46,14.83-2.89,6-6.09,11.84-8.34,18a17.21,17.21,0,0,0,3.85,18.62c3.82,4,8.91,4,14.16,3.15,7.55-1.23,12.16-6.75,17.33-11.42,7.29-6.58,14.36-13.41,21.52-20.13,1.35-1.26,2.71-2.51,4-3.84,1.67-1.72,2.53-3.39.83-5.85-3.42-4.95-4.06-10.67-3.21-16.45C421.48,331,433,321.14,446,322.49c13.32,1.38,21,10.46,22,22.09,1.6,18.68-16.37,30.93-32.86,24.64-3.67-1.4-4.71,1.87-6.34,3.29-7.51,6.54-14.65,13.49-21.89,20.33-3.93,3.71-7.51,7.89-11.78,11.15-9.22,7-19.09,9.49-30.6,4.91-10.23-4.07-15-17.39-14.24-26.2.73-8.56,4.66-15.69,8.46-23,4.12-8,7.88-16.12,11.91-24.13C372.1,332.57,373.92,329.76,375.68,326.73Zm28.49-8.86c4.64-6.31,3.8-14.83-2.15-19-6.8-4.81-14.72-4-19.15,2-5.32,7.17-4.62,15.53,1.56,20.06C391.21,325.9,399.17,324.67,404.16,317.87Zm28.32,20.25c-5,6.16-3,15.42,2.63,19.48,7.26,5.23,15.07,3.94,19.94-2.72,4.71-6.43,3.62-14.77-2.86-19.47S438.07,331,432.48,338.12Z"/><path class="cls-1" d="M356.47,439.76c4.05,3.4,8.13,6,11.12,9.52,4.93,5.81,4.67,12,.28,18-5.1,7-10.16,14-15.25,21-2.58,3.55-4.17,4-7,2s-3.39-5.2-1.08-8.45c4.5-6.34,9.13-12.59,13.69-18.89,3.93-5.43,3.86-6-1.43-9.85Q336.7,438.51,316.58,424c-4.39-3.18-5.8-3-8.88,1.27-4.73,6.49-9.38,13-14.15,19.49-3,4-4.65,4.23-8,2.11-3.15-2-3-4.51-1.22-7,5.7-8.1,11.23-16.38,17.54-24,4.3-5.18,12.2-5.58,18.43-1.89,3.1,1.83,5.89,4.2,9.28,6.66,2.79-3.85,5.54-7.37,7.93-11.13.58-.91.38-2.75-.12-3.87-6.09-13.62-4.39-27,1-40.29,1.41-3.46,4.6-5,7.42-3.8s4,4.51,2.22,7.95a36.53,36.53,0,0,0-2.58,28.92c3.37,10.35,10.58,17.41,21.86,19.48,11.48,2.1,21.12-1.73,30-8.71a15.23,15.23,0,0,1,6.78-2.91c1.11-.18,3.43,1.54,3.65,2.7.34,1.8,0,4.55-1.15,5.69A50.86,50.86,0,0,1,380,428.29c-4.31.77-8.86.12-13.3.25a4,4,0,0,0-2.75,1.08C361.22,433.06,358.73,436.65,356.47,439.76Zm-8.91-5.93,6.73-9.28-9.42-6.83L338.14,427Z"/></svg>