<svg id="Слой_1" data-name="Слой 1" xmlns="http://www.w3.org/2000/svg" viewBox="0 0 512 512"><defs><style>.cls-1{fill:#00c5c5;}</style></defs><title>иконки для подкатегорий</title><path class="cls-1" d="M259.45,81.91V62.66c-4.66,0-9.1,0-13.53,0s-7.79-1.51-7.89-6.27S241.21,50,245.67,50q51.06,0,102.12,0c4.42,0,7.73,1.55,7.65,6.38s-3.57,6.28-7.87,6.28h-43.4V81.91c5,0,10.06-.1,15.16,0,11.43.26,16.91,5.85,17,17.38.07,12.14.14,24.28-.12,36.42-.09,4.3.94,6.66,5.3,8.55,17.24,7.48,25.94,21.17,26.21,39.81.33,22.85.05,45.7.11,68.56,0,4.65-.62,9.29-6.24,9.37s-6.42-4.52-6.42-9.19c0-22.38.08-44.75,0-67.13-.07-20-12.62-32.58-32.55-32.66q-30.35-.13-60.7,0c-4.6,0-9.28-.34-9.32-6.14s4.44-6.47,9.14-6.46c17.85.06,35.71,0,53.56,0h8.31c0-14.65.13-28.4-.21-42.14,0-1.29-3-3.59-4.63-3.61-24.75-.23-49.51-.13-74.27-.19-4.49,0-4.82,2.73-4.8,6.14.06,14.28-.16,28.57.15,42.85.13,6-1.88,9-7.92,10.52-15.14,3.85-23.75,15.08-23.77,30.65q-.12,120.69,0,241.38c0,8.76,2.59,11.27,11.68,11.28q52.49.1,105,.06c2.37,0,5.2-.58,7,.48,2.1,1.25,4.58,4,4.54,6.11s-2.8,4.38-4.91,5.76c-1.36.89-3.7.3-5.6.3q-53.2,0-106.41,0c-15.62,0-24-8.16-24-23.64q-.07-120.69,0-241.38c0-19.24,9-33.25,26.63-41.09,4.06-1.8,5.09-4.07,5-8.07-.15-12.14-.1-24.28,0-36.42s5.45-17.34,17.5-17.54C249.34,81.85,254,81.91,259.45,81.91Zm13.26-.59h17.77V63.27H272.71Z"/><path class="cls-1" d="M98.91,239c0-9.44,0-18.18,0-26.93,0-9.76-.09-19.51,0-29.27.18-13.65,8.69-23,21-23.15,12.76-.2,21.5,8.89,21.66,23.11.2,18.31,0,36.62,0,56.22,6.25,0,12.09.08,17.92,0s8.69,2.63,8.79,8.6c.29,18.3,1.4,36.61-7.94,53.56-3.69,6.69-2.55,13.63,2.74,19.16,14.16,14.79,18.37,32.39,17.35,52.44-1,19.7-.16,39.49-.24,59.24-.06,13-5.26,18.13-18.23,18.14q-42.12,0-84.24,0c-12.08,0-17.45-5.25-17.5-17.39-.11-24.51,0-49-.05-73.53A45,45,0,0,1,70.11,330c2.37-3,4.43-6.21,6.87-9.12,5.28-6.29,6.83-13.24,2.82-20.5-9.37-17-7.74-35.37-7.59-53.61,0-5.29,2.81-7.82,8-7.82ZM167,351.58h-8.38c-20.46,0-40.92,0-61.38-.07-6.78,0-10.69-3.73-8.12-8,1.43-2.39,5.53-4.4,8.47-4.46,18.55-.38,37.11-.15,55.67-.17,2.18,0,4.36-.27,5.86-.37-4.44-8.68-10.79-16.47-12.14-25s2.21-18.14,3.61-27.14H88.17c1.43,3.84,2.52,7,3.74,10,4.5,11.34,3.24,21.86-4.36,31.53C85,331,81.88,334,80.3,337.55c-3,6.8-6.92,13.95-7.18,21.07-.89,24-.22,48-.45,72.08-.05,5.43,1.92,6.83,7.09,6.79,26.88-.21,53.77-.27,80.65.06,6.24.08,7.5-2.26,7.44-7.89-.25-23.08-.08-46.16-.14-69.23C167.71,357.64,167.29,354.86,167,351.58ZM85.14,272.66h70.14V252.19H85.14Zm43.77-34.16c0-19.78.19-39.15-.13-58.52-.08-4.73-3.57-8-8.5-7.91-5.64.1-8.6,3.81-8.76,9.26-.26,8.77-.15,17.54-.17,26.32,0,10.14,0,20.28,0,30.85Z"/><path class="cls-1" d="M364,324.22v-9.77c-8.37.14-9.13-5.46-8.92-12.08.26-7.84.15-15.7.07-23.55-.06-5.79,2.28-8.85,8.46-8.82q36.4.16,72.81,0c5.35,0,7.95,2.46,7.95,7.75,0,9.52-.08,19,0,28.55,0,7.57-5.39,7.87-11.35,8.07v9.71c.44.29.81.73,1.23.78,18.76,2.35,21.53,5.47,21.54,24.42q0,39.26,0,78.52c0,17.25-4.94,22.25-21.9,22.25q-35.33,0-70.67,0c-13.11,0-19.28-6.12-19.3-19.15q-.08-40.33,0-80.66C343.81,331.17,345.68,328.72,364,324.22Zm79.26,40.08h-7.7c-20.94,0-41.88,0-62.83,0-4.61,0-8.43-1.37-8.33-6.52.09-4.65,3.71-6.23,8-6.2q4.28,0,8.57,0H442c2.59-12.35,1.4-13.94-9.71-14-1.19,0-2.39-.08-3.57,0-6.45.49-9.17-2.67-9-8.91.11-4.66,0-9.33,0-14.21H376.87c0,3.22,0,6,0,8.81,0,13.73,0,13.9-13.42,14.23-5.23.13-7.08,2.13-7,7.31q.25,42.83,0,85.67c0,4.78,1.47,6.92,6.53,6.89,24.51-.14,49-.18,73.53,0,5.68,0,6.76-2.73,6.74-7.5-.11-18.8,0-37.6,0-56.4C443.22,370.78,443.22,368,443.22,364.3Zm-12.32-63.23V283.31H368.24v17.77Z"/><path class="cls-1" d="M249.66,236.16c-4.37,19.38-3.66,37.41,4.69,54.76,5.6,11.64,14.52,20.5,24.89,28,1.35,1,2.79,1.82,4.18,2.74,3.5,2.32,6,5.19,3.23,9.43-2.67,4.07-6.37,3.48-10,1.17-24-15.36-39.36-36.25-41.62-65.42-1.15-14.86-.35-29.51,5.58-43.46,3.71-8.73,8.2-9,14.59-1.87,7.13,7.92,15.24,15,22.47,22.8,8.34,9,17.49,17.69,23.95,28,10.65,17,7.89,35.68,2.3,53.82-.62,2-5.12,4-7.65,3.79-1.52-.12-3.47-4.41-3.81-7s1-5.54,1.69-8.31c4.67-19.35.55-36.51-13.68-50.53C270.91,254.59,260.54,245.94,249.66,236.16Z"/><path class="cls-1" d="M317.11,218.8c-7.27,5.64-15.37,12.25-23.86,18.3-2.26,1.61-6.25,2.85-8.5,1.93-3.94-1.6-4-5.7-1.52-9,2.86-3.76,5.69-7.85,9.42-10.59,7.88-5.79,12.48-13.37,15.55-22.42.84-2.47,3.58-5.37,5.94-5.91,1.84-.42,5.39,2,6.57,4,14.1,24.5,15.49,49.49,1.52,74.54-1.38,2.48-4.79,5.06-7.47,5.31-5.32.48-7.12-5.21-3.47-11.2C320.78,248.22,320.76,231.92,317.11,218.8Z"/><path class="cls-1" d="M289.69,307.05c-1.8,1.89-3.39,5-5.16,5.1-2.57.14-6.46-1.14-7.69-3.12-7.2-11.65-13.85-23.65-20.54-35.61-1.37-2.46-3-5.3-2.93-7.89.13-3,2.1-5.86,3.28-8.78,2.65,1.38,6.2,2.13,7.74,4.29,2.55,3.59,3.5,8.27,5.68,12.19,5.06,9.09,10.45,18,15.7,27C286.95,302.22,288.09,304.25,289.69,307.05Z"/><path class="cls-1" d="M267.89,364.26c-3.33,0-6.94.8-9.91-.24-2.58-.9-5.66-3.61-6.18-6-.35-1.63,3.2-5.75,5.29-6a107.4,107.4,0,0,1,22.07.08c2,.22,5.19,4.1,5.12,6.21s-3.33,5-5.73,5.68C275.25,365,271.46,364.26,267.89,364.26Z"/><path class="cls-1" d="M307.16,364.25c-3.31,0-6.91.81-9.85-.25-2.55-.91-5.57-3.7-6-6.11-.31-1.65,3.25-5.63,5.36-5.85a99.24,99.24,0,0,1,21.21.06c2.1.23,5.63,4.29,5.28,5.89-.53,2.41-3.57,5.12-6.13,6C314.06,365,310.47,364.25,307.16,364.25Z"/><path class="cls-1" d="M268.46,378.23c3.55,0,7.3-.67,10.6.25,2.19.61,5.4,3.7,5.2,5.32-.28,2.33-3.06,6-5.09,6.2a109.1,109.1,0,0,1-22,.13c-2.11-.2-5.35-3.75-5.4-5.83s3.08-5.17,5.37-5.82C260.67,377.49,264.67,378.22,268.46,378.23Z"/><path class="cls-1" d="M306.79,390.34c-3.32,0-6.9.76-9.88-.24-2.38-.8-5.52-3.72-5.58-5.78s3.25-5.59,5.36-5.81a101.66,101.66,0,0,1,21.28,0c2.05.22,4.91,3.74,5.2,6,.21,1.65-2.92,4.88-5.07,5.43-3.56.92-7.52.25-11.31.25Z"/></svg>