<svg id="Слой_1" data-name="Слой 1" xmlns="http://www.w3.org/2000/svg" viewBox="0 0 512 512"><defs><style>.cls-1{fill:#00c5c5;}</style></defs><title>иконки для подкатегорий</title><path class="cls-1" d="M386.51,184.43h.4a7.55,7.55,0,0,0,7.13-7.91,106.85,106.85,0,0,0-4.4-25.42,71.4,71.4,0,0,0-10.3-21.26,7.53,7.53,0,1,0-12.11,8.95c6.43,8.58,11,23.7,11.75,38.51A7.53,7.53,0,0,0,386.51,184.43Z"/><path class="cls-1" d="M269.79,157.26a155.16,155.16,0,0,0-41.55,8.64,209.76,209.76,0,0,0-33.81,15.44,212.2,212.2,0,0,0-31.5,21.49l0,0c-2.8,2.9-3.67,7.27-.76,10.62a7.74,7.74,0,0,0,10.63.75l.08-.07a200.74,200.74,0,0,1,30.69-20.65c15.91-8.81,40.47-19.64,67.15-21.2a7.68,7.68,0,0,0,7.07-8A7.57,7.57,0,0,0,269.79,157.26Z"/><path class="cls-1" d="M121.5,189a7.66,7.66,0,0,0-9.76,4.27,48.65,48.65,0,0,0,0,36.36A7.65,7.65,0,0,0,121.5,234a7.74,7.74,0,0,0,4.28-9.76,33.56,33.56,0,0,1,0-25.39A7.54,7.54,0,0,0,121.5,189Z"/><path class="cls-1" d="M187.37,131.86a7.5,7.5,0,0,0,5.37-2.19C206.09,116.16,222,108.4,241.36,106a7.54,7.54,0,0,0,6.55-8.4,7.65,7.65,0,0,0-8.4-6.55,98.53,98.53,0,0,0-31.36,9.14,94.59,94.59,0,0,0-26.15,19,7.68,7.68,0,0,0,.09,10.65A7.57,7.57,0,0,0,187.37,131.86Z"/><path class="cls-1" d="M442.43,381.32a7.49,7.49,0,0,0-5.58-2.25c-.17,0-17.45.86-28.64-9.71-6.67-6.3-10.06-15.71-10.06-28,0-19.89,5.08-34.86,11-52.2C417,265.88,426,239.45,426,193.8c0-46.27-10.52-78.21-33.11-100.53-25.91-25.6-68-38-128.8-38h-.18c-28.46.69-56.24,7.39-80.75,22.2a140.56,140.56,0,0,0-16.62,11.75,146,146,0,0,0-46.07,22.23C92.75,131.82,78.09,160.3,78.09,193.8c0,45.65,9,72.08,16.89,95.4,5.89,17.34,11,32.31,11,52.2,0,12.25-3.39,21.66-10.06,28-11.17,10.55-28.4,9.72-28.61,9.7a7.72,7.72,0,0,0-8,7.76A60,60,0,0,0,68,413.91c7.62,12.27,23.4,26.9,55.25,26.9,29.43,0,56.18-14.45,64.33-44.08A245.25,245.25,0,0,0,316.3,396c-2.2.61,13,25.26,15.41,27.73,12.68,12.93,31.61,17.1,49.11,17.1,31.86,0,47.63-14.63,55.25-26.9a59.94,59.94,0,0,0,8.75-27.07A7.57,7.57,0,0,0,442.43,381.32ZM313.8,352.7c0,1-.09,2.68-.19,4.57a161.58,161.58,0,0,0,.11,23.76,239.17,239.17,0,0,1-49.63,8.3V290.19a7.53,7.53,0,0,0-15.06,0v99.51q-10.55-.07-21.09-1.11V350.44a7.53,7.53,0,0,0-15.06,0v36.19q-11.3-1.86-22.6-4.83a159.3,159.3,0,0,0,.19-24.53c-.1-1.89-.19-3.53-.19-4.57,0-4.73-2.18-14.78-19.17-50.84-6.25-13.26-12.55-25.86-16-32.61l14.75-13.7c13.46,4,32.11,5.78,60.78,5.78,21.51,0,45.28-6.49,68.74-18.76a193.69,193.69,0,0,0,42.77-30.34l-.52,53.93C336,280.84,313.8,338.9,313.8,352.7ZM423.28,406c-8.15,13.13-22.44,19.79-42.46,19.79-17.55,0-30.79-4.58-39.36-13.6-14.82-15.61-13.46-41.6-12.81-54.09.11-2.19.21-3.92.21-5.35,0-8.37,16-53.2,27.35-82.36a7.55,7.55,0,0,0,.51-2.66l.72-74.6a7.53,7.53,0,0,0-5-7.15,7.73,7.73,0,0,0-8.39,2.3c-27.62,33.64-75.32,58.05-113.41,58.05-29.69,0-48.2-2-60-6.33a7.54,7.54,0,0,0-7.74,1.54l-22.19,20.6a7.53,7.53,0,0,0-1.57,9c17.33,33.61,36.05,74.38,36.06,81.64,0,1.44.09,3.17.2,5.35.65,12.49,2,38.48-12.81,54.09-8.57,9-21.81,13.6-39.36,13.6-19.76,0-33.94-6.49-42.15-19.3a42.45,42.45,0,0,1-3.34-6.37A78.09,78.09,0,0,0,104.13,405a58.75,58.75,0,0,0,27.1-6.41,7.53,7.53,0,0,0-6.87-13.4c-10.5,5.39-21.54,5.42-30.86,3.64a46.84,46.84,0,0,0,12.61-8.37c9.89-9.27,14.9-22.4,14.9-39,0-22.37-5.72-39.22-11.77-57C101.7,262.14,93.15,237,93.15,193.8c0-42.69,27-66.39,49.51-78.74A102.76,102.76,0,0,0,128,146.69a7.53,7.53,0,0,0,14.56,3.84c6.56-24.86,24.19-44.75,45.48-58.4a140.88,140.88,0,0,1,76-21.83h.25c56.48,0,95.08,11,118,33.69,19.54,19.3,28.64,47.84,28.64,89.81,0,43.16-8.55,68.34-16.09,90.56-6.05,17.83-11.77,34.67-11.77,57,0,16.62,5,29.76,14.9,39a46.84,46.84,0,0,0,12.61,8.37c-9.31,1.79-20.36,1.75-30.86-3.64a7.53,7.53,0,0,0-6.87,13.4A58.72,58.72,0,0,0,400,405a78.12,78.12,0,0,0,26.35-4.89A43.1,43.1,0,0,1,423.28,406Z"/><path class="cls-1" d="M293.47,276.64a7.53,7.53,0,0,0-7.53,7.53V328.6a7.53,7.53,0,0,0,15.06,0V284.17A7.53,7.53,0,0,0,293.47,276.64Z"/><path class="cls-1" d="M307.78,166.69a7.53,7.53,0,1,1-7.53-7.53A7.53,7.53,0,0,1,307.78,166.69Z"/><path class="cls-1" d="M390.62,206.6a7.53,7.53,0,1,1-7.53-7.53A7.53,7.53,0,0,1,390.62,206.6Z"/></svg>