<svg id="Слой_1" data-name="Слой 1" xmlns="http://www.w3.org/2000/svg" viewBox="0 0 512 512"><defs><style>.cls-1{fill:#00c5c5;}</style></defs><title>иконки для подкатегорий</title><g id="_040---Hair-Cutting" data-name="040---Hair-Cutting"><path id="Shape" class="cls-1" d="M422.16,244.55c28.28,17,55.92-4.23,47-33.79-5.67-18.21-26.52-34.35-45.45-30.83a28,28,0,0,0-22,20.05,41.86,41.86,0,0,0,20.53,44.57ZM417,204.13c2.4-9.19,16-13.74,29.8,0a24,24,0,0,1,8,21.49c-1.52,8-11.66,12.62-24,5.11A26.52,26.52,0,0,1,417,204.13Z"/><path id="Shape-2" data-name="Shape" class="cls-1" d="M485.75,265.16c39.94-39.94,6.15-113.67-53-117.19a59.35,59.35,0,0,0-56.32,29.4L350,174.89,340.52,73.36a42.9,42.9,0,0,0-46.65-38.82c-6.15.64-9.67,0-12.38,3.51a8,8,0,0,0-1.76,5.83L291.47,169.3l-24-2.32c5.51-20.53,9.51-44.18,3.43-55.92a66.94,66.94,0,0,0-22-22.53,101.85,101.85,0,0,0-1.28-39.94,8,8,0,0,0-14.38-2.48c-13.5,19.65-82.44,12.38-121.58,12.38-41.22,0-63.91,22.69-63.91,63.91a272.48,272.48,0,0,0,7.11,53.2,40.66,40.66,0,0,0-7.11,26.12c0,35,21.25,44.73,32,47.45A116.23,116.23,0,0,0,110,302.07a161.92,161.92,0,0,1-11.42,44A71.89,71.89,0,0,0,23.79,418v47.93a16,16,0,0,0,16,16H279.41a16,16,0,0,0,16-16V418a71.89,71.89,0,0,0-74.77-71.89A165.12,165.12,0,0,1,209,301.83c16-15.5,30.91-41.62,35.87-78.68L297,228l2.48,26.44c-36.11,20.53-39.94,71.89-7.35,104.33,27.24,27.24,70,30,95.14,5,32.51-32.59,17.09-92.18-30-111.84l-1.76-18.37,18.37,1.68c19.65,47,79.32,62.95,111.84,30ZM256.32,118c3.12,6.23,1,24.68-5.43,47.93h-3.75a101.61,101.61,0,0,0-13.9-51.52,34.67,34.67,0,0,0,9.59-10.78A47.45,47.45,0,0,1,256.32,118ZM111.66,74.48c42.1,0,95.14,6.15,122.14-8.63a49.69,49.69,0,0,1-6.31,32.59,24,24,0,0,1-20,8c-43.22,0-131-24-135.8,64.62l-1.52-.72c-11.74-52.88-12.86-95.86,41.46-95.86ZM66.6,186.32a9.43,9.43,0,0,1,5.27,2A285.9,285.9,0,0,0,75.23,230C59.41,219,63.73,189.11,66.6,186.32ZM194.41,313a170.31,170.31,0,0,0,11.1,38.9l-46.09,39.94-46.09-39.94a170.23,170.23,0,0,0,11.1-38.82,71.89,71.89,0,0,0,70.14-.08Zm85,105v47.93h-32V434a8,8,0,1,0-16,0v32H87.69V434a8,8,0,1,0-16,0v32h-32V418a55.92,55.92,0,0,1,55.92-55.92h5l53.68,46a8,8,0,0,0,10.38,0l53.68-46h5A55.92,55.92,0,0,1,279.41,418Zm-84-125.1a55.12,55.12,0,0,1-71.89,0,105.29,105.29,0,0,1-30-53.28,259.22,259.22,0,0,1-5.75-61.27c0-58.55,35.23-61.75,92.66-57.36a143.79,143.79,0,0,0,38,0,81.24,81.24,0,0,1,13.1,42.82l-65-6.15a8,8,0,0,0-8.71,7.27l-.64,6.87a42.66,42.66,0,0,0,38.26,46.49l33.63,3.2C225.41,247.43,214.94,276.27,195.37,292.88Zm1.52-90.59a26.68,26.68,0,0,1-24-28.2L293,185.6l2.4,26.28C204,203.25,340.52,216,196.89,202.29Zm179,150.1c-18.61,18.69-51.12,16.46-72.45-4.87-26.52-26.52-22.29-67.74,7.91-81.32a8,8,0,0,0,4.71-8L296.34,50.52a26.6,26.6,0,0,1,28.2,24L341.8,258.21a8,8,0,0,0,5.43,6.79C386.13,278.26,401.71,326.67,375.91,352.39ZM351.3,191.11l28.84,2.72a8,8,0,0,0,8-4.71A43.14,43.14,0,0,1,431.51,164c45.21,2.64,73.09,59.43,42.66,89.95-25.72,25.64-74.05,10.38-87.31-28.68a8,8,0,0,0-6.79-5.43l-26.36-2.48Z"/><path id="Shape-3" data-name="Shape" class="cls-1" d="M327.34,205.33a6.95,6.95,0,1,0-9.83,0,6.95,6.95,0,0,0,9.83,0Z"/><path id="Shape-4" data-name="Shape" class="cls-1" d="M303.37,299c-6.47,24,16,50.57,41.22,50.57,28.12,0,38.34-34.27,15.34-57.6s-50.65-14.62-56.56,7Zm52.88,25.72c-1.52,8-11.74,12.62-24,5.11s-18.29-25.56-9.67-32.35c12.7-10.3,37.31,8.71,33.79,27.24Z"/></g></svg>