<svg id="Слой_1" data-name="Слой 1" xmlns="http://www.w3.org/2000/svg" viewBox="0 0 512 512"><defs><style>.cls-1{fill:#00c5c5;}</style></defs><title>иконки для подкатегорий</title><path class="cls-1" d="M170.62,362.93c-1.91-1.63-3.44-3.05-5.09-4.32a132.08,132.08,0,0,1-37.15-44.53c-1.76-3.4-3.66-4.7-7.55-4.9-21.51-1.09-38.45-14.39-43.61-33.75-5.45-20.46,2.49-40.2,21.62-51.89,4.6-2.81,4.17-6.32,4.18-10.26,0-16.55,0-16.43-16.5-16.62-5.9-.07-12,.05-17.66-1.47a35.77,35.77,0,0,1-23.75-48,36.16,36.16,0,0,1,49.76-19c2.28,1.12,4.48,2.38,8.21,4.38,0-9.38-.23-17.58,0-25.77.52-15.24,9.71-26.65,23.78-30,13.48-3.22,21.87,3.23,22.12,17,0,2.57,0,5.14,0,8.43,10.12-1.64,19.37-3.27,28.65-4.61,55.68-8.05,111.34-7.35,167,.51,1.17.17,2.66.1,3.43.79,2.21,2,4.12,4.3,6.15,6.48-2.72,1.65-5.55,4.86-8.14,4.68-11.36-.79-22.62-2.94-34-3.92-52.35-4.55-104.45-3.21-156.16,7.05-5.12,1-7.3,2.76-7,8.27.44,9.42.12,18.88.12,29.25H164c13.79,0,27.58.16,41.36-.06,7.24-.11,11.54,3.84,17,8.08,10.5,8.07,22.7,14.16,34.84,19.66,3,1.34,9-2,12.63-4.56,20.18-13.95,42.51-19.6,66.76-18.35,11.42.59,21.16,4.92,28.76,13.74,3.54,4.1,7.34,8,11.91,12.91,1.1-9.59,1.9-18.17,3.11-26.69,1.34-9.41,2.81-18.81,4.71-28.11,1-5.14,0-8.16-5.33-9.64-4.37-1.21-10.8-1.89-8.66-8.61,2.25-7,8.14-3.74,12.7-2.39,10.85,3.23,14.57,10.47,13,21.78-3,22.1-6,44.23-7.54,66.46-.47,6.73,3.68,13.89,6.27,20.64.47,1.23,3.59,1.8,5.56,2.05a46.06,46.06,0,0,1,40.7,47.86c-.8,23.35-19.68,42.49-43.56,43.65-4.83.23-7.51,1.49-9.8,6-8.37,16.55-20.2,30.43-34.67,42-2.19,1.75-4.36,3.53-6.89,5.58,1.74,2,3.07,3.61,4.47,5.15,17,18.8,27.88,40.62,31.93,65.72,2.47,15.3-6.07,25.84-21.48,25.88-56.1.14-112.19.08-168.29.11-4.39,0-8.66-.67-8.57-6.1s4.63-5.82,8.86-5.82H305.1c18.54,0,37.08.06,55.62,0,9.46,0,12.63-3.62,11-12.94-4.25-23.81-14.63-44.61-32-61.61-1.56-1.53-5.54-2-7.75-1.21A229.43,229.43,0,0,0,308.47,382a14.63,14.63,0,0,0-5.89,6.4c-6.88,13.86-15.9,25.87-28.58,35-11.05,7.92-19,7.94-30,.23-13-9.12-22-21.42-29.1-35.43-1.41-2.77-4.51-5.16-7.38-6.63-7-3.55-14.39-6.2-21.38-9.71-3.51-1.76-5.8-1.79-8.68,1.18a115,115,0,0,0-31.84,63.28c-1.18,7.37,2.21,11,9.89,11.37,2.61.12,5.52-.44,7.73.56,2,.9,4.41,3.49,4.43,5.36s-2.35,4.84-4.28,5.48c-16.62,5.5-32-7.49-29.31-24.71a124.67,124.67,0,0,1,31.56-65.88C167.23,366.72,168.78,365,170.62,362.93ZM223.25,173c-7.19,19.41-21.28,25.1-39.5,23.76-5.09-.38-10.24-.06-16.75-.06,10.17,15.83,11.89,30.79,1.62,45.22s-24.93,17.56-41.48,13.74c-1.79,22.46,6.67,49,21.75,69.27,50,67.12,157.42,71.28,213,8.26,41.39-47,38.42-115.08-7.27-157.78A29.76,29.76,0,0,0,339,168.06c-23-2.91-44.35,2.16-63.16,16.31-11.48,8.63-22.42,8.46-34.08.17C236.06,180.47,229.84,177.09,223.25,173Zm-108.59,22h.11c0,9,0,18,0,27a19.66,19.66,0,0,0,.47,3.52,24.4,24.4,0,0,0,48.1-.76c2-11-4.63-23.74-15.61-26.39-9.16-2.21-11.3-7-10.32-15.12a33.41,33.41,0,0,0,0-5c-.56-18.66,3.39-15.42-16.23-16-4.85-.15-6.83,1.36-6.64,6.43C114.88,177.53,114.66,186.31,114.66,195.08ZM103,184.84c0-9.14.26-17.44-.06-25.71-.5-13.07-11.22-23-24.37-22.93a24.27,24.27,0,0,0-24.27,23.18c-.73,12.36,8.82,24.25,21.28,25.32C84.28,185.44,93.08,184.84,103,184.84Zm296.6,45c5.28,23.09,3.66,45.19-3,67.07,17.5.68,32.17-13.62,33.5-31.72C431.35,247.75,418.38,232.06,399.6,229.8Zm-295.06,4.68c-13,5.78-20.12,22.61-15.88,37.75s18.32,25.93,31.23,24.43c-1.62-11-4.69-21.94-4.47-32.86C115.65,252.09,112.08,242.82,104.54,234.47Zm32.6-84.2c.11-2.57.3-4.88.3-7.2,0-14.93.1-29.87-.14-44.8-.05-3.32-1.36-6.63-2.09-9.94-4.21,1-9.15,1-12.42,3.38s-7,7-7.14,10.79c-.79,15.75-.33,31.56-.33,47.77Zm12.59,34.53c15.54,0,30.66.38,45.74-.16,7.73-.28,13.82-6.85,15.73-14.37,1.43-5.61-.36-7.93-6.23-7.85-12.31.17-24.62,0-36.93,0C147,162.4,147,162.41,149.72,184.81ZM228,387.68c6.92,12.51,15.41,22.08,26.91,28.75a8.81,8.81,0,0,0,7.36.21c11.9-6.55,20.36-16.44,27.31-29-11.1.77-21,2-30.85,2S239.12,388.44,228,387.68Z"/><path class="cls-1" d="M324.21,427.77c-4.7-.51-11.48,1.49-11.63-5.83s6.58-6,11.3-5.88,12-2.06,11.91,5.95C335.69,429.36,328.8,427.2,324.21,427.77Z"/><path class="cls-1" d="M259.16,253.33c.71,0,1.42,0,2.13,0,15.68.29,24.06,5.12,26.55,15.3,3.28,13.39-3.19,28.65-15.06,35.52a27.72,27.72,0,0,1-33.95-4.76c-8.24-8.38-11.16-18.6-9.16-30,1.3-7.42,6.15-12.34,13.34-14.21,5.21-1.35,10.7-1.65,16.06-2.42Zm17.55,21.73c.69-5.09-2-8.86-8.12-9.14a198.09,198.09,0,0,0-20.54.19c-4.8.28-6.85,3.56-7.18,8.21-.78,11,7.27,21.3,17.09,21.78C268.1,296.6,276.5,287.62,276.7,275.06Z"/><path class="cls-1" d="M321.76,248c9.73-.18,18.85,7.14,19.74,16.88.25,2.72-1.86,7.19-4.13,8.27-3.9,1.86-5.7-1.62-7.43-5.28-1.48-3.12-4.68-6.75-7.75-7.47-4.76-1.12-7.08,2.82-8.69,7.4-.85,2.4-4.27,3.89-6.53,5.8-1.59-2.75-4.64-5.56-4.51-8.23C302.92,255.78,311.91,248.18,321.76,248Z"/><path class="cls-1" d="M196,247.62c9.93.14,18.94,7.79,19.24,17.36.09,2.71-2.89,5.52-4.46,8.28-2.26-1.93-5.7-3.46-6.51-5.87-1.55-4.62-3.85-8.58-8.61-7.52-3,.68-6.18,4.36-7.72,7.47-1.76,3.56-3.53,7.17-7.44,5.39-2.24-1-4.33-5.49-4.12-8.23C177.11,254.73,186.06,247.48,196,247.62Z"/><circle class="cls-1" cx="78.91" cy="159.58" r="9.27"/><circle class="cls-1" cx="139.06" cy="219.48" r="9.27"/></svg>