<svg id="Слой_1" data-name="Слой 1" xmlns="http://www.w3.org/2000/svg" viewBox="0 0 512 512"><defs><style>.cls-1{fill:#00c5c5;}</style></defs><title>иконки для подкатегорий</title><path class="cls-1" d="M405.44,287.92a7.64,7.64,0,1,1-7.63-7.63A7.64,7.64,0,0,1,405.44,287.92Z"/><path class="cls-1" d="M474.16,333.73a7.64,7.64,0,1,1-7.64-7.63A7.64,7.64,0,0,1,474.16,333.73Z"/><path class="cls-1" d="M474.16,303.19a7.64,7.64,0,1,1-7.64-7.63A7.64,7.64,0,0,1,474.16,303.19Z"/><path class="cls-1" d="M474.16,272.64a7.64,7.64,0,1,1-7.64-7.63A7.64,7.64,0,0,1,474.16,272.64Z"/><path class="cls-1" d="M474.16,242.1a7.64,7.64,0,1,1-7.64-7.64A7.64,7.64,0,0,1,474.16,242.1Z"/><path class="cls-1" d="M451.25,318.46a7.64,7.64,0,1,1-7.63-7.63A7.64,7.64,0,0,1,451.25,318.46Z"/><path class="cls-1" d="M451.25,287.92a7.64,7.64,0,1,1-7.63-7.63A7.64,7.64,0,0,1,451.25,287.92Z"/><path class="cls-1" d="M451.25,257.37a7.64,7.64,0,1,1-7.63-7.63A7.64,7.64,0,0,1,451.25,257.37Z"/><path class="cls-1" d="M428.35,303.19a7.64,7.64,0,1,1-7.64-7.63A7.64,7.64,0,0,1,428.35,303.19Z"/><path class="cls-1" d="M428.35,272.64a7.64,7.64,0,1,1-7.64-7.63A7.64,7.64,0,0,1,428.35,272.64Z"/><path class="cls-1" d="M61.41,300.9a15.19,15.19,0,0,0,14.86.67,8,8,0,0,0,1.13-.7l17.46-13h43.3v8.44a7.42,7.42,0,0,1-8,6.83,23,23,0,0,0-22.59,22.91v15.27a22.94,22.94,0,0,0,22.91,22.91h1.69l-10.08,61.09h-3.72a15.18,15.18,0,0,0-10.8,4.47l-10.8,10.8a15.17,15.17,0,0,0-4.47,10.8v19.75a15.29,15.29,0,0,0,15.27,15.27H245.07a15.29,15.29,0,0,0,15.27-15.27V453a15.19,15.19,0,0,0-8.44-13.66L227.19,427a15.27,15.27,0,0,0-5.59-1.47L231.91,363a19.83,19.83,0,0,0,13.17-18.61v-6.11a4.65,4.65,0,0,1,4.58-4.58h10.69v53.46a7.64,7.64,0,0,0,2.24,5.4l38.18,38.18a7.64,7.64,0,0,0,10.8-10.8L275.62,384v-50.3H313.8a15.26,15.26,0,0,0,13.87-9l20.38-5.1a15.25,15.25,0,0,0,11.57-14.82v-9.31h15.27a7.64,7.64,0,0,0,0-15.27H359.62V271a15.25,15.25,0,0,0-11.57-14.81l-20.38-5.09a15.26,15.26,0,0,0-13.87-9H297.44a30.2,30.2,0,0,0-45-18.51L239.87,193.3A38.18,38.18,0,0,0,253.78,147L221.1,68.16A22.87,22.87,0,0,0,197,30L91.22,73.86a22.91,22.91,0,0,0,8.8,44.07c.38,0,.77-.09,1.15-.11l32.68,78.9a38.13,38.13,0,0,0,42.51,22.86l9.34,22.51H94.87l-17.46-13a8,8,0,0,0-1.13-.7,15.27,15.27,0,0,0-22.1,13.66v45.8A15.17,15.17,0,0,0,61.41,300.9Zm86.29,63.38h68.52l-10.08,61.09H137.62ZM245.07,453v18.19H107.62V451.44l10.8-10.8H220.36Zm99.27-148.14-15.27,3.82V267.15L344.35,271Zm-30.54,13.6H275.62V279.19a30.5,30.5,0,0,0,21.82-21.82H313.8Zm-45.82-84a15.27,15.27,0,1,1-15.27,15.28A15.28,15.28,0,0,1,268,234.46ZM92.93,98a7.64,7.64,0,0,1,4.14-10L202.89,44.14a7.64,7.64,0,0,1,5.85,14.11h0L102.91,102.08A7.64,7.64,0,0,1,92.93,98Zm55,92.92-32.14-77.6,45.86-19,45.86-19,32.15,77.61A22.9,22.9,0,0,1,227.3,182.8h0l-49.41,20.46,0,0A22.94,22.94,0,0,1,148,190.88Zm42.81,23.6,35.29-14.62,14.9,36a30.09,30.09,0,0,0-2.43,6.29h-36.3Zm-22.05,42.9h69.81a30.5,30.5,0,0,0,21.82,21.82v39.27H249.66a19.88,19.88,0,0,0-19.86,19.86v6.11a4.64,4.64,0,0,1-4.58,4.58H130.53a7.65,7.65,0,0,1-7.64-7.63V326.1a7.67,7.67,0,0,1,7.53-7.64,22.56,22.56,0,0,0,23-22.11v-39Zm-30.55,0v15.27H100V257.37ZM69.44,242.25l15.27,11.33v22.86L69.44,287.76Z"/><path class="cls-1" d="M176.18,179.19,152.8,122.75a7.64,7.64,0,0,0-14.11,5.85L162.07,185a7.64,7.64,0,1,0,14.11-5.85Z"/></svg>