<svg id="Слой_1" data-name="Слой 1" xmlns="http://www.w3.org/2000/svg" viewBox="0 0 512 512"><defs><style>.cls-1{fill:#00c5c5;}</style></defs><title>иконки для подкатегорий</title><path class="cls-1" d="M323.9,102.08a8.91,8.91,0,1,0,2.61,6.3A9,9,0,0,0,323.9,102.08Z"/><path class="cls-1" d="M493,194.23,421.4,89.08A118.66,118.66,0,0,0,280.93,45L62.67,128.51A38.11,38.11,0,0,0,40.22,177,33.93,33.93,0,0,0,83,197.8l202.39-69a8.92,8.92,0,0,0-5.76-16.88l-202.39,69A16,16,0,0,1,57,171.09a20.37,20.37,0,0,1,12-25.93L287.3,61.69A100.46,100.46,0,0,1,406.66,99.12l44,64.58-3.58-2.52a8.92,8.92,0,1,0-10.27,14.58l43.7,30.78A8.92,8.92,0,0,0,493,194.23Z"/><path class="cls-1" d="M255.29,315.51a36.16,36.16,0,1,0,4.79,27.26A35.91,35.91,0,0,0,255.29,315.51Zm-12.61,23.39a18.33,18.33,0,1,1-2.43-13.82A18.35,18.35,0,0,1,242.68,338.89Z"/><path class="cls-1" d="M431.14,478.13a8.91,8.91,0,1,0,2.61,6.31A9,9,0,0,0,431.14,478.13Z"/><path class="cls-1" d="M494.23,456.08l-77.43-289a8.93,8.93,0,0,0-1.37-2.9l-54-75.13a8.92,8.92,0,0,0-16.11,4.32l-9.21,92.08a8.93,8.93,0,0,0,.26,3.19l.29,1.09a8.91,8.91,0,0,0-17.06,4.58,57.76,57.76,0,0,1-49.77,64.83,9,9,0,0,0-1.55.35,75.65,75.65,0,0,0,29.47-70.28A8.92,8.92,0,0,0,280,191.54a57.76,57.76,0,0,1-38,62,75.91,75.91,0,0,0,12.19-16.21,75.14,75.14,0,0,0,6.8-57.49,8.92,8.92,0,0,0-17.16,4.84,57.74,57.74,0,0,1-39.4,71.14c-35.75,2.62-69.15,18.81-97.84,47.74q-3.71,3.74-7.07,7.49c1.87-4,3.93-8.12,6.21-12.2,24.08-43.16,59.49-65,105.25-65h.41a8.92,8.92,0,0,0,0-17.83H211c-52,0-93.75,25.65-120.83,74.18-20,35.89-24.88,71.34-25.1,73A8.92,8.92,0,0,0,82,368.09a204.87,204.87,0,0,1,37.63-52.34q21.6-21.65,46-32.3A78.5,78.5,0,0,0,177.4,397.4a323.38,323.38,0,0,1-46.38-7,8.92,8.92,0,0,0-3.87,17.41Q163.93,416,196.59,416c42.32,0,79.29-10.3,110.41-30.83,30.57-20.18,50.43-47.06,63.06-70.71l36.62,136.66a8.92,8.92,0,1,0,17.22-4.62L357.76,199.66a53.12,53.12,0,0,0,46-12.33L477,460.69a8.92,8.92,0,1,0,17.22-4.62Zm-172-208.17a75.14,75.14,0,0,0,15-55.85l17,63.48a288.78,288.78,0,0,1-44.16,4.9A76.13,76.13,0,0,0,322.28,247.91ZM283.91,348.06a60.56,60.56,0,1,1-8-45.65A60.17,60.17,0,0,1,283.91,348.06Zm75-75.25,4,15c-11.19,26.91-32,61.5-69.36,84.7a78.73,78.73,0,0,0,7.74-20.63,77.88,77.88,0,0,0-10.39-59.09A79,79,0,0,0,279,278.28C314.32,279.53,340.71,276.48,358.9,272.81ZM354.55,180l6.14-61.43,36,50.13A35.25,35.25,0,0,1,354.55,180Z"/></svg>