<svg id="Слой_1" data-name="Слой 1" xmlns="http://www.w3.org/2000/svg" viewBox="0 0 512 512"><defs><style>.cls-1{fill:#00c5c5;}</style></defs><title>иконки для подкатегорий</title><path class="cls-1" d="M479.46,233,410.74,132.08A113.9,113.9,0,0,0,275.9,89.79L66.39,169.93a36.58,36.58,0,0,0-21.56,46.55,32.57,32.57,0,0,0,41.11,20l85.81-29.27a8.56,8.56,0,0,0-5.53-16.2L80.42,220.24A15.4,15.4,0,0,1,61,210.8a19.56,19.56,0,0,1,11.52-24.89L282,105.78a96.44,96.44,0,0,1,114.58,35.93l42.21,62-75.75-53.35a61.06,61.06,0,0,0-54.71-7.85L234,167.86a8.56,8.56,0,0,0,5.53,16.2l74.34-25.35a43.9,43.9,0,0,1,39.33,5.64l114.27,80.48a8.56,8.56,0,0,0,12-11.81Z"/><path class="cls-1" d="M210.34,181a8.55,8.55,0,1,0,2.51,6.05A8.62,8.62,0,0,0,210.34,181Z"/><path class="cls-1" d="M229.54,334.18a34.71,34.71,0,0,0-15.06,67.77,35,35,0,0,0,7.6.84,34.72,34.72,0,0,0,7.46-68.61Zm9.64,37.7A17.59,17.59,0,1,1,222,350.46a17.62,17.62,0,0,1,17.21,21.42Z"/><path class="cls-1" d="M390.22,233.66a8.56,8.56,0,0,0-8.82-1.3c-17,7.22-31.11,12.34-51.23,15.78a72.47,72.47,0,0,0-.2-17.27,8.56,8.56,0,0,0-17,2.23,55.24,55.24,0,0,1-.49,17.45c-6.44.69-13.5,1.26-21.33,1.73a72.77,72.77,0,0,0,.84-24.07,8.56,8.56,0,0,0-17,2.23,55.41,55.41,0,0,1-1.7,22.67q-7.25.26-15.3.43a72.3,72.3,0,0,0-1.27-34.32,8.56,8.56,0,1,0-16.48,4.64,55.16,55.16,0,0,1,.07,30c-9.57.1-19.92.13-31.19.1h-.41c-49.89,0-90,24.62-116,71.21A217.08,217.08,0,0,0,68.7,395.22,8.56,8.56,0,0,0,85,399.91a196.67,196.67,0,0,1,36.12-50.24q20.77-20.82,44.2-31A75.31,75.31,0,0,0,176.51,428,311.2,311.2,0,0,1,132,421.32,8.56,8.56,0,1,0,128.28,438q35.31,7.85,66.67,7.84c40.91,0,76.6-10,106.6-30,34.18-22.77,54-54.4,64.67-76.92,10.38-22,14.22-39.57,15-43.37,0-.13.08-.25.11-.39l11.8-53.09A8.56,8.56,0,0,0,390.22,233.66ZM277.64,281.88a73.17,73.17,0,0,0,7.58-12.16c7.43-.37,14.27-.83,20.62-1.39a55.4,55.4,0,0,1-40.62,27,8.6,8.6,0,0,0-1.49.34A72.83,72.83,0,0,0,277.64,281.88Zm-27.38-7.47c.67-1.2,1.3-2.41,1.9-3.64q6.55-.11,12.61-.28c-.24.32-.46.65-.7,1A55.06,55.06,0,0,1,238.56,290,72.92,72.92,0,0,0,250.27,274.41ZM108.57,338q-3.56,3.59-6.79,7.19c1.8-3.87,3.78-7.79,6-11.71C130.86,292,164.85,271,208.78,271h.37c8.12,0,15.78,0,23,0a55.06,55.06,0,0,1-29.71,21.16C168.17,294.67,136.11,310.21,108.57,338Zm170.19,42.69a58.16,58.16,0,1,1-44.14-69.36A58.21,58.21,0,0,1,278.76,380.68Zm13.3,20.94q-2,1.34-4.06,2.61a75.18,75.18,0,0,0-14-90.54c42,1.49,70.61-3.37,86.68-7.48C353.57,328.83,334.88,373.08,292.06,401.61Zm73.55-114.71c-7.92,2.65-28.24,8.24-61.67,9.6A73.13,73.13,0,0,0,325.87,266a220.83,220.83,0,0,0,47-11.86Z"/><path class="cls-1" d="M105.71,416.35a8.55,8.55,0,1,0,2.51,6.05A8.62,8.62,0,0,0,105.71,416.35Z"/></svg>