<svg id="Слой_1" data-name="Слой 1" xmlns="http://www.w3.org/2000/svg" viewBox="0 0 512 512"><defs><style>.cls-1{fill:#00c5c5;}</style></defs><title>иконки для подкатегорий</title><path class="cls-1" d="M62.75,353.93a8,8,0,0,0-8,8v112a8,8,0,1,0,16,0v-112A8,8,0,0,0,62.75,353.93Z"/><path class="cls-1" d="M214.75,233.93a8,8,0,0,0,8-8v-88a48,48,0,0,0-48-48,8,8,0,1,0,0,16,32,32,0,0,1,32,32v88A8,8,0,0,0,214.75,233.93Z"/><path class="cls-1" d="M250,411.8a56,56,0,0,0-62.51-19.52,40.23,40.23,0,0,1-25.3,0A56,56,0,0,0,99.63,411.8l-3.28,4.33a8,8,0,1,0,12.8,9.6l3.2-4.32a39.94,39.94,0,0,1,44.65-14,56.35,56.35,0,0,0,35.42,0,39.92,39.92,0,0,1,44.64,14l3.25,4.32a8,8,0,1,0,12.8-9.6Z"/><path class="cls-1" d="M254.75,144.7v-6.78c0-1.46,0-2.92-.13-4.38a25.78,25.78,0,0,1-.87-5.62c-.11-2-.31-3.87-.56-5.71,0-.19-.06-.37-.1-.56l0,0c-2.24-15.14-9.46-26.12-19.62-38.26a39.43,39.43,0,0,0-3.18-3.34L228,78c-12.7-10.6-32-17.1-32-17.1l0-.07A79.92,79.92,0,0,0,94.75,137.93v6.86a119.27,119.27,0,0,0-40,89.14v96a8,8,0,1,0,16,0v-96a103.34,103.34,0,0,1,24-66.18v98.18a32,32,0,0,0,32,32h96a8,8,0,1,0,0-16h-96a16,16,0,0,1-16-16v-128a64,64,0,0,1,128,0v128a8,8,0,1,0,16,0v-98.4a103.42,103.42,0,0,1,24,66.4v240a8,8,0,1,0,16,0v-240a119.52,119.52,0,0,0-35.14-84.86C258,147.47,256.41,146.13,254.75,144.7Z"/><path class="cls-1" d="M472.64,94.93h-50.4V44.53a7.17,7.17,0,0,0-7.2-7.2h-57.6a7.17,7.17,0,0,0-7.2,7.2v50.4h-50.4a7.17,7.17,0,0,0-7.2,7.2v57.6a7.17,7.17,0,0,0,7.2,7.2h50.4v50.4a7.17,7.17,0,0,0,7.2,7.2H415a7.17,7.17,0,0,0,7.2-7.2v-50.4h50.4a7.17,7.17,0,0,0,7.2-7.2v-57.6C479.44,98.13,476.24,94.93,472.64,94.93Zm-6.8,57.6H415a7.17,7.17,0,0,0-7.2,7.2v50.4h-43.2v-50.4a7.17,7.17,0,0,0-7.2-7.2H307v-43.2h50.4a7.17,7.17,0,0,0,7.2-7.2V51.73h43.6v50.4a7.17,7.17,0,0,0,7.2,7.2h50.4Z"/></svg>