<svg id="Слой_1" data-name="Слой 1" xmlns="http://www.w3.org/2000/svg" viewBox="0 0 512 512"><defs><style>.cls-1{fill:#00c5c5;}</style></defs><title>иконки для подкатегорий</title><path class="cls-1" d="M425.85,454.56c-3.79-.95-9.68-5.93-13.66-10.47-2.63-8.36-15-36.18-68.09-70.28-56.21-36.08-124.28-126-128.11-131.09a254.48,254.48,0,0,0-24.16-34.62c-16.42-19.51-31.56-29.4-45-29.4h0a26.68,26.68,0,0,0-9.2,1.63c-1.2.44-2.42.95-3.66,1.5-4.06-4.67-12.28-12.95-28.92-27.41a23.84,23.84,0,0,0-15.75-6.12,24.76,24.76,0,0,0-5,.52c-12.52,2.6-26.32,15.12-41,37.2a284.14,284.14,0,0,0-17.81,31,7.16,7.16,0,0,0,3.36,9.54,7.08,7.08,0,0,0,3.08.7,7.19,7.19,0,0,0,6.45-4.06c10.33-21.59,32.73-57.08,48.83-60.42a10.58,10.58,0,0,1,2.15-.23,9.34,9.34,0,0,1,6.32,2.63c14.14,12.28,21.61,19.61,25.48,23.73C78,217,22.28,289.59,19.62,293.07a7.16,7.16,0,0,0,1.34,10,7.15,7.15,0,0,0,10-1.34c.71-.93,71.71-93.42,111.56-108a11.92,11.92,0,0,1,4.12-.7c8.88,0,21,8.58,34.14,24.15a247.93,247.93,0,0,1,23,32.94,7.1,7.1,0,0,0,.49.76c1.62,2.18,23.78,31.8,53.46,64.29a2,2,0,1,0,2.7,2.94c23.08,25,50.35,51.27,76,67.7,54.49,35,62.13,62.27,62.35,63.13a7.18,7.18,0,0,0,1.45,3.06c.91,1.11,7.88,9.49,16.27,14a47,47,0,0,1-6.1.82c-.43,0-.87,0-1.3,0-13.11,0-24-14.2-26.3-17.49-2.2-4.9-9-7.18-11.52-8-10.36-3.5-28.31-6.06-53.35-7.63-14.86-.93-24.54-4.38-26.56-9.47-2.37-6,4.85-16.53,8.51-20.44a7.19,7.19,0,0,0,1.9-4.11c.17-1.57,1-15.66-24-25.47l-2.46-1c-13.58-5.26-49.64-19.24-79.28-41.24-35.55-26.37-48.37-54.31-38.12-83a7.15,7.15,0,1,0-13.47-4.81,69.45,69.45,0,0,0-3.92,31c-3.36,3.32-6.89,9.17-10.79,17.85-4.29,9.54-8.9,22.28-13.7,37.86l0,.12c-15.69,50.94-75.2,132-75.8,132.84a7.15,7.15,0,0,0,5.75,11.39,7.18,7.18,0,0,0,5.76-2.91c2.37-3.21,55.15-75.2,74.82-128,6.09,4.34,15,10.86,24,18,28,22.34,29.52,29.34,29.59,29.81.06,3-1.16,6.81-2.35,10.49-2.2,6.83-4.93,15.33-.3,23,3.85,6.38,11.71,10.41,24.75,12.7,34.86,6.11,46.91,13.36,70.12,31,5,3.81,12.49,8.89,19.53,8.89a12.88,12.88,0,0,0,6.63-1.76c8.22-4.84,6.78-16.57,6.59-17.89a7.2,7.2,0,0,0-2-4c-2-2-6.94-7.14-10.66-11.58,6.3,2.71,14.48,4.37,24.66,5,40.7,2.54,51.19,7.22,53.22,8.39l.08.12c.65,1,16.19,24.69,38.73,24.69.8,0,1.61,0,2.4-.09,21.37-1.58,24.44-10.63,24.77-14.45C436.53,462.38,434.05,456.61,425.85,454.56Zm-7-1.52a55.25,55.25,0,0,1-7-6.31A55.25,55.25,0,0,0,418.89,453ZM315.16,354.39l1.62,1.38Zm12.76,10.39q1.75,1.34,3.49,2.64Q329.66,366.13,327.92,364.79Zm4.83,3.63q2.32,1.7,4.63,3.3Q335.08,370.12,332.75,368.42Zm68.76,59.46q-.74-1.08-1.56-2.22Q400.77,426.8,401.52,427.88Zm-2.13-3-1.08-1.44Zm-4.14-5.3q-.88-1.07-1.83-2.17Q394.36,418.51,395.24,419.58Zm-8.28-9.2c-.63-.65-1.27-1.3-1.94-2C385.69,409.08,386.34,409.73,387,410.38Zm-1.95-2q-4.11-4.09-9.12-8.5Q380.92,404.31,385,408.41Zm-25-21.23c-5.14-3.8-10.79-7.7-17-11.7q-2.61-1.67-5.24-3.49,2.63,1.82,5.24,3.49C349.23,379.48,354.88,383.39,360,387.18Zm13,10.24q-3-2.5-6.22-5.08Q370.05,394.93,373,397.42Zm-8.22-6.64L362,388.64Zm-150.47-147c.49.65,1.91,2.53,4.11,5.37-2.2-2.85-3.62-4.72-4.11-5.37a254.33,254.33,0,0,0-24-34.43l0,0,0,0A254.33,254.33,0,0,1,214.31,243.81ZM252.5,290.7l-.58-.66Zm-6.27-7.29-.72-.85Zm-4-4.7-.74-.89Zm-7.32-8.82-2.44-3Zm-9-11.14c-2.82-3.54-5.2-6.59-7.07-9C220.72,252.16,223.1,255.2,225.92,258.75Zm-38.3-52.46-.56-.63Zm-3.11-3.43-.48-.51Zm-2.86-3-.32-.32ZM177,209.95c-.74-.79-1.48-1.57-2.21-2.31C175.54,208.38,176.28,209.15,177,209.95Zm1.79-12.82-.56-.53Zm-3-2.76-.36-.31Zm-2.61-2.19-.46-.37Zm-2.84-2.2-.54-.39Zm-3-2.07-.13-.08ZM165,186.39l-.51-.3Zm-2.8-1.56-.47-.23Zm-2.6-1.24-.26-.12Zm-2.51-1-.51-.18Zm-2.71-.86-.34-.08ZM152,181.2l-.37-.07Zm-2.51-.37-.46,0Zm-2.61-.14h0Zm-6.69.92.47-.13Zm8.16,9.53c-.54-.05-1.08-.09-1.6-.09C147.25,191.06,147.78,191.09,148.32,191.15Zm-10-8.94Zm6.59-1.42-.48,0Zm-2.39.29h0Zm-10.76,1.27q-.65-.73-1.44-1.57Q131.11,181.61,131.76,182.34Zm-6.35-6.6c-4.77-4.71-11.68-11.12-21.68-19.81h0C113.73,164.61,120.64,171,125.41,175.73Zm-26.9-23.29.35.18Zm1.75,1,.18.11Zm1.67,1.11.35.26Zm-5-2.75-.29-.11Zm-1.71-.59-.32-.1Zm-2-.48-.36-.06Zm-1.86-.27-.25,0Zm-1.95-.11h0Zm.31,10.31-.32,0Zm-1.2,0-.44,0ZM86.34,150.5l.81-.1Zm1.3-.14.73,0ZM27.28,217.93a280.68,280.68,0,0,1,17.67-30.8c14.39-21.63,27.76-33.86,39.75-36.35.41-.09.82-.16,1.23-.22-.41.06-.82.14-1.23.22-12,2.49-25.36,14.72-39.75,36.35a280.64,280.64,0,0,0-17.67,30.8,5.14,5.14,0,0,0-.5,2A5.13,5.13,0,0,1,27.28,217.93ZM56,189.19l-.61.89ZM30.4,225.07l-.25-.08Zm65.18-62.44.32.22Zm-4.92-2,.39.06Zm1.24.24.31.08Zm1.43.47.21.1Zm1.11.54.35.2Zm27,24.45-1.74-1.78,1.74,1.78,1.41,1.48h0ZM21.21,294.28c.31-.41,1.39-1.81,3.09-4-1.7,2.17-2.78,3.57-3.09,4a5.13,5.13,0,0,0-1,2.82A5.12,5.12,0,0,1,21.21,294.28ZM27,286.92l-2.24,2.83Zm-5.85,13.46a5,5,0,0,0,.29.41A5,5,0,0,1,21.12,300.38Zm1.06,1.13a5.14,5.14,0,0,0,.82.5A5.17,5.17,0,0,1,22.18,301.51Zm1.1.62a5.2,5.2,0,0,0,.6.22A5.08,5.08,0,0,1,23.27,302.13Zm.93.3a5.13,5.13,0,0,0,.59.09A5,5,0,0,1,24.2,302.43Zm.92.12a5.1,5.1,0,0,0,.82,0,5.13,5.13,0,0,1-.65,0Zm.94-.05a5.17,5.17,0,0,0,.82-.19A5.22,5.22,0,0,1,26.06,302.5Zm.9-.21a5.17,5.17,0,0,0,.8-.36A5.17,5.17,0,0,1,27,302.28Zm.95-.44a5.11,5.11,0,0,0,.71-.51A5.11,5.11,0,0,1,27.92,301.84Zm.83-.61a5.11,5.11,0,0,0,.64-.69A5.11,5.11,0,0,1,28.75,301.23ZM141.87,191.87c.34-.12.69-.23,1-.33C142.56,191.64,142.21,191.75,141.87,191.87Zm4.52-.81-.82,0Zm-1.24.07-.72.09Zm-1.15.16-.73.16Zm28.51,14.08q1.05,1,2.12,2.09Q173.57,206.39,172.52,205.38Zm-23.88-14.2c.54.06,1.09.15,1.65.26C149.73,191.33,149.18,191.24,148.64,191.18Zm1.9.32c.56.12,1.13.26,1.7.44C151.66,191.76,151.1,191.62,150.54,191.5Zm1.81.47c.59.18,1.19.39,1.8.63C153.54,192.36,152.94,192.14,152.35,192Zm2.12.75q.89.35,1.81.78Q155.36,193.07,154.47,192.71Zm2.12.93c.64.31,1.28.63,1.93,1C157.87,194.27,157.23,194,156.59,193.65Zm1.95,1c.65.36,1.31.75,2,1.16C159.85,195.39,159.19,195,158.54,194.64Zm2.28,1.35q1,.61,2,1.29Q161.78,196.6,160.82,196Zm2.32,1.54c.67.47,1.35,1,2,1.48C164.48,198.5,163.8,198,163.13,197.54Zm2.21,1.62q1,.77,2,1.6Q166.34,199.93,165.34,199.16Zm2.28,1.82c.69.57,1.38,1.17,2.08,1.79C169,202.16,168.31,201.55,167.62,201Zm2.48,2.15q1,.94,2.11,2Q171.15,204.07,170.1,203.13Zm9.9,10.1c.77.87,1.54,1.77,2.32,2.69a237,237,0,0,1,17.73,24.33,237,237,0,0,0-17.73-24.33C181.55,215,180.78,214.1,180,213.23Zm-2.58-2.85q1.09,1.18,2.2,2.42Q178.52,211.56,177.43,210.38Zm28.37,39.25.06.09c.53.72,3.29,4.4,7.79,10.16-4.5-5.76-7.25-9.45-7.79-10.16Zm11,14.29,2.06,2.6Zm20.24,24.74,3.08,3.62Zm164.66,162.1a5.12,5.12,0,0,1-.56-.86,5.14,5.14,0,0,0,.56.86c.33.41,1.49,1.8,3.22,3.61C403.21,452.57,402.05,451.18,401.72,450.77Zm18.08,14.69-.81-.36Zm-3.46-1.75-.86-.52Zm-5.85,5.16c6.06-.45,9.72-1.59,11.71-2.56h0c-2,1-5.65,2.11-11.71,2.56q-.72.05-1.42.05C409.54,468.92,410,468.91,410.49,468.87ZM387.2,457.79l.4.4Zm5.42,17-.15-.08ZM388,472l-.51-.37Zm0-13.37.43.41Zm.86.81.45.41Zm.9.81.47.41Zm.94.81.48.4Zm1,.8.5.4Zm1,.78.52.39Zm1,.76.54.38Zm1.07.74.55.36Zm1.11.71.56.34Zm1.14.67.56.31Zm1.17.62.58.29Zm1.2.58.58.26Zm1.23.52.58.23Zm1.26.46.58.2Zm1.29.4.57.16Zm1.34.33.53.12Zm1.43.27.41.07Zm1.75.2h0ZM382.93,453l-.22-.27Zm3.88,4.4-.38-.39Zm-.76-.8-.35-.38Zm-.72-.78-.32-.36Zm-.67-.75-.3-.34Zm-.63-.73-.26-.31Zm-.58-.69-.24-.29Zm-1-1.28-.16-.21Zm-.43-.56-.13-.17Zm-.41-.55-.06-.09Zm-.32-.44,0-.05Zm-10.69-7.53c.66.22,1.66.56,2.78,1-1.12-.46-2.12-.8-2.78-1a82.77,82.77,0,0,0-9.06-2.41A82.77,82.77,0,0,1,370.57,443.28Zm6.6,3-.61-.38Zm-59.43-10.53q7,.44,13.23,1-6.24-.54-13.23-1-4.47-.28-8.31-.85Q313.27,435.47,317.74,435.76ZM289.45,425a8,8,0,0,0,.53,1.09,8,8,0,0,1-.53-1.09c-1.53-3.86,0-8.82,2.35-13.19C289.48,416.21,287.92,421.17,289.45,425ZM116.36,336.2h0c-1.66,4.79-3.65,9.81-5.9,15C112.71,346,114.7,341,116.36,336.2Zm37.65-55,0,.08,0-.08ZM295.7,405.72l-.12.16Zm-4.89,58.07c-1.44-.39-4.5-1.66-9.89-5.77-24.69-18.79-38.5-27.1-76.31-33.73-11.45-2-14.28-4.87-15-6-1.27-2.1.16-6.54,1.67-11.24s3.16-9.82,3-15.25c-.15-6.43-4.43-16.28-35-40.65-11-8.77-22.17-16.76-28.11-20.93,6-18.85,10.69-30,14-36.41a80.08,80.08,0,0,0,3.47,7.5c7.73,14.65,20.79,28.87,38.84,42.26,4.15,3.08,8.4,6,12.7,8.76,1.7,5,7.42,16.06,26.62,31.91,13.88,11.45,31.48,33.2,49.56,61.24l.5.77c3.35,5.17,10.56,12.85,14.08,16.47C290.89,463.12,290.85,463.48,290.8,463.78Zm-1.68-66.38c-.91-2.25-4.18-7.08-15.89-11.68l-2.18-.85,2.18.85c11.72,4.6,15,9.43,15.89,11.68Zm-86-43.21a40.29,40.29,0,0,0,2.09,3.89c3.46,5.72,10.12,14.08,22.87,24.61,9.21,7.6,20,19.65,31.5,35-11.48-15.36-22.29-27.41-31.5-35-12.76-10.53-19.41-18.89-22.87-24.61a40.29,40.29,0,0,1-2.09-3.89Zm32.79,19c-1.1-.91-2.14-1.79-3.13-2.65,16,7.84,29.93,13.22,37.34,16.1l.22.09,2.18.85c9.48,3.72,13,7.45,14.26,9.56-3.71,4.66-9.66,13.53-10.19,23.05C261.8,399.2,247.92,383.14,235.88,373.2Zm-8.51-7.58h0a433.53,433.53,0,0,0,39.92,17.79A433.52,433.52,0,0,1,227.37,365.62Zm51.21,57.46c-.38-5.19,1.22-10.35,3.39-14.78-2.17,4.44-3.77,9.59-3.39,14.78ZM282,408.29c.42-.86.86-1.69,1.32-2.49C282.83,406.6,282.39,407.43,282,408.29ZM152.2,303.61c5.4,9.24,13,18.3,22.69,27.09C165.21,321.91,157.61,312.85,152.2,303.61Zm26.57,30.5.68.58Zm-32.5-89.2a5.13,5.13,0,0,1,.41-.86A5.17,5.17,0,0,0,146.27,244.91Zm.56-1.1a5.2,5.2,0,0,1,.39-.52A5.07,5.07,0,0,0,146.84,243.81Zm-2.65,47.47c-.73,1.36-1.53,3-2.4,4.84.87-1.87,1.68-3.48,2.4-4.84ZM129.48,329h0a291.79,291.79,0,0,1,11.84-31.87A291.79,291.79,0,0,0,129.48,329Zm-10.12-2.18h0c2.23-7,4.68-14.25,7.26-21C124,312.58,121.58,319.82,119.36,326.84Zm10.29,17.37-1.53-1.09Zm16.61,12.35-1.46-1.12Zm-2.35-1.8-2-1.48Zm-4.27-3.23c-1.56-1.17-3.08-2.29-4.54-3.36C136.56,349.23,138.08,350.35,139.65,351.52Zm-5.08-3.76-2.09-1.52Zm44.76,23.52,0,0Zm-3.15-3.06L176,368Zm16.16,23.62a31.61,31.61,0,0,1-1.11,8.44,31.61,31.61,0,0,0,1.11-8.44c-.08-3.51-1.68-8.55-10.23-17.69C190.65,383.29,192.25,388.33,192.33,391.84Zm11.93,34.42c30.71,5.38,45.41,11.9,63.23,24.36-17.81-12.46-32.51-19-63.23-24.36-2-.34-3.7-.72-5.24-1.11C200.56,425.54,202.29,425.91,204.26,426.26Zm67.29,27.27-1.15-.83Zm19.24,12.32-.15,0Zm-.52-.13-.17,0Zm-.72-.22-.07,0Zm-.78-.29-.22-.09Zm-.81-.36-.3-.14Zm-1-.47-.31-.16Zm-1.28-.69-.08,0Zm-1.25-.75-.37-.24Zm-1.29-.84-.47-.31Zm-1.47-1-.45-.32Zm10.43,4.84h0Zm-.1,0h0Zm-.17,0h0Zm-.29,0h0Zm-.37,0-.09,0Zm-.76-22c.73.89,1.52,1.8,2.33,2.72C292,445.72,291.18,444.8,290.45,443.92Zm3-34.94-.29.47Zm-.9,1.49-.22.38Zm7.17-10.94a5.14,5.14,0,0,1-1.11,2.64,5.14,5.14,0,0,0,1.11-2.64,9.87,9.87,0,0,0-.06-2.28A9.87,9.87,0,0,1,299.73,399.52ZM184,325c-2.55-2.22-5-4.45-7.21-6.69C179.05,320.58,181.47,322.81,184,325ZM165.59,305.3a108,108,0,0,0,11.15,13,108,108,0,0,1-11.15-13,82.23,82.23,0,0,1-5.09-7.93A82.23,82.23,0,0,0,165.59,305.3ZM156,248.37a57,57,0,0,0-3.15,26.24h0A57,57,0,0,1,156,248.37a5.11,5.11,0,0,0,.17-2.83A5.11,5.11,0,0,1,156,248.37Zm-4.07-6.82a5.16,5.16,0,0,1,.93.23A5.16,5.16,0,0,0,151.91,241.56Zm-.31,0a5.16,5.16,0,0,0-.65,0h.17C151.28,241.49,151.44,241.51,151.6,241.53Zm-3.66,1.08a5.09,5.09,0,0,0-.5.45A5.09,5.09,0,0,1,147.94,242.61Zm2.72-1.09a5.16,5.16,0,0,0-.63.1A5.06,5.06,0,0,1,150.65,241.53Zm-.91.16a5.14,5.14,0,0,0-.69.25A5.11,5.11,0,0,1,149.74,241.69Zm-.85.31a5.2,5.2,0,0,0-.77.46A5.15,5.15,0,0,1,148.89,242Zm-6.65,30.66c0,.32.05.64.08,1h0C142.3,273.3,142.27,273,142.25,272.66ZM130,297.39l-.71,1.7Zm1.7-3.88-.41.92ZM50.05,471.18a5.15,5.15,0,0,1-8.29-6.11L43,463.35l-1.25,1.72a5.15,5.15,0,1,0,8.29,6.11c2.37-3.21,55.34-75.45,74.75-128h0C105.39,395.72,52.42,468,50.05,471.18ZM109.7,352.89q-.76,1.71-1.56,3.45Q108.93,354.61,109.7,352.89Zm-3.16,6.87-.25.52Zm-1.92,4q-.91,1.84-1.84,3.7Q103.71,365.56,104.62,363.72Zm-5.39,10.57q-2.76,5.23-5.69,10.45Q96.45,379.52,99.22,374.28ZM93.17,385.4q-2.12,3.78-4.29,7.52Q91,389.18,93.17,385.4ZM88,394.46l-1.85,3.15ZM78.1,410.87l-2,3.15Zm-4.39,7-2.29,3.6ZM52.2,450.33l-1,1.42Zm-6.66,9.49-.57.8ZM173,379.55c-1.23-1.26-2.62-2.62-4.2-4.11,1.58,1.49,3,2.86,4.2,4.11,8.59,8.79,9,12,9,12.53a15.82,15.82,0,0,1-.16,2.48,15.88,15.88,0,0,0,.16-2.48C182,391.6,181.58,388.34,173,379.55Zm4.84,29.62a28.27,28.27,0,0,0-1,7.46A28.27,28.27,0,0,1,177.84,409.18Zm23.22,27,1.42.27c2,.35,3.91.7,5.76,1.06-1.85-.36-3.77-.71-5.76-1.06Zm8.38,1.56c1.81.36,3.57.72,5.26,1.1C213,438.42,211.25,438.06,209.44,437.7Zm13.25,3a110.73,110.73,0,0,1,36.62,16.76A110.73,110.73,0,0,0,222.69,440.73ZM297.4,474.8a10.87,10.87,0,0,1-5.61,1.48c-3.51,0-7.21-1.43-10.69-3.36,3.47,1.94,7.18,3.36,10.69,3.36a10.87,10.87,0,0,0,5.61-1.48,10.13,10.13,0,0,0,2.77-2.43A10.13,10.13,0,0,1,297.4,474.8Zm5.72-15c0-.43-.08-.75-.1-.91s0-.1,0-.15,0,.1,0,.15S303.08,459.39,303.12,459.83Zm-13.67-20.45h0c6.38,3.7,15.54,5.9,27.65,6.66,9.8.61,17.87,1.35,24.52,2.13-6.65-.78-14.71-1.52-24.52-2.13C305,445.28,295.83,443.07,289.45,439.38Zm57.25,9.44-.72-.1ZM372,455.46a5.27,5.27,0,0,1-.26-.46h0a5.27,5.27,0,0,0,.26.46,64.23,64.23,0,0,0,7.22,8.88A64.2,64.2,0,0,1,372,455.46Zm7.79,9.46c.56.56,1.13,1.13,1.74,1.7C380.88,466.06,380.3,465.49,379.75,464.93Zm6.85,6-.79-.61Zm-1.37-1.06-.32-.26Zm-2.56-2.16-.4-.37Zm51.5-1.2c-.28,3.31-3.08,11.16-22.92,12.63-.29,0-.57,0-.86,0,.29,0,.57,0,.86,0,19.84-1.47,22.64-9.32,22.92-12.63a8.47,8.47,0,0,0-2.23-6.37A8.47,8.47,0,0,1,434.17,466.52Z"/><path class="cls-1" d="M501.51,94.57A7.17,7.17,0,0,0,495,90.36h0a7.1,7.1,0,0,0-2.94.64L378.59,142.32a51.59,51.59,0,0,0-7.6-2.23c-2.4-.54-4.57-1.05-6.48-1.51-9.49-2.25-15.75-3.73-27.23-3.73-6.75,0-15.31.53-26.94,1.66-2.36.23-4.61.35-6.69.35-6.19,0-11-1-13.7-2.94l184-83.35a7.15,7.15,0,1,0-5.9-13L284.43,120.72a11.93,11.93,0,0,0-7.5-2.64,12.53,12.53,0,0,0-1.32.07c-4.75.5-9,3.62-12.72,9.27-1.57,2.33-14.77,24.08,9.21,62.66.1.17.18.28.29.43.35.49,8.94,13-3.52,31-14.91,21.44-6.87,41.08-.54,48.47l.07.08c.35.39,8.48,9.41,21.07,9.41l1.08,0c10.37-.42,20.19-6.7,29.16-18.66,12.47-16.63-5.25-42.22-9.35-47.71-.65-1.57-2.75-7.42-.71-13.12,1.68-4.7,5.92-8.55,12.6-11.47,26.94-11.76,57.3-25,57.41-25,3.75-1.65,7.56-4.94,8-9.51L497.94,104a7.15,7.15,0,0,0,3.57-9.46Zm-2.45-.2a5.14,5.14,0,0,0-.46-.52A5.14,5.14,0,0,1,499.06,94.37Zm-3.26-1.94a5.17,5.17,0,0,0-.9-.06H495A5.15,5.15,0,0,1,495.8,92.43Zm2.63,1.25a5.15,5.15,0,0,0-.71-.54A5.15,5.15,0,0,1,498.43,93.68Zm-.82-.6a5.1,5.1,0,0,0-.68-.34A5.19,5.19,0,0,1,497.61,93.08Zm-.93-.43a5.17,5.17,0,0,0-.67-.18A5.17,5.17,0,0,1,496.68,92.66Zm-3.8.16a5.15,5.15,0,0,1,.94-.32,5.17,5.17,0,0,0-.94.32L381,143.42h0Zm1.92-.45a5.11,5.11,0,0,0-.91.11A5.11,5.11,0,0,1,494.8,92.37Zm-189,56.75c-.74,0-1.48,0-2.19,0h-.13Q304.63,149.16,305.82,149.12Zm-1.71-10.27h0Zm-7.61,67.46c0,1,.12,1.91.23,2.8a32.66,32.66,0,0,0,2.86,9.95,5.18,5.18,0,0,0,.44.7,5.18,5.18,0,0,1-.44-.7,32.66,32.66,0,0,1-2.86-9.95c-.11-.9-.19-1.83-.23-2.8,0-.65,0-1.31,0-2C296.47,205,296.47,205.66,296.5,206.31Zm0-3.08a27.29,27.29,0,0,1,1.52-7.45,26.86,26.86,0,0,1,1.59-3.57,26.86,26.86,0,0,0-1.59,3.57A27.29,27.29,0,0,0,296.54,203.22Zm20-27.89c-10.44,4.55-17.28,11.2-20.34,19.76-4.51,12.61,1.38,24.38,1.63,24.88a7.15,7.15,0,0,0,.71,1.12c5.26,6.79,15,24.05,9.75,31.07-6.23,8.31-12.36,12.67-18.2,12.95h-.57c-5.68,0-9.82-4-10.35-4.55-.87-1.11-10.39-13.89,1.47-30.94,17.55-25.22,5.17-44.89,3.54-47.26-17-27.4-11.66-42.46-9.88-46.09a20,20,0,0,0,3.69,6c5.25,5.89,13.88,8.87,25.66,8.87,2.54,0,5.27-.14,8.11-.42,11.33-1.1,19.16-1.59,25.38-1.59,10,0,15.29,1.26,24.1,3.34l5,1.17Zm-32.68,10.4-.06-.12Zm-1.19-2h0Zm80.57-32.81,3,.69Zm-3-.7,1.06.25Zm-22.87-3.06h0Zm1.91,0,1.15,0Zm1.66,0,1.2.05Zm1.55.07,1.49.1Zm1.71.11,1.2.1Zm1.63.14,1,.1Zm1.42.15,1,.13Zm1.34.17,1.32.19Zm1.47.22,1.14.19Zm1.54.26.92.17Zm1.34.25,1,.19Zm1.31.26,1.3.28Zm1.44.31,1.21.27Zm1.67.37.93.21Zm1.45.33,1,.23Zm-47.27-1.12c-.86.08-1.71.15-2.54.21.83-.06,1.68-.12,2.54-.21l.43,0Zm2.41-.23.92-.08Zm2.41-.22.9-.08Zm2.58-.22.57,0Zm2.56-.21.77-.06Zm2.07-.15.75-.05Zm2.17-.15.5,0Zm2.24-.14.63,0Zm1.77-.09.64,0Zm1.82-.08.47,0Zm2-.07h0Zm1.52,0h0Zm1.54,0h0Zm-30.2,1.95,1.92-.1Zm-21.53-3.87q.73.4,1.5.76Q285.6,145.63,284.88,145.23Zm1.85.91c.41.18.82.36,1.24.52C287.55,146.5,287.14,146.33,286.73,146.14Zm1.81.73,1.15.39Zm1.77.59,1.27.35Zm1.82.49q1.86.44,3.92.73Q294,148.39,292.13,147.95Zm4.55.8,1.48.16Zm2.24.23,1.49.1Zm2.25.13,1.78,0Zm-20.28-6.72c.27.24.54.48.83.71C281.43,142.87,281.16,142.63,280.89,142.39Zm1.27,1.06q.42.32.87.63Q282.58,143.77,282.16,143.45Zm1.32.94c.35.23.71.44,1.08.65C284.19,144.83,283.83,144.61,283.48,144.39Zm-2.86-23.59.1,0Zm.95.44.12.06Zm-3.28-1.06.13,0Zm1.29.26h0ZM279.45,141c.34.38.71.75,1.08,1.11-.37-.36-.74-.72-1.08-1.11a18.22,18.22,0,0,1-4.16-8.13A18.22,18.22,0,0,0,279.45,141Zm-4.91-8.65c.19-.22.37-.43.53-.6h0C274.91,131.88,274.73,132.08,274.54,132.31Zm-1.48,2c-.37.57-3.28,5.36-3,14.5-.31-9.14,2.6-13.93,3-14.5l0-.06Zm-2.19,21.41a46.63,46.63,0,0,1-.77-6.68A46.63,46.63,0,0,0,270.87,155.75Zm8,107.3-.19-.16Zm-.48-.41-.13-.11Zm-.41-.37,0,0Zm11.12,4.83-.6,0Zm-1.25-.08-.57-.07Zm-1.2-.18-.55-.12Zm-1.14-.27-.52-.15Zm-1.08-.34L284,266Zm-1-.4-.46-.2Zm-.95-.44-.42-.22Zm-.87-.47-.39-.22Zm-.8-.48-.35-.22Zm-.73-.48-.3-.21Zm-.65-.47-.25-.19Zm30.38-10.14c3.27-4.37,1.92-11.34-.81-18,2.73,6.61,4.08,13.58.81,18a43.49,43.49,0,0,1-10.65,10.55A43.49,43.49,0,0,0,309.87,253.36Zm4.8-30q.45.8.9,1.64Q315.12,224.15,314.66,223.35ZM317.1,228c.32.67.63,1.36.94,2.06C317.73,229.38,317.42,228.69,317.1,228Zm-4.28-36.07c-.36.33-.71.66-1,1C312.11,192.6,312.46,192.27,312.82,191.95Zm1.95-1.58-.72.55Zm55.56-36.31h0l-35.06,15.28Zm-36.9,16.08-2.39,1Zm31.92-29.31-1.3-.31-1-.23,1,.23ZM362,140l.67.16Zm-.91-.21-.63-.15Zm-1.55-.36-.56-.13Zm-2-.44-.26-.06Zm-1.4-.3-.5-.1Zm-1.41-.28-.53-.1Zm-1.49-.28-.44-.08Zm-1.82-.31-.31,0Zm-1.42-.21-.5-.07Zm-1.48-.19-.52-.06Zm-1.62-.18-.41,0Zm-1.94-.17-.4,0Zm-1.61-.1-.58,0Zm-1.72-.08-.6,0Zm-2-.06h0Zm-2.25,0h0Zm-24.2,1.4-2.66.25h0Zm22.45-1.39-1.35,0Zm-1.82,0-1.38,0Zm-1.7,0-1.77.07ZM330,137l-1.5.07Zm-2,.1-1.72.1Zm-2,.11-2.09.13Zm-2.53.17-1.76.13Zm-2.33.17-2.19.17Zm-2.27.18-2.44.21Zm-3,.26-2,.18Zm-9.91.8.71,0Zm2-.1.63,0ZM288.12,135l-.22-.18h0Zm14.82,3.82h0Zm-2.15-.07h0Zm-1.55-.11-.49,0Zm-1.51-.17-.5-.07Zm-1.51-.23-.38-.07Zm-1.67-.34-.28-.07Zm-1.23-.33-.4-.12Zm-1.17-.38-.37-.14Zm-1.2-.48-.21-.09Zm-1.15-.57-.25-.15Zm-.87-.54-.28-.2Zm184.16-86.9L304.83,125,473.09,48.74a5.14,5.14,0,0,0,2.69-2.88A5.14,5.14,0,0,1,473.09,48.74Zm3-4.82a5.13,5.13,0,0,0-.29-1.5A5.13,5.13,0,0,1,476.11,43.91Zm-1.09-3a5.12,5.12,0,0,0-.46-.52A5.07,5.07,0,0,1,475,40.9Zm.63,1a5.14,5.14,0,0,0-.47-.81A5.14,5.14,0,0,1,475.65,41.92Zm-2.77-2.64a5.18,5.18,0,0,1,.68.33A5.18,5.18,0,0,0,472.88,39.28Zm.8.4a5.11,5.11,0,0,1,.71.53A5.08,5.08,0,0,0,473.68,39.68ZM471.76,39a5.17,5.17,0,0,0-.9-.06H471A5.18,5.18,0,0,1,471.76,39Zm.87.23A5.2,5.2,0,0,0,472,39,5.22,5.22,0,0,1,472.64,39.19Zm-3.8.17a5.18,5.18,0,0,1,.94-.32A5.18,5.18,0,0,0,468.84,39.35Zm1-.33a5.13,5.13,0,0,1,.91-.11A5.13,5.13,0,0,0,469.85,39ZM277,120.08h0Zm-14.54,12.48a22.35,22.35,0,0,1,2.06-4c3.34-5.13,7.13-7.94,11.25-8.38h0c-4.12.43-7.91,3.25-11.25,8.38a22.35,22.35,0,0,0-2.06,4c-.26.64-.52,1.35-.77,2.13C262,133.91,262.25,133.2,262.51,132.56Zm-2.66,14.86c0,1.34,0,2.75.17,4.23C259.89,150.17,259.84,148.76,259.85,147.42ZM261,158.76c1.7,8.41,5.48,18.52,12.78,30.27l.12.18-.12-.18C266.5,177.28,262.72,167.17,261,158.76Zm1.39,87.19c.15-7,2.33-15,8.11-23.34,10.49-15.08,6.81-26.78,4.62-31.29,2.19,4.51,5.87,16.2-4.62,31.29-5.77,8.3-8,16.3-8.11,23.34a36.88,36.88,0,0,0,.39,6.21c.13.88.29,1.73.48,2.57-.19-.83-.35-1.69-.48-2.57A36.88,36.88,0,0,1,262.41,245.95Zm4.72,18.77c.5.86,1,1.65,1.52,2.36C268.13,266.37,267.62,265.58,267.12,264.72Zm-3.7-9.36q.24,1,.53,2Q263.67,256.37,263.42,255.37Zm1.34,4.34a34.33,34.33,0,0,0,2.23,4.78A34.33,34.33,0,0,1,264.76,259.71Zm4.79,8.56.3.37h0Zm20.92,9.14-1,0a24.73,24.73,0,0,1-6.13-.77,24.73,24.73,0,0,0,6.13.77l1,0a25.83,25.83,0,0,0,7-1.27A25.83,25.83,0,0,1,290.47,277.4ZM321,254.06a21.07,21.07,0,0,0,.86-3.62A21.07,21.07,0,0,1,321,254.06Zm1.13-7.62a41.64,41.64,0,0,0-3.38-14.76A41.64,41.64,0,0,1,322.09,246.44Zm-12.51-50.79a18.84,18.84,0,0,1,2.08-2.58A18.84,18.84,0,0,0,309.58,195.65Zm69.27-34.06-17.71,7.72,17.71-7.72a14.44,14.44,0,0,0,3.87-2.48A14.45,14.45,0,0,1,378.85,161.59Zm118.27-59.38L387.61,151.74h0l109.51-49.53a5.11,5.11,0,0,0,2.1-7.63,5.11,5.11,0,0,1-2.1,7.63Z"/><path class="cls-1" d="M290,242.19a5.45,5.45,0,0,0-5.45-5.25h-.24a5.48,5.48,0,0,0-5.26,5.67c.17,4.73,2.92,14.12,12.11,15.79a5.47,5.47,0,0,0,6.37-4.41,5.48,5.48,0,0,0-4.41-6.37C290.34,247.12,290,242.24,290,242.19Zm1.3,6.88a5,5,0,0,1-1.5-1.36A5,5,0,0,0,291.33,249.07Zm-4.14-8.9a3.43,3.43,0,0,0-.25-.28A3.43,3.43,0,0,1,287.19,240.18Zm.84,2.11a3.46,3.46,0,0,0-.1-.68A3.5,3.5,0,0,1,288,242.28Zm-.18-.91a3.47,3.47,0,0,0-.14-.41A3.47,3.47,0,0,1,287.85,241.37Zm-.28-.64a3.5,3.5,0,0,0-.2-.33A3.44,3.44,0,0,1,287.57,240.73Zm-2.7-1.75a3.36,3.36,0,0,0-.45,0h.15C284.68,238.95,284.78,239,284.88,239Zm1.84.74a3.53,3.53,0,0,0-.29-.22A3.61,3.61,0,0,1,286.71,239.71Zm-.55-.36a3.48,3.48,0,0,0-.33-.16A3.48,3.48,0,0,1,286.16,239.35Zm-.62-.25-.35-.09A3.4,3.4,0,0,1,285.54,239.1Zm-4.47,3.45a3.46,3.46,0,0,1,.52-2,3.46,3.46,0,0,0-.52,2c.15,4.18,2.53,12.45,10.47,13.9h0C283.61,255,281.23,246.73,281.08,242.55Zm14.52,11.1a3.48,3.48,0,0,1-2.23,2.65,3.47,3.47,0,0,0-.09-6.55A3.47,3.47,0,0,1,295.59,253.65Z"/></svg>