<svg id="Слой_1" data-name="Слой 1" xmlns="http://www.w3.org/2000/svg" viewBox="0 0 512 512"><defs><style>.cls-1{fill:#00c5c5;}</style></defs><title>иконки для подкатегорий</title><path class="cls-1" d="M440.66,254.44a43.8,43.8,0,0,0-36-43c-.8-25.1-4.18-56.07-14.41-80.84a28.63,28.63,0,0,1,6.13-30.95L424.2,71.2a8,8,0,0,0-4.75-13.5c-2.25-.27-46.42-5.32-85.33,8.51A162.8,162.8,0,0,1,352,43.48,8,8,0,0,0,346.23,30c-37.8,0-73.85,16.84-95.88,29.71A79.46,79.46,0,0,1,269.8,38.32a8,8,0,0,0-6.42-14.16c-33,6.66-65.48,20.06-73.6,24.19A155.11,155.11,0,0,0,105,186.58v24.87a43.72,43.72,0,0,0,0,86v32.46a67.12,67.12,0,0,0,13.52,41.24L177.44,449a97.21,97.21,0,0,0,155,0l58.9-77.84a66.38,66.38,0,0,0,13.52-39.95c0-.43,0-33.75,0-33.75A43.8,43.8,0,0,0,440.66,254.44Zm-355.44,0a27.82,27.82,0,0,1,19.8-26.6V281A27.82,27.82,0,0,1,85.22,254.44ZM389,331.14a50.49,50.49,0,0,1-10.29,30.35l-58.9,77.84a81.26,81.26,0,0,1-129.59,0l-58.9-77.84A51.09,51.09,0,0,1,121,330.06s0-.08,0-.12V186.58a139.15,139.15,0,0,1,76-124c5.16-2.62,22.3-9.79,42.83-16C228,63.3,225.65,78.29,225.52,79.17a8,8,0,0,0,12.76,7.5c.47-.36,42.13-32.11,89.56-39.29a204,204,0,0,0-20.79,34.14,8,8,0,0,0,11.72,9.93c24.85-16.78,60.73-19.11,81.71-18.82L385,88.46a44.57,44.57,0,0,0-9.47,48.2c6.12,14.81,13.41,42.05,13.41,87.72h0S389,330.73,389,331.14Zm16-50.11v-53.2a27.77,27.77,0,0,1,0,53.2Z"/><circle class="cls-1" cx="177.72" cy="273.02" r="13.96"/><circle class="cls-1" cx="332.21" cy="273.02" r="13.96"/><path class="cls-1" d="M307.35,205.91a8,8,0,0,0,11.28,11.28,19.22,19.22,0,0,1,27.15,0,8,8,0,0,0,11.28-11.28A35.2,35.2,0,0,0,307.35,205.91Z"/><path class="cls-1" d="M152.86,205.91a8,8,0,0,0,11.28,11.28,19.22,19.22,0,0,1,27.15,0,8,8,0,1,0,11.28-11.28A35.2,35.2,0,0,0,152.86,205.91Z"/><path class="cls-1" d="M359.83,143.65c-.7-.46-1.37-.88-2-1.26A95.07,95.07,0,0,0,310,129.46H199.93a95.16,95.16,0,0,0-45.7,11.73,55.36,55.36,0,0,0-28.66,48.55v75.53a66.29,66.29,0,0,0,15,41.34l1,1.26a44.19,44.19,0,0,0,56.64,10.73,112.61,112.61,0,0,1,113.44,0,43.62,43.62,0,0,0,22,5.92,44.12,44.12,0,0,0,34.63-16.65l1.05-1.33a66.21,66.21,0,0,0,15-41.27v-75.6A54.8,54.8,0,0,0,359.83,143.65Zm8.57,121.62a50.27,50.27,0,0,1-11.5,31.31L355.8,298a28.15,28.15,0,0,1-36.09,6.84,128.57,128.57,0,0,0-129.51,0A28.15,28.15,0,0,1,154.12,298L153,296.52a50.22,50.22,0,0,1-11.45-31.26V189.74a39.4,39.4,0,0,1,20.39-34.56,79.17,79.17,0,0,1,38-9.76H310a79.09,79.09,0,0,1,39.77,10.75c.41.24.84.51,1.29.8a38.89,38.89,0,0,1,17.34,32.69Z"/><path class="cls-1" d="M289.56,334.45H220.37c-5.27,0-10.11,3.15-12.94,8.42C203.59,350,204,359.52,208.5,366c3,4.35,7.62,8.28,14.06,12a62.79,62.79,0,0,0,64.81,0c6.44-3.76,11-7.7,14.06-12h0c4.47-6.44,4.92-15.94,1.08-23.09C299.67,337.59,294.83,334.45,289.56,334.45Zm-1.24,22.41c-1.13,1.62-3.6,4.22-9,7.36-15.71,9.16-33,9.16-48.73,0-5.39-3.14-7.86-5.74-9-7.36a7.34,7.34,0,0,1-.12-6.44h67A7.35,7.35,0,0,1,288.32,356.86Z"/></svg>