<svg id="Слой_1" data-name="Слой 1" xmlns="http://www.w3.org/2000/svg" viewBox="0 0 512 512"><defs><style>.cls-1{fill:#00c5c5;}</style></defs><title>иконки для подкатегорий</title><path class="cls-1" d="M372.38,432.36a7.32,7.32,0,0,0-6.7-1.82c-1,.22-23.6,5.08-32.95-19.69-2.16-5.33-52.86-131.3-67.48-154.1-5.06-7.89-10.16-28.55-11.9-40.4-2.39-16.26,0-67.37.06-67.89a7.35,7.35,0,0,0-7-7.72c-4.51-.38-7.52,2.93-7.69,7-.15,2.16-2.54,53.09.06,70.74,1.21,8.17,6.37,34.18,14.09,46.25,13.86,21.63,65.7,150.33,66.13,151.51,10,26.19,32.27,30.77,45.76,29.39,2.18,2.51,4.24,5.68,3.49,8.21-1.28,4.32-9.85,8.48-15.18,9.48-8.95,1.64-28.82.47-39.09-.12-18.31-1-36.56-30.86-42-42-9.48-21.67-63-41.17-73.28-44.71-20.39-8.3-13.81-30.73-4.6-55,1.3-3.37,2.45-6.46,3.26-9,19.95-62-42.12-118.63-44.77-121a7.38,7.38,0,0,0-12,7.48c1.21,4.32.26,15.67-.59,25.71-1.12,13.25-2.29,27-.11,35.92a185.77,185.77,0,0,1,4.77,57.05c-.83,9.36-3.13,23.71-5.36,37.6-2.45,15.29-5,31.08-5.81,41.69C132,415.61,136.26,429.4,146,438c10.05,8.86,23,9.33,29.64,8.8,2.79,3.43,3.46,5.78,3.08,6.84-1.24,3.4-11.3,6.9-19.59,7.75-7.92.92-30.67,2.77-41,.19C87,453.66,81,415.68,76.56,388c-1-6.37-1.92-12.07-3-16.67C70.08,356.75,48.42,324.39,44.08,318c-4.9-13.7,4.59-23.41,19.48-36.53,6-5.28,11.67-10.27,14.9-15.67,19.92-33.22-13.06-111.74-16.88-120.59A7.38,7.38,0,0,0,48,151.06c9.54,22.11,31.38,84.45,17.76,107.16-2.06,3.42-6.89,7.69-12,12.18-13.88,12.22-32.88,29-23.22,53.71l.79,1.51c9.53,13.93,25.54,39.62,27.81,49.1,1,4.28,1.84,9.61,2.79,15.58,4.75,30,12,75.3,52.55,85.61,14.79,3.73,43.15.55,46.2.2,4.43-.42,26.75-3.37,31.87-17.39,2.77-7.66-.17-16-8.76-24.82a7.73,7.73,0,0,0-6.71-2.09c-.14.06-13.17,2.45-21.42-4.91-6.05-5.36-8.59-15.07-7.54-28.74.77-10,3.25-25.51,5.67-40.47,2.38-14.8,4.6-28.77,5.47-38.67,1.63-18.79-.28-41.91-5.15-61.8-1.59-6.63-.5-19.67.47-31.17.3-3.44.58-6.75.8-9.9,15.89,19,39.67,55.22,27.89,91.92-.77,2.35-1.83,5.15-3,8.26-7.33,19.31-22.59,59.45,13.19,74,23.92,8.3,59.92,25.2,65.06,37.08,2.41,5,24.3,48.85,55.21,50.62,6.43.37,16.08.92,25.16.92a102,102,0,0,0,16.74-1.06c6.14-1.12,22.88-6.86,26.71-19.82C384.05,452.18,383.72,443,372.38,432.36Z"/><path class="cls-1" d="M401.52,197.65v-6.39c-2.51-.75-6.78.24-6.1-4.09.25-1.61,3.19-2.8,4.91-4.18l1.42.81c0-2.7.08-5.41,0-8.11-.13-3.63,1.44-5.41,5.16-5.38,10.4.07,20.81.06,31.21.05,3.24,0,4.93,1.43,4.83,4.78-.05,1.8,0,3.61,0,5.41s-.06,3.66,2.68,3.57c2.44-.08,4.42,1.21,3.83,3.65-.31,1.3-2.58,2.18-4.07,3.1a4.72,4.72,0,0,1-1.9.24c-1.23,6.32-1.08,6.54,4.63,6.55,12.21,0,24.41,0,36.62,0,5.19,0,6.11.93,5.88,6.11q-2.9,64.42-5.89,128.84c-.58,12.21-11.05,22.84-23.28,23q-39.11.44-78.23,0c-12.4-.16-22.63-11-23.24-24q-3-64-5.79-128c-.22-4.94.73-5.9,5.64-5.92,12.34,0,24.69,0,37,0Zm-40.18,7.18c0,1.67-.05,3,0,4.4q.88,20.16,1.79,40.32c1.25,27.3,2.36,54.6,3.85,81.88.58,10.67,7.91,17.37,18.52,17.43q36.83.2,73.66,0c11.07-.06,18.33-7.47,18.84-18.58q2.76-60.69,5.53-121.37c.06-1.32,0-2.65,0-4h-6.63c-.16,2.26-.33,4.18-.42,6.1-1.12,24.8-2,49.62-3.43,74.4-.8,14.1-7.51,25.34-18.74,33.82-14.4,10.88-30.88,11.09-47.33,7.69-19.39-4-34.71-22.54-35.47-40.89-.1-2.5,0-5,3.26-5.19,3-.18,3.47,2.15,3.66,4.5,0,.55.15,1.1.22,1.65a39.62,39.62,0,0,0,39.12,34.54c3.33,0,6.66.09,10,0,20-.48,37.47-16.71,38.49-36.2,1.34-25.35,2.35-50.71,3.48-76.06.07-1.45,0-2.91,0-4.44H375c0,2.19-.07,4.09,0,6q1.28,28.89,2.62,57.78c.12,2.6-.26,5.05-3.41,5.08-2.83,0-3.42-2.28-3.52-4.71q-.46-11.64-1-23.28c-.61-13.54-1.24-27.08-1.87-40.84ZM409,177.61v6.46c7.37,0,14.51,0,21.64,0,5.84,0,5.92-.16,4.88-6.45Zm26.72,13.52H409.13v6.52h21.41C436.45,197.65,436.45,197.65,435.77,191.13Z"/><path class="cls-1" d="M406.81,170.3h.07q11,.07,21.93.06h9.29c3.24,0,4.92,1.43,4.82,4.78-.05,1.8,0,3.61,0,5.41s-.06,3.57,2.48,3.57h.43c2.34,0,4.18,1.29,3.61,3.65-.31,1.3-2.58,2.18-4.07,3.1a4.72,4.72,0,0,1-1.9.24c-1.23,6.32-1.08,6.54,4.63,6.55h21.67l14.94,0c5.19,0,6.11.93,5.88,6.11q-2.9,64.42-5.89,128.84c-.58,12.21-11.05,22.84-23.28,23q-19.65.22-39.3.23-19.46,0-38.93-.24c-12.39-.16-22.63-11-23.24-24q-3-64-5.79-128c-.22-4.94.73-5.9,5.64-5.92q8.2,0,16.4,0h25.33v-6.39c-2.51-.75-6.78.24-6.1-4.09.25-1.61,3.19-2.8,4.91-4.18l1.42.81c0-2.7.08-5.41,0-8.11-.13-3.61,1.42-5.38,5.09-5.38m15.43,13.77,8.45,0c5.84,0,5.92-.16,4.88-6.45H409v6.46h13.19m-.12,13.58h8.42c5.91,0,5.91,0,5.23-6.52H409.13v6.52h13m-47.91,76c-2.8,0-3.39-2.29-3.48-4.71q-.46-11.64-1-23.28c-.61-13.54-1.24-27.08-1.87-40.84h-6.53c0,1.67-.05,3,0,4.4q.88,20.16,1.79,40.32c1.25,27.3,2.36,54.6,3.85,81.88.58,10.67,7.91,17.37,18.52,17.43q18.5.1,37,.1,18.32,0,36.65-.1c11.07-.06,18.33-7.47,18.84-18.58q2.76-60.69,5.53-121.37c.06-1.32,0-2.65,0-4h-6.63c-.16,2.26-.33,4.18-.42,6.1-1.12,24.8-2,49.62-3.43,74.4-.8,14.1-7.51,25.34-18.74,33.82-9.35,7.06-19.57,9.63-30.1,9.63A85.52,85.52,0,0,1,407,326.9c-19.39-4-34.71-22.54-35.47-40.89-.1-2.5,0-5,3.26-5.19h.32c2.76,0,3.16,2.25,3.35,4.51,0,.55.15,1.1.22,1.65a39.62,39.62,0,0,0,39.12,34.54c2.12,0,4.24.05,6.36.05,1.21,0,2.42,0,3.63,0,20-.48,37.47-16.71,38.49-36.2,1.34-25.35,2.35-50.71,3.48-76.06.06-1.45,0-2.91,0-4.44H375c0,2.19-.07,4.09,0,6q1.28,28.89,2.62,57.78c.12,2.6-.26,5.06-3.41,5.08h0m32.6-104.47a6.22,6.22,0,0,0-4.72,1.63,6.4,6.4,0,0,0-1.48,4.9c.07,1.84,0,3.73,0,5.56,0,.21,0,.43,0,.64a1.11,1.11,0,0,0-1,.2,19.29,19.29,0,0,1-1.75,1.18c-1.63,1-3.31,2.08-3.56,3.69a4.18,4.18,0,0,0,.62,3.33c1,1.33,2.8,1.52,4.38,1.69.38,0,.75.08,1.1.13v4.39H376.19q-8.2,0-16.4,0c-2.57,0-4.4.26-5.55,1.46s-1.31,3-1.2,5.62l.77,17.39c1.61,36.26,3.27,73.76,5,110.63.65,13.64,11.56,24.87,24.34,25s25.77.24,38.94.24c12.75,0,26-.08,39.31-.23,12.6-.14,23.76-11.15,24.37-24,1.8-38,3.54-76.69,5.22-114.08l.66-14.77c.12-2.68,0-4.58-1.2-5.79s-3-1.47-5.78-1.47l-14.95,0H448.07c-1.63,0-3.66,0-4-.42s0-2.21.29-3.93a3,3,0,0,0,1.57-.39c.33-.2.71-.41,1.11-.63,1.52-.83,3.09-1.69,3.45-3.15a3.75,3.75,0,0,0-.62-3.34A5.07,5.07,0,0,0,445.8,183h-.43a1.68,1.68,0,0,1-1.09-.27c-.33-.34-.3-1.35-.28-2.16s0-1.79,0-2.66,0-1.84,0-2.75a5.77,5.77,0,0,0-1.38-4.36,6,6,0,0,0-4.55-1.56h-9.29c-8.55,0-15.51,0-21.92-.06Zm3.35,9.52h24.48c.29,1.79.5,3.44.18,3.81s-2.36.41-4.13.42l-8.45,0H410.16v-4.24Zm.08,13.52h24.53c.2,2,.31,3.55,0,3.92s-2.05.39-4.21.39h-20.3v-4.31Zm-34.1,13.68h92.53q0,.18,0,.36c0,1,0,2,0,2.92q-.48,10.66-.94,21.32c-.78,17.94-1.59,36.5-2.55,54.73-1,18.91-17.78,34.68-37.41,35.15-1.1,0-2.27,0-3.6,0-1.52,0-3,0-4.57,0l-1.78,0a38.42,38.42,0,0,1-38-33.58c0-.19-.05-.38-.08-.58s-.1-.68-.13-1c-.15-1.79-.46-5.53-4.45-5.53h-.38c-4.56.26-4.39,4.37-4.31,6.34.38,9.23,4.3,18.64,11,26.5A46.06,46.06,0,0,0,406.78,328a86,86,0,0,0,17.46,2c11.93,0,22-3.22,30.77-9.85,11.94-9,18.39-20.68,19.18-34.64,1-17.22,1.72-34.75,2.44-51.69q.48-11.36,1-22.72c.06-1.27.15-2.56.26-3.92L478,206h4.49c0,.07,0,.14,0,.21,0,.92,0,1.78,0,2.65q-1.62,35.67-3.25,71.35l-2.28,50c-.48,10.58-7.44,17.46-17.74,17.52-12.07.07-24.39.1-36.64.1s-24.63,0-37-.1c-10.2-.06-16.87-6.33-17.42-16.38-1.1-20-2-40.43-2.88-60.15q-.48-10.86-1-21.73c-.64-13.93-1.26-28.12-1.79-40.32,0-.88,0-1.76,0-2.77v-.47h4.37l.52,11.38c.44,9.52.87,19,1.3,28.4.39,8.68.71,16.29,1,23.27.15,3.83,1.69,5.78,4.59,5.78h0a4.34,4.34,0,0,0,3.26-1.24c1.25-1.32,1.33-3.36,1.25-5-.88-19.07-1.76-38.51-2.62-57.78-.06-1.25,0-2.52,0-3.87,0-.32,0-.64,0-1Z"/><path class="cls-1" d="M365.72,118.84c-6-6-11.59-11.57-17.15-17.16-4.22-4.24-4.2-5.36.33-9.3q35.6-31,71.19-62.06c3.07-2.69,5.24-2.49,8.08.39q19.85,20.17,40,40c3.07,3,3.11,5.29.36,8.42q-22.82,25.91-45.46,52c-5.75,6.58-11.44,13.21-17.23,19.75-3.11,3.52-4.52,3.54-7.83.26-5.81-5.75-11.56-11.54-17.68-17.66-1.3,1.15-2.44,2.07-3.47,3.09Q351.41,162,326,187.5a39.1,39.1,0,0,0-6.08,8.31c-4.48,8-8.78,16-13,24.18-1.58,3.07-3.69,4-7,3.65a27.88,27.88,0,0,1-24.63-24.85c-.31-3.22.65-5.38,3.61-6.66.76-.33,1.43-.86,2.19-1.18,19-8.18,34.78-20.68,48.67-36,10.25-11.28,21.47-21.67,32.26-32.46Zm96.81-43.43a17.44,17.44,0,0,0-1.42-2c-11.65-11.68-23.35-23.29-34.93-35-2.13-2.16-3.42-1.2-5.15.32q-31.76,27.76-63.58,55.46c-1,.88-1.91,1.9-3,3l47.66,47.66ZM312.24,186.92c-1.81-3.09-3.93-2.87-6.84-1.18-6.7,3.88-13.58,7.48-20.49,11-2.38,1.21-2.77,2.69-2,5a21.06,21.06,0,0,0,14.31,14.4c2.54.84,4,.27,5.27-2.24q5.25-10.37,11-20.47C315,190.69,315.22,188.61,312.24,186.92Zm58.28-63-55.45,55.45,4.47,4.47L375,128.41Z"/><path class="cls-1" d="M424,28.43c1.35,0,2.66.77,4.16,2.29q19.85,20.17,40,40c3.07,3,3.11,5.29.36,8.42q-22.82,25.91-45.46,52c-5.75,6.58-11.44,13.21-17.23,19.75-1.59,1.79-2.73,2.68-3.91,2.68s-2.3-.82-3.92-2.42c-5.81-5.75-11.56-11.55-17.68-17.66-1.3,1.15-2.44,2.07-3.47,3.09Q351.41,162,326,187.5a39.11,39.11,0,0,0-6.08,8.31c-4.48,8-8.78,16-13,24.18-1.37,2.67-3.14,3.72-5.78,3.72a12,12,0,0,1-1.25-.07,27.88,27.88,0,0,1-24.63-24.85c-.31-3.22.65-5.38,3.61-6.66.76-.33,1.43-.86,2.19-1.18,19-8.18,34.78-20.68,48.67-36,10.25-11.28,21.47-21.67,32.26-32.46l3.66-3.66c-6-6-11.59-11.57-17.15-17.16-4.22-4.24-4.2-5.36.33-9.3q35.6-31,71.19-62.06a6.17,6.17,0,0,1,3.92-1.9m-21.92,116.4,60.44-69.42a17.48,17.48,0,0,0-1.42-2c-11.65-11.68-23.35-23.29-34.93-35a3.38,3.38,0,0,0-2.32-1.26c-1,0-1.82.69-2.83,1.58q-31.76,27.76-63.58,55.46c-1,.88-1.91,1.9-3,3l47.66,47.66m-82.54,39L375,128.41l-4.47-4.47-55.45,55.45,4.47,4.47m-20.45,32.65c1.44,0,2.44-.8,3.35-2.6q5.25-10.37,11-20.47c1.57-2.75,1.75-4.83-1.23-6.53-1-1.7-2.09-2.4-3.36-2.4a7.32,7.32,0,0,0-3.48,1.22c-6.7,3.88-13.58,7.48-20.49,11-2.38,1.21-2.77,2.69-2,5a21.06,21.06,0,0,0,14.31,14.4,6.19,6.19,0,0,0,1.91.36M424,27.32h0a7.15,7.15,0,0,0-4.65,2.17C402.84,43.95,386,58.6,369.73,72.77L348.16,91.55c-2.43,2.12-3.76,3.6-3.83,5.33s1.16,3.3,3.44,5.58c3.87,3.88,7.75,7.76,11.77,11.77l4.6,4.6-1.42,1.42-1.46,1.46c-3.32,3.32-6.74,6.66-10,9.89-7.44,7.27-15.14,14.78-22.25,22.61-15,16.52-30.8,28.2-48.29,35.71a10.48,10.48,0,0,0-1.24.66,8.93,8.93,0,0,1-1,.52c-3.29,1.43-4.64,3.91-4.27,7.79a28.84,28.84,0,0,0,25.62,25.84,13.19,13.19,0,0,0,1.37.08c3.15,0,5.23-1.33,6.77-4.32,4.54-8.84,8.77-16.74,12.94-24.14a37.89,37.89,0,0,1,5.9-8.07c13.82-14,28-28.09,41.64-41.74l9.21-9.2c.66-.66,1.4-1.29,2.17-2l.46-.4,4.7,4.71c4.21,4.22,8.19,8.2,12.25,12.22,1.66,1.65,3.1,2.74,4.7,2.74s3.12-1.22,4.74-3.05c3.77-4.26,7.57-8.63,11.24-12.86l6-6.9L434.25,120c11.49-13.18,23.38-26.8,35.13-40.15,3.16-3.59,3-6.56-.42-9.94-12.55-12.31-25.64-25.39-40-40-1.76-1.79-3.33-2.62-4.95-2.62ZM356,97.16l.27-.27c.65-.68,1.27-1.32,1.92-1.88l23.42-20.42q20.09-17.51,40.17-35c.82-.71,1.54-1.3,2.1-1.3a2.5,2.5,0,0,1,1.53.93c8,8.09,16.13,16.25,24,24.14l10.91,10.91a6.44,6.44,0,0,1,.71,1l.1.15L402,143.21l-46-46Zm-39.34,82.22,53.88-53.88,2.9,2.9L346.53,155.3l-27,27-2.9-2.9Zm-17.54,36a5.11,5.11,0,0,1-1.57-.31,19.91,19.91,0,0,1-13.6-13.69c-.62-2-.29-2.79,1.48-3.69,5.72-2.91,13.23-6.79,20.54-11a6.29,6.29,0,0,1,2.93-1.07c.61,0,1.44.21,2.4,1.85a1.1,1.1,0,0,0,.41.4,3.25,3.25,0,0,1,1.72,1.78c.21.76-.08,1.79-.9,3.24-3.84,6.74-7.56,13.64-11,20.51-.84,1.65-1.55,2-2.37,2Z"/></svg>