<svg id="Слой_1" data-name="Слой 1" xmlns="http://www.w3.org/2000/svg" viewBox="0 0 512 512"><defs><style>.cls-1{fill:#00c5c5;}</style></defs><title>иконки для подкатегорий</title><path class="cls-1" d="M318.32,115.75a6.88,6.88,0,0,0-9.73,0l-6.49,6.48a6.88,6.88,0,0,0,9.73,9.73l6.48-6.48A6.88,6.88,0,0,0,318.32,115.75Z"/><path class="cls-1" d="M368.89,189l6.49-6.48a6.88,6.88,0,1,0-9.73-9.73l-6.48,6.48a6.88,6.88,0,1,0,9.73,9.73Z"/><path class="cls-1" d="M320.26,142a23.2,23.2,0,0,0,29.52,29.52,6.88,6.88,0,1,0-4.58-13,9.44,9.44,0,0,1-12-12,6.88,6.88,0,0,0-13-4.58Z"/><path class="cls-1" d="M458.39,73.79,417.33,32.74a34.35,34.35,0,0,0-45.18-3c-10.62,8.14-21.25,16.56-31.61,25a6.88,6.88,0,1,0,8.7,10.65C359.5,57,370,48.69,380.52,40.63A20.32,20.32,0,0,1,393,36.41a20.55,20.55,0,0,1,14.62,6.06l41.06,41.06a20.54,20.54,0,0,1,6.06,14.62,20.32,20.32,0,0,1-4.22,12.46,1311.12,1311.12,0,0,1-103.28,119,6.87,6.87,0,0,1-9.77,0l-76-76a6.87,6.87,0,0,1,0-9.77c21.48-21,43.93-41.55,66.73-61a6.88,6.88,0,1,0-8.92-10.47c-23,19.64-45.73,40.38-67.44,61.63a20.62,20.62,0,0,0-.14,29.33l23.4,23.4-52.63,52.63a25.57,25.57,0,0,0-8.59,3.35c-3.74,2.29-7.54,4.74-11.36,7.29-10.36-16.77-28.69-26.89-49.57-26.89-23.51,0-50.29,14.25-57.13,46.08-3.11,14.46-5.88,29.43-8.25,44.54a102.53,102.53,0,0,0-37.76,79.78v91.7a6.88,6.88,0,0,0,6.88,6.88H249.31a6.88,6.88,0,0,0,6.88-6.88v-91.7a102.48,102.48,0,0,0-35.36-77.75,344,344,0,0,0,27.51-38.62,25.62,25.62,0,0,0,3.36-8.59L304.32,216l23.4,23.4a20.62,20.62,0,0,0,29.33-.14A1324.45,1324.45,0,0,0,461.41,119a34.34,34.34,0,0,0-3-45.18Zm-216,319.79v84.82H63.61V393.59a88.77,88.77,0,0,1,20.79-57.35,893.47,893.47,0,0,0-7,91.43c0,.2,0,.39,0,.59a22.4,22.4,0,0,0,13.42,20.53A164.79,164.79,0,0,0,114.21,457a6.88,6.88,0,0,0,3.55-13.29,150.31,150.31,0,0,1-21.45-7.53A8.64,8.64,0,0,1,91.13,428a872.41,872.41,0,0,1,9.67-109.47c2.41-15.74,5.28-31.34,8.51-46.39,5.59-26,27-35.22,43.69-35.22,16.26,0,30.46,7.93,38.25,21-5.18,3.77-10.32,7.71-15.32,11.76a20.66,20.66,0,0,0-1.63,30.66l16.44,16.44a20.53,20.53,0,0,0,15.15,6c5.76,38.89,8.7,80.46,9,105.39a8.65,8.65,0,0,1-5.18,7.92c-21.58,9.44-43.92,13.46-66.18,11.88a6.88,6.88,0,1,0-1,13.72c24.53,1.74,49-2.67,72.67-13a22.41,22.41,0,0,0,13.42-21.11,894.15,894.15,0,0,0-7-91.44A88.79,88.79,0,0,1,242.43,393.59ZM236.6,270a341.91,341.91,0,0,1-25.9,36.51,6.9,6.9,0,0,1-10.24.56L184,290.66a6.89,6.89,0,0,1,.56-10.23c6.33-5.12,12.86-10,19.43-14.67l0,0c5.73-4,11.47-7.8,17.05-11.21A11.27,11.27,0,0,1,236.6,270ZM248.9,252a25.88,25.88,0,0,0-9.73-9.73l45.69-45.69,9.73,9.73Z"/></svg>