<svg id="Слой_1" data-name="Слой 1" xmlns="http://www.w3.org/2000/svg" viewBox="0 0 512 512"><defs><style>.cls-1{fill:#00c5c5;}</style></defs><title>иконки для подкатегорий</title><g id="_033---Nail-Polish" data-name="033---Nail-Polish"><path id="Shape" class="cls-1" d="M28.71,306.46,55.32,449.72A36.43,36.43,0,0,0,90,477H181.4a36.36,36.36,0,0,0,35.16-29.44l22-142.17a37.19,37.19,0,0,0-35.07-46.15H192.67V199.21a60.07,60.07,0,1,0-120.14,0v60.07h-9a37.23,37.23,0,0,0-34.8,47.17ZM87.54,199.21a45.05,45.05,0,0,1,90.11,0v60.07H155.12v-15a7.51,7.51,0,1,0-15,0v15h-15v-15a7.51,7.51,0,0,0-15,0v15H87.54Zm-24,75.09h140a22.23,22.23,0,0,1,20.32,28.33l-22,142.17A21.3,21.3,0,0,1,181.4,462H170.14V447a7.51,7.51,0,1,0-15,0v15h-15V447a7.51,7.51,0,1,0-15,0v15h-15V447a7.51,7.51,0,1,0-15,0v15H90a21.22,21.22,0,0,1-20-15.64L43.34,303.12a22.26,22.26,0,0,1,20.17-28.81Z"/><path id="Shape-2" data-name="Shape" class="cls-1" d="M448,197V169.18a30,30,0,0,0-30-30h-30a30,30,0,0,0-30,30V197a52.33,52.33,0,0,0-30,47.31V454.52A22.53,22.53,0,0,0,350.36,477H455.48A22.53,22.53,0,0,0,478,454.52V244.27A52.33,52.33,0,0,0,448,197Zm-75.09-27.78a15,15,0,0,1,15-15h30a15,15,0,0,1,15,15V281.81a30,30,0,0,1-60.07,0ZM463,454.52a7.51,7.51,0,0,1-7.51,7.51H350.36a7.51,7.51,0,0,1-7.51-7.51V244.27a37.47,37.47,0,0,1,15-30v67.58a45.05,45.05,0,0,0,90.11,0V214.23a37.47,37.47,0,0,1,15,30Z"/><path id="Shape-3" data-name="Shape" class="cls-1" d="M395.41,191.71a7.51,7.51,0,0,0,7.51-7.51v-7.51a7.51,7.51,0,0,0-15,0v7.51A7.51,7.51,0,0,0,395.41,191.71Z"/><path id="Shape-4" data-name="Shape" class="cls-1" d="M395.41,289.32a7.51,7.51,0,0,0,7.51-7.51V214.23a7.51,7.51,0,0,0-15,0v67.58A7.51,7.51,0,0,0,395.41,289.32Z"/><path id="Shape-5" data-name="Shape" class="cls-1" d="M433,356.9H372.88a7.51,7.51,0,0,0,0,15H433a7.51,7.51,0,1,0,0-15Z"/><path id="Shape-6" data-name="Shape" class="cls-1" d="M433,394.45H372.88a7.51,7.51,0,0,0,0,15H433a7.51,7.51,0,1,0,0-15Z"/><path id="Shape-7" data-name="Shape" class="cls-1" d="M275.27,26.51a45.1,45.1,0,0,0-45.05,45.05V191.71a22.53,22.53,0,0,0,22.53,22.53V375.86a15,15,0,0,0-8.21,12c-2.12,24.25-4.21,47.22-6.26,68.33a15.1,15.1,0,0,0,9.54,15.5,72.93,72.93,0,0,0,54.89,0,15.1,15.1,0,0,0,9.54-15.49c-2-21.09-4.14-44.06-6.26-68.33a15,15,0,0,0-8.21-12V214.23a22.53,22.53,0,0,0,22.53-22.53V71.56a45.1,45.1,0,0,0-45.05-45.05Zm-22,431.17c2.06-21.12,4.14-44.11,6.34-68.58a57.15,57.15,0,0,1,31.48.1c2.12,24.31,4.21,47.31,6,68.57a58,58,0,0,1-43.82-.09Zm29.56-85.24a72.75,72.75,0,0,0-15,0V214.23h15Zm15-173.23H252.74a7.51,7.51,0,0,1-7.51-7.51V71.56a30,30,0,0,1,60.07,0v7.51h-15a7.51,7.51,0,1,0,0,15h15v15h-15a7.51,7.51,0,1,0,0,15h15v15h-15a7.51,7.51,0,1,0,0,15h15v15h-15a7.51,7.51,0,1,0,0,15h15v7.51A7.51,7.51,0,0,1,297.79,199.21Z"/><path id="Shape-8" data-name="Shape" class="cls-1" d="M125.14,408.87a45.05,45.05,0,0,0,52.51-44.45,77.73,77.73,0,0,0-36.91-63.93,15,15,0,0,0-16.4.06,79.12,79.12,0,0,0-36.55,57.86,45.9,45.9,0,0,0,37.35,50.46Zm7.39-95.82a62.91,62.91,0,0,1,30.1,51.36,30.13,30.13,0,1,1-59.88-4.76A64.53,64.53,0,0,1,132.53,313.05Z"/></g></svg>