<svg id="Слой_1" data-name="Слой 1" xmlns="http://www.w3.org/2000/svg" viewBox="0 0 512 512"><defs><style>.cls-1{fill:#00c5c5;}</style></defs><title>иконки для подкатегорий</title><path class="cls-1" d="M223.24,254.6a8.18,8.18,0,1,0,2.39,5.77A8.25,8.25,0,0,0,223.24,254.6Z"/><path class="cls-1" d="M449.62,195.42A74.76,74.76,0,0,0,426.14,180,163.73,163.73,0,0,0,380,90.17c-64.33-64.33-169-64.33-233.33,0a164.63,164.63,0,0,0-42.51,73.16,24.56,24.56,0,0,0-25.42,24.51v64.47a16.35,16.35,0,0,0-9.8,15v36a16.36,16.36,0,0,0-14.7,16.25v116A24.53,24.53,0,0,0,78.75,460h75.14a24.53,24.53,0,0,0,24.5-24.5v-87.2A162.9,162.9,0,0,0,238.84,370V411h-3.95A40.94,40.94,0,0,0,194,451.87a8.17,8.17,0,0,0,8.17,8.17H324.51a8.17,8.17,0,0,0,8.17-8.17A40.94,40.94,0,0,0,291.79,411h-3.94V370a162.89,162.89,0,0,0,64-23.87v81.62A32.31,32.31,0,0,0,384.08,460h24.1a32.31,32.31,0,0,0,32.27-32.27v-96.2l24.28-49.28A74.61,74.61,0,0,0,449.62,195.42ZM95.08,187.84a8.17,8.17,0,0,1,12-7.2l26.14,14a8.15,8.15,0,0,1,4.31,7.2v49.1H95.08Zm-9.8,79.44h62.08v35.94H85.28Zm76.78,168.26a8.18,8.18,0,0,1-8.17,8.17H78.75a8.18,8.18,0,0,1-8.17-8.17v-116h91.48v116Zm129.73-8.22a24.6,24.6,0,0,1,23.16,16.39H211.73a24.6,24.6,0,0,1,23.16-16.39h56.9ZM255.17,411V371.63c2.69.13,5.4.2,8.11.2h2.24c2,0,4-.09,6-.19V411H255.17Zm-76.78-82.13v-9.3a16.36,16.36,0,0,0-14.7-16.25v-36a16.35,16.35,0,0,0-9.8-15V201.85A24.46,24.46,0,0,0,141,180.25l-21.35-11.44a148.29,148.29,0,0,1,38.61-67.09c58-58,152.27-58,210.23,0a147.47,147.47,0,0,1,40.15,73.46,74.87,74.87,0,0,0-23.45.24,125.8,125.8,0,0,0-229.74-33.24,8.17,8.17,0,0,0,14,8.41,109.35,109.35,0,0,1,124.28-48.89L233.43,162A8.17,8.17,0,1,0,245,173.54l65.44-65.44a110.51,110.51,0,0,1,28.29,19.48l-105,105a8.17,8.17,0,1,0,11.55,11.55l104.4-104.4a108.48,108.48,0,0,1,19.73,40.17,74.74,74.74,0,0,0-23.86,15.57l-.93.9a74.91,74.91,0,0,0-15.93,85.15l4.45,9.65A109.49,109.49,0,0,1,204,298.85a8.17,8.17,0,1,0-8.86,13.72,125.82,125.82,0,0,0,145.05-6.18l9.8,21.24C299.43,364,229.59,364.57,178.39,328.86Zm245.72,98.92a16,16,0,0,1-15.94,15.94h-24.1a16,16,0,0,1-15.94-15.94V376.62h56v51.15Zm0-67.49h-56v-22.6h56Zm26-85.21-22.81,46.28h-4.19V287.81a8.17,8.17,0,1,0-16.34,0v33.54H365.12l-21.56-46.73A58.56,58.56,0,0,1,356,208.06l.93-.9a58.5,58.5,0,0,1,93.14,67.91Z"/><path class="cls-1" d="M420.69,254.6a8.16,8.16,0,1,0,2.39,5.77A8.23,8.23,0,0,0,420.69,254.6Z"/></svg>