<svg id="Слой_1" data-name="Слой 1" xmlns="http://www.w3.org/2000/svg" viewBox="0 0 512 512"><defs><style>.cls-1{fill:#00c5c5;}</style></defs><title>иконки для подкатегорий</title><path class="cls-1" d="M117.8,150.51,89.28,230.38a37.25,37.25,0,0,0-2.18,12.56v113L42.76,474.15a7.47,7.47,0,0,0,7,10.09h112a7.47,7.47,0,0,0,7.24-5.66l17-68v0c3.51,41.27,38.73,73.61,80.19,73.61,41.61,0,76.84-32.51,80.19-74l0-.57,17.23,68.94a7.47,7.47,0,0,0,7.25,5.66H483a7.47,7.47,0,0,0,7-10.09L445.61,355.92v-113a37.25,37.25,0,0,0-2.18-12.56l-28.52-79.86a37.41,37.41,0,0,0-35.17-24.79H369.13l1.79-22.41V66A29.86,29.86,0,0,0,319.69,45.1a26.1,26.1,0,0,0-36.82-2.63q-.82.71-1.58,1.48a26.13,26.13,0,0,0-43.55,10.25A26.13,26.13,0,0,0,200.4,69.15a26.13,26.13,0,0,0-38.61,23l0,33.61H153a37.42,37.42,0,0,0-35.17,24.79Zm250.14-9.85h11.8a22.47,22.47,0,0,1,21.11,14.87l28.52,79.87a22.33,22.33,0,0,1,1.31,7.53V357.27a7.49,7.49,0,0,0,.47,2.62l41,109.41H376.75L348.09,354.78l-43.5-123.24a15.59,15.59,0,0,1-.89-5.2V223.5a15.61,15.61,0,0,1,29.58-7l45.9,91.81,13.36-6.68L360.24,237ZM176.73,92.12a11.2,11.2,0,1,1,22.41,0v18.67h14.94V77.18a11.2,11.2,0,0,1,22.41,0v26.14h14.94V62.24a11.2,11.2,0,0,1,22.41,0V95.85h14.94V62.24a11.2,11.2,0,0,1,22.41,0V95.85h14.94V66A14.94,14.94,0,1,1,356,66l0,36.75-8.68,108.47-.68-1.36a30.55,30.55,0,0,0-57.88,13.67v2.84a30.59,30.59,0,0,0,1.74,10.17l43.3,122.57,1.27,5.09L331.51,409a65.88,65.88,0,0,1-65.3,60.28c-33.76,0-62.45-26.33-65.31-59.94l-3.71-43.52,1.52-6.09,43.5-123.25a30.51,30.51,0,0,0,1.74-10.16V223.5a30.55,30.55,0,0,0-57.88-13.67l-1.85,3.71-7.49-87.81Zm-5.31,147-31.25,62.5,13.36,6.68,45.9-91.81a15.61,15.61,0,0,1,29.58,7v2.84a15.52,15.52,0,0,1-.89,5.19l-43.7,123.92L156,469.31H60.53l41-109.41a7.49,7.49,0,0,0,.47-2.62V242.94a22.34,22.34,0,0,1,1.31-7.53l28.52-79.87A22.47,22.47,0,0,1,153,140.67H163Z"/><path class="cls-1" d="M251.16,201.21l.79,2,13.87-5.56-.8-2a53.24,53.24,0,0,0-59.89-32.44l2.93,14.65a38.31,38.31,0,0,1,43.09,23.35Z"/><path class="cls-1" d="M258.89,229.56A67.06,67.06,0,0,0,284.28,296l9-12a52,52,0,0,1-19.71-51.58l.15-.73L259,228.82Z"/></svg>