<svg id="Слой_1" data-name="Слой 1" xmlns="http://www.w3.org/2000/svg" viewBox="0 0 512 512"><defs><style>.cls-1{fill:#00c5c5;}</style></defs><title>иконки для подкатегорий</title><path class="cls-1" d="M312.48,425.15H201.85a7.9,7.9,0,0,0,0,15.8H312.48a7.9,7.9,0,0,0,0-15.8Z"/><path class="cls-1" d="M312.48,393.54H201.85a7.9,7.9,0,0,0,0,15.8H312.48a7.9,7.9,0,1,0,0-15.8Z"/><path class="cls-1" d="M340.92,180.2l-1.58-1.58h-.4c-8.86-74.41-27.63-114.69-43.85-136.7-9.48-11.85-23.7-19.75-39.51-19-15.8,0-30,7.11-38.72,19.75C201.2,63.6,183.4,103.66,175,178.55l-.85.85a93,93,0,0,0-43.46,79V385.64A102.52,102.52,0,0,0,233.46,488.36h47.41A102.52,102.52,0,0,0,383.59,385.64V258.42C383.59,226,367.79,196.79,340.92,180.2Zm-112.2-128a32.25,32.25,0,0,1,26.87-13.43A33.34,33.34,0,0,1,281.66,51.4C299.86,75,320.94,123.35,326.74,220c1,17.11,1.54,35.24,1.54,54.23v7.11a56.65,56.65,0,0,1-56.89,56.89H242.94A56.65,56.65,0,0,1,186,281.34v-7.11c0-30.58,1.48-58.94,3.73-85.08C197.19,112.14,214.32,72.59,228.72,52.19ZM367.79,385.64a86.67,86.67,0,0,1-86.92,86.92H233.46a86.67,86.67,0,0,1-86.92-86.92V258.42c0-22.91,9.48-44.25,26.08-58.47-1.58,22.91-2.37,47.41-2.37,74.28v7.11a72.5,72.5,0,0,0,72.7,72.7h28.45a72.5,72.5,0,0,0,72.7-72.7v-7.11c0-19.65-.45-38.85-1.69-56.92q-.55-8.84-1.27-17.17c17.25,14.22,26.66,35.47,26.66,58.3V385.64Z"/></svg>