<svg id="Слой_1" data-name="Слой 1" xmlns="http://www.w3.org/2000/svg" viewBox="0 0 512 512"><defs><style>.cls-1{fill:#00c5c5;}</style></defs><title>иконки для подкатегорий</title><path class="cls-1" d="M444.68,423.19c-7.28-39.43-18.81-75.25-34.29-106.48-12.46-25.14-27.49-47.38-44.68-66.1-19-20.74-36.5-32.56-46.86-38.49,36.59-57.28,37.67-109.18,37.67-109.72,0-12.56-6.29-23.84-16.23-31.55V34.21a9,9,0,0,0-18,0V62.08a53.5,53.5,0,0,0-13.44-1.71c-17.25,0-32.55,8.19-40.93,20.48C259.51,68.56,244.21,60.37,227,60.37a53.51,53.51,0,0,0-13.48,1.72V34.21a9,9,0,0,0-18,0V70.89c-9.91,7.71-16.18,19-16.18,31.51,0,.53,1.07,52.49,37.72,109.81-10.37,6-27.75,17.76-46.7,38.4-17.19,18.72-32.22,41-44.68,66.1-15.48,31.22-27,67-34.29,106.48a26,26,0,0,0,16.58,29.15l30.88,11.4q4.33,1.6,8.68,3.07l.29.1a373,373,0,0,0,80.54,17.77,9.06,9.06,0,0,0,1.33.13,372.79,372.79,0,0,0,167.61-21.07l30.88-11.4A26,26,0,0,0,444.68,423.19ZM197.3,102.41c0-7.66,4.46-14.49,11.39-18.89a8.92,8.92,0,0,0,.91-.55A34.39,34.39,0,0,1,227,78.4c15.64,0,28.64,9.89,29.61,22.51a11.36,11.36,0,0,0,22.65,0c1-12.62,14-22.51,29.61-22.51A34.44,34.44,0,0,1,326,82.84a9,9,0,0,0,1.27.78c6.84,4.4,11.24,11.18,11.24,18.78,0,.5-2,51-37.52,104.14l-1.35,2A72.78,72.78,0,0,1,278,215.09a80.36,80.36,0,0,0,5.7-8.56A67.73,67.73,0,0,0,290,191.79a9,9,0,1,0-17.31-5.06,56.32,56.32,0,0,1-11,19.79,54.21,54.21,0,0,1-5.48,5.75,9,9,0,0,0-1.9,2.25,72.73,72.73,0,0,1-18.21-6l-1.34-2C199.34,153.37,197.3,102.89,197.3,102.41Zm224.57,333L391,446.82c-1.46.54-2.93,1-4.4,1.57-4.5-19.3-17.54-68.46-41.22-106.48a9,9,0,1,0-15.31,9.53C352.74,387.86,365.43,437,369.36,454a355.52,355.52,0,0,1-130.53,13.55c.36-9.34,2.27-26.06,10.45-42.76a9,9,0,1,0-16.19-7.94c-9.21,18.79-11.67,37.44-12.22,48.76a354.88,354.88,0,0,1-60.17-13.45c4.47-25.52,22-110.84,63.69-158.66a9,9,0,0,0-13.59-11.85c-43.64,50.08-62,134.5-67.38,164.55l-29.27-10.8a8,8,0,0,1-5.09-9c15.63-84.67,48.71-135.25,73.72-162.77,20.89-23,39.77-34.17,47.35-38.1a90.86,90.86,0,0,0,75.68-.06C323,234.4,400.23,281.67,427,426.47A8,8,0,0,1,421.86,435.42Z"/><path class="cls-1" d="M323,312.61a9.13,9.13,0,0,0-.51-1.69,9,9,0,0,0-.83-1.56,8.63,8.63,0,0,0-1.12-1.37,9.09,9.09,0,0,0-8.13-2.47,9.43,9.43,0,0,0-1.7.52,9.15,9.15,0,0,0-1.55.83,8.63,8.63,0,0,0-1.37,1.12,9.21,9.21,0,0,0-1.13,1.37,8.9,8.9,0,0,0-.83,1.56,9.08,9.08,0,0,0-.51,1.69,9.1,9.1,0,0,0,0,3.52,9.09,9.09,0,0,0,.52,1.69,9.5,9.5,0,0,0,.82,1.56,9.14,9.14,0,0,0,2.5,2.5,9.79,9.79,0,0,0,1.55.82,8.72,8.72,0,0,0,1.7.51,8.7,8.7,0,0,0,3.52,0,8.43,8.43,0,0,0,1.69-.51,9.57,9.57,0,0,0,1.56-.82,9.21,9.21,0,0,0,1.37-1.13,8.63,8.63,0,0,0,1.12-1.37,9,9,0,0,0,.83-1.56,9.17,9.17,0,0,0,.51-1.69,8.7,8.7,0,0,0,0-3.52Z"/><path class="cls-1" d="M299.31,161.51a9.54,9.54,0,0,0-.51-1.69,9.21,9.21,0,0,0-.83-1.55,8.63,8.63,0,0,0-1.12-1.37,9.11,9.11,0,0,0-8.14-2.47,9.54,9.54,0,0,0-1.69.51,9,9,0,0,0-4.88,4.88,9.54,9.54,0,0,0-.51,1.69,9,9,0,0,0-.17,1.77,8.93,8.93,0,0,0,.17,1.76,9.1,9.1,0,0,0,.51,1.69,9.29,9.29,0,0,0,.83,1.56,9.69,9.69,0,0,0,1.13,1.37,8.64,8.64,0,0,0,1.37,1.12,9.21,9.21,0,0,0,1.55.83,9.62,9.62,0,0,0,1.69.51,9,9,0,0,0,1.77.18,8.87,8.87,0,0,0,1.76-.18,9.17,9.17,0,0,0,1.69-.51,9,9,0,0,0,1.56-.83,8.59,8.59,0,0,0,1.37-1.12,9,9,0,0,0,1.12-1.37,9.33,9.33,0,0,0,.83-1.56,9.06,9.06,0,0,0,.51-1.69,8.88,8.88,0,0,0,.18-1.76A9,9,0,0,0,299.31,161.51Z"/></svg>