<svg id="Слой_1" data-name="Слой 1" xmlns="http://www.w3.org/2000/svg" viewBox="0 0 512 512"><defs><style>.cls-1{fill:#00c5c5;}</style></defs><title>иконки для подкатегорий</title><path class="cls-1" d="M133.08,268.08a194.43,194.43,0,0,1,25.57-96.29A207.64,207.64,0,0,0,186,68.93v-26H172.75v26a194.43,194.43,0,0,1-25.57,96.29,207.64,207.64,0,0,0-27.32,102.85,759.29,759.29,0,0,0,11.52,131.54l8.42,47.69,13-2.3-8.42-47.69A746.37,746.37,0,0,1,133.08,268.08Z"/><path class="cls-1" d="M396.65,165.23a194.46,194.46,0,0,1-25.57-96.29v-26H357.86v26a207.68,207.68,0,0,0,27.32,102.86,194.42,194.42,0,0,1,25.57,96.29,746.61,746.61,0,0,1-11.31,129.24L391,445l13,2.3,8.42-47.69A759.37,759.37,0,0,0,424,268.08a207.64,207.64,0,0,0-27.32-102.85Z"/><path class="cls-1" d="M355.63,301.06a59.75,59.75,0,0,1-26.6,6.28h-3.29a59.13,59.13,0,0,1-42.07-17.43l-5.15-5.14V208.17H265.3v76.59l-5.14,5.14a59.13,59.13,0,0,1-42.07,17.43H214.8a59.73,59.73,0,0,1-26.6-6.28l-25.71-12.85L156.57,300l25.71,12.85a73.08,73.08,0,0,0,32.52,7.68h3.29a72.33,72.33,0,0,0,33.77-8.3,789.62,789.62,0,0,1-10.47,118.26L239,445.08l13,2.17,2.43-14.57a802.72,802.72,0,0,0,10.84-129.56c1.45-1.24,2.89-2.49,4.25-3.85l2.41-2.41,2.41,2.41c1.36,1.36,2.8,2.61,4.24,3.85a802.33,802.33,0,0,0,10.84,129.57l2.43,14.57,13-2.17-2.43-14.57A789.79,789.79,0,0,1,292,312.26a72.3,72.3,0,0,0,33.76,8.3H329a73.08,73.08,0,0,0,32.52-7.68L387.26,300l-5.92-11.83Z"/><path class="cls-1" d="M265.3,195h13.22a39.71,39.71,0,0,1,39.67-39.67h13.22V142.06H318.19a52.92,52.92,0,0,0-46.28,27.34,52.92,52.92,0,0,0-46.28-27.34H212.42v13.22h13.22A39.71,39.71,0,0,1,265.3,195Z"/><path class="cls-1" d="M219.71,361.52l-20.94-20.94a3.41,3.41,0,0,0-4.82,0L173,361.52a3.41,3.41,0,0,0,4.82,4.82l15.5-15.5v74.59a3,3,0,1,0,6.05,0V350.84l15.5,15.5a3.41,3.41,0,0,0,4.82-4.82Z"/><path class="cls-1" d="M372.73,361.52l-20.94-20.94a3.41,3.41,0,0,0-4.82,0L326,361.52a3.41,3.41,0,0,0,4.82,4.82l15.5-15.5v74.59a3,3,0,1,0,6.05,0V350.84l15.5,15.5a3.41,3.41,0,0,0,4.82-4.82Z"/></svg>