<svg id="Слой_1" data-name="Слой 1" xmlns="http://www.w3.org/2000/svg" viewBox="0 0 512 512"><defs><style>.cls-1{fill:#00c5c5;}</style></defs><title>иконки для подкатегорий</title><path class="cls-1" d="M109.35,494.24a7.22,7.22,0,0,0,7.23-7.23V313.53a93.64,93.64,0,0,1,21.68-59.84v88.76c0,.16.09.3.1.46a72.2,72.2,0,0,0,144.39,0c0-.16.1-.3.1-.46V253.69a93.64,93.64,0,0,1,21.68,59.84V487A7.23,7.23,0,1,0,319,487V313.53a108,108,0,0,0-36.14-80.62V147.28a21.73,21.73,0,0,0-21.69-21.69H159.95a21.71,21.71,0,0,0-21.69,21.69v85.63a108.12,108.12,0,0,0-36.14,80.63V487A7.22,7.22,0,0,0,109.35,494.24Zm101.2-94a57.84,57.84,0,0,1-54.86-39.78,72,72,0,0,0,109.71,0A57.83,57.83,0,0,1,210.55,400.22ZM152.72,147.28a7.23,7.23,0,0,1,7.23-7.23H261.17a7.24,7.24,0,0,1,7.22,7.23v86.65s0,0,0,0a14.46,14.46,0,0,1-28.91,0V212.26a7.23,7.23,0,0,0-14.46,0,14.46,14.46,0,0,1-28.91,0,7.23,7.23,0,0,0-14.46,0v57.88a14.46,14.46,0,0,1-28.91,0s0,0,0,0Zm0,147.76a28.56,28.56,0,0,0,14.46,4,28.94,28.94,0,0,0,28.91-28.91v-33a28,28,0,0,0,29.22-.16,28.86,28.86,0,0,0,28.61,25.89,28.56,28.56,0,0,0,14.46-4v54.38c0,.13-.07.23-.07.35a57.76,57.76,0,0,1-115.53,0c0-.13-.06-.22-.07-.35Z"/><path class="cls-1" d="M391.29,38.85V147.33H376.84V38.85a7.23,7.23,0,1,0-14.46,0V153.59L341,232.18a6.49,6.49,0,0,0-.07.9,7.75,7.75,0,0,0-.19,1,43.37,43.37,0,1,0,86.74,0,7.75,7.75,0,0,0-.19-1,6,6,0,0,0-.07-.9l-21.42-78.6V38.85a7.23,7.23,0,0,0-14.46,0Zm21.61,196a28.85,28.85,0,0,1-57.68,0l19.91-73H393Z"/></svg>