<svg id="Слой_1" data-name="Слой 1" xmlns="http://www.w3.org/2000/svg" viewBox="0 0 512 512"><defs><style>.cls-1{fill:#00c5c5;}</style></defs><title>иконки для подкатегорий</title><path class="cls-1" d="M226.83,299.83a9.24,9.24,0,0,0-13.06,0,24.75,24.75,0,0,1-35,0,9.24,9.24,0,0,0-13.07,13.07,43.25,43.25,0,0,0,61.1,0A9.24,9.24,0,0,0,226.83,299.83Z"/><path class="cls-1" d="M367.88,299.83a9.24,9.24,0,0,0-13.06,0,24.75,24.75,0,0,1-35,0,9.24,9.24,0,0,0-13.07,13.07,43.25,43.25,0,0,0,61.1,0A9.24,9.24,0,0,0,367.88,299.83Z"/><path class="cls-1" d="M463.6,291.59a40,40,0,0,0-35.92-39.69V237.39a160.67,160.67,0,0,0-67.65-131,94.24,94.24,0,0,0-186.21,0,160.67,160.67,0,0,0-67.65,131v14.49A40,40,0,0,0,70,291.59L70,315a40,40,0,0,0,40,40h4.48A208.63,208.63,0,0,0,264.58,499.49a9.24,9.24,0,0,0,4.46,0l.15,0a209.27,209.27,0,0,0,48.49-18.72,9.24,9.24,0,0,0-8.75-16.27A190.76,190.76,0,0,1,266.82,481,190.2,190.2,0,0,1,124.65,296.73V284.94l4-.9A460.44,460.44,0,0,0,277.2,221.2a165,165,0,0,0,130.94,64.56h1.06v10.91a191,191,0,0,1-22.61,90,9.24,9.24,0,1,0,16.28,8.74A208.32,208.32,0,0,0,419.33,355h4.33a40,40,0,0,0,40-40Zm-353.65,45h0A21.49,21.49,0,0,1,88.45,315l0-23.4a21.54,21.54,0,0,1,17.68-21.11v26.22A210.27,210.27,0,0,0,110,336.56h0Zm157-291.33a75.64,75.64,0,0,1,70.39,47.66,160.54,160.54,0,0,0-140.78,0A75.64,75.64,0,0,1,266.92,45.23Zm142.27,218v4h-1.06a146.52,146.52,0,0,1-115.63-56.47q9.59-6.8,18.82-14.08a9.24,9.24,0,1,0-11.46-14.5A441.52,441.52,0,0,1,124.65,266v-28.6c0-78.45,63.82-142.27,142.27-142.27S409.2,158.94,409.2,237.39v25.87Zm29.68,67a21.35,21.35,0,0,1-15.08,6.31,208.88,208.88,0,0,0,3.87-39.88V270.55a21.54,21.54,0,0,1,17.45,21.07l0,23.4A21.35,21.35,0,0,1,438.88,330.25Z"/><path class="cls-1" d="M410,349.42q-3-6-5.39-12.18A190.18,190.18,0,0,1,266.79,481a190.76,190.76,0,0,1-42.12-16.53,9.24,9.24,0,0,0-8.75,16.27,209.29,209.29,0,0,0,48.49,18.72l.15,0a9.25,9.25,0,0,0,4.46,0A208.63,208.63,0,0,0,417.31,361.15,76.86,76.86,0,0,1,410,349.42Z"/><path class="cls-1" d="M337.4,162.15a9.24,9.24,0,0,0-13-.73l-.13.11a9.24,9.24,0,0,0,12.31,13.78l.13-.11A9.24,9.24,0,0,0,337.4,162.15Z"/></svg>