<svg id="Слой_1" data-name="Слой 1" xmlns="http://www.w3.org/2000/svg" viewBox="0 0 512 512"><defs><style>.cls-1{fill:#00c5c5;}</style></defs><title>иконки для подкатегорий</title><path class="cls-1" d="M382.78,138a7,7,0,0,0-7-7H282.41a7,7,0,0,0-7,7V198.2A74.61,74.61,0,0,0,254,250.73v2.16a74.83,74.83,0,0,0-7.46-8.84V183.79a7,7,0,0,0-7-7H146.12a7,7,0,0,0-7,7V244a74.62,74.62,0,0,0-21.46,52.53V470a7,7,0,0,0,14,0h0V296.5a60.8,60.8,0,0,1,7.46-29.28v55a53.69,53.69,0,0,0,107.37,0v-55A60.7,60.7,0,0,1,254,296.5V470a7,7,0,0,0,14,0V250.73a60.8,60.8,0,0,1,7.46-29.28v55a53.69,53.69,0,0,0,107.37,0v-55a60.7,60.7,0,0,1,7.46,29.31V470a7,7,0,0,0,14,0h0V250.73a75.39,75.39,0,0,0-21.46-52.44ZM153.12,229a50.09,50.09,0,0,0,15.53,3.1c14.72.63,25.09,6.72,30.83,18.1a45.43,45.43,0,0,1,4.58,18.4v14.22a21.24,21.24,0,0,0,21.2,21.2,21,21,0,0,0,7.2-1.34,39.68,39.68,0,0,1-79.36-.22Zm79.37-38.25v92.05a7.22,7.22,0,0,1-14.43,0V268.7c0-.48,0-48.45-48.8-50.55a33.57,33.57,0,0,1-16.14-4.64V190.79ZM192.8,361.87a39.6,39.6,0,0,1-32.09-16.43,53.28,53.28,0,0,0,64.18,0,39.62,39.62,0,0,1-32.09,16.43Zm136.3-65.45a39.72,39.72,0,0,1-39.68-39.47,21,21,0,0,0,7.2,1.34,21.24,21.24,0,0,0,21.2-21.2V222.78c0-1.42,0-34.89,35.41-36.4a50.07,50.07,0,0,0,15.53-3.1v73.44a39.73,39.73,0,0,1-39.66,39.69ZM289.41,145h79.37v22.73a33.58,33.58,0,0,1-16.14,4.63c-48.78,2.1-48.8,50.07-48.8,50.48v14.22a7.22,7.22,0,1,1-14.43,0ZM329.09,316.1A39.6,39.6,0,0,1,297,299.67a53.28,53.28,0,0,0,64.17,0,39.62,39.62,0,0,1-32.08,16.43Z"/><path class="cls-1" d="M477.45,57a7,7,0,0,0-5.72-1.53L404.34,67.35H183.77V46a7,7,0,0,0-7-7H90.28a48.33,48.33,0,1,0,0,96.67h86.49a7,7,0,0,0,7-7V107.35H404.34l67.41,11.9a6.92,6.92,0,0,0,1.2.11,7,7,0,0,0,7-7h0v-50A7,7,0,0,0,477.45,57Zm-307.68,64.7H90.28a34.33,34.33,0,1,1,0-68.67h79.49Zm14-40.33H398v12H183.77ZM466,104l-54-9.53V80.23l54-9.53Z"/><path class="cls-1" d="M220.19,402.12c-31.46-11.39-54.54-.16-55.51.32A7,7,0,1,0,170.94,415h0c.18-.09,18.61-9.05,44.49.32a7,7,0,0,0,4.76-13.16Z"/><path class="cls-1" d="M220.19,426.7c-31.46-11.39-54.54-.16-55.51.32a7,7,0,1,0,6.26,12.52h0c.18-.09,18.61-9,44.49.32a7,7,0,1,0,4.87-13.12l-.11,0Z"/><path class="cls-1" d="M356.48,356c-31.46-11.39-54.54-.16-55.51.32a7,7,0,1,0,6.26,12.52c.18-.09,18.61-9,44.49.32a7,7,0,1,0,4.87-13.12l-.11,0Z"/><path class="cls-1" d="M356.48,380.59c-31.46-11.39-54.54-.16-55.51.32a7,7,0,1,0,6.26,12.52h0c.18-.09,18.61-9,44.49.32a7,7,0,1,0,4.87-13.12l-.11,0Z"/></svg>