<svg id="Слой_1" data-name="Слой 1" xmlns="http://www.w3.org/2000/svg" viewBox="0 0 512 512"><defs><style>.cls-1{fill:#00c5c5;}</style></defs><title>иконки для подкатегорий</title><path class="cls-1" d="M327.42,268a6.52,6.52,0,0,0-13,0,6.76,6.76,0,1,1-13.52,0,6.52,6.52,0,0,0-13,0,19.81,19.81,0,1,0,39.62,0Z"/><path class="cls-1" d="M387.9,268a6.52,6.52,0,0,0-13,0,6.76,6.76,0,0,1-13.52,0,6.52,6.52,0,0,0-13,0,19.81,19.81,0,1,0,39.62,0Z"/><path class="cls-1" d="M441.14,418.58l-11.73-5a6.52,6.52,0,1,0-5.11,12l11.73,5a26.07,26.07,0,0,1,15.87,24v15.34H223.78V454.6a26.07,26.07,0,0,1,15.87-24l58.74-25a22,22,0,0,0,13.39-20.26v-3a75.55,75.55,0,0,0,52.11,0v3a22,22,0,0,0,13.39,20.26l19.07,8.12a6.52,6.52,0,1,0,5.11-12l-19.07-8.12a9,9,0,0,1-5.45-8.25v-8.67c24.32-12.15,43.24-30.62,56.34-55.06a169.29,169.29,0,0,0,17-49.87,21.12,21.12,0,0,0,4.88-3.44c18.59-16.79,15.77-69.34,15.38-75.34-2.37-32.16-12.69-49-23.63-66.76-1.2-2-2.41-3.92-3.62-5.93a2,2,0,0,1-.22-1.52l1.35-5a15.06,15.06,0,0,0-1.74-11.77,162.9,162.9,0,0,0-42.9-46.37c-23.35-17-53.31-22.31-80.15-14.29C275.29,54.47,270,91.74,269.5,95.82a48.66,48.66,0,0,0-.53,12.49,79.81,79.81,0,0,0-22.19,10.43C234.72,127,231.45,134,231,147.39c0,0,0,.09,0,.14s0,.13,0,.24c0,1.29-.06,2.64-.05,4.06-5.77-1.41-11.29.82-15.31,6.24-3.31,4.46-9.09,16.2-10.55,44.64a133.69,133.69,0,0,0,2.57,34.6c2.09,9.85,6.32,19,13.32,28.65a11.31,11.31,0,0,0,4.18,3.54,186.27,186.27,0,0,0,7.09,28.37,6.52,6.52,0,0,0,12.36-4.19A172.75,172.75,0,0,1,238,267.32a11.53,11.53,0,0,0,2.93-5.11c5.5-20.33,11.32-35.81,23.3-50.17a103.15,103.15,0,0,1,40-29l.59-.24c5.75-2.35,13.22-5.43,20.09-9.68a208.51,208.51,0,0,0,25.95,12.18c22.6,8.41,53.43,24,71.94,50.57,11,15.75,12.45,28.12,12.46,28.21a6.8,6.8,0,0,0,.13.78,11.72,11.72,0,0,0,2,4.54,156.24,156.24,0,0,1-15.6,46c-13.49,25.17-33.86,43.32-60.52,54a62.94,62.94,0,0,1-46.83,0c-24.89-9.93-44.33-26.44-57.77-49.07a6.52,6.52,0,0,0-11.22,6.66,127,127,0,0,0,53.29,49.65v8.7a9,9,0,0,1-5.45,8.25l-58.75,25a39.09,39.09,0,0,0-23.8,36v21.87a6.53,6.53,0,0,0,6.52,6.52H458.43a6.53,6.53,0,0,0,6.52-6.52V454.6A39.1,39.1,0,0,0,441.14,418.58ZM299.86,170.75l-.59.24a116.23,116.23,0,0,0-45.08,32.68c-13.93,16.68-20.3,35.09-24.88,51.48a58.17,58.17,0,0,1-8.94-20.56,120.72,120.72,0,0,1-2.29-31.22c.9-17.47,4-32.2,8-37.54.82-1.11,1.24-1.37,1.58-1.37a1.25,1.25,0,0,1,.39.09,13.4,13.4,0,0,0,3.31.68c.42,7.92,1.25,17,2.92,23.84a6.53,6.53,0,0,0,6.33,5,6.34,6.34,0,0,0,1.54-.19,6.52,6.52,0,0,0,4.8-7.88C243.71,172.67,244,148,244,147.7c0,0,0-.08,0-.12.34-9.76,2.41-12.78,10.15-18.07a66.6,66.6,0,0,1,17.7-8.44c6.76,18.55,23.66,33.5,40.13,44.3C307.6,167.57,303.23,169.37,299.86,170.75Zm55.54,2.34A203.86,203.86,0,0,1,315,151.58c-24.82-17.4-35.78-35.48-32.57-53.73,0-.16.05-.35.07-.51.11-1.13,2.75-24.26,27-37.81,8.76,13.16,23.81,20.53,38.64,26.93,15.76,6.8,29.32,13.4,35.64,25.29a6.52,6.52,0,1,0,11.52-6.12c-9-16.9-28.06-25.14-42-31.15C340.71,69,328.85,63.31,321.79,54.24c.51-.17,1-.34,1.54-.5a75.23,75.23,0,0,1,21.54-3.12,80.6,80.6,0,0,1,47.2,15.46,150,150,0,0,1,39.47,42.68,2,2,0,0,1,.23,1.54l-1.35,5A15.1,15.1,0,0,0,432.08,127c1.23,2,2.46,4,3.68,6,10.52,17.12,19.6,31.9,21.73,60.83,1.24,19.43-.5,53.21-10.2,63.85C443.71,242.82,427.35,199.87,355.4,173.09Z"/><path class="cls-1" d="M228.19,359.84a12.84,12.84,0,0,0-.68-7.89l8.13-5.08a13.31,13.31,0,0,0,4.22-18.32l-3-4.81,22.38-15.59a6.52,6.52,0,0,0-7.46-10.71l-21.85,15.22-2.66-4.26a13.29,13.29,0,0,0-18.32-4.22l-8.13,5.08a12.9,12.9,0,0,0-16.55-2.43L156.89,324h0l-27.36,17.12h0L83.46,369.88l-4.77-7.64a6.52,6.52,0,1,0-11.06,6.92l8.23,13.16,5.72,9.14L68,400l-1.08-1.73a11.82,11.82,0,0,0-16.28-3.75l-11.06,6.92a11.82,11.82,0,0,0-3.75,16.28l22,35.18a11.73,11.73,0,0,0,7.36,5.25,11.94,11.94,0,0,0,2.67.31,11.74,11.74,0,0,0,6.24-1.8l11.06-6.92a11.83,11.83,0,0,0,3.75-16.28l-1.08-1.73,13.56-8.48,14,22.31a6.52,6.52,0,1,0,11.06-6.92l-4.77-7.63,46.06-28.81,54.74-34.24A12.84,12.84,0,0,0,228.19,359.84Zm-159.94,85L47.56,411.8l9-5.61,3.89,6.22,12.92,20.65,3.89,6.22Zm12.69-24.28-6-9.59,13.56-8.48,6,9.59Zm33.8-.72L96.1,390.09l-5.72-9.14,16.31-10.2,7.11,11.36a6.53,6.53,0,0,0,11.06-6.92l-7.11-11.36,13.15-8.22,24.36,38.94Zm51.59-32.27L142,348.67l16.3-10.2,7.11,11.36a6.52,6.52,0,0,0,11.06-6.92l-7.1-11.36L191.07,318l3.14,5,18.93,30.26h0l2.28,3.65Zm41.56-67.39,8-5a.23.23,0,0,1,.18,0,.22.22,0,0,1,.15.11l12.6,20.15a.22.22,0,0,1,0,.18.21.21,0,0,1-.11.15l-8,5Z"/></svg>