<svg id="Слой_1" data-name="Слой 1" xmlns="http://www.w3.org/2000/svg" viewBox="0 0 512 512"><defs><style>.cls-1{fill:#00c5c5;}</style></defs><title>иконки для подкатегорий</title><path class="cls-1" d="M491.67,276.73H329.45a7.72,7.72,0,0,0-7.45,9.8l21.73,78.22a87,87,0,0,1-137.56,91.67l-2.75-2.16A87.43,87.43,0,0,1,172.25,367l18-80.86a7.72,7.72,0,0,0-7.55-9.38H28.18v15.45H173l-15.86,71.46a103,103,0,0,0,36.72,102.78l2.76,2.16a102.42,102.42,0,0,0,162-108l-19-68.44H491.67Z"/><path class="cls-1" d="M378.85,30.19a7.73,7.73,0,0,0-8.64,1.74L290.9,115a373.43,373.43,0,0,0-72.36,108.92,7.72,7.72,0,0,0,1.62,8.55l13.39,13.35H215.25a7.73,7.73,0,0,0-7.3,5.19,376.05,376.05,0,0,0-17.54,74.27L186.54,355a70.83,70.83,0,0,0,17.62,56.65l3,3.38a71,71,0,0,0,121.61-64.7,361.13,361.13,0,0,1,19.68-231.84l34.38-78.18A7.73,7.73,0,0,0,378.85,30.19Zm-44.5,82.08A376.55,376.55,0,0,0,313.8,354.06a55.53,55.53,0,0,1-95.15,50.61l-3-3.38A55.41,55.41,0,0,1,201.83,357h0l3.86-29.74a359.52,359.52,0,0,1,15.07-66H252.2a7.73,7.73,0,0,0,5.46-13.19l-22.82-22.83a357.88,357.88,0,0,1,67.21-99.59l49-51.26Z"/><path class="cls-1" d="M119.08,228.91c-35.75,0-69.41-8.61-71.78-9.23l1.77-6.77c1,.25,97,24.8,134.89-8.75,12.44-11,17.28-27.45,14.41-48.87l-.2-1.52c-8.81-65.7-12.46-92.9-1.28-105.91,7.7-9,22-9.93,39.88-10.26l.13,7c-18.85.35-29.4,1.65-34.7,7.82-9.13,10.63-5.35,38.76,2.91,100.42l.2,1.52c3.2,23.88-2.42,42.4-16.72,55C171.56,224.46,144.78,228.91,119.08,228.91Z"/></svg>