<svg id="Слой_1" data-name="Слой 1" xmlns="http://www.w3.org/2000/svg" viewBox="0 0 512 512"><defs><style>.cls-1{fill:#00c5c5;}</style></defs><title>иконки для подкатегорий</title><path class="cls-1" d="M467.15,53.47V39.71h-172a34.4,34.4,0,1,0,0,68.8,13.78,13.78,0,0,1,13.76,13.76v26.07a20.53,20.53,0,0,1-3.47,11.45l-4.51,6.77a34.26,34.26,0,0,0-5.78,19.09v5.43a34.4,34.4,0,1,0,68.8,0v-5.43a34.22,34.22,0,0,0-5.78-19.08l-4.51-6.77a20.57,20.57,0,0,1-3.47-11.46V122.28a13.78,13.78,0,0,1,13.76-13.76h103.2V94.76H377.71V87.88a20.67,20.67,0,0,0-20.64-20.64,6.88,6.88,0,0,1-6.88-6.88V53.47Zm-117,137.6a20.64,20.64,0,0,1-41.28,0v-5.43a20.53,20.53,0,0,1,3.47-11.45l4.51-6.77a34.26,34.26,0,0,0,5.78-19.09V122.28a27.24,27.24,0,0,0-3.83-13.76h21.41a27.24,27.24,0,0,0-3.83,13.76v26.07a34.26,34.26,0,0,0,5.78,19.09l4.51,6.77a20.53,20.53,0,0,1,3.47,11.45ZM357.07,81a6.88,6.88,0,0,1,6.88,6.88v6.88h-68.8a20.64,20.64,0,0,1,0-41.28h41.28v6.88A20.67,20.67,0,0,0,357.07,81Z"/><path class="cls-1" d="M267.62,177.32a34.44,34.44,0,0,0-34.4-34.4H75a34.44,34.44,0,0,0-34.4,34.4v289H419v-28a55.09,55.09,0,0,0,48.16-54.57V301.16H267.62Zm-213.29,0A20.67,20.67,0,0,1,75,156.68H233.22a20.67,20.67,0,0,1,20.64,20.64V198H54.34Zm0,34.4H253.86v13.76H54.34Zm0,27.52H253.86v61.92H222.12a72.17,72.17,0,1,0-112.75,80.58v2a54.63,54.63,0,0,0,7.44,27.52H54.34Zm153,61.92H109.38v61.61a58.4,58.4,0,1,1,97.93-61.61ZM157.54,452.53H54.34V425h73.8a54.82,54.82,0,0,0,29.41,13.29Zm247.69,0H171.3V438.77H405.23Zm48.16-137.6v13.76H439.63v13.76h13.76v41.28A41.32,41.32,0,0,1,412.11,425H164.42a41.32,41.32,0,0,1-41.28-41.28V342.44H425.87V328.68H123.14V314.92Z"/></svg>