<svg id="Слой_1" data-name="Слой 1" xmlns="http://www.w3.org/2000/svg" viewBox="0 0 512 512"><defs><style>.cls-1{fill:#00c5c5;}</style></defs><title>иконки для подкатегорий</title><path class="cls-1" d="M402.13,133.1a8,8,0,0,0-3.36-9.66L295.6,61.55,271.49,47.08l-.07-.06h-.07L239.1,27.64a8,8,0,0,0-7.18-.52L80.23,91a8,8,0,0,0-4.91,7.36v63.87a7.63,7.63,0,0,0,10.52,7.42,1.33,1.33,0,0,0,.4-.09c.14,0,.31,0,.46-.1l133.4-62.78,77.95,14.17a2.56,2.56,0,0,1,.49.09l57.95,10.53-15.35,32a24.2,24.2,0,0,0-2.35,10.38V355.19a23.75,23.75,0,0,0,7,16.93l2,2,7.38,22.16a7.9,7.9,0,0,0,6.58,5.3v8.14a8,8,0,0,0,0,16v8h-8a8,8,0,0,0,0,16h8v8h-8a8,8,0,0,0,0,16h8v8a8,8,0,0,0,0,16h16a8,8,0,0,0,0-16v-8h8a8,8,0,1,0,0-16h-8v-8h8a8,8,0,1,0,0-16h-8v-8a8,8,0,0,0,0-16v-8h1a8,8,0,0,0,7.57-5.46l7.39-22.16,2-2a23.77,23.77,0,0,0,7-16.93V174.1A24,24,0,0,0,399.93,163l-13.64-26.17,6.93,1.25A7.93,7.93,0,0,0,402.13,133.1ZM91.29,103.65l19-8-19,35.64Zm11.11,40.72,31.26-58.6,17.12-7.19-30.62,57.48Zm41.9-19.67,29.81-55.88,17.16-7.23-29.21,54.78Zm59.64-28.06L186.22,105l28.39-53.24,17.18-7.24Zm20.93-5.32,21.67-40.57L257,57,237.54,93.61ZM266.6,98.9,254,96.62l16.7-31.37,10.47,6.28Zm29.15,5.3-12.65-2.3,11.81-22.16L305.41,86Zm29.12,5.29-12.63-2.29,6.86-12.92,10.5,6.3Zm16.48,3,2-3.69,9.67,5.8Zm45.31,242.69a8.06,8.06,0,0,1-2.34,5.64L381,364.13a8,8,0,0,0-1.93,3.12l-6.16,18.49h-4.46l-6.16-18.49a8,8,0,0,0-1.93-3.12l-3.31-3.31a8,8,0,0,1-2.34-5.64v-9.36h31.93Zm0-25.33H354.74V194.15h31.93Zm0-155.76v4.08H354.74v-4.36a8,8,0,0,1,.8-3.45L370,140.15l15.76,30.26A8,8,0,0,1,386.67,174.1Z"/><path class="cls-1" d="M310.83,201.08a8,8,0,0,0-7.92-13.86l-14.3,8.17a172.39,172.39,0,0,1-171,0l-14.3-8.17a8,8,0,0,0-7.92,13.86l14.29,8.17.3.15-15.06,10a8,8,0,0,0,8.86,13.28l22.65-15.1a187.93,187.93,0,0,0,24.88,9.07l-9.71,9.71a8,8,0,1,0,11.29,11.29l16-16a7.85,7.85,0,0,0,.53-.8c5.87,1.08,11.81,1.86,17.78,2.4V258a8,8,0,0,0,16,0V234.06a187.75,187.75,0,0,0,33.75-3.13,6.9,6.9,0,0,0,.53.8l16,16a8,8,0,0,0,11.29-11.29l-9.71-9.71a188.72,188.72,0,0,0,24.89-9.07l22.65,15.09a8,8,0,1,0,8.86-13.28l-15.05-10,.3-.15Z"/></svg>