<svg id="Слой_1" data-name="Слой 1" xmlns="http://www.w3.org/2000/svg" viewBox="0 0 512 512"><defs><style>.cls-1{fill:#00c5c5;}</style></defs><title>иконки для подкатегорий</title><path class="cls-1" d="M351.49,102.41l.43,0a6.27,6.27,0,0,0,6.25-5.85c.28-4.08.66-8.17,1.13-12.17a6.27,6.27,0,1,0-12.46-1.49c-.51,4.21-.91,8.52-1.19,12.81A6.27,6.27,0,0,0,351.49,102.41Z"/><path class="cls-1" d="M355.48,67.54a6.51,6.51,0,0,0,1.36.15A6.28,6.28,0,0,0,363,62.77c.89-4,1.89-8,3-11.79a6.27,6.27,0,1,0-12.06-3.46c-1.17,4.08-2.24,8.29-3.17,12.53A6.28,6.28,0,0,0,355.48,67.54Z"/><path class="cls-1" d="M169.87,65.45A6.27,6.27,0,0,0,165,72.89c.77,3.67,1.49,7.45,2.14,11.25a6.27,6.27,0,0,0,6.18,5.22,6.09,6.09,0,0,0,1.06-.09A6.27,6.27,0,0,0,179.53,82c-.67-4-1.42-7.92-2.23-11.75A6.28,6.28,0,0,0,169.87,65.45Z"/><path class="cls-1" d="M159.37,51.76a6.27,6.27,0,0,0,11.91-3.94l-.07-.2a6.27,6.27,0,1,0-11.91,3.94Z"/><path class="cls-1" d="M389.84,120a6.2,6.2,0,0,0,2.48-.51,6.27,6.27,0,0,0,3.28-8.24c-9.67-22.43-14.19-42.66-13.81-61.83a6.27,6.27,0,0,0-6.15-6.4h-.12a6.27,6.27,0,0,0-6.27,6.15c-.41,21,4.44,42.93,14.83,67A6.28,6.28,0,0,0,389.84,120Z"/><path class="cls-1" d="M437.57,185.07c-8.66-16.9-20.16-32.09-29.42-48.64a6.27,6.27,0,1,0-10.95,6.12c9.2,16.46,20.57,31.39,29.2,48.24,12.52,24.44,17.22,55,12.84,81.67a16.65,16.65,0,0,0-20.76,7.32,6.27,6.27,0,0,0,11,6.1,4.08,4.08,0,0,1,6.78-.52c-3.51,10.79-9.81,21.14-18.78,30.82-7.49,8.08-17.73,13.36-27.58,18.06-1.87.89-3.84,1.72-5.94,2.59l-2.26.95c.83-3.58,1.59-7.21,2.24-10.82a6.27,6.27,0,0,0-12.34-2.24c-.72,4-1.57,8-2.52,11.93a6.26,6.26,0,0,0,2.26,6.42,45,45,0,0,0-4.9,3.73C343.31,334.71,225.55,272.68,163.69,232c.12-8.87-7.4-15.94-12.43-20.66-2.62-2.46-5.32-5-6.58-7.09-6.51-10.85-.36-24,9.08-31.31,4.48-3.49,6.78-7.57,6.82-12.14.08-8.55-7.87-15-14.26-20.17A45.42,45.42,0,0,1,141.1,136c-4.52-5.56-8.35-13.53-11.08-23.05a154.16,154.16,0,0,1-4.54-62.56A6.27,6.27,0,1,0,113,48.75a166.78,166.78,0,0,0,4.92,67.7c3.24,11.3,7.75,20.55,13.41,27.51a48.91,48.91,0,0,0,7.05,6.44c3.13,2.53,9.64,7.81,9.61,10.3,0,.41-.62,1.31-2,2.37-13.79,10.74-22.38,30.56-12.13,47.66,2.15,3.59,5.51,6.74,8.75,9.78,2.55,2.4,5.75,5,7.44,8.15a6.44,6.44,0,0,1,1,2.86c.11,6.35-9.5,10.77-13.78,14a212.88,212.88,0,0,0-21,18.25,191,191,0,0,0-32.39,41.7,93.68,93.68,0,0,0-9.64,25.43c-6.05,27.31-.88,52.13,11.29,76.69,9.58,19.35,22.8,36.62,26,58.64A6.27,6.27,0,0,0,124,464.43c-2.77-18.82-10.36-32.77-19.35-48.27a187.9,187.9,0,0,1,75-45.58,6.27,6.27,0,0,0-3.79-12q-6.94,2.2-13.7,4.91A198.74,198.74,0,0,0,125,383.31c-9.58,6.47-18,14-26.74,21.52-5.47-8.17-8.82-19.73-11-29.22-4.7-20.25-3.36-42.63,6.15-61.23a136.74,136.74,0,0,1,10.44-16.84,186.39,186.39,0,0,1,13-16.16,202.51,202.51,0,0,1,19.28-18.8c6.49-5.54,14.12-10.05,20.24-16l.07-.07a30.53,30.53,0,0,0,2.47-2.68c60.64,39.53,170.52,97.68,198.88,112.56-.71,1-1.39,2-2,3l-.1.15c-.7,1.08-1.37,2.17-2,3.28-.38.63-5.2,9.36-5,9.43C297,351.45,248.46,344.57,204.14,351.88a6.27,6.27,0,0,0,2,12.38c44.1-7.26,92.9.41,145.07,22.77,10.29,18.07,3.28,58.36-.12,77.85l-.11.65a6.27,6.27,0,0,0,5.1,7.25,6.12,6.12,0,0,0,1.09.1,6.27,6.27,0,0,0,6.17-5.2l.11-.64c1.29-7.39,2.54-14.79,3.53-22.23,1.66-12.48,2.75-25.17,1.87-37.76a78,78,0,0,0-2.95-17.26,42.87,42.87,0,0,0-2.93-7.41c-1.37-2.62-3.53-4.18-1.83-7.33a90,90,0,0,1,7.72-12.44A37.6,37.6,0,0,1,379.08,353a73.27,73.27,0,0,1,9.67-4.57c2.14-.89,4.37-1.82,6.52-2.85,10.47-5,22.38-11.15,31.38-20.86,10.65-11.5,18-23.93,22-37a6.26,6.26,0,0,0,.53-1.79q.39-1.39.72-2.78C457.46,251.54,452.85,214.89,437.57,185.07Z"/><path class="cls-1" d="M353.33,147.5a6.27,6.27,0,0,0-5.31,7.11c.61,4.22,1.33,8.48,2.13,12.65a6.28,6.28,0,0,0,6.16,5.1,6.11,6.11,0,0,0,1.18-.11,6.27,6.27,0,0,0,5-7.34c-.76-4-1.45-8.06-2-12.1A6.27,6.27,0,0,0,353.33,147.5Z"/><path class="cls-1" d="M359.77,182a6.27,6.27,0,0,0-4.36,7.72q.31,1.1.62,2.2c.85,3,1.83,6.15,3.07,10a6.27,6.27,0,1,0,12-3.81c-1.2-3.78-2.14-6.85-3-9.68q-.3-1-.6-2.11A6.27,6.27,0,0,0,359.77,182Z"/><path class="cls-1" d="M376.67,239.8a6.27,6.27,0,0,0,4.64-7.56c-.63-2.65-1.33-5.32-2.06-8q-.62-2.25-1.3-4.49a6.27,6.27,0,1,0-12,3.58c.42,1.42.83,2.84,1.23,4.27.69,2.49,1.34,5,1.94,7.51a6.27,6.27,0,0,0,7.56,4.64Z"/><path class="cls-1" d="M374.4,268.85a6.27,6.27,0,0,0,6.25,5.79l.49,0a6.27,6.27,0,0,0,5.77-6.74c-.33-4.27-.79-8.58-1.36-12.82a6.27,6.27,0,1,0-12.43,1.67C373.66,260.74,374.09,264.82,374.4,268.85Z"/><path class="cls-1" d="M380.15,309.71l.5,0a6.27,6.27,0,0,0,6.25-5.78c.33-4.26.55-8.6.65-12.88a6.27,6.27,0,0,0-12.54-.29c-.09,4.05-.3,8.15-.61,12.18A6.27,6.27,0,0,0,380.15,309.71Z"/><path class="cls-1" d="M351.87,137.53h.41a6.28,6.28,0,0,0,5.86-6.66c-.26-4.08-.43-8.2-.51-12.25a6.28,6.28,0,0,0-6.27-6.16h-.12a6.27,6.27,0,0,0-6.16,6.39c.08,4.24.26,8.55.53,12.82A6.27,6.27,0,0,0,351.87,137.53Z"/><path class="cls-1" d="M171,117.55a6.28,6.28,0,0,0,6.25,5.88h.4a6.27,6.27,0,0,0,5.86-6.66c-.25-4-.57-8-1-11.89a6.27,6.27,0,0,0-12.48,1.22C170.44,109.86,170.75,113.72,171,117.55Z"/><path class="cls-1" d="M178,133.48a6.3,6.3,0,0,0-6.27,6.31c0,3.8-.06,7.65-.19,11.43a6.27,6.27,0,0,0,6.06,6.47h.21a6.27,6.27,0,0,0,6.26-6.07c.13-3.92.19-7.9.19-11.91A6.24,6.24,0,0,0,178,133.48Z"/><path class="cls-1" d="M174.13,191.8a6.75,6.75,0,0,0,.85.06,6.27,6.27,0,0,0,6.21-5.44c.52-3.88,1-7.87,1.37-11.85a6.27,6.27,0,0,0-12.48-1.22c-.37,3.83-.82,7.67-1.32,11.4A6.27,6.27,0,0,0,174.13,191.8Z"/><path class="cls-1" d="M166.79,225.27a6.18,6.18,0,0,0,1.61.21,6.28,6.28,0,0,0,6.06-4.67c1-3.78,1.94-7.71,2.79-11.67A6.27,6.27,0,0,0,165,206.51c-.81,3.77-1.7,7.51-2.65,11.1A6.27,6.27,0,0,0,166.79,225.27Z"/></svg>