<svg id="Слой_1" data-name="Слой 1" xmlns="http://www.w3.org/2000/svg" viewBox="0 0 512 512"><defs><style>.cls-1{fill:#00c5c5;}</style></defs><title>иконки для подкатегорий</title><path class="cls-1" d="M418.8,116.94c-.12-.16-.17-.35-.31-.5s-.23-.14-.34-.24a215.63,215.63,0,0,0-309.83-12.83c-.15.14-.34.19-.48.33s-.14.25-.24.37A215.46,215.46,0,0,0,40.88,260c0,119.17,97,216.12,216.12,216.12s216.12-97,216.12-216.12A215.17,215.17,0,0,0,418.8,116.94ZM245.88,281.09c3.75.3,7.47.52,11.12.52,2,0,4-.14,6.06-.23a3.63,3.63,0,0,0,2.82-.11,144,144,0,0,0,16.18-2,81.28,81.28,0,0,0-10.65,39.63V461.15c-4.76.34-9.56.57-14.41.57V324.22A92,92,0,0,0,245.88,281.09Zm39.93,178.53V318.91a67.51,67.51,0,0,1,10.5-35.54c1.64-2.64,3.54-5.66,5.63-8.95h0l1.43-2.25Q309.23,263,315.22,254l.56-.84c4-6,8-11.85,12-17.62h0l.19-.28a7.21,7.21,0,1,0-11.84-8.22q-6.12,8.81-11.48,16.87l-.82,1.24c-4.08,6.13-7.81,11.84-11.12,17a131.63,131.63,0,0,1-21.29,4.06V238.39a7.2,7.2,0,1,0-14.41,0V267a128.43,128.43,0,0,1-19.9-1.42l-.43-.72c-.87-1.48-1.82-3.05-2.74-4.6l-1.61-2.7q-2.49-4.13-5.18-8.54a7.21,7.21,0,0,0-12.29,7.54q3.09,5.06,5.9,9.74l.66,1.1q2.27,3.79,4.34,7.29c2.25,3.81,4.36,7.42,6.22,10.64a78.12,78.12,0,0,1,10.63,38.86V461.15C138.07,453.72,55.29,366.38,55.29,260a201,201,0,0,1,57.6-140.95,529.12,529.12,0,0,1,35.56,41c2.75,3.49,5.49,6.93,8.27,10.6h0A7.21,7.21,0,0,0,168.22,162c-3.14-4.14-6.23-8-9.33-12a537.12,537.12,0,0,0-35.56-40.92,201.19,201.19,0,0,1,279.74,12q-15.19,14.73-31.41,33.53Q360.05,168.1,348,183.54a7.2,7.2,0,0,0,1.26,10.11,7.12,7.12,0,0,0,4.42,1.52,7.2,7.2,0,0,0,5.69-2.78h0c18.59-23.9,36.47-44.2,53.25-60.52a200.82,200.82,0,0,1,46,128.15C458.71,361.44,383.44,445.6,285.82,459.63Z"/></svg>