<svg id="Слой_1" data-name="Слой 1" xmlns="http://www.w3.org/2000/svg" viewBox="0 0 512 512"><defs><style>.cls-1{fill:#00c5c5;}</style></defs><title>иконки для подкатегорий</title><path class="cls-1" d="M118.59,268.08a194.43,194.43,0,0,1,25.57-96.29A207.64,207.64,0,0,0,171.47,68.93v-26H158.25v26a194.43,194.43,0,0,1-25.57,96.29,207.64,207.64,0,0,0-27.32,102.85,759.29,759.29,0,0,0,11.52,131.54l8.42,47.69,13-2.3-8.42-47.69A746.37,746.37,0,0,1,118.59,268.08Z"/><path class="cls-1" d="M382.15,165.23a194.46,194.46,0,0,1-25.57-96.29v-26H343.36v26a207.68,207.68,0,0,0,27.32,102.86,194.42,194.42,0,0,1,25.57,96.29,746.61,746.61,0,0,1-11.31,129.24L376.52,445l13,2.3L398,399.63a759.37,759.37,0,0,0,11.52-131.54,207.64,207.64,0,0,0-27.32-102.85Z"/><path class="cls-1" d="M341.14,301.06a59.75,59.75,0,0,1-26.6,6.28h-3.29a59.13,59.13,0,0,1-42.07-17.43L264,284.77V208.17H250.81v76.59l-5.14,5.14a59.13,59.13,0,0,1-42.07,17.43H200.3a59.73,59.73,0,0,1-26.6-6.28L148,288.21,142.07,300l25.71,12.85a73.08,73.08,0,0,0,32.52,7.68h3.29a72.33,72.33,0,0,0,33.77-8.3,789.62,789.62,0,0,1-10.47,118.26l-2.43,14.57,13,2.17,2.43-14.57a802.72,802.72,0,0,0,10.84-129.56c1.45-1.24,2.89-2.49,4.25-3.85l2.41-2.41,2.41,2.41c1.36,1.36,2.8,2.61,4.24,3.85a802.33,802.33,0,0,0,10.84,129.57l2.43,14.57,13-2.17L288,430.51a789.79,789.79,0,0,1-10.47-118.25,72.3,72.3,0,0,0,33.76,8.3h3.29a73.08,73.08,0,0,0,32.52-7.68L372.76,300l-5.92-11.83Z"/><path class="cls-1" d="M250.81,195H264a39.71,39.71,0,0,1,39.67-39.67h13.22V142.06H303.69a52.92,52.92,0,0,0-46.28,27.34,52.92,52.92,0,0,0-46.28-27.34H197.92v13.22h13.22A39.71,39.71,0,0,1,250.81,195Z"/><path class="cls-1" d="M331.18,355.27c-26.37,0-41-6.85-41.9-7.28l3.48-7.21-1.74,3.6,1.73-3.61c.31.15,31.48,14.52,85.28-.25l2.12,7.71A185,185,0,0,1,331.18,355.27Z"/><path class="cls-1" d="M331.18,378.39c-26.37,0-41-6.85-41.9-7.28l3.48-7.21-1.74,3.6,1.73-3.61c.31.15,31.48,14.52,85.28-.25l2.12,7.71A185,185,0,0,1,331.18,378.39Z"/><path class="cls-1" d="M331.18,401.51c-26.37,0-41-6.85-41.9-7.28l3.48-7.21-1.74,3.6,1.73-3.61c.31.15,31.48,14.52,85.28-.25l2.12,7.71A185,185,0,0,1,331.18,401.51Z"/><path class="cls-1" d="M176,355.27c-26.37,0-41-6.85-41.9-7.28l3.48-7.21-1.74,3.6,1.73-3.61c.31.15,31.49,14.52,85.28-.25l2.12,7.71A185,185,0,0,1,176,355.27Z"/><path class="cls-1" d="M176,378.39c-26.37,0-41-6.85-41.9-7.28l3.48-7.21-1.74,3.6,1.73-3.61c.31.15,31.49,14.52,85.28-.25l2.12,7.71A185,185,0,0,1,176,378.39Z"/><path class="cls-1" d="M176,401.51c-26.37,0-41-6.85-41.9-7.28l3.48-7.21-1.74,3.6,1.73-3.61c.31.15,31.49,14.52,85.28-.25l2.12,7.71A185,185,0,0,1,176,401.51Z"/></svg>