<svg id="Слой_1" data-name="Слой 1" xmlns="http://www.w3.org/2000/svg" viewBox="0 0 512 512"><defs><style>.cls-1{fill:#00c5c5;}</style></defs><title>иконки для подкатегорий</title><path class="cls-1" d="M457,316.49c5.23,14,14.88,21.21,28.7,23.18,1.26.18,2.87-.31,3.77.3,2.79,1.92,7.11,3.91,7.56,6.45.83,4.76-3.5,6.06-7.77,6C469.81,352,455.56,343,447,325.62c-2.16-4.41-4.38-6.45-9.3-7.37C425.48,316,417.95,307.89,415,296c-3.93-15.88-7.71-31.82-10.82-47.87-1.28-6.6-3.85-8.74-10.57-8.46-12.15.51-20.46-5.93-22-15.79-1.69-10.46,4.12-19.45,14.38-22.19,2.15-.57,4.34-1,6.6-1.49-.24-6.27-4.24-6.44-8.56-6.44q-39.93.06-79.86,0c-24.08,0-26.66-2.13-30.65-26.39-3.76,0-7.75.09-11.72,0-9.39-.27-13.47-4.26-13.56-13.75-.14-14.08-.09-28.15.06-42.23.11-10.4,4-14.31,14.57-14.19,6.69.07,12.09.43,13.33-8.85.89-6.7,7.07-10.52,13.87-11.61,15.41-2.47,30.83-5,46.33-6.67,2.71-.3,5.84,3.25,8.78,5-2.34,2.48-4.36,6.65-7.07,7.15-13.31,2.49-26.8,4-40.22,5.87-9.59,1.33-10.66,2.53-10.66,12.15q0,34.94,0,69.87c0,9.56,1,10.66,10.49,10.69,28.67.1,57.33,0,86,.17,13.78.07,18.9,4.29,22,17.54q8.21,35.5,16.39,71c.57,2.47,1.29,4.9,2.27,8.62,11.61-11.39,19.74-23.73,24.47-38.23.65-2-.11-4.56-.6-6.78-2.66-12-5.12-24-8.26-35.87-3.05-11.52-.53-21.07,7.83-29.48s16.55-17.46,25-26c3.89-3.95,4.89-7.64.73-11.9-12.69-13-25.22-26.12-38.1-38.91-9-8.91-20.15-12.82-32.79-12.46q-16.11.46-32.21,1c-1.53,0-3.41.8-4.53.17A75.29,75.29,0,0,1,358,73.9c2.24-2.3,4.31-6.38,6.74-6.6,12-1.09,24-1,36-1.61,18.32-.91,33.58,5.9,46.26,18.59s25.12,25.52,37.15,38.76c7.36,8.1,6.86,17.36-.64,25.57-8.62,9.45-17.36,18.83-26.47,27.8-5.4,5.31-6.57,11-4.88,18.1,6.46,27.38,12.3,54.91,19.08,82.21C475.33,293.21,472.54,306.62,457,316.49Zm-2.15-54.32c-9,10-17.58,19.29-25.66,29-1.16,1.4-.5,5.35.62,7.4,3.46,6.31,11.71,9.18,18.64,7.12,7.44-2.22,12.89-8.95,11.9-16.72C459.22,280,456.77,271.11,454.88,262.17ZM261.28,153.75c11,1.83,13,1.3,13.1-4.15.24-11.74.24-23.5-.13-35.24-.05-1.58-2.58-3.86-4.39-4.41-2.5-.76-5.4-.19-8.58-.19Zm137.28,72.93c-2-5.06,1.82-12.39-7.13-12.85-4.86-.25-8.27,2.63-7.13,7.48C386.08,228.92,392.29,227.19,398.56,226.68Z"/><path class="cls-1" d="M380.22,146c-1.63,1.93-3,5-5.05,5.56s-6.16-1-6.85-2.67q-7.13-17.3-12.89-35.13c-.55-1.7,1.83-5.65,3.72-6.44s6.38.56,7,2.11C371.11,121.1,375.38,133.1,380.22,146Z"/><path class="cls-1" d="M415.63,146c-1.86,2.08-3.34,5.17-5.42,5.64s-6.13-1.14-6.83-2.85q-7.06-17.33-12.74-35.2c-.53-1.67,1.91-5.33,3.88-6.4,1.48-.81,5.87.43,6.47,1.82C406.09,120.9,410.61,133.07,415.63,146Z"/><path id="Shape" class="cls-1" d="M57.79,293.2c17.3-37.09,32.75-67.74,42.68-87,4,22.75,13.22,56,34.8,79.82,15,16.59,32.71,32.82,48.35,47.15,46.52,42.6,49.54,45.48,39.85,76.51a153.41,153.41,0,0,0-5,19c-6.21,35.16,9.62,58.15,43.79,45.74,27-9.83,61.74-8.13,95.31,4.66,14,5.29,28.44,13.32,45.44,13.32,21.17,0,28.88-8,31.61-14.73,18.56-45-90.64-60.2-139.24-120.44a166.15,166.15,0,0,1-23-48.54c-35.72-100.24-29.76-108.13-50-148.36-18.22-36.15-32.49-74.28-41.6-92.33a61,61,0,0,0-41-34.89C113.24,27.08,80,39.23,40.66,69.37A31.1,31.1,0,0,0,28.5,93.88V286.76a15.36,15.36,0,0,0,29.3,6.44ZM43.86,93.88A15.63,15.63,0,0,1,50,81.59c35.48-27.19,64.53-38.41,86.26-33.44,25.09,5.77,33.12,31,44.22,57.21,35.07,82.79,32.26,61.18,47,113.6,8.76,31.14,15.93,54.43,31.12,97.12a171.62,171.62,0,0,0,24.77,50.85c46.22,57.24,147.16,80.23,137,104.95-1.29,3.16-8.12,5.2-17.4,5.2-22.83,0-49.55-24.27-102.39-24.27A128,128,0,0,0,256.94,460c-6.23,2.3-14.6,4.14-19.2.28-4.91-4.13-6.55-15.47-4.19-28.88,3.76-20.9,16.58-39.25,5.05-62.14-10.56-20.88-59.33-57.43-91.95-93.55-31.24-34.57-33.72-94.75-33.74-95.36A7.68,7.68,0,0,0,98.48,177c-.24.45-24.67,45.6-54.62,109.75Z"/></svg>