<svg id="Слой_1" data-name="Слой 1" xmlns="http://www.w3.org/2000/svg" viewBox="0 0 512 512"><defs><style>.cls-1{fill:#00c5c5;}</style></defs><title>иконки для подкатегорий</title><path class="cls-1" d="M282.92,451c-2.85,10.18-11.35,10.6-20.61,10.59-48.25,0-96.5.2-144.75.33-15.89,0-20.78-8.54-13.34-22.5,23.83-44.72,28.47-90.36,6.74-137.48-11-24-22.8-47.76-31.39-72.62-13.21-38.23-15.91-77.51-.33-116a138,138,0,0,1,19.61-32.9c13.45-17.09,32.07-25.85,53.87-25.9q137.84-.36,275.69-.08c11.18,0,16.78,6.9,15.15,17.91-4.46,30-19.17,53.38-44.82,69.89-1.93,1.24-3.81,5.27-3.23,7.27a320,320,0,0,0,11.35,33.65c6.68,16,5.82,22.88-7.13,34.7-3.84,3.5-5.1,7.17-2.67,11.51,6.82,12.18,13.62,24.4,21,36.21,4,6.31,9.7,11.51,13.82,17.74,6,9,4.26,16.93-4.54,23.36a89.68,89.68,0,0,1-11.86,7c-5.42,2.8-6.47,6.8-4,12,1.16,2.4,2.45,4.74,3.69,7.1,3.42,6.48,3,12.18-3.56,16.45-4.35,2.85-5.3,6.09-3.05,11s1.88,10.17-1.86,15c-1.41,1.84-1.38,5.19-1.17,7.78.76,9.35,3.52,18.84,2.55,28-3.2,30-25.82,49.89-56,50.16-11.6.1-23.35-.11-34.79-1.82S294.89,454,282.92,451ZM181.28,295.91c-7.43-6.46-15.36-11.35-20.57-18.27-16.06-21.37-16-45-6.32-68.92,5.58-13.82,18.14-21.3,32.81-20.56A32.91,32.91,0,0,1,217,212c2.76,9.28,4.52,18.87,7.49,28.07,4.62,14.29,3.3,27.7-1.89,41.8a122.47,122.47,0,0,0,42.79,142c25.38,18.54,54.08,24.74,85.11,23.76,29.4-.93,47.94-22.73,43.2-51.83-1.55-9.56-4.46-16.32-15.51-18.69a18.74,18.74,0,0,1-14.13-24.11c4-12.81,11.29-23.48,23.21-30.57,2.93-1.74,5.26-4.49,7.87-6.78-3.75-.46-7.51-.94-11.26-1.35a4.88,4.88,0,0,0-1.4.34c-19.09,4.18-30.47,17.92-40.67,33-6.73,10-14.55,13.54-25.41,10.3-16.25-4.85-32.47-9.84-48.5-15.37-14.72-5.08-24.08-15.76-26.25-31.13-1.44-10.22-1-20.79-.54-31.16.73-16,6.91-30.07,17-42.47,5.67-7,11.46-13.83,16.67-21.12a58.94,58.94,0,0,0,7.94-14.56c5.63-16.17-.66-30.27-10-42.74-5.33-7.1-14.51-1.48-21.77-3a7.29,7.29,0,0,0-1.45,0q-43.65,0-87.29,0c-4.93,0-9-1.36-9-7,.07-5.29,4.06-6.61,8.65-6.6l4.36,0c60.13,0,120.27.14,180.4,0,41.84-.12,73.73-26,82.24-66.24.53-2.5.65-5.08,1-7.83a39.45,39.45,0,0,0-4.39-.57q-136,0-272.05.16c-20.29.05-36.23,9.25-48.16,25.62-14.14,19.42-21,41.3-22.15,65.11-1.89,37.63,8.61,72.29,25.09,105.59,11.5,23.24,23.31,46.44,28,72.28,1.7,9.34,2.23,18.89,3.4,29.35C160.83,345.81,172.15,320.9,181.28,295.91ZM288,156.89c1,2,1.58,3.55,2.36,5,12.33,22.36,10.44,43.61-5,63.8q-9.25,12.13-18.55,24.24a57.77,57.77,0,0,0-11.72,32.3c-.41,6.76-.35,13.56-.33,20.34.05,14.85,6.74,23.91,21.06,28.49,12.45,4,24.95,7.82,37.43,11.69s12.6,3.92,19.94-6.56c17.54-25,40.59-39,72.07-36.44a24.71,24.71,0,0,0,5.8-.11c9.32-1.47,11.5-6.82,5.72-14.08-3-3.79-6.16-7.48-9.4-11.08-11.36-12.65-19.11-27.25-24.33-43.38-2.71-8.37-.92-15.21,5.2-21.19a32.8,32.8,0,0,1,3.69-3.49c5.6-4,5.6-8.8,3-14.61-3.05-6.83-5.8-13.83-8.18-20.93-2.13-6.35-3.58-12.92-5.46-19.85C350.67,160.59,319.67,154.26,288,156.89ZM115.73,448.27c3.52,0,5.65,0,7.79,0q69.44-.34,138.87-.77c2.36,0,4.71-1.23,7.07-1.89-1.61-1.84-2.93-4.12-4.88-5.47C218.05,408,196.6,364,202.21,307.39c.25-2.55.36-5.11.51-7.34-6.42-3.28-8.26.07-10,4.77-11.31,30.93-26.45,59.29-53.69,79.54-1.83,1.36-2.79,4.31-3.48,6.71-3.35,11.61-6.06,23.42-9.83,34.89C123.36,433.2,119.52,440,115.73,448.27Zm44.9-210.07.9.37c.61,4.56.89,9.19,1.89,13.65,4.11,18.3,18.94,31.45,37.07,32.87,2.13.17,5.89-.43,6.31-1.59,3.44-9.66,9.87-18.76,7.05-29.86-3.21-12.68-6.34-25.39-9.95-38a19.12,19.12,0,0,0-17.72-13.87,18.62,18.62,0,0,0-18.89,12.06C164.45,221.77,162.81,230.08,160.63,238.21Zm243.19,97.71c-3.73-.83-7-2.62-8.33-1.67-4.62,3.32-9.33,7-12.61,11.58-9.3,12.9-7.77,16.66,7.36,20.74,1.45.39,3.1.07,4.65.09,0-1.56.39-3.3-.15-4.66-3.26-8.26-1.11-15.08,5.07-21C400.8,340,401.53,338.83,403.83,335.92Z"/></svg>