<svg id="Слой_1" data-name="Слой 1" xmlns="http://www.w3.org/2000/svg" viewBox="0 0 512 512"><defs><style>.cls-1{fill:#00c5c5;}</style></defs><title>иконки для подкатегорий</title><path class="cls-1" d="M111.43,268.08A194.43,194.43,0,0,1,137,171.79,207.64,207.64,0,0,0,164.32,68.93v-26H151.1v26a194.43,194.43,0,0,1-25.57,96.29A207.64,207.64,0,0,0,98.21,268.08a759.29,759.29,0,0,0,11.52,131.54l8.42,47.69,13-2.3-8.42-47.69A746.37,746.37,0,0,1,111.43,268.08Z"/><path class="cls-1" d="M375,165.23a194.46,194.46,0,0,1-25.57-96.29v-26H336.2v26a207.68,207.68,0,0,0,27.32,102.86,194.42,194.42,0,0,1,25.57,96.29,746.61,746.61,0,0,1-11.31,129.24L369.36,445l13,2.3,8.42-47.69a759.37,759.37,0,0,0,11.52-131.54A207.64,207.64,0,0,0,375,165.23Z"/><path class="cls-1" d="M334,301.06a59.75,59.75,0,0,1-26.6,6.28h-3.29A59.13,59.13,0,0,1,262,289.91l-5.15-5.14V208.17H243.65v76.59l-5.14,5.14a59.13,59.13,0,0,1-42.07,17.43h-3.29a59.73,59.73,0,0,1-26.6-6.28l-25.71-12.85L134.91,300l25.71,12.85a73.08,73.08,0,0,0,32.52,7.68h3.29a72.33,72.33,0,0,0,33.77-8.3,789.62,789.62,0,0,1-10.47,118.26l-2.43,14.57,13,2.17,2.43-14.57A802.72,802.72,0,0,0,243.6,303.12c1.45-1.24,2.89-2.49,4.25-3.85l2.41-2.41,2.41,2.41c1.36,1.36,2.8,2.61,4.24,3.85a802.33,802.33,0,0,0,10.84,129.57l2.43,14.57,13-2.17-2.43-14.57a789.79,789.79,0,0,1-10.47-118.25,72.3,72.3,0,0,0,33.76,8.3h3.29a73.08,73.08,0,0,0,32.52-7.68L365.61,300l-5.92-11.83Z"/><path class="cls-1" d="M243.65,195h13.22a39.71,39.71,0,0,1,39.67-39.67h13.22V142.06H296.54a52.92,52.92,0,0,0-46.28,27.34A52.92,52.92,0,0,0,204,142.06H190.76v13.22H204A39.71,39.71,0,0,1,243.65,195Z"/><path class="cls-1" d="M326.79,420.94A36.92,36.92,0,1,1,363.72,384,37,37,0,0,1,326.79,420.94Zm0-63.85A26.92,26.92,0,1,0,353.72,384,27,27,0,0,0,326.79,357.09Z"/><path class="cls-1" d="M327.72,484.24h-1.87A14.27,14.27,0,0,1,311.61,470V412.32H342V470A14.27,14.27,0,0,1,327.72,484.24Zm-6.12-61.92V470a4.25,4.25,0,0,0,4.25,4.25h1.87A4.25,4.25,0,0,0,332,470V422.32Z"/></svg>