<svg id="Слой_1" data-name="Слой 1" xmlns="http://www.w3.org/2000/svg" viewBox="0 0 512 512"><defs><style>.cls-1{fill:#00c5c5;}</style></defs><title>иконки для подкатегорий</title><path class="cls-1" d="M255,298.13l-21-16.81a8.41,8.41,0,0,0-10.51,0l-21,16.81A8.41,8.41,0,1,0,213,311.26l15.77-12.61,15.77,12.61A8.58,8.58,0,0,0,256.32,310,8.41,8.41,0,0,0,255,298.13Z"/><path class="cls-1" d="M340.76,298.13l-21-16.81a8.41,8.41,0,0,0-10.51,0l-21,16.81a8.41,8.41,0,1,0,10.51,13.13l15.77-12.61,15.77,12.61a8.41,8.41,0,1,0,10.5-13.13Z"/><path class="cls-1" d="M430.68,218c-.34-1.1,5.46-9.28,6.13-11a78.31,78.31,0,0,0,5.06-28.7c0-36.33-18-70.36-50.64-95.8-32-25-74.52-38.71-119.61-38.71S184,57.53,152,82.49c-32.66,25.44-50.64,59.47-50.64,95.8,0,13.73,3,28.43,11.19,39.67C100.74,256.41,72.9,360.15,84.31,452.1a25.25,25.25,0,0,0,25,22.12c14.75,0,26.9-13.4,25.05-28.33-.91-7.33-1.52-14.77-1.88-22.27a25.11,25.11,0,0,0,11.3,2.68A26,26,0,0,0,167,411.07q4.15,6.48,8.83,12.51c25.45,32.66,59.47,50.64,95.81,50.64s70.36-18,95.81-50.64q4.68-6,8.84-12.51a25.23,25.23,0,0,0,34.49,12.55c-.36,7.5-1,14.95-1.88,22.28-1.8,14.54,10.32,28.33,25.05,28.33a25.25,25.25,0,0,0,25-22.12C470.33,360.14,442.5,256.4,430.68,218ZM271.62,60.59c84.37,0,153.05,52.5,153.44,117.15l-.33-.24c-15.19-11.28-32.79-18.21-50.8-23.54-29.85-8.84-65.22-13.51-102.31-13.51S199.15,145.13,169.31,154c-17.83,5.28-36.15,12.56-51.13,23.78a92.32,92.32,0,0,1,6.45-33.24c15-8.49,35.54-15.65,59.6-20.71a8.42,8.42,0,0,0,6.48-10,8.69,8.69,0,0,0-10-6.49,291.31,291.31,0,0,0-36.31,10c-1.93.68-3.82,1.39-5.68,2.11C165.33,84.29,214.93,60.59,271.62,60.59ZM396.12,203.35c-30.63-11.24-64.13-14.88-96.53-16.7-34-1.91-68.3-.7-101.91,4.67q-4.3.69-8.59,1.47c-20.31,3.72-41.67,8.94-60.09,18.46l-.17.08a35.58,35.58,0,0,1-8-13.71l.21-.22c18.19-18.63,47.08-26.73,71.79-32a382.31,382.31,0,0,1,98.88-7.7c32,1.67,64.35,6.56,94.35,18.14,12.8,4.95,26.33,11.57,36.05,21.51l.21.22a35.57,35.57,0,0,1-8,13.71l-.17-.09A158,158,0,0,0,396.12,203.35ZM397.31,222c-22,8.15-55.7,7.65-93.66,7.07q-32-.49-64.07,0c-38,.57-71.71,1.08-93.66-7.07l.24-.1c19.74-8,41.28-12.27,62.33-15.08a461.54,461.54,0,0,1,68.29-4.08c14.07.22,28.11.9,42.12,2.24a331.57,331.57,0,0,1,64,12.06c4.8,1.44,9.58,3,14.21,4.86ZM120.51,338.27c-5,35.21-7.29,73.74-2.82,109.7a8.42,8.42,0,0,1-7.31,9.38,8.83,8.83,0,0,1-1.06.07A8.41,8.41,0,0,1,101,450c-10.32-83.24,12.82-177,25.23-219.18a70.81,70.81,0,0,0,16.07,7.64c-1.32,4.52-2.75,9.57-4.23,15.08C131.45,277.91,124.4,308.23,120.51,338.27Zm31.65,61.82a8.47,8.47,0,0,1-7.36,9.34,8.8,8.8,0,0,1-1,.06,8.4,8.4,0,0,1-8.33-7.42c-3.26-27.41-.59-55.21,4.37-82.24,1.12-6.12,16.42-77.64,18.86-77.2,5.54,1,11.39,1.74,17.51,2.27C164.29,284.59,146.64,353.78,152.16,400.08ZM271.62,457.4c-44.77,0-83.78-32.76-103.67-80.85.89-43.49,15.71-98.67,25.51-130.68,0,0,44,0,46.38,0q31.79-.48,63.56,0c16.33.25,31.93.48,46.38,0,9.8,32,24.63,87.21,25.51,130.7C355.39,424.66,316.38,457.4,271.62,457.4Zm136.16-55.33a8.4,8.4,0,0,1-8.33,7.42,8.41,8.41,0,0,1-8.37-9.4c5.51-46.31-12.13-115.5-24-155.19,6.12-.53,12-1.27,17.51-2.27,4.47-.8,17.68,75,19.08,82.44C408.34,350.09,410.8,376.7,407.77,402.07Zm34.47,48a8.41,8.41,0,0,1-8.32,7.37,8.74,8.74,0,0,1-1.05-.07,8.42,8.42,0,0,1-7.31-9.38c4.45-35.89,2.17-74.34-2.8-109.5-3.92-30.35-11.07-61-17.74-85.51-1.43-5.28-2.8-10.12-4.07-14.48A70.86,70.86,0,0,0,417,230.84C429.41,273,452.56,366.78,442.24,450Z"/><path class="cls-1" d="M215.66,118.53a8.11,8.11,0,0,0,1-.07,8.4,8.4,0,1,0-2-16.69c-4.55,0-7.83,5.21-7.33,9.35A8.42,8.42,0,0,0,215.66,118.53Z"/></svg>