<svg id="Слой_1" data-name="Слой 1" xmlns="http://www.w3.org/2000/svg" viewBox="0 0 512 512"><defs><style>.cls-1{fill:#00c5c5;}</style></defs><title>иконки для подкатегорий</title><path class="cls-1" d="M240.91,301.33a8.43,8.43,0,0,0-11.93,0,22.6,22.6,0,0,1-31.93,0,8.44,8.44,0,0,0-11.93,11.93,39.49,39.49,0,0,0,55.79,0A8.44,8.44,0,0,0,240.91,301.33Z"/><path class="cls-1" d="M369.69,301.33a8.44,8.44,0,0,0-11.93,0,22.6,22.6,0,0,1-31.93,0,8.44,8.44,0,0,0-11.93,11.93,39.49,39.49,0,0,0,55.79,0A8.44,8.44,0,0,0,369.69,301.33Z"/><path class="cls-1" d="M341.85,175.61a8.43,8.43,0,0,0-11.91-.65l-.12.1a8.43,8.43,0,1,0,11.26,12.56l.12-.1A8.43,8.43,0,0,0,341.85,175.61Z"/><path class="cls-1" d="M327.08,391.8a9.73,9.73,0,0,0-6.13-8.26l-.14-.05a26.68,26.68,0,0,1-10.95-7.88,23.93,23.93,0,0,0-32.45-4.16A23.93,23.93,0,0,0,245,375.6a26.67,26.67,0,0,1-11,7.88l-.12,0a9.82,9.82,0,0,0-1.37,17.57c1.29.77,3.49,3.1,5.62,5.36,7.56,8,19,20.1,39.22,20.14h.11c20.25,0,31.66-12.13,39.22-20.14,2.13-2.26,4.33-4.59,5.62-5.36A9.79,9.79,0,0,0,327.08,391.8Zm-22.66,3.08c-6.56,7-14,14.83-27,14.84s-20.44-7.89-27-14.84l-.76-.8a43.53,43.53,0,0,0,8.32-7.73,7.06,7.06,0,0,1,10.56-.38l2.79,2.92a8.43,8.43,0,0,0,12.2,0L286.3,386a7.06,7.06,0,0,1,10.56.38,43.55,43.55,0,0,0,8.31,7.73Z"/><path class="cls-1" d="M457.08,293.8a36.56,36.56,0,0,0-32.8-36.24V244.32a146.69,146.69,0,0,0-61.76-119.58,86,86,0,0,0-170,0,146.69,146.69,0,0,0-61.76,119.58v13.23a36.56,36.56,0,0,0-33,36.26l0,21.37a36.5,36.5,0,0,0,36.5,36.56,8.44,8.44,0,1,0,0-16.87,19.63,19.63,0,0,1-19.63-19.66l0-21.37a19.66,19.66,0,0,1,16.14-19.27v37.28a8.44,8.44,0,0,0,16.87,0V287.73l3.64-.82A420.4,420.4,0,0,0,286.9,229.54a150.63,150.63,0,0,0,119.55,58.94h1v10a173.64,173.64,0,0,1-130,168.29,172.76,172.76,0,0,1-89.32-56.68,8.44,8.44,0,1,0-12.94,10.82,189.56,189.56,0,0,0,100.22,62.75,8.44,8.44,0,0,0,4.07,0l.14,0A190.47,190.47,0,0,0,416.74,351.73h3.89a36.5,36.5,0,0,0,36.5-36.56ZM277.52,68.87a69.06,69.06,0,0,1,64.27,43.52,146.58,146.58,0,0,0-128.53,0A69.06,69.06,0,0,1,277.52,68.87Zm129.9,199.07v3.68h-1a133.77,133.77,0,0,1-105.57-51.56q8.76-6.21,17.18-12.86A8.43,8.43,0,1,0,307.6,194a403.12,403.12,0,0,1-160,76.47V244.32a129.9,129.9,0,0,1,259.8,0v23.62Zm27.1,61.16a19.49,19.49,0,0,1-13.7,5.76,192,192,0,0,0,3.47-36.41V274.6a19.67,19.67,0,0,1,15.93,19.24l0,21.37A19.49,19.49,0,0,1,434.52,329.1Z"/><path class="cls-1" d="M200.18,334.25a8.44,8.44,0,0,0-9.43-1.72l-41.53,18.74v0a8.4,8.4,0,0,0-2.51,1.7L63.94,435.77A8.44,8.44,0,0,0,75.87,447.7l72.75-72.75a31.65,31.65,0,0,0,10.86,10.86L96,449.26A8.43,8.43,0,1,0,108,461.19l73.48-73.48a8.37,8.37,0,0,0,1.7-2.5h0l18.74-41.53A8.44,8.44,0,0,0,200.18,334.25ZM170.43,372.4A14.24,14.24,0,0,1,162,364l15.32-6.91Z"/><path class="cls-1" d="M87.74,469.48a8.43,8.43,0,1,0,2.47,6A8.5,8.5,0,0,0,87.74,469.48Z"/></svg>