<svg id="Слой_1" data-name="Слой 1" xmlns="http://www.w3.org/2000/svg" viewBox="0 0 512 512"><defs><style>.cls-1{fill:#00c5c5;}</style></defs><title>иконки для подкатегорий</title><path class="cls-1" d="M411.08,355.21c-6-29.87-34-35-34.07-35h0c-.3-.09,2.57.63-68.34-16.95v-2.41h52.2a19.54,19.54,0,0,0,19.51-19.51V181.79a24.39,24.39,0,0,0,0-11.26V134.2a6.63,6.63,0,0,0-13.26,0v19a34.42,34.42,0,0,0-11.8-4.33,17.29,17.29,0,0,0-14.57-13.32c-7.58-1-13.33-5.42-17.08-13.14a11.36,11.36,0,0,0-19.37-1.77c-11.39,15.51-43.07,50.29-97.76,50.28-4.16,0-7-.2-8-.24A17.53,17.53,0,0,0,180,188.2v15.23a89.91,89.91,0,0,0,27.7,64.74,88.77,88.77,0,0,0,19.15,13.93v5.51h-52a6.26,6.26,0,0,1-6.26-6.26V132.41c0-48.29,39.37-88.07,86.93-88.07H256c17,.09,36.71,4.93,50.12,12.33,8.5,4.69,13.74,1,22.13,1,20.48,0,36.89,21.06,38.86,40,0,.28,0,1.39,0,5.64,0,6.4,7.23,6.89,6.63,6.62a6.63,6.63,0,0,0,6.62-6.63c0-1.18,0-5.79-.1-6.86-2.67-26.37-25.16-52-52.06-52-10.51,0-12.14,2.66-15.73.69-15.2-8.39-37.36-13.87-56.45-14-55-.36-100.72,45.49-100.72,101.33V281.35a19.54,19.54,0,0,0,19.51,19.51h52v2.41L158.8,320.14l-.27.07-5,1.47-.44.15c-8.88,3.31-24.4,12.05-28.66,33.39-20.17,101.34-19.32,97-19.37,97.36-2.43,17.19,6.17,30.94,26.87,30.94h71.68a6.63,6.63,0,0,0,0-13.26H178.69V407.74a6.63,6.63,0,1,0-13.26,0v62.52H132c-8.8,0-13.92-2.83-14-12.08,0-4.51-.21-.11,19.5-100.36,3-14.87,13.76-21.08,20.09-23.48l4.6-1.36,39.09-9.69c43.49,51.23,40.91,48.52,43.43,51,14.51,14.16,35.23,13.16,48.86-2.85l40.94-48.08L373.39,333c1.13.52,20.51,3.93,24.69,24.83,19.55,99.38,19.54,95.83,19.51,100.36-.07,9.06-5,12.09-14,12.09H370.34V407.74a6.63,6.63,0,1,0-13.26,0v62.52H234.56a6.63,6.63,0,0,0,0,13.26h169c16.38,0,27.11-9,27.26-25.24C430.9,450.69,430.45,454.31,411.08,355.21ZM355.75,162.57c5.54,1.65,9.8,5.29,11.37,9.8V180c-1.57,4.51-5.83,8.15-11.37,9.8Zm0,42v-1.22a34.34,34.34,0,0,0,11.37-4.25v82.25a6.26,6.26,0,0,1-6.26,6.26h-52.2v-5.12A87.75,87.75,0,0,0,355.75,204.58Zm-138.88,54a76.59,76.59,0,0,1-23.6-55.16c.39-14.43-1-16.18,1.35-18.35a4.18,4.18,0,0,1,3.15-1.14c47.53,2.86,88.4-18,115.39-53,7.28,12.78,17.95,16.76,25.86,17.8a4,4,0,0,1,3.47,3.93v51.94C342.5,270.53,263.54,303.12,216.88,258.58Zm66.54,104.23c-9.24,10.85-22.16,10.82-31.38-.05l-13.83-16.32h59.15Zm25.23-29.64H227l-11.39-13.45,19.51-4.84a6.7,6.7,0,0,0,5-6.5V287.88a87.8,87.8,0,0,0,55.27.19c.12,21.19-.28,20.7.37,22.57a6.63,6.63,0,0,0,4.66,4.25l19.63,4.87Z"/></svg>