<svg id="Слой_1" data-name="Слой 1" xmlns="http://www.w3.org/2000/svg" viewBox="0 0 512 512"><defs><style>.cls-1{fill:#00c5c5;}</style></defs><title>иконки для подкатегорий</title><path class="cls-1" d="M377.34,218.08V216a5.46,5.46,0,0,1,5.46-5.46h1a5.46,5.46,0,0,0,5.46-5.46v-2.45a5.46,5.46,0,0,0-5.46-5.46h-1a5.46,5.46,0,0,1-5.46-5.46V176.24a5.46,5.46,0,0,0-5.46-5.46h-260a5.46,5.46,0,0,0-5.46,5.46v15.46a5.46,5.46,0,0,1-5.46,5.46h-1a5.46,5.46,0,0,0-5.46,5.46v2.45a5.46,5.46,0,0,0,5.46,5.46h1a5.46,5.46,0,0,1,5.46,5.46v2.08a5.46,5.46,0,0,1-5.46,5.46h-17A5.46,5.46,0,0,0,78.44,229V454.52a5.46,5.46,0,0,0,1.6,3.86l27.11,27.11a5.46,5.46,0,0,0,3.86,1.6H372.74a5.46,5.46,0,0,0,3.86-1.6l27.11-27.11a5.46,5.46,0,0,0,1.6-3.86V229a5.46,5.46,0,0,0-5.46-5.46h-17A5.46,5.46,0,0,1,377.34,218.08ZM125.25,184.16H358.49a5.46,5.46,0,0,1,5.46,5.46v2.07a5.46,5.46,0,0,1-5.46,5.46H125.25a5.46,5.46,0,0,1-5.46-5.46v-2.07A5.46,5.46,0,0,1,125.25,184.16Zm0,26.39H358.49A5.46,5.46,0,0,1,364,216v2.08a5.46,5.46,0,0,1-5.46,5.46H125.25a5.46,5.46,0,0,1-5.46-5.46V216A5.46,5.46,0,0,1,125.25,210.54ZM390.33,452.84,371.06,472.1a5.46,5.46,0,0,1-3.86,1.6H116.55a5.46,5.46,0,0,1-3.86-1.6L110.61,470a5.46,5.46,0,0,1,3.86-9.33H205.8a5.46,5.46,0,0,0,5.46-5.46v-2.45a5.46,5.46,0,0,0-5.46-5.46H97.28a5.46,5.46,0,0,1-5.46-5.46V242.39a5.46,5.46,0,0,1,5.46-5.46H386.46a5.46,5.46,0,0,1,5.46,5.46V449A5.46,5.46,0,0,1,390.33,452.84Z"/><rect class="cls-1" x="363.96" y="310.74" width="13.38" height="120.61" rx="6.69" ry="6.69"/><path class="cls-1" d="M271,49.09H242.73a4.31,4.31,0,0,1-4.31-4.31V30.32a0,0,0,0,0,0,0H178.6C160,30.29,145,45.54,146.1,64.14A31.9,31.9,0,0,0,177.9,94h4.27a0,0,0,0,1,0,0v49.62c0,10.1,7.84,18.73,17.93,19.1a18.64,18.64,0,0,0,19.3-18.6V123.34a3,3,0,0,1,2.39-3,3,3,0,0,1,3.51,2.9v36.39a0,0,0,0,0,0,0h13.31a0,0,0,0,0,0,0V123.69a16.52,16.52,0,0,0-17.63-16.78,16.35,16.35,0,0,0-15,16.28v20.7a5.41,5.41,0,0,1-4.74,5.48,5.24,5.24,0,0,1-5.72-5.21V94a0,0,0,0,1,0,0h20.3a0,0,0,0,0,0,0V80.66a0,0,0,0,0,0,0H178.39c-10,0-18.59-7.78-19-17.8A18.5,18.5,0,0,1,177.9,43.67H225a0,0,0,0,1,0,0v1.07a17.7,17.7,0,0,0,17.7,17.7h27.89A9.31,9.31,0,0,1,280,71,9.08,9.08,0,0,1,271,80.63H252.13a0,0,0,0,0,0,0v78.92a0,0,0,0,0,0,0h13.31a0,0,0,0,0,0,0V94a0,0,0,0,1,0,0h4.88c12.18,0,22.59-9.45,23-21.63A22.48,22.48,0,0,0,271,49.09Z"/><rect class="cls-1" x="172.4" y="52.59" width="40.34" height="13.38"/><path class="cls-1" d="M454.63,30.29h-205a0,0,0,0,0,0,0V43.63a0,0,0,0,0,0,0H454.84c10,0,18.6,7.78,19,17.8a18.5,18.5,0,0,1-18.47,19.16h-122a0,0,0,0,1,0,0v-14a0,0,0,0,0,0,0H319.94a0,0,0,0,0,0,0v14a0,0,0,0,1,0,0H297.78a0,0,0,0,0,0,0V94a0,0,0,0,0,0,0H455.33a31.9,31.9,0,0,0,31.8-29.87C488.28,45.54,473.26,30.29,454.63,30.29Z"/><rect class="cls-1" x="110.39" y="251.99" width="76.13" height="13.38" rx="6.69" ry="6.69"/><path class="cls-1" d="M323.49,313.06c-1.09-.8-26-18.85-49.57-13.44-2.15-24.06-27-42.18-28.14-43l-3.9-2.8-3.9,2.8c-1.1.79-26,18.91-28.14,43-23.55-5.41-48.48,12.64-49.57,13.44l-3.87,2.84,1.45,4.57c.41,1.3,9.92,30.57,32.14,40.07-12.44,20.71-3,50-2.58,51.3l1.5,4.56,4.8,0h.16c2.75,0,32.53-.43,48-18.27,15.49,17.85,45.26,18.27,48,18.27H290l4.8,0,1.5-4.56c.43-1.29,9.86-30.59-2.58-51.3,22.21-9.5,31.73-38.77,32.14-40.07l1.45-4.57Zm-151.07,8.06c7.42-4.41,23.24-12.21,36.46-7.9a24.08,24.08,0,0,1,2.5,1,55,55,0,0,0,7.41,15.12l-18.91-6.07L195.78,336l29.46,9.46a65.06,65.06,0,0,1-9,3.22l-.06,0-.12,0c-6.25,1.65-12.89,2.2-18.8.27C184,344.68,175.81,329.06,172.41,321.12ZM233,387.84c-8.21,11.26-25.64,14.19-34.22,15-2.18-9.65-3.85-26.58,3.83-37.12a24.1,24.1,0,0,1,1.7-2.08A54.91,54.91,0,0,0,221,361.24l-11.63,16.1,10.85,7.84,18.13-25.09q.08.78.15,1.59C239.14,370.48,238.25,380.65,233,387.84Zm2.17-90.34v31.06q-.55-.61-1.11-1.26c-5.72-6.72-11-15.47-11-24.38,0-13.93,12.36-26.57,18.84-32.25,7.45,6.51,18.78,19.21,18.78,32.25a24.06,24.06,0,0,1-.15,2.68,54.84,54.84,0,0,0-12,11.58V297.5Zm49.73,105.29c-8.6-.77-26-3.72-34.18-15a24.31,24.31,0,0,1-1.56-2.44A55.15,55.15,0,0,0,252,369l11.7,16,10.81-7.89-18.29-25.09a65,65,0,0,1,9.49,2.77c6,2.32,11.73,5.77,15.39,10.79C289.32,376.91,286.81,394.37,284.92,402.79Zm1.61-53.8a24,24,0,0,1-2.6.69,54.86,54.86,0,0,0-14.72-7.79l18.72-6.1-4.15-12.72-29.53,9.62c3.6-6.25,8.83-13.23,15.75-17.26l.51-.3a25.16,25.16,0,0,1,4.36-1.91c13.22-4.31,29,3.49,36.46,7.9C307.93,329.06,299.75,344.68,286.53,349Z"/></svg>