<svg id="Слой_1" data-name="Слой 1" xmlns="http://www.w3.org/2000/svg" viewBox="0 0 512 512"><defs><style>.cls-1{fill:#00c5c5;}</style></defs><title>иконки для подкатегорий</title><path class="cls-1" d="M478.25,241.5l-20.06-100.3a36.91,36.91,0,0,0-12.12-20.7L402.33,83a7.36,7.36,0,0,0-4.78-1.77H379.88c-2.72-1.82-5.59-3.62-8.68-5.46l-5-32.41-14.53,2.23L366.28,152,349,140.53a27.75,27.75,0,0,0-33.66,44l46.84,41,18.2,36.4,1.79,14a7.05,7.05,0,0,1-5.29,7l-.49.14a7,7,0,0,1-5.61-1.4,6.89,6.89,0,0,1-2.66-5.44V265h-14.7v18.23a7,7,0,0,1-5.33,6.77l-.31.09-.52.16a7,7,0,0,1-5.88-1.35,6.89,6.89,0,0,1-2.66-5.44V265H324v22a7.31,7.31,0,0,1-6.43,7.26,8.89,8.89,0,0,1-.92.09,7,7,0,0,1-5.1-2.11l-.14-.14a7,7,0,0,1-2.11-5.09V265h-14.7v18.37a10.74,10.74,0,0,1-1.78,6l-.06.08a11,11,0,0,1-20.21-6.08V44.5H257.9V334.82a11,11,0,1,1-22,0V316.44h-14.7v22a7,7,0,0,1-2.11,5.1l-.14.14a7,7,0,0,1-5.09,2.11,7.36,7.36,0,0,1-7.35-7.35v-22h-14.7v18.45a6.89,6.89,0,0,1-2.66,5.44,7,7,0,0,1-5.88,1.35l-.52-.16-.31-.09a7,7,0,0,1-5.33-6.77V316.44h-14.7v11.1a6.89,6.89,0,0,1-2.66,5.44,7,7,0,0,1-5.61,1.4l-.48-.14a7,7,0,0,1-4.66-3.94l12-24,46.84-41a27.75,27.75,0,0,0-33.66-44l-13,8.68,7.82-59.66,7.42-56.74,5.8-44,3.42-23.45L171,44.05,168.16,63.5A220.75,220.75,0,0,0,44.92,322.21l0,.15a7.39,7.39,0,0,0-.13,1.09L37.41,477.79a7.35,7.35,0,0,0,7,7.69h88.55a7.35,7.35,0,0,0,7.35-7.35c0-.15,0-.31,0-.46l-1.7-27.23a220.6,220.6,0,0,0,232.15,4l-2.54,22.89a7.35,7.35,0,0,0,7.3,8.16H471a7.35,7.35,0,0,0,7.35-7.35V242.95a7.37,7.37,0,0,0-.14-1.44ZM149.32,348.31a38.42,38.42,0,0,0,6,.89,21.55,21.55,0,0,0,10.49-2.73,21.76,21.76,0,0,0,12.75,9.17l.6.18a41,41,0,0,0,5.57.73A21.58,21.58,0,0,0,197,352.74a22,22,0,0,0,16.81,7.8,21.62,21.62,0,0,0,15.56-6.49l.21-.22a25.7,25.7,0,0,0,43-19V306.64a25.87,25.87,0,0,0,28.35-4.23l.19.2a21.62,21.62,0,0,0,15.56,6.49,20.75,20.75,0,0,0,2.72-.2,21.89,21.89,0,0,0,14.08-7.61,21.57,21.57,0,0,0,12.23,3.82,49.3,49.3,0,0,0,6.17-.91A21.76,21.76,0,0,0,364.64,295a21.54,21.54,0,0,0,10.49,2.73,22,22,0,0,0,5.2-.63,7.38,7.38,0,0,0,.85-.26,21.58,21.58,0,0,0,7.5-3.9l-10,90.31A168.8,168.8,0,0,1,276.42,433a19.5,19.5,0,0,0-2.2-25,37.08,37.08,0,0,0-3.93-3.41,37.26,37.26,0,0,0,3.93-3.41,19.53,19.53,0,1,0-27.44-27.79l-.18.18a37.26,37.26,0,0,0-3.41,3.93,37.37,37.37,0,0,0-3.41-3.93,19.53,19.53,0,0,0-27.62,27.62,37.08,37.08,0,0,0,3.93,3.41,37.26,37.26,0,0,0-3.93,3.41,19.39,19.39,0,0,0-5.72,13.81,19.64,19.64,0,0,0,.48,4.26,169.68,169.68,0,0,1-72.74-45.93l-1.13-18.14,8.8-17.59a21.68,21.68,0,0,0,7.46,3.85Zm71.83,39.11a4.83,4.83,0,0,1,8.24-3.41,21.88,21.88,0,0,1,6.33,13.15,21.87,21.87,0,0,1-13.15-6.33,4.79,4.79,0,0,1-1.41-3.41Zm29.53,9.74A21.88,21.88,0,0,1,257,384a4.83,4.83,0,0,1,6.92,6.74l-.09.09A21.87,21.87,0,0,1,250.68,397.16Zm13.15,28.12a4.83,4.83,0,0,1-6.83,0,21.88,21.88,0,0,1-6.33-13.15,21.87,21.87,0,0,1,13.15,6.33A4.83,4.83,0,0,1,263.83,425.28Zm-41.27-6.83a21.87,21.87,0,0,1,13.15-6.32,21.88,21.88,0,0,1-6.33,13.15,4.83,4.83,0,1,1-6.88-6.78Zm20.63,13.29c.46.61.94,1.19,1.43,1.78-.89-.07-1.77-.16-2.66-.24q.63-.75,1.22-1.53ZM125.6,162.1a7.35,7.35,0,0,0-1.95.26,169.89,169.89,0,0,1,36-34.87l-4.53,34.61ZM52.1,265A205.59,205.59,0,0,1,165.81,80.88l-3.6,27.34a184.18,184.18,0,0,0-72.11,82l-13,11.17A36.91,36.91,0,0,0,65,222.06L52.84,282.61q-.74-8.75-.74-17.62Zm.36,205.79,7-146.1,20-99.76a22.15,22.15,0,0,1,7.27-12.42l41.68-35.72h24.92l-8.4,64.09-16,10.64L137,263.76l45.23-30.16a13,13,0,0,1,15.83,20.67l-47.93,41.94a7.34,7.34,0,0,0-1.73,2.24L119,357.26a7.35,7.35,0,0,0-.76,3.75l6.86,109.79Zm205.44,0a203.68,203.68,0,0,1-120.48-39l-1.86-29.76a183.68,183.68,0,0,0,240.6,3.53l-3.34,30.09a204.1,204.1,0,0,1-114.92,35.1Zm205.79,0h-80l21.14-190.28a7.35,7.35,0,0,0-.73-4.1l-29.4-58.8a7.34,7.34,0,0,0-1.73-2.24l-47.92-41.94a13,13,0,0,1,15.83-20.67l45.23,30.16,8.15-12.23-11.77-7.85L373.86,96h21l41.68,35.73a22.15,22.15,0,0,1,7.27,12.42l19.92,99.58V470.79Z"/><path class="cls-1" d="M299.9,380.29a37.23,37.23,0,0,0,5.2-.37,37.22,37.22,0,0,0-.37,5.19,19.53,19.53,0,1,0,39.06,0,37.38,37.38,0,0,0-.37-5.2,37.22,37.22,0,0,0,5.19.37,19.53,19.53,0,0,0,0-39.06,37.38,37.38,0,0,0-5.2.37,37.22,37.22,0,0,0,.37-5.19,19.53,19.53,0,1,0-39.06,0,37.36,37.36,0,0,0,.37,5.19,37.35,37.35,0,0,0-5.19-.37,19.53,19.53,0,0,0,0,39.06Zm29.18,4.83a4.83,4.83,0,1,1-9.65.13s0-.09,0-.13a21.88,21.88,0,0,1,4.83-13.77,21.88,21.88,0,0,1,4.83,13.77Zm24.36-24.36a4.83,4.83,0,0,1-4.83,4.83,21.88,21.88,0,0,1-13.77-4.83,21.89,21.89,0,0,1,13.77-4.83A4.83,4.83,0,0,1,353.44,360.76Zm-29.18-29.18a4.83,4.83,0,0,1,4.83,4.83,21.88,21.88,0,0,1-4.83,13.77,21.89,21.89,0,0,1-4.83-13.77A4.83,4.83,0,0,1,324.26,331.58ZM299.9,355.93a21.89,21.89,0,0,1,13.77,4.83,21.88,21.88,0,0,1-13.77,4.83,4.83,4.83,0,0,1,0-9.66Z"/></svg>