<svg id="Слой_1" data-name="Слой 1" xmlns="http://www.w3.org/2000/svg" viewBox="0 0 512 512"><defs><style>.cls-1{fill:#00c5c5;}</style></defs><title>иконки для подкатегорий</title><path class="cls-1" d="M89.41,143.59a9.55,9.55,0,0,0,13.09-3.39,80.31,80.31,0,0,1,7.67-10.85,79,79,0,0,1,109.91-11.47,9.56,9.56,0,1,0,11.81-15A98.49,98.49,0,0,0,95.52,117.07,99.27,99.27,0,0,0,86,130.5,9.56,9.56,0,0,0,89.41,143.59Z"/><path class="cls-1" d="M336.32,117.88a79,79,0,0,1,109.92,11.48,80.18,80.18,0,0,1,7.66,10.84,9.56,9.56,0,1,0,16.47-9.7,99.29,99.29,0,0,0-9.48-13.42,98.5,98.5,0,0,0-136.39-14.23,9.56,9.56,0,1,0,11.81,15Z"/><path class="cls-1" d="M375.6,361a10.73,10.73,0,0,1-6,3.11c-8.72-.28-16.4-8.2-25.26-17.37-14.55-15.06-34.21-35.39-66.19-17.59-32-17.81-51.63,2.53-66.19,17.59-8.86,9.16-16.53,17.08-25.25,17.37a10.73,10.73,0,0,1-6-3.11,9.56,9.56,0,0,0-13.52,13.52,29.31,29.31,0,0,0,18,8.68h0c8,.92,16.53-.83,24.86-2.55,8-1.64,16.18-3.34,25.12-3.34,6.67,0,11.32,2.87,17.2,6.51,6.8,4.21,14.51,9,25.7,9s18.9-4.77,25.7-9c5.88-3.64,10.53-6.51,17.2-6.51,8.94,0,17.16,1.7,25.12,3.34,8.34,1.72,16.83,3.47,24.87,2.55h0a29.3,29.3,0,0,0,18-8.69A9.56,9.56,0,0,0,375.6,361Zm-81.78,6.57c-5.52,3.42-9.88,6.11-15.64,6.11s-10.12-2.7-15.64-6.11c-6.75-4.18-15.15-9.37-27.26-9.37-2.79,0-5.49.13-8.11.36,15.76-16.19,25.45-23.65,45.74-10.24a9.55,9.55,0,0,0,10.54,0c20.29-13.41,30-6,45.74,10.24-2.62-.22-5.32-.36-8.11-.36C309,358.19,300.57,363.38,293.82,367.56Z"/><path class="cls-1" d="M470,206.86a99.34,99.34,0,0,0-15.22-17l0,0-.13-.11-.24-.19-.45-.36-.33-.23-.45-.29-.4-.22-.42-.21-.48-.2-.37-.14-.54-.17-.34-.1-.57-.12-.33-.06-.58-.06-.33,0h-.92l-.56,0-.36,0-.55.1-.36.07-.55.16-.33.1-.57.22-.28.12c-.2.09-.4.2-.6.31l-.22.12c-.21.12-.42.26-.62.4l-.17.12c-.21.15-.4.31-.6.48l-.13.1A79.16,79.16,0,0,1,421,203l-.41.18a79.94,79.94,0,0,1-48.69,4.46l-.21,0a79.14,79.14,0,0,1-22.77-9l-.47-.27a79.46,79.46,0,0,1-11.8-8.63A9.56,9.56,0,1,0,324,204q3.69,3.26,7.62,6.08a80,80,0,0,1-5.79,8.95,9.56,9.56,0,1,0,15.31,11.44,99.2,99.2,0,0,0,7-10.77A98.26,98.26,0,0,0,359.2,224a80.16,80.16,0,0,1-2.74,10.29,9.56,9.56,0,1,0,18.1,6.15A99.19,99.19,0,0,0,377.9,228a99.49,99.49,0,0,0,11.42.68h.42a80,80,0,0,1,.58,10.66,9.56,9.56,0,0,0,9.43,9.69h.13a9.56,9.56,0,0,0,9.55-9.43,99.14,99.14,0,0,0-.67-12.85,98.87,98.87,0,0,0,11.48-3,80.31,80.31,0,0,1,3.84,9.94A9.56,9.56,0,1,0,442.33,228a99.29,99.29,0,0,0-4.6-12,98.14,98.14,0,0,0,10-6.42,80.15,80.15,0,0,1,6.72,8.27,9.56,9.56,0,0,0,15.62-11Z"/><path class="cls-1" d="M244,278l11.88,4.92a9.56,9.56,0,1,0,7.32-17.66l-11.88-4.92A9.56,9.56,0,0,0,244,278Z"/><path class="cls-1" d="M296.84,283.63a9.52,9.52,0,0,0,3.65-.73L312.37,278a9.56,9.56,0,1,0-7.32-17.66l-11.88,4.92a9.56,9.56,0,0,0,3.66,18.39Z"/><path class="cls-1" d="M338.88,385.22a9.56,9.56,0,0,0-13.3,2.39,57.68,57.68,0,0,1-94.8,0,9.56,9.56,0,1,0-15.69,10.92,76.8,76.8,0,0,0,126.19,0A9.56,9.56,0,0,0,338.88,385.22Z"/><path class="cls-1" d="M166.66,228.7h.42A99.49,99.49,0,0,0,178.5,228a99.24,99.24,0,0,0,3.33,12.44,9.56,9.56,0,0,0,18.1-6.15A80.21,80.21,0,0,1,197.2,224a98.33,98.33,0,0,0,11.06-4.3,99.17,99.17,0,0,0,7,10.78,9.56,9.56,0,1,0,15.31-11.44,80.12,80.12,0,0,1-5.79-8.95q3.92-2.83,7.62-6.08a9.56,9.56,0,1,0-12.66-14.32,79.49,79.49,0,0,1-11.8,8.63l-.47.27a79.18,79.18,0,0,1-22.78,9l-.2,0a80,80,0,0,1-48.69-4.46l-.42-.19a79.17,79.17,0,0,1-21-13.33l-.13-.1c-.19-.17-.39-.32-.59-.47l-.2-.13c-.19-.13-.39-.26-.59-.38l-.27-.14-.55-.28-.34-.14-.51-.2-.4-.13-.48-.13-.43-.09-.47-.09-.44,0-.48,0h-.92l-.4,0-.52.06-.38.07-.52.11-.38.11-.5.16-.4.16-.45.19-.43.22-.39.21-.46.3-.33.22c-.15.11-.3.24-.45.36l-.24.19-.13.11-.05,0a99.25,99.25,0,0,0-15.22,17,9.56,9.56,0,1,0,15.62,11,80,80,0,0,1,6.72-8.27,98,98,0,0,0,10,6.42,99.16,99.16,0,0,0-4.6,12,9.56,9.56,0,1,0,18.26,5.66,80.09,80.09,0,0,1,3.83-9.94,98.45,98.45,0,0,0,11.48,3,99.12,99.12,0,0,0-.67,12.85,9.56,9.56,0,0,0,9.55,9.43h.13a9.56,9.56,0,0,0,9.43-9.69A80.61,80.61,0,0,1,166.66,228.7Z"/></svg>