<svg id="Слой_1" data-name="Слой 1" xmlns="http://www.w3.org/2000/svg" viewBox="0 0 512 512"><defs><style>.cls-1{fill:#00c5c5;}</style></defs><title>иконки для подкатегорий</title><path class="cls-1" d="M326.86,107.88a9,9,0,1,0,9,9A9,9,0,0,0,326.86,107.88Z"/><path class="cls-1" d="M417.18,258.61c-10.24-36.71-54.85-94.34-49.31-195.32a9,9,0,0,0-9-9.51H150.6a9,9,0,0,0-9,9.51c5.51,100.51-39,158.73-49.38,195.24C73.4,324.36,104.1,409.38,147.12,465a9,9,0,0,0,7.13,3.5h201a9,9,0,0,0,7.13-3.5C403.3,412.08,435.37,323.58,417.18,258.61ZM136.12,201.8C153,159,161,115.31,160,71.82H349.49c-1.06,43.47,7,87.14,23.85,130q1.07,2.72,2.24,5.49A283.25,283.25,0,0,1,254.73,234.1a283.26,283.26,0,0,1-120.85-26.83Q135,204.53,136.12,201.8Zm109.6,248.68h-87C112.28,388.41,98.42,318,107.31,272.86c48.82,18.74,95.08,59.13,138.41,92ZM112.18,255.42a259.86,259.86,0,0,1,11-25q1.6-3.31,3.25-6.75a301.4,301.4,0,0,0,128.26,28.42A301.4,301.4,0,0,0,383,223.72q1.64,3.44,3.24,6.73c4.23,8.74,8,16.58,11,25-51.53,19.4-100.1,61.31-142.52,93.59C212.13,316.61,163.72,274.81,112.18,255.42ZM350.74,450.48h-87V364.81c43.64-33.06,89.61-73.17,138.27-91.9C412.74,329.89,384.78,404.48,350.74,450.48Z"/><path class="cls-1" d="M348.9,187.17a361.67,361.67,0,0,1-9.84-36.26,9,9,0,0,0-17.63,3.8,380.12,380.12,0,0,0,10.33,38.07,9,9,0,0,0,17.14-5.61Z"/></svg>