<svg id="Слой_1" data-name="Слой 1" xmlns="http://www.w3.org/2000/svg" viewBox="0 0 512 512"><defs><style>.cls-1{fill:#00c5c5;}</style></defs><title>иконки для подкатегорий</title><circle class="cls-1" cx="305.66" cy="193.9" r="7.4"/><circle class="cls-1" cx="216.9" cy="193.9" r="7.4"/><path class="cls-1" d="M290.87,260.47H276.08a14.79,14.79,0,0,1-29.59,0H231.69a29.59,29.59,0,0,0,59.18,0Z"/><path class="cls-1" d="M195.18,109.46l-12-8.64a96.43,96.43,0,0,0-9.33,16L187.28,123A81.75,81.75,0,0,1,195.18,109.46Z"/><path class="cls-1" d="M261.28,75.55V60.75a96.06,96.06,0,0,0-63.61,24l9.79,11.09A81.31,81.31,0,0,1,261.28,75.55Z"/><path class="cls-1" d="M387.94,373.57l-75.89-31.05A22.1,22.1,0,0,1,298.27,322v-5.31a136.9,136.9,0,0,0,50-63.59H350a37,37,0,0,0,37-37V128.24A46.38,46.38,0,0,0,354.2,83.83l-9.56-11.15A118.87,118.87,0,0,0,135.53,150v66.06a37,37,0,0,0,37,37h1.78a136.94,136.94,0,0,0,50,63.59V322a22.09,22.09,0,0,1-13.79,20.53l-75.89,31A117.16,117.16,0,0,0,61.56,482.38v7.4H461v-7.4a117.15,117.15,0,0,0-73.06-108.82Zm-78.17-16-8.92,44.6-28.18-23.48,28.65-25.07a38.32,38.32,0,0,0,5.13,2.59Zm-48.49,30.89,7.63,6.36-.13,0L282.14,475H240.42l13.36-80.15-.13,0ZM353.11,238a137.38,137.38,0,0,0,4.33-34.08v-8.63A22.07,22.07,0,0,1,353.11,238ZM254.39,46a104,104,0,0,1,79,36.34L346,96.94l2.29.58a31.62,31.62,0,0,1,24,30.72V186.7a36.63,36.63,0,0,0-14.79-6.83v-6.18a37.17,37.17,0,0,0-18-31.71l-27.58-16.55-21.74,21.74-28.89-21.68-28.89,21.67-21.74-21.74L183.07,142a37.16,37.16,0,0,0-18,31.71v6.18a36.73,36.73,0,0,0-14.79,6.83V150A104.19,104.19,0,0,1,254.39,46ZM150.33,216.09a22.16,22.16,0,0,1,14.79-20.83v8.63A137.38,137.38,0,0,0,169.45,238,22.16,22.16,0,0,1,150.33,216.09Zm29.59-12.2V173.67a22.29,22.29,0,0,1,10.78-19L208.36,144,231,166.69,261.28,144l30.28,22.71L314.21,144l17.67,10.6a22.31,22.31,0,0,1,10.77,19v30.22a122.24,122.24,0,0,1-81.37,115.33,122.23,122.23,0,0,1-81.37-115.33Zm79,130.17,2.34.78,2.34-.78a138.25,138.25,0,0,0,20.11-8.52,36.75,36.75,0,0,0,6.69,18L261.28,369l-29.14-25.5a36.75,36.75,0,0,0,6.69-18,137.58,137.58,0,0,0,20.12,8.54Zm-37.7,19.55,28.65,25.07-28.18,23.48-8.92-44.6,3.31-1.35a36.33,36.33,0,0,0,5.14-2.59Zm-81,33.63,58.63-24,13.23,66.18,24.31-20.26-11,65.8h-75.1V430.61H135.53V475H76.61a102.39,102.39,0,0,1,63.61-87.74ZM387,475V430.61H372.24V475h-75.1l-11-65.79,24.31,20.26,13.23-66.18,58.63,24A102.37,102.37,0,0,1,445.95,475H387Z"/><path class="cls-1" d="M313.06,445.4h29.59v14.79H313.06Z"/><path class="cls-1" d="M179.91,445.4H209.5v14.79H179.91Z"/></svg>