<svg id="Слой_1" data-name="Слой 1" xmlns="http://www.w3.org/2000/svg" viewBox="0 0 512 512"><defs><style>.cls-1{fill:#00c5c5;}</style></defs><title>иконки для подкатегорий</title><path class="cls-1" d="M453.08,345.28a163,163,0,0,0-6.76-34.13l-.48.15c-.09-.28-18.29-52.24-18.29-52.24h0l-6.67-18.92a70.9,70.9,0,0,1-3.76-30.48,68.49,68.49,0,0,1,1.07-7.35l7.28-36.39c.54-2.67,1.64-13.82,1.64-16.59V130.54a51.93,51.93,0,0,0,19.07-70.92q-1.13-2-2.43-3.82A6.5,6.5,0,0,0,438.41,53H233.73a6.5,6.5,0,0,0-5.33,2.78,51.93,51.93,0,0,0,12.82,72.32q1.86,1.3,3.82,2.43v18.77c0,.41,0,.82,0,1.23H233.83a32.54,32.54,0,0,0-22.71-23.89s-30.84-8.66-31.63-8.6l-77.75,6.48H69.5A6.5,6.5,0,0,0,63,131v45.51a6.5,6.5,0,0,0,6.5,6.5H99.64a54,54,0,0,0,31,12,59.79,59.79,0,0,0,30-6.42l12.82,3.51v16.93a6.5,6.5,0,0,0,6.5,6.5h58.52v-13h-52v-6.88s14.72,3.78,16.47,3.78a19.77,19.77,0,0,0,19-14.68l0-.11.05-.2a20,20,0,0,0,.59-4.8,19.71,19.71,0,0,0-8.35-16.12h31.89c.13.79.28,1.57.43,2.35L254,202.3a68.81,68.81,0,0,1,1.07,7.36,70.87,70.87,0,0,1-3.76,30.46s-23.66,67.11-23.88,67.78l-88.1,24.26a6.5,6.5,0,0,0-4.78,6.26v24.71a59.86,59.86,0,0,0-23.38-3.52,52.64,52.64,0,0,0-17.66,4,55,55,0,0,0-13.34,8H69.5a6.5,6.5,0,0,0-6.5,6.5v45.51a6.5,6.5,0,0,0,6.5,6.5H82.23L160,436.59l.54,0c.6,0,31.09-8.62,31.09-8.62a32.54,32.54,0,0,0,23.24-26.66L217.33,384l1.71-.5v59.61h13V379.71l34-9.93,44,18.86v54.48h13v-52h26v52h13v-54l78-33.42c0,1.2,0,87.39,0,87.39h13s.06-96.87,0-97.83ZM167,150.54a6.5,6.5,0,0,0-1.58,12.81l39.15,9.78a6.74,6.74,0,0,1,5.12,6.54,7,7,0,0,1-.19,1.58l0,.07,0,.1a6.75,6.75,0,0,1-8.24,4.81l-.07,0-39.54-10.82a6.5,6.5,0,0,0-4.92.61,46.79,46.79,0,0,1-25.41,6,41.14,41.14,0,0,1-25-10.38A6.5,6.5,0,0,0,102,170H76V137.54h26l.54,0,76.84-6.4,28.15,8a19.54,19.54,0,0,1,12.7,11.38Zm96.51,93.91a85.08,85.08,0,0,0,4.81-28.9H369.64L261.3,250.81Zm145.06,0,3.57,10.12H291.78l112-36.46a85,85,0,0,0,4.78,26.34ZM255.39,267.57H373.87L242.64,303.7ZM232,85.52A38.7,38.7,0,0,1,237.29,66H434.85a39,39,0,0,1-33.76,58.52h-130A39.05,39.05,0,0,1,232,85.52Zm26,63.79V135.89a52,52,0,0,0,13,1.65h130a52,52,0,0,0,13-1.65v13.42c0,.41,0,.82,0,1.23h-156c0-.41,0-.82,0-1.23Zm154.61,14.23-7.24,36.19c-.19.93-.35,1.88-.51,2.82H267.23c-.16-.94-.32-1.88-.51-2.81l-7.24-36.2Zm-178.43,156,.13,0L417.3,269.1l13.75,39L209.72,372.68h-.05l-6.45,1.89a20,20,0,0,0-.59-4.4,19.75,19.75,0,0,0-23.94-14.39l-.44.11-30.73,8.4V343.38ZM202,399.5a19.52,19.52,0,0,1-13.94,16l-28.16,8L83,417.13l-.54,0H76V384.6h6.5A6.5,6.5,0,0,0,86.8,383a42.25,42.25,0,0,1,11.68-7.34,39.63,39.63,0,0,1,13.3-3,46.91,46.91,0,0,1,25.44,6,6.5,6.5,0,0,0,4.92.61l39.54-10.82a6.75,6.75,0,0,1,8.29,4.72l0,.15a6.91,6.91,0,0,1,.21,1.67,6.75,6.75,0,0,1-2,4.75l-.05,0a6.64,6.64,0,0,1-3.09,1.74l-39.15,9.78a6.5,6.5,0,0,0,1.57,12.81H180a6.5,6.5,0,0,0,5.81-3.59l3.32-6.64a19.73,19.73,0,0,0,6.81-3.64l7.65-2.23Zm116.51-21.4L285.7,364,435,320.48A149.35,149.35,0,0,1,439.07,342l-84.24,36.1Z"/></svg>