<svg id="Слой_1" data-name="Слой 1" xmlns="http://www.w3.org/2000/svg" viewBox="0 0 512 512"><defs><style>.cls-1{fill:#00c5c5;}</style></defs><title>иконки для подкатегорий</title><path class="cls-1" d="M248.93,300.58a8.6,8.6,0,0,0-11.46,4.07l-1.43,3A8.6,8.6,0,1,0,251.57,315l1.43-3A8.6,8.6,0,0,0,248.93,300.58Z"/><path class="cls-1" d="M152.6,250.76a8.6,8.6,0,0,0-12.16,0,18.3,18.3,0,0,1-25.85,0,8.6,8.6,0,1,0-12.16,12.16,35.51,35.51,0,0,0,50.16,0A8.6,8.6,0,0,0,152.6,250.76Z"/><path class="cls-1" d="M442.34,70.73a78,78,0,0,0-109.89-.28,206.86,206.86,0,0,0-30.19-12.08c-34.85-10.92-63.36-10.51-65.84-10.46-46.63,0-87.3,19.6-106.16,51.07A79.31,79.31,0,0,0,124,111.88c-8.89,8.46-49,49.9-49,108.67,0,39.14-18.83,59.57-30,68.27a15.81,15.81,0,0,0,1.94,26.27c4.23,2.38,9,4.66,13.58,6.86,4.07,2,9.84,4.72,12.66,6.53v15.31A16.09,16.09,0,0,1,72,349.87l-2.13,5.25a22.18,22.18,0,0,0,2.79,21.6v1.89a18.73,18.73,0,0,0,6.55,14.24v10.09a39.27,39.27,0,0,0,39.22,39.22h25.38a8.6,8.6,0,0,0,0-17.19H118.41a22.06,22.06,0,0,1-22-22V388.1a8.6,8.6,0,0,0-5.22-7.91l-.37-.16a1.56,1.56,0,0,1-1-1.44v-4.85A8.6,8.6,0,0,0,88,368.43l-1.52-1.93a5,5,0,0,1-.69-4.92l2.13-5.25a33.2,33.2,0,0,0,2.45-12.55v-18.3c0-8.28-8.44-12.33-22.42-19-3.67-1.76-7.44-3.57-10.78-5.36C71,289.81,92.23,265.2,92.23,220.54c0-32.31,14.38-59.24,26.86-76.52.68,15,5.21,30.64,13.6,46.32,22.06,41.26,60.47,58.55,91.34,72.45,29.37,13.22,46,21.54,46.12,38.84.1,12.7-2.82,22.05-8.68,27.78a24,24,0,0,1-15.8,6.44,8.45,8.45,0,0,0-7.35,3.35,8.58,8.58,0,0,0-1.21,8.05,124.42,124.42,0,0,0,20.28,34.82c17.42,21,39.42,32.12,63.94,32.37l23.1,67.71a8.59,8.59,0,1,0,16.27-5.55L338,409.92c42.88-23,73-58.62,87.4-103.52,11.46-35.79,12-75.94,2.32-114a77.94,77.94,0,0,0,14.66-121.7ZM409,301.16c-13.49,42.13-42.45,75.31-83.8,96-20.91.94-39.15-7.7-54.23-25.71a109.57,109.57,0,0,1-13.36-20.39A39.43,39.43,0,0,0,273.2,342c9.52-9.12,14.28-22.74,14.14-40.48-.22-29.16-27.44-41.41-56.26-54.38-30-13.49-63.94-28.78-83.24-64.88-12-22.42-14.81-43.74-8.42-62.44l.08-.21a62.74,62.74,0,0,1,5.5-11.77c15.79-26.35,50.86-42.72,91.53-42.72h.25c.27,0,27.36-.66,60.34,9.67,43.89,13.75,76.22,39.37,96.09,76.14C418.32,197.39,424.22,253.56,409,301.16Zm13.56-125.91a215.57,215.57,0,0,0-14.21-32.51,169,169,0,0,0-60.06-63.47,60.72,60.72,0,1,1,74.27,96Z"/><path class="cls-1" d="M259.37,450.54,232.44,403.9,231.53,372a52.18,52.18,0,0,0-48-50.58,47.68,47.68,0,0,0-46.73,27l-.42.9a52.44,52.44,0,0,0,18.68,66.14L181.88,433l29.29,50.72a8.6,8.6,0,0,0,14.89-8.6L200,430l10.37-6,10.37-6,23.72,41.08a8.59,8.59,0,0,0,14.89-8.59Zm-70.8-33.74-24.11-15.72a35.19,35.19,0,0,1-12.54-44.38l.42-.9a30.44,30.44,0,0,1,27.38-17.3q1.21,0,2.42.1a35,35,0,0,1,32.2,33.94l.83,28.89Z"/><path class="cls-1" d="M272.25,473.43a8.59,8.59,0,1,0,2.52,6.08A8.66,8.66,0,0,0,272.25,473.43Z"/><path class="cls-1" d="M201.81,98.28a8.6,8.6,0,0,0-11.28-4.52c-15.16,6.48-26.09,17.4-30.79,30.76s-2.94,28.41,5.11,43.46A8.6,8.6,0,0,0,180,159.87c-5.79-10.84-7.16-20.81-4-29.65s10.65-16.09,21.33-20.65A8.59,8.59,0,0,0,201.81,98.28Z"/><path class="cls-1" d="M222.78,87.45h-.48a8.6,8.6,0,0,0,0,17.19h.43a8.6,8.6,0,0,0,0-17.19Z"/></svg>