<svg id="Слой_1" data-name="Слой 1" xmlns="http://www.w3.org/2000/svg" viewBox="0 0 512 512"><defs><style>.cls-1{fill:#00c5c5;}</style></defs><title>иконки для подкатегорий</title><path id="Shape" class="cls-1" d="M60.79,293.2c17.3-37.09,32.75-67.74,42.68-87,4,22.75,13.22,56,34.8,79.82,15,16.59,32.71,32.82,48.35,47.15,46.52,42.6,49.54,45.48,39.85,76.51a153.41,153.41,0,0,0-5,19c-6.21,35.16,9.62,58.15,43.79,45.74,27-9.83,61.74-8.13,95.31,4.66,14,5.29,28.44,13.32,45.44,13.32,21.17,0,28.88-8,31.61-14.73,18.56-45-90.64-60.2-139.24-120.44a166.15,166.15,0,0,1-23-48.54c-35.72-100.24-29.76-108.13-50-148.36-18.22-36.15-32.49-74.28-41.6-92.33a61,61,0,0,0-41-34.89C116.24,27.08,83,39.23,43.66,69.37A31.1,31.1,0,0,0,31.5,93.88V286.76a15.36,15.36,0,0,0,29.3,6.44ZM46.86,93.88A15.63,15.63,0,0,1,53,81.59c35.48-27.19,64.53-38.41,86.26-33.44,25.09,5.77,33.12,31,44.22,57.21,35.07,82.79,32.26,61.18,47,113.6,8.76,31.14,15.93,54.43,31.12,97.12a171.62,171.62,0,0,0,24.77,50.85c46.22,57.24,147.16,80.23,137,104.95-1.29,3.16-8.12,5.2-17.4,5.2-22.83,0-49.55-24.27-102.39-24.27A128,128,0,0,0,259.94,460c-6.23,2.3-14.6,4.14-19.2.28-4.91-4.13-6.55-15.47-4.19-28.88,3.76-20.9,16.58-39.25,5.05-62.14-10.56-20.88-59.33-57.43-91.95-93.55-31.24-34.57-33.72-94.75-33.74-95.36a7.68,7.68,0,0,0-14.43-3.4c-.24.45-24.67,45.6-54.62,109.75Z"/><path class="cls-1" d="M451.09,66.68h-4.55A13.6,13.6,0,0,0,433,53.1H324.31a13.6,13.6,0,0,0-13.57,13.58h-4.54a22.67,22.67,0,0,0-22.64,22.64v36.27h-9a4.53,4.53,0,0,0-4.53,4.53v27.15a4.52,4.52,0,0,0,4.53,4.53h9v49.79a95.12,95.12,0,0,0,90.63,94.86v31.92a4.53,4.53,0,0,0,9.06,0V306.43a95.12,95.12,0,0,0,90.48-94.85V89.32A22.66,22.66,0,0,0,451.09,66.68Zm-22.63-4.52H433a4.53,4.53,0,0,1,4.53,4.52H424A4.52,4.52,0,0,0,428.47,62.16Zm-4.55,4.52H405.85a4.52,4.52,0,0,0,4.5-4.52h9.06A4.52,4.52,0,0,0,423.92,66.68Zm-18.12,0H387.73a4.52,4.52,0,0,0,4.5-4.52h9.06A4.52,4.52,0,0,0,405.8,66.68Zm-18.12,0H369.62a4.52,4.52,0,0,0,4.5-4.52h9.06A4.53,4.53,0,0,0,387.69,66.68Zm-18.12,0H351.5a4.52,4.52,0,0,0,4.5-4.52h9.06A4.53,4.53,0,0,0,369.57,66.68Zm-18.12,0H333.39a4.52,4.52,0,0,0,4.51-4.52H347A4.53,4.53,0,0,0,351.46,66.68Zm-27.13-4.52h4.51a4.52,4.52,0,0,0,4.51,4.52H319.8A4.53,4.53,0,0,1,324.33,62.16ZM306.21,75.74H451.09a13.6,13.6,0,0,1,13.58,13.58A22.66,22.66,0,0,1,442.1,112H315.2a22.66,22.66,0,0,1-22.58-22.63A13.6,13.6,0,0,1,306.21,75.74Zm-27.09,77V134.65h4.45v18.09ZM383.25,297.38v-4.29a4.53,4.53,0,1,0-9.06,0v4.3a86.11,86.11,0,0,1-78-61.24,94.89,94.89,0,0,0,164.82,0A86.1,86.1,0,0,1,383.25,297.38Zm81.43-108.46a86,86,0,0,1-172.05,0V111.46A31.58,31.58,0,0,0,315.26,121l.09,0H442l.09,0a31.6,31.6,0,0,0,22.64-9.55v77.46Z"/><path class="cls-1" d="M378.72,343.9a5.53,5.53,0,0,1-5.53-5.53v-31a95.88,95.88,0,0,1-90.63-95.81V162.8h-8a5.54,5.54,0,0,1-5.53-5.53V130.12a5.53,5.53,0,0,1,5.53-5.53h8V89.32a23.67,23.67,0,0,1,23.64-23.64h3.57A14.62,14.62,0,0,1,324.31,52.1H433a14.61,14.61,0,0,1,14.55,13.58h3.58a23.67,23.67,0,0,1,23.64,23.64V211.59a95.9,95.9,0,0,1-90.48,95.8v31A5.53,5.53,0,0,1,378.72,343.9ZM274.59,126.59a3.53,3.53,0,0,0-3.53,3.53v27.15a3.53,3.53,0,0,0,3.53,3.53h10v50.79a93.88,93.88,0,0,0,89.67,93.86l1,0v32.88a3.53,3.53,0,0,0,7.06,0V305.48l1,0a93.9,93.9,0,0,0,89.53-93.85V89.32a21.66,21.66,0,0,0-21.64-21.64h-5.54v-1A12.6,12.6,0,0,0,433,54.1H324.32a12.61,12.61,0,0,0-12.57,12.58v1h-5.54a21.66,21.66,0,0,0-21.64,21.64v37.27ZM375.19,298.44l-1.05-.05a87.14,87.14,0,0,1-78.86-62l-2.46-8.23,4.28,7.44a93.89,93.89,0,0,0,163.08,0l4.28-7.44L462,236.44a87.15,87.15,0,0,1-78.71,61.94l-1.05.06v-5.34a3.53,3.53,0,0,0-7.06,0ZM300.13,244.1a85.18,85.18,0,0,0,73.06,52.23v-3.24a5.53,5.53,0,0,1,11.06,0v3.23a85.2,85.2,0,0,0,72.92-52.22,95.82,95.82,0,0,1-157,0Zm78.52,31.85a87.13,87.13,0,0,1-87-87V109l1.71,1.75a30.44,30.44,0,0,0,21.8,9.25l.22,0H442.1l.06,0a30.46,30.46,0,0,0,21.8-9.25l1.71-1.75v80.91A87.13,87.13,0,0,1,378.65,275.95Zm-85-162.15v75.13a85,85,0,1,0,170.05,0V113.8A32.39,32.39,0,0,1,442,122H315.26A32.37,32.37,0,0,1,293.62,113.8Zm-9.06,39.94h-6.46V133.65h6.46Zm-4.46-2h2.46V135.65h-2.46ZM441.93,113H315.2a23.68,23.68,0,0,1-23.58-23.63,14.6,14.6,0,0,1,14.58-14.58H451.09a14.6,14.6,0,0,1,14.58,14.58A23.68,23.68,0,0,1,442.1,113Zm-126.67-2h127a21.68,21.68,0,0,0,21.43-21.63,12.6,12.6,0,0,0-12.58-12.58H306.21a12.6,12.6,0,0,0-12.58,12.58A21.68,21.68,0,0,0,315,111h.22ZM438.49,67.68H424v-2a3.53,3.53,0,0,0,3.51-3.52v-1H433a5.54,5.54,0,0,1,5.53,5.52Zm-10.3-2h8.16A3.54,3.54,0,0,0,433,63.16h-3.59A5.51,5.51,0,0,1,428.19,65.68Zm-4.27,2H405.85v-2a3.53,3.53,0,0,0,3.51-3.52v-1h11.06v1a3.54,3.54,0,0,0,3.51,3.52Zm-13.84-2h9.61a5.51,5.51,0,0,1-1.19-2.52h-7.24A5.51,5.51,0,0,1,410.08,65.68Zm-4.27,2H387.73v-2a3.53,3.53,0,0,0,3.51-3.52v-1H402.3v1a3.54,3.54,0,0,0,3.51,3.52Zm-13.84-2h9.61a5.51,5.51,0,0,1-1.19-2.52h-7.24A5.51,5.51,0,0,1,392,65.68Zm-4.27,2H369.62v-2a3.53,3.53,0,0,0,3.51-3.52v-1h11.06v1a3.54,3.54,0,0,0,3.51,3.52Zm-13.84-2h9.62a5.51,5.51,0,0,1-1.19-2.52H375A5.51,5.51,0,0,1,373.84,65.68Zm-4.27,2H351.5v-2A3.53,3.53,0,0,0,355,62.16v-1h11.06v1a3.53,3.53,0,0,0,3.51,3.52Zm-13.84-2h9.62a5.51,5.51,0,0,1-1.19-2.52h-7.24A5.51,5.51,0,0,1,355.73,65.68Zm-4.27,2H333.39v-2a3.53,3.53,0,0,0,3.51-3.52v-1H348v1a3.53,3.53,0,0,0,3.51,3.52Zm-13.84-2h9.62A5.51,5.51,0,0,1,346,63.16H338.8A5.51,5.51,0,0,1,337.61,65.68Zm-4.27,2H318.8v-1a5.54,5.54,0,0,1,5.53-5.52h5.51v1a3.53,3.53,0,0,0,3.51,3.52Zm-12.4-2h8.17a5.51,5.51,0,0,1-1.19-2.52h-3.6A3.54,3.54,0,0,0,320.94,65.68Z"/><path class="cls-1" d="M333.31,98.4H424a4.53,4.53,0,0,0,0-9.06H333.31a4.53,4.53,0,0,0,0,9.06Z"/><path class="cls-1" d="M424,99.4H333.31a5.53,5.53,0,0,1,0-11.05H424a5.53,5.53,0,1,1,0,11.05Zm-90.69-9.05a3.53,3.53,0,0,0,0,7.05H424a3.53,3.53,0,1,0,0-7.05Z"/><path class="cls-1" d="M378.65,143.68a36.26,36.26,0,0,0-36.22,36.22v13.58a36.22,36.22,0,0,0,72.44,0V179.9A36.26,36.26,0,0,0,378.65,143.68Zm0,77a27.15,27.15,0,0,1-23-12.8,36.15,36.15,0,0,0,46,0A27.14,27.14,0,0,1,378.65,220.65Zm0-13.58a27.17,27.17,0,1,1,27.17-27.17A27.19,27.19,0,0,1,378.65,207.06Z"/><path class="cls-1" d="M378.65,230.7a37.26,37.26,0,0,1-37.22-37.22V179.9a37.22,37.22,0,1,1,74.44,0v13.58A37.26,37.26,0,0,1,378.65,230.7Zm0-86a35.26,35.26,0,0,0-35.22,35.22v13.58a35.22,35.22,0,1,0,70.44,0V179.9A35.26,35.26,0,0,0,378.65,144.68Zm0,77a28,28,0,0,1-23.86-13.27l-3.28-5.23,4.76,3.93a35.15,35.15,0,0,0,44.76,0l4.75-3.92-3.27,5.22A28,28,0,0,1,378.65,221.65Zm-17.94-9.15a26.08,26.08,0,0,0,35.88,0,37.11,37.11,0,0,1-35.88,0Zm17.94-4.43a28.17,28.17,0,1,1,28.17-28.17A28.2,28.2,0,0,1,378.65,208.06Zm0-54.33a26.17,26.17,0,1,0,26.17,26.17A26.2,26.2,0,0,0,378.65,153.73Z"/><path class="cls-1" d="M387.78,166.31H369.67a4.53,4.53,0,0,0,0,9.06h18.11a4.53,4.53,0,0,0,0-9.06Z"/><path class="cls-1" d="M387.78,176.37H369.67a5.53,5.53,0,1,1,0-11.05h18.11a5.53,5.53,0,1,1,0,11.05Zm-18.11-9.05a3.53,3.53,0,1,0,0,7.05h18.11a3.53,3.53,0,1,0,0-7.05Z"/><path class="cls-1" d="M387.78,179.89H369.67a4.53,4.53,0,0,0,0,9.06h18.11a4.53,4.53,0,0,0,0-9.06Z"/><path class="cls-1" d="M387.78,189.95H369.67a5.53,5.53,0,1,1,0-11.06h18.11a5.53,5.53,0,1,1,0,11.06Zm-18.11-9.06a3.53,3.53,0,1,0,0,7.06h18.11a3.53,3.53,0,1,0,0-7.06Z"/></svg>