<svg id="Слой_1" data-name="Слой 1" xmlns="http://www.w3.org/2000/svg" viewBox="0 0 512 512"><defs><style>.cls-1{fill:#00c5c5;}</style></defs><title>иконки для подкатегорий</title><path class="cls-1" d="M167,198.23c3.35-8.68,5.05-19.6,5.05-32.68,0-17.88-15.86-33.77-35.27-36.71v-14.6a6.41,6.41,0,1,1,12.83,0,6.41,6.41,0,0,0,12.83,0,19.24,19.24,0,1,0-38.48,0v14.6c-19.41,2.94-35.27,18.83-35.27,36.71a38.47,38.47,0,0,0,3.4,16.06c-1.87,4.2-3.4,10.43-3.4,19.59,0,5.11,1.76,10.75,5,16.36-2.56,4.21-5,11.11-5,22.12,0,5.1,1.77,10.75,5,16.36-2.56,4.21-5,11.11-5,22.12,0,5.11,1.76,10.76,5,16.37-2.56,4.21-5,11.11-5,22.11,0,8.21,4.54,17.84,12.46,26.42Q102,344,103,345a76.41,76.41,0,0,0-4.69,27.08c0,27.6,27,49,28.11,49.94a6.41,6.41,0,0,0,7.91,0c1.15-.9,28.11-22.34,28.11-49.94,0-16.48-4.62-30.91-11.95-40.23C161.1,324.54,172,310.4,172,297.4c0-11-2.42-17.87-5-22.08,3-5.27,5-10.94,5-16.4,0-11-2.42-17.87-5-22.08,3-5.27,5-10.94,5-16.4C172,209.35,169.57,202.43,167,198.23Zm-37,57.63a17.71,17.71,0,0,1-.62,1.74c-1.47,3.52-5,6.33-8.29,8.1-.6.33-3.85-2.32-4.34-2.68-7-5.17-15.28-14-15.28-23.34a42,42,0,0,1,1.15-10.47c4.61,4.67,10,8.62,14.92,10.39a31.23,31.23,0,0,0,12.48,16C130,255.73,130,255.8,130,255.86Zm0,38.26a9,9,0,0,1-2.19,4.36,21.13,21.13,0,0,1-6.75,5.69c-.17.09-1.25-.65-1.42-.75-5.43-3.14-9.87-7.91-13.46-13a24.78,24.78,0,0,1-4.61-10.57,32.79,32.79,0,0,1,1-12.18c4.61,4.67,10,8.62,14.92,10.39A31.22,31.22,0,0,0,130,294.13Zm-.64-75c-1.47,3.52-5,6.34-8.3,8.1-.34.19-2.37-1.32-2.68-1.52a43,43,0,0,1-14.89-16.83,18.17,18.17,0,0,1-2-7.66,47.82,47.82,0,0,1,.93-10.11,82.6,82.6,0,0,0,15.71,11.44,35.66,35.66,0,0,0,12.16,13.89C130,217.34,129.77,218.24,129.41,219.12Zm29.81-53.57c0,12.46-1.33,21.92-4.39,28.46a19.89,19.89,0,0,1-4,5.23,56.43,56.43,0,0,1-7.54,6.56c-.31.22-2.56,2-2.89,1.81-3.38-1.92-6.06-4.81-8.59-7.73,2.83-4.87,3.64-11.82,4.08-15.65a159.68,159.68,0,0,0,.92-16.12V141.85C150,144.63,159.21,155.6,159.21,165.55Zm-35.27-23.7v26.26c0,8.81-1,18.35-2.32,23-12.84-4.2-20.13-13.37-20.13-25.56C101.5,155.6,110.74,144.63,123.94,141.85ZM101.5,316.64a42,42,0,0,1,1.15-10.47c4.61,4.67,10,8.62,14.92,10.39a29.27,29.27,0,0,0,3.09,6.5,31.47,31.47,0,0,0-11.31,10C104.41,327.26,101.5,321.22,101.5,316.64Zm28.85,91.74c-6.63-6.33-19.23-20.45-19.23-36.32,0-17.37,6-30.7,12.83-36v10.34a6.41,6.41,0,0,0,12.83,0V336.07c6.87,5.29,12.83,18.62,12.83,36C149.59,387.86,137,402,130.34,408.38Zm20-93.52a38.92,38.92,0,0,1-10.19,8.27,23.38,23.38,0,0,0-3.21-1.33c-.21-.15-.4-.3-.61-.45-2.49-2.14-4.74-4.57-5.7-7.78,0-.06,0-.14,0-.21a31.23,31.23,0,0,0,12.48-16c5-1.77,10.31-5.72,14.92-10.39a42,42,0,0,1,1.15,10.47C159.21,302.27,155.92,308.8,150.39,314.87Zm3.68-43.06a42.16,42.16,0,0,1-13.22,12.5c-.16.09-1.09.72-1.24.64a20,20,0,0,1-7.89-7.34,7.13,7.13,0,0,1-1-2.72,31.23,31.23,0,0,0,12.48-16c5-1.77,10.31-5.72,14.92-10.39a42,42,0,0,1,1.15,10.47C159.21,263.63,156.7,268.05,154.07,271.8Zm0-38.46A40.57,40.57,0,0,1,140.45,246c-.11.06-.75.48-.84.43a19.61,19.61,0,0,1-8.3-8.11c-.09-.18-.82-1.83-.64-2a31.23,31.23,0,0,0,12.48-16c5-1.77,10.31-5.72,14.92-10.39a42,42,0,0,1,1.15,10.47C159.21,225.13,156.68,229.59,154.09,233.35Z"/><path class="cls-1" d="M130.35,365.65a6.41,6.41,0,1,0,6.41,6.41A6.42,6.42,0,0,0,130.35,365.65Z"/><path class="cls-1" d="M424.69,198.23c3.35-8.68,5.05-19.6,5.05-32.68,0-17.88-15.86-33.77-35.27-36.71v-14.6a6.41,6.41,0,1,1,12.83,0,6.41,6.41,0,0,0,12.83,0,19.24,19.24,0,1,0-38.48,0v14.6c-19.41,2.94-35.27,18.83-35.27,36.71a38.47,38.47,0,0,0,3.4,16.06c-1.87,4.2-3.4,10.43-3.4,19.59,0,5.11,1.76,10.75,5,16.36-2.56,4.21-5,11.11-5,22.12,0,5.1,1.77,10.75,5,16.36-2.56,4.21-5,11.11-5,22.12,0,5.11,1.76,10.76,5,16.37-2.56,4.21-5,11.11-5,22.11,0,8.21,4.54,17.84,12.46,26.42q.89,1,1.86,1.92A76.41,76.41,0,0,0,356,372.06c0,27.6,27,49,28.11,49.94a6.41,6.41,0,0,0,7.91,0c1.15-.9,28.11-22.34,28.11-49.94,0-16.48-4.62-30.91-11.95-40.23,10.62-7.29,21.57-21.43,21.57-34.43,0-11-2.42-17.87-5-22.08,3-5.27,5-10.94,5-16.4,0-11-2.42-17.87-5-22.08,3-5.27,5-10.94,5-16.4C429.74,209.35,427.27,202.43,424.69,198.23Zm-37,57.63a17.71,17.71,0,0,1-.62,1.74c-1.47,3.52-5,6.33-8.29,8.1-.6.33-3.85-2.32-4.34-2.68-7-5.17-15.28-14-15.28-23.34a42,42,0,0,1,1.15-10.47c4.61,4.67,10,8.62,14.92,10.39a31.23,31.23,0,0,0,12.48,16C387.74,255.73,387.73,255.8,387.72,255.86Zm0,38.26a9,9,0,0,1-2.19,4.36,21.13,21.13,0,0,1-6.75,5.69c-.17.09-1.25-.65-1.42-.75-5.43-3.14-9.87-7.91-13.46-13a24.78,24.78,0,0,1-4.61-10.57,32.79,32.79,0,0,1,1-12.18c4.61,4.67,10,8.62,14.92,10.39A31.22,31.22,0,0,0,387.74,294.13Zm-.64-75c-1.47,3.52-5,6.34-8.3,8.1-.34.19-2.37-1.32-2.68-1.52a43,43,0,0,1-14.89-16.83,18.17,18.17,0,0,1-2-7.66,47.82,47.82,0,0,1,.93-10.11,82.6,82.6,0,0,0,15.71,11.44A35.66,35.66,0,0,0,388,216.43C387.71,217.34,387.47,218.24,387.1,219.12Zm29.81-53.57c0,12.46-1.33,21.92-4.39,28.46a19.89,19.89,0,0,1-4,5.23,56.43,56.43,0,0,1-7.54,6.56c-.31.22-2.56,2-2.89,1.81-3.38-1.92-6.06-4.81-8.59-7.73,2.83-4.87,3.64-11.82,4.08-15.65a159.68,159.68,0,0,0,.92-16.12V141.85C407.66,144.63,416.91,155.6,416.91,165.55Zm-35.27-23.7v26.26c0,8.81-1,18.35-2.32,23-12.84-4.2-20.13-13.37-20.13-25.56C359.19,155.6,368.44,144.63,381.64,141.85ZM359.19,316.64a42,42,0,0,1,1.15-10.47c4.61,4.67,10,8.62,14.92,10.39a29.27,29.27,0,0,0,3.09,6.5,31.47,31.47,0,0,0-11.31,10C362.11,327.26,359.19,321.22,359.19,316.64ZM388,408.38c-6.63-6.33-19.23-20.45-19.23-36.32,0-17.37,6-30.7,12.83-36v10.34a6.41,6.41,0,0,0,12.83,0V336.07c6.87,5.29,12.83,18.62,12.83,36C407.29,387.86,394.67,402,388,408.38Zm20-93.52a38.92,38.92,0,0,1-10.19,8.27,23.38,23.38,0,0,0-3.21-1.33c-.21-.15-.4-.3-.61-.45-2.49-2.14-4.74-4.57-5.7-7.78,0-.06,0-.14,0-.21a31.23,31.23,0,0,0,12.48-16c5-1.77,10.31-5.72,14.92-10.39a42,42,0,0,1,1.15,10.47C416.91,302.27,413.61,308.8,408.09,314.87Zm3.68-43.06a42.16,42.16,0,0,1-13.22,12.5c-.16.09-1.09.72-1.24.64a20,20,0,0,1-7.89-7.34,7.13,7.13,0,0,1-1-2.72,31.23,31.23,0,0,0,12.48-16c5-1.77,10.31-5.72,14.92-10.39a42,42,0,0,1,1.15,10.47C416.91,263.63,414.4,268.05,411.76,271.8Zm0-38.46A40.57,40.57,0,0,1,398.15,246c-.11.06-.75.48-.84.43a19.61,19.61,0,0,1-8.3-8.11c-.09-.18-.82-1.83-.64-2a31.23,31.23,0,0,0,12.48-16c5-1.77,10.31-5.72,14.92-10.39a42,42,0,0,1,1.15,10.47C416.91,225.13,414.38,229.59,411.79,233.35Z"/><path class="cls-1" d="M388.11,365.65a6.41,6.41,0,1,0,6.41,6.41A6.42,6.42,0,0,0,388.11,365.65Z"/><path class="cls-1" d="M308.57,175c4.63-12,7-27.09,7-45.15,0-24.71-21.92-46.67-48.74-50.72V58.91a8.86,8.86,0,1,1,17.72,0,8.86,8.86,0,0,0,17.72,0,26.59,26.59,0,1,0-53.17,0V79.08c-26.82,4.06-48.74,26-48.74,50.72A53.16,53.16,0,0,0,205,152c-2.58,5.81-4.7,14.42-4.7,27.07,0,7.05,2.44,14.86,6.9,22.61-3.54,5.82-6.9,15.35-6.9,30.56,0,7.05,2.44,14.86,6.9,22.6-3.54,5.82-6.9,15.35-6.9,30.57,0,7.05,2.43,14.86,6.9,22.61-3.53,5.82-6.9,15.35-6.9,30.56,0,11.35,6.27,24.65,17.21,36.51q1.23,1.32,2.57,2.66a105.59,105.59,0,0,0-6.48,37.42c0,38.14,37.26,67.76,38.84,69a8.86,8.86,0,0,0,10.93,0c1.59-1.24,38.84-30.87,38.84-69,0-22.77-6.39-42.71-16.51-55.59,14.68-10.07,29.8-29.61,29.8-47.57,0-15.17-3.34-24.69-6.87-30.51,4.19-7.29,6.87-15.11,6.87-22.66,0-15.17-3.34-24.69-6.87-30.51,4.19-7.29,6.87-15.11,6.87-22.66C315.55,190.32,312.14,180.77,308.57,175ZM257.49,254.6a24.47,24.47,0,0,1-.86,2.4c-2,4.87-6.93,8.75-11.46,11.19-.83.45-5.32-3.21-6-3.7-9.63-7.14-21.11-19.39-21.11-32.26a58,58,0,0,1,1.59-14.47c6.37,6.46,13.75,11.91,20.62,14.36,2,6.06,6.61,14.95,17.24,22.18C257.51,254.41,257.5,254.51,257.49,254.6Zm0,52.87c-.16,2.17-1.73,4.37-3,6a29.19,29.19,0,0,1-9.32,7.86c-.24.13-1.72-.89-2-1-7.5-4.33-13.64-10.93-18.6-18-3-4.32-5.63-9.32-6.37-14.61s.06-11.57,1.41-16.83c6.37,6.46,13.75,11.91,20.62,14.36C242.27,291.35,246.88,300.24,257.51,307.47Zm-.88-103.64c-2,4.86-7,8.76-11.46,11.19-.47.26-3.27-1.82-3.71-2.1a59.43,59.43,0,0,1-20.58-23.26,25.1,25.1,0,0,1-2.81-10.59,66.08,66.08,0,0,1,1.29-14,114.13,114.13,0,0,0,21.71,15.81c2.63,5.85,8.05,13.06,16.8,19.2C257.46,201.36,257.14,202.61,256.63,203.82Zm41.19-74c0,17.22-1.83,30.29-6.06,39.33a27.48,27.48,0,0,1-5.58,7.23,78,78,0,0,1-10.42,9.07c-.43.3-3.54,2.75-4,2.5-4.67-2.66-8.37-6.65-11.87-10.68,3.92-6.73,5-16.33,5.64-21.62a220.64,220.64,0,0,0,1.28-22.28V97.06C285,100.89,297.82,116,297.82,129.8ZM249.08,97.06v36.29c0,12.17-1.41,25.36-3.2,31.77-17.74-5.8-27.81-18.47-27.81-35.32C218.07,116,230.85,100.89,249.08,97.06Zm-31,241.52a58,58,0,0,1,1.59-14.47c6.37,6.46,13.75,11.91,20.62,14.36a40.45,40.45,0,0,0,4.28,9,43.48,43.48,0,0,0-15.62,13.76C222.1,353.25,218.07,344.9,218.07,338.58Zm39.86,126.77c-9.16-8.75-26.57-28.26-26.57-50.19,0-24,8.22-42.42,17.72-49.73v14.28a8.86,8.86,0,1,0,17.72,0V365.42c9.5,7.31,17.72,25.73,17.72,49.73C284.53,437,267.08,456.58,257.93,465.35Zm27.7-129.22a53.79,53.79,0,0,1-14.09,11.43,32.3,32.3,0,0,0-4.43-1.84c-.29-.2-.56-.42-.84-.62-3.44-3-6.55-6.31-7.87-10.75,0-.09,0-.19,0-.29,10.63-7.23,15.25-16.12,17.24-22.18,6.87-2.44,14.25-7.9,20.62-14.36A58,58,0,0,1,297.82,312C297.82,318.72,293.26,327.74,285.63,336.13Zm5.08-59.51c-4.78,6.81-11,13.14-18.27,17.27-.21.12-1.51,1-1.71.89a27.6,27.6,0,0,1-10.9-10.14,9.86,9.86,0,0,1-1.45-3.76c10.63-7.23,15.25-16.12,17.24-22.18,6.87-2.44,14.25-7.9,20.62-14.36a58,58,0,0,1,1.59,14.47C297.82,265.33,294.35,271.44,290.71,276.62Zm0-53.14C285.87,230.55,279.33,237,271.9,241c-.15.08-1,.66-1.17.59-4.66-2.51-9.1-6.39-11.48-11.2-.12-.24-1.13-2.53-.88-2.7,10.63-7.23,15.25-16.12,17.24-22.18,6.87-2.44,14.25-7.9,20.62-14.36a58,58,0,0,1,1.59,14.47C297.82,212.13,294.33,218.29,290.75,223.48Z"/><path class="cls-1" d="M257.95,406.29a8.86,8.86,0,1,0,8.86,8.86A8.87,8.87,0,0,0,257.95,406.29Z"/></svg>