<svg id="Слой_1" data-name="Слой 1" xmlns="http://www.w3.org/2000/svg" viewBox="0 0 512 512"><defs><style>.cls-1{fill:#00c5c5;}</style></defs><title>иконки для подкатегорий</title><path class="cls-1" d="M301.52,173.08a36.92,36.92,0,1,1,0-52.22A37,37,0,0,1,301.52,173.08Zm-45.15-45.15a26.92,26.92,0,1,0,38.08,0A27,27,0,0,0,256.37,127.93Z"/><path class="cls-1" d="M346.94,217.18l-1.32,1.32a14.27,14.27,0,0,1-20.15,0l-40.78-40.78,21.47-21.47L346.94,197A14.27,14.27,0,0,1,346.94,217.18Zm-48.11-39.46,33.71,33.71a4.25,4.25,0,0,0,6,0l1.32-1.32a4.25,4.25,0,0,0,0-6l-33.71-33.71Z"/><path class="cls-1" d="M422.39,205.43l-21.07-31.32a30,30,0,0,1-2.68-28.67L432,67.76a6,6,0,0,0-5.53-8.39H400.91a6,6,0,1,0,0,12h16.46l-29.79,69.3a41.94,41.94,0,0,0,3.75,40.13l21.06,31.31A225.92,225.92,0,0,1,439,265.62a759.77,759.77,0,0,1-182.69,22.33A759.81,759.81,0,0,1,73.65,265.62a225.86,225.86,0,0,1,26.63-53.47l21.07-31.32a42,42,0,0,0,3.75-40.13L95.31,71.4H376.85a6,6,0,1,0,0-12H86.18a6,6,0,0,0-5.53,8.39L114,145.45a30,30,0,0,1-2.68,28.67L90.29,205.44C64.23,244.37,51,286.3,51,330.05c0,43.55,15.85,131.3,16.52,135A6,6,0,0,0,73.46,470H439.23a6,6,0,0,0,5.92-4.94c.67-3.72,16.52-91.47,16.52-135,0-43.76-13.21-85.68-39.28-124.62ZM256.34,300a771.91,771.91,0,0,0,186.21-22.84q1.59,5.81,2.82,11.69l-49,11.27A151.31,151.31,0,0,0,315,349.85l-39.31,46.73H237l-39.31-46.73a151.3,151.3,0,0,0-81.38-49.76l-49-11.27q1.23-5.87,2.82-11.69A771.91,771.91,0,0,0,256.34,300Zm9.23,108.64-1.8,2.14a57.14,57.14,0,0,0-7.43,11.35,57.17,57.17,0,0,0-7.43-11.35l-1.8-2.14ZM63,330.05a200.8,200.8,0,0,1,2.16-29.37l48.41,11.13a139.19,139.19,0,0,1,74.87,45.78l41.06,48.82,10.17,12.09a45.31,45.31,0,0,1,10.62,29.09s0,10.38,0,10.38H78.5C75.12,438.55,63,366.74,63,330.05ZM434.18,458H262.36V447.65A45.36,45.36,0,0,1,273,418.5l10.15-12.07L324.2,357.6a139.2,139.2,0,0,1,74.87-45.78l48.41-11.13a200.91,200.91,0,0,1,2.16,29.37c0,36.69-12.07,108.5-15.46,127.93Z"/><circle class="cls-1" cx="256.34" cy="211.42" r="6.02"/><path class="cls-1" d="M158.53,275.51a5,5,0,0,1-3.43-1.36c-24.48-23.08-27.44-62.95-27.56-64.63a5,5,0,0,1,10-.68h0c0,.37,2.85,37.68,24.44,58a5,5,0,0,1-3.43,8.64Z"/><path class="cls-1" d="M341.86,275.51a5,5,0,0,1-3.43-8.64c21.59-20.36,24.42-57.66,24.44-58a5,5,0,0,1,10,.68c-.11,1.69-3.08,41.55-27.56,64.63A5,5,0,0,1,341.86,275.51Z"/></svg>