<svg id="Слой_1" data-name="Слой 1" xmlns="http://www.w3.org/2000/svg" viewBox="0 0 512 512"><defs><style>.cls-1{fill:#00c5c5;}</style></defs><title>иконки для подкатегорий</title><path class="cls-1" d="M163.28,126.35c6.92,3.24,13.7,6.87,20.8,9.64,10.45,4.08,21.38,7,31.68,11.42,15.61,6.66,22.11,19,20.71,35.93a27.92,27.92,0,0,0,2.65,13.17c4.53,10,3,19.38-1.36,28.75-1.19,2.56-2.65,5-4.76,8.91,4,.31,6.87.86,9.74.68,4.17-.26,8.43-1.89,12.41-1.31,2.64.38,6.09,3.22,6.86,5.68.55,1.78-2.2,6.22-4.34,7-14.1,4.81-27.73,4.16-39.84-5.73-4.73-3.86-4-7.61-.26-12,3.49-4.1,7-8.6,8.92-13.54,3.49-8.91,1.19-14.83-7.62-18.6a124.15,124.15,0,0,0-26.11-8.13c-17-3.12-34.29-4.55-51.24-7.81-9.9-1.9-19.56-5.56-28.91-9.42-2.12-.87-2.55-5.86-3.75-9,3.14-1.06,7.11-3.91,9.27-2.9,18,8.45,37.49,9.24,56.59,12.28,15.68,2.49,31.24,5.72,47.44,8.73,1.36-6.88-.27-13.83-7.82-17.35a240.63,240.63,0,0,0-32-12.63c-12.35-3.73-23.47-8.74-31.86-18.93a8,8,0,0,0-5.94-2.58c-16.67,1.78-31.1,7.23-38.37,24.2-1.28,3-3.93,5.4-5.93,8.1C94.81,168.18,88.32,175,84.18,183c-6.63,12.8-1.1,23.16,13.21,25.22a151,151,0,0,0,28.94.92c23.52-1.19,47-4.33,70.43,1.07,5.06,1.17,10.3,2.58,14.7,5.16,2.12,1.24,4,6.08,3.18,8.2s-5.85,4.56-7.89,3.8c-26.35-9.82-53.29-5.34-80.17-4.42-14.19.48-28.44-1.09-43.41-1.77,2.55,7.34,5.2,16.23,8.69,24.78,5.54,13.58,9.82,27.06,4.39,41.8-1.75,4.74-.31,7.94,5.14,10.2,11.31,4.7,14.14,16.31,18.38,26.18,4.4,10.24,4.41,10.94,12.87,3.13,11.15-10.3,21.67-21.27,32.72-31.67,5.85-5.51,7.43-11.59,4.92-19.12-1.57-4.7-2.45-9.83,3.94-11.55,6.83-1.83,8.12,3.6,9.77,8.46,5.21,15.36-1.92,27.09-12.58,36.18-10.86,9.25-13,21.42-16.5,35.55a152.73,152.73,0,0,0,46.8-28c-5,0-7.94-.15-10.9,0-4.72.3-8.8-.82-9.27-6.1-.52-5.8,3.74-7.43,8.64-7.87,5.48-.49,11-1.7,16.42-1.36,7.83.48,11.39-3.38,13.5-10.14.65-2.1,2-4.76,3.8-5.53,2-.9,5.7-.94,7.17.35,1.76,1.55,3.34,5.46,2.57,7.34-2.77,6.72-5.84,13.55-10.12,19.36-17,23-41.09,36-66.84,46.46a61.09,61.09,0,0,1-9.64,3.3c-6.58,1.46-10.2-2-9-8.7.86-4.77,2.28-9.44,3.81-15.62-3.12,2.09-4.81,3.25-6.53,4.36-10.43,6.76-22.56,2.71-26.87-8.89-1.63-4.39-3.33-8.77-5.25-13-2.84-6.33-6.63-11.22-13.88-13.76-8.15-2.86-8.44-10.68-7.52-18,.84-6.62,2.38-13.16,3.61-19.73l-2.48-1.9c-10.43,9.24-21.12,18.24-31,28-1.55,1.52-.72,7.21.87,9.86,7.56,12.59,19.15,21.12,31.24,30.12,1.42-2.59,2.54-4.29,3.33-6.13,2-4.57,4.2-9.34,10.21-6.77,6.41,2.74,4.14,7.79,2.32,12.71-5.54,15-11.17,29.91-16,45.1-2.37,7.42-3.48,15.31-4.5,23.08-1,7.43,2.61,13.08,10.26,12.72,14.26-.67,28.82-1.19,42.62-4.44,35.57-8.37,69.18-22.61,101.9-38.58,16.6-8.11,32.33-11.11,51.17-7.73,54.18,9.72,109.06,8,163.82,5.53,6.28-.28,12.63-1.48,18.79-.82,3,.32,5.63,4,8.43,6.09-2.54,2.4-4.89,6.61-7.65,6.89-14.84,1.49-29.77,2.35-44.69,2.78-51.91,1.51-103.69,1-155-8.66-5.57-1-12.27,1.51-17.93,3.72C216.45,394.66,182.28,409.29,147.4,422c-13.82,5-29.07,6.22-43.74,8.76-4.05.7-8.37.27-12.53-.11-18.36-1.7-27.19-10.76-24.92-28.91,1.9-15.18,6.41-30.1,10.6-44.9,1.59-5.61,1-8.36-3.66-12.3-10.74-9-21.65-18.34-30.35-29.25-10.47-13.13-9.19-22.13,3-33.81,9-8.64,19.15-16.25,29.22-23.72,4-2.95,4.47-5.29,2.91-9.71-5.64-16-11.83-31.45-10.8-49.36,1-17.5,7.95-31,19.17-43.4a76.84,76.84,0,0,0,9.59-13.18c10.61-18.46,27.87-25,47.65-27.65a66.33,66.33,0,0,0,14.26-3.6c13.67-5.07,27.59-6.62,41.61-2.51,12.41,3.64,20.88,12,23.84,24.78.6,2.57-2.43,6-3.79,9-2.81-1.29-6.91-1.79-8.24-4-10.52-17.33-20.51-21.75-40.33-16.89-2.24.55-4.39,1.46-6.58,2.2Z"/><path class="cls-1" d="M266.31,281c11.23-7,22.69-13.69,33.6-21.17C307,255,313,248.5,320.1,243.65c2.49-1.69,6.86-.62,10.37-.8-.05,3.35,1.06,7.37-.4,9.91-3.47,6.06-8.16,11.42-12.83,17.68,13.26-6.52,22.85-19.8,26-33.25a30.72,30.72,0,0,1,7.3-14.06c36.87-37.6,74.07-74.87,111.18-112.23,1.29-1.3,2.51-3.31,4-3.6,2.78-.53,7.17-1.14,8.32.31,1.62,2,1.55,6.08.95,9-.41,2-3,3.51-4.63,5.18Q421.07,171.43,371.73,221c-2.18,2.19-5.15,3.59-7.76,5.35l1.66,4c7.07,0,14.14,0,21.2,0,5.24,0,10.48.21,15.72.21s10.88.26,10.57,7.25c-.3,6.81-6,6.83-11.18,6.69-12.31-.35-24.64-.28-36.92-1.1-6.76-.45-10,1.51-11,8.43-.51,3.33-2.83,6.78-5.22,9.35-5.7,6.13-11.83,11.87-17.95,17.6-12,11.23-18.63,10.77-29.08-1.86-7.5,4.09-15,8.31-22.56,12.23a62.77,62.77,0,0,1-10.92,4.38c-13.64,4-23-4.38-17.88-17.57,4.25-11,10.23-22.36,18.49-30.46,10.83-10.63,24.68-18.18,37.15-27.16,3.5-2.52,7.48-4.88,10-8.25,22.91-31.27,45.54-62.75,68.26-94.16,1.23-1.7,2.22-4.11,3.89-4.81,2.56-1.07,6.43-2.16,8.25-1s2.61,5.17,2.7,8c.06,1.73-1.9,3.6-3.12,5.28-23.61,32.71-47.15,65.47-71,98a29.87,29.87,0,0,1-10.76,8.49c-18.64,9.14-35.57,20.17-46,38.88-1.72,3.07-2.87,6.46-4.28,9.7Z"/><path class="cls-1" d="M365.24,318c-6.53-.37-13.1-.36-19.56-1.21-9.07-1.19-15.35-6.44-18.42-15.08-2.87-8.07,1.6-14,7.22-18.45,11.24-9,22.73-17.64,34.67-25.62,8.39-5.6,18.44-6.25,28.1-4.21,7.32,1.55,12.23-.57,17.39-5.59,14.66-14.22,29.79-28,44.74-41.87,1.15-1.07,2.31-2.13,3.45-3.22,3.53-3.36,7.54-5.7,11.58-1.41,4.44,4.71,1.23,8.53-2.49,12q-19.3,17.9-38.54,35.85a37.15,37.15,0,0,0-3.44,3.22c-10.15,12.22-21.81,19.39-38.76,14.64-4.47-1.25-10.94.15-15,2.71-11,7-21.3,15.11-31.68,23.05-1.62,1.24-3.57,4.79-3,5.59,1.47,2.07,4.17,4.33,6.55,4.53,25.33,2.11,49.05-.56,70.46-17.19,14.35-11.14,31.19-19.15,47.25-28,2.18-1.19,7.4.08,9.25,2,3.32,3.53,1.1,7.41-2.73,9.72-7.62,4.61-15.45,8.85-23,13.52-10,6.16-20,12.34-29.75,19C403.07,313.24,384.88,317.81,365.24,318Z"/></svg>