<svg id="Слой_1" data-name="Слой 1" xmlns="http://www.w3.org/2000/svg" viewBox="0 0 512 512"><defs><style>.cls-1{fill:#00c5c5;}</style></defs><title>иконки для подкатегорий</title><path class="cls-1" d="M281.06,165c-.14,1.58-.57,2.7-.25,3.53,1.76,4.64,19.4,9.26,22.77,5.72,20.31-21.3,35.46-45.6,43.06-75.85-6.85,1.15-12.95,2.21-19.05,3.19-4.75.76-9.82,1.12-10.8-5.1s3.75-7.47,8.61-8.27c9.52-1.56,19-3.48,28.54-4.82,8.07-1.14,11,2.29,8.83,10.19-8.68,31.53-22.81,60.15-44.38,85.07-8.28,9.57-16.71,12.85-29.28,8.89-26.51-8.34-21.57-4.09-21.88-29.55-.1-8.36,2.93-10.38,11-8.63,5.2,1.13,10.42,2.25,15.68,3.1,4.09.66,5.91-1.16,6-5.55.11-9.24.71-18.48,1.08-27.73a3,3,0,0,0-.37-1.44C295,107.3,289.38,96.87,282.78,84.55c-3.11,13.7-6.22,25.62-8.44,37.7-2.84,15.38-8.11,29.39-19.76,40.3a43.14,43.14,0,0,1-9.21,6.65c-4.76,2.51-10.66,3.21-11.64,10.31-.19,1.38-3.49,2.7-5.57,3.37-6,2-12.37,3.1-18.26,5.41-10.4,4.08-17.48-.46-24-7.82a201.27,201.27,0,0,1-43-76.44c-1.17-3.89-2.57-7.73-3.47-11.68-1.48-6.55,1.29-9.93,8-9,10.82,1.44,21.64,3.14,32.25,5.62,2.47.58,5.62,4.64,5.78,7.27.29,4.59-3.68,6.26-8,5.62-6.93-1-13.84-2.23-23.42-3.8,6.38,14.69,11,27.85,17.66,39.9,5.71,10.37,13.3,19.82,20.8,29.07,9.07,11.19,9.41,10.92,22.3,5.56-3.86-7.65-7.66-15.35-11.66-23a11.71,11.71,0,0,0-3.53-3.72c-12.21-8.85-17-21.67-12.7-36a133.81,133.81,0,0,1,7.89-20.6C211.27,55.65,241.3,48.16,273,56.69,278.4,58.15,284,62.46,287.42,67c6,8.1,10.24,17.46,15.3,26.24,3.64,6.32,7.6,12.46,11.05,18.88,1.34,2.5,3.26,6.59,2.21,8.16-4.61,6.9-2.78,14.21-2.68,21.42.3,22.08-4.67,26.38-27,23.26A42.87,42.87,0,0,0,281.06,165Zm-9.11-93.69c-11-5.75-13.37-5.14-21.09,2.7-20.57,20.87-25.44,48.55-32.62,75.14a8.18,8.18,0,0,0,8.46,10.31c6.16-.51,13.09-2.5,17.9-6.17,8.69-6.63,13-16.66,15.26-27.38,1.93-9.19,3.83-18.38,5.86-27.55S269.89,80.16,271.94,71.29ZM208,134.59c6.82-23.08,11.64-46,27.23-64.37a7.06,7.06,0,0,0-3.85.31c-16.53,7-32.37,31.19-32.23,49.16C199.21,125.77,200.59,131.12,208,134.59Z"/><path class="cls-1" d="M194.39,62.16c4.81.9,9.38,3.12,7.59,9.1s-6.54,4.89-11.35,3.69c-21.25-5.26-42.72-9.06-64.76-8.16-9.41.39-12.14,2.67-13.3,12.07-2.09,16.9,2,32.86,8.45,48.24,11.33,27.12,26.72,51.83,45.05,74.81A54.43,54.43,0,0,1,175.31,219c11,34.87,21.43,69.92,24.85,106.57,1.82,19.56-3.58,37.77-10.87,55.47-1,2.38-5.75,3.19-8.77,4.73-1.2-3-4.25-6.78-3.33-8.77,16.84-36.58,7.82-72.67-1.43-108.8-.76-3-1.64-5.87-2.37-8.82-6.07-24.48-14.79-47.12-31-67.57-20.26-25.5-35.63-54.49-41.77-87.15a96.16,96.16,0,0,1-1-28c1.83-16.46,9.81-22.88,26.36-23.46,2.79-.1,5.59,0,8.38,0C134.38,52.61,174.48,58.44,194.39,62.16Z"/><path class="cls-1" d="M313.6,62.16c-4.81.9-9.38,3.12-7.59,9.1s6.54,4.89,11.35,3.69c21.25-5.26,42.72-9.06,64.76-8.16,9.41.39,12.14,2.67,13.3,12.07,2.09,16.9-2,32.86-8.45,48.24-11.33,27.12-26.72,51.83-45.05,74.81A54.43,54.43,0,0,0,332.69,219c-11,34.87-21.43,69.92-24.85,106.57-1.82,19.56,3.58,37.77,10.87,55.47,1,2.38,5.75,3.19,8.77,4.73,1.2-3,4.25-6.78,3.33-8.77-16.84-36.58-7.82-72.67,1.43-108.8.76-3,1.64-5.87,2.37-8.82,6.07-24.48,14.79-47.12,31-67.57,20.26-25.5,35.63-54.49,41.77-87.15a96.16,96.16,0,0,0,1-28c-1.83-16.46-9.81-22.88-26.36-23.46-2.79-.1-5.59,0-8.38,0C373.61,52.61,333.51,58.44,313.6,62.16Z"/><path class="cls-1" d="M357.67,396.34c-71.27,25.8-141.79,26-213.18-.21,0,10.95,0,21.27,0,31.59,0,14.23,0,28.47,0,42.7,0,5-.82,9.73-7,9.53-5.55-.18-6.57-4.62-6.57-9.36,0-28-.08-55.92,0-83.88,0-7.93,4.63-11,11.35-7.52,37.33,19.13,77.53,23.26,118.55,22.4,28.85-.6,57.2-4.89,84.3-15.42,5.19-2,10.06-4.85,15.15-7.15,6.31-2.86,11-.44,11,6.39.23,29,.28,58-.19,86.93,0,2.62-3.9,6.95-6.51,7.39-4.91.84-6.7-3.36-6.69-8q0-35.08,0-70.16C358,400.06,357.79,398.55,357.67,396.34Z"/><ellipse class="cls-1" cx="251.02" cy="232.56" rx="33.16" ry="19.05"/><ellipse class="cls-1" cx="251.02" cy="283.71" rx="25.4" ry="14.59"/><ellipse class="cls-1" cx="251.02" cy="328.86" rx="21.87" ry="12.56"/></svg>