<svg id="Слой_1" data-name="Слой 1" xmlns="http://www.w3.org/2000/svg" viewBox="0 0 512 512"><defs><style>.cls-1{fill:#00c5c5;}</style></defs><title>иконки для подкатегорий</title><path class="cls-1" d="M215.72,216.29a6.8,6.8,0,0,0-6.8,6.8v12.47a6.8,6.8,0,1,0,13.6,0V223.09A6.8,6.8,0,0,0,215.72,216.29Z"/><path class="cls-1" d="M299.9,216.29a6.8,6.8,0,0,0-6.8,6.8v12.47a6.8,6.8,0,1,0,13.6,0V223.09A6.8,6.8,0,0,0,299.9,216.29Z"/><path class="cls-1" d="M285,277.68a6.8,6.8,0,0,0-9.49,1.55c-3.31,4.6-10.25,7.58-17.68,7.58s-14.37-3-17.68-7.58a6.8,6.8,0,0,0-11,7.94C235,295.33,246,300.4,257.81,300.4s22.84-5.07,28.72-13.24A6.8,6.8,0,0,0,285,277.68Z"/><path class="cls-1" d="M431.37,353.08l-20,6.33a6.8,6.8,0,0,0,4.11,13l20-6.33a31.3,31.3,0,0,0,21.8-31.68c-1.66-28.73-8.65-86.92-36.84-153.92C385.29,97,335,65.69,298.06,54.28a48.56,48.56,0,0,0-80.5,0C180.64,65.69,130.33,97,95.19,180.45,67,247.45,60,305.64,58.35,334.37A31.3,31.3,0,0,0,80.14,366L100,372.32a6.8,6.8,0,0,0,4.11-13l-19.82-6.28a17.71,17.71,0,0,1-12.32-17.93c1.61-27.85,8.4-84.31,35.8-149.43,29.59-70.31,70-101.13,102.56-114.42l0,.09c-.14.68-.27,1.37-.38,2.06,0,.14-.05.27-.07.41-.11.71-.2,1.42-.28,2.14,0,.12,0,.25,0,.37-.07.71-.13,1.43-.17,2.15,0,.13,0,.26,0,.39q-.07,1.27-.07,2.55c0,.86,0,1.73.07,2.59,0,.29,0,.58.07.87,0,.51.07,1,.12,1.52a121.75,121.75,0,0,0-70.78,86.87l-.08.4q-.25,1.24-.48,2.48c-.1.52-.18,1-.27,1.56-.17,1-.33,2-.47,3-.12.83-.23,1.67-.34,2.51q-.1.81-.19,1.63-.18,1.65-.32,3.31c0,.29,0,.58-.07.87-.09,1.25-.16,2.51-.21,3.77q0,.56,0,1.12c0,1.38-.08,2.76-.08,4.15v1.48a12.29,12.29,0,0,0,.08,1.34c0,.15,0,.29.07.43s.09.58.15.87.08.33.13.49.13.51.22.76.12.33.18.5.18.47.29.7c0,.07.05.14.09.21l0,0-.41.42-.34.35-.4.45-.31.36-.38.48-.29.37-.36.5-.27.38-.34.53-.24.38c-.11.18-.22.37-.32.55l-.22.39c-.1.19-.2.38-.3.57l-.2.4c-.09.19-.18.39-.27.59l-.18.41c-.09.2-.16.4-.24.61l-.16.41c-.08.21-.15.42-.22.63s-.1.27-.14.41-.12.42-.18.64-.08.28-.12.43-.1.43-.15.64-.07.3-.1.45-.08.45-.12.68-.05.28-.08.43-.07.49-.09.74,0,.26,0,.39,0,.51-.06.77,0,.25,0,.37q0,.57,0,1.16v17.29a22.43,22.43,0,0,0,22.41,22.41h4c0,.18.11.36.16.54l.25.86c.18.6.35,1.2.54,1.8l.07.21q1.49,4.74,3.42,9.31l.06.14A104.62,104.62,0,0,0,217,328.91V338a8.6,8.6,0,0,1-6.89,8.41l-8.29,1.67a6.92,6.92,0,0,0-.77.2l-64.38,19a79.11,79.11,0,0,0-56.76,75.89v39.59a14.47,14.47,0,0,0,14.46,14.46H421.25a14.47,14.47,0,0,0,14.46-14.46V443.13a79.11,79.11,0,0,0-56.76-75.89l-64.37-19a7,7,0,0,0-.77-.2l-10.12-2a8.6,8.6,0,0,1-6.89-8.41v-8a103.35,103.35,0,0,0,14.9-7.48l.39-.24,1.64-1,.83-.54,1.31-.87,1.39-1L318,318a105.1,105.1,0,0,0,35.4-43.28l0-.06q.55-1.24,1.06-2.49l.18-.43q.44-1.08.85-2.18l.23-.61q.4-1.08.78-2.18l.2-.56q.43-1.28.83-2.57c.13-.43.26-.87.39-1.3s.27-.9.4-1.36l.14-.47h4A22.43,22.43,0,0,0,385,238.13V220.84q0-.58,0-1.16c0-.13,0-.25,0-.37s0-.52-.06-.77,0-.26,0-.39-.06-.49-.09-.74-.05-.28-.08-.43-.08-.45-.12-.68-.07-.3-.1-.45-.09-.43-.15-.64-.08-.29-.12-.43-.12-.43-.18-.64-.09-.28-.14-.41-.14-.42-.22-.63l-.16-.41c-.08-.2-.16-.41-.24-.61l-.18-.41c-.09-.2-.18-.4-.27-.59l-.2-.4c-.1-.19-.19-.38-.3-.57l-.22-.39-.32-.55-.24-.38-.34-.53-.27-.38-.36-.5-.29-.37-.38-.48-.31-.36-.4-.45-.34-.35-.41-.42,0,0c0-.07.06-.14.09-.21.1-.23.2-.46.29-.7s.13-.33.18-.5.15-.5.22-.76.09-.33.13-.49.11-.57.15-.87,0-.28.07-.43a12.54,12.54,0,0,0,.08-1.34v-1.48c0-1.39,0-2.77-.08-4.15q0-.56,0-1.12c-.05-1.26-.12-2.52-.21-3.77,0-.29,0-.58-.07-.87q-.13-1.66-.32-3.31-.09-.81-.19-1.63c-.1-.84-.22-1.68-.34-2.51-.14-1-.3-2-.47-3-.09-.52-.18-1-.27-1.56q-.23-1.24-.48-2.48l-.08-.4a121.75,121.75,0,0,0-70.78-86.87c.05-.51.08-1,.12-1.52,0-.29.05-.58.07-.87,0-.87.07-1.73.07-2.59s0-1.7-.07-2.55c0-.12,0-.24,0-.36,0-.73-.1-1.46-.17-2.19,0-.11,0-.22,0-.33-.08-.73-.18-1.46-.29-2.18,0-.13,0-.26-.07-.39-.12-.7-.24-1.39-.39-2.08l0-.09c32.59,13.29,73,44.1,102.56,114.42,27.4,65.12,34.19,121.57,35.8,149.43A17.71,17.71,0,0,1,431.37,353.08ZM222.89,79.32c0-.19,0-.38,0-.57q.07-.83.17-1.66c0-.17,0-.35.07-.52a34.84,34.84,0,0,1,.86-4.21l.14-.5c.15-.53.31-1,.49-1.57l.19-.57c.23-.63.47-1.26.73-1.88.08-.19.17-.38.26-.57.19-.43.39-.85.59-1.27s.29-.57.44-.85.35-.65.53-1a35,35,0,0,1,60.82,0c.19.33.37.65.54,1s.29.55.43.84.41.87.61,1.3c.08.18.17.35.24.53.26.62.51,1.26.73,1.9l.19.55q.27.79.5,1.59l.14.48a35,35,0,0,1,.86,4.22c0,.17,0,.34.07.52q.1.83.17,1.66c0,.19,0,.38,0,.57,0,.71.07,1.43.07,2.15,0,0,0,.07,0,.11l-1.21-.34-1.47-.41q-1.53-.42-3.08-.8l-2-.49-1.89-.41-2-.4-1.72-.33q-1.67-.3-3.36-.55l-1.52-.21-2.49-.32-1.39-.16q-1.84-.19-3.69-.33l-.94-.06q-1.55-.1-3.11-.17l-1.14,0c-1.32,0-2.64-.07-4-.07s-2.65,0-4,.07l-1.14,0q-1.56.07-3.11.17l-.94.06q-1.85.14-3.69.33l-1.39.16-2.49.32-1.52.21q-1.69.25-3.36.55l-1.72.33-2,.4-1.89.41-2,.49q-1.54.38-3.08.8l-1.47.41-1.21.34s0-.07,0-.11C222.82,80.76,222.85,80,222.89,79.32ZM153.08,246.94h0a8.81,8.81,0,0,1-8.81-8.8V220.84a8.81,8.81,0,0,1,8.8-8.8h.29v20.7c0,1.08,0,2.16.06,3.24,0,.28,0,.56,0,.84q.05,1.3.13,2.59c0,.23,0,.47,0,.7q.23,3.34.68,6.61c0,.07,0,.14,0,.21h-1.25Zm-6.57,236.64v-32.2a8.24,8.24,0,0,1,1.59-4.88,57.33,57.33,0,0,1,90.18-2.54,25.34,25.34,0,0,0,39.06,0,57.33,57.33,0,0,1,90.18,2.54,8.25,8.25,0,0,1,1.59,4.88v32.2ZM301,359.39l9.8,2,64.3,18.93a65.51,65.51,0,0,1,47,62.84v39.59a.86.86,0,0,1-.86.86H382.71v-32.2a21.94,21.94,0,0,0-4.27-13,70.93,70.93,0,0,0-111.56-3.14,11.74,11.74,0,0,1-18.15,0,70.93,70.93,0,0,0-111.56,3.14,21.94,21.94,0,0,0-4.27,13v32.2H94.37a.86.86,0,0,1-.86-.86V443.13a65.51,65.51,0,0,1,47-62.84l64.3-18.93,8-1.6A22.24,22.24,0,0,0,230.6,338V333.6l1,.24.61.15q3.17.8,6.39,1.4l1.23.22,1.65.27,1.49.22,1.47.21q1.4.18,2.82.32l1.08.1,2.07.17,1.17.07,2.12.1,1,0c1,0,2.08.05,3.13.05s2,0,3,0l1,0,2-.09,1.17-.07,1.79-.14,1.23-.11,1.76-.19,1.2-.14,2.14-.3,1.9-.3,1.52-.26,1.57-.3,1.22-.25,1.68-.37,1-.24,1.22-.28v3.57a23.06,23.06,0,0,0,1.33,7.55c.09.24.2.47.29.71s.27.69.43,1l.11.21A22.21,22.21,0,0,0,301,359.39Zm47.63-124.23c0,.17,0,.33,0,.49,0,.65,0,1.29-.08,1.94,0,.17,0,.34,0,.52,0,.64-.08,1.27-.13,1.91,0,.18,0,.36,0,.54-.05.62-.11,1.24-.18,1.86,0,.2,0,.41-.07.61-.07.59-.14,1.17-.21,1.76,0,.24-.07.49-.1.73q-.11.79-.24,1.59c0,.3-.1.61-.15.91s-.16.9-.24,1.35-.14.75-.22,1.13-.14.71-.22,1.06-.18.85-.28,1.27-.21.9-.32,1.35-.24,1-.37,1.47c-.17.66-.35,1.32-.54,2-.13.44-.26.88-.4,1.33s-.24.79-.36,1.18-.27.84-.41,1.25-.31.91-.47,1.36-.24.69-.36,1c-.29.79-.59,1.58-.9,2.36l-.15.36q-.44,1.1-.91,2.19l-.2.45c-.35.79-.7,1.57-1.07,2.34l0,.05a91.91,91.91,0,0,1-26.59,33.06l-.57.44-1.43,1.07-.83.6-1.14.8q-1.16.8-2.34,1.57l-.38.25L305,310.35l-.21.13a90.5,90.5,0,0,1-17.8,8.31q-1.11.38-2.23.73l-1.54.46-1.81.51-1.79.46-2.11.5-1.18.26q-1.42.3-2.85.54l-1,.17c-1,.16-2,.32-3,.45l-.53.06q-1.47.18-2.94.31l-.74.07q-1.62.13-3.25.2l-.7,0c-1.14,0-2.28.07-3.43.07s-2.46,0-3.68-.08l-.62,0c-1.14-.05-2.27-.13-3.4-.22l-.87-.08q-1.62-.15-3.22-.36l-1-.14q-1.35-.19-2.69-.42l-1.41-.26q-1.15-.22-2.3-.46l-1.47-.33c-.82-.19-1.64-.4-2.45-.61l-1.6-.43q-1.18-.33-2.36-.7l-1.81-.59-1.07-.37a90.4,90.4,0,0,1-13.3-5.89l-.1-.06-1.78-1-.67-.4-1.5-.89q-1-.63-2-1.29l-.19-.12a92.12,92.12,0,0,1-36-45.55l-.1-.29c-.24-.68-.48-1.37-.7-2.06l-.26-.79c-.17-.54-.33-1.08-.5-1.62-.09-.32-.19-.63-.28-1q-.32-1.12-.61-2.24c-.11-.41-.2-.83-.3-1.24s-.21-.86-.31-1.3-.19-.85-.28-1.28-.15-.71-.22-1.06-.15-.75-.22-1.13-.16-.9-.24-1.35-.1-.61-.15-.91q-.13-.79-.24-1.59c0-.24-.07-.49-.1-.73-.08-.58-.15-1.17-.21-1.76,0-.2,0-.41-.07-.61-.07-.62-.12-1.24-.18-1.86,0-.18,0-.36,0-.54-.05-.63-.09-1.27-.13-1.91,0-.17,0-.34,0-.52,0-.65-.06-1.29-.08-1.94,0-.16,0-.33,0-.49q0-1.21,0-2.42v-21.1h0l.14,0,.93-.24.37-.12.69-.23.39-.15.66-.28.35-.16.78-.4.19-.1c.32-.18.63-.36.93-.56l.27-.18.64-.45.31-.24.56-.46.3-.26.59-.55.21-.21q.38-.39.74-.81l.14-.17c.19-.23.37-.46.55-.69l.22-.31.43-.62.21-.34c.14-.22.26-.45.39-.67l.17-.31c.18-.33.34-.67.5-1a6.79,6.79,0,0,0,.35-1l8.22-30.85a8.41,8.41,0,0,1,1.35-2.83,8.19,8.19,0,0,1,4.18-3,8.57,8.57,0,0,1,2.09-.38,8.17,8.17,0,0,1,5.78,2c1.18,1,2.39,2,3.62,3l.93.77q1.48,1.2,3,2.42l2,1.56.79.61a222.81,222.81,0,0,0,38,24.1l.17.09,2.4,1.15,1.27.6,1.38.62,2.28,1,.28.12a120.08,120.08,0,0,0,35.12,9.52l.79.08,1.66.14q1.34.1,2.63.16l.74,0c1.06,0,2.09.06,3.09.06h47.88v20.7h0Q348.66,233.94,348.63,235.15Zm22.72-14.32v17.29a8.81,8.81,0,0,1-8.81,8.8H361.3c0-.07,0-.14,0-.21q.44-3.28.68-6.61c0-.23,0-.47,0-.7q.08-1.29.13-2.59c0-.28,0-.56,0-.84,0-1.08.06-2.16.06-3.24V212h.29A8.81,8.81,0,0,1,371.35,220.84Zm-7.71-44.61,0,.18c.15.75.3,1.51.44,2.27.08.42.15.85.22,1.28q.24,1.4.44,2.81c.1.71.2,1.43.29,2.15q.09.74.17,1.48c.1,1,.2,1.93.28,2.9,0,.27,0,.54.07.82q.12,1.66.19,3.33c0,.33,0,.66,0,1,0,1.23.07,2.46.07,3.69v.31H300.78c-35.43,0-72.48-26.82-91.41-42.8-.45-.38-.92-.73-1.39-1.07l-.4-.28q-.57-.39-1.16-.74l-.34-.21q-.74-.42-1.51-.79l-.35-.15q-.62-.28-1.26-.52l-.46-.17c-.5-.18-1-.34-1.53-.48l-.09,0c-.54-.15-1.09-.26-1.64-.37l-.48-.08q-.65-.11-1.3-.17l-.42,0q-.84-.07-1.68-.07h-.47l-1.06,0-.57,0-1,.11-.57.09-1,.2-.5.11c-.51.12-1,.26-1.51.41a21.8,21.8,0,0,0-14.6,15.26l-8,30.19a3.12,3.12,0,0,1-2.68,1.52H149.75v-.31c0-1.23,0-2.46.07-3.69q0-.5,0-1,.07-1.67.19-3.33c0-.27,0-.54.07-.82.08-1,.17-1.94.28-2.9.05-.49.11-1,.17-1.48.09-.72.19-1.43.29-2.15q.2-1.41.44-2.81c.07-.43.14-.85.22-1.28.14-.76.28-1.52.44-2.27l0-.18a108.33,108.33,0,0,1,92-85.28l.35,0,2.21-.25.59-.06,2-.18.73-.06,1.88-.12.81,0,1.9-.07.76,0c.88,0,1.76,0,2.65,0s1.77,0,2.65,0l.76,0,1.9.07.81,0,1.88.12.73.06,2,.18.59.06,2.21.25.35,0A108.33,108.33,0,0,1,363.64,176.23Z"/></svg>