<svg id="Слой_1" data-name="Слой 1" xmlns="http://www.w3.org/2000/svg" viewBox="0 0 512 512"><defs><style>.cls-1{fill:#00c5c5;}</style></defs><title>иконки для подкатегорий</title><path class="cls-1" d="M435.88,239.31V227.9c0-15.17-11.89-27.79-27.06-27.79h-33.1A28,28,0,0,0,348,227.9v11.56c-.95,1.57-2.84,3.21-3.78,4.93V140.17c0-22-9.45-43.15-24.58-58.59V64.82c0-19.53-16-35.82-35.56-35.82H238.42c-19.53,0-35.11,16.29-35.11,35.82v17a80.52,80.52,0,0,0-24.58,58.38v26.62a46.34,46.34,0,0,0-7.56-8.66v-13.7c0-17-13.55-31.29-30.58-31.29H102.16A31.55,31.55,0,0,0,71,144.43V158.3A73.45,73.45,0,0,0,51.1,207.9v266a6.62,6.62,0,0,0,13.24,0h0v-266c0-9.74,1.89-19.27,6.62-27.68v38a50.11,50.11,0,0,0,100.21,0V179.9a57.87,57.87,0,0,1,7.56,28v266a6.62,6.62,0,0,0,13.24,0V140.17a65.93,65.93,0,0,1,11.34-37.37v49.61a58.14,58.14,0,1,0,116.28,0h0V102.48c6.62,11.14,11.34,24.23,11.34,37.69V473.88a6.62,6.62,0,0,0,13.24,0V282.57c0-6.93.95-13.73,3.78-20v28.83a44,44,0,1,0,87.92,0V262.29c3.78,6.31,4.73,13.22,4.73,20.28v191.3a6.62,6.62,0,0,0,13.24,0V282.57a61.91,61.91,0,0,0-18-43.26Zm-277.95-21.1a36.87,36.87,0,1,1-73.74,0V144.43a18.3,18.3,0,0,1,18-18.06h38.42c9.73,0,17.34,8.33,17.34,18.06Zm148.43-65.8a44.91,44.91,0,1,1-89.81,0V64.82c0-12.23,9.64-22.59,21.88-22.59H284c12.23,0,22.32,10.36,22.32,22.59Zm116.28,139a30.73,30.73,0,0,1-61.45,0V227.9a14.74,14.74,0,0,1,14.53-14.55h33.1c7.88,0,13.82,6.67,13.82,14.55Z"/><path class="cls-1" d="M159.82,390.14H85.13a6.62,6.62,0,0,0,0,13.24h74.69a6.62,6.62,0,1,0,0-13.24Z"/><path class="cls-1" d="M159.82,370.29H112.55a6.62,6.62,0,1,0,0,13.24h47.27a6.62,6.62,0,1,0,0-13.24Z"/><path class="cls-1" d="M132.4,410H85.13a6.62,6.62,0,1,0,0,13.24H132.4a6.62,6.62,0,1,0,0-13.24Z"/><path class="cls-1" d="M303.52,338.14H219.38a6.62,6.62,0,1,0,0,13.24h84.14a6.62,6.62,0,0,0,0-13.24Z"/><path class="cls-1" d="M276.1,331.53a6.62,6.62,0,0,0,0-13.24H238.29a6.62,6.62,0,0,0,0,13.24H276.1Z"/><path class="cls-1" d="M303.52,358H246.8a6.62,6.62,0,1,0,0,13.24h56.72a6.62,6.62,0,0,0,0-13.24Z"/><path class="cls-1" d="M426.42,442.14H361.19a6.62,6.62,0,0,0,0,13.24h65.23a6.62,6.62,0,0,0,0-13.24Z"/><path class="cls-1" d="M407.51,435.52a6.62,6.62,0,1,0,0-13.24H388.61a6.62,6.62,0,0,0,0,13.24Z"/><path class="cls-1" d="M399,462H361.19a6.62,6.62,0,0,0,0,13.24H399A6.62,6.62,0,0,0,399,462Z"/></svg>