<svg id="Слой_1" data-name="Слой 1" xmlns="http://www.w3.org/2000/svg" viewBox="0 0 512 512"><defs><style>.cls-1{fill:#00c5c5;}</style></defs><title>иконки для подкатегорий</title><path class="cls-1" d="M446.16,181.49H372.78c25.28-23.92,66.77-63.25,70.76-67.53a38.4,38.4,0,0,0-56.2-52.35C382.62,66.68,329.54,130,313.6,149l-21-10c-20-8.45-47.42-7.52-59.23,10.78l-23.21,31.71H68.29a7.68,7.68,0,0,0-7.68,7.68v61.44c0,33.82,18.24,71.08,54.22,110.76A410.67,410.67,0,0,0,165.06,408v26.91a7.68,7.68,0,0,0,7.68,7.68h169a7.68,7.68,0,0,0,7.68-7.68V408a410.67,410.67,0,0,0,50.23-46.65c36-39.68,54.22-76.94,54.22-110.76V189.17A7.68,7.68,0,0,0,446.16,181.49Zm-200-23.26c6.83-10.78,26.17-11.06,40.26-5.15l25.94,12.3a7.67,7.67,0,0,0,8.72-1.51c.16-.16,73.43-87.45,77.47-91.79a23,23,0,1,1,33.72,31.41c-3.34,3.59-43.15,41.4-81.87,78H229.17S246.09,158.38,246.18,158.24ZM106.69,196.85h46.08V266a7.68,7.68,0,1,1-15.36,0v-21.5a7.68,7.68,0,0,0-15.36,0,7.68,7.68,0,1,1-15.36,0Zm-30.72,0H91.33v15.36H76Zm0,30.72H91.33v15.36H76ZM334,427.26H180.42V411.9H334Zm5.09-30.72H175.33c-13.58-10.49-92.9-74.35-99-138.25H95.95a23,23,0,0,0,26.1,7.9,23,23,0,0,0,46.08-.22V258.3h270C432,322.19,352.69,386.06,339.12,396.54Zm99.36-184.33H287.94a7.68,7.68,0,1,0,0,15.36H438.48v15.36H168.13V227.57H226.5a7.68,7.68,0,0,0,0-15.36H168.13V196.85H438.48Z"/><path class="cls-1" d="M257.22,227.57a7.68,7.68,0,1,0-7.68-7.68A7.69,7.69,0,0,0,257.22,227.57Z"/><path class="cls-1" d="M366,345c3.12,0,5.2-1.94,7.15-4.09,15.67-17.3,30.46-33.65,37.9-55.61a7.68,7.68,0,0,0-14.55-4.93c-6.41,18.94-19.54,33.44-34.74,50.23l-1.45,1.61A7.64,7.64,0,0,0,366,345Z"/><path class="cls-1" d="M132.24,304.86a7.68,7.68,0,1,0-12.95,8.27,245.61,245.61,0,0,0,25.23,32.55,7.68,7.68,0,1,0,11.38-10.32A229.73,229.73,0,0,1,132.24,304.86Z"/><path class="cls-1" d="M423.89,87a7.68,7.68,0,1,1-7.68-7.68A7.68,7.68,0,0,1,423.89,87Z"/><path class="cls-1" d="M179.65,362A7.68,7.68,0,1,1,172,354.3,7.68,7.68,0,0,1,179.65,362Z"/></svg>