<svg id="Слой_1" data-name="Слой 1" xmlns="http://www.w3.org/2000/svg" viewBox="0 0 512 512"><defs><style>.cls-1{fill:#00c5c5;}</style></defs><title>иконки для подкатегорий</title><path class="cls-1" d="M445.55,327.37a8.79,8.79,0,0,0-7.7-8.73c-1-.13-25.28-3.05-58,2.37-43.51,7.2-81.43,25.94-109.66,54.16a8.8,8.8,0,0,0,0,12.44c31.46,31.46,85.77,39.24,126.57,22.34,31-12.85,48.82-37.68,48.82-68.13ZM428,341.83c0,31.46-23.78,46-38,51.88-32.82,13.6-74.33,8.05-100.6-12.51,30.85-27.46,67-38.41,92.74-42.74A222,222,0,0,1,428,335.54v6.29Z"/><path class="cls-1" d="M82.26,318.61a8.79,8.79,0,0,0-7.81,8.74v14.47c0,48.69,47.29,76.43,96,76.43,29.09,0,58.48-9.7,79.41-30.64a8.79,8.79,0,0,0,0-12.44c-27.8-27.79-65.57-46.39-109.24-53.78-32.84-5.55-57.31-2.9-58.33-2.79Zm88.53,82.07C131.64,400.68,92,380,92,341.83v-6.22a230.71,230.71,0,0,1,46.15,3.23c25.82,4.43,62,15.4,92.42,42.39-17.17,13.63-38.93,19.46-59.82,19.46Z"/><circle class="cls-1" cx="423.57" cy="431.52" r="8.79"/><path class="cls-1" d="M476.33,227.51a8.79,8.79,0,0,0-8.79,8.79c0,27.47-20.22,43.56-45.25,43.56-21.83,0-45.33-13.63-45.33-43.56a8.79,8.79,0,1,0-17.59,0c0,31.29-16.6,45.56-41.15,59.14a61.47,61.47,0,0,0-13-21.76c37.57-70.38,2.77-160.13-39-201.89a8.8,8.8,0,0,0-12.44,0c-41.38,41.38-76.84,131-39,201.9a61.39,61.39,0,0,0-13,21.78c-24.54-13.55-41.14-27.81-41.14-59.17a8.79,8.79,0,1,0-17.59,0c0,27.47-20.22,43.56-45.25,43.56-21.83,0-45.33-13.63-45.33-43.56a8.79,8.79,0,1,0-17.59,0V341.83c0,74.85,65.25,115.36,138,116.08,35.05.35,66.85-9,87.15-25.17,20.33,16.22,52.72,26.05,87,26.05h.09a183.35,183.35,0,0,0,41.48-4.71,8.79,8.79,0,1,0-4-17.13,165.68,165.68,0,0,1-37.49,4.25H347c-33.5,0-64.44-10.13-80.75-26.44a8.8,8.8,0,0,0-12.44,0c-16.11,16.11-47,25.88-80.75,25.57-60-.6-120.56-31.28-120.56-98.49V280c12,11.56,28.73,17.48,45.33,17.48,20.95,0,41.11-9.09,52.76-26.25,20.13,41.09,72.83,46.45,103.22,76.84a8.8,8.8,0,0,0,12.44,0c30.45-30.45,83.08-35.73,103.25-76.95,11.83,17.39,32.41,26.35,52.82,26.35,16.85,0,33.24-5.82,45.25-17.35v61.73c0,23.19-6.75,43.08-20.06,59.1A8.79,8.79,0,0,0,461,412.17c16-19.26,24.12-42.93,24.12-70.34V236.3a8.79,8.79,0,0,0-8.79-8.79ZM260,91c27.2,32.21,63.59,106.44,31.25,171.38a61.62,61.62,0,0,0-22.45-7.88v-71a8.79,8.79,0,0,0-17.59,0v71a61.56,61.56,0,0,0-22.45,7.88C196.41,197.48,232.8,123.24,260,91Zm0,238.85c-12.88-11-27.83-18.67-42.4-26.11a44,44,0,0,1,84.79,0c-14.57,7.46-29.53,15.17-42.4,26.12Z"/></svg>