<svg id="Слой_1" data-name="Слой 1" xmlns="http://www.w3.org/2000/svg" viewBox="0 0 512 512"><defs><style>.cls-1{fill:#00c5c5;}</style></defs><title>иконки для подкатегорий</title><path class="cls-1" d="M457.94,244.17a41.49,41.49,0,0,0-29.53-12.25H370.08l0-51.06a81.28,81.28,0,0,0-51.45-75.41c-10.48-4.13-23.68-7.41-34.92-5a41.69,41.69,0,1,0-26.2,28.34L233.91,169l-52.35,25.82a26.77,26.77,0,0,0-14,17.42H155.37a33.47,33.47,0,0,0-24.83,11A41.51,41.51,0,1,0,63.13,268H55.91a5.74,5.74,0,0,0-5.74,5.74v49a5.74,5.74,0,0,0,5.74,5.74h23v120a5.74,5.74,0,0,0,5.74,5.74H124a5.74,5.74,0,0,0,5.74-5.74V381.14c.41,0,.82.07,1.22.07a23.3,23.3,0,0,0,21.3-13.85l16.91-38.85h81.29L242,339.69a25.49,25.49,0,0,0-7.24,17.76V428a26.05,26.05,0,0,0,24.64,26.25h.77a25.47,25.47,0,0,0,25.45-25.44V368l18.3-18.14-3.08,15.82a26.44,26.44,0,0,0-.26,8.14l9.42,58a25.45,25.45,0,0,0,25.23,22.38,25.87,25.87,0,0,0,3.08-.17,25.46,25.46,0,0,0,22.17-28.31,1.57,1.57,0,0,0,0-.24l-8.89-54.14,8.35-42.88h30.71v120a5.74,5.74,0,0,0,5.74,5.74h39.38a5.74,5.74,0,0,0,5.74-5.74v-120h23a5.74,5.74,0,0,0,5.74-5.74v-49a41.54,41.54,0,0,0-12.25-29.56ZM243.66,119.74a30.06,30.06,0,1,1,30.05-30.06h0a30.09,30.09,0,0,1-30.05,30.06Zm-57,85.37,53.87-26.58a5.74,5.74,0,0,0,2.41-2.24l34.13-58.08a14,14,0,0,1,10.5-6.78,9.67,9.67,0,0,1,1.52-.09,69.6,69.6,0,0,1,69.53,69.53l0,51.06h-.49a77.65,77.65,0,0,0-43.62-19.26l3.06-20.06a38.06,38.06,0,0,0-22.16-40.45,5.74,5.74,0,0,0-7.28,2.34l-24.12,41a13.87,13.87,0,0,1-5.85,5.42l-59.89,29.53a13.94,13.94,0,0,1-18.67-6.34l-.18-.37a12.34,12.34,0,0,1-1.12-5.68,15,15,0,0,1,8.38-13Zm119.53-14.24-3.26,21.36H261.2l2-1a25.31,25.31,0,0,0,10.68-9.93l21.27-36.18a26.58,26.58,0,0,1,11,25.73Zm-244.53,47A30.06,30.06,0,1,1,91.71,268h0a30.09,30.09,0,0,1-30.05-30.06Zm60.11,28.59V268h-1.48q.76-.71,1.48-1.48ZM84.51,317H61.66V279.47h60.12V317Zm33.75,12.58-8.13,18.66a24.18,24.18,0,0,0,1.19,22,22,22,0,0,0,6.95,7.17v65.3H90.37V328.5h27.89ZM165.41,268a5.74,5.74,0,0,0-5.74,5.74v47.83l-17.91,41.19a11.64,11.64,0,0,1-13.3,6.71,11.81,11.81,0,0,1-7.78-16.61L132.79,325v0a5.65,5.65,0,0,0,.47-2.26V245.84a22.14,22.14,0,0,1,22.12-22.12h12a24.2,24.2,0,0,0,1.62,4.81,25.2,25.2,0,0,0,14.6,13.39,25.63,25.63,0,0,0,19.78-1.15l34.6-17.06h68.52c.33,0,.69,0,1.31,0a66.14,66.14,0,0,1,44.17,18.09,5.74,5.74,0,0,0,3.94,1.57h72.55A30.35,30.35,0,0,1,458.16,268ZM307.8,329.86l-32,31.7a5.74,5.74,0,0,0-1.7,4.08v63.17a14,14,0,0,1-14,14h-.39A14.49,14.49,0,0,1,246.22,428V357.44a13.92,13.92,0,0,1,4.15-9.89,5.93,5.93,0,0,0,.55-.63l14-18.43h43.19Zm29.13,112.8a13.89,13.89,0,0,1-15.53-12q0-.19,0-.38l-9.4-58a14.57,14.57,0,0,1,.16-4.39l6.29-32.36,7.11-7h22.7l-8.13,41.69a5.68,5.68,0,0,0,0,2l9,55a14,14,0,0,1-12.15,15.42Zm93.05.09H402.09V328.5H430ZM458.69,317H171.16V279.47H458.7Z"/></svg>