<svg id="Слой_1" data-name="Слой 1" xmlns="http://www.w3.org/2000/svg" viewBox="0 0 512 512"><defs><style>.cls-1{fill:#00c5c5;}</style></defs><title>иконки для подкатегорий</title><path id="Shape" class="cls-1" d="M375.72,269.68A119.06,119.06,0,1,0,256.66,150.62,119.06,119.06,0,0,0,375.72,269.68Zm0-15.36a103.83,103.83,0,0,1-103-92.18h30.15a73,73,0,0,0,145.75,0h30.15A103.82,103.82,0,0,1,375.72,254.32Zm0-207.4a103.75,103.75,0,0,1,103.51,99.86H440.94a7.68,7.68,0,0,0-7.68,8.13,57.61,57.61,0,1,1-115.07-.29,7.68,7.68,0,0,0-7.68-7.84H272.21A103.75,103.75,0,0,1,375.72,46.92Z"/><path id="Shape-2" data-name="Shape" class="cls-1" d="M63.19,293.2c17.3-37.09,32.75-67.74,42.68-87,4,22.75,13.22,56,34.8,79.82,15,16.59,32.71,32.82,48.35,47.15,46.52,42.6,49.54,45.48,39.85,76.51a153.41,153.41,0,0,0-5,19c-6.21,35.16,9.62,58.15,43.79,45.74,27-9.83,61.74-8.13,95.31,4.66,14,5.29,28.44,13.32,45.44,13.32,21.17,0,28.88-8,31.61-14.73,18.56-45-90.64-60.2-139.24-120.44a166.15,166.15,0,0,1-23-48.54c-35.72-100.24-29.76-108.13-50-148.36-18.22-36.15-32.49-74.28-41.6-92.33a61,61,0,0,0-41-34.89c-26.47-6.08-59.75,6.08-99.05,36.21A31.1,31.1,0,0,0,33.89,93.88V286.76a15.36,15.36,0,0,0,29.3,6.44ZM49.26,93.88A15.63,15.63,0,0,1,55.4,81.59c35.48-27.19,64.53-38.41,86.26-33.44,25.09,5.77,33.12,31,44.22,57.21,35.07,82.79,32.26,61.18,47,113.6,8.76,31.14,15.93,54.43,31.12,97.12a171.62,171.62,0,0,0,24.77,50.85C335,424.17,436,447.17,425.77,471.88c-1.29,3.16-8.12,5.2-17.4,5.2-22.83,0-49.55-24.27-102.39-24.27A128,128,0,0,0,262.33,460c-6.23,2.3-14.6,4.14-19.2.28-4.91-4.13-6.55-15.47-4.19-28.88,3.76-20.9,16.58-39.25,5.05-62.14-10.56-20.88-59.33-57.43-91.95-93.55-31.24-34.57-33.72-94.75-33.74-95.36a7.68,7.68,0,0,0-14.43-3.4c-.24.45-24.67,45.6-54.62,109.75Z"/><path id="Shape-3" data-name="Shape" class="cls-1" d="M375.72,200.55A42.29,42.29,0,0,0,418,158.3c0-23.36-22.79-19.25-7.91-78.79,2.3-9.26-5-16.52-15.77-11.4-17.54,8.3-60.82,53.26-60.82,90.19A42.29,42.29,0,0,0,375.72,200.55ZM392.5,87.63c-10.11,51.82,10.11,57.17,10.11,70.67a26.89,26.89,0,1,1-53.77,0C348.84,133.18,376.59,100.92,392.5,87.63Z"/></svg>