<svg id="Слой_1" data-name="Слой 1" xmlns="http://www.w3.org/2000/svg" viewBox="0 0 512 512"><defs><style>.cls-1{fill:#00c5c5;}</style></defs><title>иконки для подкатегорий</title><path class="cls-1" d="M309.3,422.26l-60.92-26a9.31,9.31,0,0,1-5.67-8.58v-9c25.22-12.6,44.85-31.76,58.43-57.09a175.08,175.08,0,0,0,17.42-50.86,21.87,21.87,0,0,0,4.92-3.5c19.27-17.4,16.35-71.89,15.95-78.11-2.45-33.34-13.16-50.77-24.5-69.22-1.24-2-2.5-4.06-3.75-6.15a2.07,2.07,0,0,1-.23-1.59l1.4-5.21a15.6,15.6,0,0,0-1.8-12.19,169,169,0,0,0-44.48-48.08C241.86,29.12,210.79,23.58,183,31.89,165.05,37.24,151.2,47,141.79,61A6.74,6.74,0,1,0,153,68.54,56.05,56.05,0,0,1,172.5,50.79c9.08,13.66,24.69,21.31,40.08,27.95,13.31,5.75,29.88,12.9,37,26.24a6.74,6.74,0,1,0,11.9-6.33c-9.31-17.52-29.09-26.06-43.53-32.29-13.1-5.66-25.42-11.6-32.73-21,.55-.17,1.08-.36,1.64-.52,23.82-7.11,50.48-2.33,71.31,12.81a155.56,155.56,0,0,1,40.94,44.27,2.06,2.06,0,0,1,.24,1.62l-1.39,5.21a15.63,15.63,0,0,0,1.71,12c1.28,2.12,2.55,4.19,3.82,6.25,10.91,17.75,20.33,33.08,22.53,63.09,1.3,20.17-.5,55.25-10.61,66.26-3.69-15.33-20.61-59.93-95.28-87.73-.79-.29-79.26-30-76.2-74.16a6.74,6.74,0,0,0-13.45-.93,50,50,0,0,0,.08,7.89,82.73,82.73,0,0,0-23,10.84C95,120.81,91.58,128.1,91.08,142c0,0,0,.08,0,.13s0,.12,0,.22c0,1.36-.06,2.78-.06,4.27-6-1.47-11.71.83-15.88,6.46-3.43,4.62-9.42,16.78-10.94,46.28a138.74,138.74,0,0,0,2.66,35.87c2.17,10.22,6.56,19.65,13.81,29.7a11.7,11.7,0,0,0,4.82,3.88c3.43,19.46,9.37,37.18,17.78,52.85,13.58,25.33,33.19,44.49,58.41,57.08v9A9.31,9.31,0,0,1,156,396.3l-60.92,26A40.52,40.52,0,0,0,70.4,459.59v22.67A6.74,6.74,0,0,0,77.14,489H327.23a6.74,6.74,0,0,0,6.74-6.74V459.59A40.52,40.52,0,0,0,309.3,422.26Zm-194.17-107c-7.8-14.54-13.31-31.08-16.48-49.32a12,12,0,0,0,2.68-4.93c5-18.53,10.45-33.71,20.62-47.5a6.74,6.74,0,0,0-10.85-8C100.39,220,94.5,235.41,89.34,253.76A60.35,60.35,0,0,1,80,232.39,125.22,125.22,0,0,1,77.65,200c.93-18.12,4.19-33.41,8.3-38.94,1.21-1.63,1.61-1.49,2.08-1.33a14,14,0,0,0,3.45.7c.43,8.22,1.3,17.64,3,24.75A6.74,6.74,0,0,0,107.6,182c-3.36-13.84-3.06-39.47-3.06-39.73,0,0,0-.07,0-.11.35-10.14,2.5-13.28,10.54-18.77a68.88,68.88,0,0,1,18.41-8.77c7,19.25,24.56,34.76,41.64,46-4.56,2.3-9.11,4.17-12.62,5.61l-.62.25a123.71,123.71,0,0,0-27.32,15.47,6.74,6.74,0,1,0,8.09,10.78A110.26,110.26,0,0,1,167,178.92l.61-.25c6-2.44,13.72-5.64,20.85-10a216.21,216.21,0,0,0,26.91,12.64C238.83,190,270.8,206.16,290,233.71,301.39,250,302.92,262.88,302.93,263a7,7,0,0,0,.13.81,12,12,0,0,0,2.19,4.86,161.52,161.52,0,0,1-16,46.61c-14,26.11-35.12,44.94-62.78,56a65.29,65.29,0,0,1-48.58,0C150.24,360.19,129.12,341.36,115.13,315.25ZM320.48,475.52H83.88V459.59a27.06,27.06,0,0,1,16.47-24.93l60.92-26a22.78,22.78,0,0,0,13.87-21v-3.15a78.33,78.33,0,0,0,54.09,0v3.14a22.78,22.78,0,0,0,13.87,21l60.92,26a27.05,27.05,0,0,1,16.47,24.93Z"/><path class="cls-1" d="M150.31,266.06a20.52,20.52,0,0,0,41,0,6.74,6.74,0,0,0-13.48,0,7,7,0,1,1-14.08,0,6.74,6.74,0,0,0-13.48,0Z"/><path class="cls-1" d="M233.55,286.58a20.54,20.54,0,0,0,20.52-20.52,6.74,6.74,0,0,0-13.48,0,7,7,0,0,1-14.08,0,6.74,6.74,0,0,0-13.48,0A20.54,20.54,0,0,0,233.55,286.58Z"/><path class="cls-1" d="M319.28,397.15c-7.69,7.52-22,9.45-31.49.89-8.6-7.73-10.91-19.51-4.39-29.95,5.81-9.3,17.34-14,28.87-8.55s16.28,14.75,12.82,29.69c4.07,2.08,8.22,4.24,12.41,6.32,4.73,2.35,9.47,4.69,14.26,6.92,5.74,2.67,11.38,5.66,17.34,7.73a16.44,16.44,0,0,0,17.72-3.92c3.73-3.7,3.7-8.56,2.81-13.56-1.28-7.19-6.61-11.52-11.13-16.39-6.38-6.87-13-13.53-19.51-20.28-1.22-1.27-2.43-2.55-3.72-3.76-1.66-1.57-3.27-2.37-5.59-.72-4.68,3.33-10.13,4-15.66,3.29-11.24-1.49-20.85-12.32-19.74-24.74,1.14-12.74,9.71-20.19,20.8-21.29,17.81-1.77,29.75,15.21,24,31-1.29,3.52,1.85,4.48,3.22,6,6.34,7.08,13.08,13.8,19.71,20.63,3.6,3.71,7.63,7.06,10.8,11.1,6.85,8.71,9.32,18.1,5.1,29.15-3.75,9.82-16.4,14.55-24.82,14-8.18-.58-15-4.24-22.1-7.77-7.66-3.83-15.49-7.31-23.2-11.05C324.91,400.49,322.2,398.79,319.28,397.15Zm-8.84-27.08c-6.09-4.34-14.21-3.43-18.14,2.3-4.5,6.56-3.58,14.11,2.19,18.26,6.92,5,14.89,4.21,19.13-1.75C318.28,382.33,317,374.75,310.44,370.07Zm19-27.31c5.95,4.72,14.76,2.66,18.56-2.77,4.9-7,3.56-14.44-2.86-19-6.2-4.41-14.15-3.26-18.56,3S322.55,337.52,329.4,342.76Z"/><path class="cls-1" d="M427.46,414c3.19-3.92,5.62-7.84,8.94-10.75,5.48-4.79,11.4-4.62,17.2-.51,6.74,4.78,13.51,9.52,20.27,14.28,3.42,2.42,3.87,3.93,2,6.69s-4.92,3.31-8.05,1.15c-6.11-4.22-12.14-8.55-18.22-12.82-5.23-3.68-5.78-3.61-9.38,1.49q-13.69,19.37-27.32,38.77c-3,4.23-2.75,5.57,1.33,8.46,6.26,4.42,12.57,8.78,18.79,13.25,3.86,2.78,4.1,4.38,2.13,7.59-1.87,3-4.27,2.9-6.66,1.26-7.81-5.34-15.79-10.5-23.14-16.43-5-4-5.49-11.57-2.05-17.57,1.71-3,3.93-5.68,6.24-9-3.71-2.62-7.11-5.19-10.73-7.43a4.62,4.62,0,0,0-3.7.17c-12.92,6-25.72,4.55-38.48-.44-3.32-1.3-4.85-4.33-3.73-7s4.25-3.89,7.56-2.22A34.88,34.88,0,0,0,388.11,425c9.84-3.35,16.49-10.34,18.3-21.13,1.85-11-1.93-20.14-8.72-28.51a14.54,14.54,0,0,1-2.87-6.43c-.19-1.06,1.42-3.29,2.52-3.52,1.72-.35,4.34-.1,5.45,1a48.56,48.56,0,0,1,13.39,25.25c.79,4.1.23,8.46.42,12.7a3.81,3.81,0,0,0,1.07,2.62C421,409.53,424.46,411.86,427.46,414Zm-5.54,8.59-8.95-6.3-6.4,9.08,8.95,6.3Z"/></svg>