<svg id="Слой_1" data-name="Слой 1" xmlns="http://www.w3.org/2000/svg" viewBox="0 0 512 512"><defs><style>.cls-1{fill:#00c5c5;}</style></defs><title>иконки для подкатегорий</title><path class="cls-1" d="M221.47,168.95c0-7.08-3.87-12.84-8.64-12.84s-8.64,5.76-8.64,12.84,3.87,12.84,8.64,12.84S221.47,176,221.47,168.95Z"/><path class="cls-1" d="M300.84,181.79c4.76,0,8.64-5.76,8.64-12.84s-3.87-12.84-8.64-12.84-8.64,5.76-8.64,12.84S296.08,181.79,300.84,181.79Z"/><path class="cls-1" d="M256.84,224.86a28.41,28.41,0,0,0,25.55-16.16A6.87,6.87,0,1,0,270,202.81a14.53,14.53,0,0,1-26.26,0,6.87,6.87,0,1,0-12.42,5.89A28.41,28.41,0,0,0,256.84,224.86Z"/><path class="cls-1" d="M357.43,402.34c1.15-1.23,2.39-2.37,3.64-3.49.71-1.76,1.42-3.47,2.19-5.13l-.16-.24a40.15,40.15,0,0,0-.53-9.17,66,66,0,0,0-2.79-10.82l-3.92-44.71h0a6.58,6.58,0,0,0-.1-.69c-6.68-34.8-19.86-54.34-29.22-64.34A59.55,59.55,0,0,0,350.08,241,45.88,45.88,0,0,0,389.8,264a46.77,46.77,0,0,0,5.33-.31,6.87,6.87,0,0,0,6-6,45.85,45.85,0,0,0-29.88-48.36c16.09-19.66,24.76-43,24.76-67.5,0-65.32-62.46-118.46-139.22-118.46S117.61,76.52,117.61,141.84c0,24.51,8.67,47.84,24.76,67.5a45.85,45.85,0,0,0-29.88,48.36,6.87,6.87,0,0,0,6,6,46.6,46.6,0,0,0,5.33.31A45.86,45.86,0,0,0,163.59,241a59.57,59.57,0,0,0,23.54,22.76c-9.36,10-22.54,29.54-29.22,64.34a6.87,6.87,0,0,0-.1.74l-3.92,44.66a65.93,65.93,0,0,0-2.79,10.82c-1.6,9.84,0,17.22,4.7,21.95,4.28,4.28,10.84,5.58,17.22,5.58a60.12,60.12,0,0,0,9.57-.84c.49,5.93,1.22,12.13,2.26,18.6a6.87,6.87,0,0,0,6.79,5.79h24l5.85,22.83a28.37,28.37,0,0,0-21.56,27.5,6.87,6.87,0,0,0,6.87,6.87H306.88a6.87,6.87,0,0,0,6.87-6.87,28.37,28.37,0,0,0-21.56-27.5L298,435.39h24a6.87,6.87,0,0,0,6.79-5.79c1-6.47,1.77-12.67,2.26-18.6a60.16,60.16,0,0,0,9.58.84,31.71,31.71,0,0,0,11.14-1.78A40.53,40.53,0,0,1,357.43,402.34Zm20.9-172.61a31.93,31.93,0,0,1,9.34,20.5,32.12,32.12,0,0,1-29.53-27.13q1.31-1.18,2.57-2.38A32,32,0,0,1,378.33,229.72ZM146.5,240.89a31.89,31.89,0,0,1-20.5,9.33,32.12,32.12,0,0,1,27-29.5q1.26,1.2,2.57,2.38A32.06,32.06,0,0,1,146.5,240.89Zm22.89-27.54c-.3-6-.48-18.24-.52-36.45A6.87,6.87,0,0,0,162,170h0a6.87,6.87,0,0,0-6.86,6.89c0,11.07.1,19.83.22,26.45-15.57-17.79-24-39.14-24-61.54,0-57.74,56.29-104.71,125.47-104.71s125.48,47,125.48,104.71c0,22.4-8.42,43.76-24,61.55.32-17.33.24-45.34.15-62.69a6.88,6.88,0,0,0-4.65-6.47c-24.5-8.36-47.2-41.14-47.43-41.47a6.87,6.87,0,0,0-10-1.49c-28.75,23-59.46,33.73-91.3,31.91-23.85-1.36-39.49-9.65-39.63-9.72a6.87,6.87,0,0,0-10.16,6c0,.13-.12,13.42-.18,30a6.87,6.87,0,0,0,6.85,6.9h0a6.87,6.87,0,0,0,6.87-6.85c0-7.54.07-14.41.1-19.65a126.57,126.57,0,0,0,34.6,7c23.29,1.46,58.36-2.82,95.75-30.51,7.79,10,25.22,30.21,45.39,39.07.1,22,.14,55.85-.47,67.92A45.91,45.91,0,0,1,300.42,257c-28.92,1.37-58.26,1.37-87.19,0A45.91,45.91,0,0,1,169.39,213.35ZM295.52,271c-4.18,11.82-20.19,20.92-38.69,20.92s-34.51-9.1-38.68-20.92q19.28.79,38.68.81C269.75,271.76,282.67,271.48,295.52,271ZM181.86,397.16c-7.45,1.38-14.48,1.23-16.34-.63-2.4-2.4-1.16-12,1.54-19.05a6.88,6.88,0,0,0,.44-1.9l3.34-38.06,17.5,3.28C185.44,351,181.24,370.57,181.86,397.16ZM250,478.84H215.38a14.59,14.59,0,0,1,12.85-7.7H250Zm0-21.45H235.45l-5.64-22H250Zm48.32,21.45H263.7v-7.7h21.73A14.59,14.59,0,0,1,298.28,478.84ZM263.7,457.4v-22h20.15l-5.64,22Zm52.38-35.76H197.58a215.27,215.27,0,0,1-.44-54.79h119.4A215.31,215.31,0,0,1,316.09,421.64Zm-1-92.89a6.88,6.88,0,0,0-5.1,9.34,93.73,93.73,0,0,1,4.29,15H199.41a93.63,93.63,0,0,1,4.28-15,6.87,6.87,0,0,0-5.1-9.35l-25.76-4.83c7.85-33.87,22.18-49.37,28.48-54.78h0c.78.19,1.58.35,2.37.51,1.41,9.47,7,18.12,16.13,24.75,10,7.24,23.12,11.23,37,11.23s27-4,37-11.23c9.13-6.63,14.72-15.29,16.13-24.75.79-.16,1.58-.32,2.36-.51,6.3,5.41,20.63,20.91,28.49,54.78Zm16.74,68.42c.62-26.59-3.58-46.16-6.49-56.35l17.51-3.29,3.34,38.06a6.88,6.88,0,0,0,.44,1.9c3.58,9.18,3.31,17.28,1.54,19S339.26,398.54,331.81,397.16Z"/></svg>