<svg id="Слой_1" data-name="Слой 1" xmlns="http://www.w3.org/2000/svg" viewBox="0 0 512 512"><defs><style>.cls-1{fill:#00c5c5;}</style></defs><title>иконки для подкатегорий</title><path class="cls-1" d="M436.67,92.67h-8.48V79.42a33.15,33.15,0,0,0-33.12-33.12H169.89a33.15,33.15,0,0,0-33.12,33.12V92.67H128.3A44.48,44.48,0,0,0,96,167.76l40.77,43.06V245h-53v13.25H265.52a6.61,6.61,0,0,1,6.43,5l6.62,26.49a6.62,6.62,0,0,1-6.43,8.23H229.5a6.62,6.62,0,0,0-1.3,13.12l12.58,2.52a11.92,11.92,0,0,1,9.53,10.86H219L187.82,293.3a6.62,6.62,0,0,0-4.68-1.94H83.79v13.25h53v53H80.88v13.25h79.48A6.62,6.62,0,0,0,165,368.9l31.18-31.18h31.31A11.91,11.91,0,0,1,218,348.58l-12.58,2.52a6.62,6.62,0,0,0,1.3,13.12h42.64a6.62,6.62,0,0,1,6.43,8.23l-6.62,26.49a6.61,6.61,0,0,1-6.43,5H80.88V417.2h55.9v19.87a6.62,6.62,0,0,0,6.62,6.62H421.57a6.62,6.62,0,0,0,6.62-6.62V210.81l40.76-43a44.52,44.52,0,0,0-32.29-75.11ZM193.47,324.48a6.62,6.62,0,0,0-4.68,1.94l-31.18,31.18H150v-53h30.37l19.87,19.87ZM414.95,79.42V92.67H335.3l-2.91-9.72c-2.77-8.86-8.58-17-16.1-23.39h78.79A19.89,19.89,0,0,1,414.95,79.42Zm-72.85,72.85v-6.62h62.06l-44.71,39.74H309V172.15h13.25A19.89,19.89,0,0,0,342.09,152.28Zm-9.59-25.79a6.62,6.62,0,0,0-3.66,5.92v19.87a6.63,6.63,0,0,1-6.62,6.62H302.35a6.62,6.62,0,0,0-6.62,6.62v19.87H249.37V158.65A51,51,0,0,0,288,136.06a6.62,6.62,0,0,0-.84-8.33l-6.43-6.43a9.07,9.07,0,0,1-2.63-6.37,8.84,8.84,0,0,1,.46-2.83,9,9,0,0,1,8.55-6.18h8.61a6.62,6.62,0,0,0,6.62-6.62V65.65c8.29,5,14.74,12.74,17.37,21.17l4.36,14.61a6.65,6.65,0,0,0,1,2.2l13.8,19.68Zm-127,58.91-44.71-39.74H232l4.09,8.19v31.55Zm76.3-125.84a35.15,35.15,0,0,1,7.29.88V92.67h-2a22.26,22.26,0,0,0-15.75,38L273.7,133a38,38,0,0,1-10.47,8.17,37.59,37.59,0,0,1-16.44,4.41l-13.14-26.28a44.9,44.9,0,0,1-2.17-5.25,36.24,36.24,0,0,0,14.58-46.39,44.25,44.25,0,0,1,3.8-2.5,41,41,0,0,1,20.64-5.59Zm-68.88,0a23.18,23.18,0,1,1-23.18,23.18A23.18,23.18,0,0,1,212.94,59.55ZM150,79.42a19.89,19.89,0,0,1,19.87-19.87h15a36.15,36.15,0,0,0-6.94,33.12H150Zm0,145.39L169.14,245H150ZM249.36,351H236.5c.31-.46.61-.93.89-1.42a25,25,0,0,0,3.25-11.83H256a6.62,6.62,0,0,0,6.28-4.53,25.14,25.14,0,0,0-2.11-20.55c-.28-.48-.58-1-.89-1.41h12.86a19.87,19.87,0,0,0,19.28-24.69l-6.62-26.49A19.84,19.84,0,0,0,265.52,245h-36a13.26,13.26,0,0,1,13.25-13.25h52.19a27.27,27.27,0,0,1,25.24,16.76,28.59,28.59,0,0,1,2,10.52v18.28a27.11,27.11,0,0,1-8,19.29,39.92,39.92,0,0,0-10.21,17c0,.15-.09.32-.12.48a40.41,40.41,0,0,0-1.54,11.14v38.15a27.32,27.32,0,0,1-27.29,27.29h-5.83a6.36,6.36,0,0,1-4-1.51l3.39-13.54A19.87,19.87,0,0,0,249.36,351ZM150,417.2H197.2l-5.3,13.25H150Zm264.93,13.25H373.07L348.9,370l6.2-43.49a46.29,46.29,0,0,0,26.73-41.79,45.7,45.7,0,0,0-4.67-20l37.78-39.9Zm-47.78-155.2a32.65,32.65,0,0,1-9.6,34l4-28.09Zm92.18-116.6L350.53,273.56a6.63,6.63,0,0,0-1.74,3.61l-6.29,43.91c0,.1,0,.22,0,.33l-6.91,48.49a6.62,6.62,0,0,0,.4,3.39l22.86,57.15H206.17l5.3-13.25h31.27a19.82,19.82,0,0,0,19.15-14.68,19.75,19.75,0,0,0,7.35,1.43h5.83a40.58,40.58,0,0,0,40.53-40.53V325.27a27.15,27.15,0,0,1,1.12-7.78c0-.14.08-.28.11-.44A26.9,26.9,0,0,1,323.59,306a40.26,40.26,0,0,0,11.88-28.66V259a42.15,42.15,0,0,0-3-15.53,40.51,40.51,0,0,0-37.51-25H242.74A26.52,26.52,0,0,0,216.25,245H187.38l-81.77-86.37A31,31,0,0,1,97,137.18a31.3,31.3,0,0,1,31.26-31.26h56.56A36,36,0,0,0,219,118.61a58.77,58.77,0,0,0,2.74,6.56l3.62,7.24h-82A6.62,6.62,0,0,0,139,144l59.61,53a6.62,6.62,0,0,0,4.4,1.67H362a6.62,6.62,0,0,0,4.4-1.67L426,144a6.62,6.62,0,0,0-4.4-11.57H350.28l1.4-.7a6.63,6.63,0,0,0,2.46-9.73l-11.27-16.07h93.8a31.23,31.23,0,0,1,22.68,52.74Z"/></svg>