<svg id="Слой_1" data-name="Слой 1" xmlns="http://www.w3.org/2000/svg" viewBox="0 0 512 512"><defs><style>.cls-1{fill:#00c5c5;}</style></defs><title>иконки для подкатегорий</title><path class="cls-1" d="M315.15,486.57h-.38a6.75,6.75,0,0,1-6.37-7.12,144.49,144.49,0,0,1,6.66-35,6.75,6.75,0,0,1,12.9,4,131.3,131.3,0,0,0-6.07,31.76A6.75,6.75,0,0,1,315.15,486.57Z"/><path class="cls-1" d="M142.67,138.83a6.75,6.75,0,0,0,8.86-3.58A79.19,79.19,0,0,0,156,121.2a6.75,6.75,0,1,0-13.2-2.87A65.65,65.65,0,0,1,139.1,130,6.75,6.75,0,0,0,142.67,138.83Z"/><path class="cls-1" d="M143.88,96.38a6.75,6.75,0,0,0,13.41-1.58,76.65,76.65,0,0,0-3.13-14.45,6.75,6.75,0,1,0-12.86,4.13A63.35,63.35,0,0,1,143.88,96.38Z"/><path class="cls-1" d="M137.23,148.19a6.75,6.75,0,0,0-9.15,2.74c-.78,1.45-1.49,2.7-2.16,3.82a6.75,6.75,0,1,0,11.59,6.93c.77-1.29,1.57-2.71,2.45-4.34A6.75,6.75,0,0,0,137.23,148.19Z"/><path class="cls-1" d="M285.23,102.3a7.64,7.64,0,0,0,.8,0,6.76,6.76,0,0,0,6.7-6,63.19,63.19,0,0,1,2.57-11.91,6.75,6.75,0,1,0-12.86-4.13,77,77,0,0,0-3.13,14.45A6.75,6.75,0,0,0,285.23,102.3Z"/><path class="cls-1" d="M296.64,157.34c.88,1.63,1.68,3,2.45,4.34a6.75,6.75,0,1,0,11.6-6.93c-.67-1.12-1.38-2.37-2.16-3.82a6.75,6.75,0,1,0-11.89,6.41Z"/><path class="cls-1" d="M285.78,113.16a6.75,6.75,0,0,0-5.16,8,78.91,78.91,0,0,0,4.47,14.06A6.75,6.75,0,1,0,297.51,130a65.37,65.37,0,0,1-3.7-11.65A6.75,6.75,0,0,0,285.78,113.16Z"/><path class="cls-1" d="M92.45,340.23a6.75,6.75,0,1,0,13.06-3.45c-1.13-4.3-2.18-8.62-3.1-12.85a6.75,6.75,0,0,0-13.2,2.88C90.19,331.23,91.27,335.74,92.45,340.23Z"/><path class="cls-1" d="M104.2,376.88a6.75,6.75,0,1,0,12.64-4.74c-1.56-4.17-3.06-8.37-4.45-12.51a6.75,6.75,0,0,0-12.8,4.31C101,368.22,102.58,372.57,104.2,376.88Z"/><path class="cls-1" d="M147.7,440.87c-1.61-3.83-3.42-7.83-5.7-12.6a6.75,6.75,0,0,0-12.19,5.82c2.18,4.57,3.91,8.38,5.43,12a6.75,6.75,0,1,0,12.45-5.24Z"/><path class="cls-1" d="M85,302.29a6.76,6.76,0,0,0,6.69,5.91,7.05,7.05,0,0,0,.86-.05,6.75,6.75,0,0,0,5.85-7.55c-.56-4.42-1-8.81-1.26-13a6.75,6.75,0,0,0-13.48.89C83.92,292.95,84.37,297.6,85,302.29Z"/><path class="cls-1" d="M90.36,270.46a6.75,6.75,0,0,0,6.73-6.24,74.71,74.71,0,0,1,1.71-12.1,6.75,6.75,0,0,0-13-3.58,83.52,83.52,0,0,0-2.15,14.64,6.76,6.76,0,0,0,6.22,7.25Z"/><path class="cls-1" d="M119.16,412.2a6.75,6.75,0,1,0,12.22-5.76c-1.9-4-3.76-8.12-5.51-12.12a6.75,6.75,0,1,0-12.37,5.42C115.29,403.85,117.2,408,119.16,412.2Z"/><path class="cls-1" d="M156.93,471.07c-.34-2-.75-4-1.22-6.06a6.75,6.75,0,1,0-13.16,3c.41,1.78.77,3.57,1.07,5.31s.54,3.26.79,4.91a6.75,6.75,0,0,0,6.67,5.76,6.45,6.45,0,0,0,1-.08,6.75,6.75,0,0,0,5.68-7.68Q157.37,473.64,156.93,471.07Z"/><path class="cls-1" d="M346.7,281.26a6.74,6.74,0,0,0-7.19,6.29c-.28,4.23-.71,8.62-1.27,13a6.75,6.75,0,0,0,5.85,7.55,7,7,0,0,0,.86.05,6.75,6.75,0,0,0,6.69-5.91c.6-4.69,1-9.34,1.34-13.84A6.76,6.76,0,0,0,346.7,281.26Z"/><path class="cls-1" d="M353,263.19a83.12,83.12,0,0,0-2.15-14.64,6.75,6.75,0,0,0-13,3.57,74.72,74.72,0,0,1,1.71,12.1,6.76,6.76,0,0,0,6.73,6.24l.52,0A6.75,6.75,0,0,0,353,263.19Z"/><path class="cls-1" d="M334.19,323.94c-.93,4.22-2,8.54-3.1,12.85a6.75,6.75,0,1,0,13.06,3.44c1.18-4.49,2.27-9,3.24-13.41a6.75,6.75,0,0,0-13.19-2.89Z"/><path class="cls-1" d="M332.41,376.88c1.62-4.31,3.17-8.66,4.61-12.94a6.75,6.75,0,0,0-12.8-4.31c-1.39,4.13-2.89,8.34-4.46,12.51a6.75,6.75,0,1,0,12.65,4.74Z"/><path class="cls-1" d="M289,459.94A6.75,6.75,0,0,0,280.9,465c-.47,2-.88,4.06-1.22,6.06q-.44,2.57-.83,5.2a6.76,6.76,0,0,0,5.68,7.68,7,7,0,0,0,1,.07,6.75,6.75,0,0,0,6.67-5.76c.25-1.66.51-3.3.79-4.91s.66-3.53,1.07-5.31A6.75,6.75,0,0,0,289,459.94Z"/><path class="cls-1" d="M319.64,390.84a6.75,6.75,0,0,0-8.89,3.48c-1.75,4-3.61,8.09-5.51,12.13a6.75,6.75,0,1,0,12.22,5.75c2-4.15,3.86-8.34,5.66-12.46A6.75,6.75,0,0,0,319.64,390.84Z"/><path class="cls-1" d="M303.61,425.09a6.75,6.75,0,0,0-9,3.18c-2.28,4.76-4.08,8.77-5.7,12.6a6.75,6.75,0,1,0,12.45,5.24c1.52-3.63,3.25-7.45,5.43-12A6.76,6.76,0,0,0,303.61,425.09Z"/><path class="cls-1" d="M379.06,269A194.14,194.14,0,0,0,372,239.12c-1.43-4.39-3.31-8.64-4.36-13.11s-.94-9.25-1.83-13.85a99,99,0,0,0-4.67-16c-5.76-15.24-15.35-27.88-22.68-42.22A226.82,226.82,0,0,1,329,132.74a252,252,0,0,1-11.78-40.28c-4.19-20.39-7-42.32-5.24-63.2a6.75,6.75,0,0,0-13.46-1.15c-.26,3-5.81,73.49,33,141.29-41.51,5.46-78.55,7.87-112.87,7.32h-.41c-34.4.55-71.48-1.86-113.06-7.34,38.76-67.8,33.22-138.25,33-141.27a6.75,6.75,0,1,0-13.46,1.16c.06.71,5.65,71.56-33.16,136.72a148.44,148.44,0,0,0-12.05,21.25,109.3,109.3,0,0,0-8.44,25l0,.12c-1.07,5.48-.55,11-2.41,16.22-2,5.59-4.43,11-6,16.76a228.36,228.36,0,0,0-5,23.62c-6.43,40.41.38,76.19,22.05,116,17.51,32.16,33.36,63.65,35.12,95.18a6.76,6.76,0,0,0,6.74,6.38h.38a6.75,6.75,0,0,0,6.37-7.12c-1.91-34.34-18.47-67.31-36.74-100.88C71.3,341.52,65,308.39,70.88,271.12A210.63,210.63,0,0,1,78.5,239.2c.24-.74.83-2,1.39-3.22l.4-.86c5.59.39,11.19.68,16.65,1,7.56.39,15.37.8,23,1.46a6.75,6.75,0,0,0,1.16-13.46c-7.84-.67-15.77-1.09-23.44-1.49-4.71-.25-9.52-.5-14.32-.81,0-.13,0-.27,0-.4.06-.69.12-1.38.21-2.07,0-.17,0-.34.06-.5a86.48,86.48,0,0,1,7.2-23.95c.52-1.18,5.58-12.88,6.58-12.9,44.66,6.14,84.27,8.84,121,8.25h.1c36.63.59,76.18-2.11,120.77-8.23,5.36,9.3,13,24.94,14.06,39.81-4.73.3-9.47.56-14.11.8-8.59.45-17.47.91-26.25,1.74-34.27,3.23-68.33,22.45-94.52,53.1-18.42-21.51-41.26-37.86-65-46.43a6.75,6.75,0,0,0-4.58,12.71c23.08,8.32,45.29,24.85,62.76,46.65V478.24a6.75,6.75,0,0,0,13.51,0V290.61c24.38-30.55,56.77-49.77,89.13-52.82,8.5-.8,17.24-1.26,25.69-1.7,5.39-.28,10.92-.57,16.45-1l.39.85c.56,1.21,1.15,2.47,1.39,3.22a210.63,210.63,0,0,1,7.61,31.92c5.93,37.27-.42,70.41-20.58,107.44-6,11-12.34,22.82-18.08,35.23a6.75,6.75,0,1,0,12.26,5.67c5.57-12,11.79-23.61,17.68-34.44C378.69,345.19,385.49,309.41,379.06,269Z"/><path class="cls-1" d="M403.68,415.69h22.15v60.66H414.58a5.11,5.11,0,1,0,0,10.22h54.52a5.11,5.11,0,0,0,0-10.22H458l-.21-60.66H480a5.11,5.11,0,0,0,0-10.22H468.77V252A21.4,21.4,0,0,0,465.16,240L447,212.74V176.12a5.11,5.11,0,1,0-10.22,0v36.62L418.53,240A21.4,21.4,0,0,0,414.92,252V405.47H403.68a5.11,5.11,0,0,0,0,10.22Zm44.06,60.66H436.05V415.69h11.48ZM427,245.72h0l14.81-22.21,14.81,22.21a11.21,11.21,0,0,1,1.89,6.24v39h-33.4V252A11.2,11.2,0,0,1,427,245.72Zm-1.89,55.47h33.4V405.47h-33.4Z"/><path class="cls-1" d="M447.3,279.38a5.12,5.12,0,1,0-3.61-1.5A5.13,5.13,0,0,0,447.3,279.38Z"/><path class="cls-1" d="M436.39,263a5.12,5.12,0,1,0-3.61-1.5A5.12,5.12,0,0,0,436.39,263Z"/></svg>