<svg id="Слой_1" data-name="Слой 1" xmlns="http://www.w3.org/2000/svg" viewBox="0 0 512 512"><defs><style>.cls-1{fill:#00c5c5;}</style></defs><title>иконки для подкатегорий</title><path class="cls-1" d="M355.6,422.26l-60.92-26a9.31,9.31,0,0,1-5.67-8.58v-9c25.22-12.6,44.85-31.76,58.43-57.09a175.08,175.08,0,0,0,17.42-50.86,21.87,21.87,0,0,0,4.92-3.5c19.27-17.4,16.35-71.89,15.95-78.11-2.45-33.34-13.16-50.77-24.5-69.22-1.24-2-2.5-4.06-3.75-6.15a2.07,2.07,0,0,1-.23-1.59l1.4-5.21a15.6,15.6,0,0,0-1.8-12.19,169,169,0,0,0-44.48-48.08c-24.2-17.59-55.26-23.13-83.09-14.82C211.36,37.24,197.5,47,188.09,61a6.74,6.74,0,1,0,11.18,7.53A56.05,56.05,0,0,1,218.8,50.79c9.08,13.66,24.69,21.31,40.08,27.95,13.31,5.75,29.88,12.9,37,26.24a6.74,6.74,0,1,0,11.9-6.33c-9.31-17.52-29.09-26.06-43.53-32.29-13.1-5.66-25.42-11.6-32.73-21,.55-.17,1.08-.36,1.64-.52,23.82-7.11,50.48-2.33,71.31,12.81a155.56,155.56,0,0,1,40.94,44.27,2.06,2.06,0,0,1,.24,1.62l-1.39,5.21a15.63,15.63,0,0,0,1.71,12c1.28,2.12,2.55,4.19,3.82,6.25,10.91,17.75,20.33,33.08,22.53,63.09,1.3,20.17-.5,55.25-10.61,66.26C358,241,341.06,196.42,266.39,168.62c-.79-.29-79.26-30-76.2-74.16a6.74,6.74,0,0,0-13.45-.93,50,50,0,0,0,.08,7.89,82.73,82.73,0,0,0-23,10.84c-12.51,8.56-15.89,15.84-16.39,29.7,0,0,0,.08,0,.13s0,.12,0,.22c0,1.36-.06,2.78-.06,4.27-6-1.47-11.71.83-15.88,6.46-3.43,4.62-9.42,16.78-10.94,46.28a138.74,138.74,0,0,0,2.66,35.87c2.17,10.22,6.56,19.65,13.81,29.7a11.7,11.7,0,0,0,4.82,3.88c3.43,19.46,9.37,37.18,17.78,52.85,13.58,25.33,33.19,44.49,58.41,57.08v9a9.31,9.31,0,0,1-5.67,8.58l-60.92,26a40.52,40.52,0,0,0-24.67,37.33v22.67a6.74,6.74,0,0,0,6.74,6.74H373.53a6.74,6.74,0,0,0,6.74-6.74V459.59A40.52,40.52,0,0,0,355.6,422.26Zm-194.17-107c-7.8-14.54-13.31-31.08-16.48-49.32a12,12,0,0,0,2.68-4.93c5-18.53,10.45-33.71,20.62-47.5a6.74,6.74,0,0,0-10.85-8c-10.7,14.52-16.59,29.92-21.75,48.27a60.35,60.35,0,0,1-9.31-21.37A125.22,125.22,0,0,1,124,200c.93-18.12,4.19-33.41,8.3-38.94,1.21-1.63,1.61-1.49,2.08-1.33a14,14,0,0,0,3.45.7c.43,8.22,1.3,17.64,3,24.75a6.74,6.74,0,0,0,13.1-3.18c-3.36-13.84-3.06-39.47-3.06-39.73,0,0,0-.07,0-.11.35-10.14,2.5-13.28,10.54-18.77a68.88,68.88,0,0,1,18.41-8.77c7,19.25,24.56,34.76,41.64,46-4.56,2.3-9.11,4.17-12.62,5.61l-.62.25a123.71,123.71,0,0,0-27.32,15.47A6.74,6.74,0,1,0,189,192.7a110.26,110.26,0,0,1,24.34-13.78l.61-.25c6-2.44,13.72-5.64,20.85-10a216.21,216.21,0,0,0,26.91,12.64c23.44,8.73,55.42,24.91,74.62,52.46C347.69,250,349.22,262.88,349.23,263a7,7,0,0,0,.13.81,12,12,0,0,0,2.19,4.86,161.52,161.52,0,0,1-16,46.61c-14,26.11-35.12,44.94-62.78,56a65.29,65.29,0,0,1-48.58,0C196.55,360.19,175.43,341.36,161.43,315.25ZM366.79,475.52H130.18V459.59a27.06,27.06,0,0,1,16.47-24.93l60.92-26a22.78,22.78,0,0,0,13.87-21v-3.15a78.33,78.33,0,0,0,54.09,0v3.14a22.78,22.78,0,0,0,13.87,21l60.92,26a27.05,27.05,0,0,1,16.47,24.93Z"/><path class="cls-1" d="M196.62,266.06a20.52,20.52,0,0,0,41,0,6.74,6.74,0,0,0-13.48,0,7,7,0,1,1-14.08,0,6.74,6.74,0,0,0-13.48,0Z"/><path class="cls-1" d="M279.85,286.58a20.54,20.54,0,0,0,20.52-20.52,6.74,6.74,0,0,0-13.48,0,7,7,0,0,1-14.08,0,6.74,6.74,0,0,0-13.48,0A20.54,20.54,0,0,0,279.85,286.58Z"/><path class="cls-1" d="M213.55,235.12a59.35,59.35,0,0,1,9,6.39,6.74,6.74,0,1,0,8.64-10.35,71.45,71.45,0,0,0-11.06-7.8,6.74,6.74,0,1,0-6.58,11.76Z"/><path class="cls-1" d="M163.79,261.81a6.74,6.74,0,0,0,6.73-6.47,16.42,16.42,0,0,1,3.37-8.8,6.74,6.74,0,1,0-11-7.82,29.56,29.56,0,0,0-5.87,16.1,6.74,6.74,0,0,0,6.47,7Z"/><path class="cls-1" d="M203.63,224.3a6.74,6.74,0,0,0-7.73-5.57,52,52,0,0,0-14.69,4.85,6.74,6.74,0,1,0,6,12.05,38.4,38.4,0,0,1,10.82-3.6A6.74,6.74,0,0,0,203.63,224.3Z"/><path class="cls-1" d="M298.93,232a38.4,38.4,0,0,1,10.82,3.6,6.74,6.74,0,1,0,6-12.05,52,52,0,0,0-14.69-4.85A6.74,6.74,0,0,0,298.93,232Z"/><path class="cls-1" d="M326.47,255.34a6.74,6.74,0,0,0,6.73,6.47h.27a6.74,6.74,0,0,0,6.47-7,29.59,29.59,0,0,0-5.87-16.1,6.74,6.74,0,0,0-11,7.82A16.42,16.42,0,0,1,326.47,255.34Z"/><path class="cls-1" d="M270.13,243.08a6.71,6.71,0,0,0,4.31-1.56,58.85,58.85,0,0,1,9-6.39,6.74,6.74,0,1,0-6.58-11.77,72.2,72.2,0,0,0-11.06,7.8,6.74,6.74,0,0,0,4.33,11.91Z"/><path class="cls-1" d="M221.89,346.82a6.74,6.74,0,1,0-13.13,3,45.14,45.14,0,0,1,.92,5.52A6.74,6.74,0,0,0,223.09,354,58.36,58.36,0,0,0,221.89,346.82Z"/><path class="cls-1" d="M212.16,325.74a68.45,68.45,0,0,0-10.12-11,6.74,6.74,0,0,0-8.89,10.13,54.88,54.88,0,0,1,8.13,8.8,6.74,6.74,0,1,0,10.88-8Z"/><path class="cls-1" d="M183.42,302.39a84.51,84.51,0,0,0-13.72-5.55,6.74,6.74,0,0,0-3.65,13,73.4,73.4,0,0,1,11.33,4.63,6.74,6.74,0,0,0,6-12.06Z"/><path class="cls-1" d="M283.16,341.77a6.74,6.74,0,0,0-8.09,5,58.36,58.36,0,0,0-1.19,7.19,6.73,6.73,0,0,0,6,7.39,6.6,6.6,0,0,0,.7,0,6.74,6.74,0,0,0,6.7-6.05,45.14,45.14,0,0,1,.92-5.52A6.74,6.74,0,0,0,283.16,341.77Z"/><path class="cls-1" d="M327.27,296.84a84.55,84.55,0,0,0-13.72,5.55,6.74,6.74,0,1,0,6,12.06,73.18,73.18,0,0,1,11.34-4.63,6.74,6.74,0,0,0-3.65-13Z"/><path class="cls-1" d="M294.93,314.76a68.28,68.28,0,0,0-10.12,11,6.74,6.74,0,1,0,10.88,8,54.75,54.75,0,0,1,8.13-8.8,6.74,6.74,0,1,0-8.89-10.13Z"/></svg>