<svg id="Слой_1" data-name="Слой 1" xmlns="http://www.w3.org/2000/svg" viewBox="0 0 512 512"><defs><style>.cls-1{fill:#00c5c5;}</style></defs><title>иконки для подкатегорий</title><path class="cls-1" d="M262.91,454.41a21.18,21.18,0,0,0-21.16-21.16H65.45a7.05,7.05,0,1,1,0-14.1h91.68a21.16,21.16,0,0,0,0-42.31H93.66a7.05,7.05,0,0,1-7.05-7.05V333.93a25,25,0,0,0,8-3.14l14.92-9.18a35.19,35.19,0,0,0,54.62-29.42,33.14,33.14,0,0,0-.4-3.95l16.5-10.16h66A78,78,0,0,0,281,269.91L458.19,181.3a42.17,42.17,0,0,0,23.34-38.19,43.21,43.21,0,0,0-10-27.63l-7.71-9.26a32.92,32.92,0,0,0-18.53-16.47,41.4,41.4,0,0,0,1-8.39V79.43a41.11,41.11,0,0,0-59.94-36.55L158.7,160.15l-13.34,31.11a63.09,63.09,0,0,1-25.12,29.08L62.45,255.85A38.78,38.78,0,0,0,52.05,312l9.43,12.55a25,25,0,0,0,11,8.15v37.12a21.18,21.18,0,0,0,21.16,21.16h63.47a7.05,7.05,0,0,1,0,14.1H65.45a21.16,21.16,0,0,0,0,42.31H241.76a7.05,7.05,0,0,1,7.05,7.05A21.18,21.18,0,0,0,270,475.56H481.54v-14.1H270A7.05,7.05,0,0,1,262.91,454.41ZM87.25,318.79a11.25,11.25,0,0,1-14.49-2.74l-.2-.26L95,301.46a34.92,34.92,0,0,0,4.32,9.86Zm41.67-5.43a21.16,21.16,0,1,1,21.16-21.16A21.18,21.18,0,0,1,128.92,313.36Zm323-144.68L274.65,257.3a63.74,63.74,0,0,1-28.38,6.7h-70l-17.06,10.49a35.21,35.21,0,0,0-7.62-9l38.17-24.32L208.62,218a29.06,29.06,0,0,0,21.08,2.59A33.26,33.26,0,0,0,261,242.84h2.52a33.5,33.5,0,0,0,15.36-3.74l170.52-88.41a33.17,33.17,0,0,0,15.92-18.19,30.28,30.28,0,0,1,2.09,11,28,28,0,0,1-15.54,25.15ZM440.2,102.84a19.23,19.23,0,0,1,2.73,35.32L272.41,226.57a19.14,19.14,0,0,1-8.86,2.17H261a19.23,19.23,0,0,1-18.51-14l182-97.06A41.16,41.16,0,0,0,440.2,102.84ZM392.8,55.42a27,27,0,0,1,39.37,24v1.93a26.93,26.93,0,0,1-14.3,23.82L229,205.91a14.45,14.45,0,0,1-16.7-2.49L176,167.11Zm-323,212.45,57.8-35.51a77.12,77.12,0,0,0,30.7-35.54l8.23-19.2,31.28,31.28-17.55,21.56L137.07,258a34.92,34.92,0,0,0-8.15-1,35.32,35.32,0,0,0-34.55,28.23l-30.3,19.3-.74-1a24.72,24.72,0,0,1-4.93-15.18A24.13,24.13,0,0,1,69.83,267.87Z"/><path class="cls-1" d="M363.58,81l12.33-6.85,6.85,12.33-12.33,6.85Z"/><path class="cls-1" d="M388.26,67.31l12.33-6.85,6.85,12.33-12.33,6.85Z"/><path class="cls-1" d="M338.92,94.7l12.33-6.85,6.85,12.33L345.78,107Z"/><circle class="cls-1" cx="128.92" cy="292.2" r="7.05"/></svg>