<svg id="Слой_1" data-name="Слой 1" xmlns="http://www.w3.org/2000/svg" viewBox="0 0 512 512"><defs><style>.cls-1{fill:#00c5c5;}</style></defs><title>иконки для подкатегорий</title><path class="cls-1" d="M339.61,421V394H191v27H177.51V461.5H353.12V421ZM204.53,407.47H326.1V421H204.53ZM339.61,448H191V434.48H339.61Z"/><path class="cls-1" d="M454.43,265.63H224.79V232a33.91,33.91,0,0,0-24.5-32.47L177.51,193v-5.31a40.44,40.44,0,0,0,12.87-23.21c13.27-10.28,20.9-24.92,20.9-40.68a48.88,48.88,0,0,0-6.75-24.64V96.78a54,54,0,1,0-108.07,0v2.38a48.88,48.88,0,0,0-6.75,24.64c0,15.76,7.63,30.4,20.9,40.67a40.41,40.41,0,0,0,12.87,23.21V193L100.7,199.5A33.91,33.91,0,0,0,76.2,232v33.66H55.94v40.52H69.45V441.24A20.29,20.29,0,0,0,89.71,461.5H164V306.16h27v74.3h13.51v-74.3h20.26v74.3H238.3v-74.3h27v74.3h13.51v-74.3h20.26v74.3H312.6v-74.3H326.1v60.79a20.26,20.26,0,1,0,40.52,0V326.42a6.75,6.75,0,0,1,13.51,0v20.26a20.26,20.26,0,0,0,40.52,0V312.91a6.75,6.75,0,1,1,13.51,0v87.8a20.23,20.23,0,0,0,13.51,19v21.51a6.76,6.76,0,0,1-6.75,6.75H420.66V380.45H407.15V448h-27V400.71H366.63V461.5h74.3a20.29,20.29,0,0,0,20.26-20.26V419.73a20.23,20.23,0,0,0,13.51-19V285.89A20.29,20.29,0,0,0,454.43,265.63ZM177.51,157.56a27,27,0,0,1-54,0V138a63.7,63.7,0,0,0,29.75-6.8l2-.91a67.44,67.44,0,0,0,22.24,6.81Zm-27-101.31a40.58,40.58,0,0,1,37.44,25.06,66.44,66.44,0,0,0-74.89,0A40.58,40.58,0,0,1,150.5,56.25ZM118.36,124,110,121.9v22.72a36.1,36.1,0,0,1-6.75-20.82c0-22.35,21.21-40.52,47.28-40.52s47.28,18.18,47.28,40.52A36.14,36.14,0,0,1,191,144.67l-.06-21.7-7.53.88c-.19,0-21.19,2.11-48.39-25.09l-9.55,9.55A128.93,128.93,0,0,0,141,121.7C128.15,126.19,118.78,124.08,118.36,124ZM89.71,232a20.35,20.35,0,0,1,14.7-19.49L137,203.18v-7.46a39.78,39.78,0,0,0,27,0v7.46l32.58,9.31A20.36,20.36,0,0,1,211.28,232v33.66H191V225.11H110v40.52H89.71Zm87.8,6.64v27h-54v-27ZM110,448H89.71A6.76,6.76,0,0,1,83,441.24V306.16h27Zm40.52,0h-27V306.16h27ZM326.1,292.65H69.45V279.14H326.1ZM461.19,400.71a6.75,6.75,0,0,1-13.51,0v-87.8a20.26,20.26,0,0,0-40.52,0v33.77a6.75,6.75,0,0,1-13.51,0V326.42a20.26,20.26,0,1,0-40.52,0v40.52a6.75,6.75,0,1,1-13.51,0v-87.8H454.43a6.76,6.76,0,0,1,6.75,6.75Z"/><path class="cls-1" d="M445.37,118.74c7-6.17,15.82-13.84,15.82-28.72V83.27H447.68V90c0,8.34-4.05,12.29-11.2,18.55s-15.82,13.83-15.82,28.71,8.77,22.56,15.82,28.73,11.2,10.21,11.2,18.57-4.05,12.3-11.2,18.56S420.66,217,420.66,231.86v6.75h13.51v-6.75c0-8.35,4.05-12.3,11.2-18.57s15.82-13.83,15.82-28.72-8.77-22.56-15.82-28.73-11.2-10.22-11.2-18.57S438.22,125,445.37,118.74Z"/><path class="cls-1" d="M364.32,78.22c7-6.17,15.82-13.84,15.82-28.72V42.74H366.63V49.5c0,8.34-4.05,12.29-11.2,18.55s-15.82,13.83-15.82,28.71,8.77,22.56,15.82,28.73,11.2,10.21,11.2,18.57-4.05,12.3-11.2,18.56-15.82,13.84-15.82,28.73v6.75h13.51v-6.75c0-8.35,4.05-12.3,11.2-18.57s15.82-13.83,15.82-28.72-8.77-22.56-15.82-28.73-11.2-10.22-11.2-18.57S357.17,84.47,364.32,78.22Z"/><path class="cls-1" d="M283.27,118.74c7-6.17,15.82-13.84,15.82-28.72V83.27H285.58V90c0,8.34-4.05,12.29-11.2,18.55s-15.82,13.83-15.82,28.71,8.77,22.56,15.82,28.73,11.2,10.21,11.2,18.57-4.05,12.3-11.2,18.56S258.56,217,258.56,231.86v6.75h13.51v-6.75c0-8.35,4.05-12.3,11.2-18.57s15.82-13.83,15.82-28.72-8.77-22.56-15.82-28.73-11.2-10.22-11.2-18.57S276.12,125,283.27,118.74Z"/></svg>