<svg id="Слой_1" data-name="Слой 1" xmlns="http://www.w3.org/2000/svg" viewBox="0 0 512 512"><defs><style>.cls-1{fill:#00c5c5;}</style></defs><title>иконки для подкатегорий</title><path class="cls-1" d="M300.54,423.5c-24.74-7.32-53.25-15.14-78.55-15.14H202c-50.58,0-113.69,58.85-116.35,61.35a7.42,7.42,0,1,0,10.16,10.81c.62-.57,61.5-57.33,106.19-57.33h20c22.2,0,48.85,7,74.34,14.53a7.42,7.42,0,0,0,4.2-14.23Z"/><path class="cls-1" d="M447.27,282.28a7.35,7.35,0,0,0-7.88,6.93c0,.25-1.74,25.23-13.06,49.65-14.41,31.08-37.22,46.93-67.78,47.2-13.33-.16-24.7-.78-34.58-1.73,60.17-35.34,77.44-161.65,78.25-167.88a7.42,7.42,0,0,0-14.71-1.92c-.21,1.65-22.34,164.16-96.49,164.16a7.65,7.65,0,0,0-1.08.21c-5.09-1.19-9.67-2.43-14-3.68,63.84-36.46,66.85-189.37,67-196.72a7.42,7.42,0,0,0-14.84-.22c0,1.91-3.64,189.92-81.6,189.92l-.13,0q-9.06-1.65-18.19-2.65c57.93-48.43,41.35-195.9,40.53-202.88A7.42,7.42,0,0,0,254,164.43c.06.46,5.35,46.13.79,93.94-4,42.27-16.7,94.71-54.09,105.52-.31,0-.63,0-.94,0H188c43.22-62.88,7.83-175.22,6.19-180.31a7.42,7.42,0,0,0-14.12,4.56c.4,1.24,38.94,123.7-12,176.83A93.43,93.43,0,0,0,154,368.69c30.07-65.4-10.14-152.29-12.06-156.37a7.42,7.42,0,0,0-13.42,6.34c.48,1,47.31,102.08,1.63,161q-2.48,1.39-4.93,2.86C138.06,328.83,99.41,246.14,97.43,242A7.42,7.42,0,0,0,84,248.35c14.84,31.29,46.6,119.25,16.48,151.17-3.58,2.76-7,5.5-10.19,8.17,6.28-49.84-35.73-111.56-38-114.82a7.42,7.42,0,0,0-12.21,8.42c.62.91,61.55,90.43,23.63,131l-.66.69A7.42,7.42,0,0,0,73.79,443.2l.53-.54c3.92-4.06,32.65-33.17,64-50.69l.13-.06c13.89-7.74,28.28-13.23,41.28-13.23h20a246.39,246.39,0,0,1,70,10.16c18.75,5.55,42.5,11.43,87.79,12,.1,0,.19.06.3.06.42,0,.82,0,1.23-.05,2,0,4.06.05,6.19.05a7.32,7.32,0,0,0,2.89-.59c78.74-8.18,86-109.16,86.12-110.22A7.41,7.41,0,0,0,447.27,282.28Z"/><path class="cls-1" d="M390.6,59.71a18,18,0,0,0-18,18V82H365.2V74.55a7.42,7.42,0,1,0-14.84,0V82h-7.42V74.55a7.42,7.42,0,1,0-14.84,0V82h-7.42V67.13a7.42,7.42,0,1,0-14.84,0V82h-7.42V59.71a7.42,7.42,0,1,0-14.84,0V82h-7.42V52.29a7.42,7.42,0,1,0-14.84,0V82h-7.42V44.88a7.42,7.42,0,0,0-14.84,0V82h-7.42V44.88a7.42,7.42,0,0,0-14.84,0V82h-7.42V44.88a7.42,7.42,0,0,0-14.84,0V82h-7.42V44.88a7.42,7.42,0,0,0-14.84,0V82h-7.42V52.29a7.42,7.42,0,0,0-14.84,0V82h-7.42V59.71a7.42,7.42,0,1,0-14.84,0V82h-7.42V67.13a7.42,7.42,0,1,0-14.84,0V82H98.16V74.55a7.42,7.42,0,1,0-14.84,0V82a7.42,7.42,0,1,0,0,14.84v7.42a7.42,7.42,0,0,0,14.84,0V96.8h7.42v14.84a7.42,7.42,0,1,0,14.84,0V96.8h7.42v22.25a7.42,7.42,0,0,0,14.84,0V96.8h7.42v29.67a7.42,7.42,0,0,0,14.84,0V96.8h7.42v37.09a7.42,7.42,0,0,0,14.84,0V96.8h7.42v37.09a7.42,7.42,0,0,0,14.84,0V96.8h7.42v37.09a7.42,7.42,0,0,0,14.84,0V96.8h7.42v37.09a7.42,7.42,0,0,0,14.84,0V96.8h7.42v29.67a7.42,7.42,0,1,0,14.84,0V96.8h7.42v22.25a7.42,7.42,0,1,0,14.84,0V96.8h7.42v14.84a7.42,7.42,0,1,0,14.84,0V96.8h7.42v7.42a7.42,7.42,0,1,0,14.84,0V96.8h7.42v7.42a7.42,7.42,0,1,0,14.84,0V96.8h7.42v4.27a18,18,0,0,0,18,18h78.45V59.71Z"/></svg>