<svg width="680" height="453" viewBox="0 0 680 453" fill="none" xmlns="http://www.w3.org/2000/svg">
<g clip-path="url(#clip0)">
<path d="M432.888 243.024C430.984 237.856 428.536 232.552 429.624 227.112C430.576 221.673 437.104 217.049 441.592 220.177C444.448 222.08 445.128 226.024 447.712 228.2C451.656 231.6 458.456 229.288 460.904 224.664C463.488 220.041 462.808 214.465 461.04 209.433C459.408 204.537 456.824 199.777 455.872 194.609C454.784 189.442 455.6 183.594 459.544 180.194C463.488 176.794 471.104 178.018 472.328 183.05C472.872 185.09 472.464 187.402 473.552 189.034C475.456 191.754 480.216 190.53 481.984 187.674C483.752 184.818 483.616 181.146 483.752 177.882C484.432 162.651 493.408 147.963 506.872 140.483C510.952 138.171 516.12 136.539 520.336 138.715C526.456 141.843 526.592 150.547 524.688 157.211C521.968 166.866 516.8 175.842 509.864 183.186C506.872 186.314 503.608 189.034 501.16 192.57C498.712 196.105 497.216 200.593 498.44 204.673C499.664 208.753 504.288 212.017 508.232 210.521C512.72 208.889 515.032 202.769 519.656 202.905C524.688 203.041 526.32 209.977 524.552 214.737C521.968 221.944 515.168 227.52 507.688 228.608C503.88 229.152 499.936 228.608 496.4 229.968C492.864 231.328 489.736 235.408 491.504 238.808C493.272 242.208 498.032 242.072 501.568 243.432C508.912 246.288 510.816 257.847 504.696 262.879C496.944 269.271 484.432 263.287 475.32 267.503C469.336 270.359 466.072 277.023 464.576 283.414C463.08 289.942 462.944 296.742 460.768 302.998C458.592 309.253 453.56 315.237 447.032 315.917C431.12 317.413 434.112 299.054 436.016 289.262C438.872 273.895 438.328 257.983 432.888 243.024Z" fill="#7AC1C1"/>
<path d="M483.208 322.581C506.056 300.686 534.344 283.414 565.624 277.838C574.192 276.342 584.528 276.342 589.696 283.278C593.776 288.718 592.824 296.878 589.288 302.726C585.752 308.573 580.04 312.789 574.464 316.733C562.496 325.301 550.528 334.004 538.424 342.572C521.152 354.948 503.88 367.459 486.608 379.835C470.968 391.122 453.832 408.258 436.016 415.602C425.272 420.089 410.856 413.698 416.296 401.05C420.648 390.578 433.84 382.555 440.912 373.987C455.056 356.716 466.888 338.22 483.208 322.581Z" fill="#2BF5F5"/>
<path d="M220.456 253.767C202.504 212.696 187.68 167.818 195.16 123.756C196.656 114.644 199.376 105.396 204.816 97.7804C210.256 90.3007 218.96 84.5889 228.344 84.8609C237.864 84.9969 246.432 91.2527 252.008 99.0044C257.448 106.756 260.304 116.14 262.752 125.251C276.76 176.114 285.056 228.608 285.464 281.374C285.736 307.893 284.512 334.956 280.024 361.067C275.264 388.674 259.08 347.06 256.088 338.356C246.432 309.253 232.696 281.782 220.456 253.767Z" fill="#2BF5F5"/>
<path d="M246.84 284.366C230.656 257.167 207.944 232.96 179.384 219.224C171.632 215.417 161.568 212.697 154.768 218.001C149.328 222.216 148.104 230.24 150.008 236.768C151.912 243.432 156.264 248.871 160.616 254.311C169.864 265.871 179.112 277.294 188.36 288.854C201.688 305.445 215.016 322.037 228.344 338.628C240.448 353.588 252.416 374.667 267.512 386.635C276.76 393.842 292.264 391.53 290.496 377.931C289 366.643 278.528 355.492 273.904 345.292C264.792 324.757 258.4 303.814 246.84 284.366Z" fill="#2BF5F5"/>
<path d="M339.864 311.021C342.04 279.334 351.56 247.647 370.872 222.624C376.176 215.824 383.792 208.889 392.36 210.521C399.16 211.881 403.784 218.408 405.008 225.208C406.232 232.008 404.872 238.944 403.376 245.607C400.248 260.023 397.12 274.438 394.128 288.99C389.64 309.797 385.152 330.604 380.8 351.412C376.72 370.315 375.496 394.522 367.336 411.929C362.304 422.537 347.48 427.297 342.992 414.513C339.184 403.77 343.672 389.082 343.128 377.931C341.904 355.219 338.232 333.596 339.864 311.021Z" fill="#2BF5F5"/>
<path d="M404.328 310.749C416.704 281.51 435.744 254.583 462.264 237.04C469.472 232.28 478.992 228.2 486.472 232.552C492.456 235.952 494.768 243.704 493.816 250.503C492.864 257.303 489.192 263.423 485.656 269.271C478.04 281.918 470.424 294.566 462.808 307.349C451.928 325.573 440.912 343.796 430.032 362.155C420.104 378.747 411.128 401.186 397.8 415.058C389.64 423.489 374 423.217 373.864 409.618C373.728 398.33 382.704 385.683 385.832 374.939C391.952 353.316 395.488 331.557 404.328 310.749Z" fill="#2BF5F5"/>
<path d="M220.864 322.309C197.608 315.509 175.304 306.125 154.088 294.294C152.32 293.342 150.552 292.254 149.464 290.622C148.376 288.99 148.24 286.542 149.6 285.182C150.552 284.23 152.184 283.958 153.136 283.006C154.632 281.51 154.36 279.062 153.272 277.294C152.048 275.662 150.144 274.574 148.376 273.622C135.456 267.095 120.632 261.111 114.512 247.919C113.016 244.519 112.2 240.848 110.432 237.584C104.448 225.48 75.616 215.688 85.408 206.305C93.704 198.281 106.76 215.145 115.056 223.168C120.36 228.336 126.072 234.728 133.416 234.456C136.408 234.32 139.4 233.096 142.256 233.504C147.56 234.184 150.96 239.488 153.136 244.247C155.448 249.143 157.896 254.583 162.792 256.487C166.328 257.847 170.408 257.031 174.216 257.439C183.056 258.391 189.584 266.143 195.024 273.214C204.136 285.182 213.248 297.014 222.496 308.981C226.984 314.829 231.744 322.173 229.16 329.109C222.904 325.165 216.648 321.085 210.392 317.141" fill="#008F8F"/>
<path d="M516.664 300.142C544.816 265.327 571.2 226.16 575.688 181.554C576.64 172.306 576.504 162.65 573.376 153.947C570.112 145.243 563.176 137.491 554.2 135.179C544.952 132.867 535.024 136.403 527.68 142.523C520.336 148.643 515.168 156.803 510.272 164.962C483.208 210.249 461.176 258.663 446.624 309.389C439.28 334.82 433.16 361.203 430.576 387.586C427.856 415.465 454.512 379.563 459.68 372.083C476.816 346.652 497.488 323.941 516.664 300.142Z" fill="#2BF5F5"/>
<path d="M556.376 201.273V201.137C556.376 200.865 555.968 200.593 555.696 200.729C555.152 200.729 555.016 200.865 554.608 201.137C553.384 202.089 552.704 204.537 551.48 205.761C548.488 209.025 544.816 211.745 541.28 214.329C538.152 216.641 534.752 219.088 531.216 220.856C529.176 221.808 527.136 222.624 524.96 223.168C523.464 223.44 521.968 223.304 520.472 223.44C526.184 212.017 531.216 200.185 535.704 188.218C540.872 174.346 545.088 160.203 553.384 147.827C553.656 147.283 552.976 146.875 552.568 147.419C545.088 157.619 540.872 169.45 536.656 181.146C535.432 184.274 534.344 187.402 533.12 190.665C529.992 187.538 529.04 182.098 528.36 177.882C527.544 173.53 527.544 169.178 527.816 164.69C528.36 164.69 528.768 164.146 528.36 163.602C528.088 163.33 527.952 163.058 527.68 162.786C527.272 162.242 526.456 162.786 526.32 163.33C525.776 168.634 526.048 174.074 527.136 179.378C527.816 182.914 528.768 188.898 532.032 191.073C532.168 191.209 532.44 191.209 532.576 191.073C532.712 190.937 532.848 190.937 532.984 190.801C529.584 199.505 526.048 208.209 521.968 216.641C515.984 229.152 509.32 240.984 501.568 252.271C500.752 249.823 499.392 247.511 498.44 245.064C497.488 242.616 496.808 240.168 496.264 237.584C495.584 234.728 495.176 231.872 495.04 229.016C495.04 228.064 494.768 219.632 495.856 220.04C496.264 220.176 496.536 219.632 496.4 219.36C496.264 219.224 496.264 218.952 496.128 218.816C495.992 218.544 495.584 218.408 495.312 218.544C493.272 219.088 493.544 221.4 493.408 223.168C493.272 226.568 493.408 230.104 493.952 233.504C494.904 239.896 496.672 248.191 500.888 253.223C494.36 262.743 487.152 271.991 479.128 280.558C469.336 291.166 458.048 301.23 450.16 313.333C449.888 313.741 450.432 314.149 450.84 313.877C459.952 304.221 468.792 294.294 477.904 284.502C482.12 280.014 486.064 275.39 490.008 270.767C489.872 271.039 490.008 271.447 490.416 271.447C496.944 272.535 505.24 272.535 511.632 270.767C512.312 270.631 512.176 269.543 511.496 269.543C508.096 269.543 504.56 270.087 501.024 270.223C497.488 270.359 494.088 270.087 490.552 270.223C490.416 270.223 490.416 270.223 490.416 270.223C494.496 265.327 498.304 260.295 501.84 255.127C508.504 245.472 514.488 235.272 519.792 224.664C522.376 225.752 525.64 224.8 528.224 223.984C532.168 222.624 535.84 220.312 539.24 218C542.64 215.553 546.04 212.969 549.168 210.249C550.664 208.889 552.16 207.665 553.52 206.033C553.656 205.761 555.288 203.449 555.832 202.089C555.968 202.089 556.104 202.089 556.104 201.953L556.24 201.817C556.376 201.681 556.376 201.409 556.376 201.273Z" fill="#7AC1C1"/>
<path d="M437.512 422.401C461.584 419.953 485.384 414.785 508.232 407.034C510.136 406.354 512.04 405.674 513.4 404.314C514.76 402.954 515.44 400.506 514.216 398.874C513.4 397.786 511.904 397.242 511.088 396.018C509.864 394.386 510.544 391.938 512.04 390.442C513.536 388.946 515.576 388.402 517.48 387.722C531.352 383.643 547.128 380.515 555.424 368.683C557.6 365.691 559.096 362.291 561.272 359.299C569.432 348.556 599.488 344.204 591.6 333.188C584.936 323.805 569.024 338.084 559.368 344.34C553.112 348.42 546.448 353.724 539.24 352.092C536.384 351.412 533.664 349.78 530.672 349.508C525.368 349.236 521.016 353.724 518.024 358.075C514.896 362.427 511.496 367.323 506.192 368.411C502.384 369.091 498.712 367.595 494.768 367.323C485.792 366.643 478.176 373.035 471.512 379.019C460.36 389.082 449.208 399.146 438.056 409.074C432.616 413.969 426.496 420.361 427.856 427.569C434.792 424.849 441.592 421.993 448.528 419.273" fill="#008F8F"/>
<path d="M585.344 335.364C565.896 341.62 549.712 354.267 533.256 365.827C524.688 371.811 515.984 377.523 506.6 382.01C496.944 386.634 487.016 390.17 477.088 394.25C479.128 391.938 480.352 388.402 482.12 385.954C483.344 384.186 484.84 382.554 486.2 381.058C487.56 379.698 490.008 376.435 492.048 376.299C492.456 376.299 492.728 375.755 492.32 375.483C492.184 375.347 491.912 375.211 491.776 375.075C491.504 374.939 491.232 374.939 491.096 375.075C487.424 377.115 484.296 381.058 481.848 384.322C479.672 387.042 476.408 390.986 476 394.658C465.936 398.874 455.6 403.498 447.304 410.841C446.76 411.249 447.44 412.201 447.984 411.793C456.552 405.674 465.664 400.778 475.456 396.834C477.632 395.882 479.944 394.93 482.12 394.114C488.104 396.562 495.856 400.642 502.248 397.514C502.656 397.378 502.384 396.834 501.976 396.834C498.168 397.378 494.632 397.106 490.96 396.018C488.376 395.202 485.928 394.25 483.344 393.706C490.008 390.986 496.808 388.538 503.336 385.546C521.968 377.115 537.744 364.331 554.608 352.907C564.4 346.38 574.464 340.396 585.616 336.452C586.16 336.044 585.888 335.092 585.344 335.364Z" fill="#7AC1C1"/>
<path d="M260.304 249.551C255.816 243.976 250.512 238.808 243.984 235.816C237.456 232.824 229.432 232.416 223.176 235.816C212.568 241.664 210.528 256.215 212.704 268.047C219.64 305.989 253.232 332.372 260.984 370.315C262.888 379.699 262.344 389.49 273.904 390.442C281.112 391.122 286.28 387.042 288.864 380.787C294.712 366.371 287.368 338.628 286.28 323.533C284.24 297.286 277.168 270.359 260.304 249.551Z" fill="#008F8F"/>
<path d="M268.736 339.308C265.608 328.701 262.072 318.229 258.128 307.893C257.584 306.262 256.904 304.766 256.36 303.27C261.256 298.918 264.248 290.486 264.248 284.23C264.248 283.686 263.296 283.414 263.16 284.094C262.48 287.63 261.936 291.03 260.576 294.43C259.352 297.286 257.584 299.598 255.952 302.046C252.824 294.022 249.56 285.998 246.16 278.111C245.752 277.023 245.208 275.935 244.8 274.847C244.936 274.847 244.936 274.711 245.072 274.711C251.464 269.679 252.416 257.711 252.144 250.232C252.144 249.144 250.512 249.144 250.376 250.232C249.424 257.983 249.832 267.095 243.984 273.079C242.488 269.679 240.992 266.279 239.496 262.879C237.456 258.119 235.552 252.679 232.152 248.6C231.88 248.192 231.336 248.736 231.472 249.144C232.696 251.863 233.92 254.583 235.28 257.439C234.6 257.031 233.648 256.895 232.968 256.487C231.336 255.807 229.84 254.719 228.48 253.495C227.392 252.407 226.576 250.775 225.352 249.824C224.808 249.416 224.264 249.28 223.584 249.688C223.312 249.824 223.176 250.232 223.176 250.503C223.312 250.911 223.448 251.047 223.856 251.183C224.128 251.319 224.536 250.911 224.4 250.64C225.216 253.087 227.8 255.127 229.84 256.487C231.2 257.303 233.92 259.071 235.552 258.391C243.168 275.255 250.24 292.254 256.632 309.525C260.304 319.453 263.84 329.517 266.832 339.716C269.96 350.324 271.728 361.204 274.992 371.811C275.128 372.219 275.672 372.083 275.672 371.675C275.264 360.796 271.864 349.78 268.736 339.308Z" fill="#7AC1C1"/>
<path d="M243.712 223.712C237.728 220.312 232.424 216.776 227.528 211.745C223.312 207.257 219.368 202.361 215.56 197.601C215.152 197.057 214.472 197.873 214.88 198.281C216.648 200.457 218.144 203.177 220.048 205.353C222.36 208.209 224.672 210.929 227.256 213.512C231.744 218 237.32 222.488 243.44 224.256C243.712 224.392 243.984 223.848 243.712 223.712Z" fill="#7AC1C1"/>
<path d="M406.232 366.099C427.176 331.421 444.176 294.43 456.96 256.079C458.048 252.951 459 249.552 458.592 246.288C458.048 243.024 455.6 239.76 452.2 239.624C449.888 239.488 447.576 240.984 445.264 240.848C441.864 240.712 439.144 237.312 438.736 233.912C438.328 230.512 439.416 227.112 440.64 223.848C449.208 201.273 460.768 176.93 453.288 153.947C451.384 148.099 448.256 142.659 446.624 136.676C440.368 114.916 464.848 70.3099 442.136 69.7659C422.96 69.2219 425.816 104.853 424.592 124.028C423.776 136.404 424.048 150.683 414.664 158.843C410.856 162.107 405.824 163.875 402.56 167.682C396.712 174.482 398.616 184.818 401.336 193.386C404.056 201.953 407.184 211.473 403.24 219.497C400.384 225.208 394.4 228.744 390.32 233.504C380.528 244.792 381.208 261.519 382.568 276.479C384.744 301.502 386.92 326.525 389.096 351.684C390.184 364.06 392.632 378.475 403.648 384.051C406.912 372.083 410.04 359.98 413.304 348.012" fill="#008F8F"/>
<path d="M440.368 268.727C437.24 276.75 430.576 282.326 424.32 287.902C418.472 293.07 412.488 297.694 405.552 301.365C406.096 296.742 406.64 292.118 407.32 287.494C410.04 269.951 414.392 253.087 419.696 236.224C424.864 219.904 427.176 203.585 427.992 186.45C428.128 183.866 428.264 181.146 428.4 178.562C428.536 178.562 428.672 178.562 428.944 178.426C432.616 175.57 435.88 172.034 438.6 168.226C440.912 164.962 444.04 160.61 444.312 156.531C444.312 156.123 443.632 155.851 443.36 156.123C440.912 159.25 439.688 163.466 437.376 166.866C434.928 170.538 431.8 173.666 428.536 176.658C429.08 162.514 429.352 148.507 430.576 134.363C431.392 124.708 432.616 115.052 434.792 105.532C436.832 96.6927 440.776 87.717 440.504 78.4693C440.504 78.1973 439.96 78.0613 439.96 78.3333C438.6 86.765 435.608 94.7887 433.704 103.084C431.8 110.972 430.44 119.132 429.488 127.292C427.448 144.563 427.312 161.97 426.496 179.378C425.68 196.921 424.32 214.329 419.152 231.328C414.12 248.055 409.088 264.511 406.232 281.782C405.008 288.582 404.192 295.518 403.376 302.317C403.24 302.317 403.104 302.453 402.968 302.453C402.424 302.725 402.696 303.405 403.24 303.541C402.968 305.853 402.832 308.165 402.56 310.613C401.744 320.677 400.928 330.876 401.608 340.94C401.608 341.756 402.832 341.756 402.832 340.94C403.512 332.236 403.512 323.397 404.056 314.557C404.328 310.613 404.736 306.805 405.144 302.861C412.896 299.734 419.424 294.022 425.544 288.446C431.8 282.734 438.328 277.158 441.592 268.999C442.136 268.183 440.776 267.911 440.368 268.727Z" fill="#7AC1C1"/>
<path d="M424.592 199.777C415.752 194.201 411.944 185.09 408 175.842C407.592 175.026 406.232 175.298 406.64 176.25C410.176 185.498 414.8 195.969 423.912 200.865C424.728 201.137 425.272 200.185 424.592 199.777Z" fill="#7AC1C1"/>
<path d="M407.184 275.118C403.24 270.902 400.656 266.142 399.16 260.567C397.8 255.671 397.528 250.503 396.712 245.607C396.576 244.927 395.352 245.063 395.488 245.743C395.896 256.487 398.48 268.318 406.64 275.798C406.912 276.342 407.728 275.662 407.184 275.118Z" fill="#7AC1C1"/>
<path d="M524.552 358.347C521.968 362.427 521.016 367.595 522.104 372.355C522.24 372.763 522.92 372.627 522.784 372.219C522.24 367.323 522.92 363.107 525.368 358.891C525.64 358.347 524.824 357.939 524.552 358.347Z" fill="#7AC1C1"/>
<path d="M241.264 291.438C239.904 283.686 230.656 277.159 224.128 281.51C220.184 284.23 219.096 289.806 215.424 292.934C209.712 297.83 200.056 294.43 196.52 287.902C192.848 281.374 193.936 273.215 196.248 266.143C198.56 259.071 202.232 252.407 203.728 245.064C205.224 237.72 204.136 229.152 198.424 224.392C192.712 219.497 181.968 221.265 180.064 228.472C179.384 231.328 179.928 234.592 178.296 237.04C175.576 240.984 168.776 239.216 166.192 235.136C163.608 231.056 163.88 225.888 163.744 220.993C162.792 199.097 149.872 178.154 130.696 167.546C124.712 164.283 117.368 161.971 111.384 165.099C102.68 169.586 102.544 182.098 105.128 191.618C109.072 205.489 116.416 218.273 126.344 228.744C130.56 233.096 135.32 237.176 138.72 242.208C142.256 247.24 144.296 253.631 142.664 259.479C140.896 265.327 134.368 269.951 128.52 267.911C122.128 265.735 118.864 256.895 112.064 257.031C104.992 257.167 102.544 267.095 104.992 273.895C108.664 284.23 118.32 292.254 129.2 293.75C134.64 294.566 140.216 293.75 145.384 295.654C150.552 297.558 154.904 303.406 152.32 308.301C149.736 313.061 143.072 313.061 138.04 314.965C127.432 319.045 124.712 335.501 133.552 342.708C144.704 351.82 162.52 343.252 175.576 349.372C184.144 353.316 188.904 362.972 190.944 372.219C193.12 381.467 193.256 391.259 196.52 400.234C199.648 409.21 206.72 417.778 216.24 418.73C238.952 420.905 234.736 394.658 232.016 380.651C227.664 358.348 228.48 335.637 236.368 314.149C239.224 306.67 242.624 299.054 241.264 291.438Z" fill="#7AC1C1"/>
<path d="M203.184 350.188C204.136 349.508 204.952 348.556 205.496 348.012C209.984 343.932 213.792 339.036 216.784 333.733C223.448 322.037 226.304 308.981 228.072 295.79C228.072 295.246 227.256 295.11 227.12 295.654C225.352 306.126 222.768 316.733 218.28 326.389C216.376 330.605 214.064 334.549 211.344 338.22C209.848 340.26 208.352 342.164 206.584 343.932C205.768 344.748 205.088 345.564 204.272 346.244C203.728 346.788 203.184 347.196 202.64 347.74C202.504 347.876 202.232 348.012 202.096 348.148C195.84 333.733 188.768 319.725 182.24 305.446C178.16 296.334 174.352 287.086 170.816 277.839C176.8 272.263 181.832 265.055 185.912 257.983C189.856 251.184 192.712 243.84 192.576 235.816C192.576 235.272 191.76 235.272 191.76 235.816C191.08 251.864 179.928 264.375 170.136 276.071C162.928 257.303 156.128 238.4 147.424 220.313C140.08 205.081 131.24 190.53 119.816 178.018C119 177.202 117.776 178.426 118.592 179.242C138.992 202.225 150.688 230.648 161.432 258.935C165.512 269.815 169.592 280.558 173.944 291.302C163.608 288.582 153.136 286.542 142.936 283.55C137.768 282.054 132.736 280.287 127.84 278.111C125.392 277.023 122.944 275.799 120.632 274.439C118.592 273.215 116.688 271.583 114.512 271.039C114.104 270.903 113.696 271.447 113.968 271.855C116.416 275.391 121.992 277.703 125.8 279.471C130.56 281.782 135.592 283.55 140.76 285.182C151.912 288.582 163.336 291.438 174.76 293.75H174.896C175.712 295.79 176.528 297.83 177.48 299.87C182.24 310.613 187.408 321.221 192.44 331.829C189.04 333.325 185.912 335.093 181.968 335.773C177.48 336.589 172.856 336.589 168.232 336.317C163.336 336.045 158.304 335.365 153.544 334.141C148.648 332.917 144.024 331.013 139.128 329.789C138.584 329.653 138.176 330.469 138.72 330.741C142.936 333.461 148.24 334.821 153.136 336.045C158.304 337.269 163.608 338.084 169.048 338.356C176.256 338.764 187.408 338.764 193.392 333.325C195.024 336.861 196.656 340.26 198.288 343.796C198.968 345.428 199.648 346.924 200.328 348.556H200.192C199.92 348.692 199.648 348.828 199.648 349.1C199.376 349.916 199.648 350.732 200.6 350.868C200.872 351.004 201.144 350.868 201.416 350.868C207.672 365.827 212.704 381.059 216.24 397.106C216.376 397.922 217.736 397.65 217.6 396.97C215.696 381.059 209.848 365.692 203.592 351.14C203.592 350.868 203.32 350.46 203.184 350.188Z" fill="#2BF5F5"/>
<path d="M339.592 209.025C335.92 203.993 328.576 202.089 322.864 204.401C319.328 205.897 316.2 208.889 312.256 209.161C305.456 209.705 300.832 201.273 302.6 194.609C304.368 188.081 310.08 183.458 315.792 179.514C321.368 175.57 327.488 171.626 330.344 165.506C333.336 159.386 331.296 150.275 324.768 148.507C318.784 146.739 313.208 151.635 308.448 155.579C303.688 159.658 296.752 163.33 291.72 159.658C286.28 155.715 288.184 147.283 290.496 140.891C295.936 124.844 298.792 107.98 298.792 90.9809C298.792 83.9091 298.248 76.7014 294.576 70.7176C290.904 64.7338 283.288 60.654 276.76 63.1019C271.864 65.0058 268.736 70.0376 267.648 75.2054C266.56 80.3732 267.376 85.6771 268.056 90.8449C269.552 101.589 271.048 112.332 272.544 123.076C273.36 128.516 272.816 135.859 267.512 137.083C260.712 138.715 257.448 128.244 250.92 125.524C243.712 122.396 235.96 131.099 236.776 138.715C237.184 142.795 239.088 146.331 241.536 149.459C241.264 150.411 241.128 151.363 240.856 152.179C240.176 154.355 239.36 156.531 238.272 158.57C236.368 162.106 233.92 164.962 231.2 167.818C228.888 157.891 227.12 147.827 226.304 137.627C225.352 126.204 225.76 114.78 226.168 103.356C226.168 102.812 225.352 102.676 225.216 103.22C223.584 113.964 223.448 125.116 224.264 135.995C223.856 134.363 222.632 133.547 221.408 132.323C219.64 130.555 218.008 128.652 216.376 126.612C213.112 122.532 210.528 118.18 207.944 113.556C207.4 112.604 206.04 113.42 206.584 114.372C208.896 118.996 211.752 123.212 214.88 127.292C216.512 129.468 218.416 131.507 220.32 133.411C221.544 134.635 222.36 135.995 224.264 136.131C225.216 147.963 227.256 159.658 229.976 170.946C230.248 171.898 230.384 172.714 230.656 173.666C229.024 173.122 227.256 172.986 225.488 173.53C221.544 174.754 218.96 178.834 218.824 183.05C218.688 187.129 220.456 191.209 222.904 194.473C227.392 200.865 233.784 205.353 240.312 209.705L243.576 221.672C245.072 227.112 245.888 233.368 248.472 238.536C248.744 239.08 249.696 238.808 249.696 238.264C249.288 232.96 247.248 227.656 245.888 222.488C244.936 218.816 243.848 215.144 242.896 211.337C246.84 213.921 250.784 216.504 254.456 219.36C276.76 237.312 284.92 270.766 273.496 297.014L281.928 283.414C277.848 292.254 273.632 301.909 275.672 311.429C277.712 320.949 289.136 328.836 297.296 323.533C302.872 319.997 304.232 312.517 304.912 305.853C306.544 292.254 308.176 278.79 309.808 265.191C311.032 255.263 312.664 244.383 320.416 237.992C326.264 233.232 334.696 232.008 339.456 226.16C343.264 221.4 343.4 213.921 339.592 209.025ZM254.728 192.705C248.608 192.705 244.256 186.993 240.584 181.962C238.544 179.242 235.824 176.386 232.832 174.618C232.696 173.802 232.424 173.122 232.288 172.306C232.016 171.354 231.88 170.402 231.608 169.45C234.872 166.866 237.456 163.466 239.496 159.93C240.856 157.483 242.488 154.355 243.168 151.227C245.208 153.539 247.52 155.579 249.832 157.483C255.816 162.514 262.344 167.682 264.656 175.162C266.968 182.778 262.616 192.705 254.728 192.705Z" fill="#7AC1C1"/>
<path d="M330.344 214.872C329.12 218.816 325.312 221.128 322.048 223.304C318.784 225.616 315.52 227.928 311.984 229.968C305.728 233.776 298.928 236.495 291.992 238.807C291.176 234.184 290.088 229.696 288.864 225.072C288.864 224.936 288.864 224.664 288.728 224.528C287.776 220.856 286.688 217.184 285.6 213.512C283.016 204.673 280.568 195.969 279.072 186.993C286.688 186.585 295.12 182.097 301.376 178.153C308.448 173.802 314.704 168.09 319.6 161.29C319.872 160.882 319.192 160.338 318.92 160.746C313.616 167.002 307.632 172.442 300.696 176.794C297.16 178.969 293.352 180.873 289.408 182.369C286.008 183.729 282.336 184.409 278.936 185.633C277.984 179.921 277.576 174.21 277.576 168.362C277.576 166.458 277.712 164.418 277.848 162.514C277.984 162.242 277.984 161.97 277.848 161.562C278.664 148.779 281.112 136.131 282.88 123.483C285.192 107.436 286.28 91.3886 282.336 75.6131C282.2 74.9331 281.248 75.2051 281.384 75.8851C287.776 104.036 278.12 132.187 276.08 160.338C270.912 157.346 266.016 153.946 261.392 150.002C256.632 145.923 252.688 141.163 248.472 136.539C248.064 135.995 247.112 136.675 247.52 137.219C254.184 147.827 265.064 156.394 275.944 162.514C275.944 162.65 275.944 162.786 275.944 162.922C275.128 177.61 277.44 191.617 281.384 205.624C283.016 211.608 284.92 217.592 286.552 223.576C263.976 216.232 249.288 197.057 229.296 185.225C228.344 184.681 227.528 186.041 228.48 186.721C238.68 193.929 248.064 202.089 257.856 209.84C266.696 216.776 276.352 223.032 287.232 226.024C288.456 230.512 289.544 234.999 290.36 239.487C289.408 239.895 289.816 241.255 290.632 241.255C291.176 244.383 291.584 247.375 291.992 250.503C293.76 268.182 291.72 285.318 287.64 302.589C287.368 303.677 289 304.085 289.272 302.997C293.76 288.582 295.12 272.942 294.44 257.983C294.168 252.135 293.488 246.423 292.536 240.711C300.56 238.399 308.176 234.727 315.112 230.104C318.784 227.656 322.32 225.072 325.72 222.352C328.304 220.312 330.344 218.272 331.16 215.008C331.296 214.6 330.48 214.328 330.344 214.872Z" fill="#2BF5F5"/>
<path d="M583.712 289.942C573.376 291.982 563.992 296.605 554.88 301.637C553.248 302.589 551.752 303.541 550.12 304.357C550.936 301.909 551.888 299.461 553.384 297.285C555.152 294.565 557.736 292.934 559.64 290.486C560.048 290.078 559.504 289.398 558.96 289.67C553.384 291.982 549.576 299.733 548.352 305.309C541.96 309.117 535.568 312.925 529.176 316.869C529.04 316.869 529.04 316.733 528.904 316.733C528.496 316.461 527.952 317.005 528.224 317.413C527.816 317.685 527.544 317.821 527.136 318.093C522.92 320.677 518.704 323.26 514.624 325.98C516.664 322.852 518.568 319.589 520.336 316.053C525.64 305.173 527.408 290.622 518.84 282.19C513.672 277.158 505.92 275.526 498.848 276.614C491.776 277.702 485.248 281.238 479.4 285.454C457.504 301.093 443.632 325.164 434.792 349.916C429.76 364.195 415.208 388.946 416.976 404.314C417.792 411.113 421.6 416.281 428.808 417.641C440.232 419.681 442.272 410.161 446.624 401.594C461.856 371.811 493.272 355.491 512.448 329.244C518.024 325.572 523.736 322.037 529.448 318.501C534.344 323.804 543.456 326.932 550.392 326.932C551.208 326.932 551.48 325.572 550.528 325.436C546.584 324.756 542.912 324.212 539.104 322.58C535.976 321.221 533.392 319.317 530.672 317.549C537.2 313.469 543.728 309.525 550.392 305.581C561 299.189 571.88 293.206 583.848 290.35C584.392 290.486 584.12 289.806 583.712 289.942Z" fill="#7AC1C1"/>
<path d="M481.848 321.629C481.848 321.493 481.848 321.357 481.848 321.357C483.344 319.453 484.84 317.549 486.336 315.781C493.408 307.213 501.16 297.83 510.544 291.71C510.952 291.438 510.544 290.894 510.136 291.03C504.968 293.206 501.024 297.558 497.216 301.501C493.408 305.445 489.6 309.525 486.064 313.741C484.704 315.373 483.48 316.869 482.12 318.501C482.392 314.965 482.12 311.157 482.392 307.621C482.936 302.181 484.024 297.014 485.112 291.71C485.248 291.03 484.296 290.758 484.024 291.438C482.392 296.334 481.44 301.365 480.896 306.397C480.352 310.885 479.672 316.189 480.488 320.677C476 326.253 471.92 331.964 467.84 337.948C467.704 337.948 467.568 337.948 467.432 337.948C466.616 337.948 466.48 338.764 466.888 339.308C466.616 339.716 466.344 340.124 466.072 340.532C461.448 347.332 456.96 354.268 452.744 361.339C452.608 360.387 452.608 359.435 452.472 358.619C452.2 356.307 452.064 353.86 451.928 351.548C451.656 347.06 451.928 342.572 452.064 337.948C452.064 337.268 450.976 337.132 450.976 337.812C450.296 342.708 450.16 347.876 450.432 352.772C450.568 355.356 450.84 357.939 451.112 360.523C451.248 361.475 451.248 362.563 451.52 363.515C444.312 375.483 437.376 387.722 430.984 400.098C430.576 400.914 431.8 401.73 432.344 400.914C439.28 389.218 445.672 377.387 452.472 365.691C452.608 365.827 452.88 365.827 453.152 365.827C453.288 365.827 453.424 365.827 453.56 365.691C453.832 365.691 454.104 365.147 453.832 364.875C453.696 364.603 453.424 364.331 453.288 364.059C457.368 357.123 461.584 350.188 466.072 343.388C466.888 342.164 467.704 340.94 468.656 339.716C474.64 339.852 480.624 339.036 486.2 336.724C491.912 334.412 497.08 330.876 502.656 328.156C503.2 327.884 502.656 327.205 502.248 327.476C496.672 329.924 491.504 333.324 485.792 335.364C480.624 337.268 475.184 338.22 469.608 338.084C473.28 332.644 477.224 327.34 481.168 322.309C481.576 322.037 481.848 321.901 481.848 321.629Z" fill="#2BF5F5"/>
<path d="M340.952 209.025C337.28 203.993 329.936 202.089 324.224 204.401C320.688 205.897 317.56 208.889 313.616 209.161C306.816 209.705 302.192 201.273 303.96 194.609C305.728 188.081 311.44 183.458 317.152 179.514C322.728 175.57 328.848 171.626 331.704 165.506C334.696 159.386 332.656 150.275 326.128 148.507C320.144 146.739 314.568 151.635 309.808 155.579C305.048 159.658 298.112 163.33 293.08 159.658C287.64 155.715 289.544 147.283 291.856 140.891C297.296 124.844 300.152 107.98 300.152 90.9809C300.152 83.9091 299.608 76.7014 295.936 70.7176C292.264 64.7338 284.648 60.654 278.12 63.1019C273.224 65.0058 270.096 70.0376 269.008 75.2054C267.92 80.3732 268.736 85.6771 269.416 90.8449C270.912 101.589 272.408 112.332 273.904 123.076C274.72 128.516 274.176 135.859 268.872 137.083C268.328 137.219 267.784 137.219 267.24 137.219C266.152 133.139 265.2 129.06 263.976 125.116C261.392 115.868 258.672 106.62 253.232 98.8686C247.792 91.1169 239.224 84.8611 229.568 84.7251C220.32 84.5891 211.48 90.1649 206.04 97.6446C200.6 105.124 198.016 114.372 196.384 123.62C189.584 164.01 201.28 204.809 217.056 242.887C216.784 243.295 216.512 243.703 216.376 244.247C212.704 240.848 209.032 237.584 205.088 234.456C204.408 230.512 202.64 226.84 199.512 224.256C196.112 221.4 190.808 220.856 186.728 222.488C184.688 221.4 182.512 220.312 180.472 219.224C175.44 216.776 169.728 214.872 164.288 215.144C161.568 195.425 149.192 177.202 131.784 167.546C125.8 164.282 118.456 161.97 112.472 165.098C103.768 169.586 103.632 182.098 106.216 191.617C110.16 205.489 117.504 218.272 127.432 228.744C129.336 230.648 131.24 232.552 133.144 234.456C126.344 233.912 121.04 227.928 116.008 223.168C107.712 215.28 94.6559 198.417 86.3599 206.305C76.5679 215.688 105.4 225.48 111.384 237.584C113.016 240.848 113.832 244.519 115.464 247.919C119.544 256.895 127.84 262.607 136.816 267.367C134.504 268.455 132.056 268.727 129.608 267.911C123.216 265.735 119.952 256.895 113.152 257.031C106.08 257.167 103.632 267.095 106.08 273.894C109.752 284.23 119.408 292.254 130.288 293.75C135.728 294.566 141.304 293.75 146.472 295.654C151.64 297.558 155.992 303.405 153.408 308.301C150.824 313.061 144.16 313.061 139.128 314.965C128.52 319.045 125.8 335.5 134.64 342.708C145.792 351.82 163.608 343.252 176.664 349.372C185.232 353.316 189.992 362.971 192.032 372.219C194.208 381.467 194.344 391.258 197.608 400.234C200.736 409.21 207.808 417.777 217.328 418.729C240.04 420.905 235.824 394.658 233.104 380.651C230.52 367.595 229.84 354.268 231.2 341.348C241.536 354.811 252.008 372.083 264.656 383.507C266.152 387.314 268.872 390.034 274.72 390.578C275.672 390.714 276.624 390.714 277.44 390.578C285.192 391.666 292.536 387.722 291.312 378.067C291.176 377.387 291.04 376.707 290.904 376.027C293.76 361.203 288.048 337.948 286.96 324.213C290.632 325.709 294.576 325.845 297.976 323.669C303.552 320.133 304.912 312.653 305.592 305.989C307.224 292.39 308.856 278.926 310.488 265.327C311.712 255.399 313.344 244.519 321.096 238.128C326.944 233.368 335.376 232.144 340.136 226.296C344.624 221.4 344.76 213.921 340.952 209.025Z" fill="url(#paint0_linear)"/>
<path d="M593.096 333.189C586.432 323.805 570.52 338.084 560.864 344.34C554.608 348.42 547.944 353.724 540.736 352.092C537.88 351.412 535.16 349.78 532.168 349.508C531.352 349.508 530.672 349.508 529.992 349.644C533.256 347.332 536.52 345.02 539.784 342.572C551.752 334.005 563.72 325.301 575.824 316.733C581.4 312.789 587.112 308.573 590.648 302.726C594.184 296.878 595.136 288.854 591.056 283.278C585.888 276.343 575.552 276.343 566.984 277.839C552.568 280.422 538.696 285.454 525.776 292.39C525.64 291.846 525.504 291.438 525.368 290.894C550.664 258.391 572.968 222.081 577.184 181.418C578.136 172.17 578 162.515 574.872 153.811C571.608 145.107 564.672 137.356 555.696 135.044C546.448 132.732 536.52 136.268 529.176 142.387C528.224 143.203 527.408 143.883 526.456 144.835C525.64 142.251 524.144 140.075 521.832 138.851C517.616 136.676 512.448 138.307 508.368 140.619C494.904 147.963 485.928 162.651 485.248 178.018C485.112 181.418 485.248 184.954 483.48 187.81C481.712 190.666 476.952 191.89 475.048 189.17C473.824 187.402 474.368 185.09 473.824 183.186C472.464 178.154 464.984 176.93 461.04 180.33C457.096 183.73 456.28 189.714 457.368 194.745C458.456 199.913 460.904 204.537 462.536 209.569C464.168 214.465 464.848 220.177 462.4 224.8C459.816 229.424 453.152 231.736 449.208 228.336C446.76 226.296 445.944 222.761 443.632 220.721C452.064 199.097 462.128 176.114 455.056 154.219C453.152 148.371 450.024 142.931 448.392 136.948C442.136 115.188 466.616 70.5819 443.904 70.0379C424.728 69.4939 427.584 105.125 426.36 124.3C425.544 136.676 425.816 150.955 416.432 159.115C412.624 162.379 407.592 164.147 404.328 167.954C398.48 174.754 400.384 185.09 403.104 193.658C405.824 202.225 408.952 211.745 405.008 219.769C405.008 219.905 404.872 219.905 404.872 220.041C402.696 215.417 398.888 211.609 393.856 210.657C385.288 209.025 377.672 215.961 372.368 222.76C353.056 247.784 343.536 279.607 341.36 311.157C339.728 333.733 343.4 355.356 344.488 377.795C345.032 388.947 340.68 403.77 344.352 414.378C348.84 427.297 363.8 422.401 368.696 411.794C376.856 394.386 378.08 370.179 382.16 351.276C384.2 341.892 386.24 332.509 388.144 323.261C388.96 332.781 389.776 342.3 390.592 351.82C390.728 354.132 391 356.444 391.408 358.756C390.048 364.195 388.688 369.499 387.192 374.939C384.064 385.683 375.224 398.194 375.224 409.618C375.36 423.353 391 423.489 399.16 415.058C412.08 401.73 420.92 380.243 430.44 363.924C425.272 375.483 419.288 388.811 418.472 399.418C418.2 399.962 417.792 400.642 417.656 401.322C413.848 410.298 419.968 416.01 427.72 417.098C428.536 417.37 429.488 417.642 430.44 417.778C430.984 417.914 431.392 417.914 431.936 418.05C430.032 421.041 428.944 424.305 429.624 427.841C434.384 425.937 439.28 423.897 444.04 421.993C466.344 419.41 488.512 414.378 509.864 407.17C511.768 406.49 513.672 405.81 515.032 404.45C516.392 403.09 517.072 400.642 515.848 399.01C515.032 397.922 513.536 397.378 512.72 396.154C511.496 394.522 512.176 392.075 513.672 390.579C515.168 389.083 517.208 388.539 519.112 387.859C532.984 383.779 548.76 380.651 557.056 368.819C559.232 365.827 560.728 362.428 562.904 359.436C570.792 348.556 600.848 344.204 593.096 333.189ZM507.688 368.411C506.328 368.683 505.104 368.547 503.744 368.411C509.456 364.331 515.304 360.116 521.016 356.036C520.472 356.716 519.928 357.396 519.384 358.076C516.392 362.428 512.992 367.459 507.688 368.411Z" fill="url(#paint1_linear)"/>
<path d="M388.824 324.212C367.472 315.645 365.024 311.837 363.392 295.382C361.76 279.062 368.968 261.927 368.968 261.927C368.968 261.927 336.6 259.071 335.24 259.071C333.88 259.071 301.512 261.927 301.512 261.927C301.512 261.927 308.72 279.062 307.088 295.382C305.456 311.701 303.144 315.645 281.656 324.212C260.304 332.78 248.744 336.316 248.744 336.316C248.744 336.316 297.84 376.299 335.24 376.571C372.504 376.299 421.736 336.316 421.736 336.316C421.736 336.316 410.176 332.78 388.824 324.212Z" fill="url(#paint2_linear)"/>
<path d="M388.688 207.257C388.688 206.169 388.824 205.081 388.824 203.993C388.824 174.482 386.648 142.115 336.872 141.163C300.424 140.483 281.792 174.482 281.792 203.993C281.792 205.081 281.792 206.169 281.928 207.257C279.616 238.399 306.544 290.078 334.696 290.078H335.376C363.392 290.214 391 238.399 388.688 207.257Z" fill="url(#paint3_linear)"/>
<path d="M338.368 158.57C321.096 157.482 302.736 144.699 291.448 186.857C282.064 222.08 292.128 251.999 292.128 251.999C292.128 251.999 284.648 251.863 281.52 241.663C278.392 231.464 260.304 180.873 275.128 164.418C291.176 146.739 286.824 133.683 304.504 125.523C317.56 119.54 335.648 128.651 347.072 121.852C362.44 112.604 380.256 124.163 384.88 135.587C388.28 143.747 381.48 159.522 388.552 168.09C395.896 176.93 400.52 204.945 394.264 220.448C388.008 235.952 380.256 247.375 380.256 247.375C380.256 247.375 383.792 215.688 382.84 194.745C381.208 146.875 360.4 159.93 338.368 158.57Z" fill="url(#paint4_linear)"/>
<path d="M431.528 337.676C419.152 332.1 373.592 317.004 373.592 317.004C373.592 317.004 367.064 330.468 335.24 330.468C303.416 330.468 296.888 317.004 296.888 317.004C296.888 317.004 251.464 332.1 238.952 337.676C226.576 343.251 215.016 374.938 214.744 392.074C214.472 409.073 285.736 433.008 335.24 433.008C384.744 433.008 456.008 409.073 455.736 392.074C455.464 374.938 443.904 343.251 431.528 337.676Z" fill="url(#paint5_linear)"/>
<path d="M365.024 186.721C359.312 188.217 353.6 189.713 347.752 191.345C346.936 191.481 346.256 191.753 345.44 191.617C343.4 191.209 342.72 188.353 343.808 186.585C344.76 184.817 346.8 183.866 348.704 183.05C353.6 181.01 358.904 179.65 364.208 180.194C369.512 180.738 374.68 183.594 377.128 188.353C377.536 189.305 377.808 190.529 377.128 191.209C376.584 191.753 375.632 191.889 374.952 191.481C374.272 191.209 373.592 190.665 373.048 190.121C369.784 187.537 365.432 186.585 361.488 187.537" fill="url(#paint6_linear)"/>
<path d="M309.4 186.721C315.112 188.217 320.824 189.713 326.672 191.345C327.488 191.481 328.168 191.753 328.984 191.617C331.024 191.209 331.704 188.353 330.616 186.585C329.664 184.817 327.624 183.866 325.72 183.05C320.824 181.01 315.52 179.65 310.216 180.194C304.912 180.738 299.744 183.594 297.296 188.353C296.888 189.305 296.616 190.529 297.296 191.209C297.84 191.753 298.792 191.889 299.472 191.481C300.152 191.209 300.832 190.665 301.376 190.121C304.64 187.537 308.992 186.585 312.936 187.537" fill="url(#paint7_linear)"/>
<path d="M359.04 186.857C354.96 188.897 347.888 197.057 336.872 197.057C325.992 197.057 318.648 189.169 314.704 186.313C311.032 183.729 305.864 220.448 312.256 218.952C318.648 217.456 329.256 212.832 336.872 212.832C344.488 212.832 354.28 217.32 360.808 218.952C367.2 220.584 362.984 184.817 359.04 186.857Z" fill="#2F4D73"/>
<path d="M305.728 220.312C315.492 220.312 323.408 212.397 323.408 202.632C323.408 192.868 315.492 184.953 305.728 184.953C295.964 184.953 288.048 192.868 288.048 202.632C288.048 212.397 295.964 220.312 305.728 220.312Z" fill="#3A5A88"/>
<path d="M329.8 238.399C331.16 237.855 335.24 239.759 336.6 239.895C337.96 240.031 341.088 238.535 342.448 238.399C343.944 238.263 346.256 239.079 342.448 240.983C340.952 241.799 337.688 243.703 335.92 243.023C334.152 242.479 327.488 239.215 329.8 238.399Z" fill="url(#paint8_linear)"/>
<path d="M351.56 254.039C346.256 254.583 341.088 254.855 335.784 255.127C332.112 255.263 327.624 254.855 324.088 255.807C328.712 257.303 334.288 258.255 339.184 258.255C341.496 258.255 343.672 257.983 345.848 257.303C347.48 256.759 350.2 254.175 351.56 254.039Z" fill="url(#paint9_linear)"/>
<path d="M316.744 188.625C315.928 188.217 275.672 141.163 275.672 141.163L253.368 237.448L312.392 219.088L316.744 188.625Z" fill="#3A5A88"/>
<path d="M186.184 169.586C174.76 181.69 198.968 213.376 206.856 226.976C221.544 251.863 223.72 252.815 229.16 274.438C234.6 296.061 210.936 403.634 213.384 407.442C215.832 411.385 249.832 424.713 264.52 423.625C279.208 422.537 269.688 385.818 267.24 335.636C263.704 264.647 273.088 256.895 281.792 245.607C290.496 234.32 304.912 224.664 310.896 206.985C316.608 189.985 306.272 180.194 301.92 195.425C297.432 210.656 277.712 230.92 262.888 234.864C246.704 239.215 215.56 240.847 199.24 219.088C181.152 195.017 186.184 169.586 186.184 169.586Z" fill="url(#paint10_linear)"/>
<path d="M236.368 240.031C204.816 240.031 179.112 214.328 179.112 182.777C179.112 151.227 204.816 125.523 236.368 125.523C267.92 125.523 293.624 151.227 293.624 182.777C293.624 214.328 267.92 240.031 236.368 240.031Z" fill="url(#paint11_linear)"/>
<path d="M236.368 220.312C257.099 220.312 273.904 203.507 273.904 182.777C273.904 162.048 257.099 145.243 236.368 145.243C215.637 145.243 198.832 162.048 198.832 182.777C198.832 203.507 215.637 220.312 236.368 220.312Z" fill="#3A5A88"/>
<path d="M367.2 220.312C376.964 220.312 384.88 212.397 384.88 202.632C384.88 192.868 376.964 184.953 367.2 184.953C357.436 184.953 349.52 192.868 349.52 202.632C349.52 212.397 357.436 220.312 367.2 220.312Z" fill="#3A5A88"/>
<path d="M355.096 189.713C355.912 189.305 397.392 141.163 397.392 141.163L419.696 237.448L360.672 219.088L355.096 189.713Z" fill="#3A5A88"/>
<path d="M486.744 169.586C498.168 181.69 473.96 213.376 466.072 226.976C451.384 251.863 449.208 252.815 443.768 274.438C438.328 296.061 461.992 403.634 459.544 407.442C457.096 411.385 423.096 424.713 408.408 423.625C393.72 422.537 403.24 385.818 405.688 335.636C409.224 264.647 399.84 256.895 391.136 245.607C382.432 234.32 368.016 224.664 362.032 206.985C356.32 189.985 366.656 180.194 371.008 195.425C375.496 210.656 395.216 230.92 410.04 234.864C426.224 239.215 457.368 240.847 473.688 219.088C491.776 195.017 486.744 169.586 486.744 169.586Z" fill="url(#paint12_linear)"/>
<path d="M436.56 240.031C468.112 240.031 493.816 214.328 493.816 182.777C493.816 151.227 468.112 125.523 436.56 125.523C405.008 125.523 379.304 151.227 379.304 182.777C379.304 214.328 405.008 240.031 436.56 240.031Z" fill="url(#paint13_linear)"/>
<path d="M436.56 220.312C457.291 220.312 474.096 203.507 474.096 182.777C474.096 162.048 457.291 145.243 436.56 145.243C415.829 145.243 399.024 162.048 399.024 182.777C399.024 203.507 415.829 220.312 436.56 220.312Z" fill="#3A5A88"/>
<path d="M343.808 265.054C343.4 265.19 342.176 266.686 341.632 266.958C340.544 267.502 339.32 267.638 338.096 267.638C336.464 267.502 332.52 266.822 333.2 264.51C336.736 264.782 340 265.87 343.808 265.054Z" fill="url(#paint14_linear)"/>
<path d="M471.24 182.777C471.24 184.681 471.104 186.449 470.832 188.353C470.152 192.297 468.928 196.105 467.024 199.369C461.176 210.112 449.752 217.456 436.56 217.456C417.384 217.456 401.88 201.953 401.88 182.777C401.88 168.226 410.856 155.85 423.504 150.683C427.04 149.187 430.848 148.371 434.928 148.099C435.472 148.099 436.016 148.099 436.56 148.099C455.736 148.099 471.24 163.602 471.24 182.777Z" fill="#D7D8F4"/>
<path d="M470.832 188.217C470.152 192.161 468.928 195.969 467.024 199.233L423.504 150.547C427.04 149.051 430.848 148.235 434.928 147.963L470.832 188.217Z" fill="#F7F7F9"/>
<path d="M271.048 182.777C271.048 184.681 270.912 186.449 270.64 188.353C269.96 192.297 268.736 196.105 266.832 199.369C260.984 210.112 249.56 217.456 236.368 217.456C217.192 217.456 201.688 201.953 201.688 182.777C201.688 168.226 210.664 155.85 223.312 150.683C226.848 149.187 230.656 148.371 234.736 148.099C235.28 148.099 235.824 148.099 236.368 148.099C255.544 148.099 271.048 163.602 271.048 182.777Z" fill="#D7D8F4"/>
<path d="M270.64 188.217C269.96 192.161 268.736 195.969 266.832 199.233L223.312 150.547C226.848 149.051 230.656 148.235 234.736 147.963L270.64 188.217Z" fill="#F7F7F9"/>
<path d="M435.336 361.611C458.184 339.716 486.472 322.444 517.752 316.869C526.32 315.373 536.656 315.373 541.824 322.309C545.904 327.748 544.952 335.908 541.416 341.756C537.88 347.604 532.168 351.819 526.592 355.763C514.624 364.331 502.656 373.035 490.552 381.602C473.28 393.978 456.008 406.49 438.736 418.865C423.096 430.153 405.96 447.288 388.144 454.632C377.4 459.12 362.984 452.728 368.424 440.08C372.776 429.609 385.968 421.585 393.04 413.017C407.184 395.746 419.016 377.387 435.336 361.611Z" fill="#2BF5F5"/>
<path d="M535.024 327.476C523.056 326.388 511.904 332.372 502.656 339.444C500.344 341.212 498.032 343.115 495.72 345.019C495.72 342.572 495.992 339.988 496.536 337.54C496.672 336.724 499.664 328.156 500.752 328.836C501.024 328.972 501.296 328.7 501.16 328.428C501.16 328.292 501.024 328.156 501.024 328.156C500.888 328.02 500.752 327.884 500.616 327.884C498.168 327.884 497.08 332.372 496.4 334.14C495.04 337.948 494.496 341.892 494.632 345.971C487.152 352.363 480.216 359.435 473.416 366.507C462.944 377.25 452.88 388.402 442.272 399.146C442.272 396.562 441.728 393.842 441.456 391.258C441.32 388.538 441.32 385.818 441.456 383.098C441.728 376.978 443.224 371.267 444.312 365.419C444.448 364.603 443.496 364.331 443.088 365.147C440.912 370.587 440.096 376.706 439.688 382.554C439.416 388.13 439.008 394.93 440.912 400.233C440.912 400.369 440.912 400.369 441.048 400.369C433.024 408.393 424.592 416.145 415.616 423.217C414.8 423.897 413.848 424.577 413.032 425.257C417.656 418.321 422.416 409.481 420.92 401.185C420.784 400.641 419.968 400.777 419.968 401.321C419.56 406.353 418.744 410.977 416.568 415.737C414.8 419.681 412.352 423.217 410.176 426.889C410.04 427.161 410.04 427.297 410.04 427.432C405.824 430.56 401.472 433.416 396.848 436C390.592 439.672 383.928 442.528 377.264 445.656C376.584 445.928 377.128 447.016 377.808 446.88C389.504 443.616 400.52 436.408 410.312 429.336C420.376 422.129 429.76 413.833 438.6 405.265C454.784 389.49 469.608 372.218 485.792 356.443C491.096 359.163 498.168 359.571 504.016 359.163C508.368 358.891 514.896 358.755 517.344 354.539C517.616 353.995 516.936 353.587 516.528 353.859C512.448 357.259 506.736 357.531 501.568 357.531C496.4 357.531 491.64 356.307 486.608 355.491C489.736 352.499 492.728 349.643 495.992 346.787C507.008 336.996 519.656 327.884 534.888 328.156C535.568 328.292 535.568 327.612 535.024 327.476Z" fill="#7AC1C1"/>
<path d="M471.376 342.3C469.2 347.604 467.568 352.907 466.616 358.619C465.936 363.107 464.44 369.091 465.8 373.443C465.936 373.851 466.48 373.851 466.616 373.443C467.296 371.403 467.024 369.227 467.16 367.051C467.296 363.923 467.704 360.931 468.112 357.803C468.928 352.635 470.152 347.468 471.784 342.436C471.784 342.164 471.512 342.164 471.376 342.3Z" fill="#7AC1C1"/>
<path d="M249.832 368.139C230.928 349.507 205.36 337.132 174.216 337.812C165.784 337.948 155.04 340.26 148.24 348.827C142.8 355.627 141.984 364.059 144.568 369.499C147.016 375.075 152.048 378.202 156.944 381.33C167.552 387.994 178.024 394.658 188.632 401.322C203.864 410.977 218.96 420.497 234.192 430.153C247.928 438.856 262.072 453.544 278.8 457.624C289 460.071 305.184 450.144 302.328 437.768C300.016 427.569 288.184 421.721 282.608 413.969C271.728 398.738 263.432 381.466 249.832 368.139Z" fill="#008F8F"/>
<path d="M266.152 434.097C260.576 427.977 254.592 422.129 248.472 416.417C250.784 410.978 251.872 404.858 251.328 399.01C251.328 398.602 250.784 398.602 250.784 399.01C250.512 404.858 249.56 410.298 247.792 415.737C241.672 410.026 235.416 404.586 229.024 399.418C232.56 386.906 234.328 371.131 224.944 360.523C224.4 359.843 223.448 360.795 223.992 361.475C232.696 372.627 230.384 385.818 228.344 398.738C223.992 395.202 219.64 391.666 215.152 388.402C210.664 385.003 206.04 381.603 201.28 378.475C201.824 374.531 201.824 370.451 201.552 366.507C201.28 363.515 200.736 360.387 198.696 358.075C198.696 358.075 198.696 357.939 198.56 357.939C198.152 357.531 197.336 358.075 197.608 358.619C200.872 364.739 199.92 371.131 200.056 377.659C195.704 374.803 191.352 371.947 186.864 369.363C185.504 368.547 184.28 367.867 182.92 367.187C183.464 363.379 182.92 359.299 181.832 355.628C180.744 352.364 179.112 348.148 176.256 345.972C175.848 345.7 175.304 346.108 175.44 346.516C176.8 349.78 179.112 352.5 180.2 356.035C181.288 359.435 181.56 362.971 181.424 366.507C178.024 364.603 174.624 362.835 171.224 361.203C166.056 358.619 160.48 356.036 154.768 355.084C153.952 354.948 153.544 356.036 154.36 356.308C167.28 360.387 179.52 366.507 191.08 373.715C188.768 376.707 186.456 379.291 183.192 381.195C180.2 382.827 176.8 382.827 173.944 384.323C173.536 384.459 173.672 385.003 174.08 385.139C177.208 386.226 181.696 383.915 184.416 382.283C187.544 380.379 190.536 377.659 192.168 374.259C194.888 375.891 197.472 377.659 200.056 379.427C200.056 379.699 200.464 379.971 200.736 379.835C205.36 382.963 209.984 386.226 214.336 389.626C216.376 391.258 218.416 392.754 220.456 394.386C217.736 397.65 215.288 400.37 211.208 402.002C207.944 403.362 204.408 404.042 200.872 404.586C200.736 404.45 200.464 404.586 200.328 404.722C200.192 404.722 200.192 404.858 200.056 404.858C199.92 404.994 199.92 405.266 199.92 405.402C199.92 405.538 199.92 405.538 199.92 405.674C199.92 405.946 200.192 406.218 200.464 406.218C202.232 406.49 204.272 405.81 205.904 405.402C208.488 404.858 210.936 404.042 213.248 402.954C216.512 401.458 220.184 398.738 221.408 395.202C230.248 402.41 238.68 410.026 247.112 417.777C247.112 417.913 247.248 418.049 247.52 418.049C253.504 423.625 259.488 429.201 265.608 434.777C266.016 434.913 266.56 434.369 266.152 434.097Z" fill="#7AC1C1"/>
<path d="M346.8 401.458C351.152 387.315 360.4 374.395 375.768 366.507C379.984 364.331 385.832 362.563 391.408 365.011C395.896 366.915 398.48 370.859 398.752 374.123C399.024 377.523 397.392 380.379 395.896 383.235C392.496 389.354 389.096 395.338 385.696 401.458C380.8 410.162 375.904 419.001 371.008 427.705C366.52 435.593 363.664 446.608 356.456 453C352.104 456.944 341.496 456.4 339.592 449.6C337.96 443.889 342.312 438.041 342.856 432.737C344.216 422.265 343.672 411.658 346.8 401.458Z" fill="#2BF5F5"/>
<path d="M307.088 379.019C300.968 359.027 288.048 340.94 266.288 329.788C260.304 326.797 252.144 324.349 244.256 327.613C238 330.196 234.328 335.772 233.92 340.532C233.512 345.292 235.824 349.372 238 353.316C242.76 361.883 247.52 370.451 252.28 379.019C259.216 391.394 266.016 403.634 272.952 416.009C279.208 427.161 283.424 442.529 293.488 451.64C299.608 457.216 314.432 456.4 317.152 446.744C319.464 438.857 313.344 430.425 312.528 422.945C310.624 408.258 311.44 393.298 307.088 379.019Z" fill="#2BF5F5"/>
<path d="M298.384 432.193C294.44 423.625 289.816 415.329 285.464 407.034C281.112 398.874 277.44 390.442 273.904 381.874C270.232 373.443 265.744 365.011 260.576 357.123C265.88 354.675 269.824 344.748 268.328 339.308C268.192 338.9 267.648 338.9 267.512 339.308C266.56 342.572 266.56 345.836 265.064 349.1C263.84 351.82 261.528 353.859 260.032 356.443C256.088 350.596 251.6 344.884 246.84 339.988C246.568 339.716 246.024 340.124 246.296 340.396C251.328 347.196 256.632 353.587 261.12 360.795C265.88 368.275 269.96 376.027 273.36 384.186C274.72 387.586 276.216 390.986 277.848 394.386C276.08 394.25 274.448 393.842 272.816 392.89C271.32 392.074 270.368 390.578 269.008 389.762C268.6 389.626 268.328 389.898 268.328 390.306C268.736 392.074 270.776 393.434 272.272 394.25C274.176 395.202 276.216 395.746 278.256 395.746C278.256 395.746 278.256 395.746 278.392 395.746C284.104 408.394 290.632 420.633 297.704 432.601C297.976 433.009 298.52 432.601 298.384 432.193Z" fill="#7AC1C1"/>
<path d="M267.512 372.219C261.936 370.315 257.992 367.323 253.776 363.244C253.368 362.836 252.688 363.38 252.96 363.923C256.088 368.683 261.8 372.083 267.24 373.307C267.92 373.579 268.192 372.491 267.512 372.219Z" fill="#7AC1C1"/>
<path d="M341.224 401.866C342.992 398.33 345.304 394.794 345.032 390.986C344.896 387.042 340.68 383.234 337.144 385.002C334.968 386.09 334.152 388.81 332.112 390.17C328.984 392.21 324.36 389.898 323 386.498C321.64 382.962 322.592 379.018 324.224 375.619C325.856 372.219 328.032 369.227 329.256 365.691C330.48 362.155 330.48 357.803 327.896 355.083C325.312 352.363 319.872 352.499 318.512 355.899C317.968 357.259 318.104 358.891 317.016 360.115C315.384 361.883 312.12 360.659 311.168 358.347C310.216 356.171 310.624 353.587 310.896 351.275C311.848 340.396 306.816 329.108 297.976 322.58C295.256 320.541 291.72 318.909 288.592 320.133C283.968 321.764 283.152 328.02 283.832 332.916C284.92 339.988 287.64 346.924 291.992 352.635C293.76 355.083 295.936 357.395 297.296 360.115C298.656 362.835 299.336 366.099 298.112 368.955C296.888 371.811 293.352 373.579 290.632 372.219C287.64 370.723 286.552 366.099 283.152 365.691C279.616 365.283 277.848 370.043 278.528 373.579C279.616 378.882 283.968 383.506 289.272 385.002C291.856 385.682 294.712 385.818 297.16 387.042C299.608 388.266 301.376 391.53 299.744 393.706C298.248 395.882 294.848 395.474 292.264 396.154C286.688 397.514 284.376 405.538 288.184 409.617C293.08 414.921 302.464 411.793 308.584 415.601C312.664 418.185 314.296 423.217 314.704 427.977C315.112 432.737 314.704 437.496 315.656 442.256C316.608 446.88 319.6 451.64 324.224 452.728C335.376 455.312 334.968 441.984 334.56 434.912C334.016 423.217 335.92 412.065 341.224 401.866Z" fill="#7AC1C1"/>
<path d="M315.52 407.442C314.16 403.09 312.936 398.874 311.712 394.522C311.168 392.754 310.76 391.122 310.352 389.354C316.2 381.738 319.872 373.035 321.368 363.515C321.368 363.243 320.96 363.107 320.96 363.379C319.192 372.219 315.384 380.378 309.944 387.586C308.176 380.922 306.68 374.259 305.32 367.595C302.464 353.859 302.056 335.908 291.04 325.708C290.496 325.3 289.816 325.98 290.224 326.524C295.664 332.372 298.248 339.716 299.88 347.332C301.512 355.219 302.6 363.243 304.368 371.131C305.592 376.843 306.952 382.554 308.448 388.266C307.224 387.45 305.864 386.906 304.64 386.226C302.464 385.138 300.424 383.914 298.384 382.69C294.304 380.242 290.632 376.843 286.552 374.667C286.144 374.395 285.736 374.939 286.008 375.347C289 379.019 293.624 381.738 297.432 384.322C300.56 386.226 304.368 389.218 308.04 390.17C307.768 390.85 308.584 391.53 308.992 391.122C309.536 393.026 310.08 395.066 310.624 396.97C311.712 400.914 312.936 404.858 314.16 408.801C312.392 407.578 309.672 407.306 307.904 406.762C304.504 405.81 300.968 404.178 297.568 405.402C297.16 405.538 297.296 406.082 297.704 406.082C303.28 406.218 309.536 408.801 314.568 411.113C314.704 411.113 314.84 411.113 314.976 411.113C316.064 414.649 317.152 418.321 318.784 421.585C319.192 422.265 320.144 421.721 320.008 421.041C318.92 416.417 316.88 411.929 315.52 407.442Z" fill="#2BF5F5"/>
<path d="M345.304 388.674C356.592 371.81 371.96 356.987 390.728 349.235C395.896 347.059 402.288 345.699 406.504 349.371C409.904 352.227 410.312 357.395 408.952 361.611C407.456 365.827 404.464 369.227 401.608 372.49C395.352 379.562 388.96 386.634 382.704 393.706C373.592 403.905 364.48 414.105 355.368 424.169C347.072 433.416 338.776 446.472 328.576 453.544C322.456 457.895 312.528 455.856 314.16 447.152C315.52 439.944 322.592 433.144 325.856 426.753C332.248 413.969 337.144 400.777 345.304 388.674Z" fill="#2BF5F5"/>
<path d="M396.304 359.843C390.864 363.923 385.832 368.683 381.072 373.851C381.48 371.811 381.616 369.635 382.024 367.595C382.568 365.011 383.52 362.563 384.2 360.115C384.336 359.843 383.792 359.571 383.656 359.843C381.208 364.059 379.168 370.315 379.712 375.211V375.347C371.824 384.186 364.888 393.978 358.224 403.498C357.544 404.45 356.864 405.402 356.184 406.353C356.184 406.217 356.184 405.946 356.184 405.81C356.184 405.81 356.32 405.81 356.32 405.674C357.816 402.41 357.272 398.058 357.68 394.386C358.224 389.898 359.176 385.41 359.584 380.922C359.584 380.514 358.904 380.378 358.768 380.786C357.272 384.866 356.592 389.354 356.048 393.57C355.64 397.106 354.28 402.002 355.504 405.402C355.368 405.946 355.368 406.489 355.504 407.033C351.016 413.425 346.392 419.953 341.768 426.209C342.176 424.305 341.904 422.129 341.768 420.225C341.632 417.913 341.496 415.601 341.496 413.289C341.496 412.881 340.816 412.881 340.816 413.289C340.544 417.369 339.592 422.401 340.952 426.345C341.088 426.617 341.36 426.617 341.496 426.617C341.224 427.025 340.816 427.433 340.544 427.841C337.28 432.193 333.88 436.408 329.936 440.08C325.856 443.888 321.232 446.88 316.472 449.872C316.2 450.008 316.336 450.688 316.744 450.416C325.992 446.88 333.064 439.4 339.048 431.785C342.856 427.025 346.392 422.129 349.928 417.233C349.928 417.369 350.064 417.505 350.2 417.505C352.784 418.457 356.32 416.145 358.224 414.785C358.496 414.513 358.224 414.105 357.952 414.241C356.592 415.057 355.232 415.601 353.736 416.009C352.648 416.281 351.424 416.281 350.336 416.689C352.376 413.833 354.416 410.841 356.456 407.985C360.808 401.866 365.16 395.61 369.648 389.626C374.136 390.17 379.304 387.722 382.84 385.274C383.112 385.138 382.84 384.73 382.568 384.866C380.392 385.954 377.944 386.77 375.632 387.45C374 387.858 372.232 387.994 370.6 388.402C372.096 386.498 373.592 384.594 375.088 382.69C381.616 374.531 388.688 367.459 396.304 360.387C396.848 359.979 396.576 359.707 396.304 359.843Z" fill="#7AC1C1"/>
<path d="M402.424 409.345C415.752 392.89 428.128 374.395 430.304 353.451C430.712 349.1 430.712 344.612 429.216 340.396C427.72 336.316 424.456 332.644 420.104 331.556C415.752 330.468 411.128 332.1 407.592 334.956C404.192 337.812 401.744 341.756 399.432 345.564C386.648 366.915 376.312 389.762 369.512 413.697C366.112 425.665 363.256 438.176 362.032 450.552C360.808 463.744 373.32 446.744 375.768 443.208C383.656 431.377 393.448 420.633 402.424 409.345Z" fill="#7AC1C1"/>
<path d="M413.984 378.883C410.992 382.146 408.136 385.546 404.736 388.538C401.744 391.258 398.072 393.298 395.08 395.882C396.712 393.026 398.48 390.306 400.112 387.45C404.872 379.563 410.04 371.675 413.848 363.379C417.112 356.307 419.832 348.012 418.064 340.124C418.064 339.852 417.52 339.852 417.52 340.124C417.384 349.508 415.344 357.531 410.992 365.827C406.776 373.987 401.744 381.738 396.984 389.49C392.088 397.514 387.192 405.538 382.296 413.561C381.48 414.785 380.8 416.145 379.984 417.369C379.44 415.329 378.76 413.425 378.624 411.249C378.488 409.073 378.624 406.762 378.76 404.586C378.76 404.042 378.08 404.042 377.808 404.45C376.312 408.801 376.992 414.785 379.032 418.865C374.952 425.257 370.872 431.649 367.472 438.312C367.064 439.264 368.288 439.944 368.832 439.128C374.68 431.105 379.304 421.857 384.472 413.289C387.736 407.986 390.864 402.682 393.992 397.242C394.128 397.378 394.264 397.378 394.4 397.378C398.344 395.882 402.016 392.482 405.008 389.626C408.408 386.498 411.808 383.098 414.256 379.155C414.664 378.883 414.256 378.611 413.984 378.883Z" fill="#2BF5F5"/>
<path opacity="0.67" d="M541.824 322.445C536.656 315.509 526.32 315.509 517.752 317.005C486.608 322.581 458.32 339.852 435.336 361.747C431.936 365.011 428.808 368.275 425.816 371.675C427.992 365.827 429.624 359.843 430.168 353.588C430.576 349.236 430.576 344.748 429.08 340.532C427.584 336.452 424.32 332.78 419.968 331.692C415.616 330.604 410.992 332.236 407.456 335.092C404.056 337.948 401.608 341.892 399.296 345.7C399.024 346.244 398.752 346.652 398.48 347.196C395.76 347.468 393.04 348.284 390.592 349.236C371.824 357.123 356.456 371.811 345.168 388.674C345.032 388.946 344.896 389.218 344.624 389.49C343.672 386.09 340.136 383.371 337.008 385.003C334.832 386.09 334.016 388.81 331.976 390.17C328.848 392.21 324.224 389.898 322.864 386.498C321.504 382.963 322.456 379.019 324.088 375.619C325.72 372.219 327.896 369.227 329.12 365.691C330.344 362.155 330.344 357.803 327.76 355.084C325.176 352.364 319.736 352.5 318.376 355.9C317.832 357.26 317.968 358.891 316.88 360.115C315.248 361.883 311.984 360.659 311.032 358.347C310.08 356.172 310.488 353.588 310.76 351.276C311.712 340.396 306.68 329.108 297.84 322.581C295.12 320.541 291.584 318.909 288.456 320.133C283.832 321.765 283.016 328.021 283.696 332.916C284.376 337.812 286.008 342.436 288.184 346.924C282.064 340.396 274.72 334.684 265.88 330.196C259.896 327.205 251.736 324.757 243.848 328.021C237.592 330.604 233.92 336.18 233.512 340.94C233.104 345.7 235.416 349.78 237.592 353.724C239.088 356.444 240.584 359.163 242.08 361.883C223.992 347.06 201.008 337.54 173.808 338.22C165.376 338.356 154.632 340.668 147.832 349.236C142.392 356.036 141.576 364.467 144.16 369.907C146.608 375.483 151.64 378.611 156.536 381.739C167.144 388.402 177.616 395.066 188.224 401.73C203.456 411.386 218.552 420.905 233.784 430.561C247.52 439.265 261.664 453.952 278.392 458.032C283.56 459.256 290.36 457.352 295.256 453.544C300.696 456.4 309.264 456.128 313.888 451.64C315.792 456.536 323.136 457.216 328.032 453.68C332.112 450.824 335.92 447.016 339.456 442.8C338.776 445.112 338.504 447.424 339.184 449.736C341.088 456.536 351.696 457.08 356.048 453.136C358.496 450.96 360.4 448.104 362.168 445.248C361.896 447.016 361.76 448.92 361.488 450.688C360.672 458.576 364.888 455.72 368.832 451.368C372.64 455.992 380.8 457.624 387.6 454.768C405.416 447.288 422.552 430.289 438.192 419.001C455.464 406.626 472.736 394.114 490.008 381.739C501.976 373.171 513.944 364.467 526.048 355.9C531.624 351.956 537.336 347.74 540.872 341.892C544.952 335.908 545.904 327.885 541.824 322.445ZM311.984 418.593C313.752 421.177 314.568 424.577 314.84 427.705C314.976 429.201 314.976 430.833 315.112 432.329C314.024 429.201 312.8 426.073 312.392 423.081C312.256 421.585 312.12 420.089 311.984 418.593Z" fill="url(#paint15_linear)"/>
</g>
<defs>
<linearGradient id="paint0_linear" x1="214.289" y1="323.071" x2="214.289" y2="145.505" gradientUnits="userSpaceOnUse">
<stop stop-color="#00C7C7"/>
<stop offset="1" stop-color="white" stop-opacity="0"/>
</linearGradient>
<linearGradient id="paint1_linear" x1="467.591" y1="323.071" x2="467.591" y2="145.505" gradientUnits="userSpaceOnUse">
<stop stop-color="#00C7C7"/>
<stop offset="1" stop-color="white" stop-opacity="0"/>
</linearGradient>
<linearGradient id="paint2_linear" x1="335.241" y1="257.731" x2="335.241" y2="326.039" gradientUnits="userSpaceOnUse">
<stop stop-color="#CFA58B"/>
<stop offset="1" stop-color="#F2CFB2"/>
</linearGradient>
<linearGradient id="paint3_linear" x1="335.24" y1="167.687" x2="335.24" y2="265.455" gradientUnits="userSpaceOnUse">
<stop stop-color="#CFA58B"/>
<stop offset="1" stop-color="#F2CFB2"/>
</linearGradient>
<linearGradient id="paint4_linear" x1="333.473" y1="123.484" x2="333.473" y2="155.713" gradientUnits="userSpaceOnUse">
<stop stop-color="#00B7C6"/>
<stop offset="1" stop-color="#00C6C6"/>
</linearGradient>
<linearGradient id="paint5_linear" x1="335.24" y1="330.748" x2="335.24" y2="428.843" gradientUnits="userSpaceOnUse">
<stop stop-color="#00B7C6"/>
<stop offset="1" stop-color="#00C6C6"/>
</linearGradient>
<linearGradient id="paint6_linear" x1="360.371" y1="123.484" x2="360.371" y2="155.713" gradientUnits="userSpaceOnUse">
<stop stop-color="#00B7C6"/>
<stop offset="1" stop-color="#00C6C6"/>
</linearGradient>
<linearGradient id="paint7_linear" x1="314.004" y1="123.484" x2="314.004" y2="155.713" gradientUnits="userSpaceOnUse">
<stop stop-color="#00B7C6"/>
<stop offset="1" stop-color="#00C6C6"/>
</linearGradient>
<linearGradient id="paint8_linear" x1="329.295" y1="240.742" x2="344.46" y2="240.742" gradientUnits="userSpaceOnUse">
<stop stop-color="#D59A74"/>
<stop offset="1" stop-color="#E6AE8A"/>
</linearGradient>
<linearGradient id="paint9_linear" x1="324.652" y1="252.584" x2="350.793" y2="257.687" gradientUnits="userSpaceOnUse">
<stop stop-color="#D59A74"/>
<stop offset="1" stop-color="#E6AE8A"/>
</linearGradient>
<linearGradient id="paint10_linear" x1="247.829" y1="193.718" x2="247.829" y2="299.48" gradientUnits="userSpaceOnUse">
<stop stop-color="#CFA58B"/>
<stop offset="1" stop-color="#F2CFB2"/>
</linearGradient>
<linearGradient id="paint11_linear" x1="236.353" y1="122.502" x2="236.353" y2="223.493" gradientUnits="userSpaceOnUse">
<stop stop-color="#00B7C6"/>
<stop offset="1" stop-color="#00C6C6"/>
</linearGradient>
<linearGradient id="paint12_linear" x1="425.148" y1="193.718" x2="425.148" y2="299.48" gradientUnits="userSpaceOnUse">
<stop stop-color="#CFA58B"/>
<stop offset="1" stop-color="#F2CFB2"/>
</linearGradient>
<linearGradient id="paint13_linear" x1="436.625" y1="122.502" x2="436.625" y2="223.493" gradientUnits="userSpaceOnUse">
<stop stop-color="#00B7C6"/>
<stop offset="1" stop-color="#00C6C6"/>
</linearGradient>
<linearGradient id="paint14_linear" x1="333.043" y1="264.916" x2="343.394" y2="266.937" gradientUnits="userSpaceOnUse">
<stop stop-color="#D59A74"/>
<stop offset="1" stop-color="#E6AE8A"/>
</linearGradient>
<linearGradient id="paint15_linear" x1="343.869" y1="463.212" x2="343.869" y2="326.961" gradientUnits="userSpaceOnUse">
<stop stop-color="#B7F2F2"/>
<stop offset="1" stop-color="white"/>
</linearGradient>
<clipPath id="clip0">
<rect width="680" height="453" fill="white"/>
</clipPath>
</defs>
</svg>
