<?xml version="1.0" encoding="utf-8"?>
<!-- Generator: Adobe Illustrator 24.0.1, SVG Export Plug-In . SVG Version: 6.00 Build 0)  -->
<svg version="1.1" id="Capa_1" xmlns="http://www.w3.org/2000/svg" xmlns:xlink="http://www.w3.org/1999/xlink" x="0px" y="0px"
	 viewBox="0 0 480 480" style="enable-background:new 0 0 480 480;" xml:space="preserve">
<style type="text/css">
	.st0{fill:none;}
	.st1{fill:#00C7C7;}
</style>
<g>
	<g>
		<rect x="176" y="72" width="128" height="16"/>
	</g>
</g>
<g>
	<g>
		<rect x="96" y="120" width="288" height="16"/>
	</g>
</g>
<g>
	<g>
		<rect x="96" y="152" width="288" height="16"/>
	</g>
</g>
<path class="st0" d="M280,328h29.1l-9.2-10l-20.6,4.1c-0.2,0-0.4,0.1-0.6,0.1c-4.4,0.5-8.4-2.6-8.9-7l-2.5-20.9l-19.1-8.8
	c-0.2-0.1-0.4-0.2-0.6-0.3c-3.8-2.2-5.2-7-3-10.9l10.3-18.3l-10.3-18.3c-0.1-0.2-0.2-0.4-0.3-0.6c-1.8-4-0.1-8.8,3.9-10.6l19.1-8.8
	l2.5-20.9c0-0.2,0.1-0.4,0.1-0.6c0.9-4.3,5.1-7.2,9.4-6.3l20.6,4.1l14.3-15.4c0,0,0.1-0.1,0.1-0.1c3.2-3.2,8.5-3.2,11.7,0.1
	l14.3,15.4l20.6-4.1c0.2,0,0.4-0.1,0.6-0.1c4.4-0.5,8.4,2.6,8.9,7l2.5,20.9l19.1,8.7c0.2,0.1,0.4,0.2,0.6,0.3c3.8,2.2,5.2,7,3,10.9
	L385.2,256l10.2,18.4c0.1,0.2,0.2,0.4,0.3,0.6c1.8,4,0.1,8.8-3.9,10.6l-19.1,8.8l-2.5,20.9c-0.3,2.2-1.4,4.2-3.2,5.5
	c-1.8,1.3-4.1,1.8-6.3,1.4l-20.6-4.1l-9.2,10H360h16h1.3v8H400c5.7,0,11-3.1,13.8-8H384v-16h32V56c0-5.6,1.6-11.2,4.4-16H80
	c-8.8,0-16,7.2-16,16v256h192v16H56H18.2c2.9,4.9,8.1,8,13.8,8h232v-8H280z M208,272H104v-16h104V272z"/>
<path class="st0" d="M331.4,303.8c1.9-2.1,4.7-3,7.4-2.4l16.5,3.3l2-16.7c0.3-2.8,2.1-5.2,4.6-6.3l15.3-7l-8.2-14.7
	c-1.4-2.4-1.4-5.4,0-7.8l8.2-14.7l-15.3-7c-2.5-1.2-4.3-3.6-4.6-6.3l-2-16.7l-16.5,3.3c-2.7,0.6-5.5-0.3-7.4-2.4L320,195.8
	l-11.4,12.4c-1.9,2-4.7,3-7.4,2.4l-16.5-3.3l-2,16.7c-0.3,2.8-2.1,5.2-4.6,6.3l-15.3,7l8.2,14.7v0c1.4,2.4,1.4,5.4,0,7.8l-8.2,14.7
	l15.3,7c2.5,1.2,4.3,3.6,4.6,6.3l2,16.7l16.5-3.3c0.5-0.1,1-0.2,1.6-0.2c2.2,0,4.4,0.9,5.9,2.6l11.4,12.4L331.4,303.8z M280,256
	c0-22.1,17.9-40,40-40s40,17.9,40,40s-17.9,40-40,40C297.9,296,280,278.1,280,256z"/>
<circle class="st0" cx="320" cy="256" r="24"/>
<path class="st0" d="M456,42.2c-7.6-4.4-17.4-1.8-21.9,5.8h27.7C460.4,45.6,458.4,43.6,456,42.2z"/>
<path class="st1" d="M360,256c0-22.1-17.9-40-40-40s-40,17.9-40,40c0,22.1,17.9,40,40,40C342.1,296,360,278.1,360,256z M296,256
	c0-13.3,10.7-24,24-24s24,10.7,24,24s-10.7,24-24,24S296,269.3,296,256z"/>
<rect x="104" y="256" width="104" height="16"/>
<path class="st1" d="M376,336v-8h-16v100.7l-34.3-34.3c-3.1-3.1-8.2-3.1-11.3,0L280,428.7V328h-16v8v16v96c0,4.4,3.6,8,8,8
	c2.1,0,4.2-0.8,5.7-2.3l42.3-42.3l42.3,42.3c1.5,1.5,3.5,2.3,5.7,2.3c1.1,0,2.1-0.2,3.1-0.6c3-1.2,4.9-4.2,4.9-7.4v-96h1.3v-16H376z
	"/>
<path class="st1" d="M395.4,274.4L385.2,256l10.3-18.3c2.2-3.9,0.8-8.7-3-10.9c-0.2-0.1-0.4-0.2-0.6-0.3l-19.1-8.7l-2.5-20.9
	c-0.5-4.4-4.5-7.5-8.9-7c-0.2,0-0.4,0.1-0.6,0.1l-20.6,4.1l-14.3-15.4c-3.2-3.2-8.4-3.3-11.7-0.1c0,0-0.1,0.1-0.1,0.1L299.9,194
	l-20.6-4.1c-4.3-0.9-8.5,2-9.4,6.3c0,0.2-0.1,0.4-0.1,0.6l-2.5,20.9l-19.1,8.8c-4,1.8-5.8,6.6-3.9,10.6c0.1,0.2,0.2,0.4,0.3,0.6
	l10.3,18.3l-10.3,18.3c-2.2,3.8-0.8,8.7,3,10.9c0.2,0.1,0.4,0.2,0.6,0.3l19.1,8.8l2.5,20.9c0.5,4.4,4.5,7.5,8.9,7
	c0.2,0,0.4-0.1,0.6-0.1l20.6-4.1l9.2,10l5,5.5c3,3.2,8.1,3.4,11.3,0.4c0.2-0.1,0.3-0.3,0.4-0.4l5-5.5l9.2-10l20.6,4.1
	c2.2,0.4,4.5-0.1,6.3-1.4c1.8-1.3,2.9-3.3,3.2-5.5l2.5-20.9l19.1-8.8c4-1.8,5.8-6.6,3.9-10.6C395.6,274.8,395.5,274.6,395.4,274.4z
	 M369,259.9l8.2,14.7l-15.3,7c-2.5,1.2-4.3,3.6-4.6,6.3l-2,16.7l-16.5-3.3c-2.7-0.6-5.5,0.3-7.4,2.4L320,316.2l-11.4-12.4
	c-1.5-1.6-3.6-2.6-5.9-2.6c-0.5,0-1,0.1-1.6,0.2l-16.5,3.3l-2-16.7c-0.3-2.8-2.1-5.2-4.6-6.3l-15.3-7l8.2-14.7
	c1.4-2.4,1.4-5.4,0-7.8v0l-8.2-14.7l15.3-7c2.5-1.2,4.3-3.6,4.6-6.3l2-16.7l16.5,3.3c2.7,0.6,5.5-0.4,7.4-2.4l11.4-12.4l11.4,12.4
	c1.9,2.1,4.7,3,7.4,2.4l16.5-3.3l2,16.7c0.3,2.8,2.1,5.2,4.6,6.3l15.3,7l-8.2,14.7C367.7,254.5,367.7,257.5,369,259.9z"/>
<path d="M448,24H80c-17.7,0-32,14.3-32,32v256H8c-4.4,0-8,3.6-8,8c0,17.7,14.3,32,32,32h232v-16H32c-5.7,0-11-3.1-13.8-8H56h200v-16
	H64V56c0-8.8,7.2-16,16-16h340.4c-2.9,4.8-4.4,10.4-4.4,16v256h-32v16h29.8c-2.9,4.9-8.1,8-13.8,8h-22.7H376v16h1.3H400
	c17.7,0,32-14.3,32-32V64h40c4.4,0,8-3.6,8-8C480,38.3,465.7,24,448,24z M434.2,48c4.4-7.6,14.2-10.3,21.9-5.8
	c2.4,1.4,4.4,3.4,5.8,5.8H434.2z"/>
</svg>
