<svg width="94" height="94" viewBox="0 0 94 94" fill="none" xmlns="http://www.w3.org/2000/svg">
<path d="M92.3323 80.6578L89.2431 76.5453L79.4262 54.8267C77.8153 51.2828 76.7351 47.5303 76.2044 43.6832C75.9391 41.788 75.8065 39.8739 75.8065 37.9598V27.5364C75.8065 25.736 74.3282 24.2578 72.5278 24.2578C71.1065 24.2578 69.8556 25.1674 69.4198 26.494L67.2024 33.165C66.3306 35.7993 65.1367 38.3199 63.6774 40.6699L59.4891 32.1795C58.9206 31.0235 57.7456 30.3033 56.4569 30.3033C54.5806 30.3033 53.0645 31.8195 53.0645 33.6957V41.0489C53.0645 43.6263 52.3064 46.1279 50.8661 48.2884C50.3165 49.1223 50.0323 50.0699 50.0323 51.0743C50.0323 53.8412 52.2685 56.0775 55.0355 56.0775C57.9351 56.0775 60.5694 57.6694 61.9149 60.2279L71.3149 77.9856C70.7274 77.7582 70.1589 77.4928 69.5903 77.2275L53.2919 69.4953C49.3879 67.657 45.048 66.6715 40.746 66.6715C34.6056 66.6715 28.7117 68.5666 23.7085 72.1295L23.1778 72.5086C19.7286 74.9723 14.7444 74.7259 11.5605 71.94L0 61.8578V93.9997H85.6613C90.2665 93.9997 94 90.2662 94 85.661C94 83.8606 93.4125 82.0981 92.3323 80.6578ZM22.7419 90.9674H3.03226V68.5287L9.5706 74.2521C11.8258 76.2231 14.7254 77.3223 17.7387 77.3223C19.4823 77.3223 21.169 76.9243 22.7419 76.242V90.9674ZM64.2839 45.1993C66.8044 41.8449 68.7564 38.1303 70.0831 34.1315L72.3004 27.4606C72.3383 27.3658 72.4331 27.29 72.5278 27.29C72.6605 27.29 72.7742 27.4037 72.7742 27.5364V37.9598C72.7742 40.0065 72.9258 42.0723 73.2101 44.1001C73.7976 48.2315 74.9536 52.2682 76.6782 56.0775L80.8855 65.4017L74.025 56.2481C71.8456 53.3485 68.927 51.0932 65.5536 49.7477C64.4165 49.2928 63.6774 48.2126 63.6774 46.9807C63.6774 46.3364 63.8859 45.711 64.2839 45.1993ZM85.6613 90.9674H51.5484V84.9029H48.5161V90.9674H25.7742V74.4416C30.1899 71.3715 35.3637 69.7416 40.746 69.7416C43.3613 69.7416 45.9956 70.1775 48.5161 70.9545V81.8707H51.5484V72.0916C51.7 72.1674 51.8516 72.2053 52.0032 72.2811L68.3016 80.0134C72.9827 82.2307 78.1944 83.4057 83.3871 83.4057V80.3735C80.7339 80.3735 78.0617 80.0324 75.4653 79.369L64.606 58.8444C62.7298 55.2815 59.0532 53.0832 55.0355 53.0832C53.9552 53.0832 53.0645 52.1924 53.0645 51.1122C53.0645 50.7142 53.1782 50.3352 53.4056 50.013C55.1681 47.3598 56.0968 44.2707 56.0968 41.0868V33.7336C56.0968 33.3924 56.6274 33.2787 56.779 33.5819L61.5359 43.0957L61.7444 43.5694C61.0431 44.5739 60.6452 45.7868 60.6452 47.0186C60.6452 49.5013 62.1234 51.6807 64.4355 52.6094C67.2782 53.7465 69.7609 55.6416 71.5992 58.1053L89.9064 82.515C90.5887 83.3868 90.9677 84.5239 90.9677 85.661C90.9677 88.5795 88.5798 90.9674 85.6613 90.9674Z" fill="black"/>
<path d="M40.9355 1.7246V0H37.9032V1.51613H34.871V0H31.8387V1.7246C29.7161 2.27419 28.0484 3.94194 27.4988 6.06452H0V9.09677H27.4988C28.0484 11.2194 29.7161 12.8871 31.8387 13.4367V15.1613H34.871V13.6452H37.9032V15.1613H40.9355V13.4367C43.5508 12.7544 45.4839 10.4044 45.4839 7.58065C45.4839 4.75685 43.5508 2.40685 40.9355 1.7246ZM31.8387 10.196C30.929 9.66532 30.3226 8.69879 30.3226 7.58065C30.3226 6.4625 30.929 5.49597 31.8387 4.96532V10.196ZM37.9032 10.6129H34.871V4.54839H37.9032V10.6129ZM40.9355 10.196V4.96532C41.8452 5.49597 42.4516 6.4625 42.4516 7.58065C42.4516 8.69879 41.8452 9.66532 40.9355 10.196Z" fill="black"/>
<path d="M44.632 37.9031C42.263 35.3067 40.9364 31.9902 40.9364 28.4462V18.1934H37.9041V28.4462C37.9041 31.8575 38.9086 35.1361 40.7658 37.9031H32.0102C33.8674 35.1172 34.8719 31.8575 34.8719 28.4462V18.1934H31.8396V28.4462C31.8396 31.9902 30.513 35.3257 28.1441 37.9031H9.09766V42.4515C9.09766 53.3107 17.9481 62.1611 28.8074 62.1611C39.6666 62.1611 48.517 53.3107 48.517 42.4515V37.9031H44.632ZM28.8074 59.1289C22.0416 59.1289 16.2045 55.0732 13.6082 49.2551C14.5178 48.5539 17.0195 46.9999 21.2267 46.9999C23.7473 46.9999 27.0638 47.9095 30.5699 48.8761C34.3412 49.9184 38.5485 51.0555 42.8505 51.4156C39.8751 56.0398 34.7013 59.1289 28.8074 59.1289ZM45.4848 42.4515C45.4848 44.574 45.0678 46.6019 44.3477 48.4781C39.913 48.2886 35.4025 47.0567 31.3848 45.9575C27.6703 44.9341 24.1832 43.9676 21.2457 43.9676C17.1142 43.9676 14.2336 45.2753 12.6037 46.2797C12.3005 45.0478 12.1299 43.7781 12.1299 42.4515V40.9353H45.4848V42.4515Z" fill="#00C7C7"/>
</svg>
