<svg width="82" height="97" viewBox="0 0 82 97" fill="none" xmlns="http://www.w3.org/2000/svg">
<path d="M66.0253 6.0625C64.5666 6.0625 63.373 4.86895 63.373 3.41016C63.373 1.53457 61.8384 0 59.9628 0C58.0873 0 56.5527 1.53457 56.5527 3.41016C56.5527 4.86895 55.3591 6.0625 53.9003 6.0625C52.0248 6.0625 50.4902 7.59707 50.4902 9.47266C50.4902 11.3482 52.0248 12.8828 53.9003 12.8828C55.3591 12.8828 56.5527 14.0764 56.5527 15.5352C56.5527 17.4107 58.0873 18.9453 59.9628 18.9453C61.8384 18.9453 63.373 17.4107 63.373 15.5352C63.373 14.0764 64.5666 12.8828 66.0253 12.8828C67.9009 12.8828 69.4355 11.3482 69.4355 9.47266C69.4355 7.59707 67.9009 6.0625 66.0253 6.0625ZM59.9628 13.3564C59.3187 11.5566 57.8789 10.1168 56.0791 9.47266C57.8789 8.82852 59.3187 7.38867 59.9628 5.58887C60.607 7.38867 62.0468 8.82852 63.8466 9.47266C62.0468 10.1168 60.607 11.5566 59.9628 13.3564Z" fill="#00C7C7"/>
<path d="M77.6192 22.3555C76.1604 22.3555 74.9668 21.1619 74.9668 19.7031C74.9668 17.8275 73.4323 16.293 71.5567 16.293C69.6811 16.293 68.1465 17.8275 68.1465 19.7031C68.1465 21.1619 66.953 22.3555 65.4942 22.3555C63.6186 22.3555 62.084 23.89 62.084 25.7656C62.084 27.6412 63.6186 29.1758 65.4942 29.1758C66.953 29.1758 68.1465 30.3693 68.1465 31.8281C68.1465 33.7037 69.6811 35.2383 71.5567 35.2383C73.4323 35.2383 74.9668 33.7037 74.9668 31.8281C74.9668 30.3693 76.1604 29.1758 77.6192 29.1758C79.4948 29.1758 81.0293 27.6412 81.0293 25.7656C81.0293 23.89 79.4948 22.3555 77.6192 22.3555ZM71.5567 29.6494C70.9125 27.8496 69.4727 26.4098 67.6729 25.7656C69.4727 25.1215 70.9125 23.6816 71.5567 21.8818C72.2008 23.6816 73.6407 25.1215 75.4405 25.7656C73.6407 26.4287 72.2008 27.8496 71.5567 29.6494Z" fill="#00C7C7"/>
<path d="M38.838 24.6476L31.0894 23.2835C30.3505 23.1509 29.6116 23.473 29.1948 24.0792L26.1257 28.5882C23.5491 32.3773 19.6653 35.0864 15.2132 36.2232C14.1901 36.4884 13.5839 37.5114 13.8302 38.5155C14.0386 39.3681 14.8153 39.9554 15.6679 39.9554C15.8194 39.9554 15.971 39.9364 16.1415 39.8985C21.503 38.5534 26.1446 35.2948 29.2517 30.729L31.6388 27.2241L38.1938 28.3798C39.2169 28.5693 40.2021 27.8683 40.3915 26.8452C40.562 25.8222 39.861 24.837 38.838 24.6476Z" fill="black"/>
<path d="M52.593 88.9104C52.5741 88.7967 52.5362 88.6641 52.4793 88.5504C52.4225 88.4367 52.3657 88.3231 52.3088 88.2283C52.2331 88.1336 52.1573 88.02 52.0625 87.9442C51.9678 87.8684 51.8731 87.7737 51.7784 87.6979C51.6836 87.6221 51.57 87.5653 51.4563 87.5274C51.3426 87.4705 51.2289 87.4516 51.0963 87.4137C50.85 87.3569 50.6038 87.3569 50.3575 87.4137C50.2438 87.4326 50.1112 87.4705 49.9975 87.5274C49.8838 87.5842 49.7702 87.641 49.6754 87.6979C49.5807 87.7737 49.467 87.8494 49.3913 87.9442C49.3155 88.0389 49.2207 88.1336 49.1639 88.2283C49.0881 88.3231 49.0313 88.4367 48.9934 88.5504C48.9366 88.6641 48.9176 88.7778 48.8797 88.9104C48.8608 89.024 48.8418 89.1567 48.8418 89.2893C48.8418 89.403 48.8608 89.5356 48.8797 89.6682C48.8987 89.8008 48.9366 89.9145 48.9934 90.0282C49.0502 90.1418 49.1071 90.2555 49.1639 90.3502C49.2397 90.4449 49.3155 90.5586 49.3913 90.6344C49.467 90.7102 49.5807 90.8049 49.6754 90.8617C49.7702 90.9375 49.8838 90.9944 49.9975 91.0322C50.1112 91.0891 50.2248 91.108 50.3575 91.1459C50.4711 91.1649 50.6038 91.1838 50.7364 91.1838C50.85 91.1838 50.9827 91.1649 51.1153 91.1459C51.2289 91.127 51.3616 91.0891 51.4752 91.0322C51.5889 90.9754 51.7026 90.9186 51.7973 90.8617C51.892 90.786 52.0057 90.7102 52.0815 90.6344C52.1573 90.5586 52.252 90.4449 52.3278 90.3502C52.4036 90.2555 52.4604 90.1418 52.4983 90.0282C52.5551 89.9145 52.593 89.8008 52.612 89.6682C52.6309 89.5545 52.6498 89.4219 52.6498 89.2893C52.6309 89.1567 52.612 89.024 52.593 88.9104Z" fill="#00C7C7"/>
<path d="M69.8703 72.3332C69.4535 71.9732 68.9231 71.8027 68.3737 71.8785C67.2559 72.0301 64.6225 71.9354 63.5994 70.7986C63.069 70.2113 62.9742 69.2072 63.2963 67.8432C64.452 63.1447 64.7551 55.5477 64.7551 54.6762C64.7551 43.9152 63.1637 35.674 59.8672 29.4789C55.1119 20.4799 46.8518 15.9141 35.3141 15.9141C23.7764 15.9141 15.5162 20.4799 10.742 29.4979C7.46447 35.693 5.85407 43.9342 5.85407 54.6951C5.85407 54.7709 5.92987 62.6711 7.19917 67.8621C7.54027 69.2262 7.42657 70.2113 6.91507 70.7986C5.83517 72.0111 3.03127 71.9922 2.14087 71.8785C1.59141 71.8027 1.06094 71.9732 0.64414 72.3332C0.22734 72.6932 0 73.2047 0 73.7541C0 76.6148 1.64824 80.5934 9.26427 83.6246V95.1055C9.26427 96.1475 10.1168 97 11.1588 97H59.3367C60.3787 97 61.2313 96.1475 61.2313 95.1055V83.6246C68.8473 80.5934 70.4955 76.6338 70.4955 73.7541C70.5145 73.2236 70.2682 72.6932 69.8703 72.3332ZM57.4612 93.2109H13.0723V91.9795H13.0533V85.1592H13.0723C13.0723 83.4352 13.0723 81.3512 13.0723 81.3322C13.0723 79.3809 14.6637 77.7705 16.634 77.7705H29.1569C29.8578 80.4797 32.3397 82.4689 35.2573 82.4689C38.1748 82.4689 40.6377 80.4607 41.3576 77.7705H53.8994C55.8508 77.7705 57.4612 79.3619 57.4612 81.3322V93.2109ZM31.3356 68.4305C24.3826 66.6307 19.5326 60.3598 19.5326 53.1795V47.2307C25.8793 45.2982 31.4114 41.3576 35.3141 35.9771L36.7918 36.2424C45.033 37.7012 51.0008 44.8246 51.0008 53.1984C51.0008 60.3787 46.1508 66.6496 39.1979 68.4494C38.3643 68.6578 37.777 69.4156 37.777 70.2871V76.217C37.777 77.6 36.6403 78.7367 35.2573 78.7367C33.8742 78.7367 32.7375 77.6 32.7375 76.217V70.2871C32.7565 69.3967 32.1692 68.6389 31.3356 68.4305ZM61.0418 79.5893C60.2651 76.3686 57.3664 73.9814 53.9184 73.9814H41.585V71.6701C49.4473 68.9988 54.8088 61.5912 54.8088 53.1795C54.8088 42.968 47.5149 34.2721 37.4549 32.5102L34.7836 32.0365C34.0448 31.9039 33.3059 32.226 32.8891 32.8322L32.7186 33.0785C29.0432 38.4969 23.5112 42.3617 17.1645 43.9531C16.3119 44.1615 15.7246 44.9193 15.7246 45.7908V53.1795C15.7246 61.5912 21.0862 68.9988 28.9485 71.6701V73.9814H16.6151C13.167 73.9814 10.2684 76.3686 9.47267 79.5893C7.44547 78.6609 5.30467 77.3537 4.31957 75.6486C6.06247 75.4971 8.26017 74.9477 9.71897 73.2994C10.6852 72.2006 11.6703 70.2303 10.8557 66.9338C9.69997 62.2353 9.60527 54.752 9.60527 54.6762C9.60527 44.5594 11.0641 36.8865 14.0385 31.2598C18.2065 23.4922 25.1594 19.7031 35.3141 19.7031C45.4688 19.7031 52.4217 23.4922 56.5518 31.2787C59.5451 36.9244 61.0039 44.5783 61.0039 54.6951C61.0039 55.8887 60.644 62.8795 59.6588 66.9527C58.8442 70.2492 59.8293 72.2385 60.7955 73.3184C62.2543 74.9477 64.452 75.4971 66.1949 75.6676C65.2098 77.3537 63.069 78.6799 61.0418 79.5893Z" fill="black"/>
<path d="M31.5999 50.0531C30.861 49.3143 29.6675 49.3143 28.9286 50.0531C28.5308 50.451 27.9812 50.6783 27.4129 50.6783C26.8445 50.6783 26.2952 50.451 25.8974 50.0531C25.1585 49.3143 23.9648 49.3143 23.2261 50.0531C22.4872 50.792 22.4872 51.9856 23.2261 52.7244C24.3438 53.8422 25.8405 54.4674 27.4319 54.4674C29.0233 54.4674 30.501 53.8422 31.6377 52.7244C32.3387 51.9856 32.3388 50.792 31.5999 50.0531Z" fill="black"/>
<path d="M47.3264 50.0531C46.5875 49.3143 45.394 49.3143 44.6551 50.0531C44.2573 50.451 43.7079 50.6783 43.1395 50.6783C42.5711 50.6783 42.0217 50.451 41.6239 50.0531C40.885 49.3143 39.6915 49.3143 38.9526 50.0531C38.2137 50.792 38.2137 51.9856 38.9526 52.7244C40.0704 53.8422 41.567 54.4674 43.1584 54.4674C44.7498 54.4674 46.2276 53.8422 47.3643 52.7244C48.0653 51.9856 48.0653 50.792 47.3264 50.0531Z" fill="black"/>
<path d="M39.4631 60.8716C38.7242 60.1327 37.5307 60.1327 36.7918 60.8716C35.9582 61.7052 34.5942 61.7052 33.7606 60.8716C33.0217 60.1327 31.8281 60.1327 31.0893 60.8716C30.3504 61.6105 30.3504 62.804 31.0893 63.5429C32.2449 64.6985 33.7606 65.2859 35.2951 65.2859C36.8108 65.2859 38.3264 64.6985 39.501 63.5429C40.202 62.804 40.202 61.6105 39.4631 60.8716Z" fill="black"/>
<path d="M44.7502 89.2703C44.7502 90.3123 43.8977 91.1648 42.8557 91.1648H13.0736V91.9795H13.0547V85.1592H13.0736C13.0736 86.3527 13.0736 87.3758 13.0736 87.3758H42.8746C43.9166 87.3758 44.7502 88.2283 44.7502 89.2703Z" fill="#00C7C7"/>
</svg>
