<svg width="229" height="68" viewBox="0 0 229 68" fill="none" xmlns="http://www.w3.org/2000/svg">
<path d="M9.36824 23.0638C9.79685 22.3917 10.2867 21.7502 10.8071 21.1698C12.7971 19.0314 15.2157 17.2902 17.8792 16.0683C21.1856 14.4798 24.339 13.9604 27.3392 14.5409C29.8497 14.938 32.1458 16.2516 33.799 18.1761C35.391 20.0395 36.1564 22.0862 36.0951 24.3468C36.0033 26.699 34.9624 28.6846 33.003 30.2731C35.5134 30.1509 37.6871 30.5786 39.5852 31.5561C41.5752 32.5337 43.1366 34.2138 43.9632 36.2605C46.0144 40.8733 44.453 46.3108 40.2894 49.1518C35.3604 52.6954 28.8394 52.8787 20.7876 49.7017L20.4815 50.8931C20.5427 50.9542 20.0529 50.832 19.012 50.557L19.2263 49.0602L17.7261 48.3576C17.818 48.2659 17.9404 47.8688 18.0629 47.1356L19.4406 47.5328C19.9916 42.7978 20.0529 38.0323 19.6855 33.2668C18.0629 33.1446 16.4403 32.9613 14.8483 32.6864C14.9708 32.5948 15.2463 31.9533 15.6749 30.7619C16.9301 31.3117 18.2466 31.77 19.5936 32.0755C18.9507 25.7825 18.4609 22.6666 18.1241 22.6666C21.0632 22.7888 22.7776 23.2165 23.2674 23.9802C23.6961 24.6523 23.7879 27.4321 23.5124 32.3809C26.0228 32.1671 28.3801 31.0979 30.1864 29.3567C31.5335 28.1347 31.9621 26.4241 31.4723 24.2551C31.013 22.0862 29.6966 20.1923 27.8597 18.9703C25.686 17.4429 23.1144 16.9236 20.1447 17.4735C16.5321 18.1455 12.8277 20.2533 8.97025 23.7969C8.90902 23.7969 9.03148 23.5525 9.36824 23.0638ZM35.1154 47.38C37.7789 45.7915 38.8811 43.4699 38.4831 40.4151C38.0545 37.4214 36.4625 35.2219 33.7072 33.7861C30.5844 32.1365 27.0943 32.2587 23.2674 34.1527C22.8694 38.796 22.1347 43.4088 21.0938 47.9299C27.2474 49.4268 31.9315 49.2435 35.1154 47.38Z" fill="black"/>
<path d="M51.6781 42.4313C53.3007 43.8365 55.0151 43.2256 56.7601 40.5984C56.8826 40.3846 56.9132 39.8653 56.7908 39.0099L56.6683 37.8186C57.9847 37.6964 58.842 38.0324 59.1787 38.8266C59.1787 39.4071 58.8726 40.2013 58.2297 41.2399C57.25 42.9201 55.5355 44.0809 53.6068 44.3558C50.9433 44.8141 48.8615 43.8365 47.3001 41.4232C46.0449 39.4987 45.4938 37.5131 45.6163 35.4664C45.8612 31.7395 47.4838 29.0513 50.4841 27.4017C51.5862 26.7602 52.8414 26.4852 54.0966 26.6074C55.2294 26.7296 56.2397 27.4017 56.7601 28.4403C58.1378 31.0063 57.5255 33.3891 54.9232 35.6191C54.0048 36.4133 52.9639 37.0549 51.8311 37.4825C50.7902 37.9102 50.0861 38.0018 49.7187 37.788C49.5656 39.5903 50.3004 41.301 51.6781 42.4313ZM54.2497 32.6865C55.0151 31.5257 55.3825 30.5481 55.4131 29.7233C55.4437 28.8069 55.0151 28.2265 54.0354 28.0432C52.7496 27.7988 51.5862 29.204 50.4841 32.2283C50.0861 33.2363 49.8105 34.275 49.6269 35.3136C49.4432 36.2606 49.4432 36.6883 49.6269 36.5966C51.0045 36.6883 52.5353 35.3747 54.2497 32.6865Z" fill="black"/>
<path d="M70.4453 29.0818C69.5881 29.0513 68.7308 29.204 67.9349 29.5095C65.4244 30.5787 63.8937 33.5418 63.3732 38.4295C63.1589 41.0261 63.6181 42.248 64.8121 42.0953C65.7 42.0036 66.5878 41.3927 67.4756 40.2319C68.6696 38.6739 69.4656 35.2831 69.833 30.1204L72.0985 30.7619C71.7617 35.0387 71.578 37.6047 71.578 38.4295C71.578 39.5292 71.9454 40.5984 72.6189 41.4538C73.5068 42.6146 74.5477 42.2786 75.8029 40.5068L75.9254 40.5984C75.4049 42.523 74.4252 43.5616 73.0169 43.7143C71.2719 43.9282 70.2004 43.1034 69.833 41.2399C69.6493 40.2929 69.6493 39.346 69.8024 38.399C69.3125 39.5903 68.639 40.7206 67.843 41.7593C66.2816 43.8365 64.7815 44.5086 63.3426 43.7449C61.0159 42.4619 59.7913 40.4457 59.6382 37.6964C59.5157 35.2831 60.1587 32.9003 61.6282 30.487C63.0977 28.0737 64.7203 26.638 66.4959 26.1492C68.5472 25.5993 70.231 26.5463 71.5474 28.9291C71.578 29.0513 71.2107 29.0818 70.4453 29.0818Z" fill="black"/>
<path d="M79.4153 36.5049C79.1091 38.8571 79.1091 40.4456 79.354 41.301C79.6602 42.3702 80.3949 42.2174 81.5277 40.9039C81.0685 41.4537 82.8135 36.7188 86.7629 26.6685L88.5998 26.7601C89.8244 26.8517 90.406 27.035 90.3142 27.31C89.3039 29.8149 88.5079 32.3809 87.9875 35.0081C87.069 39.5292 87.5895 41.7287 89.5794 41.637C90.1611 41.6065 90.7122 41.1482 91.2326 40.2318C91.2633 42.0341 90.7122 43.1033 89.4876 43.3477C87.5282 43.7754 86.1812 43.1339 85.3852 41.3926C84.926 40.3234 84.7117 39.1626 84.7423 38.0018C84.8953 38.0934 84.681 38.6128 84.0994 39.5903C83.5177 40.5984 82.8135 41.5454 81.9869 42.3702C79.6296 44.6918 77.8233 44.6613 76.5681 42.2785C76.0476 41.301 76.0476 38.6433 76.5375 34.336C77.0273 30.1509 77.5171 27.7682 78.0682 27.2183C79.8439 26.7601 80.9766 26.7601 81.4359 27.2489C80.8236 27.9209 80.15 30.9757 79.4153 36.5049Z" fill="black"/>
<path d="M94.3555 24.7438C94.8454 24.8354 95.2434 24.8965 95.5495 24.9271C95.9475 21.8722 96.4374 18.1148 96.9884 13.6243C98.9478 13.9603 100.111 14.3269 100.54 14.7545C100.601 14.8156 99.8662 18.3287 98.3661 25.2631C102.315 25.7213 104.856 25.8129 105.959 25.5686L106.02 26.3017C104.948 27.2182 102.193 27.7069 97.815 27.7986C97.019 31.8004 96.6211 35.0996 96.6211 37.635C96.8966 41.087 98.1212 42.8282 100.295 42.8282C101.091 42.8282 101.856 42.5838 102.499 42.1562C103.173 41.6979 103.479 41.2397 103.479 40.751L104.336 40.9648C104.336 41.6368 103.724 42.4922 102.469 43.5308C100.877 44.8138 99.1621 45.0888 97.2946 44.3556C95.3046 43.3781 94.2943 40.9037 94.2637 36.9324C94.2331 35.2523 94.5392 32.228 95.1515 27.8291C93.4371 27.7986 92.335 27.6458 91.9063 27.4625C91.3247 27.1876 90.9573 26.6072 90.743 25.6908C90.5593 24.9271 90.6205 24.1328 90.9267 23.3996C91.2634 24.0412 92.4268 24.4994 94.3555 24.7438Z" fill="black"/>
<path d="M106.601 27.4322C108.162 26.3325 109.816 25.9048 111.499 26.2103C112.877 26.4547 113.153 28.9291 112.326 33.6029C111.408 38.6739 111.132 41.4232 111.561 41.912C111.897 42.2786 112.755 42.3091 114.163 42.0342C115.663 41.7287 116.735 41.2094 117.408 40.4457C118.082 34.4888 118.388 30.0288 118.388 27.0351C118.388 26.7296 119.061 26.5769 120.378 26.6685C121.694 26.7296 122.368 26.9434 122.429 27.2795C122.827 29.9066 121.419 37.6964 118.173 50.6182C120.133 50.832 122.796 51.1986 126.164 51.7179C128.858 52.115 130.787 52.39 132.042 52.4511C135.655 52.7566 139.298 52.4511 142.819 51.5652C143.033 51.5346 143.063 51.5957 142.91 51.8096C142.665 52.1456 142.39 52.4205 142.053 52.6344C140.706 53.6425 139.175 54.4062 137.522 54.8949C131.705 56.7584 124.939 56.2696 117.224 53.4286C116.03 56.2696 114.714 58.4385 113.306 59.9354C111.285 62.1654 108.407 63.4178 105.407 63.3567C102.652 63.3567 100.784 62.5319 99.7739 60.8518C99.0391 59.5993 98.8554 58.133 99.1922 56.3918C99.5596 54.5894 100.662 53.1231 102.499 51.9623C105.223 50.2822 109.173 49.7017 114.377 50.2211L116.337 50.4349C117.041 47.6856 117.439 44.8446 117.469 42.0036C117.469 42.0647 116.826 42.4008 115.571 43.0117C114.071 43.7143 112.785 44.0198 111.683 43.9282C108.162 43.6838 107.275 39.3765 109.02 31.0063C109.571 28.3792 109.081 27.4628 107.581 28.257C106.448 28.868 105.468 29.6928 104.703 30.7314C104.519 30.6092 104.336 30.4565 104.213 30.3037C104.489 29.2956 105.285 28.3486 106.601 27.4322ZM102.774 59.2022C103.264 60.9129 104.366 61.7682 106.081 61.7071C107.673 61.646 109.295 60.9129 110.918 59.5688C112.846 57.9497 114.377 55.7197 115.479 52.8176C113.244 52.1456 110.918 51.9929 108.622 52.4205C106.693 52.7871 105.285 53.3981 104.397 54.2534C102.835 55.7808 102.284 57.4304 102.774 59.2022Z" fill="black"/>
<path d="M122.705 41.6981C123.042 41.7286 123.899 40.8427 125.277 39.0098C124.083 30.7619 124.971 23.0027 128.001 15.7933C129.777 11.5777 131.583 9.83643 133.42 10.6307C135.012 11.3027 135.931 13.044 136.176 15.7933C136.39 17.8706 135.9 20.7421 134.706 24.3468C132.379 30.2425 130.145 34.5498 128.001 37.2381C128.032 41.4842 128.675 44.6307 129.869 46.6774C131.216 48.9685 133.114 49.4573 135.594 48.1743C136.574 47.6855 137.339 46.7996 137.921 45.5471L138.38 45.761C137.798 47.8993 136.635 49.3351 134.89 50.0682C133.604 50.6486 132.379 50.7403 131.277 50.3737C128.491 49.3962 126.563 45.9748 125.491 40.0485C124.45 41.0566 123.624 41.7897 123.072 42.309L122.705 41.6981ZM128.001 34.8248C128.951 33.2057 129.747 31.5256 130.42 29.7843C131.614 26.4546 132.563 23.0637 133.328 19.6118C133.696 17.6873 133.696 16.1293 133.359 14.938C133.298 14.6019 133.114 14.2659 132.869 14.0215C132.655 13.8688 132.471 13.8993 132.318 14.1743C131.216 15.3351 130.022 19.7646 128.736 27.5238C128.338 29.9371 128.093 32.3809 128.001 34.8248Z" fill="#00C6C6"/>
<path d="M139.206 27.0961C140.492 27.3405 140.89 27.6765 140.461 28.1042C139.635 28.8985 139.145 31.2507 138.931 35.1914C138.716 39.6208 139.604 42.4923 141.564 43.8059L140.89 44.5085C139.482 43.9587 138.349 42.6451 137.492 40.5678C136.114 37.2686 136.022 32.6864 137.186 26.8517C137.828 26.9128 138.533 27.0045 139.206 27.0961ZM138.318 22.4528C138.655 21.6891 139.39 21.2309 140.216 21.2614C140.859 21.2309 141.472 21.5669 141.778 22.1473C142.053 22.6361 142.176 23.186 142.053 23.7358C141.778 24.9272 141.104 25.5687 140.033 25.6298C138.961 25.6909 138.288 25.0189 137.982 23.6136C138.012 23.2165 138.135 22.8194 138.318 22.4528Z" fill="#00C6C6"/>
<path d="M141.778 29.6011C142.053 29.0512 142.451 28.593 142.941 28.1959C143.798 27.4322 145.054 27.3711 146.003 28.0126C146.921 28.929 147.472 30.4564 147.595 32.5642C147.687 34.0305 147.595 35.4969 147.289 36.9632C149.493 31.0063 151.422 27.4933 153.075 26.4241C153.503 26.4546 153.901 26.5768 154.299 26.7601C155.065 27.1572 155.371 27.7071 155.157 28.4708C154.575 29.2956 154.177 31.5256 154.024 35.0997C153.84 39.0404 154.391 41.2399 155.677 41.637C156.779 41.8508 157.606 41.4232 158.157 40.354L158.371 40.7206C158.187 41.4232 157.851 42.0647 157.391 42.6145C156.381 43.7754 155.095 44.0809 153.534 43.5615C152.156 43.2255 151.238 41.637 150.779 38.7655C150.472 37.0243 150.411 35.2525 150.564 33.4807C149.891 34.4888 149.064 36.4133 148.146 39.2848C147.166 42.3091 146.462 44.1725 146.003 44.9362C145.023 44.5696 144.013 44.2641 142.972 44.0809C144.135 36.7493 144.717 32.2893 144.717 30.7313C144.717 29.6011 144.441 28.9901 143.89 28.929C143.492 28.8985 142.88 29.2039 142.023 29.7844L141.778 29.6011Z" fill="#00C6C6"/>
<path d="M158.126 29.8148L159.565 28.9289C160.147 28.5624 160.637 28.2569 160.974 28.043C161.157 25.7825 161.31 24.0718 161.464 22.911C162.106 17.0457 163.209 13.4411 164.801 12.0664C166.515 10.539 167.862 10.3557 168.78 11.5776C169.699 12.7996 169.913 14.999 169.393 18.2066C168.78 21.7196 166.791 24.7744 163.453 27.371L163.668 32.3503C164.28 30.7924 165.107 29.3261 166.086 27.9819C167.893 25.5076 169.576 24.866 171.138 26.0574C173.005 27.4932 173.25 29.2955 171.934 31.495C170.832 33.3584 169.056 34.9164 166.637 36.2299C166.607 37.5129 166.852 38.796 167.28 40.0179C168.199 42.92 170.189 44.7528 173.189 45.5165C175.853 46.1886 177.689 45.9442 178.761 44.8139C177.843 46.158 176.649 47.2883 175.271 48.1742C172.546 49.9155 170.158 49.5794 168.138 47.1661C167.25 45.7609 166.576 44.2335 166.148 42.645L164.831 37.0242C164.372 37.2075 163.851 37.2991 163.362 37.2991C163.239 39.8957 163.178 42.6145 163.178 45.5165L160.637 43.9891C160.484 39.4986 160.576 34.5498 160.912 29.1122C160.025 29.601 159.137 30.0592 158.218 30.4258L158.126 29.8148ZM167.433 13.7465C167.342 13.4716 167.066 13.3494 166.791 13.4411C166.454 13.5633 166.209 13.8076 166.025 14.1131C164.341 16.8625 163.484 20.8032 163.423 25.9658C165.015 24.1634 166.209 21.6585 167.005 18.451C167.709 16.0377 167.831 14.4797 167.433 13.7465ZM168.505 31.6172C168.995 30.9146 169.393 30.1203 169.607 29.265C169.821 28.5013 169.73 28.043 169.332 27.8292C168.566 27.3099 167.495 28.2874 166.117 30.7924C165.443 32.0448 164.831 33.3584 164.311 34.7025C165.658 34.7331 167.066 33.725 168.505 31.6172Z" fill="#00C6C6"/>
<path d="M176.465 35.9245C177.873 33.1446 178.761 29.6927 179.098 25.5687C179.373 25.141 179.741 24.805 180.2 24.5606C181.179 23.9496 182.282 23.858 183.537 24.2551C183.721 24.2857 183.629 24.6828 183.292 25.416C182.894 26.3018 182.68 26.8823 182.68 27.1266C182.68 28.1958 183.169 29.3567 184.119 30.6091C184.853 30.0287 185.68 29.5705 186.568 29.2345C186.843 29.2345 186.966 29.3567 186.966 29.601C186.17 30.1509 185.435 30.7619 184.792 31.4339C186.353 33.389 187.333 34.7331 187.731 35.5274C188.588 37.2381 188.803 39.2237 188.313 41.0871C188.098 41.9119 187.456 42.6451 186.384 43.256C185.282 43.8364 184.057 44.1725 182.802 44.2336C181.547 44.3863 180.292 44.1725 179.159 43.6532C178.057 43.1949 177.261 42.2174 177.016 41.0566C176.618 39.5292 177.23 37.6963 178.792 35.619C179.496 34.6415 180.322 33.725 181.241 32.9308C180.322 31.4034 179.863 30.0287 179.863 28.7457C179.741 30.3342 178.975 32.7169 177.628 35.8939C175.822 40.079 173.863 42.6756 171.719 43.7143C171.168 43.6532 170.954 43.3782 171.046 42.8895C173.465 40.6289 175.271 38.3072 176.465 35.9245ZM179.986 37.7574C178.822 40.1401 178.945 41.6064 180.322 42.1563C181.516 42.6451 182.557 42.4007 183.414 41.4842C184.21 40.69 184.578 39.5597 184.363 38.46C184.18 37.6963 183.874 36.9937 183.414 36.3827C182.955 35.7412 182.527 35.0691 182.129 34.3665C181.302 35.4357 180.598 36.566 179.986 37.7574Z" fill="#00C6C6"/>
<path d="M187.456 10.8445C187.456 8.43121 188.619 6.65942 191.068 6.65942C192.783 6.65942 194.375 7.66751 194.375 9.77533C194.375 11.0583 193.732 12.097 192.629 12.769V12.8301C194.375 13.0745 195.446 14.3881 195.446 16.221C195.446 18.6037 193.762 19.9173 192.017 19.9173C190.915 19.9173 189.782 19.5813 188.864 18.5732C188.925 20.0395 188.925 21.4447 188.956 22.911H187.456V10.8445ZM193.946 16.1293C193.946 14.7241 193.119 13.6855 191.466 13.6855C191.16 13.6855 190.854 13.716 190.578 13.8077L190.364 12.6774C192.231 12.3108 192.936 11.0583 192.936 9.89752C192.936 8.5534 192.078 7.88135 191.099 7.88135C189.752 7.88135 188.925 9.01162 188.925 11.0889C188.894 13.1967 188.894 15.2434 188.894 17.3207C189.752 18.4204 190.762 18.6954 191.68 18.6954C192.905 18.6648 193.946 17.7178 193.946 16.1293Z" fill="black"/>
<path d="M197.038 15.3349C197.038 12.494 198.967 10.7222 200.987 10.7222C203.222 10.7222 204.478 12.3412 204.478 14.8462C204.478 15.1516 204.447 15.4571 204.416 15.7015H198.508C198.599 17.5649 199.763 18.7563 201.416 18.7563C202.273 18.7563 202.947 18.4814 203.59 18.0537L204.11 19.0312C203.345 19.52 202.396 19.9477 201.202 19.9477C198.906 19.9171 197.038 18.2064 197.038 15.3349ZM203.192 14.6018C203.192 12.8605 202.396 11.883 201.018 11.883C199.793 11.883 198.691 12.8605 198.508 14.6018H203.192Z" fill="black"/>
<path d="M206.743 16.9848V12.1277H205.426V10.9974L206.804 10.9058L206.988 8.46191H208.243V10.9058H210.631V12.1277H208.243V16.9848C208.243 18.054 208.58 18.665 209.59 18.665C209.896 18.665 210.294 18.5428 210.6 18.4206L210.876 19.5509C210.386 19.7036 209.804 19.8869 209.253 19.8869C207.386 19.9174 206.743 18.7261 206.743 16.9848Z" fill="black"/>
<path d="M211.672 17.4124C211.672 15.5184 213.325 14.5409 217.06 14.1438C217.06 13.0135 216.693 11.9443 215.254 11.9443C214.244 11.9443 213.325 12.4331 212.621 12.8913L212.039 11.8832C212.835 11.3639 214.09 10.7529 215.499 10.7529C217.642 10.7529 218.56 12.1887 218.56 14.3576V19.7341H217.336L217.213 18.6954H217.152C216.325 19.398 215.346 19.9479 214.244 19.9479C212.774 19.9174 211.672 19.0009 211.672 17.4124ZM217.06 17.5652V15.1213C214.121 15.4879 213.111 16.1905 213.111 17.3208C213.111 18.3289 213.784 18.726 214.642 18.726C215.499 18.6954 216.203 18.2983 217.06 17.5652Z" fill="black"/>
</svg>
