<svg width="214" height="68" viewBox="0 0 214 68" fill="none" xmlns="http://www.w3.org/2000/svg">
<path d="M10.0282 19.8866C10.488 19.1696 11.0006 18.4877 11.562 17.8466C13.6971 15.5484 16.265 13.6921 19.1191 12.3837C22.6476 10.6837 26.0187 10.1389 29.2325 10.7491C31.9244 11.1856 34.3711 12.5677 36.131 14.646C37.8242 16.6337 38.6391 18.835 38.5758 21.2499C38.4775 23.7759 37.3698 25.8878 35.2527 27.5857C37.9291 27.4636 40.2777 27.9246 42.2987 28.9686C44.4225 30.0136 46.0861 31.8024 46.9719 33.9934C48.0299 36.3909 48.216 39.0816 47.4981 41.6014C46.7802 44.1212 45.2032 46.312 43.0393 47.7961C37.7587 51.584 30.7979 51.778 22.1571 48.378L21.8294 49.653C21.9015 49.7249 21.3782 49.6039 20.2596 49.2901L20.4792 47.6882L18.8733 46.9232C18.9695 46.8251 19.0907 46.3892 19.2371 45.6155L20.6987 46.0536C21.2802 40.9881 21.3658 35.8781 20.9544 30.7961C19.2196 30.6609 17.4882 30.4593 15.76 30.1912C15.8824 30.0953 16.174 29.4034 16.635 28.1153C17.9871 28.7176 19.3925 29.1926 20.8331 29.5341C20.1514 22.8126 19.6282 19.4507 19.2633 19.4485C22.4029 19.5706 24.2403 20.0435 24.7756 20.8674C25.2387 21.5714 25.3239 24.5693 25.0312 29.8611C27.7169 29.6282 30.2417 28.4848 32.1853 26.6212C33.6207 25.3136 34.0828 23.4926 33.5715 21.1584C33.0719 18.8453 31.6836 16.8197 29.7044 15.5157C27.3689 13.8658 24.6193 13.3318 21.4558 13.9137C17.6826 14.6177 13.7282 16.8757 9.59237 20.6876C9.53338 20.6876 9.67866 20.4206 10.0282 19.8866ZM37.5893 45.9261C40.4296 44.2261 41.6312 41.7371 41.1942 38.4591C40.7376 35.2684 39.0379 32.9014 36.0949 31.3584C32.7588 29.5864 29.0293 29.7194 24.9066 31.7572C24.479 36.7221 23.6982 41.6503 22.57 46.5047C29.1768 48.1088 34.1833 47.9159 37.5893 45.9261Z" fill="black"/>
<path d="M55.3319 40.607C57.0797 42.113 58.8931 41.4592 60.772 38.6455C60.9184 38.4275 60.9304 37.8565 60.8081 36.9324L60.6606 35.6574C62.072 35.5114 62.9721 35.8754 63.361 36.7493C63.361 37.3574 63.0202 38.2194 62.3385 39.3353C61.8137 40.2277 61.0954 40.9918 60.2364 41.5715C59.3773 42.1513 58.3992 42.5322 57.3736 42.6863C54.5334 43.1723 52.282 42.1283 50.6193 39.5543C49.2801 37.4904 48.6836 35.3664 48.83 33.1826C49.0965 29.2007 50.8367 26.3238 54.0505 24.5518C55.215 23.8601 56.5738 23.5663 57.9209 23.7149C58.5224 23.7773 59.0985 23.9897 59.5962 24.3325C60.0939 24.6753 60.4971 25.1374 60.7688 25.6764C62.2522 28.4204 61.5968 30.9813 58.8024 33.3591C57.8174 34.2113 56.6935 34.8891 55.4794 35.3632C54.3586 35.8252 53.6037 35.9342 53.2149 35.6901C53.1426 36.6194 53.2976 37.5523 53.6663 38.4087C54.035 39.2651 54.6066 40.0195 55.3319 40.607ZM58.0684 30.1913C58.8724 28.9533 59.2864 27.8973 59.3104 27.0234C59.3585 26.0273 58.8713 25.4323 57.8488 25.2384C56.4855 24.9725 55.2205 26.4654 54.0538 29.7172C53.6423 30.7854 53.3372 31.8914 53.1428 33.0191C52.9483 34.0391 52.9483 34.5001 53.1428 34.402C54.6022 34.4848 56.2441 33.0813 58.0684 30.1913Z" fill="black"/>
<path d="M75.4079 26.3337C74.4838 26.2924 73.5619 26.4543 72.7075 26.8078C70.0071 27.9476 68.3838 31.1275 67.8376 36.3474C67.5951 39.1153 68.1063 40.423 69.3713 40.2705C70.3195 40.1746 71.2688 39.5065 72.2192 38.2664C73.5082 36.5904 74.3483 32.9855 74.7393 27.4518L77.1481 28.1449C76.7832 32.7327 76.6008 35.4636 76.6008 36.3376C76.5883 37.5158 76.9882 38.6615 77.7314 39.5774C78.6796 40.8153 79.8113 40.4753 81.1266 38.5574L81.274 38.6653C80.7147 40.7292 79.6802 41.8462 78.1705 42.0162C76.296 42.2342 75.1643 41.3482 74.7754 39.3583C74.5803 38.3608 74.568 37.3362 74.7393 36.3343C74.2035 37.6173 73.504 38.8259 72.6583 39.9305C70.9782 42.1644 69.3724 42.8684 67.8409 42.0424C65.3589 40.6824 64.0328 38.5214 63.8624 35.5595C63.716 32.9855 64.4217 30.4115 65.9794 27.8376C67.5372 25.2636 69.2774 23.7216 71.2 23.2116C73.3848 22.6297 75.1861 23.6246 76.6041 26.1964C76.6106 26.2879 76.2119 26.3337 75.4079 26.3337Z" fill="black"/>
<path d="M85.0101 34.2712C84.6933 36.7733 84.6693 38.4853 84.938 39.4072C85.2789 40.5492 86.0577 40.4032 87.2747 38.9691C86.7875 39.551 88.6609 34.4772 92.895 23.7476L94.8613 23.8554C96.1722 23.9535 96.7807 24.1475 96.6867 24.4374C95.5964 27.103 94.7667 29.8674 94.2092 32.6922C93.2107 37.5241 93.7832 39.891 95.9264 39.7929C96.56 39.769 97.1445 39.271 97.6797 38.2989C97.7278 40.2408 97.1073 41.3578 95.8183 41.6499C93.7253 42.1097 92.2647 41.4178 91.4367 39.5739C90.952 38.4322 90.7152 37.201 90.7419 35.9614C90.9123 36.0595 90.6808 36.6305 90.0472 37.6745C89.4278 38.7648 88.6663 39.7685 87.7826 40.6593C85.2505 43.1592 83.3158 43.1232 81.9787 40.5514C81.4194 39.5074 81.4074 36.6741 81.9427 32.0514C82.4539 27.5595 83.0001 25.0226 83.5813 24.4406C85.4799 23.9546 86.6815 23.9666 87.1862 24.4766C86.522 25.1065 85.7967 28.3713 85.0101 34.2712Z" fill="black"/>
<path d="M101 21.7078C101.535 21.8058 101.961 21.8669 102.278 21.8908C102.715 18.6216 103.226 14.5895 103.811 9.79468C105.904 10.1587 107.169 10.5597 107.606 10.9978C107.678 11.0697 106.9 14.8206 105.27 22.2504C109.504 22.7365 112.217 22.8454 113.41 22.5774L113.482 23.3783C112.329 24.3569 109.397 24.8931 104.686 24.9868C103.834 29.2847 103.408 32.7926 103.408 35.5104C103.701 39.2003 105.012 41.0529 107.341 41.0681C108.187 41.0695 109.015 40.8154 109.714 40.3391C110.419 39.8531 110.772 39.3551 110.772 38.8451L111.683 39.0641C111.683 39.792 111.013 40.702 109.674 41.7939C107.97 43.1539 106.121 43.4449 104.126 42.6668C102.009 41.6228 100.926 38.9769 100.878 34.7291C100.854 32.9332 101.171 29.6803 101.829 24.9704C99.9781 24.9225 98.8224 24.7885 98.3614 24.5683C97.754 24.2763 97.34 23.6453 97.1193 22.6754C96.9142 21.8641 96.9786 21.0083 97.3029 20.2366C97.6983 20.9253 98.9305 21.4157 101 21.7078Z" fill="black"/>
<path d="M114.102 24.5847C115.782 23.3947 117.53 22.9588 119.345 23.277C120.829 23.5451 121.12 26.179 120.22 31.1787C119.222 36.5926 118.954 39.5545 119.417 40.0645C119.782 40.4524 120.707 40.5015 122.193 40.2116C123.799 39.8956 124.955 39.3245 125.66 38.4985C126.366 32.1388 126.719 27.3559 126.719 24.1499C126.719 23.8099 127.424 23.6758 128.836 23.7477C130.247 23.8197 130.977 24.0376 131.025 24.4016C131.462 27.2175 129.941 35.5453 126.463 49.3851C128.556 49.627 131.404 50.0149 135.007 50.5489C137.878 50.9848 139.971 51.2518 141.286 51.3499C145.157 51.6829 149.057 51.3624 152.822 50.4018C153.041 50.3527 153.077 50.4377 152.93 50.6568C152.68 51.0004 152.37 51.2962 152.015 51.5297C150.565 52.6224 148.925 53.4402 147.178 53.9424C140.947 55.9322 133.707 55.4103 125.457 52.3764C124.166 55.4103 122.767 57.7292 121.259 59.3333C120.191 60.5125 118.884 61.4507 117.423 62.0849C115.963 62.7192 114.383 63.035 112.791 63.0112C109.846 63.0112 107.838 62.1133 106.767 60.3174C105.99 58.9813 105.783 57.3914 106.148 55.5476C106.537 53.6296 107.717 52.0517 109.687 50.8137C112.608 49.0178 116.842 48.3988 122.39 48.9568L124.471 49.1758C125.236 46.2254 125.641 43.1936 125.677 40.1462C125.677 40.2181 124.995 40.5821 123.632 41.2381C122.026 41.9901 120.639 42.317 119.47 42.2189C115.697 41.9508 114.747 37.3379 116.622 28.3802C117.205 25.5643 116.694 24.5836 115.088 25.4379C113.877 26.0812 112.829 26.99 112.021 28.0958C111.818 27.9763 111.644 27.8146 111.509 27.6218C111.852 26.5691 112.716 25.5567 114.102 24.5847ZM110.015 58.5618C110.526 60.4078 111.706 61.3058 113.554 61.2556C115.258 61.1837 116.987 60.4209 118.739 58.9672C120.808 57.2432 122.439 54.8392 123.632 51.7552C121.254 51.0346 118.739 50.8878 116.294 51.327C114.225 51.7149 112.716 52.3688 111.768 53.2885C110.064 54.9101 109.48 56.6678 110.015 58.5618Z" fill="black"/>
<path d="M131.333 39.8421C131.698 39.89 132.61 38.931 134.069 36.9651C132.78 28.1295 133.754 19.8474 136.989 12.119C138.888 7.60308 140.823 5.75815 142.793 6.58417C144.497 7.31212 145.481 9.15706 145.743 12.119C145.961 14.353 145.438 17.4042 144.173 21.2728C141.698 27.5781 139.302 32.1779 136.986 35.0723C137.034 39.6121 137.704 42.9751 138.995 45.1611C140.43 47.613 142.474 48.147 145.127 46.763C146.173 46.229 147.001 45.2941 147.611 43.958L148.086 44.1771C147.452 46.459 146.211 48.001 144.363 48.803C142.976 49.4089 141.686 49.5179 140.493 49.1299C137.5 48.086 135.431 44.4081 134.286 38.0963C133.165 39.1642 132.301 39.9652 131.693 40.4992L131.333 39.8421ZM137.029 32.4863C138.041 30.7673 138.904 28.9648 139.608 27.0986C140.871 23.5374 141.908 19.9003 142.711 16.2088C143.1 14.1448 143.112 12.4819 142.747 11.2199C142.678 10.8498 142.5 10.5084 142.236 10.2392C142.018 10.0692 141.823 10.1182 141.653 10.3863C140.484 11.6242 139.206 16.3831 137.819 24.663C137.381 27.2504 137.118 29.8639 137.029 32.4863Z" fill="#00C6C6"/>
<path d="M149 24.2216C150.364 24.4897 150.814 24.8537 150.35 25.3136C149.477 26.1636 148.93 28.6885 148.712 32.8884C148.493 37.6222 149.431 40.6931 151.524 42.1011L150.793 42.8661C149.283 42.2841 148.066 40.8762 147.142 38.6422C145.683 35.0984 145.573 30.2065 146.814 23.9666C147.547 24.0105 148.277 24.0957 149 24.2216ZM148.05 19.2328C148.22 18.8376 148.507 18.5037 148.872 18.2758C149.238 18.048 149.664 17.937 150.095 17.9578C150.436 17.9419 150.774 18.0224 151.071 18.1902C151.368 18.358 151.611 18.6061 151.773 18.9059C152.081 19.4204 152.186 20.0316 152.064 20.6189C151.772 21.9048 151.054 22.5848 149.911 22.6589C148.769 22.733 148.039 22.0171 147.722 20.5111C147.747 20.0664 147.86 19.631 148.053 19.2295L148.05 19.2328Z" fill="#00C6C6"/>
<path d="M151.776 26.8796C152.084 26.3023 152.506 25.7939 153.018 25.3856C153.462 24.9875 154.029 24.7524 154.624 24.7191C155.22 24.6858 155.81 24.8563 156.295 25.2025C157.294 26.1985 157.866 27.8255 158.013 30.0834C158.114 31.657 158.003 33.2369 157.685 34.7813C160.044 28.3954 162.113 24.6325 163.892 23.4927C164.346 23.5396 164.789 23.6623 165.203 23.8556C166.031 24.2697 166.334 24.8767 166.114 25.6765C165.48 26.5745 165.078 28.9414 164.908 32.7773C164.713 37.0011 165.298 39.3321 166.661 39.7702C167.83 39.9881 168.718 39.5272 169.325 38.3873L169.545 38.7894C169.341 39.5365 168.98 40.2318 168.486 40.8294C167.416 42.0674 166.041 42.4074 164.361 41.8494C162.875 41.4854 161.892 39.7734 161.411 36.7134C161.078 34.8471 161.006 32.9439 161.195 31.0577C160.465 32.1256 159.601 34.1961 158.602 37.2692C157.556 40.4992 156.791 42.5142 156.308 43.314C155.255 42.9162 154.168 42.611 153.061 42.4019C154.302 34.5558 154.922 29.7968 154.922 28.1252C154.922 26.9112 154.631 26.2683 154.047 26.1963C153.632 26.1724 152.962 26.4764 152.038 27.1084L151.776 26.8796Z" fill="#00C6C6"/>
<path d="M169.263 27.1345L170.797 26.1864C171.43 25.7985 171.93 25.4825 172.295 25.2384C172.489 22.8104 172.659 20.9775 172.806 19.7395C173.487 13.4757 174.68 9.60381 176.384 8.12393C178.233 6.47406 179.653 6.30406 180.645 7.61394C181.637 8.92381 181.855 11.2907 181.3 14.7147C180.645 18.4787 178.528 21.7479 174.949 24.5224L175.169 29.8382C175.823 28.1746 176.697 26.6057 177.767 25.173C179.714 22.5271 181.515 21.8351 183.172 23.097C185.166 24.6227 185.446 26.5646 184.011 28.9228C182.818 30.9126 180.931 32.5996 178.351 33.9835C178.33 35.3617 178.565 36.7319 179.046 38.0243C180.044 41.1323 182.149 43.0938 185.361 43.9089C188.201 44.6129 190.185 44.3579 191.312 43.1439C190.316 44.5714 189.051 45.7927 187.589 46.7401C184.668 48.6101 182.125 48.2461 179.96 45.6482C179.008 44.1517 178.294 42.5174 177.843 40.8032L176.421 34.7943C175.92 34.9868 175.388 35.0854 174.851 35.0853C174.728 37.8532 174.667 40.7792 174.667 43.8632L171.931 42.2285C171.76 37.4206 171.858 32.1157 172.222 26.3139C171.288 26.8401 170.326 27.3138 169.339 27.7328L169.263 27.1345ZM179.229 9.90893C179.205 9.84177 179.168 9.77997 179.12 9.72712C179.073 9.67427 179.015 9.63141 178.95 9.60101C178.885 9.57061 178.815 9.55329 178.744 9.55002C178.673 9.54676 178.601 9.55763 178.534 9.58201C178.19 9.72466 177.906 9.98241 177.731 10.3111C175.929 13.2446 175.004 17.4685 174.956 22.9826C176.658 21.0646 177.936 18.3817 178.79 14.9337C179.52 12.3881 179.666 10.7132 179.229 9.90893ZM180.36 29.0634C180.892 28.2953 181.296 27.4463 181.556 26.5493C181.774 25.7473 181.677 25.2373 181.264 25.0193C180.436 24.4614 179.292 25.5173 177.833 28.1872C177.098 29.5357 176.455 30.9314 175.906 32.3653C177.341 32.398 178.826 31.2973 180.36 29.0634Z" fill="#00C6C6"/>
<path d="M188.9 33.6536C190.41 30.6677 191.347 26.9778 191.712 22.5839C192.015 22.1381 192.413 21.7651 192.878 21.492C193.925 20.8382 195.118 20.7292 196.457 21.1651C196.652 21.2131 196.566 21.6261 196.202 22.4041C195.765 23.35 195.546 23.957 195.546 24.2251C195.546 25.3672 196.057 26.6051 197.08 27.9389C197.864 27.308 198.751 26.815 199.702 26.4809C199.994 26.4809 200.141 26.6149 200.141 26.883C199.298 27.457 198.515 28.1141 197.804 28.8445C199.484 30.9325 200.531 32.3895 200.944 33.2155C201.863 35.0547 202.083 37.1638 201.563 39.1524C201.345 40.0504 200.651 40.8273 199.482 41.4834C198.296 42.1088 196.987 42.4691 195.648 42.5393C194.313 42.6899 192.963 42.4764 191.741 41.9214C191.165 41.6755 190.657 41.2959 190.258 40.8142C189.859 40.3326 189.581 39.7628 189.447 39.1524C189.032 37.5025 189.665 35.5606 191.345 33.3266C192.111 32.2749 192.99 31.3102 193.966 30.4497C192.992 28.8238 192.505 27.3309 192.505 25.9709C192.358 27.6709 191.556 30.2198 190.096 33.6176C188.174 38.0855 186.068 40.8775 183.781 41.9934C183.198 41.9214 182.954 41.6305 183.05 41.1205C185.685 38.6903 187.635 36.2014 188.9 33.6536ZM192.659 35.6151C191.418 38.1651 191.539 39.7311 193.023 40.313C194.312 40.823 195.419 40.58 196.346 39.5839C196.766 39.1663 197.078 38.6535 197.256 38.0893C197.434 37.5252 197.472 36.9264 197.368 36.3441C197.184 35.5419 196.836 34.7863 196.346 34.1243C195.848 33.4319 195.385 32.715 194.959 31.9764C194.077 33.1188 193.307 34.344 192.662 35.6347L192.659 35.6151Z" fill="#00C6C6"/>
</svg>
