<svg width="90" height="92" viewBox="0 0 90 92" fill="none" xmlns="http://www.w3.org/2000/svg">
<path d="M23.9993 75.8396C24.826 75.8396 25.5024 75.1557 25.5024 74.3198V54.5999C25.5024 53.764 24.826 53.0801 23.9993 53.0801C23.1725 53.0801 22.4961 53.764 22.4961 54.5999V74.3198C22.4961 75.1557 23.1725 75.8396 23.9993 75.8396Z" fill="#00C7C7"/>
<path d="M23.4363 81.1967C23.7933 81.3677 24.2066 81.3677 24.5824 81.1967C24.7703 81.1207 24.9394 81.0067 25.0709 80.8737C25.3528 80.5888 25.5031 80.1898 25.5031 79.7908C25.5031 79.6009 25.4655 79.3919 25.3903 79.2209C25.2588 78.8409 24.9582 78.537 24.5824 78.404C24.2254 78.252 23.8121 78.252 23.4363 78.404C23.0605 78.537 22.7599 78.8409 22.6283 79.2209C22.5532 79.4109 22.5156 79.6009 22.5156 79.7908C22.5156 80.1898 22.6847 80.5698 22.9478 80.8737C23.0793 81.0257 23.2484 81.1207 23.4363 81.1967Z" fill="#00C7C7"/>
<path d="M34.5024 28.8194C34.897 28.8194 35.2728 28.6674 35.5546 28.3825L43.0515 20.8023C43.6151 20.2134 43.6151 19.2635 43.0327 18.6745C42.4502 18.0856 41.5107 18.0856 40.9283 18.6555L33.4314 26.2167C32.9993 26.6537 32.8677 27.2996 33.112 27.8695C33.3563 28.4395 33.9011 28.8194 34.5024 28.8194Z" fill="#00C7C7"/>
<path d="M34.9349 40.5033C35.5173 41.0922 36.4756 41.0922 37.0581 40.5033L55.0581 22.3033C55.6217 21.7143 55.6217 20.7644 55.0393 20.1755C54.4568 19.5866 53.5173 19.5866 52.9349 20.1565L34.9349 38.3565C34.3524 38.9454 34.3524 39.9143 34.9349 40.5033Z" fill="#00C7C7"/>
<path d="M45.4388 45.0628C46.0212 45.6518 46.9795 45.6518 47.5619 45.0628L58.0651 34.443C58.6287 33.8541 58.6287 32.9042 58.0463 32.3152C57.4638 31.7263 56.5243 31.7263 55.9419 32.2962L45.4388 42.9161C44.8563 43.505 44.8563 44.4549 45.4388 45.0628Z" fill="#00C7C7"/>
<path d="M77.8497 14.4383L79.428 9.70776C79.6159 9.15682 79.4656 8.54889 79.0522 8.14993C78.9583 8.05494 71.593 0.854733 62.8184 3.72342C43.2965 -4.78765 20.5429 1.67164 8.27363 19.2257C-4.0145 36.7608 -2.4738 60.6032 11.9562 76.3904C11.975 76.4094 11.9938 76.4094 11.9938 76.4284V81.9188C11.9938 84.4266 14.0042 86.4783 16.5032 86.4783H25.428C25.4656 86.4973 25.5032 86.5353 25.5408 86.5543C38.1671 92.6716 52.8978 92.5007 65.3737 86.0984C65.3925 86.0984 65.3925 86.0794 65.4113 86.0604C67.1963 86.7633 69.2067 86.5353 70.8038 85.4714C72.4009 84.4076 73.3967 82.6407 73.4719 80.703C73.5282 80.684 73.5658 80.646 73.6222 80.608C83.1859 72.6288 89.0856 61.0211 89.8936 48.5015C90.7203 35.9819 86.3988 23.6902 77.9437 14.5142C77.9249 14.4763 77.8873 14.4573 77.8497 14.4383ZM18.4949 14.6662C20.7495 12.5005 24.4322 11.9685 26.6118 11.8355C25.9166 14.0013 24.5637 15.9011 22.7412 17.2309C20.9187 18.3898 18.7391 18.8078 16.6159 18.4468C16.7663 17.003 17.4427 15.6731 18.4949 14.6662ZM16.5032 21.5055C17.0481 21.5625 17.593 21.6005 18.1379 21.6005C20.355 21.6385 22.5345 20.9925 24.3946 19.7577C25.3905 19.0927 26.2736 18.2568 27.0063 17.3069V31.8403H16.5032V21.5055ZM16.5032 34.88H27.0063V40.9403H16.5032V34.88ZM16.5032 43.98H27.0063V47.0197H16.5032V43.98ZM13.4969 47.0197C12.6702 47.0197 11.9938 47.7036 11.9938 48.5395V55.6637C9.57003 47.6086 10.0961 38.9456 13.4969 31.2704V47.0197ZM13.4969 19.7197V25.0011C13.4406 25.0391 13.3842 25.0961 13.3466 25.1531C6.13163 36.6468 5.54917 51.1612 11.8247 63.1869C11.8811 63.2819 11.9374 63.3579 12.0126 63.4339V71.7549C-0.651246 55.5307 0.119104 32.4483 13.7976 17.098C13.5909 17.9529 13.4969 18.8268 13.4969 19.7197ZM28.4907 78.5562V81.8998C28.4907 82.7357 27.8143 83.4197 26.9875 83.4197H16.5032C15.6765 83.4197 15.0001 82.7357 15.0001 81.8998V50.0403H28.5095V78.5562H28.4907ZM28.5846 8.77686C26.7621 8.70087 24.9395 8.85285 23.1546 9.21381C33.9771 2.56454 47.2047 1.1967 59.1358 5.50922C57.9896 6.26914 56.9186 7.16204 55.9416 8.14993C55.6973 8.4159 55.547 8.75786 55.5095 9.11882C47.0731 6.68709 38.0543 7.25703 29.975 10.7527V10.2967C29.9938 9.49878 29.3738 8.83385 28.5846 8.77686ZM29.9938 14.0963C38.2986 10.0307 47.8623 9.51778 56.5429 12.6525L60.0188 23.1013L61.5032 36.4948V76.1625C52.2401 81.2539 41.1921 81.7858 31.4969 77.6253V48.5585C31.4969 47.7226 30.8205 47.0387 29.9938 47.0387V14.0963ZM45.0063 87.9602C39.9145 87.9602 34.8602 87.0293 30.0877 85.1865C30.9896 84.3316 31.4969 83.1347 31.4969 81.8998V80.8739C41.2485 84.6735 52.1274 84.1796 61.5032 79.5441V80.38C61.5032 81.6909 61.9353 82.9637 62.7057 83.9896C57.1629 86.6303 51.1128 87.9792 45.0063 87.9602ZM70.5032 80.38C70.5032 82.0518 69.1692 83.4197 67.4969 83.4197C65.8435 83.4197 64.4907 82.0708 64.4907 80.38V43.98H70.4844V80.38H70.5032ZM70.5032 40.9403H64.5094V37.9007H70.5032V40.9403ZM70.6535 34.88H64.3591L63.1942 24.2602H71.8372L70.6535 34.88ZM72.4197 21.2395H70.8414L71.9875 15.4831C72.1191 14.6852 71.593 13.9063 70.8038 13.7543C70.0147 13.6023 69.2255 14.0963 69.0564 14.8942L67.7975 21.2585H67.2527L65.9938 14.8942C65.8059 14.0963 65.0355 13.6023 64.2464 13.7543C63.4573 13.9063 62.9312 14.6852 63.0627 15.4831L64.2088 21.2395H62.5742L58.7224 9.66976C66.4635 2.64054 73.9792 7.80797 76.2527 9.70776L72.4197 21.2395ZM74.4865 27.3948C81.5136 39.0785 81.119 53.8209 73.4907 65.1057V36.4758L74.4865 27.3948ZM73.5094 76.6944V70.1401C84.7641 56.8416 85.5533 37.4827 75.4071 23.2913C75.2944 23.1583 75.1817 23.0253 75.0314 22.9303L76.76 17.7059C91.6034 35.051 90.1566 61.1541 73.5094 76.6944Z" fill="black"/>
</svg>
