<svg width="575.1" height="575.1" xmlns="http://www.w3.org/2000/svg">
 <style type="text/css">.st0{fill:#00C7C7;}
	.st1{fill:none;}</style>
 <g>
  <title>background</title>
  <rect fill="none" id="canvas_background" height="469.528" width="469.528" y="-1" x="-1"/>
 </g>
 <g>
  <title>Layer 1</title>
  <path id="svg_1" d="m192.6,40c-17.7,0 -32,-14.3 -32,-32c0,-4.4 -3.6,-8 -8,-8c-4.4,0 -8,3.6 -8,8c0,17.7 -14.3,32 -32,32c-4.4,0 -8,3.6 -8,8s3.6,8 8,8c17.7,0 32,14.3 32,32c0,4.4 3.6,8 8,8c4.4,0 8,-3.6 8,-8c0,-17.7 14.3,-32 32,-32c4.4,0 8,-3.6 8,-8s-3.6,-8 -8,-8zm-40,21.5c-3.6,-5.4 -8.2,-10 -13.5,-13.5c5.4,-3.6 10,-8.2 13.5,-13.5c3.6,5.4 8.2,10 13.5,13.5c-5.3,3.6 -9.9,8.2 -13.5,13.5z" class="st0"/>
  <path id="svg_2" d="m56.6,116c11,0 20,9 20,20c0,4.4 3.6,8 8,8s8,-3.6 8,-8c0,-11 9,-20 20,-20c4.4,0 8,-3.6 8,-8s-3.6,-8 -8,-8c-11,0 -20,-9 -20,-20c0,-4.4 -3.6,-8 -8,-8s-8,3.6 -8,8c0,11 -9,20 -20,20c-4.4,0 -8,3.6 -8,8s3.6,8 8,8zm28,-13.6c1.7,2.1 3.6,4 5.6,5.6c-2.1,1.7 -4,3.6 -5.6,5.6c-1.7,-2.1 -3.6,-4 -5.6,-5.6c2,-1.7 3.9,-3.6 5.6,-5.6z" class="st0"/>
  <path id="svg_3" d="m360.6,539l112,0l0,-95l-112,0l0,95zm48,-16l-24,0c-4.4,0 -8,-3.6 -8,-8c0,-4.4 3.6,-8 8,-8l24,0c4.4,0 8,3.6 8,8c0,4.4 -3.6,8 -8,8zm-24,-48l48,0c4.4,0 8,3.6 8,8c0,4.4 -3.6,8 -8,8l-48,0c-4.4,0 -8,-3.6 -8,-8c0,-4.4 3.6,-8 8,-8z" class="st1"/>
  <path id="svg_4" d="m232.6,539l112,0l0,-95l-112,0l0,95zm80,-24c0,4.4 -3.6,8 -8,8l-48,0c-4.4,0 -8,-3.6 -8,-8c0,-4.4 3.6,-8 8,-8l48,0c4.4,0 8,3.6 8,8zm-56,-40l32,0c4.4,0 8,3.6 8,8c0,4.4 -3.6,8 -8,8l-32,0c-4.4,0 -8,-3.6 -8,-8c0,-4.4 3.6,-8 8,-8z" class="st1"/>
  <path id="svg_5" d="m104.6,539l112,0l0,-95l-112,0l0,95zm48,-16l-24,0c-4.4,0 -8,-3.6 -8,-8c0,-4.4 3.6,-8 8,-8l24,0c4.4,0 8,3.6 8,8c0,4.4 -3.6,8 -8,8zm-24,-48l48,0c4.4,0 8,3.6 8,8c0,4.4 -3.6,8 -8,8l-48,0c-4.4,0 -8,-3.6 -8,-8c0,-4.4 3.6,-8 8,-8z" class="st1"/>
  <path id="svg_6" d="m152.6,507l-24,0c-4.4,0 -8,3.6 -8,8c0,4.4 3.6,8 8,8l24,0c4.4,0 8,-3.6 8,-8c0,-4.4 -3.6,-8 -8,-8z" class="st0"/>
  <path id="svg_7" d="m128.6,491l48,0c4.4,0 8,-3.6 8,-8c0,-4.4 -3.6,-8 -8,-8l-48,0c-4.4,0 -8,3.6 -8,8c0,4.4 3.6,8 8,8z" class="st0"/>
  <path id="svg_8" d="m256.6,491l32,0c4.4,0 8,-3.6 8,-8c0,-4.4 -3.6,-8 -8,-8l-32,0c-4.4,0 -8,3.6 -8,8c0,4.4 3.6,8 8,8z" class="st0"/>
  <path id="svg_9" d="m248.6,515c0,4.4 3.6,8 8,8l48,0c4.4,0 8,-3.6 8,-8c0,-4.4 -3.6,-8 -8,-8l-48,0c-4.4,0 -8,3.6 -8,8z" class="st0"/>
  <path id="svg_10" d="m384.6,491l48,0c4.4,0 8,-3.6 8,-8c0,-4.4 -3.6,-8 -8,-8l-48,0c-4.4,0 -8,3.6 -8,8c0,4.4 3.6,8 8,8z" class="st0"/>
  <path id="svg_11" d="m408.6,507l-24,0c-4.4,0 -8,3.6 -8,8c0,4.4 3.6,8 8,8l24,0c4.4,0 8,-3.6 8,-8c0,-4.4 -3.6,-8 -8,-8z" class="st0"/>
  <path id="svg_12" d="m456.6,253.3l0,-28.3c0,-13.3 -10.7,-24 -24,-24l-32,0c-13.3,0 -24,10.7 -24,24l0,28.3c-7.1,4.8 -13.3,10.8 -18.3,17.7c-0.1,-0.3 -0.2,-0.7 -0.3,-1l0,-58.9c0,-4.7 -0.8,-9.4 -2.6,-13.7c-5.4,-13.4 -14.7,-24.9 -26.8,-33l0,-28.4c0,-13.3 -10.8,-24 -24,-24l-32,0c-13.3,0 -24,10.8 -24,24l0,28.3c-13.4,9 -23.5,22.3 -28.5,37.6c-0.8,2.6 -1.2,5.3 -1.2,8c0,18 -0.1,11.3 -0.1,11.3c-5,-6.9 -11.1,-12.9 -18.2,-17.5l0,-28.3c0,-13.3 -10.7,-24 -24,-24l-32,0c-13.3,0 -24,10.7 -24,24l0,28.3c-19.9,13.4 -31.9,35.7 -32,59.7l0,283.6c0,4.4 3.6,8 8,8l384,0c4.4,0 8,-3.6 8,-8l0,-234c0.1,-24 -12,-46.5 -32,-59.7zm-320,-78c0,-4.4 3.6,-8 8,-8l32,0c2.2,0 4.2,0.9 5.6,2.3s2.4,3.5 2.4,5.7l0,86.4c0,9.5 -11,17.6 -24,17.6c-6.5,0 -12.5,-2 -16.9,-5.2c-4.4,-3.2 -7.1,-7.6 -7.1,-12.4l0,-86.4zm80,363.7l-112,0l0,-275.7c0,-14.6 5.8,-28.7 16,-39.1l0,37.5c0,18.5 17.9,33.6 40,33.6c22.1,0 40,-15.1 40,-33.6l0,-37.5c10.2,10.5 16,24.5 16,39.1l0,275.7zm48,-403c0,-4.4 3.6,-8 8,-8l32,0c4.4,0 8,3.6 8,8l0,86.4c0,9.5 -11,17.6 -24,17.6s-24,-8.1 -24,-17.6l0,-86.4zm80,403l-112,0l0,-315c0,-14.6 5.8,-28.7 16,-39.1l0,37.5c0,18.5 17.9,33.6 40,33.6c22.1,0 40,-15.1 40,-33.6l0,-37.5c10.2,10.4 16,24.5 16,39.1l0,315zm48,-314c0,-4.4 3.6,-8 8,-8l32,0c4.4,0 8,3.6 8,8l0,86.4c0,9.5 -11,17.6 -24,17.6s-24,-8.1 -24,-17.6l0,-86.4zm80,314l-112,0l0,-226c0,-14.6 5.8,-28.7 16,-39.1l0,37.5c0,18.5 17.9,33.6 40,33.6c22.1,0 40,-15.1 40,-33.6l0,-37.6c10.3,10.4 16,24.5 16,39.2l0,226z"/>
 </g>
</svg>