<svg width="87" height="97" viewBox="0 0 87 97" fill="none" xmlns="http://www.w3.org/2000/svg">
<path d="M82.2 45.5V43.1C82.2 39.9 79.7 37.2 76.5 37.2H69.5C66.3 37.2 63.7 39.8 63.7 43.1V45.5C63.5 45.8 63.0999 46.2 62.8999 46.5V24.5C62.8999 19.9 60.9 15.4 57.7 12.1V8.6C57.7 4.5 54.3 1 50.2 1H40.5999C36.4999 1 33.2 4.4 33.2 8.6V12.2C29.9 15.4 28 19.9 28 24.5V30.1C27.5 29.4 26.9999 28.8 26.3999 28.3V25.4C26.3999 21.8 23.5 18.8 19.9 18.8H11.8C8.2 18.8 5.3 21.8 5.2 25.4V28.3C2.5 31.1 1 34.9 1 38.8V95C1 95.8 1.6 96.4 2.4 96.4C3.2 96.4 3.8 95.8 3.8 95V38.9C3.8 36.9 4.2 34.8 5.2 33.1V41.1C5.3 46.9 10.1 51.6 15.9 51.5C21.6 51.4 26.3 46.7 26.3 41V32.9C27.3 34.7 27.8999 36.7 27.8999 38.8V95C27.8999 95.8 28.5 96.4 29.3 96.4C30.1 96.4 30.7 95.8 30.7 95V24.6C30.7 21.8 31.4999 19.1 33.0999 16.7V27.2C33.0999 34 38.5999 39.5 45.3999 39.5C52.1999 39.5 57.7 34 57.7 27.2V16.6C59.1 18.9 60.1 21.7 60.1 24.6V95C60.1 95.8 60.6999 96.4 61.4999 96.4C62.2999 96.4 62.8999 95.8 62.8999 95V54.6C62.8999 53.1 63.1 51.7 63.7 50.4V56.5C63.5 61.6 67.5 65.9 72.6 66.2C77.7 66.4 82.1 62.4 82.3 57.3C82.3 57 82.3 56.8 82.3 56.5V50.4C83.1 51.7 83.3 53.2 83.3 54.7V95.1C83.3 95.9 83.9 96.5 84.7 96.5C85.5 96.5 86.1 95.9 86.1 95.1V54.6C86 51.2 84.7 47.9 82.2 45.5ZM23.5999 41C23.5999 45.3 20.1 48.8 15.8 48.8C11.5 48.8 8 45.3 8 41V25.5C8 23.4 9.7 21.7 11.8 21.7H19.9C21.9 21.7 23.5 23.5 23.5 25.5L23.5999 41ZM54.8999 27.1C54.9999 32.3 50.7999 36.6 45.5999 36.7C40.3999 36.8 36.1 32.6 36 27.4C36 27.3 36 27.2 36 27.1V8.7C36 6.1 37.9999 3.9 40.5999 3.9H50.2C52.8 3.9 54.8999 6.1 54.8999 8.7V27.1ZM79.4 56.5C79.3 60.1 76.4 62.9 72.8 62.9C69.3 62.8 66.5 60 66.4 56.5V43.1C66.4 41.4 67.8 40.1 69.5 40H76.5C78.2 40 79.4 41.4 79.4 43.1V56.5Z" fill="black" stroke="black" stroke-miterlimit="10"/>
<path d="M24.0004 77.2998H8.30039C7.50039 77.2998 6.90039 77.8998 6.90039 78.6998C6.90039 79.4998 7.50039 80.0998 8.30039 80.0998H24.1004C24.9004 80.0998 25.5004 79.4998 25.5004 78.6998C25.4004 77.8998 24.8004 77.2998 24.0004 77.2998Z" fill="#00C5C5"/>
<path d="M23.9997 73.0996H13.9997C13.1997 73.0996 12.5996 73.6996 12.5996 74.4996C12.5996 75.2996 13.1997 75.8996 13.9997 75.8996H23.9997C24.7997 75.8996 25.3996 75.2996 25.3996 74.4996C25.3996 73.6996 24.7997 73.0996 23.9997 73.0996Z" fill="#00C5C5"/>
<path d="M18.2004 81.5H8.30039C7.50039 81.5 6.90039 82.1 6.90039 82.9C6.90039 83.7 7.50039 84.3 8.30039 84.3H18.3004C19.1004 84.3 19.7004 83.7 19.7004 82.9C19.6004 82.1 19.0004 81.5 18.2004 81.5Z" fill="#00C5C5"/>
<path d="M54.2992 66.2998H36.5992C35.7992 66.2998 35.1992 66.8998 35.1992 67.6998C35.1992 68.4998 35.7992 69.0998 36.5992 69.0998H54.2992C55.0992 69.0998 55.6992 68.4998 55.6992 67.6998C55.6992 66.8998 55.0992 66.2998 54.2992 66.2998Z" fill="#00C5C5"/>
<path d="M48.4997 64.8996C49.2997 64.8996 49.8996 64.2996 49.8996 63.4996C49.8996 62.6996 49.2997 62.0996 48.4997 62.0996H40.4997C39.6997 62.0996 39.0996 62.6996 39.0996 63.4996C39.0996 64.2996 39.6997 64.8996 40.4997 64.8996H48.4997Z" fill="#00C5C5"/>
<path d="M54.3004 70.5H42.3004C41.5004 70.5 40.9004 71.1 40.9004 71.9C40.9004 72.7 41.5004 73.3 42.3004 73.3H54.3004C55.1004 73.3 55.7004 72.7 55.7004 71.9C55.7004 71.1 55.1004 70.5 54.3004 70.5Z" fill="#00C5C5"/>
<path d="M80.1996 88.2998H66.4996C65.6996 88.2998 65.0996 88.8998 65.0996 89.6998C65.0996 90.4998 65.6996 91.0998 66.4996 91.0998H80.2996C81.0996 91.0998 81.6996 90.4998 81.6996 89.6998C81.6996 88.8998 80.9996 88.2998 80.1996 88.2998Z" fill="#00C5C5"/>
<path d="M76.3004 86.8996C77.1004 86.8996 77.7004 86.2996 77.7004 85.4996C77.7004 84.6996 77.1004 84.0996 76.3004 84.0996H72.3004C71.5004 84.0996 70.9004 84.6996 70.9004 85.4996C70.9004 86.2996 71.5004 86.8996 72.3004 86.8996H76.3004Z" fill="#00C5C5"/>
<path d="M74.4996 92.5H66.4996C65.6996 92.5 65.0996 93.1 65.0996 93.9C65.0996 94.7 65.6996 95.3 66.4996 95.3H74.4996C75.2996 95.3 75.8996 94.7 75.8996 93.9C75.8996 93.1 75.1996 92.5 74.4996 92.5Z" fill="#00C5C5"/>
</svg>
