<?xml version="1.0" encoding="utf-8"?>
<!-- Generator: Adobe Illustrator 24.0.1, SVG Export Plug-In . SVG Version: 6.00 Build 0)  -->
<svg version="1.1" id="Слой_1" xmlns="http://www.w3.org/2000/svg" xmlns:xlink="http://www.w3.org/1999/xlink" x="0px" y="0px"
	 viewBox="0 0 496 496" style="enable-background:new 0 0 496 496;" xml:space="preserve">
<style type="text/css">
	.st0{fill:#00C7C7;}
</style>
<path d="M492.1,1.1c-2.4-1.4-5.4-1.5-7.9-0.2L368,62.9L251.8,1c-2.4-1.3-5.2-1.3-7.5,0L128,62.9L11.8,1C9.3-0.4,6.3-0.3,3.9,1.1
	C1.5,2.6,0,5.2,0,8v416c0,3,1.6,5.7,4.2,7l120,64c1.2,0.6,2.5,1,3.8,1s2.6-0.3,3.8-1l92.2-49.2V472c0,13.2,10.8,24,24,24h192
	c13.2,0,24-10.8,24-24v-26.1l27.8-14.8c2.6-1.4,4.2-4.1,4.2-7V8C496,5.2,494.5,2.6,492.1,1.1z M16,21.3L124.2,79
	c2.4,1.3,5.2,1.3,7.5,0l51.9-27.6l-7,17.6c-0.2,0.5-0.3,0.9-0.4,1.4l-8,40c-0.2,1-0.2,2.1,0,3.2l7.3,36.5l-39.1,52.1l-9-13.4
	l-7.7-30.7c-0.9-3.5-4.1-6-7.8-6H80c-1.6,0-3.1,0.5-4.4,1.3l-17.3,11.6l-11.6-17.3c-0.5-0.8-1.1-1.4-1.9-2L16,124V21.3z M96,461.9
	l-80-42.7V213l20.4,10.2c1.7,0.8,3.7,1.1,5.5,0.6l22.1-5.5V240c0,2.5,1.1,4.8,3.1,6.3c1.9,1.5,4.5,2,6.9,1.5l28.6-7.1l18.8,12.5
	l6.7,20.2v28.5L107.5,336H80c-1.6,0-3.1,0.5-4.4,1.3l-24,16c-2.8,1.9-4.2,5.3-3.3,8.6l7.8,31v7c0,3.7,2.5,6.9,6.1,7.8l27.7,6.9
	l6.2,18.6V461.9z M480,419.2l-16,8.5V152c0-13.2-10.8-24-24-24H320c0,0,0.1,9.6-1.3,16H440c4.4,0,8,3.6,8,8v320c0,4.4-3.6,8-8,8H248
	c-4.4,0-8-3.6-8-8V202.4l-16-24v249.3l-96,51.2l-16-8.5V432c0-0.9-0.1-1.7-0.4-2.5l-8-24c-0.9-2.6-3-4.6-5.7-5.2L72,393.8V392
	c0-0.7-0.1-1.3-0.2-2l-6.6-26.5L82.4,352H112c2.8,0,5.4-1.5,6.9-3.9l24-40c0.8-1.2,1.1-2.7,1.1-4.1v-32c0-0.9-0.1-1.7-0.4-2.5l-8-24
	c-0.6-1.7-1.7-3.1-3.2-4.1l-24-16c-1.9-1.2-4.2-1.6-6.4-1.1l-22,5.5V208c0-2.5-1.1-4.8-3.1-6.3c-1.9-1.5-4.5-2.1-6.9-1.5l-29.1,7.3
	L16,195v-51l18.1,13.6l15.2,22.9c2.4,3.7,7.4,4.7,11.1,2.2l22-14.7h23.3l6.5,26c0.2,0.9,0.6,1.7,1.1,2.5l16,24
	c1.4,2.2,3.8,3.5,6.4,3.6h0.2c2.5,0,4.9-1.2,6.4-3.2l48-64c1.4-1.8,1.9-4.1,1.5-6.4l-7.7-38.4l7.5-37.7l13.8-34.6L248,17.1l116.2,62
	c2.4,1.3,5.2,1.3,7.5,0L480,21.3V419.2z M305.6,176H416v224H272V226.4l-8,9.7l-8-9.7V408c0,4.4,3.6,8,8,8h160c4.4,0,8-3.6,8-8V168
	c0-4.4-3.6-8-8-8H314C314,160,310,169.4,305.6,176z M318.7,144l-4.6,15.8c0,0,0,0.1,0,0.1L318.7,144z"/>
<path class="st0" d="M264,104c-13.2,0-24,10.8-24,24s10.8,24,24,24s24-10.8,24-24S277.2,104,264,104z M264,136c-4.4,0-8-3.6-8-8
	c0-4.4,3.6-8,8-8s8,3.6,8,8C272,132.4,268.4,136,264,136z"/>
<path d="M344,424c-13.2,0-24,10.8-24,24s10.8,24,24,24s24-10.8,24-24S357.2,424,344,424z M344,456c-4.4,0-8-3.6-8-8c0-4.4,3.6-8,8-8
	s8,3.6,8,8C352,452.4,348.4,456,344,456z"/>
<path class="st0" d="M328,256h-40v16h32v80h-32v16h40c4.4,0,8-3.6,8-8v-96C336,259.6,332.4,256,328,256z"/>
<path class="st0" d="M320,224h-32v16h40c4.4,0,8-3.6,8-8v-40h-16V224z"/>
<path class="st0" d="M368,192h-16v40c0,4.4,3.6,8,8,8h40v-16h-32V192z"/>
<path class="st0" d="M352,264v32c0,4.4,3.6,8,8,8h40v-16h-32v-16h32v-16h-40C355.6,256,352,259.6,352,264z"/>
<path class="st0" d="M352,328v40h16v-32h32v-16h-40C355.6,320,352,323.6,352,328z"/>
<path class="st0" d="M152,400c-13.2,0-24,10.8-24,24s10.8,24,24,24s24-10.8,24-24S165.2,400,152,400z M152,432c-4.4,0-8-3.6-8-8
	c0-4.4,3.6-8,8-8s8,3.6,8,8C160,428.4,156.4,432,152,432z"/>
<path class="st0" d="M176,320c-17.6,0-32,14.4-32,32s14.4,32,32,32s32-14.4,32-32S193.6,320,176,320z M176,368c-8.8,0-16-7.2-16-16
	s7.2-16,16-16s16,7.2,16,16S184.8,368,176,368z"/>
<path class="st0" d="M320,128c0-16-6.8-31.2-18.8-41.9c-11.9-10.6-27.9-15.6-44-13.7c-28.1,3.3-49.2,28.1-49.2,57.8
	c0,15.8,4.7,31.2,13.4,44.4l2.6,3.8l32,48l5.7,8.4c1.1,1.7,3.6,1.7,4.7,0l5.7-8.4l33.6-50.4c4.4-6.6,8.4-16,8.4-16s0,0,0-0.1
	c0.4-1.1,3.3-9.9,4.6-15.9C320.1,137.6,320,128,320,128z M304,130.2c0,12.7-3.7,25-10.8,35.5L264,209.6l-29.2-43.9
	c-7-10.5-10.8-22.8-10.8-35.7c0-21.1,15.4-39.4,35.1-41.7c1.7-0.2,3.3-0.3,4.9-0.3c9.8,0,19.1,3.5,26.5,10.1
	c8.5,7.6,13.4,18.5,13.4,29.9V130.2z"/>
</svg>
