<svg width="79" height="91" viewBox="0 0 79 91" fill="none" xmlns="http://www.w3.org/2000/svg">
<path d="M57.4319 16.1335C57.6594 11.3181 58.1903 6.50271 59.0244 1.74417L59.2898 0H20.994L21.2026 1.68729C21.7334 6.42687 21.7903 11.2233 21.3353 15.9819C17.6953 23.4704 14.3776 30.7504 13.6192 37.6702C11.9509 52.8937 14.0932 69.4633 16.6526 86.5069L16.8042 87.5117L17.7901 87.7581C23.3069 89.2179 28.9376 90.2417 34.6061 90.8294L36.0659 90.981L36.2555 89.5212C36.9948 82.5256 37.2982 75.4921 37.1655 68.4396C37.1844 62.335 37.1844 56.5337 37.6963 51.4529H41.033C41.5259 56.5337 41.5448 62.316 41.5638 68.4396C41.4121 75.4731 41.7155 82.5256 42.4548 89.5212L42.6444 90.981L44.1042 90.8294C49.7728 90.2417 55.4034 89.2179 60.9013 87.7581L61.8871 87.5117L62.0388 86.5069C64.5982 69.4633 66.7405 52.8937 65.0721 37.6702C64.3328 30.8262 61.034 23.5841 57.4319 16.1335ZM24.0463 17.3279C24.8426 15.6785 24.7478 7.79187 24.3496 3.03333H55.7636C53.8867 15.7923 54.4365 16.8919 54.6451 17.3279C56.7684 21.5366 58.6453 25.8591 60.2378 30.2954H18.4536C20.0461 25.8781 21.923 21.5366 24.0463 17.3279ZM34.1132 68.4775C34.2269 74.8854 33.9805 81.2933 33.4117 87.6823C28.7101 87.1325 24.0653 86.2604 19.4773 85.1039C17.0128 68.6102 15.0032 52.6094 16.5957 38.0494C16.7473 36.855 16.9559 35.6606 17.2403 34.4852L34.7198 50.6187C34.2269 56.5337 34.0184 62.5056 34.1132 68.4775ZM41.7723 48.4764H36.9001L20.5011 33.3287H58.1713L41.7723 48.4764ZM59.1951 85.1039C54.6071 86.2794 49.9623 87.1325 45.2607 87.6823C44.6919 81.2933 44.4644 74.8854 44.5592 68.4585C44.654 62.4867 44.4455 56.5148 43.9336 50.5808L61.4132 34.4473C61.6976 35.6227 61.9061 36.8171 62.0578 38.0114C63.6692 52.6094 61.6596 68.6102 59.1951 85.1039Z" fill="black"/>
<path d="M39.3448 18.1807C38.5106 18.1807 37.8281 18.8632 37.8281 19.6974V22.7307C37.8281 23.5649 38.5106 24.2474 39.3448 24.2474C40.1789 24.2474 40.8614 23.5649 40.8614 22.7307V19.6974C40.8614 18.8632 40.1789 18.1807 39.3448 18.1807Z" fill="black"/>
<path d="M14.1311 21.1009C14.207 21.0819 14.2828 21.044 14.3397 21.0061C14.3965 20.9682 14.4534 20.9492 14.4913 20.9113C14.5482 20.8544 14.6051 20.8165 14.662 20.7596C14.6999 20.7217 14.7568 20.6648 14.7947 20.6269C14.8705 20.5132 14.9274 20.3994 15.0032 20.2857L18.0365 12.7213C18.3399 11.944 17.9607 11.0719 17.1834 10.7496C16.4061 10.4463 15.534 10.8255 15.2118 11.6027L13.0315 17.0438L2.56651 6.52188C1.9788 5.95313 1.03088 5.95313 0.443182 6.54084C-0.144528 7.12855 -0.144528 8.05751 0.424222 8.66417L10.4532 18.6932L4.27277 19.7169C3.49547 19.8496 2.94568 20.5511 3.02151 21.3284C3.07839 22.1057 3.74193 22.7123 4.51917 22.7123C4.59507 22.7123 4.68987 22.7123 4.76567 22.6934L13.8468 21.1767C13.8847 21.1957 14.0743 21.1388 14.1311 21.1009Z" fill="#00C7C7"/>
<path d="M76.1247 6.52162L65.6407 17.0056L63.4605 11.5645C63.1572 10.7872 62.2662 10.4081 61.4889 10.7114C60.7116 11.0147 60.3324 11.9058 60.6357 12.6831L63.6691 20.2474C63.726 20.3612 63.8018 20.4749 63.8776 20.5887C63.9155 20.6456 63.9535 20.6835 64.0103 20.7214C64.0672 20.7783 64.1241 20.8351 64.181 20.8731C64.2378 20.911 64.2757 20.9489 64.3326 20.9679C64.4085 21.0058 64.4653 21.0437 64.5412 21.0626C64.598 21.0816 64.7876 21.1385 64.8255 21.1574L73.9066 22.6741C73.9824 22.6931 74.0772 22.6931 74.153 22.6931C74.9303 22.6931 75.5939 22.0864 75.6507 21.3091C75.7076 20.5318 75.1768 19.8304 74.3995 19.6976L68.2191 18.6739L78.248 8.64495C78.6462 8.26579 78.7978 7.69704 78.6651 7.1662C78.5324 6.63537 78.1153 6.21829 77.5845 6.08558C77.0726 5.97183 76.5039 6.12349 76.1247 6.52162Z" fill="#00C7C7"/>
<path d="M21.1837 72.7055H21.3164C22.1506 72.6297 22.7572 71.8903 22.6814 71.0561C21.2027 54.6761 21.1837 45.5382 21.1837 45.4434C21.1837 44.6093 20.5012 43.9268 19.667 43.9268C18.8329 43.9268 18.1504 44.6093 18.1504 45.4434C18.1504 45.5382 18.1693 54.7899 19.667 71.3216C19.7429 72.0988 20.3875 72.7055 21.1837 72.7055Z" fill="black"/>
</svg>
