<svg width="480" height="480.00003" xmlns="http://www.w3.org/2000/svg">

 <g>
  <title>background</title>
  <rect fill="none" id="canvas_background" height="469.528" width="469.528" y="-1" x="-1"/>
 </g>
 <g>
  <title>Layer 1</title>
  <path id="svg_1" d="m352,0c-20.484375,0.007813 -40.421875,6.613281 -56.863281,18.832031l-151.824219,13.167969c-4.148438,0.359375 -7.328125,3.835938 -7.3125,8l0,96c-0.015625,4.164062 3.164062,7.640625 7.3125,8l133.550781,11.617188c7.507813,9.417968 16.710938,17.351562 27.136719,23.390624l0,172.992188c0,4.417969 3.582031,8 8,8l0,24c0,4.417969 3.582031,8 8,8l8,0l0,40l-88,0l0,-136c-0.027344,-22.082031 -17.917969,-39.972656 -40,-40l-96,0c-22.082031,0.027344 -39.972656,17.917969 -40,40l0,160c0,13.253906 10.746094,24 24,24s24,-10.746094 24,-24l0,-152l80,0l0,136c0.027344,22.082031 17.917969,39.972656 40,40l104,0c22.082031,-0.027344 39.972656,-17.917969 40,-40l0,-48l8,0c4.417969,0 8,-3.582031 8,-8l0,-24c4.417969,0 8,-3.582031 8,-8l0,-172.992188c37.625,-21.703124 55.96875,-65.976562 44.71875,-107.929687s-49.285156,-71.109375 -92.71875,-71.078125zm-184,130.054688l-16,-1.390626l0,-81.328124l16,-1.390626l0,84.109376zm16,1.394531l0,-86.898438l92.800781,-8.070312c-23.175781,29.03125 -27.363281,68.886719 -10.730469,102.105469l-82.070312,-7.136719zm176,308.550781c0,13.253906 -10.746094,24 -24,24l-104,0c-13.253906,0 -24,-10.746094 -24,-24l0,-144c0,-4.417969 -3.582031,-8 -8,-8l-96,0c-4.417969,0 -8,3.582031 -8,8l0,160c0,4.417969 -3.582031,8 -8,8s-8,-3.582031 -8,-8l0,-160c0,-13.253906 10.746094,-24 24,-24l96,0c13.253906,0 24,10.746094 24,24l0,144c0,4.417969 3.582031,8 8,8l104,0c4.417969,0 8,-3.582031 8,-8l0,-48l16,0l0,48zm16,-64l-48,0l0,-16l48,0l0,16zm8,-32l-64,0l0,-157.601562c20.679688,7.46875 43.320312,7.46875 64,0l0,157.601562zm-32,-168c-44.183594,0 -80,-35.816406 -80,-80s35.816406,-80 80,-80s80,35.816406 80,80c-0.046875,44.164062 -35.835938,79.953125 -80,80zm0,0"/>
  <path id="svg_2" d="m352,32c-35.347656,0 -64,28.652344 -64,64s28.652344,64 64,64s64,-28.652344 64,-64c-0.039062,-35.328125 -28.671875,-63.960938 -64,-64zm0,112c-26.507812,0 -48,-21.492188 -48,-48s21.492188,-48 48,-48s48,21.492188 48,48c-0.027344,26.5 -21.5,47.972656 -48,48zm0,0"/>
  <path fill="#00c7c7" id="svg_3" d="m368,72l-32,0c-4.417969,0 -8,3.582031 -8,8s3.582031,8 8,8l32,0c4.417969,0 8,-3.582031 8,-8s-3.582031,-8 -8,-8zm0,0"/>
  <path fill="#00c7c7" id="svg_4" d="m368,104l-32,0c-4.417969,0 -8,3.582031 -8,8s3.582031,8 8,8l32,0c4.417969,0 8,-3.582031 8,-8s-3.582031,-8 -8,-8zm0,0"/>
  <path fill="#00c7c7" id="svg_5" d="m8,48c16.871094,-0.378906 33.675781,2.210938 49.648438,7.648438c17.496093,5.90625 35.886718,8.730468 54.351562,8.351562c4.417969,0 8,-3.582031 8,-8s-3.582031,-8 -8,-8c-16.871094,0.378906 -33.675781,-2.210938 -49.648438,-7.648438c-17.496093,-5.90625 -35.886718,-8.730468 -54.351562,-8.351562c-4.417969,0 -8,3.582031 -8,8s3.582031,8 8,8zm0,0"/>
  <path fill="#00c7c7" id="svg_6" d="m8,80c16.871094,-0.378906 33.675781,2.210938 49.648438,7.648438c17.496093,5.90625 35.886718,8.730468 54.351562,8.351562c4.417969,0 8,-3.582031 8,-8s-3.582031,-8 -8,-8c-16.871094,0.378906 -33.675781,-2.210938 -49.648438,-7.648438c-17.496093,-5.90625 -35.886718,-8.730468 -54.351562,-8.351562c-4.417969,0 -8,3.582031 -8,8s3.582031,8 8,8zm0,0"/>
  <path fill="#00c7c7" id="svg_7" d="m112,128c4.417969,0 8,-3.582031 8,-8s-3.582031,-8 -8,-8c-16.871094,0.378906 -33.675781,-2.210938 -49.648438,-7.648438c-17.496093,-5.90625 -35.886718,-8.730468 -54.351562,-8.351562c-4.417969,0 -8,3.582031 -8,8s3.582031,8 8,8c16.871094,-0.378906 33.675781,2.210938 49.648438,7.648438c17.496093,5.90625 35.886718,8.730468 54.351562,8.351562zm0,0"/>
  <path fill="#00c7c7" id="svg_8" d="m352,280c0,4.417969 3.582031,8 8,8s8,-3.582031 8,-8l0,-64c0,-4.417969 -3.582031,-8 -8,-8s-8,3.582031 -8,8l0,64zm0,0"/>
  <path fill="#00c7c7" id="svg_9" d="m360,304c-4.417969,0 -8,3.582031 -8,8l0,8c0,4.417969 3.582031,8 8,8s8,-3.582031 8,-8l0,-8c0,-4.417969 -3.582031,-8 -8,-8zm0,0"/>
 </g>
</svg>