<svg width="91" height="81" viewBox="0 0 91 81" fill="none" xmlns="http://www.w3.org/2000/svg">
<path d="M16.0191 29.1851L8.01872 37.1855C7.62062 37.5647 7.46892 38.1334 7.60162 38.6642C7.73432 39.1951 8.15142 39.6122 8.68222 39.7449C9.21312 39.8776 9.78182 39.7259 10.161 39.3278L18.4268 31.0619C19.1283 31.5738 19.8487 32.0667 20.607 32.5596L13.9147 41.9251C13.5735 42.3611 13.4977 42.9488 13.7252 43.4607C13.9527 43.9726 14.4266 44.3138 14.9954 44.3707C15.5452 44.4086 16.076 44.1621 16.3983 43.6882L23.2043 34.1711C23.9437 34.6071 24.721 35.0242 25.5172 35.4224L19.8866 46.7026C19.5075 47.4609 19.8108 48.3709 20.5691 48.7311C21.3274 49.1103 22.2374 48.8069 22.5977 48.0486L28.2662 36.7115C29.4037 37.2044 30.5791 37.6405 31.8114 38.0576L25.9154 51.3094C25.5741 52.0678 25.9154 52.9778 26.6927 53.319C26.8822 53.4138 27.0908 53.4517 27.3183 53.4517C27.925 53.4517 28.4558 53.0915 28.7022 52.5417L34.7689 38.9107C36.3045 39.2899 37.8591 39.5932 39.4137 39.8017L36.4372 54.6651C36.2666 55.4803 36.7974 56.2955 37.6127 56.4472C37.7074 56.4661 37.8212 56.4851 37.916 56.4851C38.6364 56.4851 39.262 55.9732 39.3947 55.2717L42.4281 40.1051C42.4281 40.0861 42.4281 40.0861 42.4281 40.0671C43.1106 40.1051 43.812 40.143 44.4945 40.143C44.8358 40.143 45.177 40.124 45.4993 40.1051L46.997 56.6178C47.0729 57.3951 47.7174 58.0017 48.5137 58.0017H48.6464C49.0445 57.9638 49.4237 57.7742 49.6702 57.4709C49.9166 57.1676 50.0493 56.7505 50.0114 56.3524L48.5137 39.9155C50.1062 39.7449 51.6797 39.4984 53.2533 39.1382L57.6706 52.409C57.936 53.2053 58.7891 53.6413 59.5854 53.3759C60.3816 53.1105 60.8177 52.2574 60.5522 51.4611L56.1918 38.3799C57.8602 37.8869 59.5095 37.2803 61.121 36.5978L66.8464 48.0486C67.2256 48.8069 68.1356 49.1103 68.8749 48.7311C69.6143 48.3519 69.9366 47.4419 69.5574 46.7026L63.8699 35.3465C65.0074 34.7778 66.1449 34.1522 67.2635 33.4886L73.0647 40.7496C73.5956 41.3942 74.5435 41.508 75.1881 40.9961C75.8327 40.4653 75.9464 39.5174 75.4156 38.8538L69.9177 31.8582C71.1879 31.024 72.4581 30.1519 73.7283 29.204L77.7854 33.2611C78.3731 33.8299 79.321 33.8299 79.9087 33.2421C80.4964 32.6544 80.4964 31.7065 79.9277 31.1188L76.136 27.3272C78.5247 25.3744 80.7997 23.308 82.961 21.1467C83.5487 20.559 83.5487 19.5922 82.961 19.0044C69.4437 5.44921 55.5283 -0.901802 41.6508 0.102988C21.1947 1.6007 8.41682 18.4357 7.88602 19.1561C7.48792 19.6869 7.48792 20.4453 7.88602 20.9761C10.2747 24.0094 13.0047 26.7584 16.0191 29.1851ZM41.8972 3.13633C54.5045 2.22633 67.2066 7.93281 79.7381 20.0661C67.2066 32.1994 54.5045 37.9059 41.8972 36.9959C25.4604 35.8205 13.9716 23.5355 11.052 20.0661C13.9906 16.5967 25.4604 4.31174 41.8972 3.13633Z" fill="black"/>
<path d="M45.4991 33.7164C46.3333 33.7164 47.0158 33.0339 47.0158 32.1997C47.0158 31.3655 46.3333 30.683 45.4991 30.683C31.1666 30.683 20.8912 20.6161 20.7775 20.5024C20.1898 19.9336 19.2419 19.9336 18.6541 20.5214C18.0664 21.1091 18.0664 22.057 18.6352 22.6447C19.0902 23.0997 29.8775 33.7164 45.4991 33.7164Z" fill="#00C7C7"/>
<path d="M1.51667 71.6323H3.03333V73.149C3.03333 73.9832 3.71583 74.6657 4.55 74.6657C5.38417 74.6657 6.0667 73.9832 6.0667 73.149V71.6323H9.1V76.1823C9.1 77.0165 9.7825 77.699 10.6167 77.699C11.4508 77.699 12.1333 77.0165 12.1333 76.1823V71.6323H15.1667V79.2157C15.1667 80.0498 15.8492 80.7323 16.6833 80.7323C17.5175 80.7323 18.2 80.0498 18.2 79.2157V71.6323H21.2333V76.1823C21.2333 77.0165 21.9158 77.699 22.75 77.699C23.5842 77.699 24.2667 77.0165 24.2667 76.1823V71.6323H27.3V73.149C27.3 73.9832 27.9825 74.6657 28.8167 74.6657C29.6508 74.6657 30.3333 73.9832 30.3333 73.149V71.6323H48.5333V73.149C48.5333 73.9832 49.2158 74.6657 50.05 74.6657H54.6C54.6 75.4998 55.2825 76.1823 56.1167 76.1823H84.9333C88.289 76.1823 91 73.4713 91 70.1157C91 66.76 88.289 64.049 84.9333 64.049H56.1167C55.2825 64.049 54.6 64.7315 54.6 65.5657H50.05C49.2158 65.5657 48.5333 66.2482 48.5333 67.0823V68.599H30.3333V67.0823C30.3333 66.2482 29.6508 65.5657 28.8167 65.5657C27.9825 65.5657 27.3 66.2482 27.3 67.0823V68.599H24.2667V64.049C24.2667 63.2148 23.5842 62.5323 22.75 62.5323C21.9158 62.5323 21.2333 63.2148 21.2333 64.049V68.599H18.2V61.0157C18.2 60.1815 17.5175 59.499 16.6833 59.499C15.8492 59.499 15.1667 60.1815 15.1667 61.0157V68.599H12.1333V64.049C12.1333 63.2148 11.4508 62.5323 10.6167 62.5323C9.7825 62.5323 9.1 63.2148 9.1 64.049V68.599H6.0667V67.0823C6.0667 66.2482 5.38417 65.5657 4.55 65.5657C3.71583 65.5657 3.03333 66.2482 3.03333 67.0823V68.599H1.51667C0.6825 68.599 0 69.2815 0 70.1157C0 70.9498 0.6825 71.6323 1.51667 71.6323ZM63.7 67.0823H84.9333C86.6017 67.0823 87.9667 68.4473 87.9667 70.1157C87.9667 71.784 86.6017 73.149 84.9333 73.149H63.7V67.0823ZM57.6333 67.0823H60.6667V73.149H57.6333V67.0823ZM51.5667 68.599H54.6V71.6323H51.5667V68.599Z" fill="#00C7C7"/>
</svg>
