<svg width="230" height="239" viewBox="0 0 230 239" fill="none" xmlns="http://www.w3.org/2000/svg">
<g clip-path="url(#clip0)">
<path opacity="0.1" d="M219.393 207.842C217.239 208.954 214.982 209.914 212.755 210.871C204.53 214.349 196.18 217.856 187.343 219.05C170.758 221.288 153.629 215.227 137.325 218.998C123.666 222.155 112.369 231.827 99.0245 236.134C92.8196 238.136 86.3635 238.921 79.85 238.921H78.9969C78.1901 238.911 77.3894 238.891 76.5948 238.86C69.9905 238.612 63.359 237.633 56.8848 236.382C36.4427 232.445 15.6376 225.226 0.00878906 211.938C45.5157 203.601 139.255 190.822 219.393 207.842Z" fill="#252223"/>
<path d="M158.935 208.775C158.935 208.775 151.472 183.403 160.336 164.738C164.057 156.902 165.291 148.102 163.573 139.596C162.751 135.558 161.561 131.604 160.018 127.783" stroke="#535461" stroke-width="2" stroke-miterlimit="10"/>
<path d="M165.521 115.988C165.521 119.098 159.897 128.104 159.897 128.104C159.897 128.104 154.273 119.086 154.273 115.988C154.256 115.237 154.388 114.491 154.663 113.793C154.938 113.095 155.349 112.458 155.873 111.922C156.397 111.385 157.022 110.958 157.713 110.667C158.404 110.376 159.146 110.226 159.896 110.226C160.645 110.226 161.387 110.376 162.078 110.667C162.769 110.958 163.394 111.385 163.918 111.922C164.442 112.458 164.853 113.095 165.128 113.793C165.403 114.491 165.535 115.237 165.518 115.988H165.521Z" fill="#6C63FF"/>
<path d="M174.827 133.211C173.139 135.822 163.524 140.329 163.524 140.329C163.524 140.329 163.7 129.7 165.388 127.089C166.216 125.877 167.485 125.036 168.923 124.747C170.361 124.457 171.856 124.742 173.087 125.54C174.319 126.339 175.19 127.587 175.515 129.02C175.84 130.452 175.593 131.955 174.827 133.208V133.211Z" fill="#6C63FF"/>
<path d="M174.419 162.645C171.645 164.044 161.074 163.078 161.074 163.078C161.074 163.078 166.583 153.991 169.358 152.591C170.019 152.241 170.743 152.026 171.488 151.959C172.233 151.892 172.984 151.975 173.696 152.202C174.409 152.429 175.069 152.797 175.639 153.282C176.208 153.768 176.674 154.363 177.011 155.032C177.348 155.7 177.548 156.43 177.6 157.177C177.652 157.924 177.555 158.674 177.314 159.383C177.073 160.092 176.693 160.746 176.196 161.306C175.7 161.866 175.096 162.321 174.422 162.645H174.419Z" fill="#6C63FF"/>
<path d="M169.103 184.845C166.607 186.693 156.021 187.529 156.021 187.529C156.021 187.529 159.918 177.642 162.414 175.791C163.007 175.344 163.683 175.02 164.402 174.836C165.121 174.652 165.87 174.612 166.605 174.719C167.339 174.826 168.045 175.078 168.682 175.459C169.319 175.841 169.875 176.345 170.316 176.943C170.758 177.54 171.077 178.219 171.255 178.941C171.433 179.663 171.466 180.412 171.353 181.147C171.241 181.882 170.984 182.587 170.597 183.221C170.211 183.856 169.703 184.408 169.103 184.845Z" fill="#6C63FF"/>
<path d="M151.717 140.932C153.943 143.098 164.311 145.352 164.311 145.352C164.311 145.352 161.77 135.032 159.543 132.863C158.466 131.864 157.041 131.326 155.573 131.365C154.105 131.404 152.711 132.016 151.688 133.07C150.665 134.125 150.094 135.538 150.098 137.008C150.101 138.479 150.679 139.889 151.708 140.938L151.717 140.932Z" fill="#6C63FF"/>
<path d="M145.83 166.973C148.604 168.373 159.174 167.406 159.174 167.406C159.174 167.406 153.665 158.319 150.891 156.92C150.23 156.569 149.506 156.354 148.761 156.287C148.016 156.221 147.265 156.303 146.552 156.53C145.84 156.758 145.179 157.125 144.61 157.611C144.041 158.097 143.574 158.691 143.237 159.36C142.9 160.029 142.7 160.758 142.648 161.505C142.596 162.252 142.694 163.002 142.935 163.711C143.176 164.42 143.556 165.074 144.053 165.634C144.549 166.194 145.152 166.649 145.827 166.973H145.83Z" fill="#6C63FF"/>
<path d="M143.575 193.072C146.071 194.92 156.657 195.756 156.657 195.756C156.657 195.756 152.76 185.869 150.264 184.018C149.671 183.572 148.995 183.247 148.276 183.063C147.557 182.879 146.808 182.839 146.074 182.946C145.339 183.053 144.633 183.305 143.996 183.686C143.359 184.068 142.804 184.572 142.362 185.17C141.921 185.767 141.602 186.446 141.424 187.168C141.246 187.89 141.212 188.639 141.325 189.374C141.438 190.109 141.695 190.814 142.081 191.448C142.467 192.083 142.975 192.635 143.575 193.072Z" fill="#6C63FF"/>
<path opacity="0.25" d="M165.521 115.988C165.521 119.098 159.897 128.104 159.897 128.104C159.897 128.104 154.273 119.086 154.273 115.988C154.256 115.237 154.388 114.491 154.663 113.793C154.938 113.095 155.349 112.458 155.873 111.922C156.397 111.385 157.022 110.958 157.713 110.667C158.404 110.376 159.146 110.226 159.896 110.226C160.645 110.226 161.387 110.376 162.078 110.667C162.769 110.958 163.394 111.385 163.918 111.922C164.442 112.458 164.853 113.095 165.128 113.793C165.403 114.491 165.535 115.237 165.518 115.988H165.521Z" fill="black"/>
<path opacity="0.25" d="M174.827 133.211C173.139 135.822 163.524 140.329 163.524 140.329C163.524 140.329 163.7 129.7 165.388 127.089C166.216 125.877 167.485 125.036 168.923 124.747C170.361 124.457 171.856 124.742 173.087 125.54C174.319 126.339 175.19 127.587 175.515 129.02C175.84 130.452 175.593 131.955 174.827 133.208V133.211Z" fill="black"/>
<path opacity="0.25" d="M174.419 162.645C171.645 164.044 161.074 163.078 161.074 163.078C161.074 163.078 166.583 153.991 169.358 152.591C170.019 152.241 170.743 152.026 171.488 151.959C172.233 151.892 172.984 151.975 173.696 152.202C174.409 152.429 175.069 152.797 175.639 153.282C176.208 153.768 176.674 154.363 177.011 155.032C177.348 155.7 177.548 156.43 177.6 157.177C177.652 157.924 177.555 158.674 177.314 159.383C177.073 160.092 176.693 160.746 176.196 161.306C175.7 161.866 175.096 162.321 174.422 162.645H174.419Z" fill="black"/>
<path opacity="0.25" d="M169.103 184.845C166.607 186.693 156.021 187.529 156.021 187.529C156.021 187.529 159.918 177.642 162.414 175.791C163.007 175.344 163.683 175.02 164.402 174.836C165.121 174.652 165.87 174.612 166.605 174.719C167.339 174.826 168.045 175.078 168.682 175.459C169.319 175.841 169.875 176.345 170.316 176.943C170.758 177.54 171.077 178.219 171.255 178.941C171.433 179.663 171.466 180.412 171.353 181.147C171.241 181.882 170.984 182.587 170.597 183.221C170.211 183.856 169.703 184.408 169.103 184.845Z" fill="black"/>
<path opacity="0.25" d="M151.717 140.932C153.943 143.098 164.311 145.352 164.311 145.352C164.311 145.352 161.77 135.032 159.543 132.863C158.466 131.864 157.041 131.326 155.573 131.365C154.105 131.404 152.711 132.016 151.688 133.07C150.665 134.125 150.094 135.538 150.098 137.008C150.101 138.479 150.679 139.889 151.708 140.938L151.717 140.932Z" fill="black"/>
<path opacity="0.25" d="M145.83 166.973C148.604 168.373 159.174 167.406 159.174 167.406C159.174 167.406 153.665 158.319 150.891 156.92C150.23 156.569 149.506 156.354 148.761 156.287C148.016 156.221 147.265 156.303 146.552 156.53C145.84 156.758 145.179 157.125 144.61 157.611C144.041 158.097 143.574 158.691 143.237 159.36C142.9 160.029 142.7 160.758 142.648 161.505C142.596 162.252 142.694 163.002 142.935 163.711C143.176 164.42 143.556 165.074 144.053 165.634C144.549 166.194 145.152 166.649 145.827 166.973H145.83Z" fill="black"/>
<path opacity="0.25" d="M143.575 193.072C146.071 194.92 156.657 195.756 156.657 195.756C156.657 195.756 152.76 185.869 150.264 184.018C149.671 183.572 148.995 183.247 148.276 183.063C147.557 182.879 146.808 182.839 146.074 182.946C145.339 183.053 144.633 183.305 143.996 183.686C143.359 184.068 142.804 184.572 142.362 185.17C141.921 185.767 141.602 186.446 141.424 187.168C141.246 187.89 141.212 188.639 141.325 189.374C141.438 190.109 141.695 190.814 142.081 191.448C142.467 192.083 142.975 192.635 143.575 193.072Z" fill="black"/>
<path d="M29.1646 217.672C29.1646 217.672 21.7011 192.303 30.5653 173.625C34.2864 165.789 35.5208 156.989 33.8024 148.484C32.9807 144.445 31.7908 140.491 30.2476 136.67" stroke="#535461" stroke-width="2" stroke-miterlimit="10"/>
<path d="M35.7623 124.884C35.7623 127.995 30.1383 137 30.1383 137C30.1383 137 24.5142 127.983 24.5142 124.884C24.4968 124.134 24.6294 123.388 24.9042 122.689C25.1789 121.991 25.5903 121.355 26.1141 120.818C26.6379 120.281 27.2636 119.855 27.9544 119.564C28.6452 119.272 29.3872 119.122 30.1368 119.122C30.8863 119.122 31.6283 119.272 32.3191 119.564C33.0099 119.855 33.6356 120.281 34.1594 120.818C34.6832 121.355 35.0946 121.991 35.3694 122.689C35.6441 123.388 35.7767 124.134 35.7593 124.884H35.7623Z" fill="#6C63FF"/>
<path d="M45.0555 142.108C43.3674 144.719 33.7529 149.226 33.7529 149.226C33.7529 149.226 33.9284 138.597 35.6165 135.986C36.0084 135.345 36.5244 134.789 37.1342 134.351C37.7439 133.913 38.4351 133.602 39.1669 133.435C39.8987 133.269 40.6564 133.251 41.3953 133.382C42.1342 133.513 42.8394 133.791 43.4693 134.2C44.0993 134.608 44.6413 135.138 45.0633 135.76C45.4853 136.381 45.7789 137.081 45.9267 137.817C46.0745 138.554 46.0736 139.313 45.924 140.049C45.7744 140.786 45.4791 141.484 45.0555 142.105V142.108Z" fill="#6C63FF"/>
<path d="M44.6504 171.541C41.8761 172.941 31.3057 171.975 31.3057 171.975C31.3057 171.975 36.8148 162.887 39.589 161.488C40.9164 160.85 42.4405 160.76 43.8341 161.235C45.2277 161.71 46.3797 162.713 47.0427 164.029C47.7056 165.345 47.8268 166.869 47.38 168.274C46.9333 169.678 45.9544 170.852 44.6534 171.541H44.6504Z" fill="#6C63FF"/>
<path d="M39.3354 193.742C36.8395 195.59 26.2539 196.426 26.2539 196.426C26.2539 196.426 30.1505 186.539 32.6464 184.688C33.8463 183.814 35.3426 183.45 36.8092 183.676C38.2758 183.901 39.5939 184.698 40.4763 185.893C41.3587 187.087 41.7339 188.582 41.5202 190.052C41.3065 191.523 40.5212 192.849 39.3354 193.742Z" fill="#6C63FF"/>
<path d="M21.9449 149.829C24.1716 151.994 34.5514 154.239 34.5514 154.239C34.5514 154.239 32.0102 143.919 29.7835 141.75C28.7062 140.751 27.2814 140.213 25.8136 140.252C24.3457 140.291 22.9512 140.903 21.9281 141.958C20.9049 143.012 20.3342 144.425 20.3379 145.896C20.3416 147.366 20.9195 148.776 21.9479 149.826L21.9449 149.829Z" fill="#6C63FF"/>
<path d="M16.0709 175.87C18.8452 177.269 29.4156 176.303 29.4156 176.303C29.4156 176.303 23.9065 167.216 21.1323 165.816C19.8061 165.189 18.2873 165.105 16.9001 165.582C15.5128 166.06 14.3668 167.061 13.7064 168.373C13.0461 169.684 12.9238 171.202 13.3655 172.603C13.8072 174.003 14.7781 175.176 16.0709 175.87Z" fill="#6C63FF"/>
<path d="M13.805 201.969C16.3009 203.816 26.8865 204.653 26.8865 204.653C26.8865 204.653 22.9899 194.766 20.494 192.909C19.2941 192.035 17.7978 191.671 16.3312 191.897C14.8646 192.122 13.5465 192.919 12.6641 194.114C11.7817 195.308 11.4065 196.803 11.6202 198.273C11.8339 199.744 12.6192 201.07 13.805 201.963V201.969Z" fill="#6C63FF"/>
<path opacity="0.25" d="M35.7623 124.884C35.7623 127.995 30.1383 137 30.1383 137C30.1383 137 24.5142 127.983 24.5142 124.884C24.4968 124.134 24.6294 123.388 24.9042 122.689C25.1789 121.991 25.5903 121.355 26.1141 120.818C26.6379 120.281 27.2636 119.855 27.9544 119.564C28.6452 119.272 29.3872 119.122 30.1368 119.122C30.8863 119.122 31.6283 119.272 32.3191 119.564C33.0099 119.855 33.6356 120.281 34.1594 120.818C34.6832 121.355 35.0946 121.991 35.3694 122.689C35.6441 123.388 35.7767 124.134 35.7593 124.884H35.7623Z" fill="black"/>
<path opacity="0.25" d="M45.0555 142.108C43.3674 144.719 33.7529 149.226 33.7529 149.226C33.7529 149.226 33.9284 138.597 35.6165 135.986C36.0084 135.345 36.5244 134.789 37.1342 134.351C37.7439 133.913 38.4351 133.602 39.1669 133.435C39.8987 133.269 40.6564 133.251 41.3953 133.382C42.1342 133.513 42.8394 133.791 43.4693 134.2C44.0993 134.608 44.6413 135.138 45.0633 135.76C45.4853 136.381 45.7789 137.081 45.9267 137.817C46.0745 138.554 46.0736 139.313 45.924 140.049C45.7744 140.786 45.4791 141.484 45.0555 142.105V142.108Z" fill="black"/>
<path opacity="0.25" d="M44.6504 171.541C41.8761 172.941 31.3057 171.975 31.3057 171.975C31.3057 171.975 36.8148 162.887 39.589 161.488C40.9164 160.85 42.4405 160.76 43.8341 161.235C45.2277 161.71 46.3797 162.713 47.0427 164.029C47.7056 165.345 47.8268 166.869 47.38 168.274C46.9333 169.678 45.9544 170.852 44.6534 171.541H44.6504Z" fill="black"/>
<path opacity="0.25" d="M39.3354 193.742C36.8395 195.59 26.2539 196.426 26.2539 196.426C26.2539 196.426 30.1505 186.539 32.6464 184.688C33.8463 183.814 35.3426 183.45 36.8092 183.676C38.2758 183.901 39.5939 184.698 40.4763 185.893C41.3587 187.087 41.7339 188.582 41.5202 190.052C41.3065 191.523 40.5212 192.849 39.3354 193.742Z" fill="black"/>
<path opacity="0.25" d="M21.9449 149.829C24.1716 151.994 34.5514 154.239 34.5514 154.239C34.5514 154.239 32.0102 143.919 29.7835 141.75C28.7062 140.751 27.2814 140.213 25.8136 140.252C24.3457 140.291 22.9512 140.903 21.9281 141.958C20.9049 143.012 20.3342 144.425 20.3379 145.896C20.3416 147.366 20.9195 148.776 21.9479 149.826L21.9449 149.829Z" fill="black"/>
<path opacity="0.25" d="M16.0709 175.87C18.8452 177.269 29.4156 176.303 29.4156 176.303C29.4156 176.303 23.9065 167.216 21.1323 165.816C19.8061 165.189 18.2873 165.105 16.9001 165.582C15.5128 166.06 14.3668 167.061 13.7064 168.373C13.0461 169.684 12.9238 171.202 13.3655 172.603C13.8072 174.003 14.7781 175.176 16.0709 175.87Z" fill="black"/>
<path opacity="0.25" d="M13.805 201.969C16.3009 203.816 26.8865 204.653 26.8865 204.653C26.8865 204.653 22.9899 194.766 20.494 192.909C19.2941 192.035 17.7978 191.671 16.3312 191.897C14.8646 192.122 13.5465 192.919 12.6641 194.114C11.7817 195.308 11.4065 196.803 11.6202 198.273C11.8339 199.744 12.6192 201.07 13.805 201.963V201.969Z" fill="black"/>
<path d="M120.426 201.045C120.426 201.045 116.384 187.308 121.182 177.2C123.221 172.972 123.836 168.197 122.934 163.59C122.488 161.406 121.844 159.268 121.009 157.201" stroke="#535461" stroke-width="2" stroke-miterlimit="10"/>
<path d="M123.995 150.804C123.995 152.488 120.952 157.368 120.952 157.368C120.952 157.368 117.908 152.494 117.908 150.804C117.908 150.404 117.987 150.007 118.14 149.637C118.293 149.268 118.517 148.931 118.8 148.648C119.083 148.365 119.419 148.141 119.788 147.987C120.157 147.834 120.553 147.755 120.953 147.755C121.353 147.755 121.749 147.834 122.118 147.987C122.488 148.141 122.824 148.365 123.106 148.648C123.389 148.931 123.613 149.268 123.766 149.637C123.919 150.007 123.998 150.404 123.998 150.804H123.995Z" fill="#6C63FF"/>
<path d="M129.03 160.137C128.123 161.548 122.91 163.99 122.91 163.99C122.91 163.99 123.004 158.235 123.918 156.823C124.356 156.145 125.047 155.668 125.836 155.499C126.626 155.33 127.45 155.482 128.127 155.922C128.805 156.361 129.28 157.052 129.449 157.843C129.618 158.633 129.466 159.458 129.027 160.137H129.03Z" fill="#6C63FF"/>
<path d="M128.809 176.07C127.297 176.827 121.585 176.303 121.585 176.303C121.585 176.303 124.568 171.384 126.068 170.626C126.791 170.262 127.628 170.201 128.395 170.455C129.163 170.709 129.798 171.257 130.162 171.98C130.525 172.703 130.587 173.541 130.333 174.31C130.08 175.079 129.532 175.715 128.809 176.079V176.07Z" fill="#6C63FF"/>
<path d="M125.932 188.089C124.58 189.089 118.85 189.543 118.85 189.543C118.85 189.543 120.967 184.191 122.311 183.182C122.96 182.7 123.773 182.496 124.573 182.615C125.372 182.734 126.092 183.165 126.573 183.815C127.055 184.465 127.258 185.28 127.14 186.08C127.021 186.881 126.59 187.601 125.941 188.083L125.932 188.089Z" fill="#6C63FF"/>
<path d="M116.511 164.317C117.721 165.489 123.336 166.704 123.336 166.704C123.336 166.704 121.956 161.103 120.746 159.943C120.162 159.406 119.392 159.119 118.599 159.142C117.807 159.165 117.055 159.497 116.503 160.067C115.951 160.636 115.643 161.399 115.645 162.193C115.646 162.987 115.957 163.749 116.511 164.317Z" fill="#6C63FF"/>
<path d="M113.331 178.414C114.844 179.172 120.556 178.648 120.556 178.648C120.556 178.648 117.573 173.728 116.072 172.971C115.35 172.607 114.513 172.545 113.745 172.799C112.978 173.053 112.342 173.602 111.979 174.325C111.615 175.048 111.554 175.886 111.807 176.655C112.061 177.423 112.609 178.06 113.331 178.423V178.414Z" fill="#6C63FF"/>
<path d="M112.109 192.545C113.462 193.545 119.191 193.999 119.191 193.999C119.191 193.999 117.074 188.647 115.731 187.638C115.409 187.399 115.044 187.226 114.656 187.129C114.268 187.032 113.864 187.012 113.468 187.071C112.669 187.189 111.949 187.621 111.468 188.271C110.986 188.921 110.783 189.736 110.901 190.536C111.02 191.337 111.451 192.057 112.1 192.539L112.109 192.545Z" fill="#6C63FF"/>
<path opacity="0.5" d="M123.995 150.804C123.995 152.488 120.952 157.368 120.952 157.368C120.952 157.368 117.908 152.494 117.908 150.804C117.908 150.404 117.987 150.007 118.14 149.637C118.293 149.268 118.517 148.931 118.8 148.648C119.083 148.365 119.419 148.141 119.788 147.987C120.157 147.834 120.553 147.755 120.953 147.755C121.353 147.755 121.749 147.834 122.118 147.987C122.488 148.141 122.824 148.365 123.106 148.648C123.389 148.931 123.613 149.268 123.766 149.637C123.919 150.007 123.998 150.404 123.998 150.804H123.995Z" fill="white"/>
<path opacity="0.5" d="M129.03 160.137C128.123 161.548 122.91 163.99 122.91 163.99C122.91 163.99 123.004 158.235 123.918 156.823C124.356 156.145 125.047 155.668 125.836 155.499C126.626 155.33 127.45 155.482 128.127 155.922C128.805 156.361 129.28 157.052 129.449 157.843C129.618 158.633 129.466 159.458 129.027 160.137H129.03Z" fill="white"/>
<path opacity="0.5" d="M128.809 176.07C127.297 176.827 121.585 176.303 121.585 176.303C121.585 176.303 124.568 171.384 126.068 170.626C126.791 170.262 127.628 170.201 128.395 170.455C129.163 170.709 129.798 171.257 130.162 171.98C130.525 172.703 130.587 173.541 130.333 174.31C130.08 175.079 129.532 175.715 128.809 176.079V176.07Z" fill="white"/>
<path opacity="0.5" d="M125.932 188.089C124.58 189.089 118.85 189.543 118.85 189.543C118.85 189.543 120.967 184.191 122.311 183.182C122.96 182.7 123.773 182.496 124.573 182.615C125.372 182.734 126.092 183.165 126.573 183.815C127.055 184.465 127.258 185.28 127.14 186.08C127.021 186.881 126.59 187.601 125.941 188.083L125.932 188.089Z" fill="white"/>
<path opacity="0.5" d="M116.511 164.317C117.721 165.489 123.336 166.704 123.336 166.704C123.336 166.704 121.956 161.103 120.746 159.943C120.162 159.406 119.392 159.119 118.599 159.142C117.807 159.165 117.055 159.497 116.503 160.067C115.951 160.636 115.643 161.399 115.645 162.193C115.646 162.987 115.957 163.749 116.511 164.317Z" fill="white"/>
<path opacity="0.5" d="M113.331 178.414C114.844 179.172 120.556 178.648 120.556 178.648C120.556 178.648 117.573 173.728 116.072 172.971C115.35 172.607 114.513 172.545 113.745 172.799C112.978 173.053 112.342 173.602 111.979 174.325C111.615 175.048 111.554 175.886 111.807 176.655C112.061 177.423 112.609 178.06 113.331 178.423V178.414Z" fill="white"/>
<path opacity="0.5" d="M112.109 192.545C113.462 193.545 119.191 193.999 119.191 193.999C119.191 193.999 117.074 188.647 115.731 187.638C115.409 187.399 115.044 187.226 114.656 187.129C114.268 187.032 113.864 187.012 113.468 187.071C112.669 187.189 111.949 187.621 111.468 188.271C110.986 188.921 110.783 189.736 110.901 190.536C111.02 191.337 111.451 192.057 112.1 192.539L112.109 192.545Z" fill="white"/>
<path d="M92.5781 31.73V65.7135L108.286 45.4912" stroke="#535461" stroke-width="2" stroke-miterlimit="10"/>
<path d="M76.5889 42.4014L92.5777 65.7134" stroke="#535461" stroke-width="2" stroke-miterlimit="10"/>
<g opacity="0.7">
<path opacity="0.7" d="M121.47 27.7345C121.468 25.7383 120.995 23.7708 120.089 21.9926C119.183 20.2144 117.87 18.676 116.257 17.503C114.644 16.33 112.777 15.5558 110.807 15.2434C108.838 14.9311 106.823 15.0896 104.927 15.7059C105.031 14.9947 105.085 14.2771 105.087 13.5583C105.085 10.2837 103.815 7.1375 101.543 4.78153C99.2718 2.42555 96.1763 1.04336 92.9079 0.925663C89.6394 0.80796 86.4528 1.96392 84.0181 4.15041C81.5834 6.33691 80.0905 9.38355 79.8533 12.6496C77.9565 12.0315 75.9405 11.8716 73.9702 12.1831C71.9999 12.4946 70.1312 13.2686 68.5169 14.4418C66.9025 15.615 65.5885 17.154 64.6821 18.9331C63.7756 20.7123 63.3027 22.6809 63.3018 24.6781C63.3018 31.0393 67.9698 40.0509 74.0568 41.6411L75.0037 42.1834L74.4894 43.9463H77.5329L76.8794 42.1864L77.8203 41.6472C82.5216 40.4113 86.3789 34.7408 87.8885 29.3006C88.7153 29.8521 89.6255 30.2663 90.5841 30.5273L91.531 31.0696L91.0167 32.8325H94.0602L93.3976 31.0665L94.3385 30.5273C95.0391 30.3395 95.7138 30.0659 96.3473 29.7125C97.1611 35.8162 101.49 43.2647 106.963 44.7036L107.91 45.2458L107.396 47.0087H110.439L109.777 45.2428L110.718 44.7036C116.814 43.1072 121.47 34.0805 121.47 27.7345Z" fill="url(#paint0_linear)"/>
</g>
<path d="M78.0139 43.3071H75.0703L75.5846 41.5381H77.3514L78.0139 43.3071Z" fill="#6C63FF"/>
<path d="M88.6782 24.6538C88.6782 31.4148 83.2054 41.3139 76.4529 41.3139C69.7003 41.3139 64.2275 31.4087 64.2275 24.6538C64.278 21.4411 65.5881 18.3771 67.875 16.1231C70.1619 13.8691 73.2423 12.6057 76.4513 12.6057C79.6604 12.6057 82.7408 13.8691 85.0277 16.1231C87.3146 18.3771 88.6247 21.4411 88.6752 24.6538H88.6782Z" fill="#6C63FF"/>
<path opacity="0.2" d="M88.6782 24.6538C88.6782 31.4148 83.2054 41.3139 76.4529 41.3139C69.7003 41.3139 64.2275 31.4087 64.2275 24.6538C64.278 21.4411 65.5881 18.3771 67.875 16.1231C70.1619 13.8691 73.2423 12.6057 76.4513 12.6057C79.6604 12.6057 82.7408 13.8691 85.0277 16.1231C87.3146 18.3771 88.6247 21.4411 88.6752 24.6538H88.6782Z" fill="white"/>
<path d="M77.3512 41.6139H75.5844L74.5527 41.0232H78.3828L77.3512 41.6139Z" fill="#535461"/>
<path opacity="0.1" d="M72.0387 15.1394C72.0387 15.1394 66.8957 17.9413 66.1484 23.5452L72.0387 15.1394Z" fill="white"/>
<path d="M93.9993 32.5478H91.0557L91.57 30.7788H93.3368L93.9993 32.5478Z" fill="#6C63FF"/>
<path opacity="0.07" d="M93.9993 32.5478H91.0557L91.57 30.7788H93.3368L93.9993 32.5478Z" fill="black"/>
<path d="M104.679 13.8884C104.679 20.6494 99.2063 30.5485 92.4538 30.5485C85.7013 30.5485 80.2285 20.6433 80.2285 13.8884C80.279 10.6757 81.5891 7.61175 83.876 5.35772C86.1629 3.10368 89.2433 1.84033 92.4523 1.84033C95.6614 1.84033 98.7417 3.10368 101.029 5.35772C103.316 7.61175 104.626 10.6757 104.676 13.8884H104.679Z" fill="#6C63FF"/>
<path d="M93.3375 30.8516H91.5707L90.5391 30.2639H94.3691L93.3375 30.8516Z" fill="#535461"/>
<path opacity="0.1" d="M88.0339 4.38013C88.0339 4.38013 82.8908 7.18205 82.1436 12.7859L88.0339 4.38013Z" fill="white"/>
<path d="M109.852 46.2666H106.905L107.423 44.4976H109.189L109.852 46.2666Z" fill="#6C63FF"/>
<path d="M120.529 27.6103C120.529 34.3713 115.056 44.2704 108.303 44.2704C101.551 44.2704 96.0781 34.3652 96.0781 27.6103C96.1286 24.3977 97.4387 21.3337 99.7256 19.0796C102.012 16.8256 105.093 15.5623 108.302 15.5623C111.511 15.5623 114.591 16.8256 116.878 19.0796C119.165 21.3337 120.475 24.3977 120.526 27.6103H120.529Z" fill="#6C63FF"/>
<path opacity="0.2" d="M120.529 27.6103C120.529 34.3713 115.056 44.2704 108.303 44.2704C101.551 44.2704 96.0781 34.3652 96.0781 27.6103C96.1286 24.3977 97.4387 21.3337 99.7256 19.0796C102.012 16.8256 105.093 15.5623 108.302 15.5623C111.511 15.5623 114.591 16.8256 116.878 19.0796C119.165 21.3337 120.475 24.3977 120.526 27.6103H120.529Z" fill="white"/>
<path d="M109.19 44.5733H107.423L106.392 43.9827H110.222L109.19 44.5733Z" fill="#535461"/>
<path opacity="0.1" d="M103.886 18.0989C103.886 18.0989 98.7433 20.9008 97.9961 26.5047L103.886 18.0989Z" fill="white"/>
<path opacity="0.2" d="M112.772 29.8942L108.567 32.466L104.358 29.8942L108.567 22.6729L112.772 29.8942ZM108.567 33.2929L104.358 30.7212L108.567 36.8582L112.775 30.7212L108.567 33.2929Z" fill="black"/>
<path opacity="0.2" d="M96.7803 15.2909L92.5751 17.8626L88.376 15.2909L92.5842 8.06348L96.7803 15.2909ZM92.5751 18.6896L88.376 16.1148L92.5842 22.2518L96.7924 16.1148L92.5842 18.6866L92.5751 18.6896Z" fill="black"/>
<path opacity="0.2" d="M80.2318 27.0861L76.0266 29.6578L71.8184 27.0861L76.0266 19.8586L80.2318 27.0861ZM76.0266 30.4848L71.8184 27.913L76.0266 34.05L80.2348 27.913L76.0266 30.4848Z" fill="black"/>
<path d="M107.71 225.047C105.592 224.563 103.853 222.018 103.853 222.018L103.68 222.046L105.768 194.296C105.768 194.296 107.982 190.264 105.768 184.415C105.326 183.252 104.912 182.031 104.525 180.823L104.86 180.683L104.794 180.308L104.86 180.28C104.86 180.28 98.4194 144.937 98.3589 133.432C98.3589 132.042 98.4829 131.048 98.731 130.573C99.7475 128.631 101.569 125.838 101.493 122.352C101.56 118.947 99.8564 114.855 93.7483 110.235C94.2354 106.358 95.4364 98.1945 97.5239 92.6664C97.5239 92.6664 98.3287 89.0315 97.5239 83.5791L96.3138 68.2548C96.3138 68.2548 96.5165 61.197 92.0783 61.197C87.6402 61.197 92.281 69.0727 92.281 69.0727L91.8787 89.0345C91.8787 89.0345 91.7456 90.0674 91.5187 91.691C90.4507 90.4807 89.0362 89.6293 87.4678 89.2526C87.5302 88.523 87.4268 87.7888 87.1652 87.105C87.0745 87.1625 86.9807 87.214 86.8869 87.2655C86.8506 87.1444 86.8082 87.0232 86.7629 86.9051C85.8183 87.4912 84.7308 87.8056 83.6195 87.8138C82.603 87.8138 81.6047 87.5684 80.5942 87.4927C78.8797 87.3721 77.1672 87.7542 75.666 88.5923C75.4572 88.5711 75.2455 88.5438 75.0337 88.5135C71.0705 87.9077 68.3145 92.9663 64.3452 95.0352C61.5619 96.4861 60.4365 99.8817 60.0009 102.99C59.5652 106.097 59.5138 109.408 57.8831 112.104C56.7759 113.946 54.2981 115.009 53.8322 117.105C52.9247 121.195 53.9321 120.186 54.9395 125.629C55.2723 127.428 55.7049 128.146 56.1285 129.927C56.5883 131.848 56.0801 133.865 56.0105 135.828C55.835 140.999 59.1568 145.991 63.7704 148.214C64.9324 148.83 66.1858 149.254 67.4825 149.471C67.2745 151.783 66.3123 153.962 64.7446 155.672C64.8989 155.723 65.0471 155.766 65.2105 155.802L65.1469 155.872C67.8092 156.744 70.7498 155.735 73.0975 154.203C73.7819 153.754 74.4359 153.26 75.0549 152.725C74.6914 153.58 74.396 154.464 74.1715 155.366L74.1533 155.384L73.6693 155.266C73.6693 155.266 73.8084 155.345 74.0595 155.472C72.7223 156.714 59.6015 168.839 54.5583 171.157C53.448 171.181 49.8176 177.666 59.2687 179.968C66.7201 181.786 68.3447 179.163 72.1566 183.8C73.2272 185.042 74.6071 185.977 76.1561 186.511C75.067 189.989 73.3456 194.354 71.3489 195.296C67.9242 196.91 62.2729 205.376 61.6678 208.403L56.6095 219.195H56.5157L55.4901 220.295C55.2857 220.514 55.1378 220.78 55.0592 221.069C54.9805 221.359 54.9735 221.663 55.0388 221.956C55.1041 222.248 55.2396 222.521 55.4337 222.749C55.6278 222.977 55.8746 223.155 56.1527 223.266C59.0751 224.433 63.8309 226.05 65.9819 225.244C69.2039 224.033 64.1667 222.821 64.1667 222.821C62.1519 222.015 61.1414 219.392 61.1414 219.392L77.3511 200.942C77.3511 200.942 83.7043 198.476 85.0021 193.281C85.0838 192.951 86.0398 190.404 87.141 187.505C88.1696 187.429 89.1468 187.329 90.0362 187.232C91.4763 187.072 93.1826 186.502 94.9131 185.751C95.9628 189.304 96.8644 193.157 96.4802 194.893C95.6754 198.528 94.665 203.159 96.4802 209.208L99.6023 222.618H99.8867L99.566 222.667L98.734 223.899C98.5645 224.15 98.4588 224.438 98.426 224.739C98.3932 225.04 98.4344 225.345 98.5459 225.626C98.6575 225.907 98.836 226.157 99.066 226.353C99.296 226.55 99.5705 226.687 99.8655 226.753C102.936 227.45 107.861 228.301 109.849 227.171C112.88 225.459 107.71 225.047 107.71 225.047ZM81.163 126.087C81.0959 124.625 81.1171 123.16 81.2265 121.7C81.4888 124.357 81.95 126.989 82.6061 129.576C83.4846 131.433 83.959 133.456 83.9977 135.51C83.9743 138.381 82.9074 141.145 80.9966 143.286L80.9784 143.304C82.4729 137.737 81.4171 131.845 81.163 126.084V126.087Z" fill="url(#paint1_linear)"/>
<path d="M82.7847 113.722C81.0482 116.663 81.3628 122.04 83.774 131.872C83.774 131.872 86.5301 139.363 81.0179 145.67C75.5058 151.976 74.3259 157.483 74.3259 157.483C74.3259 157.483 57.0211 168.218 54.8368 173.053C58.086 165.859 47.4187 176.158 59.759 179.163C67.0409 180.938 68.6171 178.375 72.3564 182.906C76.0957 187.438 84.5606 186.844 89.8761 186.257C95.1916 185.669 104.246 179.359 104.246 179.359C104.246 179.359 94.2083 136.985 96.3805 132.844C98.4287 128.928 105.795 121.485 91.3645 111.847C88.4814 109.938 84.5424 110.744 82.7847 113.722Z" fill="#F0898B"/>
<path opacity="0.1" d="M82.7852 113.722C81.0487 116.663 81.3633 122.04 83.7745 131.872C83.7745 131.872 86.5306 139.363 81.0184 145.67C75.5063 151.976 74.3264 157.483 74.3264 157.483C74.3264 157.483 56.9097 168.17 54.8373 173.053C57.8899 165.859 47.4192 176.158 59.7595 179.163C67.0415 180.938 68.6176 178.375 72.3569 182.906C76.0962 187.438 84.5611 186.844 89.8766 186.257C95.1921 185.669 104.247 179.359 104.247 179.359C104.247 179.359 94.2088 136.985 96.381 132.844C98.4292 128.928 105.796 121.485 91.365 111.847C88.4819 109.938 84.5429 110.744 82.7852 113.722Z" fill="black"/>
<path d="M77.4848 181.144C77.4848 181.144 74.9254 192.575 71.5794 194.15C68.2334 195.726 62.7212 204.004 62.1313 206.961L57.1123 217.702H61.6503L77.4848 199.673C77.4848 199.673 83.6958 197.249 84.9664 192.182C85.1631 191.394 90.4786 177.596 90.4786 177.596L77.4848 181.144Z" fill="#FDB797"/>
<path d="M92.2363 177.596C92.2363 177.596 96.9619 190.21 96.1692 193.76C95.3766 197.31 94.3964 201.841 96.1692 207.754L99.2218 220.861L103.155 220.664L105.221 193.169C105.221 193.169 107.387 189.231 105.221 183.512C103.055 177.793 101.482 170.702 101.482 170.702L92.2363 177.596Z" fill="#FDB797"/>
<path d="M93.216 113.146C93.216 113.146 94.3958 101.124 97.1489 93.8297C97.1489 93.8297 97.9355 90.2826 97.1489 84.9604L95.969 69.9815C95.969 69.9815 96.1657 63.0842 91.8364 63.0842C87.5072 63.0842 92.0331 70.7721 92.0331 70.7721L91.6398 90.2856C91.6398 90.2856 89.0804 110.193 87.3105 112.362L93.216 113.146Z" fill="#FDB797"/>
<path opacity="0.05" d="M93.216 113.146C93.216 113.146 94.3958 101.124 97.1489 93.8297C97.1489 93.8297 97.9355 90.2826 97.1489 84.9604L95.969 69.9815C95.969 69.9815 96.1657 63.0842 91.8364 63.0842C87.5072 63.0842 92.0331 70.7721 92.0331 70.7721L91.6398 90.2856C91.6398 90.2856 89.0804 110.193 87.3105 112.362L93.216 113.146Z" fill="black"/>
<path d="M92.2356 98.9548C92.2356 98.9548 91.449 108.415 93.8118 111.568C93.8118 111.568 88.2997 108.612 83.5771 111.174C83.5771 111.174 86.5299 103.093 85.5466 99.5455L92.2356 98.9548Z" fill="#FDB797"/>
<path opacity="0.1" d="M82.7845 111.75C81.0479 114.691 80.1797 120.068 82.5909 129.9C82.5909 129.9 86.5238 137.391 81.0147 143.698C75.5056 150.004 74.3227 155.511 74.3227 155.511C74.3227 155.511 59.7557 169.112 54.8335 171.081C54.8335 171.081 52.4708 175.416 59.7557 177.191C67.0407 178.966 68.6139 176.403 72.3532 180.935C76.0925 185.466 84.5573 184.872 89.8728 184.285C95.1883 183.697 104.34 179.85 104.34 179.85C104.34 179.85 96.1715 135.019 98.3346 130.872C100.383 126.956 105.78 119.513 91.3522 109.875C88.4812 107.966 84.5422 108.775 82.7845 111.75Z" fill="black"/>
<path d="M82.7845 111.356C81.0479 114.297 80.1797 119.674 82.5909 129.506C82.5909 129.506 86.5238 136.997 81.0147 143.304C75.5056 149.611 74.3227 155.117 74.3227 155.117C74.3227 155.117 59.7557 168.718 54.8335 170.687C54.8335 170.687 52.4708 175.022 59.7557 176.797C67.0407 178.572 68.6139 176.009 72.3532 180.541C76.0925 185.072 84.5573 184.479 89.8728 183.891C95.1883 183.303 104.34 179.456 104.34 179.456C104.34 179.456 96.1715 134.626 98.3346 130.479C100.383 126.562 105.78 119.12 91.3522 109.481C88.4812 107.573 84.5422 108.378 82.7845 111.356Z" fill="#F0898B"/>
<path d="M88.693 122.806C92.3889 122.806 95.385 119.806 95.385 116.106C95.385 112.405 92.3889 109.405 88.693 109.405C84.9971 109.405 82.001 112.405 82.001 116.106C82.001 119.806 84.9971 122.806 88.693 122.806Z" fill="#FDB797"/>
<path opacity="0.1" d="M86.3306 118.862L84.9541 139.557L89.4921 161.633C89.4921 161.633 85.3595 176.218 89.4921 174.837C93.6247 173.456 93.8213 161.436 93.8213 161.436L91.0562 138.385C91.0562 138.385 94.4022 121.04 93.8122 117.484C93.2223 113.928 86.3306 118.862 86.3306 118.862Z" fill="black"/>
<path d="M86.3306 118.468L84.9541 139.163L89.4921 161.239C89.4921 161.239 85.3504 175.824 89.48 174.431C93.6096 173.038 93.8213 161.042 93.8213 161.042L91.0653 137.982C91.0653 137.982 94.4113 120.637 93.8213 117.081C93.2314 113.525 86.3306 118.468 86.3306 118.468Z" fill="#FDB797"/>
<path opacity="0.03" d="M85.4443 105.368C88.2306 105.368 90.7658 104.571 92.1 102.338C92.1181 100.597 92.224 99.3457 92.224 99.3457L85.532 99.9515C85.9556 101.466 85.7226 102.775 85.2295 104.977C85.3717 104.974 85.3202 105.368 85.4443 105.368Z" fill="black"/>
<path d="M85.5445 105.661C89.7851 105.661 93.2227 102.219 93.2227 97.9733C93.2227 93.7274 89.7851 90.2854 85.5445 90.2854C81.3039 90.2854 77.8662 93.7274 77.8662 97.9733C77.8662 102.219 81.3039 105.661 85.5445 105.661Z" fill="#FDB797"/>
<path opacity="0.03" d="M93.9092 127.634C93.9092 127.634 94.5142 130.591 98.3383 130.888L93.9092 127.634Z" fill="black"/>
<path opacity="0.03" d="M73.5367 180.553C69.7974 176.009 68.2212 178.581 60.9392 176.809C53.6573 175.037 56.0049 170.699 56.0049 170.699C60.9271 168.727 75.494 155.13 75.494 155.13C75.494 155.13 76.6739 149.61 82.186 143.316C87.6982 137.021 83.7622 129.518 83.7622 129.518C81.342 119.689 82.2163 114.309 83.9559 111.368C84.4343 110.562 85.0971 109.881 85.8897 109.381C86.6823 108.881 87.5821 108.577 88.515 108.493C87.3828 108.373 86.24 108.58 85.2214 109.09C84.2029 109.599 83.3512 110.39 82.7669 111.368C81.0304 114.309 80.1621 119.686 82.5733 129.518C82.5733 129.518 86.5062 137.009 80.9971 143.316C75.488 149.623 74.3051 155.13 74.3051 155.13C74.3051 155.13 59.7382 168.73 54.816 170.699C54.816 170.699 52.4532 175.034 59.7382 176.809C67.0231 178.584 68.5963 176.021 72.3356 180.553C74.9222 183.688 79.7658 184.372 84.2675 184.3C80.1409 184.233 75.8964 183.415 73.5367 180.553Z" fill="black"/>
<path opacity="0.1" d="M88.3307 106.882C88.0826 106.331 87.5532 105.973 87.1538 105.516C85.8559 104.041 86.0798 101.829 86.0042 99.8634C85.9275 97.9856 85.5081 96.1377 84.7668 94.411C85.2313 94.1804 85.6536 93.8732 86.0163 93.5023C86.644 92.8322 87.0712 91.9991 87.2493 91.0978C87.4275 90.1965 87.3493 89.2633 87.0237 88.4043C86.1003 88.9783 85.0368 89.2864 83.95 89.2949C82.9577 89.2949 81.9805 89.0556 80.9882 88.9919C79.3115 88.8739 77.6368 89.2476 76.1689 90.0673C75.9631 90.0461 75.7574 90.0218 75.5638 89.9885C71.6884 89.4009 68.9958 94.3413 65.1174 96.3648C62.3946 97.7854 61.2964 101.099 60.8819 104.141C60.4674 107.182 60.4039 110.417 58.8247 113.049C57.7416 114.848 55.3184 115.887 54.8646 117.938C53.9781 121.937 54.9614 120.949 55.9446 126.271C56.2713 128.031 56.6919 128.734 57.1063 130.473C57.5541 132.351 57.0579 134.31 56.9914 136.228C56.7766 142.565 61.9347 148.632 68.2183 149.429C68.0409 151.738 67.0937 153.921 65.5288 155.626C68.1306 156.48 71.0077 155.493 73.3009 153.994C77.0154 151.534 79.7266 147.823 80.9428 143.534C82.4888 138.039 81.4239 132.199 81.1788 126.495C80.9337 120.792 81.8323 114.449 86.1645 110.744C87.3716 109.702 88.9811 108.339 88.3307 106.882Z" fill="black"/>
<path d="M87.9371 106.691C87.689 106.14 87.1596 105.782 86.7603 105.325C85.4624 103.85 85.6863 101.639 85.6106 99.6727C85.5339 97.7949 85.1146 95.9469 84.3733 94.2203C84.8377 93.9897 85.2601 93.6825 85.6227 93.3116C86.2516 92.6409 86.6795 91.8067 86.8576 90.9042C87.0358 90.0017 86.957 89.0673 86.6302 88.2075C85.7068 88.7815 84.6433 89.0896 83.5564 89.0981C82.5641 89.0981 81.587 88.8588 80.5947 88.7952C78.918 88.6771 77.2433 89.0508 75.7753 89.8705C75.5696 89.8493 75.3639 89.8251 75.1703 89.7917C71.2948 89.2041 68.6023 94.1446 64.7238 96.168C62.001 97.5887 60.9028 100.903 60.4884 103.944C60.0739 106.985 60.0104 110.22 58.4311 112.852C57.3481 114.652 54.9248 115.691 54.471 117.741C53.5846 121.74 54.5678 120.752 55.551 126.074C55.8778 127.834 56.2983 128.537 56.7128 130.276C57.1605 132.154 56.6644 134.114 56.5978 136.031C56.383 142.368 61.5412 148.435 67.8248 149.232C67.6474 151.541 66.7002 153.724 65.1353 155.43C67.737 156.284 70.6141 155.296 72.9073 153.797C76.6309 151.344 79.3521 147.635 80.5765 143.343C82.1224 137.849 81.0575 132.008 80.8125 126.305C80.5674 120.601 81.4659 114.258 85.7982 110.553C86.9781 109.505 88.5875 108.142 87.9371 106.691Z" fill="#252223"/>
<path d="M61.6259 217.705C61.6259 217.705 62.6091 220.268 64.5786 221.055C64.5786 221.055 69.5008 222.236 66.3514 223.421C64.2337 224.211 59.6019 222.627 56.743 221.488C56.4735 221.377 56.2348 221.202 56.0471 220.978C55.8593 220.755 55.7282 220.489 55.6647 220.204C55.6012 219.919 55.6072 219.623 55.6822 219.341C55.7572 219.059 55.899 218.799 56.0956 218.583L57.097 217.508L61.6259 217.705Z" fill="#333333"/>
<path d="M103.357 220.268C103.357 220.268 105.06 222.761 107.127 223.233C107.127 223.233 112.173 223.636 109.244 225.293C107.296 226.395 102.48 225.565 99.4785 224.884C99.1905 224.819 98.9227 224.684 98.6984 224.492C98.4741 224.3 98.2999 224.056 98.1912 223.781C98.0824 223.506 98.0422 223.209 98.0741 222.915C98.106 222.621 98.2091 222.339 98.3743 222.094L99.1881 220.882L103.357 220.268Z" fill="#333333"/>
<path opacity="0.03" d="M73.8301 155.045C73.8301 155.045 78.368 157.607 83.4748 157.41L73.8301 155.045Z" fill="black"/>
<path opacity="0.3" d="M64.7604 80.768H63.5049L63.7227 80.0107H64.479L64.7604 80.768Z" fill="#6C63FF"/>
<path opacity="0.3" d="M69.3161 72.8044C69.3161 75.6821 66.9805 79.9228 64.1004 79.9228C61.2203 79.9228 58.8848 75.6821 58.8848 72.8135C58.8848 71.4285 59.4343 70.1002 60.4124 69.1208C61.3905 68.1415 62.7171 67.5913 64.1004 67.5913C65.4837 67.5913 66.8103 68.1415 67.7885 69.1208C68.7666 70.1002 69.3161 71.4285 69.3161 72.8135V72.8044Z" fill="#6C63FF"/>
<path d="M64.4792 80.0441H63.7229L63.2842 79.7927H64.9179L64.4792 80.0441Z" fill="#535461"/>
<path opacity="0.1" d="M62.2123 68.7485C62.2123 68.7485 60.0129 69.945 59.6982 72.335L62.2123 68.7485Z" fill="white"/>
<path opacity="0.2" d="M66.0031 73.7799L64.2091 74.8765L62.415 73.7799L64.2091 70.6963L66.0031 73.7799ZM64.2091 75.2309L62.415 74.1343L64.2091 76.7515L66.0031 74.1343L64.2091 75.2309Z" fill="black"/>
<path d="M64.2308 79.9019C63.8984 80.2692 63.652 80.7062 63.5097 81.181C63.3673 81.6557 63.3326 82.1563 63.4079 82.6462C63.6832 84.2941 65.0537 85.9419 64.7784 87.8624C64.5031 89.7828 63.6802 90.8915 63.6802 91.7063" stroke="#535461" stroke-width="0.75" stroke-miterlimit="10"/>
<path opacity="0.3" d="M200.343 97.3039H199.084L199.305 96.5466H200.058L200.343 97.3039Z" fill="#6C63FF"/>
<path opacity="0.3" d="M204.896 89.3406C204.896 92.2243 202.561 96.4499 199.68 96.4499C196.8 96.4499 194.465 92.2092 194.465 89.3406C194.465 87.9556 195.014 86.6273 195.992 85.6479C196.971 84.6686 198.297 84.1184 199.68 84.1184C201.064 84.1184 202.39 84.6686 203.369 85.6479C204.347 86.6273 204.896 87.9556 204.896 89.3406Z" fill="#6C63FF"/>
<path d="M200.058 96.58H199.305L198.866 96.3286H200.5L200.058 96.58Z" fill="#535461"/>
<path opacity="0.1" d="M197.795 85.2844C197.795 85.2844 195.596 86.4809 195.281 88.8709L197.795 85.2844Z" fill="white"/>
<path opacity="0.2" d="M201.586 90.3158L199.792 91.4123L197.998 90.3158L199.792 87.2322L201.586 90.3158ZM199.792 91.7668L197.998 90.6702L199.792 93.2874L201.586 90.6702L199.792 91.7668Z" fill="black"/>
<path d="M199.813 96.4375C199.48 96.8049 199.234 97.2418 199.092 97.7166C198.949 98.1914 198.915 98.6919 198.99 99.1819C199.265 100.83 200.636 102.478 200.36 104.398C200.085 106.318 199.262 107.427 199.262 108.242" stroke="#535461" stroke-width="0.75" stroke-miterlimit="10"/>
<path opacity="0.3" d="M223.783 88.2923L222.552 88.0318L222.924 87.3381L223.662 87.4957L223.783 88.2923Z" fill="#6C63FF"/>
<path opacity="0.3" d="M229.885 81.4374C229.28 84.2605 226.131 87.9106 223.311 87.3139C220.492 86.7172 219.076 82.0978 219.681 79.2777C219.986 77.942 220.803 76.7798 221.956 76.0417C223.109 75.3036 224.505 75.0488 225.844 75.3322C227.183 75.6155 228.357 76.4144 229.113 77.5565C229.869 78.6986 230.146 80.0924 229.885 81.4374Z" fill="#6C63FF"/>
<path d="M223.656 87.526L222.918 87.3715L222.54 87.0322L224.137 87.3715L223.656 87.526Z" fill="#535461"/>
<path opacity="0.1" d="M223.777 76.0063C223.777 76.0063 221.378 76.7212 220.576 78.9931L223.777 76.0063Z" fill="white"/>
<path opacity="0.2" d="M226.445 81.7161L224.464 82.4189L222.933 80.974L225.326 78.3296L226.445 81.7161ZM224.391 82.7642L222.86 81.3193L224.07 84.2545L226.37 82.0645L224.385 82.7672L224.391 82.7642Z" fill="black"/>
<path d="M223.444 87.3352C223.042 87.6256 222.711 88.0019 222.473 88.4369C222.236 88.8718 222.098 89.3544 222.07 89.8494C221.998 91.5184 222.999 93.4146 222.333 95.2381C221.668 97.0617 220.636 97.9643 220.467 98.7701" stroke="#535461" stroke-width="0.75" stroke-miterlimit="10"/>
</g>
<defs>
<linearGradient id="paint0_linear" x1="92.3872" y1="47.0118" x2="92.3872" y2="0.908734" gradientUnits="userSpaceOnUse">
<stop stop-color="#808080" stop-opacity="0.25"/>
<stop offset="0.54" stop-color="#808080" stop-opacity="0.12"/>
<stop offset="1" stop-color="#808080" stop-opacity="0.1"/>
</linearGradient>
<linearGradient id="paint1_linear" x1="28431.9" y1="134258" x2="28431.9" y2="42729.6" gradientUnits="userSpaceOnUse">
<stop stop-color="#808080" stop-opacity="0.25"/>
<stop offset="0.54" stop-color="#808080" stop-opacity="0.12"/>
<stop offset="1" stop-color="#808080" stop-opacity="0.1"/>
</linearGradient>
<clipPath id="clip0">
<rect width="230" height="238" fill="white" transform="translate(0 0.908691)"/>
</clipPath>
</defs>
</svg>
