<svg width="92" height="91" viewBox="0 0 92 91" fill="none" xmlns="http://www.w3.org/2000/svg">
<path d="M89.4864 47.017C90.3206 47.017 91.0031 46.3345 91.0031 45.5004C91.0031 41.3106 87.6095 37.917 83.4197 37.917H48.5364C44.3466 37.917 40.9531 41.3106 40.9531 45.5004C40.9531 46.3345 41.6356 47.017 42.4697 47.017H47.0197V50.202C43.4935 50.9224 40.9531 54.0316 40.9531 57.6337V77.3504C40.9531 81.5402 44.3466 84.9337 48.5364 84.9337H83.4197C87.6095 84.9337 91.0031 81.5402 91.0031 77.3504V57.6337C91.0031 53.4439 87.6095 50.0504 83.4197 50.0504V47.017H89.4864ZM43.9864 59.1504H68.2531V75.8337H43.9864V59.1504ZM83.4197 81.9004H48.5364C46.6216 81.9004 44.9153 80.687 44.2708 78.867H87.7043C87.0408 80.687 85.3345 81.9004 83.4197 81.9004ZM71.2864 75.8337V59.1504H81.9031V75.8337H71.2864ZM87.9697 75.8337H84.9364V59.1504H87.9697V75.8337ZM87.6853 56.117H44.2708C44.9153 54.297 46.6216 53.0837 48.5364 53.0837H83.4197C85.3345 53.0837 87.0408 54.297 87.6853 56.117ZM50.0531 50.0504V47.017H80.3864V50.0504H50.0531ZM44.2518 43.9837C44.8964 42.1637 46.6216 40.9504 48.5364 40.9504H83.4197C85.3535 40.9504 87.0597 42.1637 87.7043 43.9837H44.2518Z" fill="black"/>
<path d="M3.1124 8.85354L7.58653 77.4448C7.64343 78.241 8.30703 78.8667 9.10323 78.8667V81.9H7.58653C7.15053 81.9 6.73343 82.0896 6.44903 82.4119C6.16473 82.7342 6.03203 83.1702 6.08883 83.6062C6.25953 84.8385 7.26423 91 11.2645 91H31.2276C35.2088 91 36.2326 84.8575 36.4032 83.6062C36.4601 83.1702 36.3274 82.7342 36.043 82.4119C35.7586 82.0896 35.3415 81.9 34.9055 81.9H33.3888V78.8667C34.1851 78.8667 34.8486 78.241 34.9055 77.4448L39.3797 8.83458C41.503 8.13312 42.7922 5.99083 42.432 3.79167C42.0528 1.61146 40.138 0 37.9199 0H4.55323C2.31615 0 0.420317 1.61146 0.0601069 3.81063C-0.300103 6.00979 0.989067 8.15208 3.1124 8.85354ZM31.2276 87.9667H11.2455C10.6009 87.9667 9.88053 86.5637 9.44453 84.9333H33.0286C32.5736 86.5448 31.8532 87.9667 31.2276 87.9667ZM10.6199 75.8333H10.5251L10.3355 72.8H32.1565L31.967 75.8333H10.6199ZM30.3365 78.8667V81.9H12.1365V78.8667H30.3365ZM32.3461 69.7667H10.127L8.93263 51.5667H33.5215L32.3461 69.7667ZM33.7301 48.5333H8.74303L6.16473 9.1H10.6199V16.6833C10.6199 17.5175 11.3024 18.2 12.1365 18.2C12.9707 18.2 13.6532 17.5175 13.6532 16.6833V9.1H16.6865V13.65C16.6865 14.4842 17.369 15.1667 18.2032 15.1667C19.0374 15.1667 19.7199 14.4842 19.7199 13.65V9.1H36.3084L33.7301 48.5333ZM4.55323 3.03333H37.9199C38.754 3.03333 39.4365 3.71583 39.4365 4.55C39.4365 5.38417 38.754 6.06667 37.9199 6.06667H4.55323C3.71907 6.06667 3.03657 5.38417 3.03657 4.55C3.03657 3.71583 3.71907 3.03333 4.55323 3.03333Z" fill="black"/>
<path d="M10.6191 34.8833C10.6191 40.7414 15.3776 45.5 21.2358 45.5C27.0939 45.5 31.8524 40.7414 31.8524 34.8833C31.8524 29.0252 27.0939 24.2666 21.2358 24.2666C15.3776 24.2666 10.6191 29.0252 10.6191 34.8833ZM21.2358 27.3C25.4256 27.3 28.8191 30.6935 28.8191 34.8833C28.8191 39.0731 25.4256 42.4666 21.2358 42.4666C17.046 42.4666 13.6524 39.0731 13.6524 34.8833C13.6524 30.6935 17.046 27.3 21.2358 27.3Z" fill="#00C7C7"/>
<path d="M48.5362 65.217H56.1195C56.9537 65.217 57.6362 64.5345 57.6362 63.7003C57.6362 62.8661 56.9537 62.1836 56.1195 62.1836H48.5362C47.702 62.1836 47.0195 62.8661 47.0195 63.7003C47.0195 64.5345 47.702 65.217 48.5362 65.217Z" fill="#00C7C7"/>
<path d="M63.7028 68.25H48.5362C47.702 68.25 47.0195 68.9325 47.0195 69.7667C47.0195 70.6008 47.702 71.2833 48.5362 71.2833H63.7028C64.537 71.2833 65.2195 70.6008 65.2195 69.7667C65.2195 68.9325 64.537 68.25 63.7028 68.25Z" fill="#00C7C7"/>
<path d="M60.6702 34.8833C64.0258 34.8833 66.7368 32.1723 66.7368 28.8167C66.7368 25.461 64.0258 22.75 60.6702 22.75C57.3145 22.75 54.6035 25.461 54.6035 28.8167C54.6035 32.1723 57.3145 34.8833 60.6702 34.8833ZM60.6702 25.7833C62.3385 25.7833 63.7035 27.1483 63.7035 28.8167C63.7035 30.485 62.3385 31.85 60.6702 31.85C59.0018 31.85 57.6368 30.485 57.6368 28.8167C57.6368 27.1483 59.0018 25.7833 60.6702 25.7833Z" fill="#00C7C7"/>
<path d="M74.3195 25.7836C76.841 25.7836 78.8695 23.7551 78.8695 21.2336C78.8695 18.7122 76.841 16.6836 74.3195 16.6836C71.798 16.6836 69.7695 18.7122 69.7695 21.2336C69.7695 23.7551 71.798 25.7836 74.3195 25.7836ZM74.3195 19.717C75.1537 19.717 75.8362 20.3995 75.8362 21.2336C75.8362 22.0678 75.1537 22.7503 74.3195 22.7503C73.4853 22.7503 72.8028 22.0678 72.8028 21.2336C72.8028 20.3995 73.4853 19.717 74.3195 19.717Z" fill="#00C7C7"/>
</svg>
