<svg width="145" height="145" viewBox="0 0 145 145" fill="none" xmlns="http://www.w3.org/2000/svg">
<g clip-path="url(#clip0)">
<path d="M87.1943 28.3364H58.0613C55.9173 28.3364 54.1737 26.5917 54.1737 24.4477V12.7327C54.1737 10.5887 55.9173 8.84509 58.0613 8.84509H87.1943C89.3384 8.84509 91.082 10.5887 91.082 12.7327V24.4477C91.082 26.5917 89.3384 28.3364 87.1943 28.3364ZM58.422 24.0881H86.8336V13.0934H58.422V24.0881ZM87.1943 13.0934H87.1965H87.1943Z" fill="black"/>
<path d="M77.1609 13.0934H68.0934C67.3677 13.0934 66.6917 12.7228 66.3023 12.1099C65.4637 10.7923 65.02 9.26552 65.02 7.69675C65.02 3.29688 68.4319 -0.283203 72.6271 -0.283203C76.8223 -0.283203 80.2354 3.29688 80.2354 7.69675C80.2354 9.26663 79.7917 10.7923 78.9531 12.1099C78.5626 12.7228 77.8866 13.0934 77.1609 13.0934ZM69.4354 8.84512H75.8189C75.9295 8.47561 75.9871 8.0895 75.9871 7.69675C75.9871 5.63898 74.4802 3.9651 72.6271 3.9651C70.7751 3.9651 69.2683 5.63898 69.2683 7.69675C69.2683 8.0895 69.3247 8.47561 69.4354 8.84512Z" fill="black"/>
<path d="M102.223 56.3H72.9159C71.7421 56.3 70.7906 55.3497 70.7906 54.1759C70.7906 53.0031 71.7421 52.0517 72.9159 52.0517H102.223C103.396 52.0517 104.347 53.0031 104.347 54.1759C104.347 55.3497 103.396 56.3 102.223 56.3Z" fill="black"/>
<path d="M102.223 65.6219H72.9159C71.7421 65.6219 70.7906 64.6716 70.7906 63.4977C70.7906 62.325 71.7421 61.3736 72.9159 61.3736H102.223C103.396 61.3736 104.347 62.325 104.347 63.4977C104.347 64.6716 103.396 65.6219 102.223 65.6219Z" fill="black"/>
<path d="M102.223 74.9438H72.9159C71.7421 74.9438 70.7906 73.9935 70.7906 72.8196C70.7906 71.6469 71.7421 70.6955 72.9159 70.6955H102.223C103.396 70.6955 104.347 71.6469 104.347 72.8196C104.347 73.9935 103.396 74.9438 102.223 74.9438Z" fill="black"/>
<path d="M102.223 93.5888H72.9159C71.7421 93.5888 70.7906 92.6374 70.7906 91.4647C70.7906 90.2909 71.7421 89.3394 72.9159 89.3394H102.223C103.396 89.3394 104.347 90.2909 104.347 91.4647C104.347 92.6374 103.396 93.5888 102.223 93.5888Z" fill="black"/>
<path d="M102.223 102.911H72.9159C71.7421 102.911 70.7906 101.959 70.7906 100.787C70.7906 99.6128 71.7421 98.6624 72.9159 98.6624H102.223C103.396 98.6624 104.347 99.6128 104.347 100.787C104.347 101.959 103.396 102.911 102.223 102.911Z" fill="black"/>
<path d="M102.223 112.233H72.9159C71.7421 112.233 70.7906 111.281 70.7906 110.109C70.7906 108.935 71.7421 107.984 72.9159 107.984H102.223C103.396 107.984 104.347 108.935 104.347 110.109C104.347 111.281 103.396 112.233 102.223 112.233Z" fill="black"/>
<path d="M51.1334 69.1644C50.5692 69.1644 50.0293 68.9409 49.6311 68.5415L45.9735 64.8851C45.1449 64.0553 45.1449 62.71 45.9735 61.8814C46.8033 61.0517 48.1486 61.0517 48.9783 61.8814L51.1334 64.0354L55.5433 59.6256C56.373 58.7958 57.7183 58.7947 58.5481 59.6256C59.3778 60.4542 59.3778 61.7995 58.5481 62.6293L52.6347 68.5415C52.2365 68.9409 51.6966 69.1644 51.1334 69.1644Z" fill="black"/>
<path d="M52.0406 77.4109C44.3694 77.4109 38.1274 71.1701 38.1274 63.4977C38.1274 55.8264 44.3694 49.5845 52.0406 49.5845C59.7119 49.5845 65.9538 55.8264 65.9538 63.4977C65.9538 71.1701 59.7119 77.4109 52.0406 77.4109ZM52.0406 53.8339C46.7114 53.8339 42.3757 58.1685 42.3757 63.4977C42.3757 68.8269 46.7114 73.1626 52.0406 73.1626C57.3698 73.1626 61.7055 68.8269 61.7055 63.4977C61.7055 58.1685 57.3698 53.8339 52.0406 53.8339Z" fill="black"/>
<path d="M51.1334 106.452C50.5891 106.452 50.0459 106.245 49.6311 105.83L45.9735 102.174C45.1449 101.344 45.1449 99.9989 45.9735 99.1692C46.8033 98.3394 48.1486 98.3394 48.9783 99.1692L51.1334 101.324L55.5444 96.9134C56.373 96.0836 57.7183 96.0836 58.5481 96.9134C59.3778 97.7431 59.3778 99.0884 58.5481 99.9182L52.6358 105.83C52.221 106.244 51.6767 106.452 51.1334 106.452Z" fill="black"/>
<path d="M52.0406 114.7C44.3694 114.7 38.1274 108.458 38.1274 100.787C38.1274 93.1142 44.3694 86.8734 52.0406 86.8734C59.7119 86.8734 65.9538 93.1142 65.9538 100.787C65.9538 108.458 59.7119 114.7 52.0406 114.7ZM52.0406 91.1217C46.7114 91.1217 42.3757 95.4574 42.3757 100.787C42.3757 106.116 46.7114 110.452 52.0406 110.452C57.3698 110.452 61.7055 106.116 61.7055 100.787C61.7055 95.4574 57.3698 91.1217 52.0406 91.1217Z" fill="black"/>
<path d="M102.223 56.3H72.9159C71.7421 56.3 70.7906 55.3497 70.7906 54.1759C70.7906 53.0031 71.7421 52.0517 72.9159 52.0517H102.223C103.396 52.0517 104.347 53.0031 104.347 54.1759C104.347 55.3497 103.396 56.3 102.223 56.3Z" fill="#00C7C7"/>
<path d="M102.223 65.6219H72.9159C71.7421 65.6219 70.7906 64.6716 70.7906 63.4977C70.7906 62.325 71.7421 61.3736 72.9159 61.3736H102.223C103.396 61.3736 104.347 62.325 104.347 63.4977C104.347 64.6716 103.396 65.6219 102.223 65.6219Z" fill="#00C7C7"/>
<path d="M102.223 74.9438H72.9159C71.7421 74.9438 70.7906 73.9935 70.7906 72.8196C70.7906 71.6469 71.7421 70.6955 72.9159 70.6955H102.223C103.396 70.6955 104.347 71.6469 104.347 72.8196C104.347 73.9935 103.396 74.9438 102.223 74.9438Z" fill="#00C7C7"/>
<path d="M102.223 93.5888H72.9159C71.7421 93.5888 70.7906 92.6374 70.7906 91.4647C70.7906 90.2909 71.7421 89.3394 72.9159 89.3394H102.223C103.396 89.3394 104.347 90.2909 104.347 91.4647C104.347 92.6374 103.396 93.5888 102.223 93.5888Z" fill="#00C7C7"/>
<path d="M102.223 102.911H72.9159C71.7421 102.911 70.7906 101.959 70.7906 100.787C70.7906 99.6128 71.7421 98.6624 72.9159 98.6624H102.223C103.396 98.6624 104.347 99.6128 104.347 100.787C104.347 101.959 103.396 102.911 102.223 102.911Z" fill="#00C7C7"/>
<path d="M102.223 112.233H72.9159C71.7421 112.233 70.7906 111.281 70.7906 110.109C70.7906 108.935 71.7421 107.984 72.9159 107.984H102.223C103.396 107.984 104.347 108.935 104.347 110.109C104.347 111.281 103.396 112.233 102.223 112.233Z" fill="#00C7C7"/>
<path d="M51.1334 69.1644C50.5692 69.1644 50.0293 68.9409 49.6311 68.5415L45.9735 64.8851C45.1449 64.0553 45.1449 62.71 45.9735 61.8814C46.8033 61.0517 48.1486 61.0517 48.9783 61.8814L51.1334 64.0354L55.5433 59.6256C56.373 58.7958 57.7183 58.7947 58.5481 59.6256C59.3778 60.4542 59.3778 61.7995 58.5481 62.6293L52.6347 68.5415C52.2365 68.9409 51.6966 69.1644 51.1334 69.1644Z" fill="#00C7C7"/>
<path d="M52.0406 77.4109C44.3694 77.4109 38.1274 71.1701 38.1274 63.4977C38.1274 55.8264 44.3694 49.5845 52.0406 49.5845C59.7119 49.5845 65.9538 55.8264 65.9538 63.4977C65.9538 71.1701 59.7119 77.4109 52.0406 77.4109ZM52.0406 53.8339C46.7114 53.8339 42.3757 58.1685 42.3757 63.4977C42.3757 68.8269 46.7114 73.1626 52.0406 73.1626C57.3698 73.1626 61.7055 68.8269 61.7055 63.4977C61.7055 58.1685 57.3698 53.8339 52.0406 53.8339Z" fill="#00C7C7"/>
<path d="M51.1334 106.452C50.5891 106.452 50.0459 106.245 49.6311 105.83L45.9735 102.174C45.1449 101.344 45.1449 99.9989 45.9735 99.1692C46.8033 98.3394 48.1486 98.3394 48.9783 99.1692L51.1334 101.324L55.5444 96.9134C56.373 96.0836 57.7183 96.0836 58.5481 96.9134C59.3778 97.7431 59.3778 99.0884 58.5481 99.9182L52.6358 105.83C52.221 106.244 51.6767 106.452 51.1334 106.452Z" fill="#00C7C7"/>
<path d="M52.0406 114.7C44.3694 114.7 38.1274 108.458 38.1274 100.787C38.1274 93.1142 44.3694 86.8734 52.0406 86.8734C59.7119 86.8734 65.9538 93.1142 65.9538 100.787C65.9538 108.458 59.7119 114.7 52.0406 114.7ZM52.0406 91.1217C46.7114 91.1217 42.3757 95.4574 42.3757 100.787C42.3757 106.116 46.7114 110.452 52.0406 110.452C57.3698 110.452 61.7055 106.116 61.7055 100.787C61.7055 95.4574 57.3698 91.1217 52.0406 91.1217Z" fill="#00C7C7"/>
<path d="M111.83 135.039H77.5836C76.4109 135.039 75.4595 134.087 75.4595 132.913C75.4595 131.741 76.4109 130.789 77.5836 130.789H110.911V44.0441H98.5309C96.6955 44.0441 95.2019 42.5506 95.2019 40.7152V28.3364H34.345V130.789H67.6709C68.8436 130.789 69.7951 131.74 69.7951 132.913C69.7951 134.087 68.8436 135.037 67.6709 135.037H33.4256C31.5902 135.037 30.0967 133.545 30.0967 131.709V27.4171C30.0967 25.5817 31.5902 24.0881 33.4256 24.0881H97.3261C98.4988 24.0881 99.4502 25.0385 99.4502 26.2123V39.7958H113.035C114.208 39.7958 115.159 40.7472 115.159 41.92V131.71C115.159 133.545 113.665 135.039 111.83 135.039Z" fill="black"/>
<path d="M113.035 44.0441C112.491 44.0441 111.947 43.8372 111.532 43.4223L95.8237 27.7136C95.4088 27.2998 95.2019 26.7555 95.2019 26.2123C95.2019 25.668 95.4088 25.1248 95.8237 24.7099C96.6534 23.8801 97.9987 23.8801 98.8285 24.7099L114.536 40.4187C114.951 40.8324 115.158 41.3767 115.158 41.92C115.158 42.4643 114.951 43.0075 114.536 43.4223C114.121 43.8372 113.578 44.0441 113.035 44.0441Z" fill="black"/>
<path d="M119.298 144.726H25.9567C23.1964 144.726 20.9506 142.48 20.9506 139.719V20.1596C20.9506 17.3993 23.1964 15.1534 25.9567 15.1534H56.2978C57.4705 15.1534 58.4219 16.1049 58.4219 17.2776V24.0871H86.8336V17.2776C86.8336 16.1049 87.7839 15.1534 88.9577 15.1534H119.298C122.058 15.1534 124.304 17.3993 124.304 20.1596V73.0122C124.304 74.1861 123.353 75.1375 122.18 75.1375C121.007 75.1375 120.056 74.1861 120.056 73.0122V20.1596C120.056 19.7491 119.708 19.4017 119.298 19.4017H91.0819V24.4477C91.0819 26.5918 89.3383 28.3365 87.1931 28.3365H58.0613C55.9172 28.3365 54.1736 26.5918 54.1736 24.4477V19.4017H25.9567C25.5463 19.4017 25.1989 19.7491 25.1989 20.1596V139.719C25.1989 140.13 25.5463 140.477 25.9567 140.477H119.298C119.709 140.477 120.057 140.13 120.057 139.719V82.9261C120.057 81.7522 121.007 80.8019 122.181 80.8019C123.353 80.8019 124.305 81.7522 124.305 82.9261V139.719C124.304 142.48 122.058 144.726 119.298 144.726Z" fill="black"/>
</g>
<defs>
<clipPath id="clip0">
<rect width="145" height="145" fill="white"/>
</clipPath>
</defs>
</svg>
