<?xml version="1.0" encoding="utf-8"?>
<!-- Generator: Adobe Illustrator 24.0.1, SVG Export Plug-In . SVG Version: 6.00 Build 0)  -->
<svg version="1.1" id="Capa_1" xmlns="http://www.w3.org/2000/svg" xmlns:xlink="http://www.w3.org/1999/xlink" x="0px" y="0px"
	 viewBox="0 0 497.2 497.2" style="enable-background:new 0 0 497.2 497.2;" xml:space="preserve">
<style type="text/css">
	.st0{fill:#00C7C7;}
</style>
<g>
	<g>
		<path d="M466.3,240c-33.4,0-64.5-16.6-83-44.4l-6.7-10l-6.7,10c-18.6,27.8-49.6,44.4-83,44.4h-30.3v128.3c0,31,14,60.2,37.3,79.7
			H128.6v-32h104V272h-168v64h-48V16h352v144h16V0H0.6v347.3L117.3,464h201.2l58.1,33.2l67.6-38.6c32.3-18.5,52.4-53.1,52.4-90.3
			V240H466.3z M112.6,436.7L27.9,352h84.7C112.6,352,112.6,436.7,112.6,436.7z M80.6,336v-48h136v112h-88v-64H80.6z M480.6,368.3
			c0,31.5-17,60.8-44.3,76.4l-59.7,34.1l-59.7-34.1c-27.3-15.6-44.3-44.9-44.3-76.4V256h14.3c35,0,67.8-15.7,89.7-42.5
			c21.9,26.8,54.6,42.5,89.7,42.5h14.3V368.3z"/>
	</g>
</g>
<g>
	<g>
		<path class="st0" d="M48.6,32v48h288V32H48.6z M320.6,64h-256V48h256V64z"/>
	</g>
</g>
<g>
	<g>
		<rect x="96.6" y="304" width="104" height="16"/>
	</g>
</g>
<g>
	<g>
		<rect x="144.6" y="336" width="56" height="16"/>
	</g>
</g>
<g>
	<g>
		<rect x="144.6" y="368" width="56" height="16"/>
	</g>
</g>
<g>
	<g>
		<rect x="48.6" y="112" width="256" height="16"/>
	</g>
</g>
<g>
	<g>
		<rect x="48.6" y="144" width="256" height="16"/>
	</g>
</g>
<g>
	<g>
		<rect x="48.6" y="176" width="256" height="16"/>
	</g>
</g>
<g>
	<g>
		<rect x="48.6" y="208" width="152" height="16"/>
	</g>
</g>
<g>
	<g>
		<rect x="48.6" y="240" width="152" height="16"/>
	</g>
</g>
<g>
	<g>
		<rect x="320.6" y="112" width="16" height="16"/>
	</g>
</g>
<g>
	<g>
		<rect x="320.6" y="144" width="16" height="16"/>
	</g>
</g>
<g>
	<g>
		<rect x="320.6" y="176" width="16" height="16"/>
	</g>
</g>
<g>
	<g>
		<rect x="216.6" y="208" width="16" height="16"/>
	</g>
</g>
<g>
	<g>
		<rect x="216.6" y="240" width="16" height="16"/>
	</g>
</g>
<g>
	<g>
		<g>
			<path class="st0" d="M421.8,297.7l-8.1,10.4c17.4,13.6,26.1,35.5,22.7,57.3c-2.5,16-11.1,30-24.2,39.5
				c-13.1,9.5-29.1,13.4-45,10.9c-33-5.2-55.6-36.2-50.4-69.2c2.5-16,11.1-30,24.2-39.5c11.4-8.3,25.1-12.3,39-11.5l-11.4,11.9
				l8.4,8l17.9-18.8l0,0l8-8.4l-8.4-8l0,0l-18.8-18l-8,8.4l12.3,11.7c-16.7-0.8-33,4.1-46.7,14c-15.9,11.6-26.4,28.7-29.4,48.1
				c-6.3,40.1,21.2,77.9,61.4,84.3c3.9,0.6,7.8,0.9,11.6,0.9c15.5,0,30.5-4.9,43.2-14.1c15.9-11.6,26.4-28.7,29.4-48.1
				C453.6,340.9,443,314.2,421.8,297.7z"/>
			<path class="st0" d="M383.8,393.5L383.8,393.5L383.8,393.5l0-7.6c9-1,17.7-6.7,17.7-17.4c0-14.6-13.6-16.3-23.5-17.5
				c-6.3-0.8-11.2-1.6-11.2-5.5c0-5.3,7.5-5.9,10.8-5.9c4.8,0,9.9,2.3,11.7,5.1l0.5,0.8l10-4.6l-0.5-1c-3.7-7.6-10.4-9.8-15.4-10.7
				v-6.7h-11.7v6.6c-10.9,1.6-17.3,7.6-17.3,16.3c0,14.1,12.8,15.5,22.1,16.6c8.3,1,12.2,3,12.2,6.5c0,6.5-9.1,7-11.8,7
				c-6.2,0-12.1-3.1-13.9-7.2l-0.4-1l-10.8,4.6l0.4,1c3.2,7.5,10.1,12.2,19.6,13.3v7.2H383.8z"/>
		</g>
	</g>
</g>
</svg>
