<svg width="49" height="49" viewBox="0 0 49 49" fill="none" xmlns="http://www.w3.org/2000/svg">
<path d="M44.2148 4.21094H39.653V2.87109C39.653 1.28797 38.365 0 36.7819 0C35.1987 0 33.9108 1.28797 33.9108 2.87109V4.21094H17.8326V2.87109C17.8326 1.28797 16.5447 0 14.9616 0C13.3784 0 12.0905 1.28797 12.0905 2.87109V4.24635C12.0091 4.22386 11.9238 4.21094 11.8353 4.21094H8.02212C5.38359 4.21094 3.23697 6.35756 3.23697 8.99609V25.2975C3.23697 25.8261 3.66553 26.2545 4.194 26.2545C4.72247 26.2545 5.15103 25.8261 5.15103 25.2975V14.0684H39.653C40.1814 14.0684 40.61 13.6399 40.61 13.1113C40.61 12.5828 40.1814 12.1543 39.653 12.1543H5.15103V8.99609C5.15103 7.41297 6.439 6.125 8.02212 6.125H11.8353C11.9238 6.125 12.0091 6.11198 12.0905 6.08959V7.32129C12.0905 8.90441 13.3784 10.1924 14.9616 10.1924C16.5447 10.1924 17.8326 8.90441 17.8326 7.32129V6.125H33.9108V7.32129C33.9108 8.90441 35.1987 10.1924 36.7819 10.1924C38.365 10.1924 39.653 8.90441 39.653 7.32129V6.125H44.2148C45.798 6.125 47.0859 7.41297 47.0859 8.99609V45.3627C47.0859 46.3128 46.3129 47.0859 45.3627 47.0859C44.4125 47.0859 43.6395 46.3128 43.6395 45.3627V42.887C43.6395 42.3584 43.2109 41.9299 42.6824 41.9299H31.5502C31.0217 41.9299 30.5931 42.3584 30.5931 42.887C30.5931 43.4155 31.0217 43.844 31.5502 43.844H41.7254V45.3627C41.7254 45.9858 41.8831 46.5727 42.1604 47.0859H3.63672C2.68687 47.0859 1.91406 46.3131 1.91406 45.3633V43.844H23.3348C23.8633 43.844 24.2918 43.4155 24.2918 42.887C24.2918 42.3584 23.8633 41.9299 23.3348 41.9299H13.7725C15.4449 40.4897 16.5068 38.3593 16.5068 35.9844C16.5068 31.6572 12.9863 28.1367 8.65912 28.1367C4.33191 28.1367 0.811467 31.6572 0.811467 35.9844C0.811467 38.3593 1.87339 40.4897 3.54571 41.9299H0.957031C0.428559 41.9299 0 42.3584 0 42.887V45.3633C0 47.3685 1.63145 49 3.63672 49H45.3627C47.3683 49 49 47.3684 49 45.3627V8.99609C49 6.35756 46.8534 4.21094 44.2148 4.21094ZM15.9186 7.32129C15.9186 7.849 15.4893 8.27832 14.9616 8.27832C14.4338 8.27832 14.0045 7.849 14.0045 7.32129V2.87109C14.0045 2.34339 14.4338 1.91406 14.9616 1.91406C15.4893 1.91406 15.9186 2.34339 15.9186 2.87109V7.32129ZM37.7389 7.32129C37.7389 7.849 37.3096 8.27832 36.7819 8.27832C36.2542 8.27832 35.8248 7.849 35.8248 7.32129V2.87109C35.8248 2.34339 36.2542 1.91406 36.7819 1.91406C37.3096 1.91406 37.7389 2.34339 37.7389 2.87109V7.32129ZM2.72553 35.9844C2.72553 32.7126 5.38732 30.0508 8.65912 30.0508C11.9309 30.0508 14.5927 32.7126 14.5927 35.9844C14.5927 39.2562 11.9309 41.918 8.65912 41.918C5.38732 41.918 2.72553 39.2562 2.72553 35.9844Z" fill="#C4C4C4"/>
<path d="M44.8186 12.4347C44.6407 12.2567 44.3938 12.1543 44.1421 12.1543C43.8903 12.1543 43.6435 12.2567 43.4655 12.4347C43.2875 12.6127 43.1851 12.8596 43.1851 13.1113C43.1851 13.363 43.2874 13.6099 43.4655 13.7879C43.6436 13.966 43.8903 14.0684 44.1421 14.0684C44.3938 14.0684 44.6407 13.966 44.8186 13.7879C44.9966 13.6099 45.0991 13.363 45.0991 13.1113C45.0991 12.8596 44.9967 12.6127 44.8186 12.4347Z" fill="#C4C4C4"/>
<path d="M28.5817 42.2101C28.4038 42.0321 28.1569 41.9307 27.9052 41.9307C27.6535 41.9307 27.4065 42.0321 27.2285 42.2101C27.0505 42.3891 26.9481 42.635 26.9481 42.8867C26.9481 43.1394 27.0504 43.3854 27.2285 43.5643C27.4065 43.7423 27.6535 43.8438 27.9052 43.8438C28.1569 43.8438 28.4038 43.7423 28.5817 43.5643C28.7597 43.3854 28.8622 43.1384 28.8622 42.8867C28.8622 42.635 28.7598 42.3891 28.5817 42.2101Z" fill="#C4C4C4"/>
<path d="M21.6523 29.0938C19.6471 29.0938 18.0156 30.7252 18.0156 32.7305C18.0156 34.7357 19.6471 36.3672 21.6523 36.3672C23.6576 36.3672 25.2891 34.7357 25.2891 32.7305C25.2891 30.7252 23.6576 29.0938 21.6523 29.0938ZM21.6523 34.4531C20.7025 34.4531 19.9297 33.6803 19.9297 32.7305C19.9297 31.7806 20.7025 31.0078 21.6523 31.0078C22.6022 31.0078 23.375 31.7806 23.375 32.7305C23.375 33.6803 22.6022 34.4531 21.6523 34.4531Z" fill="#C4C4C4"/>
<path d="M30.5846 29.0938C28.5793 29.0938 26.9479 30.7252 26.9479 32.7305C26.9479 34.7357 28.5793 36.3672 30.5846 36.3672C32.5899 36.3672 34.2213 34.7357 34.2213 32.7305C34.2213 30.7252 32.5899 29.0938 30.5846 29.0938ZM30.5846 34.4531C29.6347 34.4531 28.8619 33.6803 28.8619 32.7305C28.8619 31.7806 29.6347 31.0078 30.5846 31.0078C31.5344 31.0078 32.3073 31.7806 32.3073 32.7305C32.3073 33.6803 31.5344 34.4531 30.5846 34.4531Z" fill="#C4C4C4"/>
<path d="M39.517 29.0938C37.5117 29.0938 35.8802 30.7252 35.8802 32.7305C35.8802 34.7357 37.5117 36.3672 39.517 36.3672C41.5222 36.3672 43.1537 34.7357 43.1537 32.7305C43.1537 30.7252 41.5222 29.0938 39.517 29.0938ZM39.517 34.4531C38.5671 34.4531 37.7943 33.6803 37.7943 32.7305C37.7943 31.7806 38.5671 31.0078 39.517 31.0078C40.4668 31.0078 41.2396 31.7806 41.2396 32.7305C41.2396 33.6803 40.4668 34.4531 39.517 34.4531Z" fill="#C4C4C4"/>
<path d="M12.7201 19.1406C10.7148 19.1406 9.08337 20.7721 9.08337 22.7773C9.08337 24.7826 10.7148 26.4141 12.7201 26.4141C14.7254 26.4141 16.3568 24.7826 16.3568 22.7773C16.3568 20.7721 14.7254 19.1406 12.7201 19.1406ZM12.7201 24.5C11.7702 24.5 10.9974 23.7272 10.9974 22.7773C10.9974 21.8275 11.7702 21.0547 12.7201 21.0547C13.6699 21.0547 14.4427 21.8275 14.4427 22.7773C14.4427 23.7272 13.6699 24.5 12.7201 24.5Z" fill="#C4C4C4"/>
<path d="M30.5846 19.1406C28.5793 19.1406 26.9479 20.7721 26.9479 22.7773C26.9479 24.7826 28.5793 26.4141 30.5846 26.4141C32.5899 26.4141 34.2213 24.7826 34.2213 22.7773C34.2213 20.7721 32.5899 19.1406 30.5846 19.1406ZM30.5846 24.5C29.6347 24.5 28.8619 23.7272 28.8619 22.7773C28.8619 21.8275 29.6347 21.0547 30.5846 21.0547C31.5344 21.0547 32.3073 21.8275 32.3073 22.7773C32.3073 23.7272 31.5344 24.5 30.5846 24.5Z" fill="#C4C4C4"/>
<path d="M39.517 19.1406C37.5117 19.1406 35.8802 20.7721 35.8802 22.7773C35.8802 24.7826 37.5117 26.4141 39.517 26.4141C41.5222 26.4141 43.1537 24.7826 43.1537 22.7773C43.1537 20.7721 41.5222 19.1406 39.517 19.1406ZM39.517 24.5C38.5671 24.5 37.7943 23.7272 37.7943 22.7773C37.7943 21.8275 38.5671 21.0547 39.517 21.0547C40.4668 21.0547 41.2396 21.8275 41.2396 22.7773C41.2396 23.7272 40.4668 24.5 39.517 24.5Z" fill="#C4C4C4"/>
<path d="M21.6523 19.1406C19.6471 19.1406 18.0156 20.7721 18.0156 22.7773C18.0156 24.7826 19.6471 26.4141 21.6523 26.4141C23.6576 26.4141 25.2891 24.7826 25.2891 22.7773C25.2891 20.7721 23.6576 19.1406 21.6523 19.1406ZM21.6523 24.5C20.7025 24.5 19.9297 23.7272 19.9297 22.7773C19.9297 21.8275 20.7025 21.0547 21.6523 21.0547C22.6022 21.0547 23.375 21.8275 23.375 22.7773C23.375 23.7272 22.6022 24.5 21.6523 24.5Z" fill="#C4C4C4"/>
<path d="M12.0685 33.6519C11.6947 33.2782 11.0889 33.2782 10.715 33.6519L7.59831 36.7686L6.53323 35.7036C6.15942 35.3298 5.55362 35.3298 5.1797 35.7036C4.80598 36.0773 4.80598 36.6833 5.1797 37.0571L6.9216 38.7988C7.10113 38.9782 7.34451 39.0791 7.59831 39.0791C7.85212 39.0791 8.09549 38.9782 8.27503 38.7988L12.0685 35.0053C12.4422 34.6316 12.4422 34.0256 12.0685 33.6519Z" fill="#C4C4C4"/>
</svg>
