<svg width="10" height="18" viewBox="0 0 10 18" fill="none" xmlns="http://www.w3.org/2000/svg">
<path d="M0.337999 17.2589C0.787166 17.7081 1.51133 17.7081 1.9605 17.2589L9.578 9.64141C9.66298 9.5566 9.73039 9.45587 9.77639 9.34498C9.82239 9.23409 9.84607 9.11521 9.84607 8.99516C9.84607 8.8751 9.82239 8.75623 9.77639 8.64533C9.73039 8.53444 9.66298 8.43371 9.578 8.34891L1.9605 0.731406C1.51133 0.28224 0.787166 0.28224 0.337999 0.731406C-0.111167 1.18057 -0.111167 1.90474 0.337999 2.35391L6.97466 8.99974L0.328832 15.6456C-0.111168 16.0856 -0.111167 16.8189 0.337999 17.2589Z" fill="black"/>
</svg>
