<svg width="21" height="26" viewBox="0 0 21 26" fill="none" xmlns="http://www.w3.org/2000/svg">
<path d="M13.1733 10.79L10.1111 13.8522L7.03444 10.79L4.99778 12.8267L8.07444 15.8889L5.01222 18.9511L7.04889 20.9878L10.1111 17.9256L13.1733 20.9878L15.21 18.9511L12.1478 15.8889L15.21 12.8267L13.1733 10.79ZM15.1667 1.44444L13.7222 0H6.5L5.05556 1.44444H0V4.33333H20.2222V1.44444H15.1667ZM1.44444 23.1111C1.44444 24.7 2.74444 26 4.33333 26H15.8889C17.4778 26 18.7778 24.7 18.7778 23.1111V5.77778H1.44444V23.1111ZM4.33333 8.66667H15.8889V23.1111H4.33333V8.66667Z" fill="#C4C4C4"/>
</svg>
