<svg width="18" height="19" viewBox="0 0 18 19" fill="none" xmlns="http://www.w3.org/2000/svg">
<path d="M16.6855 4.6875H13.498V4.3125C13.498 1.93125 11.5668 0 9.18555 0C6.8043 0 4.87305 1.93125 4.87305 4.3125V4.6875H1.68555C1.2707 4.6875 0.935547 5.02266 0.935547 5.4375V18C0.935547 18.4148 1.2707 18.75 1.68555 18.75H16.6855C17.1004 18.75 17.4355 18.4148 17.4355 18V5.4375C17.4355 5.02266 17.1004 4.6875 16.6855 4.6875ZM6.56055 4.3125C6.56055 2.86172 7.73477 1.6875 9.18555 1.6875C10.6363 1.6875 11.8105 2.86172 11.8105 4.3125V4.6875H6.56055V4.3125ZM15.748 17.0625H2.62305V6.375H4.87305V8.4375C4.87305 8.54062 4.95742 8.625 5.06055 8.625H6.37305C6.47617 8.625 6.56055 8.54062 6.56055 8.4375V6.375H11.8105V8.4375C11.8105 8.54062 11.8949 8.625 11.998 8.625H13.3105C13.4137 8.625 13.498 8.54062 13.498 8.4375V6.375H15.748V17.0625Z" fill="white"/>
</svg>
