<svg width="20" height="20" viewBox="0 0 20 20" fill="none" xmlns="http://www.w3.org/2000/svg">
<path d="M19.5659 9.10346C19.9595 8.7198 20.0985 8.15672 19.9287 7.63329C19.7585 7.10986 19.3152 6.73621 18.7705 6.65692L13.9279 5.95327C13.7217 5.92324 13.5434 5.79388 13.4513 5.60686L11.2863 1.21879C11.0432 0.725801 10.5499 0.419434 9.99999 0.419434C9.45053 0.419434 8.95714 0.725801 8.71405 1.21879L6.54865 5.60686C6.45654 5.79388 6.27793 5.92324 6.07168 5.95327L1.22907 6.65732C0.684815 6.73621 0.241483 7.10986 0.0712787 7.63329C-0.098525 8.15672 0.0404417 8.7198 0.434114 9.10346L3.93792 12.5188C4.0873 12.6645 4.15578 12.8744 4.12054 13.0794L3.29355 17.9024C3.20063 18.4443 3.4189 18.9813 3.86383 19.3049C4.30836 19.6289 4.88706 19.6709 5.37444 19.4142L9.70524 17.1371C9.88986 17.0402 10.1101 17.0402 10.2947 17.1371L14.6259 19.4142C14.8374 19.5256 15.0665 19.5804 15.2943 19.5804C15.5903 19.5804 15.8851 19.4879 16.1366 19.3049C16.5815 18.9813 16.7998 18.4443 16.7068 17.9024L15.8795 13.0798C15.8442 12.8744 15.9127 12.6649 16.0621 12.5192L19.5659 9.10346ZM15.0905 13.2152L15.9175 18.0378C15.9591 18.2805 15.865 18.5123 15.6656 18.6573C15.4658 18.8019 15.2171 18.8195 14.9988 18.7058L10.6676 16.4282C10.4589 16.3189 10.2291 16.2636 9.99999 16.2636C9.77092 16.2636 9.54144 16.3189 9.33239 16.4286L5.002 18.7058C4.78293 18.8195 4.53423 18.8019 4.33479 18.6573C4.13536 18.5123 4.04164 18.2809 4.08289 18.0378L4.90989 13.2152C4.98958 12.7498 4.8354 12.2749 4.49739 11.9457L0.993185 8.52997C0.816573 8.35776 0.756501 8.11507 0.832993 7.88079C0.909084 7.64611 1.10011 7.48511 1.34401 7.44947L6.18622 6.74583C6.65358 6.67814 7.05766 6.38499 7.26631 5.96128L9.43171 1.57322C9.54064 1.35215 9.7533 1.22039 9.99959 1.22039C10.2463 1.22039 10.4585 1.35215 10.5679 1.57322L12.7333 5.96128C12.9419 6.38499 13.3456 6.67814 13.813 6.74583L18.6556 7.44947C18.8995 7.48511 19.0905 7.64611 19.1666 7.88079C19.2427 8.11507 19.183 8.35776 19.0064 8.52997L15.5026 11.9453C15.1646 12.2749 15.0104 12.7494 15.0905 13.2152Z" fill="#00C6C6"/>
</svg>
