<svg width="32" height="32" viewBox="0 0 32 32" fill="none" xmlns="http://www.w3.org/2000/svg">
<path d="M26.8599 2.15631H5.10883C2.83466 2.15631 0.984375 4.00623 0.984375 6.28076V19.592C0.984375 21.8614 2.8266 23.7084 5.09418 23.7164V29.7569L13.775 23.7164H26.8599C29.1341 23.7164 30.9844 21.8661 30.9844 19.592V6.28076C30.9844 4.00623 29.1341 2.15631 26.8599 2.15631ZM29.2266 19.592C29.2266 20.8968 28.1649 21.9586 26.8599 21.9586H13.2235L6.85199 26.3923V21.9586H5.10883C3.80383 21.9586 2.74219 20.8968 2.74219 19.592V6.28076C2.74219 4.97559 3.80383 3.91412 5.10883 3.91412H26.8599C28.1649 3.91412 29.2266 4.97559 29.2266 6.28076V19.592Z" fill="white"/>
<path d="M9.01367 8.36743H22.955V10.1252H9.01367V8.36743Z" fill="white"/>
<path d="M9.01367 12.1174H22.955V13.8752H9.01367V12.1174Z" fill="white"/>
<path d="M9.01367 15.8674H22.955V17.6253H9.01367V15.8674Z" fill="white"/>
</svg>
