<svg width="240.162" height="240.162" xmlns="http://www.w3.org/2000/svg">

 <g>
  <title>background</title>
  <rect fill="none" id="canvas_background" height="402" width="582" y="-1" x="-1"/>
 </g>
 <g>
  <title>Layer 1</title>
  <g id="svg_1">
   <path id="svg_2" fill="#00c7c7" d="m39.818,72.494l97.652,0c3.866,0 7,-3.134 7,-7s-3.134,-7 -7,-7l-97.652,0c-3.866,0 -7,3.134 -7,7s3.134,7 7,7z"/>
   <path id="svg_3" fill="#00c7c7" d="m39.818,96.543l97.652,0c3.866,0 7,-3.134 7,-7s-3.134,-7 -7,-7l-97.652,0c-3.866,0 -7,3.134 -7,7s3.134,7 7,7z"/>
   <path id="svg_4" fill="#00c7c7" d="m91.477,178.738l-51.659,0c-3.866,0 -7,3.134 -7,7s3.134,7 7,7l51.658,0c3.866,0 7,-3.134 7,-7s-3.133,-7 -6.999,-7z"/>
   <path id="svg_5" fill="#00c7c7" d="m236.763,20.911l-20.58,-12.348c-1.592,-0.955 -3.498,-1.24 -5.299,-0.789c-1.801,0.45 -3.35,1.598 -4.305,3.189l-35.829,59.714l0,-42.32c0,-3.866 -3.134,-7 -7,-7l-156.75,0c-3.866,0 -7,3.134 -7,7l0,197.24c0,3.866 3.134,7 7,7l156.75,0c3.866,0 7,-3.134 7,-7l0,-81.062l68.414,-114.02c1.989,-3.315 0.914,-7.614 -2.401,-9.604zm-90.402,137.061l-11.617,9.643l3.042,-14.788l67.152,-111.917l8.575,5.145l-67.152,111.917zm74.355,-123.922l-8.575,-5.145l2.842,-4.736l8.575,5.145l-2.842,4.736zm-206.716,184.547l0,-183.24l142.75,0l0,58.653l-12.363,20.604c0.049,-0.335 0.083,-0.674 0.083,-1.022c0,-3.866 -3.134,-7 -7,-7l-97.652,0c-3.866,0 -7,3.134 -7,7s3.134,7 7,7l97.652,0c1.559,0 2.993,-0.516 4.156,-1.377l-6.856,11.426l-94.952,0c-3.866,0 -7,3.134 -7,7s3.134,7 7,7l86.552,0l-1.204,2.006c-0.406,0.677 -0.695,1.418 -0.854,2.191l-1.203,5.851l-83.291,0c-3.866,0 -7,3.134 -7,7s3.134,7 7,7l80.411,0l-3.217,15.639c-0.599,2.911 0.706,5.883 3.255,7.413c1.114,0.668 2.36,0.998 3.601,0.998c1.597,0 3.185,-0.545 4.472,-1.614l27.88,-23.142c0.191,-0.159 0.357,-0.344 0.53,-0.521l0,51.135l-142.75,0z"/>
  </g>
 </g>
</svg>