<svg width="18" height="18" viewBox="0 0 18 18" fill="none" xmlns="http://www.w3.org/2000/svg">
<path d="M17.4 0.613326C17.2766 0.489722 17.1301 0.391658 16.9688 0.32475C16.8075 0.257841 16.6346 0.223401 16.46 0.223401C16.2854 0.223401 16.1125 0.257841 15.9512 0.32475C15.7899 0.391658 15.6433 0.489722 15.52 0.613326L8.99999 7.11999L2.47999 0.599993C2.35655 0.47655 2.21 0.37863 2.04872 0.311824C1.88743 0.245017 1.71457 0.210632 1.53999 0.210632C1.36542 0.210632 1.19255 0.245017 1.03127 0.311824C0.869983 0.37863 0.723435 0.47655 0.599993 0.599993C0.47655 0.723435 0.37863 0.869983 0.311824 1.03127C0.245017 1.19255 0.210632 1.36542 0.210632 1.53999C0.210632 1.71457 0.245017 1.88743 0.311824 2.04872C0.37863 2.21 0.47655 2.35655 0.599993 2.47999L7.11999 8.99999L0.599993 15.52C0.47655 15.6434 0.37863 15.79 0.311824 15.9513C0.245017 16.1126 0.210632 16.2854 0.210632 16.46C0.210632 16.6346 0.245017 16.8074 0.311824 16.9687C0.37863 17.13 0.47655 17.2765 0.599993 17.4C0.723435 17.5234 0.869983 17.6214 1.03127 17.6882C1.19255 17.755 1.36542 17.7894 1.53999 17.7894C1.71457 17.7894 1.88743 17.755 2.04872 17.6882C2.21 17.6214 2.35655 17.5234 2.47999 17.4L8.99999 10.88L15.52 17.4C15.6434 17.5234 15.79 17.6214 15.9513 17.6882C16.1126 17.755 16.2854 17.7894 16.46 17.7894C16.6346 17.7894 16.8074 17.755 16.9687 17.6882C17.13 17.6214 17.2765 17.5234 17.4 17.4C17.5234 17.2765 17.6214 17.13 17.6882 16.9687C17.755 16.8074 17.7894 16.6346 17.7894 16.46C17.7894 16.2854 17.755 16.1126 17.6882 15.9513C17.6214 15.79 17.5234 15.6434 17.4 15.52L10.88 8.99999L17.4 2.47999C17.9067 1.97333 17.9067 1.11999 17.4 0.613326Z" fill="#C4C4C4"/>
</svg>
