<svg width="21" height="19" viewBox="0 0 21 19" fill="none" xmlns="http://www.w3.org/2000/svg">
<path d="M19.8203 4.02287C19.5062 3.29545 19.0532 2.63628 18.4867 2.08224C17.9198 1.52655 17.2515 1.08496 16.518 0.781462C15.7574 0.465508 14.9416 0.303785 14.118 0.305681C12.9625 0.305681 11.8352 0.622087 10.8555 1.21974C10.6211 1.36271 10.3984 1.51974 10.1875 1.69084C9.97656 1.51974 9.75391 1.36271 9.51953 1.21974C8.53984 0.622087 7.4125 0.305681 6.25703 0.305681C5.425 0.305681 4.61875 0.465056 3.85703 0.781462C3.12109 1.08615 2.45781 1.52443 1.88828 2.08224C1.32109 2.63565 0.867995 3.29499 0.554688 4.02287C0.228906 4.7799 0.0625 5.58381 0.0625 6.41115C0.0625 7.19162 0.221875 8.0049 0.538281 8.83224C0.803125 9.52365 1.18281 10.2408 1.66797 10.9651C2.43672 12.1111 3.49375 13.3065 4.80625 14.5182C6.98125 16.5268 9.13516 17.9143 9.22656 17.9705L9.78203 18.3268C10.0281 18.4838 10.3445 18.4838 10.5906 18.3268L11.1461 17.9705C11.2375 17.9119 13.3891 16.5268 15.5664 14.5182C16.8789 13.3065 17.9359 12.1111 18.7047 10.9651C19.1898 10.2408 19.5719 9.52365 19.8344 8.83224C20.1508 8.0049 20.3102 7.19162 20.3102 6.41115C20.3125 5.58381 20.1461 4.7799 19.8203 4.02287ZM10.1875 16.4729C10.1875 16.4729 1.84375 11.1268 1.84375 6.41115C1.84375 4.02287 3.81953 2.08693 6.25703 2.08693C7.97031 2.08693 9.45625 3.04318 10.1875 4.44006C10.9187 3.04318 12.4047 2.08693 14.118 2.08693C16.5555 2.08693 18.5312 4.02287 18.5312 6.41115C18.5312 11.1268 10.1875 16.4729 10.1875 16.4729Z" fill="white"/>
</svg>
