<svg width="37" height="37" viewBox="0 0 37 37" fill="none" xmlns="http://www.w3.org/2000/svg">
<g clip-path="url(#clip0)">
<path d="M36.893 2.09084C36.7079 1.6982 36.3127 1.44775 35.8787 1.44775H1.12146C0.687404 1.44775 0.292375 1.6982 0.107121 2.09084C-0.0779841 2.48347 -0.0199707 2.94758 0.256191 3.2825L13.6174 19.488V34.4309C13.6174 34.8189 13.8179 35.1793 14.1474 35.3838C14.328 35.4958 14.533 35.5523 14.7388 35.5523C14.9088 35.5523 15.0794 35.5136 15.2367 35.4357L22.7437 31.7149C23.1251 31.5259 23.3665 31.1373 23.3671 30.7116L23.3817 19.4884L36.7436 3.28235C37.0199 2.94758 37.0781 2.48332 36.893 2.09084ZM21.3958 18.3718C21.2306 18.5722 21.14 18.8238 21.1397 19.0837L21.1253 30.014L15.8603 32.6235V19.0852C15.8603 18.8249 15.7698 18.5726 15.6042 18.3718L3.49941 3.69039H33.5006L21.3958 18.3718Z" fill="#3D3D3D"/>
</g>
<defs>
<clipPath id="clip0">
<rect width="37" height="37" fill="white"/>
</clipPath>
</defs>
</svg>
