<svg width="512" height="512" xmlns="http://www.w3.org/2000/svg">

 <g>
  <title>background</title>
  <rect fill="none" id="canvas_background" height="402" width="582" y="-1" x="-1"/>
 </g>
 <g>
  <title>Layer 1</title>
  <g id="svg_1">
   <g id="svg_2">
    <path id="svg_3" fill="#00c7c7" d="m480,143.686l-101.248,0c7.264,-4.96 13.504,-9.888 17.856,-14.304c25.792,-25.952 25.792,-68.192 0,-94.144c-25.056,-25.216 -68.768,-25.248 -93.856,0c-13.856,13.92 -50.688,70.592 -45.6,108.448l-2.304,0c5.056,-37.856 -31.744,-94.528 -45.6,-108.448c-25.088,-25.248 -68.8,-25.216 -93.856,0c-25.792,25.952 -25.792,68.192 -0.032,94.144c4.384,4.416 10.624,9.344 17.888,14.304l-101.248,0c-17.632,0 -32,14.368 -32,32l0,80c0,8.832 7.168,16 16,16l16,0l0,192c0,17.632 14.368,32 32,32l384,0c17.632,0 32,-14.368 32,-32l0,-192l16,0c8.832,0 16,-7.168 16,-16l0,-80c0,-17.632 -14.368,-32 -32,-32zm-341.92,-85.888c6.496,-6.528 15.104,-10.112 24.256,-10.112c9.12,0 17.728,3.584 24.224,10.112c21.568,21.696 43.008,77.12 35.552,84.832c0,0 -1.344,1.056 -5.92,1.056c-22.112,0 -64.32,-22.976 -78.112,-36.864c-13.408,-13.504 -13.408,-35.52 0,-49.024zm101.92,405.888l-176,0l0,-192l176,0l0,192zm0,-224l-208,0l0,-64l184.192,0l23.808,0l0,64zm85.44,-181.888c12.992,-13.024 35.52,-12.992 48.48,0c13.408,13.504 13.408,35.52 0,49.024c-13.792,13.888 -56,36.864 -78.112,36.864c-4.576,0 -5.92,-1.024 -5.952,-1.056c-7.424,-7.712 14.016,-63.136 35.584,-84.832zm122.56,405.888l-176,0l0,-192l176,0l0,192zm32,-224l-208,0l0,-64l23.808,0l184.192,0l0,64z"/>
   </g>
  </g>
 </g>
</svg>