<svg width="18" height="18" viewBox="0 0 18 18" fill="none" xmlns="http://www.w3.org/2000/svg">
<path d="M9.00002 0C5.40547 0 2.4811 2.92437 2.4811 6.51888C2.4811 10.9798 8.31489 17.5287 8.56327 17.8053C8.79657 18.0651 9.20389 18.0647 9.43676 17.8053C9.68514 17.5287 15.5189 10.9798 15.5189 6.51888C15.5189 2.92437 12.5945 0 9.00002 0ZM9.00002 16.5139C7.03664 14.1817 3.65504 9.5805 3.65504 6.51895C3.65504 3.57166 6.05276 1.17394 9.00002 1.17394C11.9473 1.17394 14.345 3.57166 14.345 6.51892C14.345 9.58061 10.9639 14.181 9.00002 16.5139Z" fill="#4C4C4C"/>
<path d="M9 3.23926C7.19149 3.23926 5.7202 4.71058 5.7202 6.51909C5.7202 8.3276 7.19153 9.79892 9 9.79892C10.8085 9.79892 12.2798 8.3276 12.2798 6.51909C12.2798 4.71058 10.8085 3.23926 9 3.23926ZM9 8.62498C7.83879 8.62498 6.89414 7.6803 6.89414 6.51909C6.89414 5.35788 7.83882 4.4132 9 4.4132C10.1612 4.4132 11.1059 5.35788 11.1059 6.51909C11.1059 7.6803 10.1612 8.62498 9 8.62498Z" fill="#4C4C4C"/>
</svg>
