<svg width="17" height="4" viewBox="0 0 17 4" fill="none" xmlns="http://www.w3.org/2000/svg">
<path d="M1.74991 3.28906C2.09801 3.28906 2.43184 3.15078 2.67799 2.90464C2.92413 2.6585 3.06241 2.32466 3.06241 1.97656C3.06241 1.62847 2.92413 1.29463 2.67799 1.04849C2.43184 0.802344 2.09801 0.664062 1.74991 0.664062C1.40181 0.664062 1.06797 0.802344 0.821831 1.04849C0.575689 1.29463 0.437408 1.62847 0.437408 1.97656C0.437408 2.32466 0.575689 2.6585 0.821831 2.90464C1.06797 3.15078 1.40181 3.28906 1.74991 3.28906ZM8.31241 3.28906C8.66051 3.28906 8.99434 3.15078 9.24049 2.90464C9.48663 2.6585 9.62491 2.32466 9.62491 1.97656C9.62491 1.62847 9.48663 1.29463 9.24049 1.04849C8.99434 0.802344 8.66051 0.664062 8.31241 0.664062C7.96431 0.664062 7.63047 0.802344 7.38433 1.04849C7.13819 1.29463 6.99991 1.62847 6.99991 1.97656C6.99991 2.32466 7.13819 2.6585 7.38433 2.90464C7.63047 3.15078 7.96431 3.28906 8.31241 3.28906ZM14.8749 3.28906C15.223 3.28906 15.5568 3.15078 15.803 2.90464C16.0491 2.6585 16.1874 2.32466 16.1874 1.97656C16.1874 1.62847 16.0491 1.29463 15.803 1.04849C15.5568 0.802344 15.223 0.664062 14.8749 0.664062C14.5268 0.664062 14.193 0.802344 13.9468 1.04849C13.7007 1.29463 13.5624 1.62847 13.5624 1.97656C13.5624 2.32466 13.7007 2.6585 13.9468 2.90464C14.193 3.15078 14.5268 3.28906 14.8749 3.28906Z" fill="white"/>
</svg>
