<svg width="30" height="30" viewBox="0 0 30 30" fill="none" xmlns="http://www.w3.org/2000/svg">
<path d="M22.0312 8.4375C21.8016 11.5354 19.4531 14.0625 16.875 14.0625C14.2969 14.0625 11.9443 11.5359 11.7187 8.4375C11.4844 5.21484 13.7695 2.8125 16.875 2.8125C19.9805 2.8125 22.2656 5.27344 22.0312 8.4375Z" stroke="#00c7c7" stroke-width="2" stroke-linecap="round" stroke-linejoin="round"/>
<path d="M16.875 17.8125C11.7773 17.8125 6.60349 20.625 5.64607 25.9336C5.52888 26.5734 5.89275 27.1875 6.56306 27.1875H27.1875C27.8578 27.1875 28.2199 26.5734 28.1045 25.9336C27.1465 20.625 21.9726 17.8125 16.875 17.8125Z" stroke="#00c7c7" stroke-width="2" stroke-miterlimit="10"/>
<path d="M8.4375 13.5938H1.875M5.15625 10.3125V16.875V10.3125Z" stroke="#00c7c7" stroke-width="2" stroke-linecap="round" stroke-linejoin="round"/>
</svg>
