<svg width="30" height="30" viewBox="0 0 30 30" fill="none" xmlns="http://www.w3.org/2000/svg">
<path d="M15 2.8125C8.27988 2.8125 2.8125 8.27988 2.8125 15C2.8125 21.7201 8.27988 27.1875 15 27.1875C21.7201 27.1875 27.1875 21.7201 27.1875 15C27.1875 8.27988 21.7201 2.8125 15 2.8125ZM15.1172 8.4375C15.9516 8.4375 16.7672 8.68493 17.461 9.14849C18.1548 9.61205 18.6955 10.2709 19.0148 11.0418C19.3341 11.8127 19.4177 12.6609 19.2549 13.4793C19.0921 14.2976 18.6903 15.0494 18.1003 15.6394C17.5103 16.2294 16.7586 16.6312 15.9402 16.7939C15.1219 16.9567 14.2736 16.8732 13.5027 16.5539C12.7319 16.2346 12.073 15.6938 11.6094 15.0001C11.1459 14.3063 10.8984 13.4906 10.8984 12.6562C10.8984 11.5374 11.3429 10.4643 12.1341 9.67314C12.9253 8.88197 13.9983 8.4375 15.1172 8.4375ZM15 25.3125C13.5776 25.3131 12.1706 25.0187 10.8677 24.4478C9.56492 23.877 8.39465 23.0422 7.43086 21.9961C7.94883 19.3137 12.6012 18.75 15 18.75C17.3988 18.75 22.0512 19.3137 22.5691 21.9955C21.6055 23.0418 20.4352 23.8768 19.1324 24.4477C17.8296 25.0187 16.4224 25.3131 15 25.3125Z" fill="#00c7c7"/>
</svg>
