<svg width="32" height="32" viewBox="0 0 32 32" fill="none" xmlns="http://www.w3.org/2000/svg">
<path d="M1.119 16.841C0.500003 16.841 0.00800323 16.333 0.00800323 15.714C0.00800323 15.095 0.500003 14.603 1.119 14.603H14.594V1.127C14.595 0.508 15.103 0 15.722 0C16.341 0 16.833 0.508 16.833 1.127V14.603H30.308C30.927 14.603 31.435 15.095 31.435 15.714C31.435 16.333 30.927 16.841 30.308 16.841H16.833V30.317C16.833 30.936 16.341 31.444 15.722 31.444C15.103 31.444 14.595 30.936 14.595 30.317V16.841H1.119Z" fill="#4C4C4C"/>
</svg>
