<svg width="20" height="20" viewBox="0 0 20 20" fill="none" xmlns="http://www.w3.org/2000/svg">
<g clip-path="url(#clip0)">
<path d="M19.5659 9.10305C19.9596 8.71939 20.0985 8.15632 19.9287 7.63289C19.7585 7.10946 19.3152 6.73581 18.7705 6.65652L13.9279 5.95287C13.7217 5.92284 13.5435 5.79348 13.4513 5.60646L11.2863 1.21879C11.0433 0.725801 10.5499 0.419434 10 0.419434C9.45054 0.419434 8.95715 0.725801 8.71406 1.21879L6.54866 5.60686C6.45655 5.79388 6.27793 5.92324 6.07168 5.95327L1.22907 6.65692C0.684819 6.73581 0.241086 7.10986 0.070882 7.63329C-0.0989218 8.15672 0.040045 8.7198 0.433717 9.10346L3.93752 12.5188C4.0869 12.6645 4.15538 12.8744 4.12014 13.0794L3.29355 17.902C3.22026 18.3265 3.3316 18.7394 3.60633 19.065C4.03324 19.5724 4.77853 19.727 5.37445 19.4138L9.70524 17.1367C9.88626 17.0418 10.1141 17.0426 10.2948 17.1367L14.626 19.4138C14.8366 19.5248 15.0613 19.5808 15.2932 19.5808C15.7165 19.5808 16.1177 19.3926 16.3937 19.065C16.6688 18.7394 16.7797 18.3257 16.7064 17.902L15.8795 13.0794C15.8442 12.874 15.9127 12.6645 16.0621 12.5188L19.5659 9.10305Z" fill="#00C6C6"/>
</g>
<defs>
<clipPath id="clip0">
<rect width="20" height="20" fill="white"/>
</clipPath>
</defs>
</svg>
