<svg width="30" height="30" viewBox="0 0 30 30" fill="none" xmlns="http://www.w3.org/2000/svg">
<path d="M14.5087 16.3174L12.3287 18.9124C12.9725 19.8135 13.2983 20.9032 13.2549 22.0098C13.2114 23.1164 12.8012 24.1771 12.0887 25.0249C11.2354 26.0393 10.0146 26.6737 8.69404 26.789C7.37351 26.9043 6.06118 26.4911 5.04498 25.6399C4.54205 25.2188 4.1271 24.7027 3.82388 24.1211C3.52066 23.5394 3.33512 22.9037 3.27788 22.2502C3.22064 21.5968 3.29283 20.9385 3.4903 20.313C3.68778 19.6875 4.00668 19.1071 4.42873 18.6049C5.14201 17.7567 6.11659 17.1691 7.1997 16.9343C8.28281 16.6995 9.41322 16.8307 10.4137 17.3074L12.8762 14.3749L6.14123 6.35869C6.03574 6.23316 5.95603 6.08807 5.90666 5.93171C5.85729 5.77535 5.83922 5.61079 5.8535 5.44744C5.86778 5.28409 5.91412 5.12516 5.98988 4.97974C6.06563 4.83432 6.16931 4.70526 6.29498 4.59994C6.42072 4.49437 6.56602 4.41461 6.72258 4.3652C6.87914 4.3158 7.0439 4.29772 7.20746 4.31199C7.37101 4.32627 7.53015 4.37263 7.67578 4.44841C7.82141 4.5242 7.95069 4.62793 8.05623 4.75369L14.5087 12.4337L20.96 4.75369C21.0655 4.62775 21.1949 4.52386 21.3406 4.44796C21.4864 4.37207 21.6457 4.32565 21.8094 4.31137C21.9731 4.29709 22.138 4.31523 22.2947 4.36474C22.4513 4.41426 22.5967 4.49418 22.7225 4.59994C22.8482 4.70526 22.9518 4.83432 23.0276 4.97974C23.1033 5.12516 23.1497 5.28409 23.164 5.44744C23.1782 5.61079 23.1602 5.77535 23.1108 5.93171C23.0614 6.08807 22.9817 6.23316 22.8762 6.35869L16.14 14.3749L18.6025 17.3062C19.603 16.8295 20.7334 16.6982 21.8165 16.9331C22.8996 17.1679 23.8742 17.7554 24.5875 18.6037C25.0095 19.1058 25.3284 19.6862 25.5259 20.3117C25.7234 20.9372 25.7956 21.5956 25.7383 22.249C25.6811 22.9024 25.4956 23.5382 25.1923 24.1198C24.8891 24.7015 24.4742 25.2176 23.9712 25.6387C22.955 26.4898 21.6427 26.9031 20.3222 26.7878C19.0017 26.6725 17.7808 26.0381 16.9275 25.0237C16.215 24.1758 15.8048 23.1151 15.7613 22.0085C15.7179 20.9019 16.0437 19.8123 16.6875 18.9112L14.5087 16.3174ZM6.65248 23.7262C7.16312 24.121 7.80668 24.303 8.44847 24.2341C9.09026 24.1652 9.68053 23.8508 10.0957 23.3566C10.511 22.8624 10.719 22.2268 10.6762 21.5827C10.6334 20.9387 10.3432 20.3361 9.86623 19.9012C9.3581 19.4754 8.7018 19.2687 8.04138 19.3263C7.38096 19.384 6.77041 19.7013 6.34373 20.2087C5.45623 21.2649 5.59373 22.8399 6.65248 23.7262ZM22.365 23.7262C22.6163 23.5156 22.8237 23.2574 22.9752 22.9666C23.1267 22.6757 23.2194 22.3579 23.2479 22.0312C23.2765 21.7045 23.2404 21.3754 23.1416 21.0626C23.0429 20.7499 22.8835 20.4597 22.6725 20.2087C22.2458 19.7017 21.6355 19.3846 20.9754 19.3269C20.3153 19.2693 19.6593 19.4758 19.1512 19.9012C18.8998 20.1117 18.6923 20.3698 18.5407 20.6606C18.3891 20.9514 18.2963 21.2692 18.2676 21.5959C18.2389 21.9226 18.2749 22.2518 18.3736 22.5645C18.4722 22.8773 18.6316 23.1676 18.8425 23.4187C19.73 24.4749 21.3075 24.6124 22.365 23.7262Z" fill="#00c7c7"/>
</svg>
