<svg width="40" height="40" viewBox="0 0 40 40" fill="none" xmlns="http://www.w3.org/2000/svg">
<g clip-path="url(#clip0)">
<path d="M39.3918 36.4336L29.5312 26.5323C32.0666 23.6226 33.4557 19.9614 33.4557 16.1499C33.4557 7.24503 25.9514 0 16.7278 0C7.50424 0 0 7.24503 0 16.1499C0 25.0549 7.50424 32.3 16.7278 32.3C20.1904 32.3 23.4902 31.2917 26.3114 29.3776L36.247 39.3541C36.6622 39.7704 37.2208 40 37.8194 40C38.3859 40 38.9235 39.7915 39.3315 39.4123C40.1984 38.6069 40.2261 37.2714 39.3918 36.4336ZM16.7278 4.21304C23.5454 4.21304 29.0918 9.56781 29.0918 16.1499C29.0918 22.7322 23.5454 28.0869 16.7278 28.0869C9.91014 28.0869 4.36378 22.7322 4.36378 16.1499C4.36378 9.56781 9.91014 4.21304 16.7278 4.21304Z" fill="#ffffff"/>
</g>
<defs>
<clipPath id="clip0">
<rect width="40" height="40" fill="white"/>
</clipPath>
</defs>
</svg>
