<svg width="20" height="20" viewBox="0 0 20 20" fill="none" xmlns="http://www.w3.org/2000/svg">
<path fill-rule="evenodd" clip-rule="evenodd" d="M3.43599 3.91219C3.43614 3.90792 3.43629 3.90365 3.4366 3.89938C3.43782 3.88244 3.4395 3.86581 3.44285 3.84933C3.44285 3.84933 3.44285 3.84933 3.44285 3.84917C3.44621 3.8327 3.45094 3.81637 3.45628 3.8005C3.45765 3.79653 3.45903 3.79256 3.46055 3.7886C3.4662 3.77349 3.47261 3.75869 3.47993 3.74435C3.48039 3.74358 3.48069 3.74282 3.48115 3.74206C3.48909 3.7271 3.49824 3.71291 3.50816 3.69903C3.5106 3.69552 3.51319 3.69216 3.51579 3.68865C3.52632 3.67492 3.5373 3.66164 3.54966 3.64929L7.08451 0.114441C7.09687 0.102081 7.11014 0.0910948 7.12387 0.0805662C7.12738 0.0779723 7.13089 0.0752257 7.1344 0.0727843C7.14829 0.0628661 7.16233 0.0537108 7.17713 0.0459289C7.1782 0.0453185 7.17926 0.0450133 7.18018 0.044403C7.19422 0.0370788 7.20887 0.0308227 7.22367 0.0251769C7.22779 0.0236511 7.23175 0.0222778 7.23603 0.0209045C7.2519 0.015564 7.26792 0.0108337 7.28455 0.00747678C7.2847 0.00747678 7.28485 0.00747678 7.28485 0.00747678C7.30118 0.00427245 7.31781 0.0024414 7.3346 0.0012207C7.33887 0.00106812 7.34314 0.000762936 7.34741 0.00061035C7.35184 0.000457765 7.35627 0 7.36069 0H16.2109C16.4267 0 16.6015 0.174865 16.6015 0.390624V17.1103C16.6015 17.326 16.4267 17.5009 16.2109 17.5009H10.3299V19.6093C10.3299 19.7514 10.2527 19.8823 10.1283 19.9511C10.0038 20.02 9.85199 20.0158 9.7316 19.9403L8.24387 19.0069L6.75614 19.9403C6.69281 19.98 6.62064 20 6.54847 20C6.48346 20 6.41831 19.9838 6.35941 19.9513C6.23505 19.8825 6.15784 19.7515 6.15784 19.6093V17.5009H3.826C3.61024 17.5009 3.43538 17.326 3.43538 17.1103V3.92547C3.43538 3.92104 3.43583 3.91662 3.43599 3.91219ZM6.97007 1.33377L4.76899 3.53484H6.97007V1.33377ZM10.5226 12.0653C10.5501 11.9906 10.5948 11.8687 10.5959 11.8188C10.5653 11.781 10.4594 11.714 10.3946 11.6731C10.2554 11.5852 10.0977 11.4854 9.98321 11.3295C9.8677 11.1719 9.82071 10.9898 9.7792 10.8293C9.76105 10.7591 9.73175 10.6457 9.70672 10.6029C9.69299 10.6 9.66415 10.5958 9.60998 10.5958C9.5665 10.5958 9.51782 10.5983 9.46625 10.6009C9.40704 10.6038 9.34601 10.6068 9.28223 10.6068C9.14154 10.6068 9.02802 10.591 8.92502 10.5566C8.74512 10.4968 8.60123 10.381 8.47427 10.2788C8.40408 10.2223 8.28659 10.1277 8.2457 10.1219C8.20099 10.1277 8.08365 10.2223 8.01346 10.2788C7.88651 10.381 7.74247 10.4968 7.56256 10.5566C7.45957 10.591 7.34619 10.6068 7.20536 10.6068C7.14173 10.6068 7.08054 10.6038 7.02149 10.6009C6.96991 10.5983 6.92124 10.5958 6.8776 10.5958C6.82343 10.5958 6.79474 10.5998 6.78086 10.6029C6.75583 10.6457 6.72654 10.7591 6.70853 10.8293C6.66703 10.9898 6.61988 11.1719 6.50437 11.3295C6.39008 11.4854 6.23231 11.5851 6.09299 11.6731C6.0283 11.7142 5.9224 11.781 5.89188 11.8188C5.89295 11.8687 5.93766 11.9906 5.96497 12.0653C6.02311 12.2235 6.08887 12.4029 6.08887 12.6018C6.08887 12.8006 6.02311 12.98 5.96512 13.1384C5.93766 13.213 5.89295 13.3349 5.89188 13.3848C5.9224 13.4227 6.0283 13.4895 6.09299 13.5306C6.23231 13.6184 6.39008 13.7182 6.50437 13.8742C6.61988 14.0318 6.66703 14.2138 6.70853 14.3744C6.72654 14.4444 6.75599 14.5579 6.78086 14.6008C6.79474 14.6037 6.82343 14.6078 6.8776 14.6078C6.92124 14.6078 6.96991 14.6054 7.02149 14.6028C7.08054 14.5999 7.14173 14.5968 7.20536 14.5968C7.34619 14.5968 7.45957 14.6127 7.56256 14.647C7.74247 14.7069 7.88651 14.8228 8.01346 14.9249C8.08258 14.9807 8.19794 15.0734 8.24387 15.0816C8.2898 15.0734 8.405 14.9807 8.47412 14.9249C8.60123 14.8228 8.74512 14.7069 8.92502 14.647C9.02802 14.6127 9.14154 14.5968 9.28223 14.5968C9.34585 14.5968 9.40704 14.5999 9.46625 14.6028C9.51767 14.6054 9.56634 14.6078 9.60998 14.6078C9.66415 14.6078 9.69284 14.6037 9.70672 14.6008C9.73175 14.5579 9.76105 14.4446 9.7792 14.3744C9.82055 14.2138 9.8677 14.0318 9.98321 13.8742C10.0975 13.7182 10.2553 13.6184 10.3946 13.5306C10.4593 13.4897 10.5652 13.4227 10.5957 13.3848C10.5946 13.3351 10.5499 13.213 10.5226 13.1384C10.4645 12.9802 10.3987 12.8007 10.3987 12.6019C10.3987 12.4029 10.4646 12.2235 10.5226 12.0653ZM6.93909 18.9032L8.0362 18.2148C8.16315 18.1353 8.32459 18.1353 8.45154 18.2148L9.54864 18.9032V15.3878C9.50714 15.3866 9.4664 15.3851 9.42688 15.3831C9.37515 15.3804 9.32632 15.3779 9.28223 15.3779C9.21295 15.3779 9.18335 15.3843 9.17191 15.3882C9.12537 15.4037 9.03595 15.4757 8.96408 15.5336C8.78174 15.6804 8.55484 15.863 8.24387 15.863C7.93289 15.863 7.706 15.6804 7.52365 15.5336C7.45179 15.4757 7.36237 15.4037 7.31598 15.3883C7.30439 15.3845 7.27478 15.3781 7.20551 15.3781C7.16141 15.3781 7.11258 15.3805 7.06086 15.3831C7.02134 15.3851 6.98059 15.3868 6.93924 15.3878V18.9032H6.93909ZM6.15784 16.7196V15.0731C6.04172 14.9153 5.9932 14.7285 5.95215 14.5698C5.93064 14.4865 5.90119 14.3725 5.87434 14.3361C5.84763 14.2994 5.7483 14.2367 5.67582 14.191C5.48356 14.0695 5.2443 13.9183 5.14924 13.6323C5.05524 13.3502 5.15305 13.0836 5.23164 12.8694C5.26734 12.7722 5.30778 12.6619 5.30778 12.6018C5.30778 12.5416 5.26734 12.4315 5.23164 12.3343C5.15305 12.12 5.05524 11.8533 5.14924 11.5712C5.2443 11.2854 5.48356 11.1342 5.67582 11.0127C5.7483 10.9669 5.84763 10.9041 5.87434 10.8677C5.90119 10.8311 5.93064 10.7171 5.95215 10.6338C6.00831 10.4164 6.07819 10.1457 6.31745 9.97023C6.50788 9.83076 6.72837 9.81459 6.87775 9.81459C6.94092 9.81459 7.00196 9.81764 7.06086 9.82069C7.11258 9.82328 7.16141 9.82573 7.20536 9.82573C7.27478 9.82573 7.30439 9.81932 7.31583 9.8155C7.36222 9.80009 7.45163 9.72807 7.5235 9.67009C7.706 9.52345 7.93289 9.3408 8.24387 9.3408C8.55469 9.3408 8.78174 9.52345 8.96408 9.67009C9.03595 9.72792 9.12537 9.80009 9.17175 9.8155C9.1832 9.81932 9.21295 9.82573 9.28223 9.82573C9.32617 9.82573 9.37515 9.82328 9.42688 9.82054C9.48578 9.81764 9.54666 9.81459 9.60998 9.81459C9.75921 9.81459 9.9797 9.83076 10.17 9.97023C10.4094 10.1457 10.4794 10.4164 10.5356 10.6338C10.5571 10.7171 10.5865 10.8311 10.6132 10.8676C10.6401 10.9041 10.7394 10.9669 10.8119 11.0127C11.0042 11.1342 11.2433 11.2854 11.3385 11.5712C11.4325 11.8535 11.3347 12.12 11.2561 12.3343C11.2204 12.4315 11.18 12.5416 11.18 12.6018C11.18 12.6619 11.2204 12.7722 11.2561 12.8694C11.3347 13.0836 11.4325 13.3502 11.3385 13.6325C11.2433 13.9183 11.004 14.0695 10.8119 14.191C10.7393 14.2367 10.6401 14.2996 10.6132 14.3361C10.5865 14.3725 10.5571 14.4865 10.5356 14.5698C10.4945 14.7285 10.4459 14.9154 10.3297 15.0731V16.7196H15.8203V0.781249H7.75132V3.92547C7.75132 4.14123 7.57645 4.31609 7.36069 4.31609H4.21662V16.7196H6.15784Z" fill="#00C6C6"/>
<path fill-rule="evenodd" clip-rule="evenodd" d="M14.3022 4.31592H9.26955C9.05394 4.31592 8.87892 4.14105 8.87892 3.92529C8.87892 3.70953 9.05394 3.53467 9.26955 3.53467H14.3022C14.518 3.53467 14.6928 3.70953 14.6928 3.92529C14.6928 4.14105 14.5178 4.31592 14.3022 4.31592Z" fill="#00C6C6"/>
<path fill-rule="evenodd" clip-rule="evenodd" d="M5.69106 5.50684H14.3022C14.518 5.50684 14.6928 5.6817 14.6928 5.89746C14.6928 6.11322 14.518 6.28809 14.3022 6.28809H5.69106C5.4753 6.28809 5.30043 6.11322 5.30043 5.89746C5.30043 5.6817 5.4753 5.50684 5.69106 5.50684Z" fill="#00C6C6"/>
<path fill-rule="evenodd" clip-rule="evenodd" d="M7.25356 7.47852H14.3022C14.518 7.47852 14.6928 7.65353 14.6928 7.86914C14.6928 8.0849 14.518 8.25977 14.3022 8.25977H7.25356C7.0378 8.25977 6.86293 8.0849 6.86293 7.86914C6.86293 7.65353 7.0378 7.47852 7.25356 7.47852Z" fill="#00C6C6"/>
<path fill-rule="evenodd" clip-rule="evenodd" d="M5.69106 7.47852C5.9062 7.47852 6.08168 7.65399 6.08168 7.86914C6.08168 8.08429 5.9062 8.25977 5.69106 8.25977C5.47575 8.25977 5.30043 8.08429 5.30043 7.86914C5.30043 7.65399 5.47575 7.47852 5.69106 7.47852Z" fill="#00C6C6"/>
</svg>
