<svg width="24" height="23" viewBox="0 0 24 23" fill="none" xmlns="http://www.w3.org/2000/svg">
<path d="M15.3325 12.2491L16.1199 16.8357L12 14.6721L7.88011 16.8379L8.66745 12.2512L5.33489 9.00157L9.94114 8.33201L12 4.15977L14.0589 8.33201L18.6651 9.00157L15.3325 12.2491Z" fill="white"/>
<path fill-rule="evenodd" clip-rule="evenodd" d="M20.6389 7.7017L15.1014 6.89692L12.6259 1.87846C12.5583 1.74106 12.4471 1.62983 12.3097 1.56222C11.9651 1.3921 11.5464 1.53386 11.3741 1.87846L8.89863 6.89692L3.3611 7.7017C3.20843 7.72351 3.06885 7.79548 2.96198 7.90453C2.83278 8.03733 2.76158 8.21598 2.76404 8.40124C2.76649 8.58649 2.84239 8.7632 2.97506 8.89252L6.98154 12.7987L6.03499 18.3144C6.01279 18.4427 6.02699 18.5747 6.07598 18.6953C6.12496 18.816 6.20677 18.9205 6.31213 18.997C6.41748 19.0735 6.54217 19.119 6.67206 19.1282C6.80194 19.1375 6.93182 19.1102 7.04697 19.0494L12 16.4453L16.953 19.0494C17.0882 19.1214 17.2453 19.1454 17.3958 19.1192C17.7753 19.0538 18.0304 18.6939 17.965 18.3144L17.0185 12.7987L21.0249 8.89252C21.134 8.78565 21.206 8.64607 21.2278 8.4934C21.2866 8.11173 21.0206 7.75841 20.6389 7.7017ZM16.1199 16.8357L15.3325 12.2491L18.6651 9.00157L14.0589 8.33201L12 4.15977L9.94114 8.33201L5.33489 9.00157L8.66745 12.2512L7.88011 16.8379L12 14.6721L16.1199 16.8357Z" fill="white"/>
</svg>
