<svg width="23" height="23" viewBox="0 0 23 23" fill="none" xmlns="http://www.w3.org/2000/svg">
<path d="M20.4723 7.7017L14.9347 6.89692L12.4593 1.87846C12.3917 1.74106 12.2805 1.62983 12.1431 1.56222C11.7985 1.3921 11.3797 1.53386 11.2074 1.87846L8.732 6.89692L3.19447 7.7017C3.0418 7.72351 2.90222 7.79548 2.79535 7.90453C2.66615 8.03733 2.59496 8.21598 2.59741 8.40124C2.59987 8.58649 2.67577 8.7632 2.80844 8.89252L6.81491 12.7987L5.86837 18.3144C5.84617 18.4427 5.86037 18.5747 5.90935 18.6953C5.95833 18.816 6.04014 18.9205 6.1455 18.997C6.25086 19.0735 6.37555 19.119 6.50543 19.1282C6.63531 19.1375 6.7652 19.1102 6.88034 19.0494L11.8334 16.4453L16.7864 19.0494C16.9216 19.1214 17.0787 19.1454 17.2291 19.1192C17.6086 19.0538 17.8638 18.6939 17.7984 18.3144L16.8518 12.7987L20.8583 8.89252C20.9674 8.78565 21.0393 8.64607 21.0611 8.4934C21.12 8.11173 20.8539 7.75841 20.4723 7.7017ZM15.1659 12.2491L15.9533 16.8357L11.8334 14.6721L7.71348 16.8379L8.50082 12.2512L5.16827 9.00157L9.77452 8.33201L11.8334 4.15977L13.8922 8.33201L18.4985 9.00157L15.1659 12.2491Z" fill="#00c7c7"/>
</svg>
