<svg width="512.001" height="512.001" xmlns="http://www.w3.org/2000/svg">

 <g>
  <title>background</title>
  <rect fill="none" id="canvas_background" height="402" width="582" y="-1" x="-1"/>
 </g>
 <g>
  <title>Layer 1</title>
  <g id="svg_1">
   <g id="svg_2">
    <path fill="#FFFFFF" id="svg_3" d="m481.999,273.586l0,-47.58c0,-8.284 -6.716,-15 -15,-15c-30.988,0 -59.878,2.615 -87.173,7.955c-15.911,-15.365 -35.308,-26.513 -56.313,-32.606c22.904,-19.277 37.486,-48.14 37.486,-80.349c0,-58.449 -47.103,-106 -105,-106c-57.897,0 -105,47.551 -105,106c0,32.209 14.582,61.072 37.487,80.348c-21.005,6.094 -40.402,17.242 -56.313,32.606c-27.295,-5.339 -56.185,-7.955 -87.173,-7.955c-8.284,0 -15,6.716 -15,15l0,47.58c-17.459,6.192 -30,22.865 -30,42.42l0,30c0,19.555 12.541,36.228 30,42.42l0,47.58c0,8.284 6.716,15 15,15c78.429,0 142.832,18.583 202.68,58.481c5.015,3.342 11.621,3.35 16.641,0c59.848,-39.898 124.25,-58.481 202.68,-58.481c8.284,0 15,-6.716 15,-15l0,-47.58c17.459,-6.192 30,-22.865 30,-42.42l0,-30c-0.002,-19.554 -12.543,-36.227 -30.002,-42.419zm-301,-167.58c0,-41.907 33.645,-76 75,-76s75,34.093 75,76c0,41.355 -33.645,75 -75,75c-41.355,0 -75,-33.645 -75,-75zm-136,255c-8.271,0 -15,-6.729 -15,-15l0,-30c0,-8.271 6.729,-15 15,-15s15,6.729 15,15l0,30c0,8.271 -6.729,15 -15,15zm196,109.085c-54.453,-31.141 -112.886,-46.88 -181,-48.869l0,-32.796c17.459,-6.192 30,-22.865 30,-42.42l0,-30c0,-19.555 -12.541,-36.228 -30,-42.42l0,-32.368c70.481,2.023 127.134,18.62 181,52.916l0,175.957zm15,-201.946c-27.686,-17.469 -56.504,-30.77 -87.268,-40.117c16.904,-10.986 36.803,-17.022 57.268,-17.022l60,0c20.465,0 40.364,6.036 57.268,17.022c-30.764,9.347 -59.583,22.648 -87.268,40.117zm196,153.077c-68.113,1.989 -126.548,17.732 -181,48.871l0,-175.947c53.867,-34.299 110.516,-50.906 181,-52.928l0,32.368c-17.459,6.192 -30,22.865 -30,42.42l0,30c0,19.555 12.541,36.228 30,42.42l0,32.796zm30,-75.216c0,8.271 -6.729,15 -15,15s-15,-6.729 -15,-15l0,-30c0,-8.271 6.729,-15 15,-15s15,6.729 15,15l0,30z"/>
   </g>
  </g>
 </g>
</svg>