<svg width="18" height="19" viewBox="0 0 18 19" fill="none" xmlns="http://www.w3.org/2000/svg">
<path d="M17.2437 15.2719C16.8016 14.2246 16.16 13.2734 15.3547 12.4711C14.5518 11.6665 13.6007 11.025 12.5539 10.582C12.5445 10.5773 12.5351 10.575 12.5257 10.5703C13.9859 9.51562 14.9351 7.79766 14.9351 5.85938C14.9351 2.64844 12.3336 0.046875 9.12262 0.046875C5.91168 0.046875 3.31012 2.64844 3.31012 5.85938C3.31012 7.79766 4.25934 9.51562 5.71949 10.5727C5.71012 10.5773 5.70074 10.5797 5.69137 10.5844C4.64137 11.0273 3.69918 11.6625 2.89059 12.4734C2.086 13.2763 1.4445 14.2274 1.00152 15.2742C0.566341 16.299 0.331637 17.3978 0.310117 18.5109C0.309492 18.536 0.313879 18.5608 0.323021 18.5841C0.332164 18.6074 0.345876 18.6287 0.363349 18.6466C0.380823 18.6645 0.401705 18.6787 0.424764 18.6884C0.447824 18.6981 0.472595 18.7031 0.497617 18.7031H1.90387C2.00699 18.7031 2.08902 18.6211 2.09137 18.5203C2.13824 16.7109 2.8648 15.0164 4.14918 13.732C5.47809 12.4031 7.24293 11.6719 9.12262 11.6719C11.0023 11.6719 12.7671 12.4031 14.0961 13.732C15.3804 15.0164 16.107 16.7109 16.1539 18.5203C16.1562 18.6234 16.2382 18.7031 16.3414 18.7031H17.7476C17.7726 18.7031 17.7974 18.6981 17.8205 18.6884C17.8435 18.6787 17.8644 18.6645 17.8819 18.6466C17.8994 18.6287 17.9131 18.6074 17.9222 18.5841C17.9314 18.5608 17.9357 18.536 17.9351 18.5109C17.9117 17.3906 17.6796 16.3008 17.2437 15.2719ZM9.12262 9.89062C8.04684 9.89062 7.03434 9.47109 6.27262 8.70938C5.5109 7.94766 5.09137 6.93516 5.09137 5.85938C5.09137 4.78359 5.5109 3.77109 6.27262 3.00937C7.03434 2.24766 8.04684 1.82812 9.12262 1.82812C10.1984 1.82812 11.2109 2.24766 11.9726 3.00937C12.7343 3.77109 13.1539 4.78359 13.1539 5.85938C13.1539 6.93516 12.7343 7.94766 11.9726 8.70938C11.2109 9.47109 10.1984 9.89062 9.12262 9.89062Z" fill="white"/>
</svg>
