<svg width="76" height="24" viewBox="0 0 76 24" fill="none" xmlns="http://www.w3.org/2000/svg">
<path d="M30.4308 0.690704L26.5684 23.3569H32.7457L36.6113 0.690704H30.4308Z" fill="white"/>
<path d="M21.389 0.716132L15.3387 16.1738L14.6937 13.8399C13.5004 11.0276 10.1131 6.98883 6.13623 4.44352L11.6685 23.3458L18.205 23.3347L27.9334 0.711365L21.389 0.716132Z" fill="white"/>
<path d="M12.3484 2.33834C11.9893 0.957648 10.9486 0.546141 9.6569 0.496887H0.0794414L0 0.948115C7.45319 2.7562 12.3849 7.11277 14.4313 12.3511L12.3484 2.33834Z" fill="white"/>
<path d="M49.1313 5.03616C51.1523 5.00438 52.6172 5.44608 53.7548 5.90366L54.3125 6.16582L55.1482 1.25316C53.9248 0.793988 52.0071 0.301453 49.6143 0.301453C43.51 0.301453 39.2075 3.37583 39.1741 7.78165C39.1344 11.0372 42.239 12.8548 44.5841 13.94C46.9911 15.0521 47.7983 15.7592 47.7871 16.7522C47.7681 18.2695 45.8678 18.9654 44.0931 18.9654C41.6193 18.9654 40.3054 18.6238 38.2764 17.7786L37.4804 17.4163L36.6113 22.4894C38.0572 23.1234 40.7248 23.6683 43.4941 23.6969C49.9877 23.6969 54.2076 20.6591 54.2521 15.9514C54.2791 13.3759 52.6315 11.4105 49.0614 9.79788C46.9006 8.74607 45.5787 8.04699 45.5914 6.98565C45.5914 6.04348 46.7131 5.03616 49.1313 5.03616Z" fill="white"/>
<path d="M71.0014 0.716125H66.2286C64.7462 0.716125 63.6436 1.11969 62.9921 2.5973L53.8198 23.3696H60.307C60.307 23.3696 61.3652 20.5765 61.6051 19.9648C62.3153 19.9648 68.6182 19.9743 69.5159 19.9743C69.7002 20.7655 70.269 23.3696 70.269 23.3696H75.9999L71.0014 0.716125ZM63.383 15.3254C63.8914 14.0241 65.8441 8.99074 65.8441 8.99074C65.8107 9.05271 66.3477 7.67996 66.6671 6.82676L67.0834 8.78102C67.0834 8.78102 68.267 14.1926 68.5149 15.3254H63.383Z" fill="white"/>
</svg>
