<svg width="47" height="28" viewBox="0 0 47 28" fill="none" xmlns="http://www.w3.org/2000/svg">
<path d="M46.7507 25.2871C46.6938 25.159 46.6408 25.0528 46.5915 24.9677C45.776 23.4341 44.2177 21.5519 41.9175 19.3203L41.8689 19.2692L41.8446 19.2441L41.82 19.2184H41.7953C40.7514 18.1793 40.0903 17.4806 39.8134 17.1229C39.3069 16.4415 39.1934 15.7517 39.4702 15.0528C39.6658 14.5248 40.4006 13.4097 41.6727 11.706C42.3418 10.803 42.8717 10.0794 43.2631 9.53416C46.0856 5.61602 47.3093 3.11228 46.9339 2.02195L46.7881 1.76716C46.6901 1.61376 46.4373 1.47343 46.0299 1.34545C45.6216 1.21774 45.0997 1.19662 44.4633 1.28173L37.4159 1.33256C37.3017 1.29032 37.1387 1.29426 36.9263 1.34545C36.7142 1.39664 36.608 1.42233 36.608 1.42233L36.4854 1.48632L36.388 1.56319C36.3064 1.61403 36.2167 1.70343 36.1187 1.83124C36.0213 1.95859 35.9398 2.10805 35.8746 2.27836C35.1073 4.33954 34.235 6.25592 33.2559 8.0274C32.6523 9.08373 32.0979 9.99918 31.5916 10.7743C31.086 11.5492 30.6618 12.1201 30.3195 12.486C29.9766 12.8523 29.6672 13.1458 29.3894 13.3675C29.1119 13.5892 28.9001 13.6829 28.7535 13.6487C28.6065 13.6144 28.4681 13.5804 28.337 13.5464C28.1088 13.393 27.9252 13.1843 27.7867 12.9203C27.6477 12.6563 27.5541 12.324 27.5052 11.9237C27.4565 11.5231 27.4277 11.1786 27.4195 10.8889C27.4118 10.5995 27.4154 10.1903 27.4319 9.66223C27.4489 9.13393 27.4565 8.77649 27.4565 8.58908C27.4565 7.94167 27.4686 7.23903 27.4928 6.481C27.5175 5.72297 27.5375 5.12236 27.5542 4.67989C27.5708 4.23698 27.5786 3.76838 27.5786 3.27436C27.5786 2.78034 27.5498 2.39291 27.4928 2.11171C27.4366 1.83088 27.3503 1.55827 27.2366 1.29399C27.1221 1.02998 26.9547 0.825747 26.7349 0.680763C26.5147 0.535958 26.241 0.421045 25.9152 0.335666C25.0504 0.131346 23.9493 0.0208189 22.6113 0.00363567C19.5771 -0.0303728 17.6274 0.174215 16.7628 0.617131C16.4202 0.804267 16.1102 1.05996 15.833 1.3834C15.5393 1.75829 15.4983 1.96288 15.7103 1.99653C16.6893 2.14966 17.3824 2.51597 17.7903 3.0951L17.9373 3.40198C18.0516 3.62339 18.1658 4.01539 18.28 4.57742C18.3941 5.13946 18.4677 5.76118 18.5001 6.44225C18.5816 7.68598 18.5816 8.75062 18.5001 9.63628C18.4184 10.5223 18.3413 11.212 18.2677 11.706C18.1941 12.2001 18.084 12.6004 17.9373 12.9069C17.7903 13.2135 17.6925 13.4009 17.6435 13.4689C17.5945 13.537 17.5537 13.5798 17.5213 13.5967C17.3093 13.6815 17.0887 13.7247 16.8605 13.7247C16.6319 13.7247 16.3547 13.6053 16.0285 13.3667C15.7024 13.1281 15.3639 12.8004 15.0131 12.383C14.6623 11.9655 14.2666 11.3821 13.826 10.6326C13.3857 9.88319 12.9289 8.99745 12.4558 7.97541L12.0643 7.2342C11.8196 6.75737 11.4853 6.06305 11.0612 5.1519C10.6367 4.24038 10.2616 3.35866 9.93545 2.50693C9.80508 2.14921 9.60923 1.87688 9.34824 1.68947L9.22576 1.6126C9.14434 1.54458 9.01363 1.47235 8.83433 1.39539C8.65476 1.31851 8.4674 1.26338 8.27147 1.22946L1.56644 1.2803C0.881273 1.2803 0.41638 1.44237 0.171592 1.76608L0.0736251 1.91921C0.0246846 2.0045 0 2.14071 0 2.32821C0 2.51561 0.0489406 2.74562 0.146907 3.01795C1.12572 5.42003 2.19015 7.73663 3.34021 9.96813C4.49027 12.1996 5.48966 13.9971 6.33776 15.3591C7.18603 16.722 8.05068 18.0084 8.93169 19.2175C9.81271 20.427 10.3959 21.2021 10.6812 21.5427C10.9669 21.8838 11.1913 22.1389 11.3544 22.3092L11.9663 22.9223C12.3578 23.3312 12.9327 23.8209 13.6914 24.3915C14.4501 24.9624 15.2902 25.5244 16.2119 26.0785C17.1338 26.6317 18.2063 27.0831 19.43 27.4322C20.6535 27.7817 21.8444 27.9219 23.0027 27.8543H25.817C26.3877 27.8028 26.8201 27.6154 27.114 27.292L27.2114 27.1639C27.2769 27.0622 27.3381 26.9043 27.3947 26.6917C27.452 26.4788 27.4804 26.2442 27.4804 25.9891C27.4637 25.2567 27.5171 24.5967 27.6392 24.0091C27.7611 23.4216 27.9001 22.9787 28.0556 22.6804C28.211 22.3824 28.3864 22.1309 28.5815 21.927C28.7771 21.7227 28.9165 21.5989 28.9983 21.5563C29.0795 21.5135 29.1444 21.4844 29.1933 21.4669C29.5849 21.3307 30.0456 21.4626 30.5764 21.8633C31.1066 22.2636 31.604 22.7579 32.0693 23.3454C32.5342 23.9334 33.0929 24.593 33.7453 25.3254C34.3982 26.058 34.969 26.6026 35.4582 26.9608L35.9475 27.2674C36.2742 27.472 36.6984 27.6594 37.2205 27.8297C37.7417 28 38.1984 28.0426 38.5905 27.9575L44.8548 27.8554C45.4744 27.8554 45.9565 27.7483 46.2985 27.5358C46.6412 27.3228 46.8448 27.0883 46.9104 26.8331C46.9759 26.5777 46.9794 26.2879 46.9228 25.9639C46.8648 25.6408 46.8076 25.4148 46.7507 25.2871Z" fill="#000000"/>
</svg>
