<svg width="42" height="25" viewBox="0 0 42 25" fill="none" xmlns="http://www.w3.org/2000/svg">
<g clip-path="url(#clip0)">
<path d="M41.7772 22.5778C41.7264 22.4634 41.679 22.3686 41.635 22.2926C40.9062 20.9233 39.5137 19.2428 37.4582 17.2503L37.4148 17.2046L37.393 17.1822L37.3711 17.1593H37.349C36.4161 16.2315 35.8254 15.6077 35.5779 15.2883C35.1253 14.6799 35.0239 14.064 35.2712 13.44C35.446 12.9686 36.1027 11.9729 37.2394 10.4518C37.8374 9.64554 38.3109 8.99946 38.6606 8.51264C41.1829 5.0143 42.2764 2.77882 41.9409 1.80531L41.8106 1.57782C41.7231 1.44086 41.4972 1.31556 41.1331 1.20129C40.7682 1.08727 40.3019 1.06841 39.7332 1.1444L33.4355 1.18979C33.3334 1.15207 33.1878 1.15559 32.998 1.20129C32.8084 1.247 32.7135 1.26994 32.7135 1.26994L32.604 1.32707L32.5169 1.39571C32.444 1.4411 32.3639 1.52092 32.2763 1.63504C32.1892 1.74874 32.1164 1.88219 32.0582 2.03425C31.3725 3.87459 30.593 5.58564 29.718 7.16732C29.1787 8.11047 28.6832 8.92784 28.2308 9.61991C27.779 10.3118 27.3999 10.8215 27.094 11.1482C26.7876 11.4753 26.5111 11.7373 26.2629 11.9353C26.0149 12.1332 25.8256 12.2169 25.6946 12.1863C25.5633 12.1557 25.4396 12.1254 25.3224 12.095C25.1185 11.958 24.9544 11.7717 24.8307 11.536C24.7065 11.3003 24.6228 11.0036 24.5791 10.6462C24.5356 10.2885 24.5099 9.98089 24.5025 9.72223C24.4957 9.46384 24.4989 9.09848 24.5136 8.62699C24.5288 8.15529 24.5356 7.83615 24.5356 7.66882C24.5356 7.09078 24.5464 6.46342 24.568 5.78661C24.5901 5.10979 24.608 4.57354 24.6229 4.17847C24.6377 3.78302 24.6447 3.36462 24.6447 2.92354C24.6447 2.48245 24.619 2.13653 24.568 1.88546C24.5178 1.63471 24.4407 1.39131 24.3391 1.15535C24.2368 0.919625 24.0872 0.737274 23.8908 0.607824C23.694 0.478534 23.4494 0.375933 23.1583 0.299702C22.3855 0.117273 21.4015 0.0185883 20.2058 0.00324613C17.4944 -0.0271186 15.7521 0.155549 14.9795 0.55101C14.6734 0.718096 14.3963 0.946393 14.1486 1.23518C13.8862 1.5699 13.8495 1.75257 14.039 1.78262C14.9138 1.91934 15.5332 2.2464 15.8977 2.76348L16.0291 3.03748C16.1312 3.23517 16.2333 3.58517 16.3353 4.08698C16.4373 4.5888 16.503 5.14391 16.532 5.75201C16.6048 6.86248 16.6048 7.81305 16.532 8.60382C16.459 9.39491 16.3901 10.0107 16.3243 10.4518C16.2586 10.8929 16.1602 11.2504 16.0291 11.524C15.8977 11.7978 15.8103 11.9651 15.7665 12.0258C15.7227 12.0866 15.6863 12.1248 15.6573 12.1399C15.4679 12.2156 15.2708 12.2542 15.0668 12.2542C14.8625 12.2542 14.6148 12.1476 14.3233 11.9346C14.0319 11.7215 13.7294 11.4289 13.416 11.0563C13.1025 10.6835 12.7489 10.1626 12.3551 9.49339C11.9617 8.82428 11.5535 8.03344 11.1307 7.1209L10.7809 6.45911C10.5622 6.03337 10.2635 5.41344 9.88448 4.59991C9.50514 3.78605 9.16994 2.9988 8.87849 2.23833C8.76199 1.91894 8.58697 1.67579 8.35375 1.50846L8.2443 1.43982C8.17154 1.37909 8.05473 1.3146 7.89451 1.24588C7.73404 1.17724 7.56661 1.12802 7.39153 1.09773L1.3998 1.14313C0.787521 1.14313 0.372084 1.28783 0.153338 1.57686L0.0657926 1.71358C0.0220586 1.78973 0 1.91135 0 2.07876C0 2.24608 0.0437342 2.45145 0.131279 2.6946C1.00596 4.83931 1.95716 6.90771 2.98487 8.90012C4.01258 10.8925 4.90564 12.4974 5.66353 13.7135C6.42156 14.9304 7.19422 16.0789 7.98151 17.1585C8.7688 18.2384 9.28995 18.9304 9.5449 19.2346C9.80021 19.5391 10.0007 19.7669 10.1465 19.9189L10.6933 20.4663C11.0431 20.8314 11.5569 21.2687 12.2349 21.7781C12.9129 22.2879 13.6636 22.7896 14.4872 23.2844C15.3111 23.7783 16.2695 24.1813 17.363 24.493C18.4563 24.8051 19.5205 24.9303 20.5556 24.8699H23.0705C23.5805 24.8239 23.9669 24.6566 24.2295 24.3679L24.3166 24.2535C24.3751 24.1627 24.4298 24.0217 24.4804 23.8319C24.5316 23.6418 24.557 23.4323 24.557 23.2046C24.542 22.5506 24.5898 21.9613 24.6989 21.4367C24.8078 20.9121 24.932 20.5167 25.071 20.2504C25.2098 19.9843 25.3666 19.7597 25.5409 19.5777C25.7157 19.3953 25.8403 19.2847 25.9134 19.2467C25.9859 19.2085 26.0439 19.1825 26.0876 19.1669C26.4376 19.0453 26.8493 19.163 27.3236 19.5208C27.7974 19.8782 28.2419 20.3196 28.6577 20.8441C29.0731 21.3691 29.5724 21.958 30.1554 22.612C30.7388 23.2661 31.2489 23.7523 31.6861 24.0721L32.1233 24.3459C32.4152 24.5286 32.7943 24.6959 33.2609 24.8479C33.7266 25 34.1347 25.038 34.4851 24.9621L40.083 24.8709C40.6367 24.8709 41.0675 24.7753 41.3731 24.5855C41.6794 24.3954 41.8613 24.186 41.9199 23.9581C41.9785 23.7301 41.9816 23.4713 41.931 23.1821C41.8792 22.8936 41.8281 22.6918 41.7772 22.5778Z" fill="#C4C4C4"/>
</g>
<defs>
<clipPath id="clip0">
<rect width="42" height="25" fill="white"/>
</clipPath>
</defs>
</svg>
