<svg width="30" height="30" viewBox="0 0 30 30" fill="none" xmlns="http://www.w3.org/2000/svg">
<path d="M9.65 20.5697L11.8512 19.9347L25.105 6.52219C25.2095 6.41506 25.2677 6.2711 25.267 6.12142C25.2663 5.97173 25.2068 5.82833 25.1012 5.72219L24.3075 4.91969C24.2562 4.86698 24.1949 4.82502 24.1272 4.79626C24.0596 4.76749 23.9868 4.7525 23.9133 4.75215C23.8397 4.7518 23.7669 4.7661 23.6989 4.79422C23.631 4.82235 23.5693 4.86372 23.5175 4.91594L10.2988 18.2934L9.64875 20.5684L9.65 20.5697ZM25.8787 3.32969L26.6725 4.13344C27.7675 5.24219 27.7775 7.03094 26.6925 8.12844L13.035 21.9509L8.33 23.3059C8.04275 23.3863 7.73533 23.3495 7.4752 23.2035C7.21508 23.0575 7.0235 22.8143 6.9425 22.5272C6.88223 22.3208 6.88136 22.1016 6.94 21.8947L8.30875 17.0947L21.93 3.30844C22.189 3.04763 22.4974 2.84101 22.8371 2.70063C23.1768 2.56024 23.541 2.4889 23.9086 2.49076C24.2761 2.49262 24.6396 2.56765 24.9779 2.71147C25.3162 2.85529 25.6224 3.06502 25.8787 3.32844V3.32969ZM11.48 4.77094C12.1 4.77094 12.6025 5.27969 12.6025 5.90719C12.6035 6.05552 12.5752 6.2026 12.5193 6.34C12.4634 6.47741 12.381 6.60245 12.2768 6.70798C12.1725 6.8135 12.0485 6.89745 11.9118 6.95501C11.7751 7.01257 11.6283 7.04262 11.48 7.04344H6.99C5.75 7.04344 4.745 8.06094 4.745 9.31469V22.9472C4.745 24.2022 5.75 25.2197 6.99 25.2197H20.46C21.7 25.2197 22.7063 24.2022 22.7063 22.9472V18.4034C22.7063 17.7759 23.2087 17.2672 23.8288 17.2672C24.4487 17.2672 24.9513 17.7759 24.9513 18.4047V22.9472C24.9513 25.4572 22.94 27.4922 20.46 27.4922H6.99C4.51 27.4922 2.5 25.4572 2.5 22.9472V9.31469C2.5 6.80594 4.51 4.77094 6.99 4.77094H11.48Z" fill="#00c7c7"/>
</svg>
