<svg width="91" height="91" viewBox="0 0 91 91" fill="none" xmlns="http://www.w3.org/2000/svg">
<path d="M28.002 55.9717L29.9155 58.643C29.3661 57.6958 28.7219 56.8053 28.002 55.9717Z" fill="black"/>
<path d="M15.2324 6.59981C13.622 14.1211 14.0009 21.9266 16.3312 29.2584L19.2488 38.4848L20.4044 42.1223L18.7183 46.8397L17.3163 42.4444L13.4326 30.1678C10.4202 20.6951 10.4771 10.5026 13.5841 1.04883C13.7925 0.423636 14.3609 0.00683594 15.005 0.00683594H15.024C15.6681 0.00683594 16.2365 0.404686 16.4449 1.01094L25.747 27.0797L24.1367 31.5887L15.2324 6.59981Z" fill="black"/>
<path d="M37.9095 1.04885C37.6443 0.253145 36.7918 -0.182595 35.9961 0.0826352C35.5414 0.234195 35.2004 0.575215 35.0488 1.01096L26.0308 26.303L25.7466 27.0797L24.1363 31.5887L20.3851 42.1034L18.699 46.8207L11.5377 66.9407C8.86643 67.0922 6.30883 68.1153 4.2627 69.8393C1.91348 71.7907 0.4168 74.5756 0.0757799 77.6258C0.0189499 78.0616 0 78.5163 0 78.952C0 81.6612 0.94727 84.3135 2.69023 86.4164C4.79316 88.993 7.86233 90.6223 11.1777 90.8875C11.5377 90.9254 11.8976 90.9444 12.2576 90.9444C15.232 90.9254 18.0927 89.8645 20.3472 87.951C22.848 85.8291 24.3636 82.9116 24.591 79.7666C24.8562 75.9018 23.208 72.1506 20.2146 69.7067L23.53 61.636C24.0795 60.3098 24.8373 59.0784 25.8035 57.9985C25.8035 57.9985 26.6181 56.5207 28.058 55.9713C28.6263 55.5735 29.2136 55.2135 29.8199 54.8914C30.1799 54.702 30.464 54.3799 30.5777 54.001L31.3355 51.6139L32.8511 46.8397L38.1179 30.1678C38.1369 30.1299 38.1369 30.0731 38.1558 30.0352C38.2127 29.8457 38.2695 29.6563 38.3263 29.4668C38.3263 29.4858 38.3263 29.4858 38.3453 29.5047L39.823 22.7412C39.823 22.6844 39.842 22.6465 39.842 22.5897C40.8461 15.3526 40.2019 7.98279 37.9095 1.04885ZM36.8107 22.1539C36.4697 24.56 35.9203 26.9282 35.1814 29.2584L34.9162 30.092L27.8306 52.5043C24.6099 54.2852 22.0902 57.0891 20.6883 60.4993L16.9181 69.6688C16.634 70.3319 16.8802 71.1086 17.4865 71.5065C20.1957 73.2684 21.7302 76.3375 21.5218 79.5582C21.3324 81.9264 20.1767 84.1241 18.339 85.6586C16.4256 87.2879 13.9248 88.1026 11.405 87.8942C8.90433 87.6858 6.59293 86.4733 5.00156 84.5219C3.48594 82.6842 2.78496 80.335 3.0502 77.9858C3.58066 73.3442 7.74863 69.8393 12.5418 69.9909C13.2049 70.0098 13.7922 69.612 14.0195 68.9868L26.9213 32.8012L28.6642 27.8944L36.2423 6.61877C37.3791 11.7151 37.5496 17.0008 36.8107 22.1539Z" fill="#00C7C7"/>
<path d="M17.1072 75.2201C16.0841 73.9319 14.5874 73.1172 12.9392 72.9656C9.58594 72.6057 6.55464 74.9928 6.17574 78.2893C6.00524 79.8617 6.45994 81.4342 7.44504 82.6656C8.46814 83.9539 9.96484 84.7686 11.613 84.9201C11.8404 84.9391 12.0677 84.958 12.2761 84.958C15.3642 84.958 18.0355 82.6656 18.3765 79.5965C18.5659 78.024 18.0923 76.4326 17.1072 75.2201ZM15.3642 79.2555C15.1747 80.9037 13.6402 82.0783 11.9351 81.9078C11.1015 81.832 10.3437 81.4153 9.81324 80.7711C9.32064 80.1649 9.09334 79.3881 9.18804 78.6303C9.35854 77.0957 10.7036 75.959 12.2761 75.959C12.3898 75.959 12.5034 75.959 12.6171 75.9779C13.4507 76.0537 14.2085 76.4705 14.739 77.1147C15.2316 77.702 15.4589 78.4787 15.3642 79.2555Z" fill="#00C7C7"/>
<path d="M27.2618 45.4756H24.2305V48.5068H27.2618V45.4756Z" fill="black"/>
<path d="M52.2695 27.2881C53.5251 27.2881 54.543 26.2702 54.543 25.0147C54.543 23.7591 53.5251 22.7412 52.2695 22.7412C51.0139 22.7412 49.9961 23.7591 49.9961 25.0147C49.9961 26.2702 51.0139 27.2881 52.2695 27.2881Z" fill="black"/>
<path d="M65.9101 27.2881C67.1657 27.2881 68.1836 26.2702 68.1836 25.0147C68.1836 23.7591 67.1657 22.7412 65.9101 22.7412C64.6546 22.7412 63.6367 23.7591 63.6367 25.0147C63.6367 26.2702 64.6546 27.2881 65.9101 27.2881Z" fill="black"/>
<path d="M38.2877 29.4668C38.2877 29.4858 38.2877 29.4858 38.3067 29.5047L38.193 30.0352H38.1172C38.1551 29.8457 38.2119 29.6563 38.2877 29.4668Z" fill="black"/>
<path d="M39.8231 22.5898L39.7852 22.7414C39.7852 22.6846 39.8042 22.6467 39.8231 22.5898Z" fill="black"/>
<path d="M82.3926 50.0986L71.5558 47.9389L71.9158 46.6127C72.2947 45.2297 72.6168 43.8277 72.9199 42.4258C73.6777 42.331 74.2461 41.6869 74.2461 40.9291C74.2461 39.8112 74.0566 38.6935 73.7156 37.6137C73.8672 36.4769 73.9808 35.3402 74.0566 34.2035C74.0566 34.1656 74.0566 34.1467 74.0566 34.1088C74.0756 33.8625 74.0945 33.5973 74.1135 33.351H74.2461C77.5994 33.351 80.3086 30.6418 80.3086 27.2885C80.3086 23.9351 77.5994 21.226 74.2461 21.226C74.2461 21.226 74.2461 13.2121 74.2271 13.1174V13.0984C74.2082 12.4732 74.1135 11.848 73.9619 11.2418V11.2039C72.8252 6.42963 68.5625 3.03842 63.6367 3.03842H59.7529C57.631 3.03842 55.566 2.41322 53.8041 1.23861C50.4318 -1.01588 45.8849 -0.106498 43.6304 3.26576C42.8347 4.47826 42.399 5.88021 42.399 7.33905V7.83155C42.399 9.59345 43.0431 11.2986 44.1988 12.6437C44.0094 13.4773 43.9146 14.3299 43.9146 15.1635V21.226C42.3611 21.226 40.8644 21.8322 39.7467 22.8932C39.7467 22.8363 39.7656 22.7795 39.7656 22.7226L38.2879 29.4861C39.1972 31.8164 41.4328 33.351 43.9336 33.351H44.0662C44.0851 33.5973 44.3314 36.4769 44.464 37.6137C44.1041 38.6746 43.9336 39.7924 43.9336 40.9291C43.9336 41.6869 44.5019 42.331 45.2597 42.4258C45.5439 43.8277 46.6238 47.9389 46.6238 47.9389C46.4154 47.9767 37.4543 49.7766 35.7871 50.0986C35.2187 50.2123 34.6693 50.3638 34.1199 50.5723L33.9683 50.1365L32.7937 46.84L31.2781 51.6142L31.8465 53.2246L36.2039 65.4254L33.0779 65.9558L30.8234 60.4617C30.634 59.9881 30.4066 59.5334 30.1793 59.0976C30.1793 59.0787 30.1603 59.0598 30.1603 59.0408C30.0846 58.8892 30.0088 58.7565 29.914 58.624L28.0006 55.9527C26.5607 56.5021 25.7461 57.9799 25.7461 57.9799C26.3334 58.643 26.8449 59.3818 27.2806 60.1396C27.2806 60.1965 27.2806 60.348 27.2806 60.5375C27.2806 63.8719 27.2617 84.8443 27.2617 84.8443C27.2617 88.1976 29.9709 90.9068 33.3242 90.9068H42.4179C42.5885 90.9068 42.759 90.8689 42.9295 90.812L59.1088 85.1284L75.2691 90.812C75.4396 90.8689 75.6101 90.9068 75.7806 90.9068H84.8744C88.2277 90.9068 90.9369 88.1976 90.9369 84.8443V60.4996C90.899 55.4601 87.3373 51.1027 82.3926 50.0986ZM74.2461 24.2572C75.9133 24.2572 77.2773 25.6213 77.2773 27.2885C77.2773 28.9557 75.9133 30.3197 74.2461 30.3197V24.2572ZM43.9336 30.3197C42.2664 30.3197 40.9023 28.9557 40.9023 27.2885C40.9023 25.6213 42.2664 24.2572 43.9336 24.2572V29.2777C43.9336 29.6187 43.9336 29.9787 43.9336 30.3197ZM71.2148 15.1635V18.0621C70.6275 17.1338 70.0781 16.1676 69.5855 15.1635H71.2148ZM68.1836 39.4135C66.5164 39.4135 64.8871 38.8641 63.5609 37.841C62.4242 36.9316 61.0222 36.4201 59.5635 36.3822H58.6351C57.1763 36.4012 55.7744 36.9127 54.6377 37.841C53.3115 38.8641 51.7012 39.4324 50.015 39.4135H47.1353C47.8553 35.8896 50.9623 33.351 54.5619 33.351H63.6556C67.2553 33.351 70.3623 35.8896 71.0822 39.4135H68.1836ZM69.8129 42.4447C69.5666 43.5814 67.9373 49.7008 67.9373 49.7008C67.3879 51.6711 65.607 53.0541 63.542 53.0541H54.6187C52.5726 53.0541 50.7728 51.6711 50.2234 49.7008C50.2234 49.7008 48.5941 43.5814 48.3478 42.4447H49.9771C52.3263 42.4447 54.5998 41.668 56.4564 40.2281C57.0627 39.7355 57.8205 39.4514 58.5972 39.4135H59.5256C60.3213 39.4514 61.0601 39.7355 61.6664 40.2281C63.523 41.668 65.7965 42.4447 68.1457 42.4447H69.8129ZM57.65 22.268L54.9597 30.3197H54.5429C53.0652 30.3197 51.5875 30.6228 50.2424 31.2291C49.9203 31.0207 49.6551 30.7365 49.4656 30.4144L47.1353 23.0447C49.0488 20.6197 50.6781 17.9674 51.9474 15.1445H66.2133C67.5015 17.9674 69.1119 20.6197 71.0443 23.0637L68.8277 30.7933C68.6761 31.0207 68.4677 31.2101 68.2404 31.3617C66.8006 30.6607 65.2092 30.3008 63.6178 30.3008H58.1426L60.5107 23.1963L57.65 22.268ZM46.9648 18.0621V15.1635C46.9648 14.974 46.9648 14.8035 46.9838 14.6141C47.5142 14.8414 48.0826 14.993 48.651 15.0687C48.1205 16.1107 47.5711 17.1148 46.9648 18.0621ZM47.5711 32.9342C47.4006 33.0857 47.249 33.2184 47.0974 33.3699C47.0785 32.991 47.0406 32.612 47.0406 32.2332C47.1922 32.4984 47.3816 32.7257 47.5711 32.9342ZM70.8359 33.1426C70.9306 33.0478 71.0254 32.9342 71.1201 32.8205C71.1011 33.01 71.1011 33.1805 71.0822 33.3699C71.0064 33.2941 70.9117 33.2183 70.8359 33.1426ZM45.4492 7.83155V7.33905C45.4492 4.97084 47.3816 3.03842 49.7498 3.03842C50.6023 3.03842 51.4359 3.28471 52.1369 3.75834C54.3914 5.27396 57.0437 6.06967 59.7719 6.06967H63.6367C67.2363 6.06967 70.3433 8.60835 71.0633 12.1322H49.7498C47.3816 12.1322 45.4492 10.1998 45.4492 7.83155ZM40.0687 87.8755C39.7846 87.8944 39.5004 87.9135 39.2351 87.9135C35.1619 87.9135 31.4297 85.1664 30.2929 81.3584L33.2105 80.2027C33.8547 82.9877 36.3365 84.958 39.1972 84.958C39.4246 84.958 39.6519 84.939 39.8603 84.9201C42.3611 84.6738 44.4451 82.9308 45.1271 80.5058L46.548 80.771L48.1205 81.3204C47.1353 84.9012 43.9715 87.5155 40.0687 87.8755ZM36.1092 79.0281L36.507 78.8765L42.1338 79.9375C41.717 81.0363 40.7129 81.7941 39.5572 81.8889C37.8521 82.0783 36.3176 80.8848 36.1281 79.2365C36.1092 79.1796 36.1092 79.1039 36.1092 79.0281ZM49.674 85.2611C50.2424 84.3517 50.697 83.3666 51.0002 82.3246L54.5051 83.556L49.674 85.2611ZM58.8814 76.1295L56.3617 75.618L55.7744 78.5924L58.3131 79.1039C58.3131 80.0322 58.4646 80.9605 58.7677 81.832L47.4763 77.8725C47.4006 77.8535 47.3248 77.8345 47.249 77.8156L36.6396 75.8264C36.3554 75.7695 36.0713 75.8074 35.806 75.9021L30.3119 78.0998C30.3119 75.4285 30.3119 72.3594 30.3119 69.4986L37.6437 68.2672L46.3017 72.5867C46.4722 72.6814 46.6806 72.7383 46.8701 72.7383L60.4349 73.7045C59.7719 74.4244 59.2414 75.258 58.8814 76.1295ZM87.8867 84.8821C87.8867 86.5493 86.5226 87.9135 84.8554 87.9135H76.0269L65.3986 84.1812V84.1623C65.3418 84.1623 65.3039 84.1432 65.247 84.1244L64.1861 83.7455C62.6136 82.9877 61.5338 81.453 61.3443 79.7101L67.1795 80.8848L66.7058 83.2719L69.6803 83.8592L70.1539 81.4721L72.6357 81.9646C73.0336 84.2191 75.1933 85.7348 77.4478 85.318C79.7023 84.9201 81.199 82.7603 80.8011 80.5058C80.4033 78.2514 78.2435 76.7356 75.989 77.1525C74.8523 77.3608 73.8482 78.0239 73.223 78.9902L70.7412 78.4976L71.2148 76.1105L68.2404 75.5232L67.7668 77.9103L61.9316 76.7356C62.7652 75.22 64.3187 74.216 66.0428 74.1022L87.8677 75.6558V84.8821H87.8867ZM75.6101 81.2447C75.6101 81.1689 75.6101 81.0931 75.6291 81.0173C75.7427 80.411 76.349 80.0133 76.9552 80.1459C77.5615 80.2785 77.9594 80.8658 77.8267 81.4721C77.7131 82.0783 77.1068 82.4762 76.5006 82.3435C75.9701 82.2487 75.6101 81.7752 75.6101 81.2447ZM87.8867 72.6435L73.8103 71.6394L80.5549 68.2672L87.9056 69.4986V72.6435H87.8867ZM87.8867 66.4295L80.5549 65.198C80.2328 65.1412 79.9107 65.198 79.6265 65.3307L75.7617 67.282V62.1478H72.7304V68.7976L70.8359 69.7449L55.0924 70.3133L47.3816 69.7639L43.9336 68.0397V62.1478H40.9023V66.5242L39.5762 65.8611L35.143 53.433C35.5408 53.2814 35.9576 53.1678 36.3933 53.073C38.0605 52.732 47.1543 50.9133 47.4385 50.8564C48.4615 53.9635 51.3601 56.0664 54.6377 56.0664H63.5609C66.8385 56.0664 69.7371 53.9635 70.7601 50.8564L81.8052 53.073C85.348 53.793 87.8867 56.9 87.9056 60.4996V66.4295H87.8867Z" fill="black"/>
</svg>
