<svg width="65" height="65" viewBox="0 0 65 65" fill="none" xmlns="http://www.w3.org/2000/svg">
<g clip-path="url(#clip0)">
<path d="M65 32.5C65 43.2302 56.3333 52 45.5 52C34.7698 52 26 43.2302 26 32.5C26 21.7698 34.6667 13 45.3968 13C56.3333 13 65 21.7698 65 32.5Z" fill="#FFB600"/>
<path d="M45.5 13C56.2302 13 65 21.7698 65 32.5C65 43.2302 56.3333 52 45.5 52C34.7698 52 26 43.2302 26 32.5" fill="#F7981D"/>
<path d="M45.5 13C56.2302 13 65 21.7698 65 32.5C65 43.2302 56.3333 52 45.5 52" fill="#FF8500"/>
<path d="M19.2937 13C8.66667 13.1032 0 21.7698 0 32.5C0 43.2302 8.66667 52 19.5 52C24.5556 52 29.0952 50.0397 32.6032 46.9444C33.3254 46.3254 33.9444 45.6032 34.5635 44.8809H30.5397C30.0238 44.2619 29.5079 43.5397 29.0952 42.9206H36.0079C36.4206 42.3016 36.8333 41.5794 37.1429 40.8571H27.9603C27.6508 40.2381 27.3413 39.5159 27.1349 38.7936H37.8651C38.4841 36.8333 38.8968 34.7698 38.8968 32.6032C38.8968 31.1587 38.6905 29.8175 38.4841 28.4762H26.5159C26.619 27.754 26.8254 27.1349 27.0317 26.4127H37.7619C37.5556 25.6905 37.246 24.9683 36.9365 24.3492H27.8571C28.1667 23.627 28.5794 23.0079 28.9921 22.2857H35.9048C35.4921 21.5635 34.9762 20.8413 34.3571 20.2222H30.5397C31.1587 19.5 31.7778 18.881 32.5 18.2619C29.0952 15.0635 24.4524 13.2063 19.3968 13.2063C19.3968 13 19.3968 13 19.2937 13Z" fill="#FF5050"/>
<path d="M0 32.5C0 43.2302 8.66667 52 19.5 52C24.5556 52 29.0952 50.0397 32.6032 46.9445C33.3254 46.3254 33.9444 45.6032 34.5635 44.881H30.5397C30.0238 44.2619 29.5079 43.5397 29.0952 42.9206H36.0079C36.4206 42.3016 36.8333 41.5794 37.1429 40.8572H27.9603C27.6508 40.2381 27.3413 39.5159 27.1349 38.7937H37.8651C38.4841 36.8333 38.8968 34.7699 38.8968 32.6032C38.8968 31.1587 38.6905 29.8175 38.4841 28.4762H26.5159C26.619 27.754 26.8254 27.1349 27.0317 26.4127H37.7619C37.5556 25.6905 37.246 24.9683 36.9365 24.3492H27.8571C28.1667 23.627 28.5794 23.0079 28.9921 22.2857H35.9048C35.4921 21.5635 34.9762 20.8413 34.3571 20.2222H30.5397C31.1587 19.5 31.7778 18.881 32.5 18.2619C29.0952 15.0635 24.4524 13.2064 19.3968 13.2064H19.2937" fill="#E52836"/>
<path d="M19.4998 52C24.5554 52 29.095 50.0397 32.603 46.9445C33.3252 46.3254 33.9442 45.6032 34.5633 44.881H30.5395C30.0236 44.2619 29.5077 43.5397 29.095 42.9206H36.0077C36.4204 42.3016 36.8331 41.5794 37.1427 40.8572H27.9601C27.6506 40.2381 27.3411 39.5159 27.1347 38.7937H37.8649C38.4839 36.8333 38.8966 34.7699 38.8966 32.6032C38.8966 31.1587 38.6903 29.8175 38.4839 28.4762H26.5157C26.6189 27.754 26.8252 27.1349 27.0315 26.4127H37.7617C37.5554 25.6905 37.2458 24.9683 36.9363 24.3492H27.8569C28.1665 23.627 28.5792 23.0079 28.9919 22.2857H35.9046C35.4919 21.5635 34.976 20.8413 34.3569 20.2222H30.5395C31.1585 19.5 31.7776 18.881 32.4998 18.2619C29.095 15.0635 24.4522 13.2064 19.3966 13.2064H19.2935" fill="#CB2026"/>
<path d="M26.4125 37.4524L26.722 35.6984C26.6188 35.6984 26.4125 35.8016 26.2061 35.8016C25.4839 35.8016 25.3807 35.3889 25.4839 35.1825L26.1029 31.5714H27.2379L27.5474 29.6111H26.5156L26.722 28.373H24.6585C24.6585 28.373 23.4204 35.1825 23.4204 36.0079C23.4204 37.246 24.1426 37.7619 25.0712 37.7619C25.6902 37.7619 26.2061 37.5556 26.4125 37.4524Z" fill="white"/>
<path d="M27.1348 34.1508C27.1348 37.0397 29.0951 37.7619 30.7459 37.7619C32.2935 37.7619 32.9125 37.4524 32.9125 37.4524L33.3252 35.4921C33.3252 35.4921 32.1903 36.0079 31.1586 36.0079C28.8887 36.0079 29.3014 34.3571 29.3014 34.3571H33.5316C33.5316 34.3571 33.8411 33.0159 33.8411 32.5C33.8411 31.1587 33.1189 29.5079 30.849 29.5079C28.6824 29.3016 27.1348 31.5714 27.1348 34.1508ZM30.7459 31.1587C31.8808 31.1587 31.6744 32.5 31.6744 32.6032H29.4046C29.4046 32.5 29.611 31.1587 30.7459 31.1587Z" fill="white"/>
<path d="M43.8489 37.4524L44.2616 35.1825C44.2616 35.1825 43.2299 35.6984 42.5077 35.6984C41.0632 35.6984 40.4442 34.5635 40.4442 33.3254C40.4442 30.8492 41.6823 29.5079 43.1267 29.5079C44.1584 29.5079 44.9838 30.127 44.9838 30.127L45.2934 27.9603C45.2934 27.9603 44.0553 27.4445 42.9203 27.4445C40.5473 27.4445 38.1743 29.5079 38.1743 33.4286C38.1743 36.0079 39.4124 37.7619 41.8886 37.7619C42.714 37.7619 43.8489 37.4524 43.8489 37.4524Z" fill="white"/>
<path d="M15.0632 29.3016C13.6188 29.3016 12.587 29.7143 12.587 29.7143L12.2775 31.4683C12.2775 31.4683 13.2061 31.0556 14.5473 31.0556C15.2696 31.0556 15.8886 31.1587 15.8886 31.7778C15.8886 32.1905 15.7854 32.2937 15.7854 32.2937C15.7854 32.2937 15.1664 32.2937 14.8569 32.2937C13.1029 32.2937 11.1426 33.0159 11.1426 35.3889C11.1426 37.246 12.3807 37.6587 13.1029 37.6587C14.5473 37.6587 15.1664 36.7302 15.2696 36.7302L15.1664 37.5556H17.0235L17.8489 31.881C17.8489 29.4048 15.7854 29.3016 15.0632 29.3016ZM15.4759 33.9445C15.4759 34.254 15.2696 35.9048 14.0315 35.9048C13.4124 35.9048 13.2061 35.3889 13.2061 35.0794C13.2061 34.5635 13.5156 33.8413 15.0632 33.8413C15.3727 33.9445 15.4759 33.9445 15.4759 33.9445Z" fill="white"/>
<path d="M19.8095 37.6587C20.3254 37.6587 22.9048 37.7619 22.9048 34.9762C22.9048 32.3968 20.4286 32.9127 20.4286 31.881C20.4286 31.3651 20.8413 31.1587 21.5635 31.1587C21.873 31.1587 23.008 31.2619 23.008 31.2619L23.3175 29.4048C23.3175 29.4048 22.5953 29.1984 21.3572 29.1984C19.8095 29.1984 18.2619 29.8175 18.2619 31.881C18.2619 34.254 20.8413 34.0476 20.8413 34.9762C20.8413 35.5952 20.1191 35.6984 19.6032 35.6984C18.6746 35.6984 17.746 35.3889 17.746 35.3889L17.4365 37.246C17.5397 37.4524 18.0556 37.6587 19.8095 37.6587Z" fill="white"/>
<path d="M60.9762 27.6508L60.5635 30.4365C60.5635 30.4365 59.7381 29.4048 58.6031 29.4048C56.746 29.4048 55.0952 31.6746 55.0952 34.3572C55.0952 36.008 55.9206 37.7619 57.6746 37.7619C58.9127 37.7619 59.6349 36.9365 59.6349 36.9365L59.5317 37.6587H61.5952L63.1428 27.754L60.9762 27.6508ZM60.0476 33.1191C60.0476 34.254 59.5317 35.6984 58.3968 35.6984C57.6746 35.6984 57.2619 35.0794 57.2619 34.0476C57.2619 32.3968 57.9841 31.3651 58.9127 31.3651C59.6349 31.3651 60.0476 31.881 60.0476 33.1191Z" fill="white"/>
<path d="M3.81725 37.5556L5.05535 30.127L5.2617 37.5556H6.70614L9.38868 30.127L8.25376 37.5556H10.4204L12.0712 27.6508H8.66646L6.60297 33.7381L6.49979 27.6508H3.50773L1.85693 37.5556H3.81725Z" fill="white"/>
<path d="M35.8016 37.5555C36.4206 34.1508 36.5238 31.3651 37.9682 31.8809C38.1746 30.5397 38.4841 30.0238 38.6905 29.5079C38.6905 29.5079 38.5873 29.5079 38.2778 29.5079C37.3492 29.5079 36.627 30.746 36.627 30.746L36.8333 29.6111H34.873L33.5317 37.6587H35.8016V37.5555Z" fill="white"/>
<path d="M48.5949 29.3016C47.1505 29.3016 46.1188 29.7143 46.1188 29.7143L45.8092 31.4683C45.8092 31.4683 46.7378 31.0556 48.0791 31.0556C48.8013 31.0556 49.4203 31.1587 49.4203 31.7778C49.4203 32.1905 49.3172 32.2937 49.3172 32.2937C49.3172 32.2937 48.6981 32.2937 48.3886 32.2937C46.6346 32.2937 44.6743 33.0159 44.6743 35.3889C44.6743 37.246 45.9124 37.6587 46.6346 37.6587C48.0791 37.6587 48.6981 36.7302 48.8013 36.7302L48.6981 37.5556H50.5553L51.3807 31.881C51.4838 29.4048 49.3172 29.3016 48.5949 29.3016ZM49.1108 33.9445C49.1108 34.254 48.9045 35.9048 47.6664 35.9048C47.0473 35.9048 46.841 35.3889 46.841 35.0794C46.841 34.5635 47.1505 33.8413 48.6981 33.8413C49.0076 33.9445 49.0076 33.9445 49.1108 33.9445Z" fill="white"/>
<path d="M53.1346 37.5555C53.7536 34.1508 53.8568 31.3651 55.3013 31.8809C55.5076 30.5397 55.8171 30.0238 56.0235 29.5079C56.0235 29.5079 55.9203 29.5079 55.6108 29.5079C54.6822 29.5079 53.96 30.746 53.96 30.746L54.1663 29.6111H52.206L50.8647 37.6587H53.1346V37.5555Z" fill="white"/>
<path d="M23.2139 36.0079C23.2139 37.246 23.9361 37.7619 24.8647 37.7619C25.5869 37.7619 26.2059 37.5556 26.4123 37.4524L26.7218 35.6984C26.6186 35.6984 26.4123 35.8016 26.2059 35.8016C25.4837 35.8016 25.3805 35.3889 25.4837 35.1825L26.1028 31.5714H27.2377L27.5472 29.6111H26.5155L26.7218 28.373" fill="#DCE5E5"/>
<path d="M28.1665 34.1508C28.1665 37.0397 29.0951 37.7619 30.7459 37.7619C32.2935 37.7619 32.9125 37.4524 32.9125 37.4524L33.3252 35.4921C33.3252 35.4921 32.1903 36.0079 31.1586 36.0079C28.8887 36.0079 29.3014 34.3571 29.3014 34.3571H33.5316C33.5316 34.3571 33.8411 33.0159 33.8411 32.5C33.8411 31.1587 33.1189 29.5079 30.849 29.5079C28.6824 29.3016 28.1665 31.5714 28.1665 34.1508ZM30.7459 31.1587C31.8808 31.1587 32.0871 32.5 32.0871 32.6032H29.4046C29.4046 32.5 29.6109 31.1587 30.7459 31.1587Z" fill="#DCE5E5"/>
<path d="M43.8489 37.4524L44.2616 35.1825C44.2616 35.1825 43.2299 35.6984 42.5076 35.6984C41.0632 35.6984 40.4442 34.5635 40.4442 33.3254C40.4442 30.8492 41.6822 29.5079 43.1267 29.5079C44.1584 29.5079 44.9838 30.127 44.9838 30.127L45.2934 27.9603C45.2934 27.9603 44.0553 27.4445 42.9203 27.4445C40.5473 27.4445 39.2061 29.5079 39.2061 33.4286C39.2061 36.0079 39.4124 37.7619 41.8886 37.7619C42.714 37.7619 43.8489 37.4524 43.8489 37.4524Z" fill="#DCE5E5"/>
<path d="M12.2775 31.5714C12.2775 31.5714 13.2061 31.1587 14.5473 31.1587C15.2696 31.1587 15.8886 31.2619 15.8886 31.8809C15.8886 32.2936 15.7854 32.3968 15.7854 32.3968C15.7854 32.3968 15.1664 32.3968 14.8569 32.3968C13.1029 32.3968 11.1426 33.119 11.1426 35.4921C11.1426 37.3492 12.3807 37.7619 13.1029 37.7619C14.5473 37.7619 15.1664 36.8333 15.2696 36.8333L15.1664 37.6587H17.0235L17.8489 31.9841C17.8489 29.6111 15.7854 29.5079 14.96 29.5079L12.2775 31.5714ZM16.5077 33.9444C16.5077 34.254 15.2696 35.9048 14.0315 35.9048C13.4124 35.9048 13.2061 35.3889 13.2061 35.0794C13.2061 34.5635 13.5156 33.8413 15.0632 33.8413C15.3727 33.9444 16.5077 33.9444 16.5077 33.9444Z" fill="#DCE5E5"/>
<path d="M17.5396 37.4524C17.5396 37.4524 18.1586 37.6587 19.9126 37.6587C20.4284 37.6587 23.0078 37.7619 23.0078 34.9762C23.0078 32.3968 20.5316 32.9127 20.5316 31.881C20.5316 31.3651 20.9443 31.1587 21.6665 31.1587C21.9761 31.1587 23.111 31.2619 23.111 31.2619L23.4205 29.4048C23.4205 29.4048 22.6983 29.1984 21.4602 29.1984C19.9126 29.1984 19.3967 29.8175 19.3967 31.881C19.3967 34.254 20.9443 34.0476 20.9443 34.9762C20.9443 35.5952 20.2221 35.6984 19.7062 35.6984" fill="#DCE5E5"/>
<path d="M60.5631 30.4365C60.5631 30.4365 59.7377 29.4048 58.6028 29.4048C56.7457 29.4048 56.1266 31.6746 56.1266 34.3571C56.1266 36.0079 55.9203 37.7619 57.6742 37.7619C58.9123 37.7619 59.6346 36.9365 59.6346 36.9365L59.5314 37.6587H61.5949L63.1425 27.754L60.5631 30.4365ZM60.46 33.119C60.46 34.254 59.5314 35.6984 58.3965 35.6984C57.6742 35.6984 57.2615 35.0794 57.2615 34.0476C57.2615 32.3968 57.9838 31.3651 58.9123 31.3651C59.6346 31.3651 60.46 31.8809 60.46 33.119Z" fill="#DCE5E5"/>
<path d="M3.81725 37.5556L5.05535 30.127L5.2617 37.5556H6.70614L9.38868 30.127L8.25376 37.5556H10.4204L12.0712 27.6508H9.49185L6.60297 33.7381L6.49979 27.6508H5.36487L1.85693 37.5556H3.81725Z" fill="#DCE5E5"/>
<path d="M33.6348 37.5556H35.8014C36.4205 34.1508 36.5237 31.3651 37.9681 31.881C38.1744 30.5397 38.484 30.0238 38.6903 29.5079C38.6903 29.5079 38.5871 29.5079 38.2776 29.5079C37.3491 29.5079 36.6268 30.746 36.6268 30.746L36.8332 29.6111" fill="#DCE5E5"/>
<path d="M45.8092 31.5714C45.8092 31.5714 46.7378 31.1587 48.0791 31.1587C48.8013 31.1587 49.4204 31.2619 49.4204 31.8809C49.4204 32.2936 49.3172 32.3968 49.3172 32.3968C49.3172 32.3968 48.6981 32.3968 48.3886 32.3968C46.6346 32.3968 44.6743 33.119 44.6743 35.4921C44.6743 37.3492 45.9124 37.7619 46.6346 37.7619C48.0791 37.7619 48.6981 36.8333 48.8013 36.8333L48.6981 37.6587H50.5553L51.3807 31.9841C51.3807 29.6111 49.3172 29.5079 48.4918 29.5079L45.8092 31.5714ZM50.0394 33.9444C50.0394 34.254 48.8013 35.9048 47.5632 35.9048C46.9442 35.9048 46.7378 35.3889 46.7378 35.0794C46.7378 34.5635 47.0473 33.8413 48.595 33.8413C49.0077 33.9444 50.0394 33.9444 50.0394 33.9444Z" fill="#DCE5E5"/>
<path d="M50.9683 37.5556H53.1349C53.754 34.1508 53.8571 31.3651 55.3016 31.881C55.5079 30.5397 55.8175 30.0238 56.0238 29.5079C56.0238 29.5079 55.9206 29.5079 55.6111 29.5079C54.6825 29.5079 53.9603 30.746 53.9603 30.746L54.1667 29.6111" fill="#DCE5E5"/>
</g>
<defs>
<clipPath id="clip0">
<rect width="65" height="65" fill="white"/>
</clipPath>
</defs>
</svg>
