<svg width="191" height="57" viewBox="0 0 191 57" fill="none" xmlns="http://www.w3.org/2000/svg">
<path d="M0.814469 13.4123C1.27033 12.6996 1.77864 12.0218 2.33519 11.3847C4.45224 9.10037 6.99839 7.25535 9.82835 5.95489C13.3269 4.26519 16.6694 3.72362 19.856 4.33018C22.5251 4.76399 24.9511 6.13777 26.6961 8.20348C28.3749 10.1791 29.1829 12.3671 29.1201 14.7673C29.0226 17.278 27.9243 19.3771 25.8252 21.0647C28.4789 20.9434 30.8077 21.4015 32.8115 22.4392C34.9173 23.4779 36.5668 25.2559 37.4451 27.4335C38.4942 29.8165 38.6787 32.491 37.9669 34.9955C37.255 37.5 35.6914 39.6775 33.5458 41.1525C28.3099 44.9175 21.4082 45.1103 12.8406 41.7309L12.5156 42.9982C12.5871 43.0697 12.0683 42.9495 10.9591 42.6375L11.1769 41.0453L9.58464 40.285C9.67996 40.1875 9.80018 39.7542 9.94532 38.9852L11.3946 39.4206C11.9711 34.3858 12.0559 29.3068 11.648 24.2556C9.92799 24.1213 8.21122 23.9209 6.49769 23.6544C6.61901 23.5591 6.9082 22.8713 7.36529 21.5911C8.70586 22.1897 10.0994 22.6618 11.5278 23.0013C10.8519 16.3205 10.3331 12.979 9.97132 12.9769C13.0843 13.0982 14.9061 13.5683 15.4368 14.3871C15.8961 15.0868 15.9806 18.0665 15.6903 23.3263C18.3532 23.0948 20.8566 21.9584 22.7838 20.1061C24.207 18.8063 24.6652 16.9964 24.1583 14.6763C23.6628 12.3773 22.2864 10.3639 20.324 9.06782C18.0082 7.42795 15.2819 6.89722 12.1452 7.47561C8.40402 8.17532 4.48306 10.4196 0.382296 14.2084C0.323807 14.2084 0.467864 13.943 0.814469 13.4123ZM28.142 39.2939C30.9582 37.6042 32.1497 35.1303 31.7164 31.8722C31.2637 28.7008 29.5783 26.3482 26.6603 24.8145C23.3524 23.0533 19.6546 23.1854 15.5668 25.2109C15.1428 30.1457 14.3686 35.0441 13.25 39.869C19.8008 41.4634 24.7648 41.2717 28.142 39.2939Z" fill="white"/>
<path d="M45.7344 34.0071C47.4674 35.504 49.2654 34.8541 51.1284 32.0574C51.2736 31.8408 51.2855 31.2733 51.1642 30.3547L51.018 29.0875C52.4174 28.9423 53.3099 29.3041 53.6955 30.1728C53.6955 30.7772 53.3575 31.6339 52.6817 32.7431C52.1612 33.6301 51.4491 34.3895 50.5973 34.9658C49.7456 35.542 48.7757 35.9206 47.7588 36.0737C44.9426 36.5568 42.7103 35.5192 41.0617 32.9608C39.7338 30.9093 39.1424 28.7983 39.2876 26.6277C39.5518 22.6699 41.2773 19.8104 44.4639 18.0492C45.6185 17.3617 46.9658 17.0696 48.3014 17.2174C48.8979 17.2794 49.4691 17.4905 49.9626 17.8312C50.456 18.1719 50.8558 18.6313 51.1252 19.167C52.5961 21.8944 51.9462 24.4397 49.1755 26.8031C48.1988 27.6501 47.0845 28.3238 45.8806 28.795C44.7693 29.2543 44.0209 29.3626 43.6353 29.12C43.5637 30.0436 43.7173 30.9709 44.0829 31.8221C44.4485 32.6733 45.0152 33.4231 45.7344 34.0071ZM48.4477 23.6545C49.2449 22.424 49.6554 21.3745 49.6792 20.5058C49.7269 19.5158 49.2438 18.9244 48.23 18.7316C46.8782 18.4673 45.6239 19.9512 44.4671 23.1833C44.0591 24.245 43.7566 25.3443 43.5638 26.4652C43.371 27.479 43.371 27.9372 43.5638 27.8397C45.0109 27.922 46.6388 26.5269 48.4477 23.6545Z" fill="white"/>
<path d="M65.6402 19.8202C64.724 19.7791 63.8099 19.94 62.9627 20.2913C60.2852 21.4243 58.6756 24.5849 58.1341 29.7731C57.8936 32.5243 58.4005 33.8241 59.6548 33.6724C60.595 33.5771 61.5362 32.9131 62.4785 31.6805C63.7566 30.0147 64.5896 26.4316 64.9773 20.9315L67.3657 21.6203C67.0039 26.1804 66.823 28.8947 66.823 29.7634C66.8107 30.9345 67.2071 32.0733 67.9441 32.9835C68.8842 34.214 70.0064 33.8761 71.3104 31.9697L71.4567 32.077C70.9021 34.1284 69.8764 35.2386 68.3795 35.4076C66.5208 35.6242 65.3987 34.7436 65.0131 32.7658C64.8196 31.7743 64.8075 30.756 64.9773 29.7601C64.446 31.0353 63.7525 32.2367 62.914 33.3345C61.2481 35.5549 59.6559 36.2546 58.1373 35.4336C55.6764 34.0819 54.3615 31.934 54.1925 28.99C54.0474 26.4316 54.7471 23.8733 56.2917 21.3149C57.8362 18.7565 59.5616 17.2239 61.468 16.717C63.6342 16.1386 65.4203 17.1275 66.8263 19.6837C66.8328 19.7747 66.4374 19.8202 65.6402 19.8202Z" fill="white"/>
<path d="M75.1612 27.7097C74.8471 30.1966 74.8233 31.8982 75.0897 32.8145C75.4277 33.9496 76.2 33.8045 77.4066 32.3791C76.9235 32.9575 78.7811 27.9144 82.9793 17.2498L84.929 17.357C86.2287 17.4545 86.8321 17.6473 86.7389 17.9354C85.6578 20.5849 84.8352 23.3326 84.2823 26.1402C83.2924 30.9429 83.8599 33.2954 85.985 33.1979C86.6133 33.1741 87.1927 32.6791 87.7235 31.713C87.7711 33.6431 87.1559 34.7533 85.8778 35.0436C83.8025 35.5007 82.3544 34.8129 81.5333 32.9802C81.0527 31.8455 80.8179 30.6217 80.8445 29.3896C81.0134 29.4871 80.7838 30.0547 80.1556 31.0923C79.5414 32.1761 78.7864 33.1736 77.9102 34.059C75.3995 36.5438 73.4813 36.508 72.1555 33.9518C71.601 32.9142 71.589 30.098 72.1198 25.5033C72.6267 21.0386 73.1683 18.5171 73.7445 17.9387C75.627 17.4556 76.8184 17.4675 77.3189 17.9744C76.6603 18.6005 75.9411 21.8456 75.1612 27.7097Z" fill="white"/>
<path d="M91.0152 15.2222C91.5459 15.3197 91.9684 15.3804 92.2825 15.4042C92.7157 12.1548 93.2226 8.14717 93.8032 3.38136C95.8785 3.74313 97.1328 4.14173 97.566 4.57715C97.6375 4.64863 96.8652 8.3768 95.2492 15.7616C99.4474 16.2447 102.138 16.353 103.321 16.0866L103.392 16.8827C102.248 17.8553 99.3413 18.3882 94.6708 18.4814C93.8259 22.7533 93.4035 26.2399 93.4035 28.9413C93.6938 32.6088 94.9936 34.4501 97.3028 34.4653C98.1422 34.4666 98.9623 34.214 99.6554 33.7406C100.355 33.2576 100.705 32.7626 100.705 32.2557L101.608 32.4734C101.608 33.1969 100.944 34.1013 99.6164 35.1866C97.9267 36.5384 96.093 36.8276 94.1151 36.0542C92.016 35.0166 90.9426 32.3867 90.895 28.1647C90.8711 26.3796 91.1853 23.1465 91.8373 18.4651C90.0025 18.4175 88.8565 18.2843 88.3994 18.0655C87.7972 17.7752 87.3867 17.1481 87.1679 16.1841C86.9645 15.3776 87.0284 14.527 87.3499 13.76C87.742 14.4445 88.9637 14.932 91.0152 15.2222Z" fill="white"/>
<path d="M104.006 18.0817C105.672 16.8989 107.405 16.4656 109.205 16.7819C110.676 17.0484 110.965 19.6663 110.073 24.6358C109.083 30.0168 108.817 32.9608 109.276 33.4677C109.638 33.8533 110.556 33.902 112.029 33.6139C113.621 33.2998 114.767 32.7322 115.467 31.9112C116.166 25.59 116.516 20.8361 116.516 17.6495C116.516 17.3116 117.216 17.1783 118.615 17.2498C120.015 17.3213 120.738 17.5379 120.786 17.8997C121.219 20.6985 119.711 28.9759 116.263 42.7317C118.338 42.9722 121.162 43.3578 124.734 43.8885C127.58 44.3218 129.656 44.5872 130.96 44.6846C134.798 45.0157 138.665 44.6971 142.398 43.7423C142.615 43.6936 142.651 43.7781 142.505 43.9958C142.258 44.3373 141.95 44.6313 141.598 44.8634C140.16 45.9494 138.534 46.7623 136.802 47.2614C130.624 49.2392 123.445 48.7204 115.265 45.705C113.985 48.7204 112.597 51.0253 111.103 52.6197C110.044 53.7918 108.747 54.7242 107.299 55.3547C105.851 55.9851 104.285 56.299 102.706 56.2753C99.786 56.2753 97.7952 55.3828 96.7337 53.5978C95.9625 52.2699 95.7578 50.6896 96.1196 48.8569C96.5052 46.9506 97.675 45.3822 99.6289 44.1517C102.525 42.3667 106.723 41.7515 112.224 42.3061L114.287 42.5238C115.046 39.5913 115.447 36.5778 115.483 33.5489C115.483 33.6204 114.807 33.9822 113.455 34.6342C111.863 35.3816 110.487 35.7065 109.328 35.609C105.587 35.3426 104.646 30.7577 106.505 21.8543C107.083 19.0554 106.576 18.0806 104.984 18.9298C103.784 19.5692 102.744 20.4724 101.943 21.5716C101.742 21.4527 101.569 21.292 101.436 21.1004C101.776 20.0541 102.632 19.0478 104.006 18.0817ZM99.9539 51.8529C100.461 53.6877 101.631 54.5802 103.463 54.5304C105.153 54.4589 106.866 53.7007 108.604 52.2558C110.655 50.5423 112.272 48.1529 113.455 45.0876C111.098 44.3713 108.604 44.2254 106.18 44.6619C104.128 45.0475 102.632 45.6974 101.692 46.6115C100.003 48.2233 99.4231 49.9704 99.9539 51.8529Z" fill="white"/>
<path d="M121.091 33.2467C121.453 33.2944 122.357 32.3412 123.805 30.3872C122.526 21.6052 123.492 13.3733 126.7 5.69169C128.582 1.20317 130.501 -0.630587 132.455 0.190432C134.144 0.913969 135.119 2.74772 135.379 5.69169C135.596 7.91213 135.077 10.9449 133.823 14.7901C131.368 21.0571 128.993 25.629 126.697 28.5058C126.744 33.0182 127.408 36.3608 128.688 38.5335C130.112 40.9706 132.138 41.5013 134.768 40.1257C135.806 39.595 136.627 38.6657 137.231 37.3377L137.702 37.5555C137.074 39.8235 135.844 41.3562 134.011 42.1534C132.635 42.7556 131.356 42.8639 130.173 42.4783C127.206 41.4407 125.154 37.7851 124.019 31.5115C122.908 32.573 122.051 33.3691 121.449 33.8999L121.091 33.2467ZM126.739 25.9355C127.743 24.227 128.598 22.4354 129.296 20.5805C130.549 17.0409 131.576 13.4258 132.373 9.75671C132.759 7.70525 132.771 6.05238 132.409 4.7981C132.34 4.43016 132.164 4.09089 131.902 3.82328C131.685 3.65431 131.493 3.70305 131.324 3.9695C130.165 5.19995 128.897 9.93001 127.522 18.1597C127.088 20.7314 126.827 23.3291 126.739 25.9355Z" fill="white"/>
<path d="M138.609 17.721C139.961 17.9875 140.407 18.3492 139.948 18.8063C139.082 19.6512 138.54 22.1608 138.323 26.3352C138.107 31.0404 139.036 34.0926 141.111 35.4921L140.387 36.2524C138.89 35.674 137.683 34.2746 136.767 32.0542C135.32 28.5318 135.211 23.6696 136.442 17.4676C137.169 17.5112 137.892 17.5958 138.609 17.721ZM137.667 12.7624C137.835 12.3696 138.12 12.0378 138.482 11.8113C138.845 11.5847 139.268 11.4744 139.695 11.4951C140.033 11.4793 140.368 11.5594 140.662 11.7261C140.957 11.8929 141.198 12.1395 141.358 12.4375C141.664 12.9489 141.768 13.5564 141.647 14.1402C141.357 15.4183 140.646 16.0941 139.513 16.1678C138.38 16.2414 137.656 15.5298 137.342 14.0329C137.367 13.591 137.479 13.1582 137.67 12.7592L137.667 12.7624Z" fill="white"/>
<path d="M141.361 20.3628C141.666 19.789 142.085 19.2837 142.593 18.8778C143.033 18.4822 143.595 18.2485 144.186 18.2154C144.776 18.1824 145.361 18.3518 145.842 18.6959C146.832 19.6859 147.4 21.303 147.545 23.5472C147.645 25.1112 147.536 26.6816 147.22 28.2167C149.56 21.8695 151.611 18.1294 153.374 16.9964C153.825 17.0431 154.264 17.165 154.674 17.3571C155.495 17.7687 155.796 18.372 155.578 19.167C154.949 20.0595 154.551 22.4121 154.382 26.2248C154.189 30.423 154.768 32.7398 156.12 33.1753C157.279 33.3919 158.16 32.9337 158.762 31.8008L158.98 32.2004C158.777 32.943 158.42 33.6341 157.93 34.2281C156.869 35.4585 155.505 35.7965 153.839 35.2419C152.366 34.8801 151.391 33.1785 150.915 30.1371C150.585 28.282 150.513 26.3903 150.7 24.5156C149.977 25.5771 149.12 27.635 148.13 30.6895C147.092 33.8999 146.334 35.9026 145.855 36.6976C144.81 36.3022 143.733 35.9988 142.635 35.791C143.866 27.9924 144.481 23.2624 144.481 21.6009C144.481 20.3942 144.192 19.7552 143.613 19.6837C143.202 19.6599 142.538 19.9621 141.621 20.5903L141.361 20.3628Z" fill="white"/>
<path d="M158.7 20.6163L160.221 19.6739C160.849 19.2883 161.344 18.9742 161.706 18.7316C161.899 16.3184 162.068 14.4965 162.213 13.2661C162.889 7.04021 164.071 3.19182 165.761 1.72092C167.594 0.0810485 169.002 -0.087921 169.985 1.21401C170.969 2.51594 171.186 4.86852 170.635 8.27174C169.985 12.0129 167.886 15.2623 164.338 18.02L164.556 23.3035C165.204 21.6501 166.071 20.0906 167.132 18.6666C169.063 16.0368 170.849 15.349 172.491 16.6032C174.469 18.1196 174.746 20.0498 173.323 22.3937C172.14 24.3715 170.269 26.0482 167.711 27.4238C167.69 28.7936 167.924 30.1554 168.4 31.4401C169.39 34.5292 171.477 36.4788 174.661 37.289C177.477 37.9887 179.444 37.7353 180.562 36.5287C179.574 37.9475 178.321 39.1613 176.871 40.103C173.975 41.9617 171.453 41.5999 169.306 39.0177C168.363 37.5303 167.654 35.9059 167.207 34.2021L165.797 28.2296C165.3 28.4209 164.773 28.519 164.24 28.5188C164.119 31.27 164.058 34.1782 164.058 37.2435L161.345 35.6188C161.176 30.84 161.273 25.5673 161.634 19.8007C160.708 20.3237 159.754 20.7945 158.775 21.2109L158.7 20.6163ZM168.582 3.4951C168.558 3.42834 168.521 3.36692 168.474 3.31439C168.426 3.26186 168.369 3.21925 168.305 3.18904C168.241 3.15883 168.172 3.14161 168.101 3.13837C168.03 3.13512 167.959 3.14593 167.893 3.17016C167.551 3.31194 167.27 3.56814 167.097 3.89478C165.31 6.81059 164.392 11.0088 164.344 16.4895C166.032 14.5832 167.299 11.9165 168.146 8.48945C168.87 5.95924 169.015 4.29446 168.582 3.4951ZM169.703 22.5334C170.23 21.77 170.631 20.9261 170.889 20.0346C171.105 19.2374 171.009 18.7305 170.6 18.5139C169.779 17.9593 168.644 19.0089 167.197 21.6626C166.469 23.0029 165.831 24.3902 165.287 25.8153C166.71 25.8478 168.182 24.7539 169.703 22.5334Z" fill="white"/>
<path d="M178.171 27.0956C179.668 24.1278 180.597 20.4603 180.959 16.0931C181.259 15.65 181.654 15.2792 182.116 15.0078C183.153 14.3579 184.336 14.2496 185.664 14.6828C185.857 14.7305 185.772 15.141 185.411 15.9144C184.977 16.8545 184.761 17.4578 184.761 17.7243C184.761 18.8594 185.268 20.0899 186.282 21.4156C187.06 20.7886 187.939 20.2985 188.881 19.9664C189.171 19.9664 189.317 20.0996 189.317 20.3661C188.481 20.9366 187.705 21.5898 187 22.3157C188.666 24.391 189.703 25.8392 190.113 26.6602C191.024 28.4882 191.242 30.5846 190.727 32.5611C190.51 33.4536 189.822 34.2259 188.663 34.878C187.487 35.4996 186.19 35.8578 184.862 35.9275C183.539 36.0772 182.2 35.8649 180.988 35.3134C180.417 35.0689 179.913 34.6916 179.517 34.2129C179.122 33.7342 178.846 33.1679 178.714 32.5611C178.302 30.9212 178.929 28.9911 180.595 26.7707C181.354 25.7253 182.226 24.7664 183.195 23.9112C182.228 22.2951 181.745 20.8112 181.745 19.4595C181.6 21.1492 180.804 23.6826 179.357 27.0599C177.451 31.5007 175.364 34.2757 173.095 35.3849C172.517 35.3134 172.275 35.0242 172.371 34.5173C174.983 32.1019 176.917 29.628 178.171 27.0956ZM181.898 29.0453C180.668 31.5798 180.788 33.1363 182.259 33.7147C183.537 34.2216 184.635 33.98 185.554 32.99C185.97 32.5749 186.28 32.0653 186.456 31.5045C186.633 30.9437 186.671 30.3486 186.568 29.7699C186.385 28.9725 186.04 28.2215 185.554 27.5635C185.06 26.8753 184.601 26.1628 184.179 25.4287C183.304 26.5641 182.541 27.7818 181.901 29.0647L181.898 29.0453Z" fill="white"/>
</svg>
