<svg width="262" height="210" viewBox="0 0 262 210" fill="none" xmlns="http://www.w3.org/2000/svg">
<g clip-path="url(#clip0)">
<path d="M157.72 209.921H0V2.20312L157.72 57.9792V209.921Z" fill="#F2F2F2"/>
<path d="M138.604 136.514H14.6816V202.228H138.604V136.514Z" fill="#3F3D56"/>
<path d="M111.767 124.221C121.284 124.221 128.999 115.44 128.999 104.608C128.999 93.7755 121.284 84.9944 111.767 84.9944C102.249 84.9944 94.5342 93.7755 94.5342 104.608C94.5342 115.44 102.249 124.221 111.767 124.221Z" fill="#6C63FF"/>
<path d="M111.61 140.077L111.752 104.5" stroke="#3F3D56" stroke-width="2" stroke-miterlimit="10"/>
<path d="M111.752 109.531C114.193 109.531 116.172 107.278 116.172 104.5C116.172 101.721 114.193 99.4685 111.752 99.4685C109.31 99.4685 107.331 101.721 107.331 104.5C107.331 107.278 109.31 109.531 111.752 109.531Z" fill="#3F3D56"/>
<path d="M111.664 126.427C111.664 126.427 111.094 110.965 98.1416 112.695L111.664 126.427Z" fill="#3F3D56"/>
<path d="M39.5772 84.8434C49.0944 84.8434 56.8097 76.0623 56.8097 65.2302C56.8097 54.3981 49.0944 45.6169 39.5772 45.6169C30.06 45.6169 22.3447 54.3981 22.3447 65.2302C22.3447 76.0623 30.06 84.8434 39.5772 84.8434Z" fill="#6C63FF"/>
<path d="M38.6016 137.637L39.5933 65.2085" stroke="#3F3D56" stroke-width="2" stroke-miterlimit="10"/>
<path d="M39.5933 70.2396C42.0347 70.2396 44.0138 67.9871 44.0138 65.2084C44.0138 62.4298 42.0347 60.1772 39.5933 60.1772C37.152 60.1772 35.1729 62.4298 35.1729 65.2084C35.1729 67.9871 37.152 70.2396 39.5933 70.2396Z" fill="#3F3D56"/>
<path d="M39.3133 85.6957C39.3133 85.6957 38.8935 70.2278 25.9248 71.7949L39.3133 85.6957Z" fill="#3F3D56"/>
<path d="M38.6205 136.254C38.6205 136.254 41.8689 106.582 25.4717 104.853" stroke="#3F3D56" stroke-width="2" stroke-miterlimit="10"/>
<path d="M25.4722 109.884C27.9136 109.884 29.8927 107.632 29.8927 104.853C29.8927 102.074 27.9136 99.8218 25.4722 99.8218C23.0309 99.8218 21.0518 102.074 21.0518 104.853C21.0518 107.632 23.0309 109.884 25.4722 109.884Z" fill="#3F3D56"/>
<path d="M76.6358 41.3012C86.153 41.3012 93.8683 32.52 93.8683 21.6879C93.8683 10.8558 86.153 2.07471 76.6358 2.07471C67.1186 2.07471 59.4033 10.8558 59.4033 21.6879C59.4033 32.52 67.1186 41.3012 76.6358 41.3012Z" fill="#6C63FF"/>
<path d="M76.6465 140.43V21.76" stroke="#3F3D56" stroke-width="2" stroke-miterlimit="10"/>
<path d="M76.6461 26.735C79.0874 26.735 81.0665 24.4824 81.0665 21.7038C81.0665 18.9251 79.0874 16.6726 76.6461 16.6726C74.2047 16.6726 72.2256 18.9251 72.2256 21.7038C72.2256 24.4824 74.2047 26.735 76.6461 26.735Z" fill="#3F3D56"/>
<path d="M63.0689 112.593C65.5103 112.593 67.4894 110.341 67.4894 107.562C67.4894 104.784 65.5103 102.531 63.0689 102.531C60.6275 102.531 58.6484 104.784 58.6484 107.562C58.6484 110.341 60.6275 112.593 63.0689 112.593Z" fill="#3F3D56"/>
<path d="M76.6465 47.4032C76.6465 47.4032 76.015 31.9447 63.0693 33.7415L76.6465 47.4032Z" fill="#3F3D56"/>
<path d="M76.6465 91.2265C76.6465 91.2265 76.015 75.7679 63.0693 77.5648L76.6465 91.2265Z" fill="#3F3D56"/>
<path d="M76.6465 139.047C76.6465 139.047 79.4882 109 63.0693 107.562" stroke="#3F3D56" stroke-width="2" stroke-miterlimit="10"/>
<path d="M90.4947 65.3993C92.9361 65.3993 94.9152 63.1467 94.9152 60.3681C94.9152 57.5894 92.9361 55.3369 90.4947 55.3369C88.0533 55.3369 86.0742 57.5894 86.0742 60.3681C86.0742 63.1467 88.0533 65.3993 90.4947 65.3993Z" fill="#3F3D56"/>
<path d="M76.9174 90.2504C76.9174 90.2504 74.0757 61.8056 90.4946 60.3682" stroke="#3F3D56" stroke-width="2" stroke-miterlimit="10"/>
<path d="M113.502 49.0037C112.276 49.0037 111.078 48.5901 110.059 47.8152C109.04 47.0403 108.246 45.9389 107.777 44.6503C107.308 43.3617 107.186 41.9437 107.425 40.5758C107.664 39.2078 108.254 37.9512 109.12 36.9649C109.987 35.9787 111.091 35.307 112.293 35.0349C113.495 34.7628 114.741 34.9025 115.873 35.4362C117.005 35.97 117.973 36.8739 118.654 38.0336C119.335 39.1933 119.698 40.5568 119.698 41.9516C119.696 43.8213 119.043 45.6138 117.881 46.9358C116.719 48.2579 115.145 49.0016 113.502 49.0037ZM113.502 35.5405C112.388 35.5405 111.299 35.9165 110.372 36.621C109.446 37.3254 108.724 38.3267 108.298 39.4982C107.871 40.6696 107.76 41.9587 107.977 43.2023C108.195 44.4459 108.731 45.5883 109.519 46.4849C110.307 47.3815 111.31 47.992 112.403 48.2394C113.496 48.4868 114.628 48.3598 115.657 47.8746C116.687 47.3894 117.566 46.5676 118.185 45.5133C118.804 44.4591 119.135 43.2195 119.135 41.9516C119.133 40.2518 118.539 38.6223 117.483 37.4204C116.427 36.2185 114.995 35.5425 113.502 35.5405Z" fill="#3F3D56"/>
<path d="M16.0536 15.0252C14.8281 15.0252 13.6301 14.6116 12.6112 13.8367C11.5922 13.0618 10.798 11.9604 10.3291 10.6718C9.86011 9.38318 9.7374 7.96523 9.97648 6.59724C10.2156 5.22926 10.8057 3.97269 11.6722 2.98643C12.5388 2.00017 13.6428 1.32852 14.8447 1.05641C16.0467 0.784298 17.2925 0.923955 18.4247 1.45772C19.5569 1.99148 20.5246 2.89537 21.2054 4.05509C21.8863 5.21481 22.2497 6.57827 22.2497 7.97305C22.2478 9.84275 21.5944 11.6353 20.4328 12.9573C19.2712 14.2794 17.6963 15.0231 16.0536 15.0252ZM16.0536 1.56201C14.9395 1.56201 13.8504 1.93801 12.9241 2.64246C11.9978 3.34692 11.2758 4.34818 10.8495 5.51965C10.4231 6.69111 10.3116 7.98016 10.5289 9.22378C10.7463 10.4674 11.2828 11.6097 12.0705 12.5063C12.8583 13.4029 13.862 14.0135 14.9546 14.2609C16.0473 14.5083 17.1799 14.3813 18.2091 13.8961C19.2384 13.4108 20.1181 12.5891 20.7371 11.5348C21.356 10.4805 21.6864 9.24104 21.6864 7.97305C21.6847 6.27333 21.0907 4.64379 20.0347 3.44191C18.9787 2.24002 17.547 1.56395 16.0536 1.56201Z" fill="#3F3D56"/>
<path d="M157.72 119.525C156.494 119.525 155.296 119.112 154.277 118.337C153.258 117.562 152.464 116.46 151.995 115.172C151.526 113.883 151.403 112.465 151.642 111.097C151.882 109.729 152.472 108.473 153.338 107.486C154.205 106.5 155.309 105.829 156.511 105.556C157.713 105.284 158.959 105.424 160.091 105.958C161.223 106.491 162.191 107.395 162.871 108.555C163.552 109.715 163.916 111.078 163.916 112.473C163.914 114.343 163.26 116.135 162.099 117.457C160.937 118.779 159.362 119.523 157.72 119.525ZM157.72 106.062C156.605 106.062 155.516 106.438 154.59 107.142C153.664 107.847 152.942 108.848 152.515 110.02C152.089 111.191 151.978 112.48 152.195 113.724C152.412 114.967 152.949 116.11 153.737 117.006C154.524 117.903 155.528 118.514 156.621 118.761C157.713 119.008 158.846 118.881 159.875 118.396C160.904 117.911 161.784 117.089 162.403 116.035C163.022 114.981 163.352 113.741 163.352 112.473C163.351 110.773 162.757 109.144 161.701 107.942C160.645 106.74 159.213 106.064 157.72 106.062Z" fill="#3F3D56"/>
<path d="M131.527 64.3903C133.549 64.3903 135.188 62.5246 135.188 60.2231C135.188 57.9216 133.549 56.0559 131.527 56.0559C129.504 56.0559 127.865 57.9216 127.865 60.2231C127.865 62.5246 129.504 64.3903 131.527 64.3903Z" fill="#3F3D56"/>
<path d="M160.254 140.361C162.276 140.361 163.915 138.495 163.915 136.194C163.915 133.893 162.276 132.027 160.254 132.027C158.232 132.027 156.593 133.893 156.593 136.194C156.593 138.495 158.232 140.361 160.254 140.361Z" fill="#3F3D56"/>
<path d="M157.72 209.921V136.514H131.527C131.527 170.859 107.064 198.702 76.8883 198.702C46.7122 198.702 22.2497 170.859 22.2497 136.514H0V209.921H157.72Z" fill="#3F3D56"/>
<path d="M76.8886 198.702C107.065 198.702 131.527 170.859 131.527 136.514H22.25C22.25 170.859 46.7125 198.702 76.8886 198.702Z" fill="#6C63FF"/>
<path d="M232.012 162.658C258.939 147.155 269.726 109.743 256.106 79.0962L158.594 135.235C172.214 165.883 205.085 178.16 232.012 162.658Z" fill="#3F3D56"/>
<path d="M233.988 46.9212C234.169 46.781 234.344 46.6312 234.515 46.4746C234.16 47.6855 233.587 48.799 232.833 49.7444C232.657 49.9654 232.469 50.1722 232.275 50.3723C232.272 50.3216 232.267 50.2709 232.265 50.2203C232.242 49.7299 232.274 49.2138 232.28 48.7088C232.951 48.2534 233.533 47.6448 233.988 46.9212Z" fill="url(#paint0_linear)"/>
<path d="M236.629 29.0369C237.039 28.2506 237.276 27.363 237.318 26.45C237.361 25.5371 237.208 24.626 236.874 23.7947C236.539 22.9635 236.033 22.2369 235.398 21.6771C234.763 21.1173 234.018 20.7411 233.227 20.5806C232.436 20.42 231.623 20.48 230.857 20.7554C230.091 21.0308 229.395 21.5134 228.829 22.1618C228.263 22.8102 227.843 23.6052 227.606 24.4786C227.368 25.352 227.32 26.2779 227.466 27.177C226.045 27.9473 224.856 29.1788 224.048 30.7165C223.24 32.2543 222.85 34.0295 222.926 35.819C222.247 37.0053 221.821 38.3555 221.681 39.7623C221.542 41.1691 221.693 42.5935 222.122 43.9222C222.551 45.251 223.247 46.4473 224.154 47.416C225.061 48.3846 226.155 49.0989 227.347 49.5019C228.539 49.9049 229.798 49.9855 231.023 49.7374C232.247 49.4892 233.404 48.919 234.401 48.0723C235.398 47.2256 236.207 46.1257 236.765 44.8602C237.322 43.5947 237.613 42.1985 237.613 40.7828C237.613 40.6378 237.609 40.4938 237.603 40.3504C238.594 38.6192 239.038 36.5555 238.861 34.4991C238.684 32.4427 237.897 30.5162 236.629 29.0369Z" fill="#2F2E41"/>
<g opacity="0.1">
<path opacity="0.1" d="M227.4 25.7401C227.423 25.7277 227.444 25.7134 227.466 25.7013C227.45 25.6033 227.44 25.5037 227.428 25.4043C227.426 25.4251 227.422 25.4455 227.42 25.4663C227.41 25.558 227.406 25.6489 227.4 25.7401Z" fill="black"/>
<path opacity="0.1" d="M238.841 35.0003C238.696 36.3832 238.272 37.7093 237.603 38.8754C237.609 39.0188 237.613 39.1628 237.613 39.3078C237.613 41.6564 236.815 43.9141 235.386 45.6081C233.956 47.3022 232.007 48.3011 229.945 48.3959C227.883 48.4906 225.869 47.6738 224.324 46.1164C222.779 44.559 221.824 42.3819 221.658 40.0409C221.641 40.2857 221.63 40.5327 221.63 40.7827C221.63 43.195 222.472 45.5085 223.971 47.2142C225.469 48.9199 227.502 49.8782 229.621 49.8782C231.741 49.8782 233.773 48.9199 235.272 47.2142C236.771 45.5085 237.613 43.195 237.613 40.7827C237.613 40.6377 237.609 40.4937 237.603 40.3504C238.572 38.6603 239.018 36.6507 238.87 34.6396C238.862 34.7597 238.854 34.8796 238.841 35.0003Z" fill="black"/>
<path opacity="0.1" d="M237.285 25.3989C237.198 26.1634 236.975 26.8996 236.629 27.5619C236.769 27.7253 236.901 27.8964 237.029 28.071C237.302 27.2166 237.389 26.3 237.285 25.3989H237.285Z" fill="black"/>
</g>
<path d="M204.426 126.621C204.464 127.138 204.587 127.643 204.789 128.109C204.892 128.341 205.042 128.541 205.226 128.695C205.41 128.848 205.623 128.95 205.849 128.992C206.263 128.995 206.669 128.861 207.018 128.606C207.729 128.183 208.467 127.691 208.839 126.882C209.198 126.097 209.147 125.162 209.086 124.28L208.608 117.344C207.457 117.308 206.301 117.309 205.151 117.38C204.012 117.451 203.812 117.756 203.97 119.022C204.286 121.541 204.132 124.1 204.426 126.621Z" fill="#FBBEBE"/>
<path d="M238.193 131.308L240.932 136.344C241.049 136.637 241.263 136.865 241.527 136.981C241.724 137.014 241.924 136.974 242.099 136.868C243.013 136.414 243.712 135.551 244.383 134.712C244.838 134.143 245.308 133.542 245.479 132.797C245.567 132.393 245.564 131.97 245.468 131.569C245.372 131.167 245.187 130.8 244.932 130.502C244.612 130.185 244.266 129.904 243.899 129.662C241.734 128 240.757 124.843 238.62 123.135C238.497 123.019 238.347 122.945 238.187 122.923C238.029 122.934 237.875 122.993 237.743 123.093C236.769 123.701 235.795 124.308 234.821 124.916C233.556 125.704 233.957 125.796 234.918 126.644C236.333 127.894 237.217 129.642 238.193 131.308Z" fill="#FBBEBE"/>
<path d="M210.371 122.609C209.97 122.465 209.521 122.336 209.142 122.545C208.966 122.668 208.816 122.836 208.705 123.035C208.594 123.234 208.525 123.46 208.502 123.695C208.426 124.157 208.435 124.638 208.322 125.091C208.132 125.854 207.62 126.451 207.128 127.013C206.928 127.284 206.67 127.489 206.378 127.607C205.983 127.722 205.563 127.512 205.161 127.592C204.927 127.66 204.714 127.8 204.545 127.996C204.376 128.192 204.257 128.438 204.202 128.705C204.097 129.241 204.081 129.795 204.155 130.338L204.466 134.204C204.52 134.675 204.525 135.152 204.478 135.624C204.364 136.474 203.93 137.22 203.689 138.035C203.448 138.849 203.462 139.89 204.064 140.408C204.275 140.568 204.517 140.665 204.769 140.69C205.021 140.715 205.274 140.668 205.506 140.553C205.967 140.316 206.375 139.963 206.7 139.521C208.544 137.232 209.368 134.131 210.803 131.488C211.169 130.877 211.496 130.237 211.783 129.573C211.98 129.06 212.105 128.515 212.264 127.985C212.484 127.277 212.748 126.588 213.054 125.923C213.225 125.542 213.878 124.625 213.741 124.2C213.507 123.475 210.993 122.832 210.371 122.609Z" fill="#2F2E41"/>
<path d="M243.63 133.271C243.215 134.157 242.522 134.833 241.689 135.164C241.448 135.239 241.223 135.371 241.03 135.553C240.903 135.729 240.825 135.943 240.804 136.169C240.784 136.396 240.822 136.624 240.914 136.826C241.105 137.225 241.353 137.586 241.648 137.892C243.304 139.886 244.399 142.398 244.793 145.105C244.891 145.788 244.955 146.514 245.314 147.072C246.016 148.163 247.509 148.092 248.564 147.47C248.886 147.302 249.166 147.044 249.377 146.72C249.553 146.369 249.664 145.981 249.705 145.579C249.896 144.584 250.001 143.57 250.019 142.552C249.999 140.63 249.365 138.793 249.062 136.902C248.632 134.219 248.847 131.329 247.749 128.904C247.64 128.619 247.467 128.372 247.248 128.187C246.973 128.022 246.665 127.944 246.355 127.959C245.363 127.912 244.37 127.902 243.377 127.929C243.099 127.936 242.774 127.976 242.63 128.247C242.482 128.524 242.611 128.878 242.74 129.166C243.355 130.535 244.351 131.629 243.63 133.271Z" fill="#2F2E41"/>
<path d="M220.067 85.1731C219.79 85.4337 219.602 85.797 219.536 86.1996C219.47 86.6021 219.531 87.0181 219.708 87.3747C219.928 87.7894 220.322 88.1755 220.236 88.6499C220.146 89.1424 219.614 89.3096 219.178 89.3886C215.332 90.0848 211.589 91.3663 207.86 92.6441L203.949 93.9845C202.821 94.3709 201.674 94.7679 200.699 95.5208C199.805 96.2142 199.097 97.1764 198.655 98.3002C198.208 99.4414 198.054 100.698 197.894 101.935C197.307 106.484 196.557 111.078 194.773 115.204L204.26 118.744C205.18 119.128 206.132 119.401 207.102 119.558C208.027 119.645 208.958 119.594 209.871 119.406C209.812 116.995 209.776 114.511 209.717 112.1C209.711 111.339 209.668 110.578 209.587 109.822C209.445 108.667 209.13 107.543 209.032 106.382C209.469 105.971 210.105 106.073 210.672 106.092C211.967 106.135 213.23 105.623 214.381 104.948C215.532 104.273 216.602 103.432 217.747 102.743C219.653 101.595 221.822 100.823 223.278 99.0112C222.536 102.228 220.785 105.03 220.446 108.333C220.103 111.67 221.297 114.935 222.465 118.021L226.197 127.879C226.609 128.967 227.158 130.19 228.174 130.45C228.807 130.612 229.46 130.341 230.047 130.028C233.482 128.197 236.23 124.755 239.898 123.654C239.625 121.587 238.189 119.878 237.377 118.004C236.691 116.423 236.467 114.642 236.011 112.958C235.554 111.273 234.769 109.566 233.389 108.765C232.734 108.385 231.851 108.054 231.79 107.22C231.786 106.952 231.836 106.687 231.936 106.444C232.427 105.037 233.19 103.773 234.168 102.745C234.294 102.635 234.395 102.492 234.462 102.328C234.498 102.165 234.505 101.996 234.483 101.83C234.414 100.488 235.046 99.2322 235.75 98.1529C236.455 97.0736 237.268 96.0463 237.666 94.7801C238.349 92.6028 237.671 90.2102 236.996 88.0298C236.723 87.1485 236.436 86.24 235.875 85.5573C234.996 84.4869 233.627 84.1784 232.348 84.0187C228.21 83.5025 223.355 82.268 220.067 85.1731Z" fill="#2F2E41"/>
<g opacity="0.1">
<path opacity="0.1" d="M219.637 85.8243C219.776 85.7921 219.905 85.718 220.01 85.6097C220.116 85.5014 220.194 85.3629 220.236 85.2086C220.247 85.1482 220.25 85.0863 220.246 85.0249C220.186 85.074 220.126 85.1216 220.068 85.1733C219.877 85.3449 219.729 85.569 219.637 85.8243Z" fill="black"/>
</g>
<path d="M226.605 51.0506C226.655 52.1261 226.369 53.2772 225.643 53.9673C225.41 54.1886 225.139 54.3564 224.915 54.5893C224.716 54.8223 224.563 55.1018 224.469 55.4085C224.374 55.7152 224.339 56.0417 224.366 56.3653C224.394 56.6889 224.483 57.0019 224.627 57.2824C224.772 57.5629 224.968 57.8042 225.203 57.9896C225.957 58.5134 226.916 58.3721 227.787 58.2002C228.948 58.0155 230.086 57.6774 231.178 57.1929C232.277 56.7017 233.212 55.8299 233.852 54.7008C232.904 54.0992 232.387 52.8356 232.33 51.602C232.272 50.3668 232.57 48.965 231.883 48.0068C231.221 47.084 229.975 47.0907 228.966 47.4075C228.46 47.5665 227.969 47.7864 227.462 47.942C227.205 48.0208 226.356 48.0229 226.188 48.2383C225.883 48.6299 226.577 50.4283 226.605 51.0506Z" fill="#FBBEBE"/>
<path opacity="0.1" d="M226.605 51.0506C226.655 52.1261 226.369 53.2772 225.643 53.9673C225.41 54.1886 225.139 54.3564 224.915 54.5893C224.716 54.8223 224.563 55.1018 224.469 55.4085C224.374 55.7152 224.339 56.0417 224.366 56.3653C224.394 56.6889 224.483 57.0019 224.627 57.2824C224.772 57.5629 224.968 57.8042 225.203 57.9896C225.957 58.5134 226.916 58.3721 227.787 58.2002C228.948 58.0155 230.086 57.6774 231.178 57.1929C232.277 56.7017 233.212 55.8299 233.852 54.7008C232.904 54.0992 232.387 52.8356 232.33 51.602C232.272 50.3668 232.57 48.965 231.883 48.0068C231.221 47.084 229.975 47.0907 228.966 47.4075C228.46 47.5665 227.969 47.7864 227.462 47.942C227.205 48.0208 226.356 48.0229 226.188 48.2383C225.883 48.6299 226.577 50.4283 226.605 51.0506Z" fill="black"/>
<path d="M229.513 50.9844C232.614 50.9844 235.129 48.1229 235.129 44.593C235.129 41.0632 232.614 38.2017 229.513 38.2017C226.412 38.2017 223.897 41.0632 223.897 44.593C223.897 48.1229 226.412 50.9844 229.513 50.9844Z" fill="#FBBEBE"/>
<path d="M211.782 93.6287C211.681 94.1337 211.502 94.6142 211.253 95.0478C210.598 96.3719 210.362 97.9112 210.583 99.4096C210.701 100.153 210.978 100.851 211.39 101.443C211.802 102.035 212.335 102.503 212.943 102.806C213.469 103.041 214.12 103.103 214.553 102.691C213.803 101.58 213.763 100.064 213.808 98.6636C213.795 98.4022 213.85 98.1422 213.966 97.916C213.997 97.8621 214.037 97.816 214.084 97.7805C214.131 97.7451 214.184 97.721 214.239 97.7097C214.295 97.6985 214.352 97.7004 214.407 97.7152C214.462 97.7301 214.514 97.7576 214.559 97.7961C214.54 98.6777 214.689 99.5534 214.997 100.363C215.116 100.674 215.319 101.018 215.617 101.009C216.045 100.996 216.16 100.337 216.144 99.8503C216.078 97.8681 215.993 95.8035 215.153 94.0651C214.846 93.4288 214.436 92.8313 214.319 92.1174C214.314 91.8699 214.238 91.6309 214.105 91.4357C214.012 91.353 213.904 91.2957 213.789 91.2682C213.305 91.1127 212.161 90.6286 211.762 91.1441C211.334 91.6967 211.859 92.968 211.782 93.6287Z" fill="#FBBEBE"/>
<path d="M220.121 59.67C219.477 59.5875 218.969 60.2584 218.616 60.8771C217.301 63.1841 216.355 65.7373 215.821 68.4189C215.549 69.7876 215.378 71.2092 214.807 72.453C214.67 72.7112 214.559 72.9867 214.477 73.2739C214.428 73.7125 214.411 74.1549 214.426 74.5967C214.366 75.3953 213.952 76.1047 213.813 76.8904C213.73 77.3587 213.746 77.8434 213.673 78.3137C213.543 79.1373 213.146 79.8698 212.891 80.6547C212.443 82.0367 212.447 83.5541 212.118 84.9786C212.078 85.2134 211.988 85.4337 211.858 85.6211C211.634 85.9004 211.277 85.9686 210.985 86.1476C210.755 86.3078 210.558 86.5222 210.406 86.7762C210.255 87.0303 210.153 87.3183 210.108 87.6208C210.021 88.2258 210.011 88.8419 210.078 89.4502L210.336 93.2309C210.602 93.1038 210.776 92.7611 210.998 92.5512C211.404 92.167 212 92.2532 212.52 92.3604L213.277 92.5165C214.051 92.6762 214.893 92.8798 215.389 93.5743C215.784 92.8719 215.558 91.8367 216.165 91.3694C216.362 91.2174 216.606 91.166 216.814 91.0338C217.01 90.8896 217.173 90.6937 217.288 90.4627C217.403 90.2318 217.467 89.9726 217.475 89.7073C217.487 89.177 217.423 88.6481 217.285 88.1414C218.257 87.6742 218.86 86.5539 219.241 85.4335C219.659 84.0775 219.962 82.6787 220.145 81.2566C221.023 75.6383 221.826 69.9797 221.906 64.2739C221.961 63.3194 221.868 62.3613 221.632 61.4434C221.355 60.5425 220.954 59.7767 220.121 59.67Z" fill="#D0CDE1"/>
<path d="M234.278 53.5513C233.351 54.6578 232.166 55.4409 230.863 55.809C229.566 56.172 228.242 56.3941 226.908 56.4721C226.498 56.5503 226.077 56.5089 225.685 56.3519C225.307 56.1574 225.021 55.6492 225.174 55.2116C225.249 55.0763 225.299 54.9256 225.322 54.7682C225.315 54.3789 224.812 54.3466 224.485 54.4617C222.323 55.2227 220.25 56.7296 219.253 59.0412C218.689 60.3469 218.503 61.8153 218.324 63.2558C217.855 67.0446 217.386 70.9158 218.016 74.6744C218.352 76.6786 218.998 78.6322 219.038 80.672C219.061 81.8151 218.891 82.9538 218.899 84.0971C218.869 84.4975 218.963 84.8973 219.165 85.227C219.321 85.4326 219.555 85.5623 219.664 85.8039C219.845 86.2078 219.603 86.7625 219.842 87.1257C220.136 87.5731 220.75 87.2518 221.155 86.9363C223.193 85.3614 225.654 84.6562 228.104 84.9453C231.047 85.3048 233.971 87.0901 236.826 86.1979C236.679 85.954 236.552 85.6951 236.447 85.4246C235.024 80.1014 235.12 74.1512 237.25 69.1429C237.978 67.4319 238.943 65.8013 239.222 63.927C239.335 63.0504 239.344 62.1605 239.249 61.2812C239.099 59.5797 238.743 57.8641 237.93 56.4257C237.118 54.9872 235.773 53.7197 234.278 53.5513Z" fill="#D0CDE1"/>
<path d="M220.693 95.2737C220.464 95.9688 220.355 96.7072 220.37 97.4492C220.349 98.1589 220.38 98.8694 220.463 99.5733C220.51 100.175 220.699 100.751 221.008 101.242C221.167 101.483 221.384 101.666 221.634 101.767C221.883 101.868 222.153 101.882 222.41 101.809C222.612 101.713 222.793 101.568 222.939 101.383C223.086 101.197 223.194 100.977 223.256 100.739C223.377 100.261 223.465 99.7739 223.521 99.2811C223.768 97.8304 224.437 96.4687 224.448 94.9912C224.458 94.816 224.433 94.6405 224.377 94.4771C224.134 93.8698 222.941 93.1883 222.358 93.2905C221.629 93.4184 220.958 94.5723 220.693 95.2737Z" fill="#FBBEBE"/>
<path opacity="0.1" d="M236.898 58.9473C236.787 60.218 237.867 61.1758 238.294 62.3568C238.469 62.9081 238.568 63.4866 238.589 64.0722C238.889 68.1355 238.656 72.2225 238.423 76.2915C238.38 77.6461 238.233 78.9938 237.982 80.3188C237.379 83.0993 235.896 85.5097 234.443 87.8478C233.944 88.7851 233.18 89.5021 232.276 89.8817L227.29 92.6307C226.665 92.9447 226.072 93.3333 225.519 93.7899C224.877 94.3622 224.373 95.1095 224.053 95.9625C223.085 95.3999 222.081 94.8948 221.114 94.3322C220.887 94.2005 220.634 94.0286 220.595 93.7427C220.543 93.3591 220.895 93.0881 221.137 92.815C221.591 92.3041 221.731 91.5469 221.977 90.8765C222.779 88.6863 224.797 87.2845 225.525 85.0608C225.805 84.2063 225.891 83.2405 226.387 82.5244C226.67 82.1653 226.99 81.8447 227.338 81.5688C228.107 80.8263 228.813 80.0036 229.447 79.1115C229.732 78.7751 229.965 78.3865 230.137 77.962C230.355 77.3309 230.289 76.6272 230.301 75.9493C230.338 73.7299 231.22 71.66 231.759 69.5269C232.268 67.518 232.48 65.4108 233.147 63.4629C233.813 61.5151 235.12 59.471 236.898 58.9473Z" fill="black"/>
<path d="M237.546 58.9473C237.434 60.218 238.515 61.1758 238.942 62.3568C239.116 62.9081 239.216 63.4866 239.236 64.0722C239.536 68.1355 239.303 72.2225 239.07 76.2915C239.028 77.6461 238.88 78.9938 238.629 80.3188C238.026 83.0993 236.543 85.5097 235.09 87.8478C234.591 88.7851 233.827 89.5021 232.924 89.8817L227.937 92.6307C227.313 92.9447 226.719 93.3333 226.166 93.7899C225.525 94.3622 225.021 95.1095 224.7 95.9625C223.733 95.3999 222.729 94.8948 221.761 94.3322C221.535 94.2005 221.282 94.0286 221.243 93.7427C221.19 93.3591 221.542 93.0881 221.785 92.815C222.239 92.3041 222.378 91.5469 222.624 90.8765C223.427 88.6863 225.445 87.2845 226.173 85.0608C226.452 84.2063 226.538 83.2405 227.034 82.5244C227.318 82.1653 227.637 81.8447 227.985 81.5688C228.754 80.8263 229.46 80.0036 230.094 79.1115C230.379 78.7751 230.613 78.3865 230.784 77.962C231.002 77.3309 230.937 76.6272 230.948 75.9493C230.985 73.7299 231.867 71.66 232.407 69.5269C232.915 67.518 233.127 65.4108 233.794 63.4629C234.461 61.5151 235.767 59.471 237.546 58.9473Z" fill="#D0CDE1"/>
<path d="M232.299 34.7124C230.568 34.4717 228.817 34.8845 227.312 35.8873C227.534 35.8967 227.757 35.9139 227.981 35.9448C229.643 36.1731 231.199 36.9897 232.432 38.2791C233.664 39.5686 234.509 41.2659 234.848 43.1315C235.187 44.9971 235.003 46.9367 234.321 48.6768C233.64 50.4168 232.496 51.8694 231.05 52.8294C233.11 52.9149 235.119 52.0911 236.658 50.53C238.197 48.9689 239.146 46.7914 239.307 44.4524C239.468 42.1135 238.829 39.7942 237.523 37.9791C236.217 36.1639 234.345 34.9935 232.299 34.7124Z" fill="#2F2E41"/>
<path d="M234.756 39.7686C234.95 40.2688 235.056 40.8076 235.067 41.3543C235.077 41.9009 234.993 42.4446 234.819 42.9543C234.782 42.8225 234.738 42.6931 234.688 42.5664C233.701 40.0649 230.658 39.0294 227.892 40.2537C226.263 40.9749 225.094 42.3196 224.609 43.8142C223.905 41.396 225.335 38.6175 227.96 37.4559C230.726 36.2316 233.768 37.2671 234.756 39.7686Z" fill="#2F2E41"/>
<g opacity="0.1">
<path opacity="0.1" d="M234.772 42.7558C234.645 41.0001 234.072 39.3243 233.124 37.9315C232.176 36.5388 230.894 35.4889 229.432 34.9092C228.688 35.1177 227.974 35.4471 227.312 35.8872C227.534 35.8966 227.757 35.9138 227.981 35.9447C229.585 36.1654 231.093 36.9345 232.305 38.1505C233.518 39.3665 234.378 40.9721 234.772 42.7558Z" fill="black"/>
<path opacity="0.1" d="M236.068 36.1186C235.94 34.3629 235.368 32.6871 234.42 31.2943C233.472 29.9016 232.19 28.8517 230.728 28.272C229.984 28.4805 229.27 28.8099 228.608 29.25C228.83 29.2594 229.053 29.2766 229.277 29.3074C230.881 29.5282 232.389 30.2973 233.601 31.5133C234.814 32.7292 235.674 34.3349 236.068 36.1186Z" fill="black"/>
<path opacity="0.1" d="M236.101 26.205C236.024 25.1454 235.678 24.134 235.106 23.2935C234.534 22.453 233.76 21.8193 232.878 21.4695C232.429 21.5953 231.998 21.7941 231.599 22.0597C231.732 22.0654 231.867 22.0758 232.002 22.0944C232.97 22.2276 233.88 22.6918 234.612 23.4256C235.344 24.1595 235.863 25.1285 236.101 26.205Z" fill="black"/>
<path opacity="0.1" d="M239.09 41.5235C239.245 43.7046 238.705 45.8765 237.568 47.6412C236.431 49.406 234.774 50.6455 232.899 51.1327C232.36 51.7993 231.737 52.3711 231.05 52.8293C232.289 52.8808 233.521 52.6035 234.65 52.0192C235.778 51.435 236.772 50.5598 237.552 49.4629C238.332 48.3661 238.877 47.0777 239.144 45.6997C239.411 44.3217 239.392 42.8919 239.09 41.5234V41.5235Z" fill="black"/>
</g>
<path d="M214.233 99.8014L213.199 64.2432" stroke="#6C63FF" stroke-width="2" stroke-miterlimit="10"/>
<path d="M213.2 69.2743C215.641 69.2743 217.62 67.0217 217.62 64.2431C217.62 61.4644 215.641 59.2119 213.2 59.2119C210.758 59.2119 208.779 61.4644 208.779 64.2431C208.779 67.0217 210.758 69.2743 213.2 69.2743Z" fill="#6C63FF"/>
<path d="M213.837 86.1583C213.837 86.1583 212.757 70.732 199.87 73.0149L213.837 86.1583Z" fill="#6C63FF"/>
</g>
<defs>
<linearGradient id="paint0_linear" x1="233.386" y1="50.3723" x2="233.386" y2="46.4746" gradientUnits="userSpaceOnUse">
<stop stop-color="#808080" stop-opacity="0.25"/>
<stop offset="0.53514" stop-color="#808080" stop-opacity="0.12"/>
<stop offset="1" stop-color="#808080" stop-opacity="0.1"/>
</linearGradient>
<clipPath id="clip0">
<rect width="262" height="209" fill="white" transform="translate(0 0.920898)"/>
</clipPath>
</defs>
</svg>
